<svg xmlns="http://www.w3.org/2000/svg" width="1340" height="600" fill="none" viewBox="0 0 1340 600"><path fill="#f0554d" fill-rule="evenodd" d="m62.6 54.7 1242.8 11.7c11 0 20.5 9 20 20l-6.6 450.1c-.4 11-9 19.8-20 20L37.6 590.4c-11 .3-19.8-9-20-20l25-495.5c-.4-11 9-20.2 20-20" clip-rule="evenodd"/><mask id="a" width="1309" height="537" x="17" y="54" maskUnits="userSpaceOnUse" style="mask-type:luminance"><path fill="#fff" d="m62.6 54.7 1242.8 11.7c11 0 20.5 9 20 20l-6.6 450.1c-.4 11-9 19.8-20 20L37.6 590.4c-11 .3-19.8-9-20-20l25-495.5c-.4-11 9-20.2 20-20"/></mask><g mask="url(#a)"><path fill="#fe7454" fill-rule="evenodd" d="M568.8 232.3q-.8 2.2-.5 4.7l27.3 260.5c.4 4.4 3.3 7.5 7.4 9.3L872.8 629c4.1 1.5 8.5.7 11.8-2.2l206.4-180c3-2.5 4.1-6 3.8-9.6q.7-2.7.4-5.7l-13.2-98a10 10 0 0 0-7.7-8.6l-221.4-46.2c-3.4-.7-6.7-.6-9.7 1.2l-39.5 24a11 11 0 0 0-5.4 10.6v.5a11 11 0 0 0-.5 4.6l3.9 40.2c.4 4.6 3.6 8 8 9.6L957.5 420c4.2 1.4 7.2 4.5 8 8.8q-1.4 3.3-4.3 5.8l-91.9 79.7c-2.9 2.5-6.9 3-10.5 1.6l-159.3-61.2q-6.2-2.4-7.6-8.8l-2.8-14.6-12.5-159q-.4-6.5 4.8-10.8l130-108.4c3-2.5 7.1-2.6 11-1.4l343 115.5c3.5 1 9.7 5.1 11.8 12.4l59.5 210.5.3 1.5q-.7 3.2-3.5 5.4l-194 152.3H620.4l-128.3-49.6a10 10 0 0 1-7-8.4l-47-411.4v-.4q1-3 3.9-5.1L608.9 51H776L572.7 222.3q-4.5 3.9-4 9.6zM1172.7 51l20.8 112.6.3 1.5c-1.5 4.5-5.9 6.6-12 4.6L827.2 51z" clip-rule="evenodd"/></g><path fill="#541138" d="M791.5 49.7S755.2 161 830.5 233c11.3 8.5 37.4-1.5 30.4-9.7a164 164 0 0 1-24.1-161s-14-19-45.3-12.5"/><path fill="#79505f" fill-rule="evenodd" d="M796.2 53.8S763.1 161.5 833.5 230c0 0 16 6.4 24.3-4.2 0 0-62.4-70.2-26.9-162.8 0 0-10.8-15.9-34.7-9" clip-rule="evenodd"/><path fill="#865c65" fill-rule="evenodd" d="M792.5 70c-3.6 18.9-7.3 52 .6 86.6 44.1-24.8 12.3-70.8-.6-86.6" clip-rule="evenodd"/><path fill="#643451" fill-rule="evenodd" d="M852.4 230q3-1.3 5.4-4.3S796 156.2 830.4 64.2Q822 64.1 813 66c2 .2-25.3 104 39.4 164.2" clip-rule="evenodd"/><path fill="#541138" d="M866 50.4s-37 113.3 40 187c10.7 9.3 39.5-1.4 32.4-9.8A174 174 0 0 1 915 53.3s-17-9.6-49-3"/><path fill="#79505f" fill-rule="evenodd" d="M870.8 54.3s-34 110.3 38.2 180.3c0 0 16.4 6.5 24.9-4.3 0 0-64.2-72.8-26-172 0 0-12.7-11-37-4" clip-rule="evenodd"/><path fill="#865c65" fill-rule="evenodd" d="M865.5 79.5c-2.7 18.3-4.5 44.7.6 72.6 45.4-29.6 9.6-64-.6-72.6" clip-rule="evenodd"/><path fill="#643451" fill-rule="evenodd" d="M930.2 233.7q2-1.3 3.7-3.4s-64.2-72.8-26-172l-7.2-2.3c-5 11.2-22.7 52.1-11.6 99s30 68.2 41 78.7" clip-rule="evenodd"/><path fill="#541138" d="M997 378.4c-6.3-1.9-14.7 2 1.1 11.1 0 0-39.7-1-40.4-1.3-.8-.3-9-1.9-7-5.8 1.8-3.9 3.4-10.6 8.4-13s34-.8 38 9M896.5 414.1c23.7-4.9 43.3 2.4 48.6 27.7-11.8 39-38.7 87-73.2 126.2l-98 2.6a297 297 0 0 0 65-57 310 310 0 0 0 57.6-99.5"/><path fill="#ffcfa5" fill-rule="evenodd" d="M901.4 419.7s-32 91.2-115.3 150.6l76.8-2a317 317 0 0 0 75.5-126.8s-5.9-28.2-37-21.8" clip-rule="evenodd"/><path fill="#541138" d="m641.1 503.2-24.2 25.2 46.5 45.1 48.2-1.2z"/><path fill="#a25248" d="m636.6 506.9-16.3 16.6 51 49.8 32.3-.8z"/><path fill="#b86f55" d="m704.1 572.5-55-54.2c-1.8 4.8-3.2 9.8-3.2 9.8l44.5 44.7z"/><path fill="#823b42" d="M643.2 511.6a70 70 0 0 0 7.4 41.5l20.6 20.2h4.3q-6.3-5.2-11.4-10.7c-10.4-11.6-20-24.8-17.4-47.4zm22.2 22c2.3 18.6 10 31.3 23.8 39.3l4.3-.2c-13.7-6-23.1-18-22.6-33.7z"/><path fill="#541138" d="m605.8 501.3 37.6-48.5 40.3 42.7-44.3 32.6-9.2-1z"/><path fill="#541138" d="M613.9 559.3a8 8 0 0 1-4.7 3.8c-5.7 1.7-17.1-4-24.3-10.6-9.9-9.1-16.5-24.2-8.5-30.7l45.8-34.9 12.5 30.6 6.4 6.8z"/><path fill="#a25248" d="M607.8 556.5q1.7-.6 2.7-2.3l25-31.3 43.4-30.3-33.6-33.6-27.2 37.2-.2-.1-36.7 29.5c-9.5 7.7 16 34 26.6 30.9"/><path fill="#b56a55" d="m669.7 499 9.2-6.4-33.6-33.6-4.7 6.4c-2.3 6.8-7.7 26.2 3 34 6.6 5 17.2 2.9 26.1-.4"/><path fill="#823b42" d="M649.3 464.6c2.3 15.2-10.6 24-25.5 34.3-15.2 10.5-32.6 22.4-38.6 44.1q.8 1 1.8 2c5.5-21.9 21.9-34.2 37.1-44.7s29.3-19 27.5-35l-1-1zM580.7 536q6.8-8.1 12.3-20l-4 3.3a26 26 0 0 1-9.3 14.3zm19.6 19.2c5-21.2 22-25 26.8-25.3l.8 2.3 1.6-2-.9-2.7-.9.1s-22 2.3-29.4 26.6zm55.9-46.8a29 29 0 0 1 15.6-23l-1.6-1.6c-8 6.3-15 15-16.6 26.4zm3.5-35c-9 21.8-18.7 29.9-39.5 41.2a64 64 0 0 0-28.8 34.7l1.8 1.5a62 62 0 0 1 27.6-34.6c20.8-11.4 31.3-19.3 40.6-41.2z"/><path fill="#541138" d="M643.7 452.5c4.6-4.6 18.5-1.4 29.6 9.2 10 9.6 18.2 26 10.3 33.9-6.5 6.5-16.4-4.6-25.4-14.9-10.3-8.7-21.3-21.3-14.5-28.2"/><path fill="#d59469" d="M646.9 457.4c4.6-4.6 17.2 1.2 25.2 10.3 7.6 8.6 11 20.2 6.3 25-3.8 3.8-16-2.3-24.2-11.3-7.6-8.4-11.6-19.6-7.3-24"/><path fill="#e3b571" d="M646.9 457.4c4.6-4.6 17.2 1.2 25.2 10.3q5 5.6 7.1 11.8L646.4 469c-1.8-4.9-1.8-9.2.5-11.6"/><path fill="#9b4d44" d="M652 462.7c2.7-2.7 10.2.4 16.7 7s9.7 14 7 16.7-10.2-.5-16.8-7c-6.5-6.6-9.6-14-7-16.7"/><path fill="#81343c" d="M652 462.7c2.7-2.7 10.2.4 16.7 7s9.7 14 7 16.7q-1 1-2.8 1 .8-.2 1.2-.8c2.5-2.5-.4-9.6-6.6-15.9-6.2-6.2-13.3-9.2-15.9-6.6l-.6.8q.1-1.5 1-2.2"/><path fill="#541138" d="M637.3 535.8c-3.9 7.7-9.3 13.6-18.4 10.3a73 73 0 0 1-2.2-64c5.9-10.1 15.5-16.5 22.6-14.7a72 72 0 0 0-2 68.4"/><path fill="#e8c285" fill-rule="evenodd" d="M632 536s-13-29.2-1.5-61.7c0 0-7.4 2.2-11.2 10.1 0 0-12.8 28.5 2.5 58.4 0 0 5.8 2.1 10.2-6.7" clip-rule="evenodd"/><path fill="#c38a62" fill-rule="evenodd" d="M632 536s-2.7-6-4.5-15.6c-4 1.9-8.4 2.1-12.4 1.8q1.3 9.9 6.7 20.6s5.8 2.1 10.2-6.7" clip-rule="evenodd"/><path fill="#541138" d="M660.2 504.6a51 51 0 0 1-51.7-7l-1.6-1.4-2 .5c-4.3 1-8.4 3.1-10.6 7-1 1.7-1.6 4-1.3 5.9l.1 1.6 1.3 1a72 72 0 0 0 59.8 15.2l.8-.2.8-.5c5-4 8.9-11.2 9.9-17.6l1.1-7.2z"/><path fill="#e8c285" fill-rule="evenodd" d="M605.8 500.6a56 56 0 0 0 55.9 7.8s-1.6 9.7-8.5 15c0 0-30.3 7.2-56.2-14.3 0 0-.7-6.1 8.8-8.5" clip-rule="evenodd"/><path fill="#c38a62" fill-rule="evenodd" d="M635.4 512.4c7.7.7 16.6-.1 26.3-4 0 0-1.6 9.7-8.5 15 0 0-14 3.4-31.3-1.3 5.2-.8 10.3-3.4 13.5-9.7" clip-rule="evenodd"/><path fill="#541138" d="M1000.6 502.5s27.7.6 31.8-19.7-.7-60.8-.7-60.8-8.5-22-50.6-17.4c-16.8 31 5.5 98.2 19.5 97.9"/><path fill="#8a9b65" fill-rule="evenodd" d="M1000.5 496.9s24 .6 27.5-17.5c3.5-18-.6-53.9-.6-53.9s-7.4-19.5-43.8-15.4c-14.6 27.5 4.7 87 16.9 86.8" clip-rule="evenodd"/><path fill="#6c7559" fill-rule="evenodd" d="m1028.4 436-1-10.5-.8-1.6c-8.1.2-24.6 1.5-31.2 9.4-8.4 10-1.3 1.4 6 11 0 0 12.1-13 27-8.3" clip-rule="evenodd"/><path fill="#aebc6e" fill-rule="evenodd" d="M1027.4 425.6S1020 406 983.6 410c-4.3 8-5.6 18.8-5.1 30q4.1.8 11-.4s14.7-18.2 37.9-14.1" clip-rule="evenodd"/><path fill="#541138" d="M991.4 442.8s11-19.2 37.3-16l.8-3.8s-24-6-40.8 13.1l-.5 3.7z"/><path fill="#541138" d="M1005.4 564.4c16.8-21.6 15.4-47.4 9.4-71.9-7.8-31.3-21-66.3-15.6-102.2 0 0-37.3-29.5-90.8-6.2-41.1 17.9-45.9 135.4-11.6 183.2z"/><path fill="#8a9b65" fill-rule="evenodd" d="m993 393.7-3.6-2.2a80 80 0 0 0-17.3-7 91 91 0 0 0-61.2 5.3c-12.7 5.6-20 22.3-23.9 34.7a190 190 0 0 0-6.8 62.1c.8 19.3 4.2 40 11.3 58 3 7.6 7.3 15.8 12.9 22.5l92.7-2.5c17.8-19.2 18.7-43.2 11.9-70.9-4-16.4-9.2-32.5-12.6-49.1a157 157 0 0 1-3.3-51" clip-rule="evenodd"/><path fill="#6c7559" fill-rule="evenodd" d="m993 393.7-3.6-2.2a80 80 0 0 0-17.3-7 91 91 0 0 0-61.2 5.3c-12.7 5.6-20 22.3-23.9 34.7a190 190 0 0 0-6.8 62.1c.8 19.3 4.2 40 11.3 58 3 7.6 7.3 15.8 12.9 22.5l82.5-2.2c8.1-7.8 14-17.8 16.7-29 11.4-46.4-23-88.4-10.5-142.2" clip-rule="evenodd"/><path fill="#6c7559" fill-rule="evenodd" d="m993 393.7-3.6-2.2a80 80 0 0 0-17.3-7 91 91 0 0 0-61.2 5.3c-12.7 5.6-20 22.3-23.9 34.7a190 190 0 0 0-6.8 62.1c.8 19.3 4.2 40 11.3 58 3 7.6 7.3 15.8 12.9 22.5l82.5-2.2c8.1-7.8 14-17.8 16.7-29 11.4-46.4-23-88.4-10.5-142.2" clip-rule="evenodd"/><path fill="#484b4a" fill-rule="evenodd" d="M949.5 396.4c-18 73.5-2.2 130.4-.9 166v3.5l-44.2 1.2c-5.6-6.7-9.9-15-12.9-22.6-7.1-18-10.5-38.6-11.3-57.9a190 190 0 0 1 6.8-62.1c3.8-12.4 11.2-29.1 23.9-34.7q5.4-2.3 11-4c8.5 2.8 17.2 7.4 27.6 10.6" clip-rule="evenodd"/><path fill="#541138" d="M994.4 399.2s-30-13.4-58.2 10.2c0 0-8.9-6.8-8.3-8.1s20.5-25.6 20.5-25.6 37.9 3.3 48 17.6z"/><path fill="#483641" d="m993 393.7-3.6-2.2a80 80 0 0 0-17.3-7 90 90 0 0 0-57.4 3.8c0 11.9 6.3 22.9 26 13.3 0 0 18.3-17.3 52.3-7.7z"/><path fill="#541138" d="M942.5 404.2c-2-4.4 18.2-47.4 51.3-27.1 3.9 2.3 6 1.7 4.4-3-5.7-15.7-27.4-49.9-108.1-41.8 0 0-36 9.3-42.2 41.6s94.6 30.3 94.6 30.3"/><path fill="#6c7559" fill-rule="evenodd" d="M984.3 363.2c-10.2-11.5-38-33.1-95.8-21.4 0 0-29 5.9-34.5 32.5s83.3 24.6 83.3 24.6c7-21 24-39.3 44.9-32.5a2 2 0 0 0 2.3-.8 2 2 0 0 0-.2-2.4" clip-rule="evenodd"/><path fill="#484b4a" fill-rule="evenodd" d="M925 338.5q-15.9-.7-36.5 3.3s-29 5.9-34.5 32.5 83.3 24.6 83.3 24.6c2.2-6.6 5.4-13 9.4-18.3-24.9-12.7-24.6-31.3-21.8-42.1" clip-rule="evenodd"/><path fill="#541138" d="M783.2 543.6s1 13.5 5 26.6l142.8-3.8a96 96 0 0 0 1-29.2s-27.3-9.5-82.3-6.5-66.5 13-66.5 13"/><path fill="#79505f" fill-rule="evenodd" d="M789.8 547c.2 5.5 1.7 14.2 4.3 23l130.8-3.4c1.8-8.3 2.6-18 1.2-28.7-52.2-12.4-124.8-7.4-136.3 9" clip-rule="evenodd"/><path fill="#643451" fill-rule="evenodd" d="M815.1 551.8h57V568l-57 1.5zM890.5 563.6s.4 1.6 1.2 3.8l23.9-.6c0-5.6-.4-10.2-.4-10.2s-25 1-24.7 7" clip-rule="evenodd"/><path fill="#643451" fill-rule="evenodd" d="M789.8 547q.2 5.3 1.8 13.1c5.7 2.7 15.4 6.6 28.5 9.3l72.8-2q15.9-3.7 33.6-11.1.8-8.6-.4-18.4c-52.2-12.4-124.8-7.4-136.3 9" clip-rule="evenodd"/><path fill="#541138" d="M887.5 555s-.5 5.8 1.4 12.5l4.6-.1q-1.6-6-.7-13.8zM811.4 549.2h57v18.9l-57 1.5z"/><path fill="#c7c0c9" d="M815.7 553.7h48.5v14.5l-48.6 1.3z"/><path fill="#fff" d="M815.7 569.5v-1.2l.1 1.2z"/><path fill="#7c7896" d="M815.7 553.7h48.5v14.5l-10.8.3c-15.3-3-32.9-2-37.7-.1z"/><path fill="#541138" d="M790.5 384.3s-30 59.9 20.3 101.2l18-16.1s-33.6-35.5-14.5-84.1c0 0-12.9-3.8-23.8-1"/><path fill="#8a9b65" fill-rule="evenodd" d="M794.6 390.9s-23.1 49.8 16 86.2l12.5-10s-25.6-26.9-13.5-75.2c0 0-6.5-2.2-15-1" clip-rule="evenodd"/><path fill="#541138" d="m781.5 418.6 32.9-1.6c1.7 0 3.2 1.4 3.3 3.4l.8 15c.1 1.9-1.2 3.5-3 3.6l-32.8 1.6c-1.8.1-3.3-1.4-3.4-3.3l-.8-15c0-2 1.3-3.6 3-3.7"/><path fill="#c7c0c9" fill-rule="evenodd" d="m783.7 423.4.6 12.3 29-1.5-.6-12.2z" clip-rule="evenodd"/><path fill="#fff" fill-rule="evenodd" d="m783.7 423.4.6 12.3c2.4-2.9 11.1-11.2 28.6-10.4l-.2-3.3z" clip-rule="evenodd"/><path fill="#7c7896" d="m808 434.5 5.4-.3-.7-12.2-5.2.2q0 6 .5 12.3"/><path fill="#541138" d="M797.4 407c8 36.3 8.7 48.6 6.5 67.3 0 0-26.8 31.7-22.8 71.5 31 30 126.6 21.1 153-8.5 7-18 6.3-58 2.4-91.7-3-25.7-13.2-48-24.7-62.4-36.7-45.8-123.2-16.3-114.4 23.9"/><path fill="#edad62" fill-rule="evenodd" d="M843.2 367.2c-19 2.4-32 12.7-36.8 25-3 7.9-1.7 15.4.6 26.5s5 30 4.7 52.4v6.8s-23.6 21.2-23.3 65.6c11 9.5 73.5 30.3 140.7-8.9 2.3-4 7-44.4 1-85-5-32.8-16.6-65.7-44.7-79.3 0 0-19.3-6.8-42.2-3.1" clip-rule="evenodd"/><path fill="#d2714f" fill-rule="evenodd" d="M810.9 414s13.5 15.7 30.4 14.3 28.4-14.2 28.4-14.2 2.5 8.4-5.6 14.2C846.7 441 818.7 436 811 414" clip-rule="evenodd"/><path fill="#f1bc6d" fill-rule="evenodd" d="M812 474.4c31.4 5.6 45 17.3 44.2 28.5-1.2 18.4-38 38.1-66.8 41.3l-1-.7c-.3-44.4 23.3-65.6 23.3-65.6v-3.4z" clip-rule="evenodd"/><path fill="#f6d782" fill-rule="evenodd" d="M805 397.5a61 61 0 0 0 2 21.2c2.2 11.1 5 30 4.7 52.4v6.8s-23.6 21.2-23.3 65.6c8 6.9 43.4 19.9 88 11.2-45 4.3-79.9-11.8-79.9-11.8-4.4-47 22.7-72 22.7-72l-4.4 2.5c2.1-48.3-7.8-72.7-7.8-72.7z" clip-rule="evenodd"/><path fill="#d2714f" fill-rule="evenodd" d="M871.9 555.5c17.8-3 37.3-9.3 57.2-20.9 2.3-4 7-44.4 1-85-5-32.8-16.6-65.7-44.7-79.3 0 0-11.5-4-27.4-4.2l.1 3.5c-3.3 15.3 0 28.6-1.2 41.2-5 51.1 46 72.1 15 144.7" clip-rule="evenodd"/><path fill="#f6d782" fill-rule="evenodd" d="M804.5 402.1c6 17.7 21.9 28.1 37.6 26.8 20.1-1.6 40.3-21 42.2-54l-39.4 13z" clip-rule="evenodd"/><path fill="#541138" d="M799.9 393.6c20.1 47 79.1 34.6 87.2-25.6-12.4-6.5-32.5-7.4-49.1-3.6a53 53 0 0 0-38.1 29.2"/><path fill="#d77d75" fill-rule="evenodd" d="M807 393c16.4 38.5 66.8 26.4 75.1-23.7-26.5-7.1-62.4-4.7-75.2 23.7" clip-rule="evenodd"/><path fill="#541138" d="M819.3 470.8s-10.9.4-16.4 8l8.3-.4s4.2-4.7 8.1-7.6M901.7 374.8c3.8 1 80 30.7 98 122.4 2.8 14.2 3.6 25-.7 34-5.7 12.2-19.7 20.3-41.2 18.8 0 0-3.1-72.6-37.8-110.3a79 79 0 0 1-15.2-23c-8.2-20.8-9.5-44.3-3.1-42"/><path fill="#d77d75" fill-rule="evenodd" d="M957.8 423.9a155 155 0 0 1 38.1 92s.2 6.4-2.5 12.3c-3.9 8.4-13.7 17.1-38.6 14.6l.1-45.6s-6.6-29-24-52.8c3.5-6.1 11.9-17 27-20.5" clip-rule="evenodd"/><path fill="#ffcfa5" fill-rule="evenodd" d="M945 468.9c-1.8-8-2.3-15.4 1.4-17.2 8.8-4.1 39.3 24.3 45.3 55.1s-36.4 12.7-36.4 10.2l-.4-4.4v-15.4s-2.9-12.8-10-28.3" clip-rule="evenodd"/><path fill="#d2714f" fill-rule="evenodd" d="M904.3 381.4s28.3 13.2 53.5 42.5a43 43 0 0 0-27 20.5 87 87 0 0 0-19.4-19.7A60 60 0 0 1 892 403c-5.8-13-2.3-25.1 12.2-21.6" clip-rule="evenodd"/><path fill="#edad62" fill-rule="evenodd" d="M930.3 442.9s-3.4-6.3-8-12c-8-10.1-15.8-23.4-5.6-26 16.5-4 35.3 18.2 35.3 18.2s-15.2 5.7-21.7 19.8" clip-rule="evenodd"/><path fill="#541138" d="M917.6 476.9s30.2 17.4 60.8 11.3c0 0 19.1 28 2.4 59 0 0-38.9 17.5-80.6-25.3-15.2-27.6 7-47.7 17.4-45"/><path fill="#ffcfa5" fill-rule="evenodd" d="M978.5 488s-18.7 17-66.4-6c0 0-8.4 20.3-8.4 35.3 0 0 23.7 26.5 56 27 10.8.3 31.1-3.7 34.6-18.3 2.4-10.3-7-36.1-15.8-38" clip-rule="evenodd"/><path fill="#ffe0b9" fill-rule="evenodd" d="M923.1 490.8s22.5 33 44.6 30c22-3 8.9-31 8.9-31s-17.5 11.3-53.5 1" clip-rule="evenodd"/><path fill="#fff" fill-rule="evenodd" d="M978.5 488s-18.7 17-66.4-6l-1.6 4.3 1.1 1.1c39 19.8 65.2 8.2 67 .6" clip-rule="evenodd"/><path fill="#541138" d="M922 381c-17.4 23.8-34.6 86.6-21.1 139.6a44 44 0 0 0 27.9 29.9c2.4 1 10.7 3.2 10.7 7.7.2 1.9 1.1 4.6.9 8l-42.5 1c-24.2-18-34.7-49.5-37-82.3-2.9-43.3 9-89.7 30-118.2 0 0 18.2-1.2 31 14.3"/><path fill="#8a9b65" fill-rule="evenodd" d="M913.4 379.8s-9-7.5-20.6-7c0 0-37 57-24 126.3 0 0 3.2 40.6 30.8 63.8l5.6 4.2 36.7-1c.5-3.4 0-6.7-1.8-8.7 0 0-19-2.7-30.9-13.3a47 47 0 0 1-15.5-27.5c-5.2-32-2.4-53.9-2.4-53.9s1-41.7 22.1-82.9" clip-rule="evenodd"/><path fill="#6c7559" fill-rule="evenodd" d="M913.4 379.8q0-.2-3.3-2.2c-2.6 5-27.5 54.4-23.3 94.9 4.2 40-2.4 79.5 55.3 91a9 9 0 0 0-2-6.1s-19-2.7-30.9-13.3a47 47 0 0 1-15.5-27.5c-5.2-32-2.4-53.9-2.4-53.9s1-41.7 22.1-82.9" clip-rule="evenodd"/><path fill="#6c7559" fill-rule="evenodd" d="m874.5 414.5 23.7 5.8q-3 11.5-4.4 20.5l-24.4-6q2.1-10.8 5-20.3M913.4 379.8s-9-7.5-20.6-7c0 0-7 10.9-14 28.9a48 48 0 0 1 28-7.2q2.8-7.4 6.6-14.7" clip-rule="evenodd"/><path fill="#484b4a" fill-rule="evenodd" d="m867.7 492 1.1 7.1s1.6 19.1 11.4 38.6c4.6-2 13.7-4.5 24.3 1.6a45 45 0 0 1-10.8-22.7q-2.3-14.6-2.8-26c-10.3-2-17-3.1-22 .5z" clip-rule="evenodd"/><path fill="#541138" d="M930.7 451s8.8-23.2 34.9-26.2l-3.8-4.2s-21.2-.7-35.2 26zM895.9 458.2s-6-4.4-15.6-5.7a48 48 0 0 0-20.6 5s-19.4 3.4-16.5 18.8c0 0-11.1 11.9 1.6 27.4 0 0-7.2 29.5 28 29.2l-1.6-9S885 521 897 526c6 2.6 14.5-2.5 14.9-8.4 3.3-4.7 3.2-11 4.5-20.3 0 0 4.3-6.5 3.5-15.6-1-11-5-25.6-22.2-36.2 0 0-1 5.7-1.7 12.6"/><path fill="#ffcfa5" fill-rule="evenodd" d="M904.3 470.2s-11.5-10.2-25.2-11.8c0 0-10-.3-19.6 5 0 0-12.8 2.8-11 13 0 0-9.4 12.5 1.8 26 0 0-1.4 5.2-.3 10.7 2 10 11 14.8 20.5 14.3q-.7-2-1.3-5.2s-1.7 0-5.9.6c0 0 8.4-10.4 36.6-2.1 0 0 7 1.8 11-1.6 3.8-3.5 6.2-14.7 6.2-14.7 1-12.8-1.9-39.7-19.4-51.5l-.7 6.5s6 6.7 7.3 10.8" clip-rule="evenodd"/><path fill="#ffe0b9" fill-rule="evenodd" d="M878.8 458.4c-1.7 0-10.8.3-19.3 5 0 0-3.8.9-7 3.2-6.2 22.5 5.6 51.5 9.2 59.6q4.3 1.4 8.8 1.2-.7-2-1.3-5.2s-1.7 0-5.9.6c0 0 1.6-1.9 5.6-3.4-6.5-35.9 7.5-57.5 10-61" clip-rule="evenodd"/><path fill="#d77d75" fill-rule="evenodd" d="m859.8 463.3-.3.2s-12.8 2.7-11 12.8c0 0-9.4 12.6 1.8 26.2 0 0-1.4 5-.3 10.6 1.9 9.5 10.4 14.4 19.4 14.3l-1-1a21 21 0 0 1-3.7-3.8l-1.4.2 1-.8c-11.1-16.3-6-50.2-4.5-58.7M916.1 486.1c-2-12.2-7.3-25.7-18.4-33.2l-.7 6.5s6 6.6 7.3 10.8a55 55 0 0 1 11.8 16" clip-rule="evenodd"/><path fill="#d77d75" fill-rule="evenodd" d="M861.2 526q4.4 1.5 9.3 1.4-.7-2-1.3-5.2s-1.6 0-5.8.6q-2 1.2-2.2 3.2" clip-rule="evenodd"/><path fill="#541138" d="M857.2 496.6s-8.2 4.6-7.6 13l-4-6.3s3.4-6.5 11.6-6.7M856.8 474s-9.2 1.5-11.6 9.5l-1.5-6.6s5.4-5.5 13.1-2.8"/><path fill="#541138" d="M859.2 467c-1.3.3-7 16-.5 43.2zM870.4 410l33.4 8.1c1.8.4 3 2.3 2.5 4l-3.4 14a3.4 3.4 0 0 1-4 2.4l-33.4-8.2a3.4 3.4 0 0 1-2.5-4l3.4-14a3.4 3.4 0 0 1 4-2.4"/><path fill="#c7c0c9" fill-rule="evenodd" d="m871.3 415-2.8 11.3 29.5 7.2 2.8-11.3z" clip-rule="evenodd"/><path fill="#fff" fill-rule="evenodd" d="m871.3 415-2.8 11.3c3.2-1.9 14.3-7 31.6-1l.7-3.1z" clip-rule="evenodd"/><path fill="#7c7896" d="m892.6 432.1 5.4 1.4 2.8-11.3-5.3-1.4z"/><path fill="#541138" d="M802.3 555.6s1.9 7-2.7 14.3h3.9c1.8-3.4 3.2-7.7 3-13.2l-1.7-1.1zM703.2 243s-25.4-33-51.3-23.5c-16.2 6-20.6 27-15.4 48 5 20.1 22.3 38.7 52.8 40.2 26 1.6 21.6-49 13.9-64.7"/><path fill="#fa8888" fill-rule="evenodd" d="M698.7 259.5s-20.1-41.6-44.6-30.1c-13.8 6.4-14.9 27-6.4 44.6 9.7 20.3 32.5 28 47 22.9z" clip-rule="evenodd"/><path fill="#fff" fill-rule="evenodd" d="M684.4 238.8c-8-8.3-18.7-14.9-30.3-9.4-13.8 6.4-14.9 27-6.4 44.6a43 43 0 0 0 11 14.2q-4.4-4.5-7.3-10.7c-8.5-17.5-7.4-38.1 6.4-44.6 10-4.6 19.1-.6 26.6 6" clip-rule="evenodd"/><path fill="#c64d60" fill-rule="evenodd" d="M698.7 259.5s-12.9-26.6-30.5-31.4c2 12.4 5 41.7-8.8 60.7 11 9 25.1 11.7 35.3 8z" clip-rule="evenodd"/><path fill="#541138" d="M677.2 281.8s-.9-41.5-28.2-37.5c0 0 20.7-12.1 32.6 14.5l.7 10.6z"/><path fill="#541138" d="M670 247s-17.4 7.3-7 27.6c0 0-3.8-15.5 10.4-21.8l.4-4zM772 412s-10.2-17.6 2.9-47.9c0 0 10 16.4-3 47.8"/><path fill="#541138" d="M672 188v64.2c0 29.5-6.4 52.3 2.4 80.7 12.9 41.9 78.1 65.3 142.3 62 78.9-3.9 158-48 158.4-147.5 0 0 10-58.7-21.7-107.1-29-44.3-82.5-65.5-139.2-63.3-53 2-108.4 24.2-131.8 63-9.4 15.6-10.3 30.6-10.3 48"/><path fill="#ffcfa5" fill-rule="evenodd" d="M966.1 212.6a140 140 0 0 0-21.1-66.8C916.7 102.6 864.5 85 814.6 87c-45.7 1.8-96.6 17-120 52.7a85 85 0 0 0-12.4 48.4v64.1c0 26.3-6.2 51.9 1.8 77.7 23.3 75.4 249 87.6 278.3-51.6 2.9-14 4.8-52 3.8-65.7" clip-rule="evenodd"/><path fill="#ffe0b9" fill-rule="evenodd" d="M865.3 92c-16.5-4-33.7-5.6-50.7-5-39.1 1.6-82.1 13-108.4 38.6 59 7.5 141.8-1.8 159.1-33.6" clip-rule="evenodd"/><path fill="#fff" fill-rule="evenodd" d="M824.3 87h-9.7c-45.7 1.8-96.6 17-120 52.7a85 85 0 0 0-12.4 48.4v64.1c0 26.3-6.2 51.9 1.8 77.7 11 35.4 66.6 57 125.6 55.3-56-.4-107.2-21.5-117.7-55.4-8-25.8-1.8-51.3-1.8-77.7v-64c0-19.5 3.7-35.2 12.4-48.5 23.4-35.6 74.3-50.8 120-52.6z" clip-rule="evenodd"/><path fill="#d77d75" fill-rule="evenodd" d="M966.1 212.6a140 140 0 0 0-21.1-66.8 121 121 0 0 0-46-41.2l-2 2.2c-11.7 14.7-11.4 50.1-3.5 84.3 12.1 52.6 13.7 105.9 0 141.4a86 86 0 0 1-44.5 48c52.8-11.2 100.8-43 113.3-102.2 2.9-14 4.8-52 3.8-65.7" clip-rule="evenodd"/><path fill="#d7b39d" fill-rule="evenodd" d="M966.4 221c-24.1-7.2-38 5.2-41.8 29.4-2.7 17.4-10.5 33.3-30.5 34.2-18.1.9-33.6-17.7-66.6-15.5-17 1.1-32 9.8-51.8 11.5-28.1 2.4-32-12.3-54.6-1.2q-28.2 13.7-40.3-.8c-1.2 17.2-2 34.2 3.2 51.3 23.3 75.4 249 87.6 278.3-51.6 2.4-11.7 4.2-40.2 4-57.3" clip-rule="evenodd"/><path fill="#ead4bc" fill-rule="evenodd" d="M688.4 284.3a20 20 0 0 1-7.6-5.7c-1.2 17.2-2 34.2 3.2 51.3 11 35.4 66.6 57 125.6 55.3-56-.4-107.2-21.5-117.7-55.4a125 125 0 0 1-3.5-45.5" clip-rule="evenodd"/><path fill="#b3928c" fill-rule="evenodd" d="M966.4 221c-24.1-7.2-38 5.2-41.8 29.4-2.2 14.6-8.1 28.1-21.7 32.7a161 161 0 0 1-9.4 49.4 86 86 0 0 1-44.5 48c52.8-11.2 100.8-43 113.3-102.2 2.4-11.7 4.2-40.2 4-57.3" clip-rule="evenodd"/><path fill="#7a5763" fill-rule="evenodd" d="M911 292.6a2.7 2.7 0 1 1 0 5.5 2.7 2.7 0 0 1 0-5.5m-215 17a4.2 4.2 0 1 1 0 8.5 4.2 4.2 0 0 1 0-8.5m52.2 51.5a4.2 4.2 0 1 1 8.4-.3 4.2 4.2 0 0 1-8.4.3m-9.5-6a2.4 2.4 0 1 1 4.7-.1 2.4 2.4 0 0 1-4.7.1m60.9 2.8a2.5 2.5 0 1 1 0 4.9 2.5 2.5 0 0 1 0-5m70.3-27.1a4.2 4.2 0 1 1 0 8.4 4.2 4.2 0 0 1 0-8.4m-.5 19a2.5 2.5 0 1 1 0 4.9 2.5 2.5 0 0 1 0-5m57.1-49.8a4.2 4.2 0 1 1 0 8.5 4.2 4.2 0 0 1 0-8.5" clip-rule="evenodd"/><path fill="#541138" d="M949 361.4s-20.4-4.7-34.2-36c0 0 19.5 4 34.3 36M707.8 388.7s-.9-14.5 17.2-29.8c0 0 1.2 13.7-17.2 29.8"/><path fill="#fff" fill-rule="evenodd" d="M714.3 113.5c6.1-4.3 12.8-5.4 15-2.3 2.2 3-1 9.1-7 13.5-6 4.3-12.8 5.3-15 2.2s1-9 7-13.4" clip-rule="evenodd"/><path fill="#ffcfa5" fill-rule="evenodd" d="M862 294.8c-17.3 78.3-122.3 53.4-140.8 25 0 0 35 14.3 59 10.2s41-8.9 41-8.9 30.9-23.8 40.8-26.3" clip-rule="evenodd"/><path fill="#541138" d="M721.7 302.2s87.5 2.4 133.5-14.3c1.6 1 6.3 3.3 7.9 4.3-5.5 23.3-26 39-49.4 45.2-23.9 6.2-54 1.8-74.4-6.3-12.4-5-20.4-11.6-17.5-11.6.7 0 12.7 4 17.3 4.7 0 0 8-6 2.2-16.8 0 0-11.7-1-19.6-5.2"/><path fill="#541138" d="M841.7 284.4c5.8 2 18 7 27 17.8q.6.5 1.1.2t.4-1c-1.7-14.3-12.2-21-28.3-18.7q-.6.2-.8.8 0 .7.6.9"/><path fill="#632143" d="M856 294s-28.6 12.5-107.3 14.3c0 0 3.3 13-5 18.8 2.2.5 79.8 27.8 112.3-33"/><path fill="#6f2947" d="M748.8 319.3a13 13 0 0 1-5.1 7.8c1.8.4 59.3 20.6 96.1-12.2-38.6-13.2-83.6 1.7-91 4.4"/><path fill="#541138" d="M742.6 306.8s8.2 12.2 20.5 11.8c12.2-.5 21.8-11.8 21.8-11.8s13.4 10 21.4 10.4 23.6-10.8 27.2-17.1l-7.8-2.2z"/><path fill="#a2a5b7" fill-rule="evenodd" d="M749 308.2s5.3 6.1 12.4 6.3 15.6-7.1 15.6-7.1z" clip-rule="evenodd"/><path fill="#fff" fill-rule="evenodd" d="M752.6 311.3c2.2 1.5 5.2 3 8.8 3.2 3.4 0 7-1.5 10-3.2-9-3-15.2-1.6-18.8 0" clip-rule="evenodd"/><path fill="#a2a5b7" fill-rule="evenodd" d="M791.4 306s9.3 6.5 16.6 6.4c7.4-.2 18.1-10.7 18.1-10.7s-22 3.5-34.7 4.4" clip-rule="evenodd"/><path fill="#fff" fill-rule="evenodd" d="M796.8 309.2a26 26 0 0 0 11.2 3.2c3.2-.1 7-2.1 10.3-4.3a28 28 0 0 0-21.5 1" clip-rule="evenodd"/><path fill="#541138" d="M768.4 332.9s8.3-14 16-13.5 21.2 7.7 21.2 7.7 3.8-8 9-9.3c5-1.2 11.4 1.1 17.4 3.4 0 0-14.6 19.7-63.6 11.7"/><path fill="#fff" fill-rule="evenodd" d="M774.6 332.8s6.3-8.3 9.1-8.3c8.8.2 15 3.8 20 7.5a82 82 0 0 1-29.1.8m35.2-2.2q9-2.2 17.5-6.9c-4-2.3-10.8-2.6-12.6-1.4-1.7 1.1-4 4.9-5 8.3" clip-rule="evenodd"/><path fill="#a2a5b7" fill-rule="evenodd" d="m774.6 332.8 2.7-3.3a65 65 0 0 0 23.3.4l3.1 2a82 82 0 0 1-29.1 1m46-11q-3 2.3-9.3 5-1 1.9-1.5 3.8 9-2.2 17.5-6.9a17 17 0 0 0-6.7-2" clip-rule="evenodd"/><path fill="#541138" d="M686.8 187.1c9.9-8.8 19.8-10.7 29.3-8 7.2 2 11.6 8.2 17.4 16 4.8 6.5 15.4 12.3 22.5 2.5 6.8-9.5-3.4-38.2-13.1-27.2-9.7-32-34.7-32.7-51.1-19.2a45 45 0 0 0-14.9 31.6c-.7 8.7 5.6 8.3 10 4.3"/><path fill="#aa665a" fill-rule="evenodd" d="M740.6 182.9s-5.8-32.8-27-32.8c-21.3 0-30.9 24.4-31.2 31.3 0 0 .5 1.4 2.8-.3s26-22.3 47.7 2.2c0 0 8.7 12.4 12.7 12.2 5.4-.3 7.4-6 7-11.5-.4-3.8-2.3-8-5.2-8.4-1.1-.2-2.4 1-3.6 2.5-.2 1.6-1 3.7-3.2 4.8" clip-rule="evenodd"/><path fill="#81424b" fill-rule="evenodd" d="M740.6 182.9s-.6-3-2-7.3q-1 .8-2.6.6c-6-.8-8.7-9.9-23-10.7-10.1-.5-22.3 2.9-30.4 16.2.3.3 1 .6 2.6-.6 2.2-1.6 26-22.3 47.7 2.2 0 0 8.7 12.4 12.7 12.2 5.4-.3 7.4-6 7-11.5-.4-3.8-2.3-8-5.2-8.4-1.1-.2-2.4 1-3.6 2.5-.2 1.6-1 3.7-3.2 4.8" clip-rule="evenodd"/><path fill="#bb7a66" fill-rule="evenodd" d="M712.2 151.6c7.5 0 13.3 4.8 13.3 7.6s-5.8 2.5-13.3 2.5c-7.4 0-13.8.3-13.8-2.5s6.4-7.6 13.8-7.6" clip-rule="evenodd"/><path fill="#d77d75" fill-rule="evenodd" d="M849.1 183.2c21.5 0 38.8 18.7 38.8 41.2s-17 39.6-38.6 39.6c-21.5 0-39.4-17-39.4-39.6a40.5 40.5 0 0 1 39.2-41.2" clip-rule="evenodd"/><path fill="#541138" d="M812.6 226.6c-.8 1 1.5 43.2 41 37.4 0 0-30.8-2.1-30.9-32.9l-5.8-4z"/><path fill="#541138" d="M846.9 189a34 34 0 0 1 34.3 33.8c0 18.4-15.1 32.3-34.2 32.3-19 0-34.8-13.9-34.8-32.3A34.4 34.4 0 0 1 847 189"/><path fill="#a2a5b7" fill-rule="evenodd" d="M846.8 195.4a27.6 27.6 0 0 1 27.8 27.3c0 14.9-12.2 26.1-27.6 26.1s-28.2-11.2-28.2-26.1 12.6-27.3 28-27.3" clip-rule="evenodd"/><path fill="#fff" fill-rule="evenodd" d="M844.2 199.1c9.5 1.9 13.3 12.6 10.6 24.5-2.6 11.9-10.6 20.5-20.1 18.6S818.3 229 821 217.1s13.7-19.9 23.2-18M868.7 237.2c-6.1 8.1-15 4.5-7.4-5.5 9.3-12.3 12.8-1.6 7.4 5.5" clip-rule="evenodd"/><path fill="#541138" d="M851.3 211.2a12 12 0 1 1 0 23.8 12 12 0 0 1 0-23.8"/><path fill="#79364e" d="M852.6 226.8c4.3-2.3 4.2-10.1 6.7-6.2s1 9-3.4 11.2c-4.3 2.3-9.8 1-12.3-3-2.4-3.8 4.6.3 9-2"/><path fill="#fff" fill-rule="evenodd" d="M852 214c1.9 1.4 1.5 4.7-.8 7.4-2.4 2.7-5.9 3.7-7.8 2.2-2-1.4-1.6-4.8.7-7.4 2.4-2.7 5.9-3.7 7.8-2.3M859 227.1c1 1 .5 2.7-1 4-1.5 1.4-3.5 1.7-4.5.8s-.5-2.7 1-4 3.5-1.7 4.4-.8" clip-rule="evenodd"/><path fill="#541138" d="M887.4 220.1s4 18.3-13 34.3c8.6-3.3 14.5-7.7 16.6-13.5q2.8-8.6-3.6-20.8"/><path fill="#d77d75" fill-rule="evenodd" d="M716 194.7c17.3 0 31.2 16.5 31.2 36.4 0 20-13.7 35-31 35s-31.8-15-31.8-35c0-19.9 14.2-36.4 31.6-36.4" clip-rule="evenodd"/><path fill="#541138" d="M747.8 230c.8 1-1.5 43.2-41 37.4 0 0 30.7-2.2 30.8-32.9l5.9-4z"/><path fill="#541138" d="M720 199c15.7 0 28.4 13.9 28.4 30.6a28.4 28.4 0 0 1-28.3 29.3 29 29 0 0 1-29-29.3c0-16.7 13-30.6 28.8-30.6"/><path fill="#fff" fill-rule="evenodd" d="M719.9 205.6c12.3 0 22.2 10.8 22.2 23.9s-9.8 22.8-22.1 22.8a22.5 22.5 0 0 1-22.6-22.8c0-13.1 10.1-24 22.5-24" clip-rule="evenodd"/><path fill="#b3b6c5" fill-rule="evenodd" d="M726.6 209.6a21 21 0 0 1 13 19.8 19.8 19.8 0 0 1-35.4 12.2 19.5 19.5 0 0 0 26.8-18.7q-.2-7.6-4.4-13.3" clip-rule="evenodd"/><path fill="#541138" d="M726 220.8a10.3 10.3 0 1 1 0 20.5 10.3 10.3 0 0 1 0-20.5"/><path fill="#79364e" d="M727.3 233.9c3.4-1.9 3.4-8.1 5.3-5 2 3.1.8 7.1-2.7 9-3.4 1.8-7.8.7-9.8-2.4s3.7.2 7.2-1.6"/><path fill="#fff" fill-rule="evenodd" d="M726.8 223.6c1.5 1.1 1.2 3.8-.7 6-1.9 2-4.6 2.9-6.2 1.7-1.5-1.1-1.2-3.8.6-6 2-2 4.7-2.9 6.3-1.7M732.3 234.1c.8.7.5 2.2-.7 3.2-1.2 1.1-2.8 1.4-3.6.6-.7-.7-.4-2.1.8-3.2 1.2-1 2.8-1.3 3.5-.6" clip-rule="evenodd"/><path fill="#541138" d="M685 235.1s.2 17.2 18.7 28q-12.8-1.7-17.6-8.7-4.3-7-1-19.3M739.8 213.2s.7 12.3 11 26.3c20.1 13.6 50.7 4 45.6 2.2a274 274 0 0 0 3.6-48.6s-14-17-41-10c-10.5 6.6-19 22-19.2 30.1"/><path fill="#fa8888" fill-rule="evenodd" d="M759.3 182.8s-12.8 16.2-12 30.4c.3 6.4 8.2 21.8 14.3 27.4 7 2.4 29.2 1.7 38.9 2.4l1-51s-12.4-16.3-42.2-9.2" clip-rule="evenodd"/><path fill="#fba39b" fill-rule="evenodd" d="M755.7 188c-3.7 6-9 16-8.5 25.2.2 3.9 3.2 11.1 7 17.4 8.2-1.5 15.9-6 18.5-15.6 5.7-20.8-11.5-25.9-17-27" clip-rule="evenodd"/><path fill="#c64d60" fill-rule="evenodd" d="M747.2 212v1.2c.4 6.4 8.3 21.8 14.4 27.4 7 2.4 29.2 1.7 38.9 2.4l-3.3-27.3a57 57 0 0 0-50-3.6" clip-rule="evenodd"/><path fill="#b03554" fill-rule="evenodd" d="m795.7 242.8 4.8.2 1-51s-1.8-2.7-5.3-4.6a93 93 0 0 0-7.5 25c-.3 8.6 6 27.5 7 30.4" clip-rule="evenodd"/><path fill="#541138" d="M767.8 237c-4-1.4-11.3-1.1-14.5 0-21 6.8-28.5 29.5-15.4 43.8 18.1 19.7 73.1 16.2 76.3-17.2 1.1-12-8-23.5-20.4-26z"/><path fill="#c64d60" fill-rule="evenodd" d="M769 236.2c-20.3 2.3-29.8 15.5-31.2 25.5-1.6 11.7 8.8 24.4 31.6 25.5 36.9 1.8 52.9-29.4 27.8-48.1-6.3-4.7-20.5-3.8-28.2-2.9" clip-rule="evenodd"/><path fill="#541138" d="M733.7 259.4c3.7 9.7 17.8 9.8 35.3 6 14 3.3 42.9-3.4 40.2-17l-7.4-5.7-52.5-1.8s-14.5 10.8-15.6 18.5"/><path fill="#fa8888" fill-rule="evenodd" d="M768.9 235.5c-12 1.4-20.3 7-25.3 13.3-4.9 6.2-6.1 11.2 2.1 16 18.5 10.4 60.2-.8 59.1-16.6-.4-6.2-7.6-10.2-15-12a63 63 0 0 0-21-.7" clip-rule="evenodd"/><path fill="#fba39b" fill-rule="evenodd" d="M757 239.2s38.7 12-2.2 25.8l-7.5-3.8-3.4-9.5s3.4-6.5 13.1-12.5" clip-rule="evenodd"/><path fill="#ffccbf" fill-rule="evenodd" d="M764.6 236.2c-9.8 2-16.6 7-21 12.6-4.9 6.2-6.1 11.2 2.1 16 12 6.8 33.9 4.4 47.4-2.4-16.9 4.9-47.1 3.6-46.6-7 .6-12.4 18.1-19.2 18.1-19.2" clip-rule="evenodd"/><path fill="#a82d4c" fill-rule="evenodd" d="M740.7 274.2c5.7-5.4 16.5 1.1 15.8 10.9a29 29 0 0 1-15.8-11m43.5 11.8q13-3.2 19.6-11.2c-9.8-8.1-19.4-1.6-19.6 11.2" clip-rule="evenodd"/><path fill="#541138" d="M745.4 215.7s14.5-8 31.4-7.1c0 0-16-5-32.8.4zM784.5 284s4.3-14.6 18.8-9.7c0 0-6.6-6.2-13-3.1-6.5 3-5.8 12.7-5.8 12.7M756.8 285.6s-4.4-14.7-19-9.8c0 0 6.6-6.3 13.6-3 7 3.4 5.4 12.8 5.4 12.8M807 176.3c-4-12-12.3-12.2-17.3-6.9-6.1 6.4-8.6 22.5-.6 33.2 5.3 7.2 16.2 10.8 30.2 2.7 16.7-9.6 27.7-17.6 55.4-12.3 4.1.8 15.3 2.4 12-8.3-11-35.7-64-35.6-79.7-8.4"/><path fill="#aa665a" fill-rule="evenodd" d="M790 184s-1.4 21.6 15.6 19.5 28.4-27 71-16.5c0 0 5.2 1.7 3.8-2.5-6.7-21-55.3-34.6-74.4 3.8-2.4-9.5-5.8-14.6-9.6-14.2-2.7.3-6.2 3.5-6.4 9.8" clip-rule="evenodd"/><path fill="#81424b" fill-rule="evenodd" d="M790 186.7c.3 5.8 2.4 18.4 15.6 16.8 17-2.2 28.4-27 71-16.5 0 0 5.1 1.7 3.9-2.4-29.9-21.5-54.3 1.2-68.7 9.9-12.9 7.8-19.8-3.8-21.8-7.8" clip-rule="evenodd"/><path fill="#bb7a66" fill-rule="evenodd" d="M831.2 167c8-3.2 16-1.2 17.1 1.5 1 2.6-5.3 5-13.4 8-8 3.2-14.7 6-15.7 3.2-1-2.6 4-9.7 12-12.8" clip-rule="evenodd"/><path fill="#d77d75" fill-rule="evenodd" d="M939.7 138.4c-29.1-37.8-78-53.2-125.1-51.4-45.4 1.8-96 16.9-119.6 52 8.5 3 23.3 6.3 33.3-2.6 0 0 65 44.4 127.1-3.9 0 0 5 34.7 46.2 27a62 62 0 0 0 38.1-21" clip-rule="evenodd"/><path fill="#541138" d="M664.3 181.6a40.7 40.7 0 0 0 10 63.4l.3-56v-5c-2.4-.8-7.5-2.2-10.3-2.4"/><path fill="#81424b" fill-rule="evenodd" d="M668.6 187.9c-2.3 2.7-17.8 24.5 3.5 43.6v-43z" clip-rule="evenodd"/><path fill="#541138" d="M984.4 115.3s2.6-45.7-19.7-47.5-17 31.6-17 31.6c10 15.2 22.2 30.4 32 45.5 16 10.3 29.1 9.5 33.1 2.6 6-10.4-4.1-32.2-28.4-32.2"/><path fill="#aa665a" fill-rule="evenodd" d="M978.3 121.8s.6-43.3-14.3-45.3-6 28.3-6 28.3l9.3 27s33.4 18.5 38.2 13-4.8-25.3-27.2-23" clip-rule="evenodd"/><path fill="#81424b" fill-rule="evenodd" d="M978.3 121.8s1.5-35.3-13.5-37.3-6.9 20.3-6.9 20.3l9.4 27s28.5 14.8 33.3 9.2c4.8-5.5-3.7-19-22.3-19.2" clip-rule="evenodd"/><path fill="#541138" d="M893.7 108.4c-29 25-13.3 56.1 25.5 39.9 25-10.5-.8-45.7-25.5-39.9"/><path fill="#81424b" fill-rule="evenodd" d="M902.1 111.9c-14.3 10.6-18 22.7-14.4 28.7 4.4 7.3 20.8 6.8 36.3-2.2 15-8.8-7-35.8-21.9-26.5" clip-rule="evenodd"/><path fill="#541138" d="M913.7 131.9s-22.4 12.3-12.8 39.5c8.6 24.6 21.5 24.3 18.8 63.5q-.5 6.1-1.4 13.8s2.8 18.3 27.4 6.5c11-5.3 31.9-10.4 42.6-25.6 11.6-16.3 14.8-58.1 5-81.5-2.5-6.2-11.2-10-15.8-13.3.2-23.7-21.4-54.5-45.5-58.4-39.1-6.4-42.1 31.1-18.3 55.5"/><path fill="#aa665a" fill-rule="evenodd" d="M913 132.1s-14.6 17.6-3.2 40.9c10.3 21.2 22.2 29 18.3 62.8-1 8.2-2.5 17.4 11.2 13.2 9.7-3 42.6-10.3 49-58.2 0 0 3.5-29.9-9-55A60 60 0 0 0 928.7 87l-33.2 10.8s2.3 28.3 17.4 34.3" clip-rule="evenodd"/><path fill="#81424b" fill-rule="evenodd" d="M913 132.1s-3.4 17 9.2 39.6c10.2 18.4 17.5 32.8 11.3 60.3-1.8 8-7.9 21.2 5.8 17 9.7-3 42.6-10.3 49-58.2 0 0 3.5-29.9-9-55A60 60 0 0 0 928.7 87l-33.2 10.8c-.8 0 .3 28.3 17.4 34.3" clip-rule="evenodd"/><path fill="#541138" d="M673.7 196c-53.7-30.5-58.5-112.7 5.9-132.4 0 0 14-39.3 67.8-48.4 37.7-6.3 59.4 3.1 94.5 12.4 18.2 4.9 35.4 10.1 62.9 1.2 4 14.9 7.7 32.6 11.7 47.6L790 85.6l-61.7 17.2-22.5 19.4s-28.6 16.3-32 73.7"/><path fill="#aa665a" fill-rule="evenodd" d="M672.1 182.3c-8.4-6-32.6-26.6-30.2-59.2 2.8-39.5 35.5-60.8 87.8-55.4 0 0-14.3-7.8-39-5.7 24.2-33.9 58.4-41.2 90-38.3 36.4 3.5 66.2 19.9 97 18.6l25.9 36.2s-28.4-1.8-62.9-.8q-13.1-1.2-26.5-.7A214 214 0 0 0 734 96.2a119 119 0 0 0-51.6 43.7 79 79 0 0 0-10.3 42.4" clip-rule="evenodd"/><path fill="#bb7a66" fill-rule="evenodd" d="m641.8 125.7.1-2.6a56 56 0 0 1 41-51.7c3.5 7.3 17.4 42.6-41.1 54.3M697.5 53.5c23.1-26.2 53.4-32.3 81.8-29.9 7.7 29-56.2 30.5-81.8 30" clip-rule="evenodd"/><path fill="#81424b" fill-rule="evenodd" d="M827.5 33.7a233 233 0 0 0 35.8 8c-45 27-89.8 8.3-89.8 8.3 37.3 1.1 50.3-11.4 54-16.3" clip-rule="evenodd"/><path fill="#ce9877" fill-rule="evenodd" d="M702 61.7a97 97 0 0 0-11.3.3c24.2-33.9 58.4-41.2 90-38.3 12.6 1.2 24.3 4 35.6 7-76.6-11.2-107 21.2-114.4 31M667.4 178.5c-10.4-8.8-27.5-27.7-25.5-55.4 2.8-39 34.7-60.2 85.7-55.6-23.8.8-48 9.6-63 26.8-18.8 21.8-23.2 55.1 2.8 84.2" clip-rule="evenodd"/><path fill="#81424b" fill-rule="evenodd" d="M672.1 182.3c-28.6-28.5-8.4-64.7 17.5-52.2a92 92 0 0 0-7.2 9.8 79 79 0 0 0-10.3 42.4" clip-rule="evenodd"/><path fill="#541138" d="M677 125c8.8 11.7 43.7 16.9 51.5-4.6l-16.2-20.2s-27.7-.4-35.4 24.7"/><path fill="#aa665a" fill-rule="evenodd" d="M676.7 124.8s34.7 11.2 44.8-7.5l-20.8-19s-20.4-7.3-24 26.5" clip-rule="evenodd"/><path fill="#81424b" fill-rule="evenodd" d="M685.3 126.8c10 1.9 26.4 3 34.3-6.7a146 146 0 0 1-16.7-17.2c.3.4 17.2 24.9-17.6 24" clip-rule="evenodd"/><path fill="#541138" d="M772.8 49.9s40.3 9 86.2-10.8c20.7-9 39.6-36.7 61.6-34.2 18.5 2.2 37.8 29.8 17.9 58.2 0 0 10.3 28.1-13.7 44.5-12.6 8.6-33.8 13.1-72.7 11.2 0 0-20.4 28.6-72.2 25.4-24.4-1.5-44.6-10-57.6-19.7-14.7-10.9-20.5-21.2-21.3-26l29-13.4z"/><path fill="#aa665a" fill-rule="evenodd" d="M772.3 49.4s27.7 18.3 77.4 3q16.3-5.2 26-11.6c12.8-8 19.2-16.5 26.5-21.7a22 22 0 0 1 35.2 20.2 47 47 0 0 1-8.8 22.7c14.2 36.4-22.4 46.5-47.5 48.8-28.5 2.7-68-4.6-90 10.2 0 0 23.8-5.8 49.4-3a82 82 0 0 1-57.2 18.1 133 133 0 0 1-85-38.9l13-12.4L750.9 61z" clip-rule="evenodd"/><path fill="#bb7a66" fill-rule="evenodd" d="M879 40.7c11.6-7.3 19-14.3 21.2-10.7 2.3 3.5-1.5 16.3-13 23.6-11.7 7.3-26.8 6.3-29 2.7s9.2-8.4 20.8-15.6" clip-rule="evenodd"/><path fill="#ce9877" fill-rule="evenodd" d="M778.3 52.4c10.7 4.4 35.2 11.1 71.4 0q16.3-5.2 26-11.6c12.8-8 19.2-16.5 26.5-21.7a22 22 0 0 1 30.3 3.3c-29.7-17.6-41.2 29.4-83 36.8-26.6 4.8-52.7 6-71.2-6.8" clip-rule="evenodd"/><path fill="#81424b" fill-rule="evenodd" d="M929 63.2c13 35.5-23.1 45.3-47.9 47.6-15.5 1.5-34.2 0-51.6.7 30.5-14.7-16-24.4-17-24.2 71.9 6.9 105.3-14.3 116.6-24M791 121s24-5.8 49.5-3a82 82 0 0 1-57.2 18.1 133 133 0 0 1-81.4-35.3c23.3 13.5 69.3 23.8 89.1 20.2" clip-rule="evenodd"/><path fill="#541138" d="M934.6 51s-6.8 23-50.1 32.6c0 0 34.5 3.2 50.9-19z"/><path fill="#81424b" fill-rule="evenodd" d="M925.3 21.4S918.6 77.6 823 81.6c0 0 63.8 8.6 93-14.6 29.1-23.3 9.3-45.6 9.3-45.6" clip-rule="evenodd"/><path fill="#bb7a66" fill-rule="evenodd" d="M761.8 84.3c25.7 1.3 46.6 5 46.6 12.9s-20.9 17-46.6 15.7-46.5-12.4-46.5-20.3 20.8-9.6 46.5-8.3" clip-rule="evenodd"/><path fill="#541138" d="M944.7 227.8a51 51 0 0 1 47.1-28.4c21.3 1.2 38.9 19 36.7 51-2 29-23.8 55.4-50 57-19.4 1.2-33.2-11.6-32-28.8 1-13.6-.1-6.8-4.5-18.3-4.6-12-3-21.4 2.7-32.5"/><path fill="#fa8888" fill-rule="evenodd" d="M954 227c34-37.9 76.3-9.5 63.2 35.8-5.3 18.2-19.3 34.3-39.3 36.5-43.2 4.6-46.4-47.4-24-72.3" clip-rule="evenodd"/><path fill="#fbbaad" fill-rule="evenodd" d="M954 227c34-37.9 76.3-9.5 63.2 35.8a59 59 0 0 1-7.4 16c7.6-17 10-41.4-2.8-53.6-14-13.1-44.8-13-63.7 20.3A53 53 0 0 1 954 227" clip-rule="evenodd"/><path fill="#c64d60" fill-rule="evenodd" d="M1004 236.2s14.7 43.5-32 46.3c0 0 14.5-3.7 14.5-19.5S973 240 973 240s10.8-14.2 31.1-3.8" clip-rule="evenodd"/><path fill="#541138" d="M957.9 264.6a44 44 0 0 1 23.7-27.4c8.3-3.5 21.4-3.5 26.4 3.1-2.9-20.6-49.6-15.2-50.1 24.3"/><path fill="#541138" d="M974.8 239c24.4 9.5 20.5 43.2-4 43.8 21.2-9.8 15.4-31.7-2.5-39.1 2.7-1.8 3.9-2.9 6.5-4.6"/><path fill="#fba39b" fill-rule="evenodd" d="M971.8 250c3.1-.5 8.8 5 9.9 11.8s-2.7 12.4-5.9 12.9-4.5-4.2-5.6-11-1.6-13.1 1.6-13.6" clip-rule="evenodd"/><path fill="#c64d60" fill-rule="evenodd" d="M946.4 283c13.2 18.6 44.3 17.7 57 0 0 0-27.5 14.7-57 0" clip-rule="evenodd"/><path fill="#541138" d="M1000 564.6q-.4-1.4-1.3-2.7-1.9-3-5.1-4-2.4-.8-4.8-.6l-20 1.1q-2.3.1-4.3 1a10 10 0 0 0-5.6 6.3z"/><path fill="#b0c7d3" fill-rule="evenodd" d="M994 564.7a6 6 0 0 0-2.5-1.7q-1.5-.5-3.2-.4l-18.4 1-2.8.7-1.8 1.2z" clip-rule="evenodd"/><path fill="#7b84a1" fill-rule="evenodd" d="m968.1 564-1 .3-1.8 1.2h1q.6-.8 1.8-1.5" clip-rule="evenodd"/><path fill="#6c7559" fill-rule="evenodd" d="M967.9 557.3s4.3 1.6 5.5 8l10.7-.3c.5-3.6 1.8-7.5 5.1-9.4-.4-1-12.4-4.3-21.3 1.7" clip-rule="evenodd"/><path fill="#8a9b65" fill-rule="evenodd" d="M978 551.6c3.7 0 6.6 1.5 6.6 2.6s-2.9 1.5-6.5 1.5c-3.7 0-6.7-.3-6.7-1.5s3-2.6 6.7-2.6" clip-rule="evenodd"/><path fill="#541138" d="M966.1 554.6c2 1.6 4.1 5.5 5.6 10.7h3.7c-.7-4.8-3.4-9.2-9.3-10.7M991.8 553c-2 1.8-4.5 6-5.9 12h-3.6c.4-5.2 3-10.3 9.5-12"/><path fill="#fff" fill-rule="evenodd" d="m1113.6 465.6 2.2 26.3 22.3 5 .3-31.7zM1107 209.5V199l4.1-1.4c18.6-6.3 44.3-11 59.8 3.5 15.1-13.1 37.6-9 54 1.4l4.5-5.2 41.6 18.8-30.5 55.4a21 21 0 0 1-7 13.7 116 116 0 0 1-27.7 14c-8.5 2.9-17.5-.7-21.8-8-12.3 3-23-2.1-33.9-9l-3.4 8.3-34.7 1.2a33 33 0 0 1-29.2 1.9 32.4 32.4 0 0 1-40 19.6h-.2l-19.5-6.2a39 39 0 0 1-14.2-8c-9-7.8-14.1-18.4-14.1-30.3a42 42 0 0 1 11.5-28.8 38 38 0 0 1 45.1-7.5 40 40 0 0 1 38-27.3q9.4 0 17.5 4.3" clip-rule="evenodd"/><path fill="#fff" fill-rule="evenodd" d="M1238.4 351.7a37 37 0 0 1 4 17.8l-.4 9.8c-.8 22-20.9 36.4-39.4 44.2q-10.9 4.5-22.5 7.3a24 24 0 0 1-24.5 21.3l-66.3-2.3a24 24 0 0 1-23-23q-11.5-3.5-22.2-9c-17.9-9-36.9-24.8-36.1-46.9l.4-9.8q.4-9.4 5.1-17.5l.6-17a41 41 0 0 1 15.5-29.6 66 66 0 0 1 29.3-22c21.4-9 47-12 70-11.1 23.1.8 48.4 5.5 69.1 16a66 66 0 0 1 27.7 24.1 41 41 0 0 1 13.3 30.6z" clip-rule="evenodd"/><path fill="#fff" fill-rule="evenodd" d="m1047.5 474 3.3-93.9 155.7 5-2.9 93.8z" clip-rule="evenodd"/><path fill="#541138" fill-rule="evenodd" d="M1201.4 294.4a12 12 0 0 1-15.6-10.2l-.1.1h-.2c-12.4 5-22.2 0-34-7.7l3.4-12.7a30 30 0 0 1-8.2 3.5v5.2l-5.2 11.5-25.5.3-.5-4.8a25.9 25.9 0 0 1-36.2 2.6q-.6-.5-.4.1A26 26 0 0 1 1045 304h-.2l-19-6.5a32 32 0 0 1-11.6-7c-25.1-23-4.2-64.7 28.4-57.6a30 30 0 0 1 14.7 8.1c2.9-29 39.6-40.6 57.2-18.5q0-9.2.3-18.6c17.3-5.4 44.4-10.2 56.2 8.2 13-16.1 35.2-11.3 50.3-1l-2.5 10.1 11.6-13 30.3 14.8-28.3 48.5-.3.2v.2a15 15 0 0 1-5.2 10.7c-4 3.3-19 9.7-25.5 11.8" clip-rule="evenodd"/><path fill="#541138" fill-rule="evenodd" d="M1232 271.4v.5a15 15 0 0 1-29.9.8q-3.7 1.6-7.5 2.2c-14.6 2.1-24-4.1-35.3-11.7l4.2-16-.9.6a37 37 0 0 1-14.9 5l-1.2.2.2 19.6-32 .4v-6.7a32 32 0 0 1-25.4 11.6 34 34 0 0 1-16-4.5 32 32 0 0 1-4.8-3.5 31 31 0 0 1-8 18.3 32 32 0 0 1-15 9.6 33 33 0 0 1-16.7.6 32 32 0 0 1-14.6-7.9 33 33 0 0 1-9.4-14.6 35 35 0 0 1 1.4-24.8 31 31 0 0 1 11.5-13q5.7-3.8 12.3-5.2a30 30 0 0 1 27.3 8.1 35 35 0 0 1 8.5-19.5 31 31 0 0 1 15-9q6.5-1.8 13.2-1.1a30 30 0 0 1 20.5 11.1v-14.1l.3-4.5 4.3-1.3a81 81 0 0 1 23.2-3.6 46 46 0 0 1 14.7 2.4q3.5 1.3 6.7 3.4a25 25 0 0 1 7.3 7.3q3-3.7 7-6.2 4.9-2.7 10.3-3.7a34 34 0 0 1 15.5.7 44 44 0 0 1 13.8 5.7l3.7 2.5-6 24.4 1.7 3.3 13.4-30.5 30.3 14.7-28.4 48.6z" clip-rule="evenodd"/><path fill="#fff" fill-rule="evenodd" d="M1057.7 251.5a30 30 0 0 1 4.4 13.5 27 27 0 0 1-2.5 13.3 26 26 0 0 1-15.9 13.4 27 27 0 0 1-13.4.4 25 25 0 0 1-11.8-6.3 28.3 28.3 0 0 1-6.5-32 25 25 0 0 1 9-10.4q5-3.1 10.3-4.2 5-1 10 0 4.6 1 9 4.1 4 3.1 7.4 8.2m-15 10.7q-1-1.5-2.2-2.6a9 9 0 0 0-2.9-1.8q-1.5-.5-3.2-.4-1.6 0-3.3 1-1.6 1.2-2.5 2.5a8 8 0 0 0-1.1 6.3q.4 1.8 1.3 3.2 1 1.6 2.3 2.7 1.4 1.2 3 1.9 1.5.6 3.2.6t3.4-1a7.8 7.8 0 0 0 3.7-5.6q0-1.8-.3-3.5-.4-1.8-1.4-3.3m72.1-24.7a30 30 0 0 1 .2 14.1 27 27 0 0 1-6.3 12 26 26 0 0 1-19.3 8 27 27 0 0 1-13-3.7 26 26 0 0 1-9.3-9.6 27 27 0 0 1-3.6-13.6 28 28 0 0 1 7-18.9 25 25 0 0 1 11.9-7.1 31 31 0 0 1 11-1q5.2.6 9.5 3t7.3 6.7 4.6 10m-17.4 5.6a11 11 0 0 0-3.6-5.7 8 8 0 0 0-3-1.4q-1.5-.3-3.4.1t-3.1 1.5a8 8 0 0 0-3 5.7q0 1.8.3 3.5.5 1.7 1.4 3.2t2.2 2.7q1.4 1 3 1.6 1.5.5 3.5 0a8 8 0 0 0 5.2-4.3q.6-1.6.8-3.3 0-1.8-.3-3.6m71.2-17.2q0 4-1.2 7a18 18 0 0 1-8 9.4 39.2 39.2 0 0 1-12.6 4.2 53 53 0 0 1-6.7.6l.2 19.2-19.2.2a3979 3979 0 0 1-.2-57.8 75 75 0 0 1 21.4-3.4 38 38 0 0 1 12.5 2 27 27 0 0 1 5.4 2.8 18 18 0 0 1 8.4 15.8m-18.3 1.5q0-2.7-1.7-4.1a6 6 0 0 0-4.2-1.5q-.9 0-1.8.2l-1.8.3-.3 12 1 .1h1.2a8 8 0 0 0 5.3-2q1-.9 1.7-2.1a6 6 0 0 0 .6-2.9m61.6 22.6q-.8 5.6-3.5 9.5a20 20 0 0 1-6.3 6.1 23 23 0 0 1-8.5 3 33 33 0 0 1-9.9-.1q-2-.3-4.3-1.2a53 53 0 0 1-9-4.5l-3.8-2.4 4.4-16.5a33.6 33.6 0 0 0 17.2 6.9h2.1q1-.1 1.9-.7.7-.5 1-1.6 0-.8-.4-1.4-.3-.6-1.1-1.1l-1.7-.8a25 25 0 0 0-4.9-1.1q-3.5-.5-6.2-2.2a15 15 0 0 1-6.8-9.8q-.7-3.1-.1-6.7a19 19 0 0 1 9.3-14q3.8-2.1 8.1-3 4.5-.8 8.9 0a71 71 0 0 1 8.2 1.9 44 44 0 0 1 7.6 3.5l-4.1 16.3a51 51 0 0 0-11.4-4l-1.4-.1-3.6-.2-1.8.3q-.8.3-1.3.8a2 2 0 0 0-.6 1.3q-.2.8.4 1.5t1.5 1.1l2.2.8 4.5.8q1 0 1.7.3 3.2.8 5.6 2.3 2.5 1.5 4 3.8t2 5q.6 3 0 6.2m39.9-24.3-22 37.5-13.7-6.6 17.5-39.7zm-27 49.3q-.8 1.6-2 2.7a9 9 0 0 1-6.2 2.1q-1.6 0-3.3-.8a8 8 0 0 1-4.4-5q-.6-1.5-.5-3.3t.9-3.3a8.7 8.7 0 0 1 14.3-2 9 9 0 0 1 2.1 6.2q0 1.8-.8 3.4" clip-rule="evenodd"/><path fill="#fff" fill-rule="evenodd" d="M1055 253.2q-2.7-4.2-6.7-7.3a20 20 0 0 0-16.4-3.6 28 28 0 0 0-13.8 7.8 22 22 0 0 0-5 10.7 25 25 0 0 0 12.4 26.2 22 22 0 0 0 23-1 22 22 0 0 0 10.5-20.8 25 25 0 0 0-4-12m-9.6 7.3a14 14 0 0 1 2 8.8 11 11 0 0 1-5 7.9 10 10 0 0 1-5 1.6q-2.4 0-4.6-.9t-3.8-2.4-2.8-3.4q-1.3-2-1.8-4.2a12 12 0 0 1 1.5-8.7 11 11 0 0 1 8.3-5q2.3-.1 4.5.7 2.1.8 3.8 2.2t3 3.4m66.3-22.2q-1.2-5-4-9a20 20 0 0 0-6.4-5.8 21 21 0 0 0-8.2-2.6 28 28 0 0 0-15.6 3.3 22 22 0 0 0-8 8.7 25 25 0 0 0 4 28.7 22.8 22.8 0 0 0 36.3-5 24 24 0 0 0 2.8-11.9q0-3.3-.9-6.4m-11.2 4a14 14 0 0 1-.7 9 11 11 0 0 1-12.5 6 11 11 0 0 1-4.1-2.2q-1.8-1.5-3-3.4-1.1-2-1.6-4-.7-2.4-.4-4.6a12 12 0 0 1 4-7.9 11 11 0 0 1 9.5-2.3q2.2.6 4 2t3 3.3q1.2 2 1.8 4.1m23.5-31.2v17.8l.2 34.4 12.9-.1-.2-19.2h3.1a51 51 0 0 0 12.4-2 27 27 0 0 0 5.3-2.4q2.4-1.3 4.1-3.3a14 14 0 0 0 2.7-4.5q1-3 .9-6 0-2.7-1-5.5a16 16 0 0 0-6-7.6 24 24 0 0 0-10.2-3.8q-3-.4-5.8-.4a71 71 0 0 0-18.4 2.6m22.6 25.8q-1.8.6-3.9.7h-2.5l-3-.4.5-17.3 2.3-.6a23 23 0 0 1 4.3-.7q3.7 0 6.5 2.3 2.6 2.6 2.7 6.5 0 2.3-1 4.3a11 11 0 0 1-5.9 5.2m61.2-11.3 2.6-10.3a25 25 0 0 0-4.9-2 35 35 0 0 0-7.7-1.8 24 24 0 0 0-14.8 2.6 16 16 0 0 0-7.9 11.8 15 15 0 0 0 .1 5.5q.6 2.5 2 4.5 1.3 2.1 3.4 3.3 2.3 1.5 5 1.7l1.3.2 4.1 1 .1.1 2.3 1v.1a7 7 0 0 1 2 2q1.1 1.7.8 3.7-.3 2.4-2.4 3.8-1.4 1-3 1.1-1.5.3-3 0-1 0-2-.2a37 37 0 0 1-13-4.6l-2.5 10 6 3.3a49 49 0 0 0 7.9 3q4.5.7 9 0a20 20 0 0 0 7.3-2.5q3.3-2 5.3-5.2a20 20 0 0 0 3-13.2 10 10 0 0 0-4.7-6.8q-2.2-1.4-4.6-1.9h-.2l-1.2-.2-5-1q-1.4-.3-2.7-1-1.5-.6-2.5-1.8a5 5 0 0 1-1.2-4q.2-1.9 1.6-3.2 1.2-1 2.6-1.5 1.2-.4 2.4-.4h2.3l2 .1 1.5.2a32 32 0 0 1 8.7 2.6m39.5 1.5-12.1-5.9-15 33.9 8.3 4zm-25.3 46.5a6 6 0 0 0 .2-4.3q-.3-1-1-1.9t-1.7-1.2a5 5 0 0 0-2-.6 5.7 5.7 0 0 0-5.3 3.1 5 5 0 0 0-.3 4.3q.3 1 1 1.8.8.9 1.8 1.3a5 5 0 0 0 4.1.2q1-.4 2-1 .8-.7 1.2-1.7" clip-rule="evenodd"/><path fill="#b9c6ce" fill-rule="evenodd" d="M1055 253.2q-2.7-4.3-6.7-7.3a20 20 0 0 0-16.4-3.6 28 28 0 0 0-13.8 7.8 22 22 0 0 0-5 10.7 25 25 0 0 0 5.7 20.8 25 25 0 0 1-1.2-22.6 22 22 0 0 1 7.9-9q4.2-2.8 9.2-3.8 4.2-1 8.6 0 4.2.9 7.8 3.6 2.4 1.8 4.3 4-.3-.2-.4-.6m-8.8 8.7a14 14 0 0 1 1.3 7.4 11 11 0 0 1-10.1 9.5 11 11 0 0 1-4.6-.9 14 14 0 0 1-4.7-3.2l.8 1.3q1.2 2 2.8 3.4 1.8 1.5 3.8 2.4 2.2 1 4.6.8 2.7 0 5-1.5a11 11 0 0 0 4.8-12.5 14 14 0 0 0-3.7-6.7m62.9-30.4-1.5-2.2a20 20 0 0 0-14.5-8.4 28 28 0 0 0-15.6 3.3 22 22 0 0 0-8 8.7 25 25 0 0 0-2.8 11.8 25 25 0 0 0 5.9 15.8 24 24 0 0 1-3.2-12 25 25 0 0 1 6.2-16.7 22 22 0 0 1 10.3-6.2q4.9-1.3 9.9-.9 4.5.5 8.2 2.6a20 20 0 0 1 5 4.2m-8.7 10.8a14 14 0 0 1-.7 9 11 11 0 0 1-7.2 6q-2.6.7-5.2 0a11 11 0 0 1-5-3l.7 1.2q1.2 2 3 3.5 1.7 1.6 4 2.2 2.6.7 5.2 0a11 11 0 0 0 7.3-6q1-2.1 1.1-4.4a14 14 0 0 0-4.1-11.1zm23.6-31.2v17.8l.1 18.8.1 15.6h2.7l-.1-30.6V215a71 71 0 0 1 18.3-2.6 36 36 0 0 1 11.3 1.8 24 24 0 0 1 7.4 4.6 16 16 0 0 0-5.3-6 24 24 0 0 0-10.3-3.9q-3-.4-5.8-.4a71 71 0 0 0-18.4 2.6m22.6 25.8q-1.8.7-3.9.7h-2.7v3.5l2.9.3h2.6a11 11 0 0 0 7.3-2.7q1.5-1.4 2.4-3.2 1-2 1-4.2 0-3.9-2.7-6.5l-.5-.4a10 10 0 0 1-.5 7.3 10 10 0 0 1-5.9 5.2m63.2-19.2.6-2.4-1.2-.6a38 38 0 0 0-19.2-3.1q-3.8.6-7 2.5a15.8 15.8 0 0 0-7.9 11.8 15 15 0 0 0 .1 5.5 13 13 0 0 0 3.5 6.4l-.8-2.5a15 15 0 0 1 0-5.5 16 16 0 0 1 7.8-11.8q3.3-2 7-2.5a24 24 0 0 1 7.9-.1 64 64 0 0 1 9.2 2.3m-13.6 29.6v1.7q-.3 2.4-2.4 3.8-1.4 1-3 1.1-1.5.3-3 0-1 0-2-.2a37 37 0 0 1-13-4.6l-2.5 10 3.2 1.8 2.1-7.9a35 35 0 0 0 18 4.8q1.5-.2 3-1.1a5 5 0 0 0 2.4-3.9 5 5 0 0 0-.8-3.6 7 7 0 0 0-2-2m12-4.8a10 10 0 0 0-4-4.8q-2.2-1.4-4.7-1.9h-.2l-1.2-.3-5-.9a15 15 0 0 1-3.6-1.5 5 5 0 0 0 1.1 2.5q1 1.3 2.6 2l2.7 1a32 32 0 0 0 5 .8l1.1.3h.2a14 14 0 0 1 6 2.8m39.1-15.4-12.1-5.9-15 33.9 3.7 1.7 14-31.7 8.2 4zm-24.9 43q0-.3-.2-.8-.3-1-1-1.9t-1.7-1.2q-1-.5-2-.6a5.6 5.6 0 0 0-4.5 9.2q.5.7 1.4 1.2v-1.3q0-1 .5-2a6 6 0 0 1 3.1-2.9q1.1-.3 2.2-.3a5 5 0 0 1 2.2.7" clip-rule="evenodd"/><path fill="#541138" d="M1232.6 352.5q4.2 7.5 4 16.2l-.3 9.8c-.6 19.4-19.4 32.2-35.5 39q-12.5 5.4-25.7 8v2.9a18 18 0 0 1-18.6 17.4l-66-2.2a18 18 0 0 1-17.5-18.5l.1-2.7q-13.2-3.7-25.3-9.8c-15.7-7.9-33.6-21.8-33-41.2l.3-9.8q.4-8.6 5-15.9l.6-18.6a36 36 0 0 1 14-25.8 59 59 0 0 1 27-20.5 163 163 0 0 1 67.2-10.9c22.1.7 46.6 5.1 66.4 15.2 9.8 4.9 20.3 12.4 25.6 22.2 7.4 7.1 12.6 16 12.3 26.6z"/><path fill="#541138" d="M1127.6 312.3a185 185 0 0 1 75.1 17c14.8 7.6 32.3 20.9 31.8 39.3l-.4 9.8c-.5 18.5-19 30.7-34.2 37.2-23 9.8-51.1 13-76 12.2a185 185 0 0 1-75.2-17c-14.7-7.6-32.3-20.9-31.7-39.3l.3-9.8c.6-18.5 19-30.7 34.2-37.2 23-9.8 51.2-13 76-12.2"/><path fill="#998954" fill-rule="evenodd" d="M1127.4 316.4a180 180 0 0 1 73.4 16.7c18.7 9.4 30 22 29.5 35.4l-.3 9.8c-.4 13.5-12.5 25.3-31.7 33.5a180 180 0 0 1-74.3 11.9 180 180 0 0 1-73.4-16.7c-18.6-9.4-30-22-29.5-35.4l.3-9.8c.4-13.5 12.5-25.3 31.7-33.5a180 180 0 0 1 74.3-11.9" clip-rule="evenodd"/><path fill="#b4aa67" fill-rule="evenodd" d="M1127.4 316.4c24.7.8 47.3 5.5 65 12.8a198 198 0 0 0-57.4-10 180 180 0 0 0-74.3 12c-19.2 8.2-31.3 20-31.7 33.5l-.3 9.8c-.5 13.4 10.9 26 29.5 35.4q4 2.1 8.5 3.9-8.7-3-16.1-6.8c-18.6-9.4-30-22-29.5-35.4l.3-9.8c.4-13.5 12.5-25.3 31.7-33.5a180 180 0 0 1 74.3-11.9" clip-rule="evenodd"/><path fill="#8b604e" fill-rule="evenodd" d="M1132.2 315.4c26.2 1.6 49.6 7.6 66.8 16.3 18.6 9.4 30 22 29.5 35.4l-.3 9.8c-.4 13.5-12.5 25.3-31.7 33.5-17.7 7.6-41.5 12.1-67.7 12z" clip-rule="evenodd"/><path fill="#541138" d="M1127.5 313.7c59.2 2 106.5 26.5 105.5 54.9s-49.9 45.9-109.3 41.5c-59.2-.1-106-20-105-48.4s49.6-49.9 108.8-48"/><path fill="#c9c27a" d="M1124.3 413.8c57.7 1.9 105.2-18.4 106-45.3.9-26.9-45.2-50.2-102.9-52-57.7-1.9-105.1 18.4-106 45.3s45.2 50.2 102.9 52"/><path fill="#7a4a44" fill-rule="evenodd" d="M1176.6 418.8q-6.3 1.5-13.2 2.6l1-29.6a6.6 6.6 0 0 1 13 .4zm-84.7 1.5a187 187 0 0 1-13-2.9l.9-28.3a6.6 6.6 0 1 1 13.1.4z" clip-rule="evenodd"/><path fill="#541138" d="M1128.6 279.4c23.8.8 50.4 5.5 71.8 16.3 14.4 7.3 31.2 20.2 30.6 38.2l-.9 28.7c-1.3 40.3-76.3 48-105.7 47-29.3-.9-103.7-13.4-102.4-53.7l1-28.7c.5-18 18.1-29.8 33-36.1 22-9.5 48.8-12.5 72.6-11.7"/><path fill="#6c7352" fill-rule="evenodd" d="M1128.5 283.8c27.6.9 52.4 6.9 70.2 16s28.7 21 28.3 33.8l-1 29c-.4 12.8-12 24.1-30.3 32a172 172 0 0 1-71.1 11.4c-27.6-.9-52.5-7-70.3-16s-28.7-21-28.2-33.9l.9-28.9c.4-12.9 12-24.2 30.3-32a172 172 0 0 1 71.2-11.4" clip-rule="evenodd"/><path fill="#4e564a" fill-rule="evenodd" d="M1133.4 282.4c24.9 1.6 47.1 7.3 63.4 15.6 17.9 9 28.7 21 28.3 34l-1 28.9c-.3 12.8-12 24.1-30.3 32a167 167 0 0 1-64.3 11.5z" clip-rule="evenodd"/><path fill="#998954" fill-rule="evenodd" d="M1042.1 359.2c2.4.8 2.8 3.5 1 6-1.8 2.6-5.1 4-7.5 3.3s-2.9-3.5-1-6c1.8-2.6 5.1-4 7.5-3.3m179.6 16.3q-6.1 8.9-19 15.7c1.6-7.7 5.3-19.5 14-17.8q2.7.5 5 2M1152 405q-9.9 1-20.4 1c.2-3.9 1.3-12.6 7-12.3s11.3 8 13.4 11.3m-21.6 1a220 220 0 0 1-32-2.5c1.4-2.4 8.2-13.4 16-11.7 6.8 1.5 13.4 10.3 16 14.2m-57.7-8.6q-10.2-3.2-18.5-7.4a67 67 0 0 1-20.8-15.3c7.4-6.2 18.2-9.3 18.7 5.9 21.2-21.6 22.2-2 20.6 16.8m126.4-20.4c2 .1 3.4 2.4 3 5.2-.5 2.9-2.6 5-4.7 5-2 0-3.4-2.4-3-5.2.5-2.8 2.6-5 4.7-5m-79.5 5.1c2.2-1.2 5.3.4 7 3.4 1.6 3 1.2 6.5-1 7.7-2 1.2-5.2-.4-6.8-3.4-1.7-3.1-1.3-6.5.8-7.7" clip-rule="evenodd"/><path fill="#838e5a" fill-rule="evenodd" d="M1128.5 283.8c26 .8 49.4 6.2 67 14.3a185 185 0 0 0-59.3-11c-27.7-1-52.8 3.5-71.2 11.3s-30 19.2-30.3 32l-1 29c-.4 12.9 10.4 24.9 28.3 33.9l3.2 1.6q-5.8-2.2-11-4.8c-17.7-9-28.6-21-28.1-34l.9-28.9c.4-12.9 12-24.2 30.3-32a172 172 0 0 1 71.2-11.4" clip-rule="evenodd"/><path fill="#b4aa67" fill-rule="evenodd" d="M1034 363.4q.4 2.5 1.3 5c-1.8-.8-2.3-2.9-1.3-5m3 8.8a58 58 0 0 0 28.2 22.7q-5.8-2.2-11-4.8a67 67 0 0 1-20.7-15.3q1.7-1.4 3.6-2.6" clip-rule="evenodd"/><path fill="#8b604e" fill-rule="evenodd" d="M1219.4 374.3q-5.4 7.6-16 13.8c2-7.4 5.7-16.2 13.3-14.7q1.4.3 2.7.9m-68.5 29q-9.2 1-19 1c.4-4.2 1.8-10.8 6.8-10.5 4.9.2 9.6 5.8 12.2 9.5m48.3-26.2c2 .1 3.4 2.4 3 5.2-.5 2.9-2.6 5-4.7 5-2 0-3.4-2.4-3-5.2.5-2.8 2.6-5 4.7-5" clip-rule="evenodd"/><path fill="#541138" d="M1128.6 280.3c57.2 1.8 102.8 25.7 101.9 53.4-1 27.7-47.3 41.5-104.5 39.7s-103.4-18.6-102.5-46.3 48-48.7 105-46.8"/><path fill="#9ea366" d="M1125.5 377c55.2 1.8 100.6-17.6 101.5-43.4.8-25.7-43.3-48-98.5-49.8s-100.7 17.7-101.5 43.4c-.8 25.8 43.3 48 98.5 49.8"/><path fill="#b6bf78" fill-rule="evenodd" d="M1058 362.4c-19.5-9.1-31.4-21.7-31-35.2q.5-10.6 10.1-19.5z" clip-rule="evenodd"/><path fill="#6c7352" fill-rule="evenodd" d="M1224.5 322.6v1.5l-.2 6.8c-1.2 36.6-69.8 43-96.5 42.1s-94.5-11.6-93.4-48.2l.3-6.8q.1-5.7 2.6-10.5c16.6-15.2 51.3-25 91.2-23.7 47.1 1.5 86.2 18 96 38.8" clip-rule="evenodd"/><path fill="#541138" d="M1128.9 272c21.7.8 46 5.1 65.5 15 13 6.6 28.4 18.3 27.9 34.7l-.2 6.8c-1.2 36.6-69.9 43-96.6 42.1s-94.5-11.5-93.3-48.2l.2-6.8c.5-16.4 16.6-27 30.1-32.9a161 161 0 0 1 66.3-10.6"/><path fill="#6c7352" fill-rule="evenodd" d="M1128.7 276.3c25 .8 47.6 6.3 63.8 14.5s26 19 25.6 30.7l-.3 6.8c-.3 11.7-10.8 22-27.5 29.1a156 156 0 0 1-64.5 10.3c-25-.8-47.6-6.2-63.7-14.4s-26-19.1-25.7-30.8l.3-6.8c.3-11.7 10.8-22 27.5-29a156 156 0 0 1 64.5-10.4" clip-rule="evenodd"/><path fill="#541138" d="M1128.8 273.5c51.6 1.7 92.9 23.2 92 48.1-.7 25-42.4 39-95.3 34.8-51.4 0-92.4-15.9-91.6-40.8s43.3-43.7 94.9-42"/><path fill="#9ea366" d="M1126 360.9c50 1.6 91.3-16 92-39.4s-39.2-43.6-89.3-45.2-91.3 16-92 39.4 39.2 43.6 89.3 45.2"/><path fill="#fff" fill-rule="evenodd" d="m1128.3 356.5 8.9-16.9 7 15.9q-7.8 1-16 1m26.5-2.7 7-13.4 4.5 10.2a94 94 0 0 1-11.5 3.2m-72.3-5.6 5.3-10.1 6.3 14.1q-6.1-1.5-11.6-4m21.7 6.3 8.3-15.6 7.8 17.4q-8.2-.4-16-1.8m37.5-19.7 7.4 16.5 8.5-16zm-24.7-.8 7.4 16.5 8.9-16zm49.4 1.6 5.7 12.7c5.7-2.4 9.7-8.4 10.1-12.1zm-74-2.4 7.4 16.5 8.4-16zm-24.7-.8c.3 4.5 3.7 10.1 9.2 13l6.6-12.5z" clip-rule="evenodd"/><path fill="#b6bf78" fill-rule="evenodd" d="M1129 276.5c61.8 2 118.4 43.6-1.9 39.6-119.2-4-59-41.6 2-39.6" clip-rule="evenodd"/><path fill="#fff" fill-rule="evenodd" d="m1049 302 8.4-5 8.2 5.8-2.8 4.3 16-9.5 8 5.7-11 6.7 10.5 7.5-8.3 5.1-12.2-9.4-2.6 4.8-6.6 4-8-5.7 11-6.8zM1168.1 305.9l8.4-5.2 8.3 6-3 5.1 16-10.4 8 5.7-11 6.7 10.5 7.5-8.3 5.1-10.4-7.4-11 6.8-8-5.7 11-6.8z" clip-rule="evenodd"/><path fill="#fff" fill-rule="evenodd" d="M1128.7 276.3c47 1.5 85 19.4 89 41-6.2-20.3-43-36.9-88-38.3-49.7-1.6-90.7 16-91.5 39.2a22 22 0 0 0 3.3 12q-5-7-4.8-14.5c.7-23.3 42-41 92-39.4" clip-rule="evenodd"/><path fill="#541138" d="m1161.3 397.4-2.2-1.9a3 3 0 0 1-1-2.5l.3-11c0-1.5 1.2-2.8 2.7-3a170 170 0 0 0 21.3-4.3q1.5-.4 2.8.6h.1l2.2 1.9q1 1 1 2.5l-.3 10.9q-.2 2.3-2.3 3a173 173 0 0 1-22.1 4.5q-1.5.2-2.5-.7"/><path fill="#9ea366" fill-rule="evenodd" d="m1186.2 380-.3 10.3q-.1 1-1 1.3-9.8 2.8-20.9 4.3-.6 0-1.1-.3l-2-1.8q-.5-.4-.5-1l.3-10.5q.1-1.1 1.2-1.3 11-1.5 20.5-4.2a1 1 0 0 1 1.3.3l2 1.8q.5.4.5 1" clip-rule="evenodd"/><path fill="#4e564a" fill-rule="evenodd" d="m1186.2 380-.3 10.3q-.1 1-1 1.3a163 163 0 0 1-20.9 4.3q-.6 0-1.1-.3-.6-.5-.5-1.1l.3-10.5q.1-1.1 1.3-1.3 10.8-1.5 20.4-4.1.7-.2 1.3.2.5.5.5 1.2" clip-rule="evenodd"/><path fill="#541138" d="M1182.6 381.3c2.3.5 3.3 3 3.2 5.2 0 2-1.2 4.5-3.5 5.1h-1.3l-2.5-.7c-2-.7-2.8-3-2.7-5s1.2-4.5 3.4-5l1.3-.1z"/><path fill="#9ea366" fill-rule="evenodd" d="M1181.5 390.3h-.3l-2.1-.7q-1.9-.7-2-3.6c.1-2.1 1.4-3.9 3-3.9h.3l1.8.5c1.3.3 2.3 2 2.2 3.9 0 2-1.4 3.8-3 3.8" clip-rule="evenodd"/><path fill="#4e564a" d="M1181.7 382.6c-1.7 0-3 1.7-3.1 3.8-.1 2.2 1.2 3.9 2.9 3.9s3-1.7 3.2-3.8c0-2.2-1.3-3.9-3-3.9"/><path fill="#541138" d="m1161.3 387.2 12.5.4c1.5 0 2.6 1.3 2.5 2.7v3.7c-.1 1.4-1.3 2.6-2.8 2.5l-12.5-.4a2.6 2.6 0 0 1-2.5-2.7l.1-3.6c0-1.5 1.3-2.6 2.7-2.6"/><path fill="#72744a" fill-rule="evenodd" d="M1161.3 389q-.8.1-1 .8v3.7q0 .7.8.8l12.5.4q.7 0 .9-.8v-3.6q0-.8-.7-.9z" clip-rule="evenodd"/><path fill="#541138" d="m1167.4 386.1-16.2-.5a3.4 3.4 0 0 0-3.5 3.3l-.2 4.7c0 1.9 1.4 3.5 3.3 3.5l16.2.5c1.8 0 3.4-1.4 3.5-3.2l.1-4.8c0-1.9-1.4-3.4-3.2-3.5"/><path fill="#4e564a" fill-rule="evenodd" d="m1167.3 388.2-14.9-.5h-1.3q-1.2 0-1.3 1.2l-.2 4.8q.1 1.2 1.3 1.3h1.4l14.7.5q1.2 0 1.4-1.2l.1-4.8q0-1.2-1.2-1.3" clip-rule="evenodd"/><path fill="#541138" d="m1151.2 380.9 9 .3-.7 21-9-.4z"/><path fill="#6c7352" d="m1154 383 3.3.2q.7 0 .7.7l-.5 15.3q0 .6-.7.7h-3.3a1 1 0 0 1-.7-.8l.5-15.3q0-.6.7-.7"/><path fill="#9ea366" fill-rule="evenodd" d="m1157.3 383.2-3.3-.1q-.7 0-.7.7l-.2 6.7 4.7.1.2-6.7q0-.6-.7-.7" clip-rule="evenodd"/><path fill="#541138" d="m1088.6 395.1 2.2-1.7q1.3-1 1.3-2.5l.4-11c0-1.6-1-3-2.6-3.3q-10.8-2.1-21.1-5.6a3 3 0 0 0-3 .4l-2.3 1.7q-1.2 1-1.2 2.5l-.4 11q0 2.3 2.2 3 10.7 3.9 21.9 6 1.5.4 2.6-.5"/><path fill="#9ea366" fill-rule="evenodd" d="m1064.7 376-.3 10.4q0 1 1 1.4 9.5 3.3 20.4 5.6.7 0 1.2-.3l2-1.6h.1q.5-.4.6-1l.3-10.5q-.1-1-1.1-1.4-10.8-2.2-20.2-5.4-.7-.3-1.3.2l-2.1 1.6q-.6.4-.6 1" clip-rule="evenodd"/><path fill="#6c7352" fill-rule="evenodd" d="m1064.7 376-.3 10.4q0 1 1 1.4 9.5 3.3 20.4 5.6.8 0 1.2-.3.5-.4.5-1l.4-10.5q0-1.2-1.2-1.4-10.7-2.2-20.1-5.4-.7-.3-1.3.2-.5.4-.6 1" clip-rule="evenodd"/><path fill="#4e564a" fill-rule="evenodd" d="M1069.3 379.3c-2.3.4-3.5 2.8-3.5 5q-.2 2.3 1.3 4l3.7 1.3 1.9-.5c2-.6 3-2.8 3-4.8.1-2-.9-4.6-3-5.3l-1.4-.1q-1 0-2 .4" clip-rule="evenodd"/><path fill="#541138" d="M1068.2 377.6c-2.3.4-3.4 2.9-3.5 5 0 2.1 1 4.6 3.1 5.3l1.3.2h.1l2.5-.6c2-.6 3-2.8 3-4.8s-.9-4.6-3-5.3l-1.4-.2z"/><path fill="#4e564a" fill-rule="evenodd" d="M1068.8 386.7h.3l2.1-.5q2-.7 2.2-3.6c0-2-1.2-3.9-2.7-4h-.3l-1.9.4c-1.3.2-2.4 1.7-2.4 3.7s1.1 3.9 2.7 4" clip-rule="evenodd"/><path fill="#9ea366" fill-rule="evenodd" d="M1073.3 381.5q-.6-2.6-2.6-2.9h-.3l-1.9.4c-1.3.2-2.4 1.7-2.4 3.7l.1 1.3c1.2-.3 4.5-1.5 7-2.5" clip-rule="evenodd"/><path fill="#6c7352" d="M1069 379c1.7 0 3 1.9 3 4-.2 2.1-1.6 3.8-3.2 3.7s-3-2-3-4c.1-2.2 1.5-3.8 3.2-3.7"/><path fill="#541138" d="m1089 384.9-12.4-.4c-1.5 0-2.7 1.1-2.7 2.5l-.1 3.7c0 1.5 1 2.7 2.5 2.7l12.5.4c1.5 0 2.7-1 2.7-2.5l.1-3.7c0-1.4-1-2.7-2.5-2.7"/><path fill="#72744a" fill-rule="evenodd" d="M1089 386.7q.9 0 .8.9v3.6q-.1.8-1 .8l-12.5-.4a1 1 0 0 1-.7-.8V387q.1-.8 1-.8z" clip-rule="evenodd"/><path fill="#541138" d="m1083.1 383.4 16.2.5c1.9 0 3.4 1.7 3.3 3.5l-.2 4.8c0 1.8-1.6 3.3-3.5 3.3l-16.1-.6a3.4 3.4 0 0 1-3.3-3.5l.1-4.7c.1-1.9 1.7-3.4 3.5-3.3"/><path fill="#4e564a" fill-rule="evenodd" d="m1083 385.5 15 .5h1.2q1.2.2 1.3 1.4l-.2 4.7q-.1 1.2-1.3 1.2h-1.4l-14.8-.5q-1.1-.1-1.2-1.3l.2-4.7q.1-1.2 1.3-1.3" clip-rule="evenodd"/><path fill="#541138" d="M1099.2 389.7c.2-5.8-1.7-10.6-4.2-10.6-2.4-.1-4.6 4.5-4.8 10.3s1.7 10.6 4.2 10.6c2.5.1 4.6-4.5 4.8-10.3"/><path fill="#6c7352" d="M1096.7 381.2h-3.4q-.7 0-.7.6l-.5 15.3q0 .6.7.8h3.3q.7 0 .7-.6l.5-15.3q0-.7-.6-.8"/><path fill="#9ea366" fill-rule="evenodd" d="m1093.3 381.1 3.4.1q.5.1.6.8l-.2 6.7-4.7-.2.2-6.7q0-.7.7-.7" clip-rule="evenodd"/><path fill="#541138" d="M1161 391.2a6.6 6.6 0 0 1 13 .4l-1.1 36.7a16 16 0 0 1-16.4 15.3l-66-2.1a16 16 0 0 1-15.3-16.3l1.2-36.7a6.6 6.6 0 1 1 13 .4l-1 36.7c-.1 1.5 1 2.7 2.5 2.8l66 2c1.5.1 2.8-1 2.8-2.5z"/><path fill="#6c7352" fill-rule="evenodd" d="M1163.8 391.3a3.7 3.7 0 0 1 7.4.2l-1.2 36.7a13 13 0 0 1-13.4 12.6l-66-2.1a13 13 0 0 1-12.6-13.4l1.2-36.7a3.7 3.7 0 0 1 7.5.2l-1.2 36.7q0 2.4 1.5 4 1.5 1.5 3.8 1.7l66 2.1a5.5 5.5 0 0 0 5.8-5.3z" clip-rule="evenodd"/><path fill="#9ea366" fill-rule="evenodd" d="m1170.2 422.8-.2 5.4c0 3.6-1.6 6-4 8.3a13 13 0 0 1-9.3 3.5l-66-2a13 13 0 0 1-9.1-4.2q-3.6-3.4-3.6-8.5l.5-13.4 7.4.9-.4 12.7q0 2.4 1.5 4 1.5 1.5 3.8 1.7l66 2.1a5.5 5.5 0 0 0 5.8-5.3l.2-6.1z" clip-rule="evenodd"/><path fill="#4e564a" fill-rule="evenodd" d="M1170.1 425.3v3a13 13 0 0 1-13.5 12.5l-66-2.1a13 13 0 0 1-12.6-13.4l.1-3a13 13 0 0 0 12.6 13.5l66 2.1a13 13 0 0 0 13.4-12.6" clip-rule="evenodd"/><path fill="#541138" d="M1090.7 356.5c.3 0 43.8 9.2 81.1.2a131 131 0 0 1-81.1-.2M1084.3 371.8c.4 0 49.7 9.4 92 .6-28.7 9.2-64 7.4-92-.6"/><path fill="#fff" d="M1112.1 280.7c4.7 0 8.4-1.4 8.3-3 0-1.5-3.8-2.6-8.4-2.5-4.6 0-8.3 1.4-8.3 3 0 1.5 3.8 2.6 8.4 2.5"/><path fill="#b6bf78" fill-rule="evenodd" d="m1089 435.7 68 2.2c1.2-.4-39.3-7.9-68-2.2" clip-rule="evenodd"/><path fill="#848e5b" fill-rule="evenodd" d="M1068.8 379.6c1.3 0 2.5 1.5 2.4 2.5 0 1-1.2 1-2.5 1q-2 .1-2.2-1.2c0-1 1-2.4 2.3-2.3" clip-rule="evenodd"/><path fill="#72744a" fill-rule="evenodd" d="M1115.6 322.7c.7 2-1.6 3.6-4 4.6a46.3 46.3 0 0 1-24 1c-2.9-.8-6.2-2.2-7-4.2q0-.6-.3-1.1c-.8-2.1 1.5-3.7 4-4.6a46.7 46.7 0 0 1 24-1c2.9.7 6.2 2 7 4.2zm-7.1-.5c-4.5-2.7-18.8-2-21.2.9 4 2.4 19.3 2 21.2-1" clip-rule="evenodd"/><path fill="#72744a" fill-rule="evenodd" d="M1130 295.1c6.8.3 14.4 1.6 20.5 4.6 4.6 2.3 9.5 6.3 9.3 11.8v3.5c-.2 5.6-5.4 9.2-10.2 11.2-6.3 2.6-13.9 3.4-20.7 3.2a51 51 0 0 1-20.5-4.6c-4.6-2.2-9.5-6.2-9.4-11.7l.2-3.6c.1-5.5 5.3-9.1 10-11 6.3-2.7 14-3.6 20.8-3.4" clip-rule="evenodd"/><path fill="#541138" d="M1128.5 291.6c7 .2 14.8 1.6 21 4.7 4.8 2.4 9.8 6.4 9.7 12.1l-.1 3.6c-.2 5.7-5.5 9.4-10.4 11.5a53 53 0 0 1-21.3 3.3c-7-.2-14.8-1.6-21-4.7-4.8-2.3-9.9-6.4-9.7-12l.1-3.7c.2-5.7 5.5-9.4 10.4-11.4a53 53 0 0 1 21.3-3.4"/><path fill="#72744a" fill-rule="evenodd" d="M1128.4 293.8c7.8.3 14.8 2 19.8 4.5s8 6 8 9.6l-.2 3.7c0 3.6-3.3 6.8-8.5 9a49 49 0 0 1-20 3.2c-7.8-.3-14.8-2-19.8-4.5s-8-6-8-9.5l.2-3.8c.1-3.6 3.4-6.8 8.5-9a49 49 0 0 1 20-3.2" clip-rule="evenodd"/><path fill="#541138" d="M1128.4 294.1c16.8.5 30.3 6.8 30 14-.2 7-14 12-30.9 11.4s-30.2-6.3-30-13.4c.3-7.2 14.1-12.5 31-12"/><path fill="#aab06a" d="M1127.6 320c15.5.6 28.3-5 28.6-12.1.2-7.3-12.2-13.6-27.8-14-15.5-.6-28.3 4.9-28.5 12.1-.2 7.3 12.2 13.6 27.7 14"/><path fill="#cfd990" fill-rule="evenodd" d="M1130 298.6c12 .4 21.5 5 21.3 10.4-.2 5.3-10 9.3-22 9s-21.5-5-21.3-10.4 10-9.4 22-9" clip-rule="evenodd"/><path fill="#541138" d="M1128.3 297c12 .5 21.5 5.1 21.4 10.5-.2 5.3-10 9.3-22 9s-21.5-5-21.3-10.4 10-9.4 22-9"/><path fill="#807e53" d="M1127.8 315c10.7.4 19.5-3 19.7-7.6s-8.5-8.5-19.2-8.9c-10.8-.3-19.6 3-19.7 7.6-.2 4.6 8.4 8.6 19.2 9"/><path fill="#5d5e50" d="M1127.8 314c8.1.3 14.8-2.2 14.9-5.6s-6.4-6.4-14.5-6.7-14.8 2.3-15 5.7c0 3.5 6.5 6.4 14.6 6.7"/><path fill="#5d5e50" fill-rule="evenodd" d="M1128.3 298.5c10.8.4 19.4 4.3 19.2 8.9q0 .8-.3 1.4c-1.5-4-9.4-7.2-19-7.5s-17.7 2.4-19.4 6.3q-.3-.7-.2-1.5c.1-4.5 9-8 19.7-7.6" clip-rule="evenodd"/><path fill="#541138" d="m1133.9 302.1 14-1.4h.4c3.1.4 3 5.3 0 5.5l-15.6 1.5-.2-5.4z"/><path fill="#69666d" fill-rule="evenodd" d="m1134 303.6 14.2-1.4c1.3.1 1.1 2.4-.1 2.5l-14 1.4z" clip-rule="evenodd"/><path fill="#c1cac2" fill-rule="evenodd" d="m1134 303.6 14.2-1.4q.8 0 .9.9l-15 1.8z" clip-rule="evenodd"/><path fill="#541138" d="M1129 288q4.7 0 9 2c2 1 4.4 2.9 4.3 5.5l-.4 11.2c0 2.7-2.5 4.4-4.7 5.3a23 23 0 0 1-9 1.4c-3-.1-6.3-.7-9-2-2.2-1-4.5-2.9-4.4-5.5l.4-11.2c0-2.7 2.4-4.4 4.7-5.3 2.7-1.1 6-1.5 9-1.4"/><path fill="#8f5c44" fill-rule="evenodd" d="M1128.9 289.9q5 0 8.2 1.8 3.3 1.5 3.3 3.8l-.3 11.2q-.2 2.2-3.6 3.6-3.2 1.3-8.3 1.2-5 0-8.2-1.8-3.3-1.5-3.3-3.8l.3-11.2q.2-2.2 3.6-3.6 3.3-1.4 8.3-1.2" clip-rule="evenodd"/><path fill="#754137" fill-rule="evenodd" d="M1128.9 289.9q5 0 8.2 1.8 3.3 1.5 3.3 3.8l-.2 8-1.4.7a26 26 0 0 1-10.4 1.6 26 26 0 0 1-11.6-3l.2-8q.2-2.3 3.6-3.7 3.3-1.4 8.3-1.2" clip-rule="evenodd"/><path fill="#754137" fill-rule="evenodd" d="M1131 292.4q3.5.3 5.8 1.5 2.6 1.3 2.7 3.1l-.3 9.3q-.1 1.9-3 3-2.3 1-5.7 1z" clip-rule="evenodd"/><path fill="#541138" d="M1129.3 277.7c3.4 0 7.2.7 10.2 2.2 2.6 1.3 5.2 3.4 5 6.5l-.2 9c-.1 3.2-2.9 5.1-5.5 6.2-3.1 1.3-7 1.7-10.3 1.6s-7.2-.8-10.3-2.3c-2.5-1.2-5.1-3.3-5-6.4l.3-9.1c0-3 2.8-5 5.4-6.1a26 26 0 0 1 10.4-1.6"/><path fill="#a87a4b" fill-rule="evenodd" d="M1129.2 280q5.7.1 9.3 2 3.8 1.8 3.8 4.3l-.3 9.1q-.2 2.6-4 4.1-3.8 1.6-9.5 1.4c-3.6 0-7-.8-9.3-2q-3.7-1.8-3.8-4.3l.3-9.1q.2-2.6 4-4.1 3.8-1.6 9.5-1.4" clip-rule="evenodd"/><path fill="#b9935a" fill-rule="evenodd" d="M1128.7 301h-.2c-3.6-.2-7-1-9.3-2.1q-3.7-1.8-3.8-4.3l.3-9.1q0-.4.2-.8h1l3 5.4-.2 4.9s-1 5 9 6" clip-rule="evenodd"/><path fill="#9c5e41" fill-rule="evenodd" d="M1140.1 283q1.6 1.3 1.5 2.8l-.2 9.1q-.3 2.5-4 4c-2.1 1-4 1.4-7 1.4l-.2-19.7c3.3.3 6.2.3 8.3 1.4q1 .4 1.6 1" clip-rule="evenodd"/><path fill="#541138" d="M1140.4 290.9h-1.8l-.3 9.8h1.8zM1135 290.7h-1.7l-.4 11h1.8zM1129.8 290.5h-1.8l-.4 11.5h1.8zM1124.5 290.4h-1.8l-.4 11 1.8.1zM1119.1 290.2h-1.7l-.3 9.8h1.7z"/><path fill="#541138" d="M1129.2 280.1c8 .3 14.5 3.4 14.3 7 0 3.6-6.7 6-14.7 5.7s-14.5-3-14.4-6.6 6.8-6.4 14.8-6"/><path fill="#c09e60" d="M1128.8 291.9c7.4.2 13.4-2.3 13.5-5.6s-5.8-6.1-13-6.3c-7.4-.3-13.5 2.2-13.6 5.5s5.8 6.1 13.1 6.4"/><path fill="#d6c074" fill-rule="evenodd" d="M1129.2 280q4.2 0 7.5 1.2l-16.8 8.8q-4-1.9-4.2-4.5c.1-3.3 6.2-5.8 13.5-5.5" clip-rule="evenodd"/><path fill="#a87a4b" d="M1129 289.3c4.8.1 8.8-1.4 8.8-3.5.1-2-3.8-3.8-8.6-4-5-.1-9 1.4-9 3.5 0 2 3.8 3.8 8.7 4"/><path fill="#8f5c44" fill-rule="evenodd" d="M1129.2 281.8c4.8.2 8.7 2 8.6 4q0 1-1 1.7c0-1.8-3.5-3.3-7.7-3.5-4.3-.1-7.8 1.2-8 3q-.9-.8-.9-1.7c0-2.1 4-3.6 9-3.5" clip-rule="evenodd"/><path fill="#541138" d="m1106.8 304 12.3-1.3h.3c3 .5 2.9 5.3 0 5.6l-11.7 1z"/><path fill="#69666d" fill-rule="evenodd" d="m1107 305.5 12.3-1.3c1.3.2 1.1 2.5-.1 2.6l-11.7 1.1z" clip-rule="evenodd"/><path fill="#c1cac2" fill-rule="evenodd" d="m1107 305.5 12.3-1.3q.8.1.8 1l-12.8 1.5z" clip-rule="evenodd"/><path fill="#541138" d="M1111.5 305c1.7 3 .5 6.8-1.1 9.4a29 29 0 0 1-9.4 8.5 29 29 0 0 1-12 4.1c-3 .3-7-.5-8.7-3.4l-1-1.5c-1.6-3-.6-6.7 1-9.3 2.3-3.5 5.8-6.5 9.4-8.6 3.5-2 7.8-3.8 11.9-4 3-.3 7.3.4 9 3.3zm-7 2.7c-5.3-2.1-18 5.7-18.7 11.3 5 1.9 18.5-6 18.8-11.3"/><path fill="#69666d" fill-rule="evenodd" d="M1091.8 307.6c7.5-4.4 15.4-5 17.6-1.3s-2.1 10.3-9.6 14.8-15.4 5-17.6 1.4c-2.2-3.8 2-10.4 9.6-14.9m.9 1.5c6-3.5 12.2-4.2 13.8-1.5s-2 7.7-8 11.3-12.2 4.3-13.8 1.6 2-7.8 8-11.4" clip-rule="evenodd"/><path fill="#c1cac2" fill-rule="evenodd" d="M1091 306.2c7.4-4.5 15.3-5.1 17.5-1.4s-2 10.4-9.6 14.8-15.4 5.1-17.6 1.4 2-10.4 9.6-14.8m.8 1.5c6-3.6 12.2-4.3 13.8-1.6s-2 7.8-8 11.4c-6 3.5-12.2 4.2-13.8 1.5s2-7.8 8-11.3" clip-rule="evenodd"/><path fill="#fff" fill-rule="evenodd" d="M1104.5 315.4q-2.4 2.3-5.6 4.2c-7.5 4.5-15.4 5.1-17.6 1.4-1.3-2.3-.3-5.6 2.5-9q-3 4.6-1.5 7.6c2.3 3.7 10.1 3.1 17.7-1.3l4-3zm-18.3-3.3-.4.4z" clip-rule="evenodd"/><path fill="#fff" d="M1085.7 324q1.4-.1 1.6-1.6-.2-1.4-1.5-1.5-1.5.1-1.7 1.4.1 1.5 1.6 1.6"/><path fill="#541138" d="m1116 380 18.6 1.7-1.3 106.3-12-2.5z"/><path fill="#541138" d="m1052.2 467 4.5-85.3 143.5 7-4 85.2z"/><path fill="#e95b5b" fill-rule="evenodd" d="m1192.6 446.2-.5 19.6-132-3.2 2-73 131.8 3.3z" clip-rule="evenodd"/><path fill="#fff" fill-rule="evenodd" d="m1193.8 395-131.4-1.7-.3-3.7 131.8 3.3z" clip-rule="evenodd"/><path fill="#bf3053" fill-rule="evenodd" d="m1190 444.3-.5 18.8-126.7-3.1.7-24.2 127-12.8z" clip-rule="evenodd"/><path fill="#fff" fill-rule="evenodd" d="m1067.8 456.4 1.5-50.6h-1.3l1-7.8 13.8.4 3.3 31.6 5.2-31.4 13.4.3-1.7 58.5-8.3-.3 1.3-45.3-7.6 36.8-5.7-.1-5.3-36.2-1.2 44.4zm39.6 1 1.5-50.6h-1.4l1.1-7.7 8.8.2-1.7 58.4zm32.8-57.5 8.4.2-1.7 58.4-8.3-.2-8.7-36-1 35.7-8.3-.2 1.4-50.6h-1.3l1.1-7.8 9.2.2 8.7 37.4zm31.2 51.5-.9 7.7-19.2-.5 1.4-50.6h-1.3l1.1-7.8 20.4.5-1.1 7.7-10.7-.2-.5 17.5 9.8.2-1.1 7.8-9-.2-.5 17.6zm5-50.6 9.9.3-1.4 47.7-9.9-.3zm-1.5 50.6 10 .3-.3 7.8-9.9-.3z" clip-rule="evenodd"/></svg>