<svg width="277" height="306" viewBox="0 0 277 306" fill="none" xmlns="http://www.w3.org/2000/svg">
<path fill-rule="evenodd" clip-rule="evenodd" d="M119.625 274.614L121.807 300.894L144.101 305.878L144.351 274.18L119.625 274.614Z" fill="white"/>
<path fill-rule="evenodd" clip-rule="evenodd" d="M112.924 18.4648C112.915 16.4609 112.924 14.4539 112.951 12.447L113.011 8.10156L117.125 6.70333C135.684 0.402212 161.374 -4.25959 176.848 10.1808C192.039 -2.92162 214.516 1.17967 230.964 11.6152L235.438 6.37787L277 25.224L246.519 80.5629C246.287 82.8592 245.687 85.0952 244.729 87.2106C243.502 89.9106 241.746 92.3184 239.525 94.2892C234.284 98.9389 218.75 105.849 211.837 108.241C203.294 111.195 194.308 107.551 189.996 100.265C177.737 103.287 167.09 98.1645 156.119 91.3601L152.653 99.5748L118.032 100.816C114.548 102.847 110.682 104.219 106.614 104.86C100.511 105.822 94.367 105.047 88.8162 102.691C86.8033 108.073 83.3588 112.876 78.7814 116.513C70.3016 123.26 59.2513 125.539 48.8609 122.323L48.6228 122.251L29.1168 116.101C27.0978 115.465 25.133 114.666 23.2466 113.714C20.2362 112.195 17.4397 110.294 14.8933 108.088C5.95846 100.34 0.805442 89.6786 0.796401 77.8116C0.787361 67.1953 4.96403 56.7235 12.2957 49.0423C21.5139 39.3872 34.4234 35.4667 47.4988 37.9799C50.9823 38.6459 54.2911 39.8332 57.398 41.4634C62.7559 25.5283 77.7719 14.2671 95.3102 14.1797C101.614 14.1496 107.605 15.6352 112.924 18.4648Z" fill="white"/>
<path fill-rule="evenodd" clip-rule="evenodd" d="M244.412 160.675C247.142 166.226 248.547 172.199 248.324 178.461L247.971 188.305C247.182 210.34 227.103 224.687 208.631 232.507C201.374 235.58 193.811 237.973 186.141 239.823C185.533 245.522 182.893 250.813 178.668 254.746C174.033 259.061 167.901 261.357 161.57 261.131L95.2678 258.76C88.9365 258.531 82.985 255.804 78.6697 251.169C74.7552 246.965 72.5042 241.529 72.2872 235.834C64.6662 233.423 57.1958 230.464 50.0871 226.835C32.2174 217.714 13.2176 201.968 14.0041 179.934L14.3567 170.092C14.5797 163.83 16.4088 157.972 19.5278 152.632L20.1395 135.507C20.5704 123.513 26.8444 113.659 35.6406 106.002C42.3968 95.8318 53.9082 88.6357 64.9344 83.9679C86.3118 74.9185 111.896 72.0527 134.967 72.8784C158.038 73.7041 183.351 78.39 204.026 88.9431C214.691 94.3884 225.66 102.386 231.671 113.014C239.901 121.28 245.452 131.556 245.024 143.55L244.412 160.675Z" fill="white"/>
<path fill-rule="evenodd" clip-rule="evenodd" d="M53.4712 282.982L56.8493 189.104L212.506 194.028L209.622 287.876L53.4712 282.982Z" fill="white"/>
<path fill-rule="evenodd" clip-rule="evenodd" d="M207.41 103.402C200.455 105.608 193.199 101.25 191.933 93.9756C191.891 93.7225 191.858 93.4724 191.831 93.2162L191.65 93.2946L191.466 93.3699C179.102 98.3873 169.248 93.3699 157.559 85.6133L160.919 72.8604C158.408 74.4666 155.615 75.5996 152.746 76.3922L152.662 76.4163L152.713 81.6476L147.506 93.1439L121.946 93.3941L121.452 88.6087C117.299 93.376 111.592 96.3171 105.348 97.1609C98.0973 98.083 90.853 96.0157 85.2269 91.2545C84.811 90.8959 84.9074 90.8628 84.8562 91.3449C84.154 98.3662 80.5138 104.776 74.9058 109.04C67.9839 114.217 59.2147 115.787 50.979 113.075L50.7802 113.009L31.8074 106.475C30.1561 105.909 28.553 105.207 27.0101 104.375C24.533 103.046 22.2488 101.401 20.1725 99.5023C-4.90537 76.5881 15.9597 34.7915 48.5803 41.9424C52.7479 42.8555 56.5659 44.6847 59.9952 47.216C61.1614 48.0748 62.2584 49.009 63.292 50.0034C66.1548 20.9508 102.925 9.37311 120.493 31.54C120.448 25.257 120.496 19.209 120.746 12.926C138.065 7.54394 165.177 2.67119 176.986 21.0954C189.962 4.99757 212.183 9.78594 227.32 20.0528L224.786 30.2171L236.436 17.2834L266.754 32.0011L238.37 80.4905C238.295 80.617 238.217 80.617 238.078 80.6894C238.075 80.7587 238.072 80.828 238.069 80.8973C237.979 82.9344 237.484 84.9052 236.595 86.7404C235.691 88.5997 234.438 90.236 232.856 91.5649C228.872 94.9189 213.907 101.344 207.41 103.402Z" fill="#541138"/>
<path fill-rule="evenodd" clip-rule="evenodd" d="M238.084 80.4396C238.081 80.5902 238.075 80.7439 238.069 80.8976C237.979 82.9347 237.485 84.9055 236.596 86.7407C235.692 88.6 234.438 90.2363 232.856 91.5652C231.406 92.7857 229.758 93.7198 227.971 94.3466C226.148 94.9885 224.231 95.2687 222.3 95.1783C220.275 95.0849 218.325 94.5757 216.502 93.6927C214.67 92.8007 213.043 91.5803 211.714 90.0344C210.451 88.5668 209.481 86.8974 208.854 85.0682C208.483 83.9834 208.239 82.8684 208.119 81.7384C205.708 82.775 203.17 83.4741 200.549 83.8629C186.033 86.0205 176.64 79.7706 165.282 72.234L169.483 56.2928C169.194 56.4766 168.902 56.6574 168.606 56.8322C166.325 58.1762 163.899 59.249 161.383 60.0747C158.894 60.8883 156.332 61.4759 153.741 61.8617C153.337 61.9219 152.93 61.9792 152.52 62.0304L152.713 81.648L120.765 81.9583L120.701 75.5819C120.701 75.4945 120.698 75.4101 120.698 75.3258C120.246 75.8712 119.776 76.4046 119.288 76.9229C117.302 79.0293 115.033 80.8373 112.556 82.338C109.925 83.9291 107.078 85.0893 104.106 85.8668C101.232 86.6171 98.2723 86.9908 95.298 86.9335C92.4714 86.8793 89.678 86.4815 86.9538 85.7221C84.2327 84.9628 81.6502 83.8598 79.2243 82.4104C77.5248 81.3948 75.9277 80.2256 74.4481 78.9208C74.3577 79.9363 74.219 80.9488 74.0322 81.9553C73.5139 84.7669 72.6219 87.473 71.3803 90.0465C70.1207 92.6531 68.5025 95.0608 66.592 97.2365C64.564 99.5478 62.1984 101.513 59.5978 103.149C57.0815 104.734 54.3785 105.979 51.5217 106.822C48.8096 107.621 46.0282 108.082 43.2016 108.178C40.378 108.275 37.5815 108.001 34.8333 107.35C32.1031 106.705 29.4784 105.704 27.0104 104.375C24.5333 103.046 22.2491 101.401 20.1728 99.5027C17.9911 97.5108 16.1137 95.2266 14.5407 92.7284C12.9948 90.2755 11.7533 87.6568 10.8522 84.9025C9.96931 82.1934 9.41483 79.3909 9.21595 76.5462C9.02007 73.7437 9.14059 70.9322 9.62877 68.1628C10.1169 65.3693 10.9637 62.6693 12.157 60.0988C13.3684 57.4861 14.9384 55.0754 16.8098 52.8906C18.7836 50.5854 21.104 48.6356 23.6714 47.0174C27.4654 44.6278 31.5817 42.8287 35.9844 41.9217C40.161 41.0598 44.4069 41.0267 48.5806 41.9428C52.7482 42.8559 56.5662 44.685 59.9955 47.2163C61.1617 48.0751 62.2587 49.0093 63.2923 50.0038C63.446 48.4277 63.7081 46.8637 64.0818 45.3209C64.7387 42.5877 65.7 39.9449 66.9988 37.4497C68.3066 34.9335 69.9278 32.6162 71.8414 30.5218C73.782 28.3973 76.006 26.5712 78.4499 25.0524C81.0264 23.4462 83.8259 22.2861 86.761 21.5206C91.0943 20.3846 95.5723 19.9085 100.038 20.3695C104.284 20.8065 108.337 22.054 112.041 24.1845C115.337 26.08 118.149 28.5812 120.494 31.5404C120.484 30.335 120.472 29.1266 120.451 27.9212C120.388 24.4226 120.427 20.921 120.566 17.4254L120.747 12.9263L125.047 11.5883C128.783 10.4281 132.602 9.53918 136.468 8.93046C140.367 8.31271 144.315 7.9963 148.262 7.96014C150.73 7.93603 153.195 8.11683 155.636 8.4905C158.14 8.87321 160.603 9.49096 162.98 10.3739C165.334 11.2448 167.585 12.3748 169.685 13.752C171.897 15.2014 173.853 16.9703 175.507 19.0346C176.037 19.6975 176.532 20.3846 176.987 21.0957C178.972 18.6338 181.347 16.5635 184.086 14.9333C187.238 13.0529 190.677 11.8264 194.287 11.1785C197.927 10.5276 201.609 10.4854 205.265 11.0399C206.771 11.2719 208.269 11.5552 209.758 11.8806C211.391 12.2362 213.006 12.6912 214.588 13.2306C216.14 13.761 217.671 14.3456 219.16 15.0327C220.718 15.7499 222.215 16.5907 223.635 17.555L227.32 20.0531L221.224 44.5042C221.914 45.5589 222.493 46.6679 222.963 47.819L236.436 17.2837L266.754 32.0014L238.331 80.5571L238.084 80.4396Z" fill="#541138"/>
<path fill-rule="evenodd" clip-rule="evenodd" d="M63.6452 60.5416C64.9711 62.648 66.0108 64.8509 66.7581 67.123C67.5085 69.3921 67.9665 71.6793 68.1292 73.9696C68.301 76.2718 68.1713 78.547 67.7615 80.798C67.3396 83.0581 66.6345 85.2127 65.6371 87.2709C64.6517 89.3201 63.3679 91.2426 61.8009 93.0266C60.2339 94.8136 58.3656 96.3866 56.2019 97.7517C54.1076 99.0716 51.947 100.048 49.7171 100.705C47.4751 101.368 45.2421 101.726 42.982 101.805C40.7219 101.883 38.5071 101.666 36.3012 101.142C34.1134 100.627 32.019 99.834 30.0302 98.7612C28.0503 97.6974 26.2001 96.3715 24.4764 94.7955C22.7527 93.2225 21.2399 91.3993 19.9381 89.3291C18.6634 87.3071 17.6509 85.1675 16.9157 82.9225C16.1834 80.6745 15.7314 78.3993 15.5807 76.1031C15.409 73.8008 15.5205 71.5196 15.9092 69.2656C16.313 66.9995 16.985 64.8479 17.9433 62.7836C18.9015 60.7164 20.1431 58.8059 21.6558 57.037C23.1686 55.2711 24.9736 53.7343 27.0679 52.4144C30.437 50.2959 33.8362 48.8856 37.2715 48.1654C40.7038 47.4663 44.0156 47.4753 47.2128 48.1714C50.398 48.8736 53.3965 50.2598 56.208 52.3451C59.0196 54.4123 61.5026 57.1395 63.6452 60.5416ZM48.7346 71.1942C48.1048 70.1967 47.3455 69.3108 46.4565 68.5574C45.5796 67.798 44.6273 67.2345 43.6027 66.8488C42.5872 66.4751 41.5205 66.3124 40.4145 66.3787C39.3086 66.445 38.2147 66.8156 37.145 67.4907C36.0511 68.1807 35.1953 68.9853 34.5835 69.9165C33.9838 70.8627 33.583 71.8632 33.3992 72.942C33.2064 74.0087 33.2516 75.1117 33.4957 76.2357C33.7518 77.3567 34.2008 78.4355 34.8366 79.448C35.4574 80.4364 36.2168 81.3224 37.1028 82.1239C38.0038 82.9195 38.9741 83.5403 40.0288 83.9712C41.0896 84.4172 42.1774 84.6131 43.3044 84.5829C44.4465 84.5468 45.5555 84.1972 46.6494 83.5071C47.7432 82.82 48.584 81.9914 49.1957 81.006C49.7954 80.0326 50.166 78.9839 50.3077 77.866C50.4463 76.763 50.377 75.6269 50.1118 74.4638C49.8345 73.3096 49.3765 72.2187 48.7346 71.1942ZM120.801 46.4598C121.431 48.8675 121.76 51.2813 121.79 53.671C121.817 56.0636 121.567 58.381 121.033 60.614C120.5 62.862 119.692 64.9925 118.623 67.0145C117.541 69.0426 116.221 70.8868 114.648 72.5472C113.09 74.2046 111.288 75.6511 109.257 76.8806C107.223 78.11 104.969 79.0472 102.492 79.6951C100.099 80.3219 97.7454 80.6052 95.422 80.557C93.0836 80.5148 90.8476 80.1863 88.6658 79.5776C86.4871 78.9719 84.441 78.095 82.4943 76.9348C80.5657 75.7806 78.8089 74.3945 77.2358 72.7732C75.6658 71.161 74.3008 69.3379 73.1346 67.3189C71.9653 65.2999 71.0703 63.1061 70.4525 60.7375C69.8468 58.4262 69.5245 56.0817 69.5004 53.7192C69.4793 51.3567 69.7324 49.0514 70.2808 46.8154C70.8142 44.5674 71.6067 42.4278 72.6584 40.3937C73.7221 38.3536 75.0119 36.5064 76.5488 34.8249C78.0856 33.1434 79.8455 31.6939 81.8193 30.4644C83.7931 29.2379 85.9809 28.3158 88.3736 27.689C92.2248 26.6826 95.8921 26.3631 99.3847 26.7127C102.868 27.0803 106.023 28.0868 108.862 29.7111C111.686 31.3413 114.129 33.5683 116.179 36.4039C118.24 39.2215 119.786 42.5664 120.801 46.4598ZM103.375 52.1221C103.076 50.98 102.621 49.9072 101.997 48.9218C101.392 47.9334 100.65 47.1077 99.7915 46.4327C98.9357 45.7697 97.9684 45.2966 96.8926 45.0254C95.8198 44.7542 94.6657 44.7813 93.4392 45.1007C92.1886 45.4292 91.1309 45.9385 90.269 46.6436C89.4102 47.3608 88.7261 48.1955 88.2259 49.1689C87.7196 50.1302 87.4333 51.1939 87.3248 52.339C87.2314 53.4842 87.3339 54.6503 87.6352 55.8045C87.9305 56.9345 88.3856 58.0073 88.9913 59.041C89.6091 60.0715 90.3504 60.9545 91.2243 61.6837C92.1012 62.4281 93.0806 62.9433 94.1624 63.2537C95.2623 63.5641 96.4254 63.5641 97.676 63.2357C98.9296 62.9102 99.9783 62.3738 100.858 61.6204C101.723 60.8701 102.392 59.9811 102.865 58.9566C103.329 57.9501 103.606 56.8441 103.703 55.6568C103.784 54.4726 103.679 53.2943 103.375 52.1221ZM174.567 34.852C174.594 37.5099 174.209 39.8754 173.443 41.9517C172.66 44.0129 171.581 45.821 170.219 47.3669C168.842 48.9278 167.223 50.2387 165.364 51.3386C163.517 52.4264 161.528 53.3154 159.398 54.0115C157.282 54.7076 155.079 55.2229 152.804 55.5544C150.529 55.8979 148.293 56.0878 146.087 56.139L146.274 75.3316L127.078 75.5185C127.018 69.2324 126.973 62.9614 126.94 56.7327C126.906 50.5039 126.888 44.2027 126.882 37.8594C126.907 34.5145 126.888 31.1665 126.828 27.8066C126.765 24.4586 126.804 21.0836 126.94 17.6784C130.444 16.5905 133.952 15.7829 137.463 15.2284C140.973 14.674 144.583 14.3726 148.326 14.3364C150.436 14.3154 152.56 14.463 154.672 14.7945C156.797 15.1109 158.828 15.6413 160.763 16.3525C162.709 17.0787 164.517 17.9887 166.19 19.0856C167.859 20.1795 169.306 21.4874 170.529 23.0212C171.756 24.543 172.729 26.2908 173.449 28.2405C174.172 30.2023 174.546 32.4051 174.567 34.852ZM156.288 36.422C156.27 34.635 155.709 33.2488 154.615 32.2604C153.524 31.275 152.114 30.7808 150.384 30.7989C149.806 30.8019 149.203 30.8501 148.585 30.9556C147.967 31.0611 147.392 31.1786 146.843 31.3233L146.47 43.365C146.85 43.4042 147.214 43.4283 147.582 43.4253C147.931 43.4223 148.299 43.4192 148.691 43.4132C149.676 43.4042 150.631 43.2414 151.541 42.8949C152.467 42.5634 153.277 42.0752 153.988 41.4515C154.684 40.8247 155.254 40.1014 155.67 39.2546C156.098 38.4079 156.297 37.4616 156.288 36.422ZM217.873 58.9988C217.304 62.7264 216.171 65.8815 214.453 68.464C212.736 71.0495 210.632 73.1017 208.098 74.6084C205.579 76.1031 202.755 77.0945 199.612 77.5556C196.466 78.0287 193.172 77.9955 189.725 77.4712C188.405 77.2693 186.971 76.8655 185.425 76.2749C183.894 75.6872 182.348 74.9941 180.802 74.2197C179.256 73.4422 177.773 72.6346 176.366 71.7938C174.944 70.9501 173.696 70.1636 172.611 69.4434L176.963 52.9387C179.057 54.6805 181.456 56.1119 184.156 57.263C186.853 58.4141 189.565 59.1946 192.274 59.6105C192.805 59.6888 193.434 59.7581 194.164 59.8244C194.905 59.8968 195.616 59.8907 196.315 59.7853C197.014 59.6768 197.617 59.4568 198.153 59.1253C198.672 58.7908 198.997 58.2424 199.115 57.48C199.193 56.9647 199.094 56.4946 198.816 56.0817C198.551 55.6719 198.181 55.3013 197.701 54.9879C197.207 54.6865 196.65 54.4153 196.032 54.1923C195.393 53.9814 194.769 53.7885 194.152 53.6378C193.534 53.4842 192.955 53.3696 192.413 53.2853C191.87 53.2039 191.439 53.1376 191.108 53.0864C188.773 52.7308 186.705 52.0045 184.924 50.9076C183.131 49.7957 181.664 48.4065 180.507 46.7491C179.368 45.0827 178.56 43.1962 178.099 41.0898C177.638 38.9714 177.593 36.7595 177.948 34.4241C178.436 31.2148 179.527 28.4484 181.194 26.101C182.872 23.7535 184.924 21.861 187.35 20.4116C189.791 18.9621 192.473 17.9767 195.411 17.4554C198.352 16.922 201.315 16.8919 204.304 17.3469C205.639 17.5488 206.992 17.814 208.399 18.1123C209.8 18.4257 211.181 18.8054 212.534 19.2695C213.899 19.7335 215.213 20.2458 216.49 20.8244C217.753 21.415 218.946 22.081 220.055 22.8314L215.993 39.1251C214.236 38.2331 212.386 37.4104 210.418 36.6842C208.469 35.9459 206.528 35.4366 204.593 35.1413C204.247 35.0901 203.786 35.0328 203.228 34.9635C202.671 34.8912 202.08 34.846 201.459 34.8068C200.838 34.7827 200.209 34.8008 199.564 34.8309C198.916 34.8761 198.334 34.9695 197.798 35.1323C197.273 35.292 196.84 35.5391 196.475 35.8675C196.125 36.199 195.92 36.6239 195.866 37.1543C195.803 37.757 195.954 38.2632 196.327 38.7062C196.689 39.1311 197.189 39.4897 197.825 39.8001C198.461 40.1105 199.163 40.3606 199.955 40.5655C200.751 40.7734 201.535 40.9361 202.312 41.0687C203.102 41.2013 203.84 41.3158 204.509 41.4032C205.193 41.4936 205.744 41.6051 206.181 41.7287C208.33 42.1837 210.216 42.9552 211.837 43.9978C213.453 45.0555 214.755 46.3212 215.764 47.8098C216.777 49.3015 217.473 50.986 217.834 52.8935C218.187 54.795 218.202 56.8321 217.873 58.9988ZM257.768 34.7285L235.806 72.2429L222.092 65.5892L239.6 25.9111L257.768 34.7285ZM230.855 83.9561C230.328 85.044 229.623 85.951 228.752 86.6863C227.878 87.4186 226.911 87.964 225.859 88.3287C224.819 88.6993 223.726 88.859 222.592 88.8078C221.447 88.7535 220.351 88.4703 219.287 87.955C218.199 87.4246 217.286 86.7315 216.548 85.8727C215.806 85.0138 215.255 84.0586 214.89 83.0069C214.538 81.9582 214.381 80.8673 214.417 79.7283C214.468 78.5952 214.755 77.4862 215.285 76.3984C215.8 75.3346 216.493 74.4216 217.364 73.6562C218.256 72.8847 219.211 72.3333 220.251 71.9626C221.303 71.598 222.397 71.4383 223.533 71.4774C224.678 71.5015 225.79 71.7908 226.878 72.3182C227.941 72.8335 228.842 73.5206 229.581 74.4125C230.316 75.2834 230.867 76.2387 231.22 77.2844C231.582 78.3361 231.753 79.436 231.699 80.6142C231.648 81.7774 231.374 82.8924 230.855 83.9561Z" fill="white"/>
<path fill-rule="evenodd" clip-rule="evenodd" d="M60.957 62.2348C59.1821 59.4172 57.0064 56.8829 54.3214 54.9001C51.9739 53.1674 49.3884 51.8987 46.5347 51.2749C43.6689 50.6451 40.7819 50.6843 37.9131 51.2779C34.6405 51.9529 31.5819 53.3271 28.7613 55.102C27.0105 56.2079 25.4164 57.5278 24.0663 59.1038C22.7645 60.6256 21.6677 62.3011 20.8239 64.1182C19.9801 65.9383 19.3834 67.8368 19.0399 69.8136C18.6873 71.8176 18.606 73.8517 18.7476 75.8797C18.8923 77.9439 19.2931 79.972 19.935 81.9367C20.5919 83.9437 21.4989 85.8482 22.6259 87.6352C23.7439 89.4101 25.0699 91.0343 26.6188 92.4507C28.1134 93.8158 29.7527 95.0031 31.5367 95.9613C33.2724 96.8955 35.1136 97.5976 37.0302 98.0527C38.9528 98.5047 40.8995 98.6975 42.8733 98.6282C44.8954 98.5589 46.8782 98.2304 48.8189 97.6579C50.8318 97.0612 52.7303 96.1813 54.5082 95.0633C56.3284 93.9152 57.9918 92.5501 59.4141 90.9319C60.7551 89.4041 61.8942 87.7195 62.7771 85.8904C63.648 84.0853 64.2748 82.1959 64.6364 80.2251C65.0041 78.2332 65.1065 76.2172 64.9619 74.1982C64.8112 72.128 64.3923 70.0879 63.7414 68.1171C63.0604 66.0468 62.1171 64.076 60.957 62.2348ZM51.4224 69.5002C52.2451 70.8111 52.8508 72.2304 53.2034 73.7371C53.5529 75.2198 53.6494 76.7506 53.4596 78.2603C53.2607 79.8394 52.7333 81.322 51.8986 82.675C51.0006 84.1275 49.7831 85.2877 48.3427 86.1947C46.839 87.144 45.1786 87.7075 43.3976 87.7587C41.8156 87.8039 40.2727 87.5116 38.8111 86.9059C37.4039 86.3213 36.1202 85.5077 34.9841 84.4921C33.8872 83.5098 32.9349 82.3888 32.1484 81.1412C31.3318 79.8424 30.7291 78.4261 30.3946 76.9284C30.0631 75.4307 30.0059 73.9029 30.2681 72.3932C30.5332 70.8864 31.0847 69.4792 31.9164 68.1954C32.8174 66.7972 34.0499 65.6852 35.4512 64.8023C36.9037 63.8892 38.5098 63.3076 40.2305 63.2081C41.7523 63.1177 43.2801 63.3377 44.7115 63.8711C46.1158 64.3924 47.3875 65.1699 48.5236 66.1432C49.6536 67.1106 50.6269 68.2406 51.4224 69.5002ZM117.73 47.261C116.887 44.0426 115.573 40.9719 113.611 38.2689C111.896 35.9123 109.811 33.9235 107.277 32.465C104.736 31.0034 101.973 30.1717 99.059 29.8734C95.7412 29.5299 92.3933 29.9216 89.178 30.7624C87.174 31.2867 85.2574 32.0672 83.4976 33.1611C81.795 34.2218 80.246 35.4874 78.893 36.967C77.54 38.4467 76.401 40.0799 75.4758 41.8579C74.5356 43.6659 73.8455 45.5795 73.3694 47.5563C72.8873 49.5633 72.6582 51.6245 72.6793 53.6887C72.6974 55.7981 72.9897 57.8924 73.5261 59.9325C74.0565 61.9636 74.8309 63.9103 75.8826 65.7274C76.8951 67.4782 78.1005 69.1055 79.5138 70.558C80.888 71.9713 82.4309 73.1947 84.1244 74.2072C85.821 75.2198 87.6169 75.9882 89.5184 76.5186C91.4681 77.061 93.46 77.3412 95.482 77.3804C97.5794 77.4226 99.6587 77.1544 101.687 76.621C103.769 76.0786 105.767 75.277 107.611 74.162C109.35 73.1103 110.941 71.8477 112.336 70.3681C113.71 68.9096 114.877 67.2944 115.817 65.5255C116.766 63.7385 117.474 61.8461 117.941 59.8783C118.423 57.8593 118.637 55.783 118.613 53.7098C118.586 51.531 118.282 49.3674 117.73 47.261ZM106.448 51.3201C106.84 52.8148 106.987 54.3516 106.87 55.8945C106.755 57.4163 106.391 58.8989 105.752 60.2851C105.086 61.7286 104.137 62.9882 102.931 64.0248C101.639 65.1398 100.129 65.8781 98.4804 66.309C96.7627 66.761 95.009 66.7972 93.2943 66.309C91.7695 65.8751 90.3924 65.1368 89.178 64.1152C88.0118 63.1328 87.0353 61.9696 86.2579 60.6618C85.5075 59.3931 84.935 58.0341 84.5613 56.6087C84.1756 55.1291 84.028 53.5892 84.1606 52.0644C84.2931 50.5396 84.6999 49.063 85.4051 47.704C86.1102 46.3449 87.0625 45.1697 88.2408 44.1963C89.5245 43.1326 91.0343 42.4455 92.6344 42.0266C94.2888 41.5957 96.0095 41.5234 97.6729 41.9453C99.1585 42.3189 100.536 42.9849 101.744 43.9281C102.925 44.8472 103.905 45.9743 104.694 47.2429C105.484 48.5086 106.068 49.8767 106.448 51.3201ZM130.037 20.0797C129.968 22.6351 129.956 25.1935 130.004 27.7489C130.064 31.121 130.064 34.493 130.058 37.8651C130.046 44.1481 130.082 50.4311 130.116 56.7142C130.143 61.9154 130.179 67.1136 130.227 72.3118L143.064 72.1852L142.881 53.0317L146.015 52.9624C148.133 52.9142 150.242 52.7214 152.337 52.411C154.395 52.1036 156.429 51.6425 158.409 50.9916C160.268 50.3859 162.061 49.5964 163.749 48.602C165.28 47.6979 166.66 46.6011 167.835 45.2661C168.989 43.9613 169.857 42.4636 170.469 40.8363C171.174 38.9469 171.412 36.8887 171.391 34.8818C171.373 33.0074 171.123 31.1059 170.469 29.34C169.893 27.776 169.095 26.3115 168.052 25.0067C167.024 23.729 165.819 22.6411 164.448 21.7401C162.947 20.7577 161.341 19.9531 159.656 19.3324C157.891 18.6754 156.055 18.2204 154.19 17.9341C152.261 17.6388 150.309 17.4942 148.356 17.5123C144.873 17.5454 141.398 17.8226 137.96 18.365C135.287 18.7869 132.644 19.3595 130.037 20.0797ZM152.644 45.8748C151.385 46.3479 150.065 46.5769 148.724 46.592C148.353 46.595 147.982 46.598 147.612 46.6011C147.124 46.6071 146.635 46.5739 146.15 46.5257L143.203 46.2274L143.742 28.8639L146.024 28.2552C146.693 28.0774 147.374 27.9388 148.055 27.8243C148.814 27.6947 149.582 27.6284 150.351 27.6224C152.738 27.5982 154.965 28.2944 156.745 29.9035C158.617 31.5971 159.439 33.8964 159.464 36.3915C159.479 37.8801 159.177 39.3296 158.514 40.6676C157.915 41.873 157.104 42.9307 156.098 43.8257C155.082 44.7267 153.919 45.4107 152.644 45.8748ZM213.841 34.6256L216.406 24.3317C215.999 24.1117 215.583 23.9038 215.161 23.7079C213.974 23.1625 212.747 22.6954 211.506 22.2735C210.267 21.8516 209.002 21.496 207.721 21.2158C206.431 20.9325 205.132 20.6854 203.825 20.4865C201.206 20.0857 198.581 20.1159 195.972 20.5829C193.494 21.0259 191.141 21.8486 188.977 23.1383C186.907 24.3739 185.18 25.98 183.779 27.9448C182.299 30.0211 181.471 32.3926 181.088 34.9028C180.808 36.741 180.805 38.5943 181.203 40.4144C181.555 42.0387 182.173 43.5725 183.122 44.9437C184.041 46.2756 185.217 47.3544 186.594 48.2042C188.112 49.1444 189.827 49.6778 191.584 49.946C192.021 50.0123 192.455 50.0786 192.892 50.1449C193.57 50.2473 194.242 50.389 194.908 50.5517C195.625 50.7265 196.33 50.9464 197.029 51.1785L197.065 51.1905L197.102 51.2026C197.888 51.4859 198.647 51.8414 199.362 52.2784L199.404 52.3055L199.446 52.3326C200.248 52.86 200.941 53.529 201.468 54.3335C202.185 55.4124 202.45 56.678 202.255 57.9587C202.013 59.5468 201.221 60.9451 199.847 61.8129C198.913 62.4006 197.885 62.7561 196.797 62.9249C195.824 63.0726 194.841 63.0816 193.862 62.9882C193.175 62.9219 192.482 62.8526 191.795 62.7501C188.733 62.283 185.756 61.4001 182.908 60.1827C181.519 59.592 180.169 58.914 178.873 58.1486L176.273 68.0206C176.839 68.3732 177.412 68.7198 177.987 69.0633C179.373 69.886 180.79 70.6574 182.227 71.3806C183.64 72.0888 185.087 72.7427 186.564 73.3092C187.73 73.7552 188.965 74.1409 190.204 74.3308C193.169 74.7828 196.173 74.8521 199.145 74.4122C201.739 74.0264 204.213 73.2188 206.476 71.8778C208.658 70.579 210.403 68.8192 211.807 66.7068C213.428 64.2689 214.293 61.3941 214.73 58.5222C214.986 56.8528 215.026 55.1412 214.712 53.4777C214.45 52.0735 213.938 50.7777 213.136 49.5934C212.328 48.4061 211.31 47.4418 210.108 46.6613C208.715 45.7573 207.139 45.1787 205.521 44.8352L205.419 44.8141L205.316 44.7839C204.921 44.6724 204.5 44.6062 204.096 44.5519C203.321 44.4495 202.547 44.3289 201.778 44.1993C200.896 44.0487 200.022 43.8648 199.157 43.6418C198.22 43.3978 197.303 43.0813 196.433 42.6564C195.474 42.1894 194.6 41.5776 193.907 40.761C192.967 39.6551 192.56 38.2749 192.708 36.8314C192.835 35.5718 193.371 34.4358 194.29 33.5619L194.317 33.5377L194.344 33.5137C195.073 32.8507 195.929 32.3776 196.872 32.0913C197.677 31.8472 198.509 31.7176 199.35 31.6604H199.383L199.416 31.6574C200.139 31.6242 200.859 31.6061 201.58 31.6333H201.616L201.652 31.6363C202.312 31.6754 202.972 31.7267 203.629 31.811C204.108 31.8713 204.593 31.9286 205.072 32.0009C207.281 32.3384 209.442 32.926 211.53 33.7095C212.307 33.9988 213.079 34.3032 213.841 34.6256ZM253.29 36.0871L241.176 30.2049L226.236 64.067L234.55 68.102L253.29 36.0871ZM227.998 82.5696C228.321 81.9036 228.493 81.2075 228.526 80.4722C228.559 79.7249 228.453 79.0167 228.212 78.3116C227.977 77.6215 227.61 77.0067 227.143 76.4493C226.685 75.8978 226.136 75.488 225.491 75.1746C224.843 74.8612 224.168 74.6713 223.448 74.6502C222.716 74.6321 221.996 74.7135 221.303 74.9576C220.613 75.2017 220.007 75.5663 219.452 76.0515C218.895 76.5366 218.464 77.1182 218.141 77.7842C217.825 78.4351 217.62 79.1252 217.59 79.8484C217.563 80.5777 217.659 81.2888 217.897 81.9789C218.126 82.657 218.488 83.2596 218.952 83.799C219.431 84.3565 220.016 84.7754 220.676 85.0948C221.33 85.4143 222.011 85.6011 222.74 85.6342C223.448 85.6674 224.135 85.5679 224.804 85.3329C225.503 85.0858 226.139 84.7302 226.706 84.2541C227.26 83.787 227.682 83.2205 227.998 82.5696Z" fill="white"/>
<path fill-rule="evenodd" clip-rule="evenodd" d="M60.9602 62.232C59.1883 59.4144 57.0095 56.8801 54.3246 54.8973C51.9771 53.1645 49.3886 51.8959 46.5348 51.2691C43.6721 50.6423 40.7821 50.6814 37.9133 51.2721C34.6407 51.9471 31.579 53.3212 28.7584 55.0992C27.0046 56.2021 25.4136 57.525 24.0635 59.101C22.7587 60.6228 21.6648 62.2983 20.821 64.1154C19.9742 65.9355 19.3806 67.837 19.0341 69.8108C18.6815 71.8178 18.6001 73.8518 18.7448 75.8829C18.8864 77.9441 19.2902 79.9722 19.9321 81.9369C20.586 83.9439 21.4961 85.8514 22.6201 87.6384C23.268 88.669 23.9882 89.6483 24.7777 90.5644C23.9159 89.0577 23.2047 87.4726 22.6652 85.8213C22.0234 83.8535 21.6226 81.8284 21.478 79.7642C21.3364 77.7332 21.4147 75.6991 21.7673 73.6951C22.1139 71.7183 22.7105 69.8168 23.5543 67.9997C24.398 66.1796 25.4919 64.5071 26.7967 62.9823C28.1467 61.4063 29.7409 60.0834 31.4917 58.9805C34.3123 57.2056 37.3739 55.8314 40.6465 55.1534C43.5153 54.5628 46.4052 54.5236 49.268 55.1504C52.1247 55.7772 54.7103 57.0459 57.0578 58.7786C58.661 59.9659 60.0863 61.346 61.3489 62.8678C61.2223 62.6539 61.0928 62.4429 60.9602 62.232ZM52.1971 70.9107C52.631 71.8117 52.9685 72.758 53.1976 73.7403C53.5471 75.223 53.6465 76.7478 53.4537 78.2605C53.2548 79.8366 52.7304 81.3222 51.8927 82.6722C50.9977 84.1247 49.7803 85.2849 48.3399 86.1919C46.8362 87.1381 45.1787 87.7017 43.3978 87.7529C41.8127 87.8011 40.2789 87.5088 38.8113 86.9001C37.407 86.3155 36.1233 85.5049 34.9902 84.4893C34.6949 84.2241 34.4087 83.9499 34.1344 83.6636C34.3604 84.1277 34.6106 84.5827 34.8878 85.0197C35.6713 86.2672 36.6236 87.3883 37.7235 88.3706C38.8595 89.3862 40.1403 90.1998 41.5476 90.7844C43.0121 91.3901 44.5459 91.6824 46.131 91.6372C47.912 91.583 49.5693 91.0194 51.073 90.0732C52.5135 89.1662 53.731 88.009 54.629 86.5565C55.4637 85.2035 55.988 83.7209 56.1869 82.1449C56.3798 80.6291 56.2803 79.1043 55.9337 77.6217C55.5781 76.115 54.9754 74.6956 54.1497 73.3878C53.5862 72.4928 52.9324 71.6641 52.1971 70.9107ZM115.076 40.5472C114.633 39.7607 114.147 39.0013 113.614 38.266C111.899 35.9095 109.814 33.9176 107.28 32.4621C104.74 31.0006 101.973 30.1659 99.0592 29.8676C95.7384 29.524 92.3965 29.9158 89.1781 30.7565C87.1742 31.2809 85.2546 32.0613 83.4947 33.1582C81.7921 34.219 80.2433 35.4846 78.8902 36.9642C77.5372 38.4438 76.3951 40.0771 75.4699 41.8551C74.5297 43.6631 73.8427 45.5767 73.3665 47.5565C72.8814 49.5665 72.6523 51.6216 72.6734 53.6889C72.6915 55.8013 72.9838 57.8926 73.5202 59.9357C74.0506 61.9668 74.828 63.9135 75.8797 65.7306C76.6572 67.0776 77.5492 68.3523 78.5617 69.5275C77.5372 67.7345 76.7778 65.815 76.2534 63.8171C75.7201 61.7739 75.4277 59.6826 75.4067 57.5702C75.3886 55.503 75.6146 53.4478 76.0998 51.4378C76.5759 49.458 77.2659 47.5444 78.2061 45.7394C79.1312 43.9584 80.2703 42.3252 81.6234 40.8456C82.9764 39.3659 84.5254 38.1003 86.228 37.0396C87.9908 35.9457 89.9073 35.1622 91.9113 34.6379C95.1296 33.7971 98.4746 33.4084 101.792 33.7489C104.706 34.0502 107.473 34.8819 110.016 36.3435C111.954 37.4584 113.626 38.8838 115.076 40.5472ZM106.442 51.3203C106.834 52.815 106.982 54.3518 106.864 55.8947C106.75 57.4165 106.385 58.8961 105.746 60.2823C105.08 61.7257 104.134 62.9823 102.928 64.022C101.636 65.1339 100.126 65.8752 98.4806 66.3062C96.7689 66.7522 95.0031 66.7913 93.2975 66.3062C91.7697 65.8722 90.3955 65.1309 89.1811 64.1094C88.8978 63.8713 88.6236 63.6212 88.3644 63.362C88.5573 63.7628 88.7683 64.1546 88.9973 64.5403C89.7748 65.8511 90.7511 67.0113 91.9143 67.9937C93.1287 69.0123 94.5059 69.7536 96.0307 70.1875C97.7363 70.6727 99.5022 70.6335 101.214 70.1875C102.859 69.7566 104.372 69.0183 105.662 67.9033C106.867 66.8667 107.816 65.6101 108.479 64.1666C109.118 62.7804 109.486 61.2978 109.6 59.776C109.715 58.2361 109.567 56.6993 109.175 55.2016C108.799 53.7612 108.211 52.3931 107.425 51.1274C106.873 50.2385 106.225 49.4218 105.484 48.6956C105.885 49.5363 106.204 50.4132 106.442 51.3203ZM130.031 20.0769C129.965 22.6323 129.95 25.1907 129.998 27.7491C130.059 31.1212 130.059 34.4932 130.053 37.8653C130.04 44.1483 130.077 50.4313 130.11 56.7144C130.137 61.9156 130.173 67.1168 130.221 72.318L132.921 72.2909C132.891 68.3945 132.864 64.4951 132.843 60.5987C132.813 54.3157 132.777 48.0326 132.789 41.7496C132.795 38.3745 132.792 35.0025 132.731 31.6304C132.686 29.072 132.698 26.5166 132.768 23.9582C135.374 23.238 138.02 22.6654 140.693 22.2435C144.131 21.7011 147.609 21.4239 151.089 21.3877C153.042 21.3696 154.998 21.5173 156.926 21.8126C158.792 22.0959 160.624 22.5539 162.393 23.2079C164.077 23.8316 165.683 24.6332 167.184 25.6186C168.139 26.2454 169.016 26.9626 169.806 27.7732C169.324 26.7939 168.742 25.8627 168.055 25.0039C167.031 23.7232 165.822 22.6353 164.451 21.7373C162.947 20.7519 161.341 19.9503 159.66 19.3265C157.891 18.6696 156.056 18.2145 154.193 17.9283C152.262 17.633 150.309 17.4883 148.356 17.5064C144.876 17.5395 141.395 17.8168 137.957 18.3622C135.284 18.7841 132.638 19.3567 130.031 20.0769ZM152.641 45.869C151.385 46.3421 150.065 46.5711 148.724 46.5862C148.353 46.5892 147.983 46.5922 147.612 46.5952C147.124 46.6012 146.635 46.5711 146.15 46.5199L146.054 46.5108L145.942 50.1059L148.884 50.4042C149.369 50.4524 149.857 50.4826 150.345 50.4795C150.716 50.4735 151.086 50.4705 151.457 50.4675C152.798 50.4554 154.118 50.2264 155.374 49.7503C156.652 49.2892 157.815 48.6052 158.828 47.7042C159.834 46.8092 160.645 45.7514 161.245 44.5461C161.908 43.2081 162.209 41.7646 162.194 40.273C162.17 37.7809 161.347 35.4816 159.479 33.7911C159.316 33.6464 159.153 33.5108 158.988 33.3782C159.298 34.3275 159.449 35.343 159.458 36.3917C159.473 37.8803 159.171 39.3268 158.508 40.6648C157.912 41.8701 157.101 42.9278 156.095 43.8198C155.079 44.7208 153.916 45.4079 152.641 45.869ZM215.818 26.7185L216.412 24.3288C216.005 24.1058 215.586 23.8979 215.164 23.7051C213.974 23.1566 212.748 22.6925 211.509 22.2707C210.267 21.8458 209.005 21.4902 207.721 21.2099C206.431 20.9297 205.133 20.6796 203.828 20.4807C201.206 20.0829 198.581 20.11 195.972 20.5771C193.495 21.0201 191.138 21.8458 188.974 23.1325C186.904 24.368 185.178 25.9742 183.776 27.942C182.294 30.0182 181.465 32.3928 181.082 34.903C180.802 36.7442 180.799 38.5915 181.197 40.4146C181.552 42.0419 182.17 43.5757 183.116 44.9469C183.589 45.6309 184.129 46.2487 184.728 46.8031C184.382 46.0016 184.12 45.1608 183.93 44.2959C183.532 42.4728 183.535 40.6256 183.815 38.7844C184.198 36.2742 185.027 33.9026 186.509 31.8233C187.911 29.8585 189.637 28.2524 191.708 27.0168C193.874 25.7271 196.228 24.9044 198.705 24.4584C201.314 23.9914 203.939 23.9642 206.561 24.362C207.869 24.5609 209.165 24.811 210.457 25.0913C211.738 25.3715 213.001 25.7301 214.242 26.152C214.77 26.3328 215.297 26.5196 215.818 26.7185ZM202.234 56.2563C202.333 56.8108 202.336 57.3834 202.249 57.9559C202.008 59.544 201.218 60.9422 199.844 61.8071C198.91 62.3947 197.882 62.7533 196.794 62.919C195.824 63.0667 194.845 63.0758 193.865 62.9823C193.175 62.916 192.482 62.8497 191.798 62.7443C188.736 62.2772 185.759 61.3942 182.911 60.1798C181.519 59.5862 180.166 58.9081 178.87 58.1397L176.267 68.0208C176.836 68.3764 177.409 68.726 177.984 69.0665C178.491 69.3678 179 69.6631 179.515 69.9494L181.604 62.0241C182.902 62.7895 184.252 63.4675 185.645 64.0612C188.492 65.2756 191.47 66.1585 194.531 66.6256C195.215 66.7311 195.908 66.8004 196.598 66.8637C197.578 66.9571 198.557 66.951 199.531 66.8004C200.615 66.6346 201.646 66.276 202.577 65.6884C203.951 64.8236 204.741 63.4283 204.985 61.8402C205.178 60.5595 204.913 59.2969 204.195 58.2181C203.683 57.4346 203.011 56.7776 202.234 56.2563ZM214.167 51.5403C213.899 50.8592 213.558 50.2083 213.139 49.5906C212.335 48.4003 211.313 47.439 210.111 46.6585C208.715 45.7545 207.143 45.1729 205.521 44.8293L205.419 44.8082L205.316 44.7781C204.925 44.6696 204.5 44.6003 204.096 44.5461C203.321 44.4436 202.55 44.3261 201.779 44.1935C200.899 44.0428 200.022 43.859 199.157 43.636C198.22 43.3919 197.307 43.0755 196.433 42.6506C196.104 42.4909 195.785 42.3131 195.48 42.1142C195.622 43.0363 196.014 43.8952 196.644 44.6395C197.337 45.4561 198.211 46.0648 199.169 46.5319C200.04 46.9568 200.956 47.2732 201.893 47.5173C202.758 47.7433 203.632 47.9241 204.512 48.0748C205.283 48.2074 206.055 48.3279 206.829 48.4274C207.233 48.4816 207.658 48.5509 208.053 48.6624L208.152 48.6895L208.257 48.7137C209.876 49.0572 211.452 49.6358 212.844 50.5398C213.314 50.8442 213.754 51.1757 214.167 51.5403ZM253.299 36.0843L241.173 30.199L226.23 64.0702L229.891 65.8481L243.91 34.0804L252.133 38.0732L253.299 36.0843ZM228.442 79.1616C228.39 78.8753 228.315 78.592 228.219 78.3087C227.983 77.6217 227.616 77.0039 227.149 76.4464C226.688 75.895 226.136 75.4821 225.491 75.1717C224.843 74.8553 224.171 74.6655 223.448 74.6474C222.716 74.6263 221.996 74.7107 221.303 74.9548C220.61 75.1958 220.001 75.5635 219.449 76.0456C218.889 76.5338 218.461 77.1154 218.136 77.7814C217.819 78.4323 217.614 79.1224 217.587 79.8486C217.557 80.5779 217.656 81.289 217.891 81.9821C218.123 82.6602 218.482 83.2598 218.949 83.8053C219.362 84.2814 219.85 84.6581 220.396 84.9594C220.329 84.5556 220.305 84.1458 220.32 83.7329C220.347 83.0037 220.555 82.3166 220.872 81.6657C221.194 80.9967 221.625 80.4151 222.183 79.927C222.737 79.4448 223.343 79.0802 224.036 78.8361C224.729 78.592 225.449 78.5076 226.185 78.5287C226.905 78.5468 227.58 78.7397 228.228 79.0531C228.3 79.0892 228.372 79.1254 228.442 79.1616Z" fill="#B9C6CE"/>
<path d="M238.603 161.51C241.336 166.527 242.794 171.949 242.611 177.701L242.297 187.504C241.673 206.911 222.888 219.654 206.781 226.543C198.539 230.069 189.872 232.676 181.112 234.586L181.022 237.367C180.871 242.141 178.831 246.631 175.347 249.9C171.861 253.167 167.25 254.915 162.474 254.761L96.4404 252.643C91.6641 252.489 87.1739 250.449 83.9074 246.965C80.6408 243.482 78.8931 238.871 79.0467 234.095L79.1341 231.386C70.4132 228.909 61.8339 225.727 53.7488 221.634C38.115 213.727 20.185 199.808 20.8088 180.398L21.1222 170.596C21.306 164.843 23.1081 159.527 26.1607 154.697L26.7544 136.131C27.0949 125.563 32.9048 116.989 40.7186 110.333C46.6611 100.843 57.597 94.075 67.677 89.7658C88.1323 81.0148 112.809 78.2153 134.922 78.9264C157.032 79.6346 181.48 84.0071 201.332 94.0509C211.114 99.002 221.592 106.454 226.917 116.305C234.287 123.447 239.537 132.376 239.196 142.947L238.603 161.51Z" fill="#541138"/>
<path d="M133.559 121.311C158.46 122.109 186.304 127.06 208.697 138.388C223.469 145.858 241.046 159.178 240.455 177.632L240.142 187.435C239.548 205.889 221.154 218.051 205.933 224.563C182.859 234.432 154.756 237.588 129.856 236.789C104.959 235.99 77.1116 231.039 54.7187 219.712C39.9467 212.238 22.3692 198.922 22.9629 180.468L23.2763 170.665C23.8669 152.211 42.2641 140.048 57.485 133.536C80.556 123.667 108.662 120.512 133.559 121.311Z" fill="#541138"/>
<path fill-rule="evenodd" clip-rule="evenodd" d="M133.43 125.418C162.278 126.346 188.221 132.635 206.841 142.055C225.473 151.479 236.779 164.039 236.345 177.5L236.032 187.302C235.601 200.763 223.511 212.573 204.315 220.785C185.129 228.99 158.837 233.604 129.989 232.679C101.141 231.754 75.1983 225.465 56.5752 216.045C37.9461 206.619 26.6396 194.062 27.0705 180.6L27.3839 170.798C27.8178 157.337 39.9048 145.527 59.1004 137.315C78.29 129.11 104.582 124.493 133.43 125.418Z" fill="#998954"/>
<path fill-rule="evenodd" clip-rule="evenodd" d="M133.43 125.418C158.113 126.211 180.672 130.933 198.334 138.18C181.995 132.56 162.305 128.962 141.039 128.281C112.191 127.356 85.899 131.969 66.7093 140.178C47.5137 148.387 35.4268 160.196 34.9959 173.658L34.6794 183.46C34.2485 196.921 45.555 209.481 64.1841 218.904C66.8721 220.264 69.7138 221.559 72.6911 222.78C66.8691 220.779 61.469 218.519 56.5752 216.045C37.9461 206.619 26.6396 194.059 27.0705 180.6L27.3839 170.798C27.8178 157.337 39.9048 145.527 59.1004 137.315C78.29 129.11 104.582 124.493 133.43 125.418Z" fill="#B4AA67"/>
<path fill-rule="evenodd" clip-rule="evenodd" d="M138.209 124.363C164.393 125.969 187.814 131.996 204.999 140.69C223.628 150.116 234.935 162.673 234.504 176.134L234.191 185.937C233.757 199.398 221.67 211.208 202.474 219.419C184.767 226.992 161.009 231.506 134.774 231.431L138.209 124.363Z" fill="#8B604E"/>
<path d="M133.517 122.712C192.714 124.61 239.967 149.179 239.054 177.587C238.144 205.995 189.122 223.488 129.711 219.115C70.458 218.955 23.7646 199.118 24.6777 170.71C25.5878 142.302 74.3183 120.813 133.517 122.712Z" fill="#541138"/>
<path d="M130.304 222.846C187.99 224.696 235.453 204.394 236.316 177.499C237.179 150.604 191.114 127.301 133.428 125.451C75.7423 123.6 28.2791 143.903 27.4164 170.798C26.5536 197.692 72.618 220.995 130.304 222.846Z" fill="#C9C27A"/>
<path fill-rule="evenodd" clip-rule="evenodd" d="M182.612 227.794C178.381 228.798 173.967 229.663 169.401 230.377L170.351 200.779C170.465 197.156 173.497 194.315 177.119 194.429C180.738 194.547 183.583 197.578 183.465 201.198L182.612 227.794ZM97.9224 229.301C93.4323 228.475 89.0779 227.517 84.8862 226.432L85.7963 198.067C85.9138 194.444 88.9454 191.603 92.5645 191.717C96.1867 191.835 99.0283 194.866 98.9108 198.485L97.9224 229.301Z" fill="#7A4A44"/>
<path d="M134.617 88.3885C158.399 89.1539 184.966 93.885 206.352 104.706C220.763 111.996 237.62 124.915 237.041 142.878L236.122 171.572C234.829 211.877 159.779 219.576 130.438 218.636C101.099 217.696 26.6965 205.202 27.9893 164.897L28.9085 136.2C29.487 118.237 47.1337 106.424 61.984 100.075C84.0214 90.6486 110.835 87.6261 134.617 88.3885Z" fill="#541138"/>
<path fill-rule="evenodd" clip-rule="evenodd" d="M134.476 92.7825C162.085 93.6685 186.916 99.6893 204.737 108.706C222.568 117.725 233.389 129.745 232.976 142.625L232.048 171.563C231.635 184.443 220.063 195.746 201.693 203.602C183.33 211.458 158.164 215.876 130.555 214.99C102.946 214.104 78.118 208.083 60.2935 199.067C42.4629 190.048 31.6416 178.027 32.0575 165.147L32.9857 136.212C33.3985 123.33 44.9671 112.026 63.3371 104.17C81.704 96.3143 106.866 91.8966 134.476 92.7825Z" fill="#6C7352"/>
<path fill-rule="evenodd" clip-rule="evenodd" d="M139.411 91.4053C164.275 92.9873 186.506 98.734 202.848 107C220.678 116.019 231.499 128.04 231.087 140.919L230.158 169.857C229.746 182.737 218.174 194.04 199.804 201.896C182.965 209.102 160.412 213.411 135.497 213.396L139.411 91.4053Z" fill="#4E564A"/>
<path fill-rule="evenodd" clip-rule="evenodd" d="M48.1075 168.212C50.4761 168.996 50.937 171.702 49.135 174.257C47.3299 176.813 43.9459 178.25 41.5773 177.463C39.2057 176.68 38.7446 173.974 40.5497 171.418C42.3517 168.863 45.7359 167.429 48.1075 168.212ZM227.667 184.473C223.707 190.397 217.213 195.731 208.769 200.227C210.282 192.452 214.019 180.7 222.67 182.393C224.472 182.746 226.136 183.475 227.667 184.473ZM158.098 214.086C151.541 214.746 144.722 215.095 137.715 215.101C137.917 211.226 139.002 202.472 144.704 202.773C150.486 203.075 156.028 210.843 158.098 214.086ZM136.51 215.098C134.539 215.089 132.553 215.053 130.555 214.99C121.539 214.701 112.821 213.863 104.546 212.555C105.902 210.204 112.707 199.23 120.539 200.95C127.346 202.445 133.918 211.247 136.51 215.098ZM78.7603 206.522C72.0162 204.367 65.8175 201.863 60.2938 199.067C51.4945 194.616 44.4039 189.433 39.5251 183.777C46.9352 177.551 57.6993 174.465 58.1694 189.677C79.3569 168.08 80.3996 187.715 78.7603 206.522ZM205.201 186.133C207.284 186.199 208.601 188.535 208.14 191.349C207.679 194.161 205.614 196.388 203.532 196.322C201.447 196.255 200.133 193.92 200.594 191.105C201.055 188.294 203.119 186.067 205.201 186.133ZM125.743 191.196C127.895 190.023 130.995 191.551 132.665 194.613C134.334 197.675 133.942 201.11 131.791 202.282C129.636 203.457 126.538 201.927 124.869 198.865C123.2 195.803 123.591 192.371 125.743 191.196Z" fill="#998954"/>
<path fill-rule="evenodd" clip-rule="evenodd" d="M134.476 92.7825C160.439 93.6172 183.941 98.9902 201.473 107.127C185.011 100.816 164.493 96.7362 142.148 96.022C114.539 95.136 89.3762 99.5507 71.0093 107.407C52.6393 115.266 41.0707 126.566 40.6579 139.449L39.7298 168.384C39.3139 181.266 50.1382 193.284 67.9658 202.303C69.0295 202.843 70.1173 203.37 71.2293 203.885C67.3479 202.397 63.6926 200.787 60.2935 199.067C42.4629 190.048 31.6416 178.027 32.0575 165.147L32.9857 136.212C33.3985 123.33 44.9671 112.026 63.3371 104.17C81.704 96.3143 106.866 91.8966 134.476 92.7825Z" fill="#838E5A"/>
<path fill-rule="evenodd" clip-rule="evenodd" d="M39.965 172.404C40.2152 174.073 40.6521 175.722 41.2638 177.346C39.4497 176.556 38.9525 174.519 39.965 172.404ZM43.081 181.215C47.5409 189.137 56.2377 196.37 67.9661 202.303C69.0298 202.843 70.1176 203.37 71.2296 203.885C67.3482 202.397 63.6929 200.787 60.2938 199.067C51.4945 194.616 44.4039 189.433 39.5251 183.777C40.6491 182.833 41.8515 181.962 43.081 181.215Z" fill="#B4AA67"/>
<path fill-rule="evenodd" clip-rule="evenodd" d="M225.44 183.264C221.881 188.375 216.429 193.034 209.465 197.084C211.319 189.665 215.125 180.916 222.67 182.393C223.632 182.583 224.554 182.878 225.44 183.264ZM156.905 212.311C150.766 212.949 144.393 213.317 137.845 213.383C138.276 209.113 139.74 202.511 144.703 202.773C149.594 203.029 154.313 208.628 156.905 212.311ZM205.201 186.133C207.284 186.199 208.6 188.534 208.139 191.349C207.678 194.161 205.614 196.388 203.532 196.321C201.447 196.255 200.133 193.92 200.594 191.105C201.055 188.293 203.119 186.066 205.201 186.133Z" fill="#8B604E"/>
<path d="M134.587 89.2805C191.749 91.1157 237.366 115.048 236.478 142.739C235.589 170.427 189.166 184.219 132.004 182.384C74.8452 180.552 28.5948 163.788 29.4838 136.097C30.3697 108.407 77.4278 87.4483 134.587 89.2805Z" fill="#541138"/>
<path d="M131.486 186.027C186.697 187.798 232.124 168.366 232.949 142.625C233.775 116.884 189.687 94.5815 134.476 92.8104C79.2648 91.0393 33.8379 110.471 33.0122 136.212C32.1864 161.953 76.2745 184.256 131.486 186.027Z" fill="#9EA366"/>
<path fill-rule="evenodd" clip-rule="evenodd" d="M63.976 171.439C44.5333 162.293 32.579 149.727 33.0129 136.212C33.2389 129.121 36.855 122.51 43.1229 116.691L63.976 171.439Z" fill="#B6BF78"/>
<path fill-rule="evenodd" clip-rule="evenodd" d="M230.541 131.635C230.553 132.105 230.553 132.575 230.538 133.051L230.318 139.862C229.143 176.532 160.451 182.861 133.782 182.005C107.11 181.149 39.2656 170.442 40.4439 133.771L40.6608 126.961C40.7844 123.185 41.7396 119.708 43.3006 116.522C59.8625 101.305 94.6166 91.532 134.475 92.8097C181.633 94.3224 220.672 110.818 230.541 131.635Z" fill="#6C7352"/>
<path d="M134.852 81.0812C156.567 81.7773 180.832 86.0956 200.359 95.9767C213.446 102.594 228.821 114.344 228.296 130.662L228.079 137.472C226.901 174.143 158.213 180.471 131.541 179.615C104.872 178.759 37.0268 168.052 38.2021 131.382L38.4221 124.571C38.9434 108.25 55.0413 97.5136 68.5234 91.7458C88.6442 83.1394 113.134 80.3821 134.852 81.0812Z" fill="#541138"/>
<path fill-rule="evenodd" clip-rule="evenodd" d="M134.717 85.3153C159.759 86.1169 182.281 91.5773 198.448 99.7558C214.621 107.937 224.436 118.84 224.063 130.526L223.843 137.336C223.469 149.023 212.973 159.274 196.309 166.404C179.65 173.528 156.827 177.533 131.782 176.731C106.74 175.927 84.2175 170.466 68.0504 162.288C51.8772 154.106 42.0624 143.204 42.4361 131.517L42.6561 124.707C43.0297 113.021 53.5255 102.769 70.1899 95.6424C86.8482 88.5156 109.672 84.5108 134.717 85.3153Z" fill="#6C7352"/>
<path d="M134.804 82.5184C186.443 84.1758 227.658 105.71 226.859 130.616C226.061 155.522 184.439 169.688 131.538 165.448C80.1433 165.445 39.061 149.525 39.8596 124.616C40.6582 99.7102 83.1658 80.861 134.804 82.5184Z" fill="#541138"/>
<path d="M132.002 169.894C182.081 171.5 223.285 153.875 224.034 130.527C224.783 107.178 184.793 86.9484 134.714 85.3419C84.6348 83.7354 43.4304 101.361 42.6814 124.709C41.9324 148.057 81.9225 168.287 132.002 169.894Z" fill="#9EA366"/>
<path fill-rule="evenodd" clip-rule="evenodd" d="M134.271 165.476L143.145 148.64L150.242 164.49C145.047 165.117 139.677 165.452 134.271 165.476ZM160.798 162.752L167.819 149.432L172.355 159.557C168.744 160.82 164.869 161.89 160.798 162.752ZM88.4602 157.171L93.7909 147.058L100.143 161.242C96.036 160.115 92.1185 158.762 88.4602 157.171ZM110.223 163.493L118.468 147.85L126.276 165.286C120.846 165.006 115.449 164.412 110.223 163.493ZM147.726 143.794L155.121 160.311L163.561 144.303L147.726 143.794ZM123.049 143.005L130.444 159.521L139.267 143.571L123.049 143.005ZM172.403 144.587L178.089 157.285C183.809 154.896 187.747 148.866 188.202 145.156L172.403 144.587ZM98.3714 142.212L105.769 158.729L114.207 142.718L98.3714 142.212ZM73.6973 141.419C73.9835 145.861 77.443 151.53 82.9214 154.465C84.9374 150.641 85.5372 149.505 89.53 141.929L73.6973 141.419Z" fill="white"/>
<path fill-rule="evenodd" clip-rule="evenodd" d="M135.006 85.4988C196.758 87.4787 253.426 129.097 133.105 125.077C13.8475 121.094 74.1585 83.5461 135.006 85.4988Z" fill="#B6BF78"/>
<path fill-rule="evenodd" clip-rule="evenodd" d="M55.0805 111.068L63.4096 105.909L71.6394 111.77L68.7917 116.14L84.7479 106.593L92.7305 112.277L81.8308 119.027L92.2755 126.461L83.9463 131.62L71.8504 122.152L69.2045 126.997L62.605 130.936L54.6255 125.252L65.5221 118.502L55.0805 111.068Z" fill="white"/>
<path fill-rule="evenodd" clip-rule="evenodd" d="M174.142 114.886L182.468 109.727L190.812 115.667L187.784 120.811L203.809 110.414L211.789 116.094L200.892 122.845L211.334 130.279L203.005 135.438L192.563 128.004L181.667 134.754L173.687 129.073L184.584 122.323L174.142 114.886Z" fill="white"/>
<path fill-rule="evenodd" clip-rule="evenodd" d="M134.714 85.3424C181.693 86.8491 219.792 104.746 223.713 126.229C217.496 105.957 180.729 89.4376 135.79 87.9972C85.9773 86.3971 44.9945 103.929 44.2502 127.154C44.1176 131.27 45.2626 135.287 47.5077 139.123C44.2351 134.564 42.5234 129.706 42.6831 124.707C43.4304 101.359 84.6363 83.7362 134.714 85.3424Z" fill="white"/>
<path d="M167.258 206.362C167.249 206.353 167.24 206.347 167.234 206.341L165.137 204.533C165.119 204.518 165.101 204.503 165.086 204.488C164.366 203.843 163.986 202.957 164.019 201.993L164.369 191.057C164.42 189.487 165.583 188.191 167.141 187.974C174.301 186.983 181.425 185.588 188.401 183.692C189.398 183.421 190.426 183.632 191.24 184.274C191.276 184.304 191.312 184.334 191.348 184.364L193.469 186.19C193.472 186.193 193.476 186.196 193.476 186.199C194.205 186.838 194.593 187.742 194.56 188.713L194.214 199.552C194.169 200.968 193.225 202.168 191.86 202.547C184.622 204.56 177.221 206.04 169.787 207.092C168.862 207.221 167.967 206.965 167.258 206.362Z" fill="#541138"/>
<path fill-rule="evenodd" clip-rule="evenodd" d="M192.189 188.972L191.858 199.299C191.837 199.926 191.427 200.447 190.824 200.616C184.357 202.412 177.378 203.858 170.004 204.901C169.589 204.958 169.209 204.85 168.892 204.578C168.892 204.575 168.889 204.575 168.886 204.575C168.886 204.572 168.886 204.572 168.883 204.569L166.885 202.849C166.876 202.84 166.87 202.834 166.861 202.827C166.539 202.538 166.379 202.162 166.391 201.731L166.726 191.313C166.75 190.62 167.256 190.056 167.943 189.96C175.176 188.957 182.034 187.567 188.404 185.838C188.85 185.717 189.287 185.808 189.649 186.094C189.667 186.106 189.685 186.121 189.7 186.136L191.704 187.863C191.707 187.863 191.707 187.866 191.71 187.869C191.713 187.869 191.713 187.872 191.716 187.872C192.036 188.155 192.201 188.538 192.189 188.972Z" fill="#9EA366"/>
<path fill-rule="evenodd" clip-rule="evenodd" d="M192.189 188.972L191.858 199.299C191.837 199.925 191.427 200.447 190.824 200.615C184.357 202.412 177.378 203.858 170.004 204.901C169.576 204.961 169.185 204.84 168.865 204.554C168.543 204.265 168.383 203.888 168.395 203.457L168.73 193.04C168.751 192.347 169.26 191.783 169.947 191.687C177.179 190.683 184.035 189.294 190.405 187.564C190.851 187.444 191.288 187.531 191.653 187.82C192.015 188.107 192.204 188.51 192.189 188.972Z" fill="#4E564A"/>
<path d="M188.601 190.318C190.852 190.828 191.849 193.371 191.783 195.49C191.716 197.581 190.571 200.043 188.353 200.597C188.082 200.664 187.805 200.697 187.528 200.697C187.359 200.697 187.19 200.682 187.025 200.655L186.967 200.646L186.916 200.633C186.12 200.41 185.301 200.19 184.529 199.904C182.547 199.172 181.721 196.936 181.784 194.944C181.85 192.856 182.996 190.394 185.213 189.839C185.485 189.77 185.762 189.737 186.039 189.737C186.208 189.74 186.377 189.752 186.542 189.779L186.566 189.782L186.588 189.788C187.26 189.924 187.938 190.129 188.601 190.318Z" fill="#541138"/>
<path fill-rule="evenodd" clip-rule="evenodd" d="M187.488 199.289C187.38 199.289 187.274 199.28 187.169 199.265C186.536 199.088 185.665 198.846 185.071 198.626C183.884 198.186 183.092 196.758 183.149 194.974C183.218 192.853 184.529 191.138 186.078 191.144C186.186 191.144 186.292 191.153 186.397 191.171C186.858 191.265 187.521 191.454 188.187 191.644C189.525 191.934 190.481 193.537 190.417 195.459C190.351 197.584 189.037 199.298 187.488 199.289Z" fill="#9EA366"/>
<path d="M187.735 191.605C186.053 191.597 184.635 193.311 184.567 195.433C184.499 197.555 185.807 199.282 187.489 199.29C189.17 199.298 190.589 197.584 190.657 195.462C190.725 193.339 189.417 191.613 187.735 191.605Z" fill="#4E564A"/>
<path d="M167.31 196.222L179.816 196.622C181.263 196.668 182.399 197.882 182.353 199.326L182.236 203.002C182.188 204.445 180.976 205.581 179.533 205.536L167.024 205.135C165.577 205.09 164.441 203.876 164.487 202.432L164.604 198.756C164.652 197.313 165.864 196.173 167.31 196.222Z" fill="#541138"/>
<path fill-rule="evenodd" clip-rule="evenodd" d="M167.253 198.009C166.792 197.994 166.406 198.356 166.391 198.814L166.273 202.49C166.258 202.948 166.623 203.334 167.081 203.349L179.59 203.75C180.048 203.765 180.434 203.403 180.449 202.945L180.566 199.269C180.581 198.811 180.22 198.425 179.759 198.41L167.253 198.009Z" fill="#72744A"/>
<path d="M173.346 195.107L157.173 194.589C155.305 194.528 153.738 195.999 153.677 197.867L153.527 202.62C153.466 204.488 154.937 206.055 156.805 206.115L172.975 206.633C174.844 206.694 176.414 205.223 176.474 203.355L176.625 198.603C176.685 196.734 175.214 195.167 173.346 195.107Z" fill="#541138"/>
<path fill-rule="evenodd" clip-rule="evenodd" d="M173.28 197.226L158.424 196.749L157.107 196.707C156.408 196.683 155.817 197.235 155.796 197.937L155.642 202.686C155.621 203.385 156.173 203.976 156.872 203.997L158.258 204.042L173.045 204.518C173.744 204.539 174.332 203.988 174.356 203.289L174.509 198.536C174.53 197.837 173.979 197.247 173.28 197.226Z" fill="#4E564A"/>
<path d="M157.245 189.868L166.222 190.156L165.55 211.122L156.572 210.834L157.245 189.868Z" fill="#541138"/>
<path d="M160 192.076L163.332 192.182C163.722 192.195 164.027 192.521 164.015 192.911L163.524 208.231C163.511 208.621 163.185 208.926 162.795 208.914L159.464 208.807C159.074 208.795 158.768 208.468 158.781 208.079L159.272 192.759C159.285 192.369 159.611 192.063 160 192.076Z" fill="#6C7352"/>
<path fill-rule="evenodd" clip-rule="evenodd" d="M163.333 192.181L160.003 192.076C159.614 192.063 159.286 192.371 159.273 192.757L159.06 199.452L163.8 199.606L164.017 192.91C164.029 192.522 163.721 192.193 163.333 192.181Z" fill="#9EA366"/>
<path d="M94.5835 204.12C94.5926 204.114 94.5987 204.108 94.6077 204.102L96.8346 202.42C96.8527 202.405 96.8708 202.39 96.8889 202.378C97.6513 201.775 98.0912 200.908 98.1213 199.934L98.477 188.914C98.5282 187.329 97.4373 185.952 95.8854 185.632C88.7495 184.171 81.6739 182.309 74.7761 179.952C73.7907 179.615 72.7421 179.759 71.8863 180.353C71.8471 180.38 71.8079 180.407 71.7688 180.437L69.5177 182.137C69.5147 182.14 69.5117 182.143 69.5117 182.146C68.7342 182.743 68.2882 183.625 68.2581 184.602L67.9055 195.529C67.8603 196.957 68.7312 198.223 70.0782 198.693C77.2321 201.185 84.5789 203.153 91.992 204.692C92.9111 204.882 93.8302 204.68 94.5835 204.12Z" fill="#541138"/>
<path fill-rule="evenodd" clip-rule="evenodd" d="M70.7261 185.075L70.3947 195.402C70.3766 196.029 70.7503 196.575 71.3439 196.782C77.6812 198.991 84.5518 200.881 91.8443 202.394C92.2542 202.478 92.6429 202.39 92.9744 202.143C92.9774 202.14 92.9774 202.14 92.9804 202.137C92.9804 202.137 92.9835 202.137 92.9835 202.134L95.0898 200.543C95.0988 200.537 95.1049 200.531 95.114 200.525C95.4545 200.257 95.6383 199.892 95.6534 199.461L95.9878 189.044C96.0089 188.351 95.5388 187.754 94.8578 187.616C87.7039 186.151 80.9508 184.325 74.7039 182.191C74.2669 182.041 73.827 182.101 73.4443 182.366C73.4262 182.378 73.4081 182.39 73.393 182.405L71.2806 183.999C71.2806 183.999 71.2776 184.002 71.2746 184.005C71.2716 184.005 71.2715 184.008 71.2715 184.008C70.931 184.271 70.7412 184.641 70.7261 185.075Z" fill="#9EA366"/>
<path fill-rule="evenodd" clip-rule="evenodd" d="M70.7261 185.075L70.3947 195.402C70.3766 196.029 70.7503 196.574 71.3439 196.782C77.6812 198.991 84.5518 200.881 91.8443 202.393C92.2662 202.481 92.667 202.387 93.0045 202.119C93.3451 201.854 93.5288 201.486 93.5439 201.055L93.8785 190.638C93.8996 189.945 93.4295 189.348 92.7484 189.21C85.5945 187.745 78.8413 185.919 72.5944 183.785C72.1575 183.635 71.7175 183.698 71.3348 183.96C70.9551 184.222 70.7412 184.614 70.7261 185.075Z" fill="#6C7352"/>
<path fill-rule="evenodd" clip-rule="evenodd" d="M75.2554 188.291C72.9742 188.652 71.814 191.126 71.7478 193.248C71.6995 194.655 72.1334 196.264 73.0887 197.376C74.3182 197.789 75.5657 198.187 76.8314 198.572C77.4612 198.44 78.094 198.298 78.6997 198.117C80.7278 197.515 81.6951 195.336 81.7584 193.344C81.8247 191.253 80.8393 188.725 78.6636 188.028C78.3984 187.944 78.1211 187.89 77.8439 187.875C77.6782 187.866 77.5064 187.869 77.3407 187.884L77.3196 187.887L77.2985 187.89C76.6174 187.983 75.9244 188.143 75.2554 188.291Z" fill="#4E564A"/>
<path d="M74.2217 186.649C71.9436 187.013 70.7834 189.487 70.7141 191.606C70.6478 193.697 71.6332 196.228 73.8089 196.921C74.0771 197.009 74.3513 197.06 74.6286 197.075C74.7973 197.087 74.9661 197.084 75.1348 197.066L75.1891 197.063L75.2433 197.051C76.0478 196.882 76.8826 196.714 77.6691 196.478C79.6942 195.873 80.6615 193.694 80.7277 191.705C80.794 189.614 79.8086 187.083 77.6329 186.386C77.3647 186.302 77.0906 186.251 76.8133 186.236C76.6446 186.224 76.4758 186.227 76.31 186.245H76.2859L76.2649 186.248C75.5868 186.344 74.8937 186.504 74.2217 186.649Z" fill="#541138"/>
<path fill-rule="evenodd" clip-rule="evenodd" d="M74.755 195.674C74.8635 195.68 74.9689 195.68 75.0744 195.668C75.7192 195.535 76.6022 195.348 77.2109 195.167C78.4254 194.803 79.3053 193.429 79.3625 191.645C79.4318 189.523 78.2325 187.727 76.6866 187.637C76.5781 187.631 76.4696 187.631 76.3672 187.643C75.9001 187.706 75.2251 187.854 74.547 188.001C73.194 188.203 72.1393 189.74 72.079 191.666C72.0097 193.787 73.2091 195.583 74.755 195.674Z" fill="#4E564A"/>
<path fill-rule="evenodd" clip-rule="evenodd" d="M79.2751 190.5C78.9708 188.911 77.9432 187.709 76.6865 187.637C76.5781 187.631 76.4696 187.631 76.3672 187.643C75.9001 187.706 75.225 187.854 74.547 188.001C73.194 188.203 72.1393 189.74 72.079 191.666C72.0639 192.136 72.1091 192.591 72.2086 193.013C73.3597 192.675 76.6655 191.467 79.2751 190.5Z" fill="#9EA366"/>
<path d="M75.0021 187.989C76.6809 188.089 77.9867 189.89 77.9186 192.012C77.8505 194.135 76.4344 195.774 74.7556 195.674C73.0768 195.574 71.771 193.773 71.8391 191.651C71.9072 189.528 73.3233 187.889 75.0021 187.989Z" fill="#6C7352"/>
<path d="M95.0899 193.905L82.5812 193.504C81.1377 193.456 79.9263 194.595 79.8781 196.038L79.7606 199.715C79.7154 201.158 80.8514 202.372 82.2978 202.418L94.8037 202.818C96.2502 202.867 97.4615 201.728 97.5067 200.284L97.6273 196.608C97.6725 195.164 96.5364 193.95 95.0899 193.905Z" fill="#541138"/>
<path fill-rule="evenodd" clip-rule="evenodd" d="M95.0325 195.692C95.4906 195.707 95.8552 196.093 95.8401 196.551L95.7196 200.227C95.7075 200.685 95.3188 201.047 94.8607 201.032L82.3549 200.631C81.8939 200.616 81.5323 200.23 81.5473 199.772L81.6649 196.096C81.6799 195.638 82.0657 195.276 82.5237 195.291L95.0325 195.692Z" fill="#72744A"/>
<path d="M89.1384 192.407L105.309 192.925C107.177 192.986 108.647 194.553 108.587 196.421L108.436 201.173C108.376 203.042 106.806 204.512 104.941 204.452L88.7677 203.934C86.8993 203.873 85.4288 202.303 85.4891 200.438L85.6397 195.686C85.7 193.817 87.27 192.347 89.1384 192.407Z" fill="#541138"/>
<path fill-rule="evenodd" clip-rule="evenodd" d="M89.0691 194.522L103.925 195.001L105.242 195.043C105.941 195.064 106.493 195.652 106.472 196.354L106.318 201.103C106.297 201.803 105.706 202.357 105.007 202.333L103.624 202.288L88.834 201.815C88.1349 201.794 87.5835 201.203 87.6046 200.504L87.7583 195.752C87.7824 195.052 88.37 194.501 89.0691 194.522Z" fill="#4E564A"/>
<path d="M105.205 198.691C105.39 192.901 103.531 188.143 101.052 188.064C98.5732 187.984 96.4129 192.613 96.2272 198.403C96.0415 204.192 97.9006 208.95 100.38 209.029C102.859 209.109 105.019 204.48 105.205 198.691Z" fill="#541138"/>
<path d="M102.65 190.234L99.3186 190.127C98.9288 190.115 98.6027 190.42 98.5902 190.81L98.0987 206.13C98.0862 206.52 98.392 206.846 98.7818 206.859L102.113 206.966C102.503 206.978 102.829 206.672 102.842 206.282L103.333 190.962C103.346 190.573 103.04 190.247 102.65 190.234Z" fill="#6C7352"/>
<path fill-rule="evenodd" clip-rule="evenodd" d="M99.3177 190.129L102.651 190.234C103.036 190.246 103.344 190.575 103.332 190.963L103.118 197.659L98.3745 197.506L98.5884 190.81C98.6005 190.424 98.929 190.117 99.3177 190.129Z" fill="#9EA366"/>
<path d="M166.928 200.218C167.045 196.599 170.077 193.757 173.696 193.871C177.318 193.989 180.16 197.02 180.045 200.64L178.867 237.298C178.734 241.502 176.938 245.45 173.871 248.327C170.806 251.202 166.75 252.742 162.543 252.606L96.5094 250.488C92.3057 250.352 88.355 248.559 85.4802 245.492C82.6023 242.424 81.0655 238.368 81.2011 234.164L82.3763 197.506C82.4908 193.886 85.5224 191.042 89.1445 191.159C92.7637 191.277 95.6084 194.305 95.4909 197.927L94.3156 234.586C94.2674 236.066 95.4487 237.325 96.9313 237.374L162.965 239.492C164.445 239.537 165.704 238.356 165.752 236.876L166.928 200.218Z" fill="#541138"/>
<path fill-rule="evenodd" clip-rule="evenodd" d="M169.751 200.311C169.818 198.247 171.544 196.629 173.606 196.695C175.67 196.761 177.288 198.485 177.222 200.549L176.047 237.208C175.932 240.788 174.368 243.988 171.939 246.266C169.51 248.544 166.217 249.897 162.634 249.783L96.5999 247.664C93.02 247.55 89.8167 245.986 87.5385 243.56C85.2634 241.131 83.9073 237.835 84.0219 234.255L85.2001 197.596C85.2664 195.535 86.9901 193.917 89.0543 193.983C91.1155 194.049 92.7337 195.773 92.6674 197.837L91.4921 234.493C91.4439 236.014 92.0195 237.413 92.9898 238.446C93.9602 239.483 95.3223 240.146 96.838 240.197L162.875 242.313C164.393 242.364 165.795 241.785 166.828 240.815C167.862 239.848 168.528 238.485 168.576 236.967L169.751 200.311Z" fill="#6C7352"/>
<path fill-rule="evenodd" clip-rule="evenodd" d="M176.218 231.78L176.046 237.208C175.932 240.788 174.392 243.244 171.963 245.519C169.534 247.797 166.241 249.15 162.658 249.035L96.6239 246.917C93.0439 246.802 89.8407 245.241 87.5625 242.813C85.2874 240.384 83.9072 237.834 84.0218 234.254L84.4526 220.884L91.9019 221.767L91.492 234.492C91.4438 236.014 92.0194 237.413 92.9897 238.446C93.96 239.483 95.3222 240.146 96.8379 240.197L162.875 242.312C164.393 242.364 165.795 241.785 166.828 240.815C167.862 239.847 168.528 238.485 168.576 236.967L168.772 230.894L176.218 231.78Z" fill="#9EA366"/>
<path fill-rule="evenodd" clip-rule="evenodd" d="M176.137 234.33L176.046 237.208C175.932 240.788 174.368 243.988 171.939 246.266C169.51 248.544 166.217 249.898 162.634 249.783L96.5999 247.665C93.02 247.55 89.8167 245.986 87.5385 243.56C85.2634 241.131 83.9073 237.835 84.0219 234.255L84.1152 231.38C84.0007 234.96 85.3538 238.257 87.632 240.682C89.9101 243.111 93.1104 244.675 96.6934 244.79L162.727 246.908C166.307 247.023 169.604 245.67 172.033 243.391C174.461 241.113 176.022 237.913 176.137 234.33Z" fill="#4E564A"/>
<path d="M96.7021 165.485C97.0517 165.566 140.5 174.721 177.821 165.693C152.505 175.025 121.298 173.386 96.7021 165.485Z" fill="#541138"/>
<path d="M90.2808 180.793C90.6785 180.875 139.994 190.22 182.278 181.351C153.608 190.575 118.209 188.803 90.2808 180.793Z" fill="#541138"/>
<path d="M118.129 89.7156C122.75 89.6139 126.469 88.2938 126.435 86.7671C126.402 85.2404 122.628 84.0852 118.007 84.1869C113.385 84.2886 109.666 85.6087 109.7 87.1355C109.734 88.6622 113.507 89.8174 118.129 89.7156Z" fill="white"/>
<path fill-rule="evenodd" clip-rule="evenodd" d="M94.9512 244.741L163.034 246.923C164.236 246.516 123.73 239.001 94.9512 244.741Z" fill="#B6BF78"/>
<path fill-rule="evenodd" clip-rule="evenodd" d="M74.8245 188.586C76.1353 188.625 77.2623 190.093 77.2322 191.072C77.202 192.054 76.0208 192.175 74.7129 192.133C73.4021 192.091 72.4588 191.901 72.489 190.921C72.5191 189.942 73.5166 188.544 74.8245 188.586Z" fill="#848E5B"/>
<path fill-rule="evenodd" clip-rule="evenodd" d="M121.614 131.662C122.341 133.735 120.041 135.314 117.652 136.266C114.451 137.541 110.203 138.162 106.216 138.321C102.229 138.484 97.6696 138.219 93.6768 137.233C90.6965 136.498 87.3727 135.148 86.6465 133.075C86.5169 132.707 86.3903 132.343 86.2607 131.978C85.5345 129.905 87.8368 128.326 90.2264 127.373C93.4267 126.099 97.6756 125.478 101.662 125.315C105.649 125.156 110.209 125.421 114.198 126.403C117.179 127.138 120.506 128.491 121.232 130.565C121.361 130.929 121.488 131.294 121.614 131.662ZM114.482 131.164C110.055 128.461 95.6928 129.227 93.2609 132.098C97.3321 134.506 112.553 134.018 114.482 131.164Z" fill="#72744A"/>
<path fill-rule="evenodd" clip-rule="evenodd" d="M135.992 104.149C142.802 104.366 150.36 105.704 156.483 108.735C161.078 111.011 166.023 114.958 165.846 120.497L165.734 124.029C165.556 129.567 160.367 133.19 155.636 135.166C149.329 137.8 141.702 138.65 134.892 138.43C128.081 138.213 120.526 136.875 114.4 133.843C109.805 131.568 104.86 127.621 105.037 122.082L105.149 118.55C105.327 113.011 110.516 109.389 115.247 107.412C121.554 104.779 129.181 103.929 135.992 104.149Z" fill="#72744A"/>
<path d="M134.515 100.608C141.506 100.831 149.266 102.205 155.558 105.318C160.277 107.656 165.354 111.71 165.174 117.396L165.056 121.024C164.872 126.714 159.548 130.432 154.687 132.46C148.211 135.163 140.379 136.037 133.385 135.814C126.391 135.588 118.631 134.217 112.342 131.101C107.62 128.766 102.542 124.713 102.726 119.026L102.841 115.398C103.024 109.709 108.352 105.99 113.213 103.962C119.689 101.256 127.521 100.385 134.515 100.608Z" fill="#541138"/>
<path fill-rule="evenodd" clip-rule="evenodd" d="M134.443 102.826C142.212 103.076 149.197 104.77 154.211 107.307C159.228 109.844 162.272 113.225 162.154 116.851L162.037 120.563C161.919 124.188 158.665 127.368 153.497 129.579C148.329 131.788 141.25 133.033 133.482 132.783C125.713 132.533 118.728 130.839 113.713 128.302C108.696 125.764 105.652 122.383 105.77 118.758L105.887 115.046C106.005 111.42 109.26 108.241 114.428 106.029C119.596 103.82 126.674 102.579 134.443 102.826Z" fill="#72744A"/>
<path d="M134.434 103.1C151.243 103.64 164.686 109.869 164.457 117.011C164.228 124.152 150.351 129.022 133.539 128.483C116.73 127.943 103.353 122.2 103.582 115.058C103.811 107.916 117.625 102.561 134.434 103.1Z" fill="#541138"/>
<path d="M133.6 129.062C149.134 129.56 161.914 124.093 162.147 116.851C162.379 109.609 149.975 103.334 134.442 102.836C118.908 102.338 106.128 107.804 105.895 115.047C105.663 122.289 118.067 128.563 133.6 129.062Z" fill="#AAB06A"/>
<path fill-rule="evenodd" clip-rule="evenodd" d="M135.976 107.575C147.931 107.961 157.483 112.604 157.312 117.953C157.14 123.302 147.31 127.325 135.356 126.942C123.398 126.557 113.849 121.913 114.017 116.564C114.189 111.218 124.022 107.192 135.976 107.575Z" fill="#CFD990"/>
<path d="M134.337 106.081C146.295 106.463 155.847 111.107 155.675 116.456C155.504 121.805 145.674 125.828 133.716 125.445C121.762 125.059 112.209 120.416 112.381 115.067C112.553 109.721 122.383 105.695 134.337 106.081Z" fill="#541138"/>
<path d="M133.762 124.014C144.516 124.359 153.353 120.944 153.499 116.386C153.645 111.828 145.046 107.854 134.292 107.509C123.537 107.164 114.701 110.579 114.555 115.137C114.408 119.694 123.008 123.669 133.762 124.014Z" fill="#807E53"/>
<path d="M133.793 123.086C141.91 123.346 148.579 120.792 148.688 117.382C148.797 113.971 142.306 110.995 134.189 110.735C126.072 110.474 119.403 113.028 119.294 116.439C119.184 119.85 125.676 122.826 133.793 123.086Z" fill="#5D5E50"/>
<path fill-rule="evenodd" clip-rule="evenodd" d="M134.292 107.509C145.047 107.853 153.648 111.827 153.5 116.387C153.485 116.866 153.373 117.333 153.171 117.785C151.722 113.846 143.827 110.631 134.202 110.321C124.58 110.013 116.495 112.716 114.792 116.553C114.623 116.088 114.539 115.615 114.557 115.136C114.702 110.58 123.537 107.166 134.292 107.509Z" fill="#5D5E50"/>
<path d="M139.849 111.143C144.559 110.661 149.272 110.182 153.985 109.703L154.154 109.688L154.325 109.709C157.414 110.118 157.233 114.955 154.274 115.211L138.661 116.736L138.529 111.276L139.849 111.143Z" fill="#541138"/>
<path fill-rule="evenodd" clip-rule="evenodd" d="M140.036 112.614C144.749 112.135 149.462 111.652 154.172 111.173C155.495 111.348 155.341 113.632 154.091 113.741L140.096 115.109L140.036 112.614Z" fill="#69666D"/>
<path fill-rule="evenodd" clip-rule="evenodd" d="M140.036 112.614C144.749 112.135 149.462 111.652 154.172 111.173C154.694 111.243 154.986 111.637 155.07 112.098L140.066 113.87L140.036 112.614Z" fill="#C1CAC2"/>
<path d="M134.952 96.9979C137.929 97.0944 141.229 97.6699 143.926 98.9838C146.089 100.038 148.361 101.883 148.277 104.529L147.915 115.727C147.831 118.372 145.447 120.066 143.22 120.979C140.445 122.115 137.115 122.48 134.135 122.383C131.158 122.29 127.858 121.711 125.161 120.397C122.997 119.346 120.725 117.501 120.809 114.856L121.171 103.658C121.255 101.012 123.639 99.3183 125.866 98.4052C128.641 97.2661 131.971 96.9045 134.952 96.9979Z" fill="#541138"/>
<path fill-rule="evenodd" clip-rule="evenodd" d="M134.892 98.8513C138.122 98.9568 141.027 99.6348 143.116 100.65C145.201 101.669 146.469 103.022 146.424 104.468L146.066 115.666C146.017 117.113 144.667 118.381 142.519 119.261C140.37 120.144 137.426 120.635 134.196 120.533C130.965 120.428 128.06 119.75 125.972 118.731C123.887 117.715 122.618 116.362 122.663 114.916L123.022 103.718C123.07 102.269 124.42 101.003 126.569 100.12C128.717 99.24 131.661 98.7488 134.892 98.8513Z" fill="#8F5C44"/>
<path fill-rule="evenodd" clip-rule="evenodd" d="M134.892 98.8513C138.122 98.9568 141.027 99.6348 143.115 100.65C145.201 101.669 146.469 103.022 146.424 104.468L146.165 112.511C145.704 112.761 145.231 112.984 144.764 113.174C141.591 114.476 137.788 114.895 134.379 114.783C130.974 114.675 127.204 114.015 124.122 112.511C123.667 112.291 123.209 112.041 122.766 111.758L123.022 103.718C123.07 102.269 124.42 101.003 126.569 100.12C128.717 99.24 131.661 98.7488 134.892 98.8513Z" fill="#754137"/>
<path fill-rule="evenodd" clip-rule="evenodd" d="M137.046 101.419C139.276 101.609 141.265 102.127 142.751 102.85C144.486 103.697 145.541 104.821 145.502 106.027L145.204 115.338C145.164 116.54 144.04 117.595 142.253 118.327C140.723 118.954 138.707 119.346 136.471 119.391L137.046 101.419Z" fill="#754137"/>
<path d="M135.284 86.677C138.689 86.7885 142.456 87.4484 145.541 88.9491C148.064 90.1786 150.673 92.3242 150.577 95.401L150.284 104.493C150.185 107.572 147.44 109.546 144.845 110.61C141.672 111.909 137.869 112.327 134.464 112.219C131.056 112.107 127.289 111.448 124.203 109.947C121.684 108.717 119.071 106.572 119.168 103.495L119.46 94.4035C119.559 91.3238 122.305 89.35 124.899 88.2892C128.072 86.9874 131.875 86.5685 135.284 86.677Z" fill="#541138"/>
<path fill-rule="evenodd" clip-rule="evenodd" d="M135.208 88.952C138.875 89.0696 142.175 89.841 144.546 90.9951C146.915 92.1493 148.355 93.6862 148.301 95.3285L148.012 104.42C147.958 106.062 146.424 107.503 143.983 108.503C141.545 109.504 138.203 110.061 134.536 109.944C130.868 109.826 127.569 109.055 125.2 107.901C122.829 106.746 121.388 105.213 121.442 103.567L121.735 94.4757C121.786 92.8333 123.32 91.3929 125.761 90.3925C128.198 89.392 131.54 88.8345 135.208 88.952Z" fill="#A87A4B"/>
<path fill-rule="evenodd" clip-rule="evenodd" d="M134.69 109.95L134.536 109.944C130.868 109.826 127.569 109.055 125.2 107.901C122.829 106.747 121.388 105.213 121.442 103.567L121.735 94.4757C121.741 94.2286 121.783 93.9846 121.858 93.7465C122.437 93.7314 122.835 93.7314 122.835 93.7314L125.857 99.0833L125.7 103.965C125.7 103.965 124.694 109.067 134.69 109.95Z" fill="#B9935A"/>
<path fill-rule="evenodd" clip-rule="evenodd" d="M146.123 91.9176C147.12 92.7915 147.669 93.7769 147.636 94.8045L147.346 103.896C147.292 105.541 145.758 106.982 143.318 107.982C141.265 108.823 139.376 109.257 136.383 109.332L136.254 89.6455C139.508 89.8625 142.398 89.9499 144.547 90.9955C145.132 91.2818 145.659 91.5892 146.123 91.9176Z" fill="#9C5E41"/>
<path d="M146.362 99.8862L144.598 99.8296L144.282 109.694L146.046 109.751L146.362 99.8862Z" fill="#541138"/>
<path d="M141.055 99.7158L139.291 99.6592L138.938 110.667L140.702 110.723L141.055 99.7158Z" fill="#541138"/>
<path d="M135.752 99.5459L133.988 99.4893L133.618 111.018L135.382 111.075L135.752 99.5459Z" fill="#541138"/>
<path d="M130.448 99.3754L128.684 99.3188L128.326 110.487L130.09 110.543L130.448 99.3754Z" fill="#541138"/>
<path d="M125.142 99.205L123.377 99.1484L123.061 109.013L124.825 109.07L125.142 99.205Z" fill="#541138"/>
<path d="M135.205 89.106C143.242 89.3652 149.667 92.4901 149.552 96.0912C149.435 99.6922 142.835 102.082 134.795 101.823C126.758 101.564 120.322 98.7581 120.439 95.157C120.554 91.559 127.165 88.8468 135.205 89.106Z" fill="#541138"/>
<path d="M134.827 100.85C142.162 101.085 148.194 98.6133 148.299 95.3285C148.404 92.0437 142.544 89.1901 135.209 88.9548C127.874 88.7195 121.843 91.1917 121.737 94.4764C121.632 97.7612 127.493 100.615 134.827 100.85Z" fill="#C09E60"/>
<path fill-rule="evenodd" clip-rule="evenodd" d="M135.208 88.9549C137.986 89.0453 140.554 89.5094 142.663 90.2296L125.908 99.0018C123.293 97.8295 121.681 96.2143 121.738 94.4755C121.843 91.1909 127.873 88.7199 135.208 88.9549Z" fill="#D6C074"/>
<path d="M134.91 98.2845C139.772 98.4405 143.766 96.8939 143.832 94.8302C143.899 92.7665 140.011 90.9671 135.15 90.8112C130.289 90.6552 126.294 92.2018 126.228 94.2655C126.162 96.3292 130.049 98.1286 134.91 98.2845Z" fill="#A87A4B"/>
<path fill-rule="evenodd" clip-rule="evenodd" d="M135.148 90.8112C140.012 90.9679 143.899 92.767 143.833 94.8312C143.811 95.4429 143.444 96.0124 142.811 96.5036C142.742 94.7076 139.327 93.1587 135.079 93.0231C130.827 92.8875 127.322 94.2134 127.138 96.0004C126.538 95.47 126.207 94.8794 126.228 94.2646C126.294 92.2004 130.287 90.6545 135.148 90.8112Z" fill="#8F5C44"/>
<path d="M112.836 112.99L125.056 111.746L125.228 111.728L125.4 111.752C128.485 112.158 128.304 116.995 125.345 117.254L113.741 118.387L112.836 112.99Z" fill="#541138"/>
<path fill-rule="evenodd" clip-rule="evenodd" d="M113.083 114.455L125.246 113.216C126.566 113.391 126.415 115.675 125.161 115.784L113.496 116.923L113.083 114.455Z" fill="#69666D"/>
<path fill-rule="evenodd" clip-rule="evenodd" d="M113.083 114.455L125.246 113.216C125.764 113.286 126.056 113.68 126.144 114.141L113.285 115.66L113.083 114.455Z" fill="#C1CAC2"/>
<path d="M117.483 114.048C119.204 116.944 118.043 120.814 116.362 123.408C114.111 126.883 110.57 129.821 107.032 131.921C103.495 134.022 99.2214 135.724 95.093 136.041C92.0102 136.276 88.0054 135.516 86.2847 132.617C85.9833 132.108 85.679 131.599 85.3746 131.087C83.6539 128.188 84.6454 124.351 86.3269 121.757C88.581 118.285 92.1188 115.344 95.6565 113.244C99.1943 111.144 103.467 109.441 107.596 109.125C110.679 108.889 114.852 109.619 116.573 112.518C116.877 113.027 117.179 113.536 117.483 114.048ZM110.576 116.727C105.173 114.564 92.5286 122.42 91.7903 128.031C96.7203 129.896 110.29 122.07 110.576 116.727Z" fill="#541138"/>
<path fill-rule="evenodd" clip-rule="evenodd" d="M97.7753 116.634C105.294 112.168 113.177 111.565 115.389 115.287C117.598 119.009 113.295 125.644 105.779 130.107C98.2635 134.573 90.3772 135.176 88.1684 131.454C85.9565 127.732 90.2598 121.097 97.7753 116.634ZM98.6673 118.132C104.679 114.561 110.857 113.856 112.46 116.556C114.063 119.259 110.489 124.345 104.477 127.916C98.4624 131.487 92.2878 132.192 90.6847 129.489C89.0785 126.789 92.6524 121.703 98.6673 118.132Z" fill="#69666D"/>
<path fill-rule="evenodd" clip-rule="evenodd" d="M96.9069 115.169C104.422 110.706 112.309 110.104 114.517 113.825C116.729 117.544 112.426 124.179 104.911 128.645C97.392 133.108 89.5088 133.711 87.2969 129.992C85.0881 126.271 89.3913 119.635 96.9069 115.169ZM97.7958 116.67C103.811 113.096 109.985 112.391 111.591 115.094C113.195 117.794 109.621 122.881 103.609 126.452C97.594 130.023 91.4194 130.728 89.8132 128.028C88.2101 125.328 91.784 120.241 97.7958 116.67Z" fill="#C1CAC2"/>
<path fill-rule="evenodd" clip-rule="evenodd" d="M110.462 124.43C108.922 125.933 107.044 127.377 104.911 128.645C97.3923 133.108 89.5091 133.711 87.2973 129.992C85.9502 127.723 87.0261 124.372 89.7713 121.091C87.8216 123.911 87.1858 126.669 88.346 128.621C90.5549 132.34 98.441 131.737 105.957 127.274C107.469 126.376 108.849 125.391 110.073 124.36L110.462 124.43ZM92.161 121.076L92.2333 121.088C92.0947 121.241 91.9621 121.392 91.8325 121.543C91.938 121.386 92.0465 121.232 92.161 121.076Z" fill="white"/>
<path d="M91.6624 132.941C92.5373 132.969 93.2688 132.3 93.2962 131.447C93.3235 130.594 92.6364 129.88 91.7615 129.852C90.8865 129.824 90.1551 130.493 90.1277 131.346C90.1003 132.198 90.7875 132.913 91.6624 132.941Z" fill="white"/>
<path d="M121.988 189.077L140.587 190.719L139.276 296.974L127.268 294.512L121.988 189.077Z" fill="#541138"/>
<path d="M58.2144 276.027L62.7285 190.734L206.232 197.632L202.158 282.904L58.2144 276.027Z" fill="#541138"/>
<path fill-rule="evenodd" clip-rule="evenodd" d="M198.62 255.231L198.135 274.828L66.167 271.57L68.1167 198.563L199.937 201.857L198.62 255.231Z" fill="#E95B5B"/>
<path fill-rule="evenodd" clip-rule="evenodd" d="M199.816 204.084L68.409 202.318L68.1167 198.563L199.937 201.857L199.816 204.084Z" fill="white"/>
<path fill-rule="evenodd" clip-rule="evenodd" d="M196.004 253.312L195.54 272.131L68.8037 269L69.4516 244.796L196.532 231.964L196.004 253.312Z" fill="#BF3053"/>
<path fill-rule="evenodd" clip-rule="evenodd" d="M73.8394 265.447L75.2827 214.803L73.9659 214.77L75.0658 207.031L88.7559 207.384L92.0707 238.95L97.2659 207.604L110.694 207.95L109.027 266.354L100.689 266.14L101.985 220.751L94.4332 257.63L88.7318 257.482L83.4401 221.276L82.1745 265.664L73.8394 265.447ZM113.415 266.468L114.858 215.824L113.541 215.788L114.641 208.053L123.417 208.279L121.75 266.682L113.415 266.468ZM146.231 208.866L154.57 209.083L152.903 267.487L144.565 267.27L135.931 231.314L134.913 267.023L126.578 266.809L128.021 216.162L126.704 216.129L127.804 208.393L137.019 208.628L145.701 246.01L146.231 208.866ZM177.433 260.354L176.507 268.096L157.291 267.599L158.734 216.955L157.417 216.921L158.517 209.183L178.876 209.71L177.776 217.446L167.072 217.168L166.572 234.692L176.399 234.945L175.302 242.68L166.349 242.451L165.849 260.056L177.433 260.354ZM182.384 209.837L192.268 210.09L190.906 257.778L181.025 257.525L182.384 209.837ZM180.94 260.445L190.824 260.698L190.601 268.457L180.72 268.204L180.94 260.445Z" fill="white"/>
</svg>
