<svg width="463" height="570" viewBox="0 0 463 570" fill="none" xmlns="http://www.w3.org/2000/svg">
<path d="M219.497 45.7064C219.497 45.7064 183.232 156.951 258.432 228.892C269.758 237.352 295.869 227.446 288.897 219.207C278.603 207.043 232.569 143.259 264.796 58.1377C264.796 58.1377 250.88 39.1929 219.497 45.7064Z" fill="#541138"/>
<path fill-rule="evenodd" clip-rule="evenodd" d="M224.227 49.8437C224.227 49.8437 191.071 157.537 261.531 225.927C261.531 225.927 277.52 232.291 285.81 221.707C285.81 221.707 223.415 151.543 258.941 58.8734C258.941 58.8734 248.061 43.034 224.227 49.8437Z" fill="#79505F"/>
<path fill-rule="evenodd" clip-rule="evenodd" d="M220.466 66.0208C216.921 84.8891 213.239 117.937 221.141 152.55C265.203 127.776 233.41 81.8282 220.466 66.0208Z" fill="#865C65"/>
<path fill-rule="evenodd" clip-rule="evenodd" d="M280.396 226.074C282.371 225.124 284.231 223.726 285.81 221.707C285.81 221.707 224.046 152.231 258.438 60.243C252.765 60.173 246.867 60.6253 241.035 61.8929C242.917 62.0649 215.701 165.952 280.396 226.074Z" fill="#643451"/>
<path d="M294.009 46.3752C294.009 46.3752 257.008 159.735 334.007 233.396C344.693 242.668 373.505 232.004 366.368 223.567C355.828 211.113 306.17 142.271 343.139 49.2863C343.139 49.2863 326.143 39.7057 294.009 46.3752Z" fill="#541138"/>
<path fill-rule="evenodd" clip-rule="evenodd" d="M298.822 50.3057C298.822 50.3057 264.869 160.57 337.017 230.593C337.017 230.593 353.385 237.113 361.873 226.278C361.873 226.278 297.691 153.543 335.991 54.2233C335.991 54.2233 323.222 43.3336 298.822 50.3057Z" fill="#79505F"/>
<path fill-rule="evenodd" clip-rule="evenodd" d="M293.509 75.5186C290.77 93.8104 288.977 120.154 294.136 148.078C339.476 118.485 303.692 84.0514 293.509 75.5186Z" fill="#865C65"/>
<path fill-rule="evenodd" clip-rule="evenodd" d="M358.166 229.705C359.501 228.826 360.756 227.701 361.874 226.277C361.874 226.277 297.691 153.543 335.992 54.2233C335.992 54.2233 334.122 53.7933 328.717 51.9746C323.624 63.2179 305.966 104.117 317.12 151.005C328.274 197.895 347.133 219.245 358.166 229.705Z" fill="#643451"/>
<path d="M425.021 374.428C418.714 372.549 410.325 376.329 426.113 385.547C426.113 385.547 386.405 384.493 385.666 384.196C384.924 383.9 376.783 382.346 378.633 378.422C380.484 374.501 382.111 367.838 387.144 365.398C392.176 362.955 421.1 364.583 425.021 374.428Z" fill="#541138"/>
<path d="M324.5 410.116C348.168 405.205 367.817 412.483 373.117 437.791C361.278 476.767 334.351 524.731 299.911 563.977L201.938 566.592C226.135 550.906 247.619 532.063 266.831 509.551C292.235 479.78 311.53 447.057 324.5 410.116Z" fill="#541138"/>
<path fill-rule="evenodd" clip-rule="evenodd" d="M329.421 415.741C329.421 415.741 297.43 506.869 214.086 566.271L290.939 564.216C321.379 532.598 350.449 490.007 366.409 437.495C366.409 437.495 360.526 409.285 329.421 415.741Z" fill="#FFCFA5"/>
<path d="M69.0955 499.19L44.8857 524.365L91.375 569.548L139.6 568.258L69.0955 499.19Z" fill="#541138"/>
<path d="M64.63 502.875L48.3447 519.514L99.2453 569.338L131.644 568.471L64.63 502.875Z" fill="#A25248"/>
<path d="M132.102 568.459L77.0835 514.341C75.3349 519.068 73.8857 524.081 73.8857 524.081L118.416 568.825L132.102 568.459Z" fill="#B86F55"/>
<path d="M71.2231 507.634C69.3821 524.034 72.6691 538.605 78.587 549.113L99.1625 569.338L103.507 569.223C99.3186 565.841 95.4901 562.337 92.1458 558.624C81.6988 547.024 72.048 533.758 74.6789 511.182L71.2231 507.634ZM93.4262 529.579C95.7258 548.221 103.325 560.891 117.184 568.857L121.477 568.743C107.845 562.618 98.3503 550.791 98.9109 534.971L93.4262 529.579Z" fill="#823B42"/>
<path d="M33.7539 497.343L71.4046 448.821L111.686 491.479L67.3628 524.075L58.177 523.017L33.7539 497.343Z" fill="#541138"/>
<path d="M41.8759 555.276C40.7834 557.044 39.2259 558.486 37.2034 559.095C31.5212 560.799 20.0964 555.123 12.9491 548.517C3.03078 539.351 -3.626 524.279 4.43222 517.765L50.1889 482.898L62.7476 513.51L69.1305 520.256L41.8759 555.276Z" fill="#541138"/>
<path d="M35.8371 552.479C36.9359 552.148 37.8086 551.311 38.452 550.247L63.4357 518.861L63.5631 518.982L106.89 488.568L73.2871 455.02L46.1185 492.247L45.9305 492.065L9.21304 521.61C-0.323052 529.318 25.2945 555.642 35.8371 552.479Z" fill="#A25248"/>
<path d="M97.7483 494.986L106.889 488.568L73.287 455.02L68.6336 461.393C66.3244 468.18 60.948 487.555 71.653 495.486C78.192 500.33 88.7855 498.266 97.7483 494.986Z" fill="#B56A55"/>
<path d="M77.2619 460.552C79.5647 475.84 66.7098 484.672 51.8292 494.896C36.5663 505.382 19.2427 517.291 13.2006 539.041C13.7612 539.729 14.3473 540.411 14.9588 541.08C20.469 519.122 36.8593 506.773 52.1126 496.295C67.2608 485.886 81.3579 477.28 79.5775 461.3L78.622 460.345L77.2619 460.552ZM8.67468 532.082C13.121 526.594 17.3667 520.007 21.0105 512.115L16.9654 515.37C15.548 520.928 12.7802 525.718 7.74146 529.744C7.98671 530.502 8.29884 531.286 8.67468 532.082ZM28.3233 551.32C33.2283 530.06 50.3608 526.222 55.1289 526.034L55.8965 528.33L57.5304 526.282L56.6322 523.607L55.7436 523.712C55.6672 523.721 33.7698 526.024 26.3104 550.307C26.9888 550.683 27.6608 551.024 28.3233 551.32ZM84.1512 504.528C85.0207 493.861 91.4514 486.418 99.7835 481.474L98.207 479.898C90.1424 486.246 83.218 494.855 81.5873 506.328L84.1512 504.528ZM87.7089 469.419C78.6251 491.32 69.0222 499.387 48.2269 510.72C33.6233 518.682 24.479 531.83 19.386 545.389C19.9721 545.896 20.5677 546.386 21.1665 546.858C26.0747 533.477 34.4578 520.103 48.7715 512.3C69.6018 500.948 80.1285 492.988 89.3875 471.094L87.7089 469.419Z" fill="#823B42"/>
<path d="M71.7356 448.496C76.3317 443.913 90.1835 447.082 101.347 457.73C111.361 467.276 119.54 483.707 111.638 491.59C105.125 498.094 95.2255 487.026 86.2372 476.735C75.8857 468.03 64.8527 455.37 71.7356 448.496Z" fill="#541138"/>
<path d="M74.9019 453.449C79.5234 448.837 92.0949 454.625 100.147 463.727C107.727 472.295 111.103 483.934 106.361 488.663C102.561 492.457 90.4163 486.412 82.2371 477.417C74.5547 468.967 70.5511 457.791 74.9019 453.449Z" fill="#D59469"/>
<path d="M74.9019 453.449C79.5234 448.837 92.0949 454.625 100.147 463.727C103.351 467.349 105.803 471.518 107.208 475.484C96.1463 471.929 83.3072 467.804 74.4241 464.951C72.6405 460.128 72.5545 455.793 74.9019 453.449Z" fill="#E3B571"/>
<path d="M79.9913 458.654C82.6891 455.962 90.174 459.09 96.7098 465.638C103.242 472.19 106.354 479.681 103.656 482.373C100.955 485.067 93.4706 481.94 86.9348 475.391C80.4022 468.839 77.2936 461.348 79.9913 458.654Z" fill="#9B4D44"/>
<path d="M79.9916 458.654C82.6893 455.962 90.1743 459.09 96.71 465.638C103.243 472.19 106.354 479.681 103.657 482.373C103.004 483.026 102.07 483.335 100.943 483.338C101.383 483.188 101.768 482.959 102.08 482.644C104.644 480.086 101.691 472.967 95.4806 466.744C89.2729 460.52 82.1606 457.548 79.5967 460.106C79.3673 460.335 79.1858 460.6 79.0425 460.896C79.1221 459.975 79.4342 459.214 79.9916 458.654Z" fill="#81343C"/>
<path d="M65.2925 531.811C61.445 539.519 55.9953 545.361 46.9083 542.141C36.8562 522.422 35.0121 498.158 44.7329 478.111C50.5807 467.951 60.1645 461.613 67.2609 463.399C55.5717 482.182 54.0206 511.086 65.2925 531.811Z" fill="#541138"/>
<path fill-rule="evenodd" clip-rule="evenodd" d="M59.9895 532.088C59.9895 532.088 47.0103 502.776 58.5403 470.276C58.5403 470.276 51.0872 472.521 47.3352 480.43C47.3352 480.43 34.5217 508.853 49.8068 538.838C49.8068 538.838 55.5909 540.895 59.9895 532.088Z" fill="#E8C285"/>
<path fill-rule="evenodd" clip-rule="evenodd" d="M59.9891 532.089C59.9891 532.089 57.3105 526.043 55.4696 516.405C51.5392 518.284 47.1119 518.549 43.1338 518.154C44.1435 524.721 46.1851 531.735 49.8065 538.838C49.8065 538.838 55.5906 540.895 59.9891 532.089Z" fill="#C38A62"/>
<path d="M88.1548 500.62C76.042 505.471 63.4132 505.962 51.1093 501.573C46.5037 499.932 40.261 496.843 36.5153 493.565L34.9132 492.161L32.8461 492.673C28.6291 493.715 24.4566 495.811 22.2653 499.738C21.3321 501.413 20.7206 503.64 20.9531 505.576L21.1474 507.191L22.4023 508.233C33.8367 517.718 47.644 523.167 62.4099 524.416C68.4074 524.922 76.2427 524.82 82.1797 523.422L83.0492 523.221L83.753 522.674C88.8714 518.689 92.6904 511.459 93.7032 505.051L94.8307 497.948L88.1548 500.62Z" fill="#541138"/>
<path fill-rule="evenodd" clip-rule="evenodd" d="M33.8239 496.636C33.8239 496.636 57.4603 517.307 89.6741 504.41C89.6741 504.41 88.1421 514.084 81.2464 519.45C81.2464 519.45 50.9118 526.575 25.0076 505.089C25.0076 505.089 24.2687 498.996 33.8239 496.636Z" fill="#E8C285"/>
<path fill-rule="evenodd" clip-rule="evenodd" d="M63.4103 508.417C71.1214 509.124 80.0109 508.277 89.6744 504.41C89.6744 504.41 88.1424 514.083 81.2467 519.45C81.2467 519.45 67.1337 522.763 49.9375 518.052C55.1419 517.284 60.2316 514.685 63.4103 508.417Z" fill="#C38A62"/>
<path d="M428.613 498.479C428.613 498.479 456.33 499.148 460.439 478.777C464.544 458.405 459.754 417.993 459.754 417.993C459.754 417.993 451.199 395.949 409.108 400.625C392.256 431.603 414.583 498.814 428.613 498.479Z" fill="#541138"/>
<path fill-rule="evenodd" clip-rule="evenodd" d="M428.454 492.89C428.454 492.89 452.434 493.482 455.989 475.423C459.54 457.364 455.397 421.538 455.397 421.538C455.397 421.538 447.994 401.998 411.579 406.145C396.998 433.603 416.316 493.186 428.454 492.89Z" fill="#8A9B65"/>
<path fill-rule="evenodd" clip-rule="evenodd" d="M456.381 432.02C455.884 425.755 455.397 421.538 455.397 421.538C455.397 421.538 455.161 420.917 454.568 419.92C446.466 420.095 430.005 421.442 423.428 429.271C414.991 439.307 422.052 430.695 429.422 440.371C429.422 440.371 441.5 427.217 456.381 432.02Z" fill="#6C7559"/>
<path fill-rule="evenodd" clip-rule="evenodd" d="M455.403 421.599L455.397 421.538C455.397 421.538 447.994 401.998 411.58 406.145C407.331 414.142 405.964 424.873 406.455 436.049C409.305 436.584 412.917 436.53 417.501 435.677C417.501 435.677 432.225 417.49 455.403 421.599Z" fill="#AEBC6E"/>
<path d="M419.358 438.798C419.358 438.798 430.388 419.63 456.661 422.739L457.55 419.038C457.55 419.038 433.423 412.967 416.695 432.138L416.249 435.839L419.358 438.798Z" fill="#541138"/>
<path d="M433.426 560.41C450.173 538.774 448.842 513.016 442.78 488.533C435.009 457.157 421.861 422.194 427.24 386.334C427.24 386.334 389.889 356.751 336.399 380.059C295.302 397.965 290.525 515.456 324.793 563.312L433.426 560.41Z" fill="#541138"/>
<path fill-rule="evenodd" clip-rule="evenodd" d="M421.055 389.668C419.848 388.891 418.583 388.161 417.434 387.521C411.99 384.492 406.085 382.129 400.088 380.46C379.448 374.711 358.382 377.351 338.874 385.849C326.2 391.375 318.814 408.103 315.024 420.458C309.042 439.951 307.31 462.329 308.195 482.634C309.033 501.875 312.361 522.584 319.512 540.535C322.547 548.157 326.758 556.378 332.392 563.108L425.103 560.633C442.911 541.385 443.831 517.361 436.99 489.724C432.919 473.289 427.836 457.179 424.361 440.575C420.845 423.758 418.997 406.753 421.055 389.668Z" fill="#8A9B65"/>
<path fill-rule="evenodd" clip-rule="evenodd" d="M421.055 389.668C419.848 388.891 418.583 388.161 417.434 387.521C411.99 384.492 406.085 382.129 400.088 380.46C379.448 374.711 358.382 377.351 338.874 385.849C326.2 391.375 318.814 408.103 315.024 420.458C309.042 439.951 307.31 462.329 308.195 482.634C309.033 501.875 312.361 522.584 319.512 540.535C322.547 548.157 326.758 556.378 332.392 563.108L414.911 560.904C422.995 553.091 428.836 543.061 431.572 531.935C442.994 485.468 408.64 443.496 421.055 389.668Z" fill="#6C7559"/>
<path fill-rule="evenodd" clip-rule="evenodd" d="M421.055 389.668C419.848 388.891 418.583 388.161 417.434 387.521C411.99 384.492 406.085 382.129 400.088 380.46C379.448 374.711 358.382 377.351 338.874 385.849C326.2 391.375 318.814 408.103 315.024 420.458C309.042 439.951 307.31 462.329 308.195 482.634C309.033 501.875 312.361 522.584 319.512 540.535C322.547 548.157 326.758 556.378 332.392 563.108L414.911 560.904C422.995 553.091 428.836 543.061 431.572 531.935C442.994 485.468 408.64 443.496 421.055 389.668Z" fill="#6C7559"/>
<path fill-rule="evenodd" clip-rule="evenodd" d="M377.471 392.366C359.539 465.947 375.282 522.826 376.623 558.381C376.658 559.359 376.687 560.572 376.671 561.926L332.392 563.108C326.758 556.378 322.547 548.157 319.512 540.535C312.361 522.584 309.033 501.875 308.195 482.634C307.31 462.329 309.042 439.951 315.024 420.458C318.814 408.103 326.2 391.375 338.874 385.849C342.47 384.282 346.12 382.916 349.811 381.763C358.411 384.642 367.055 389.197 377.471 392.366Z" fill="#484B4A"/>
<path d="M422.399 395.159C422.399 395.159 392.348 381.836 364.221 405.374C364.221 405.374 355.341 398.637 355.933 397.303C356.526 395.971 376.359 371.695 376.359 371.695C376.359 371.695 414.255 374.953 424.469 389.311L422.399 395.159Z" fill="#541138"/>
<path d="M421.055 389.668C419.848 388.891 418.583 388.162 417.434 387.521C411.99 384.492 406.085 382.129 400.088 380.46C380.793 375.084 361.118 377.043 342.699 384.269C342.712 396.198 349.031 407.157 368.747 397.605C368.747 397.605 387.048 380.336 421.03 389.897L421.055 389.668Z" fill="#483641"/>
<path d="M370.499 400.223C368.409 395.761 388.704 352.769 421.797 373.058C425.658 375.424 427.843 374.768 426.155 370.102C420.501 354.435 398.824 320.23 318.098 328.279C318.098 328.279 282.126 337.605 275.909 369.876C269.691 402.147 370.499 400.223 370.499 400.223Z" fill="#541138"/>
<path fill-rule="evenodd" clip-rule="evenodd" d="M412.312 359.168C402.095 347.73 374.289 326.056 316.47 337.755C316.47 337.755 287.454 343.676 281.979 370.319C276.501 396.965 365.32 394.892 365.32 394.892C372.225 373.975 389.326 355.597 410.181 362.423C411.061 362.71 411.991 362.385 412.497 361.608C413 360.837 412.927 359.856 412.312 359.168Z" fill="#6C7559"/>
<path fill-rule="evenodd" clip-rule="evenodd" d="M352.924 334.49C342.368 334.073 330.278 334.962 316.47 337.755C316.47 337.755 287.454 343.676 281.979 370.319C276.501 396.965 365.32 394.892 365.32 394.892C367.495 388.308 370.68 381.973 374.674 376.6C349.821 363.936 350.098 345.297 352.924 334.49Z" fill="#484B4A"/>
<path d="M211.213 539.608C211.213 539.608 212.277 553.078 216.163 566.213L358.975 562.397C360.994 551.982 361.023 541.096 359.982 533.168C359.982 533.168 332.743 523.692 277.676 526.655C222.61 529.614 211.213 539.608 211.213 539.608Z" fill="#541138"/>
<path fill-rule="evenodd" clip-rule="evenodd" d="M217.762 542.937C217.985 548.498 219.459 557.228 222.106 566.054L352.891 562.56C354.723 554.253 355.519 544.593 354.099 533.907C301.94 521.527 229.282 526.54 217.762 542.937Z" fill="#79505F"/>
<path fill-rule="evenodd" clip-rule="evenodd" d="M243.096 547.762H300.159V563.971L243.096 565.493V547.762Z" fill="#643451"/>
<path fill-rule="evenodd" clip-rule="evenodd" d="M318.502 559.604C318.502 559.604 318.881 561.152 319.665 563.449L343.585 562.812C343.645 557.177 343.221 552.575 343.221 552.575C343.221 552.575 318.206 553.537 318.502 559.604Z" fill="#643451"/>
<path fill-rule="evenodd" clip-rule="evenodd" d="M217.762 542.937C217.899 546.367 218.513 551.004 219.584 556.123C225.326 558.83 235.018 562.681 248.084 565.36L320.882 563.417C331.475 560.881 342.699 557.26 354.487 552.272C355.003 546.58 354.968 540.436 354.099 533.907C301.94 521.527 229.282 526.54 217.762 542.937Z" fill="#643451"/>
<path d="M315.467 551.021C315.467 551.021 315.011 556.779 316.884 563.522L321.493 563.401C320.477 559.394 320.076 554.792 320.795 549.613L315.467 551.021Z" fill="#541138"/>
<path d="M239.395 545.246H296.458V564.07L239.395 565.592V545.246Z" fill="#541138"/>
<path d="M243.65 549.734H292.203V564.181L243.65 565.481V549.734Z" fill="#C7C0C9"/>
<path d="M243.65 565.481V564.334C243.65 564.729 243.72 565.108 243.847 565.474L243.65 565.481Z" fill="white"/>
<path d="M243.65 549.734H292.203V564.181L281.409 564.471C266.057 561.5 248.504 562.417 243.65 564.379V549.734Z" fill="#7C7896"/>
<path d="M218.491 380.301C218.491 380.301 188.555 440.155 238.751 481.5L256.855 465.355C256.855 465.355 223.154 429.915 242.335 381.285C242.335 381.285 229.429 377.546 218.491 380.301Z" fill="#541138"/>
<path fill-rule="evenodd" clip-rule="evenodd" d="M222.597 386.891C222.597 386.891 199.46 436.689 238.662 473.091L251.112 463.113C251.112 463.113 225.457 436.227 237.57 387.907C237.57 387.907 231.091 385.69 222.597 386.891Z" fill="#8A9B65"/>
<path d="M209.541 414.613L242.36 412.992C244.128 412.906 245.641 414.416 245.746 416.356L246.536 431.341C246.637 433.278 245.274 434.931 243.51 435.02L210.688 436.638C208.923 436.724 207.407 435.214 207.305 433.278L206.515 418.289C206.413 416.352 207.776 414.699 209.541 414.613Z" fill="#541138"/>
<path fill-rule="evenodd" clip-rule="evenodd" d="M211.688 419.404L212.309 431.66L241.363 430.227L240.742 417.971L211.688 419.404Z" fill="#C7C0C9"/>
<path fill-rule="evenodd" clip-rule="evenodd" d="M211.688 419.404L212.309 431.66H212.318C214.745 428.835 223.444 420.493 240.911 421.283L240.742 417.971L211.688 419.404Z" fill="white"/>
<path d="M235.958 430.469L241.363 430.227L240.742 417.971L235.518 418.203C235.559 422.207 235.696 426.316 235.958 430.469Z" fill="#7C7896"/>
<path d="M225.434 403.077C233.423 439.25 234.063 451.605 231.906 470.295C231.906 470.295 205.095 502.041 209.117 541.755C240.13 571.733 335.657 562.895 362.026 533.261C369.186 515.205 368.434 475.379 364.523 441.585C361.552 415.897 351.261 393.564 339.772 379.225C303.051 333.395 216.554 362.866 225.434 403.077Z" fill="#541138"/>
<path fill-rule="evenodd" clip-rule="evenodd" d="M271.204 363.194C252.195 365.586 239.188 375.861 234.448 388.133C231.375 396.089 232.719 403.597 234.955 414.703C237.187 425.809 240.041 444.627 239.675 467.11V473.92C239.675 473.92 216.137 495.088 216.433 539.497C227.387 548.97 289.856 569.841 357.064 530.614C359.36 526.674 364.186 486.24 358.064 445.538C353.146 412.849 341.479 379.884 313.393 366.303C313.393 366.303 294.149 359.493 271.204 363.194Z" fill="#EDAD62"/>
<path fill-rule="evenodd" clip-rule="evenodd" d="M238.885 409.979C238.885 409.979 252.431 425.669 269.306 424.338C286.18 423.006 297.653 410.053 297.653 410.053C297.653 410.053 300.22 418.528 292.146 424.344C274.733 436.89 246.685 431.944 238.885 409.979Z" fill="#D2714F"/>
<path fill-rule="evenodd" clip-rule="evenodd" d="M240.067 470.445C271.366 475.955 284.909 487.705 284.183 498.859C282.976 517.332 246.236 537.013 217.364 540.23C217.023 539.981 216.707 539.733 216.433 539.497C216.137 495.088 239.675 473.92 239.675 473.92V470.521C239.806 470.496 239.933 470.467 240.067 470.445Z" fill="#F1BC6D"/>
<path fill-rule="evenodd" clip-rule="evenodd" d="M233.009 393.465C232.024 399.638 233.222 406.087 234.955 414.703C237.187 425.809 240.041 444.627 239.675 467.11V473.92C239.675 473.92 216.137 495.088 216.433 539.497C224.418 546.402 259.782 559.359 304.396 550.683C259.432 554.976 224.517 538.908 224.517 538.908C220.077 491.832 247.204 466.963 247.204 466.963L242.838 469.406C244.908 421.149 235.028 396.65 235.028 396.65L233.009 393.465Z" fill="#F6D782"/>
<path fill-rule="evenodd" clip-rule="evenodd" d="M299.886 551.498C317.725 548.559 337.186 542.217 357.064 530.614C359.36 526.674 364.186 486.24 358.064 445.538C353.146 412.849 341.479 379.884 313.393 366.303C313.393 366.303 301.854 362.219 285.995 362.095C285.964 363.226 285.995 364.404 286.107 365.643C282.801 380.887 286.152 394.201 284.9 406.798C279.823 457.902 330.962 478.93 299.886 551.498Z" fill="#D2714F"/>
<path fill-rule="evenodd" clip-rule="evenodd" d="M232.515 398.131C238.506 415.799 254.365 426.22 270.124 424.93C290.209 423.287 310.374 403.963 312.301 370.896L272.924 383.919L232.515 398.131Z" fill="#F6D782"/>
<path d="M227.894 389.589C248.033 436.514 307.014 424.188 315.133 364.032C302.66 357.496 282.632 356.566 266.003 360.417C249.533 364.229 234.939 373.609 227.894 389.589Z" fill="#541138"/>
<path fill-rule="evenodd" clip-rule="evenodd" d="M234.923 388.987C251.377 427.472 301.809 415.445 310.103 365.315C283.552 358.158 247.689 360.627 234.923 388.987Z" fill="#D77D75"/>
<path d="M247.297 466.849C247.297 466.849 236.417 467.221 230.938 474.881L239.191 474.362C239.191 474.362 243.411 469.699 247.297 466.849Z" fill="#541138"/>
<path d="M329.653 370.765C333.526 371.733 409.719 401.501 427.715 493.243C430.495 507.423 431.304 518.131 427.004 527.228C421.262 539.376 407.337 547.498 385.755 546.029C385.755 546.029 382.668 473.407 347.992 435.718C342.702 429.966 336.453 421.678 332.847 412.616C324.601 391.904 323.27 368.392 329.653 370.765Z" fill="#541138"/>
<path fill-rule="evenodd" clip-rule="evenodd" d="M385.834 419.904C404.413 441.483 421.306 471.789 423.947 511.984C423.947 511.984 424.147 518.303 421.418 524.215C417.526 532.639 407.677 541.299 382.792 538.777L382.942 493.186C382.942 493.186 376.314 464.237 358.812 440.358C362.421 434.268 370.804 423.312 385.834 419.904Z" fill="#D77D75"/>
<path fill-rule="evenodd" clip-rule="evenodd" d="M372.948 464.893C371.193 456.917 370.737 449.496 374.435 447.744C383.169 443.598 413.662 472.021 419.733 502.811C425.801 533.601 383.318 515.542 383.318 513.026C383.318 512.446 383.149 510.796 382.891 508.595L382.942 493.186C382.942 493.186 380.022 480.442 372.948 464.893Z" fill="#FFCFA5"/>
<path fill-rule="evenodd" clip-rule="evenodd" d="M332.316 377.424C332.316 377.424 360.625 390.627 385.834 419.904C370.804 423.312 362.421 434.268 358.812 440.358C353.41 432.991 346.977 426.105 339.38 420.703C331.72 415.257 323.589 406.944 320.082 399.013C314.298 385.925 317.789 373.87 332.316 377.424Z" fill="#D2714F"/>
<path fill-rule="evenodd" clip-rule="evenodd" d="M358.287 438.852C358.287 438.852 354.873 432.597 350.359 426.953C342.209 416.76 334.472 403.453 344.744 400.956C361.176 396.959 379.974 419.089 379.974 419.089C379.974 419.089 364.8 424.79 358.287 438.852Z" fill="#EDAD62"/>
<path d="M345.636 472.904C345.636 472.904 375.798 490.332 406.439 484.191C406.439 484.191 425.536 512.204 408.808 543.144C408.808 543.144 369.912 560.684 328.169 517.905C313.002 490.269 335.214 470.238 345.636 472.904Z" fill="#541138"/>
<path fill-rule="evenodd" clip-rule="evenodd" d="M406.512 484.042C406.512 484.042 387.787 500.993 340.119 478.047C340.119 478.047 331.682 498.327 331.682 513.277C331.682 513.277 355.369 539.831 387.631 540.373C398.45 540.554 418.806 536.611 422.278 522.014C424.737 511.672 415.318 485.892 406.512 484.042Z" fill="#FFCFA5"/>
<path fill-rule="evenodd" clip-rule="evenodd" d="M351.12 486.781C351.12 486.781 373.619 519.791 395.676 516.829C417.733 513.87 404.559 485.892 404.559 485.892C404.559 485.892 387.092 497.142 351.12 486.781Z" fill="#FFE0B9"/>
<path fill-rule="evenodd" clip-rule="evenodd" d="M406.512 484.042C406.512 484.042 387.787 500.993 340.119 478.047C340.119 478.047 339.45 479.656 338.488 482.303C338.839 482.707 339.218 483.083 339.619 483.414C378.512 503.216 404.757 491.562 406.512 484.042Z" fill="white"/>
<path d="M349.92 377.017C332.634 400.844 315.435 463.584 328.866 516.596C332.121 529.438 341.323 539.984 356.755 546.453C359.159 547.463 367.492 549.705 367.463 554.209C367.734 556.069 368.613 558.798 368.393 562.146L325.866 563.283C301.679 545.227 291.181 513.691 288.957 480.863C286.027 437.638 297.955 391.219 318.83 362.732C318.83 362.732 337.116 361.547 349.92 377.017Z" fill="#541138"/>
<path fill-rule="evenodd" clip-rule="evenodd" d="M341.403 375.835C341.403 375.835 332.446 368.287 320.751 368.803C320.751 368.803 283.817 425.723 296.844 495.148C296.844 495.148 300.038 535.7 327.611 558.891C329.287 560.299 331.156 561.716 333.192 563.089L369.899 562.108C370.355 558.719 369.979 555.413 368.122 553.396C368.122 553.396 349.037 550.667 337.227 540.073C330.051 533.633 323.671 524.699 321.713 512.615C316.534 480.64 319.346 458.73 319.346 458.73C319.346 458.73 320.381 416.986 341.403 375.835Z" fill="#8A9B65"/>
<path fill-rule="evenodd" clip-rule="evenodd" d="M341.403 375.835C341.403 375.835 340.205 374.825 338.116 373.574C335.539 378.555 310.584 428.045 314.798 468.486C318.964 508.487 312.447 547.966 370.075 559.537C370.062 557.107 369.505 554.893 368.122 553.396C368.122 553.396 349.037 550.667 337.227 540.073C330.051 533.633 323.672 524.699 321.713 512.615C316.534 480.64 319.346 458.73 319.346 458.73C319.346 458.73 320.381 416.986 341.403 375.835Z" fill="#6C7559"/>
<path fill-rule="evenodd" clip-rule="evenodd" d="M302.465 410.485L326.162 416.292C324.178 423.853 322.763 430.828 321.763 436.848L297.385 430.876C298.789 423.579 300.548 416.747 302.465 410.485Z" fill="#6C7559"/>
<path fill-rule="evenodd" clip-rule="evenodd" d="M341.403 375.835C341.403 375.835 332.446 368.287 320.751 368.803C320.751 368.803 313.705 379.664 306.857 397.675C312.737 393.805 321.713 390.248 334.711 390.496C336.679 385.648 338.899 380.737 341.403 375.835Z" fill="#6C7559"/>
<path fill-rule="evenodd" clip-rule="evenodd" d="M295.665 487.915C295.999 490.31 296.388 492.721 296.844 495.148C296.844 495.148 298.35 514.236 308.195 533.706C312.753 531.687 321.916 529.247 332.51 535.302C327.385 529.419 323.229 521.96 321.713 512.615C320.139 502.897 319.305 494.113 318.903 486.586C308.644 484.618 301.981 483.452 296.837 487.112C296.433 487.399 296.044 487.663 295.665 487.915Z" fill="#484B4A"/>
<path d="M358.72 446.942C358.72 446.942 367.53 423.761 393.565 420.831L389.79 416.576C389.79 416.576 368.609 415.942 354.602 442.534L358.72 446.942Z" fill="#541138"/>
<path d="M323.875 454.236C323.875 454.236 317.89 449.847 308.345 448.496C305.15 448.041 294.945 449.776 287.718 453.487C287.718 453.487 268.328 456.854 271.175 472.276C271.175 472.276 260.094 484.178 272.822 499.75C272.822 499.75 265.636 529.171 300.818 528.871L299.245 519.813C299.245 519.813 312.864 517.013 324.898 522.144C330.987 524.743 339.428 519.622 339.765 513.736C343.059 508.981 343.024 502.795 344.311 493.39C344.311 493.39 348.585 486.943 347.805 477.796C346.865 466.833 342.868 452.162 325.595 441.584C325.595 441.584 324.624 447.273 323.875 454.236Z" fill="#541138"/>
<path fill-rule="evenodd" clip-rule="evenodd" d="M332.309 466.205C332.309 466.205 320.837 455.991 307.144 454.436C307.144 454.436 297.006 454.14 287.457 459.469C287.457 459.469 274.726 462.208 276.504 472.349C276.504 472.349 267.101 484.857 278.278 498.476C278.278 498.476 276.863 503.553 277.972 509.146C279.931 519.007 289.085 523.868 298.522 523.38C298.054 522.125 297.551 520.243 297.226 518.217C297.226 518.217 295.541 518.236 291.305 518.829C291.305 518.829 299.742 508.391 327.869 516.682C327.869 516.682 334.975 518.459 338.823 515.055C342.67 511.65 345.113 500.4 345.113 500.4C346.139 487.622 343.237 460.701 325.722 448.885L324.98 455.398C324.98 455.398 330.978 462.058 332.309 466.205Z" fill="#FFCFA5"/>
<path fill-rule="evenodd" clip-rule="evenodd" d="M306.845 454.433C305.109 454.433 296.044 454.678 287.457 459.469C287.457 459.469 283.724 460.274 280.584 462.619C274.299 485.096 286.087 514.07 289.737 522.202C292.483 523.141 295.487 523.536 298.522 523.38C298.054 522.125 297.551 520.243 297.226 518.217C297.226 518.217 295.541 518.236 291.305 518.829C291.305 518.829 292.865 516.902 296.878 515.36C290.445 479.519 304.421 457.86 306.845 454.433Z" fill="#FFE0B9"/>
<path fill-rule="evenodd" clip-rule="evenodd" d="M287.798 459.281C287.683 459.344 287.572 459.405 287.457 459.469C287.457 459.469 274.726 462.208 276.504 472.349C276.504 472.349 267.101 484.857 278.278 498.476C278.278 498.476 276.863 503.553 277.972 509.146C279.851 518.612 288.368 523.473 297.398 523.412C297.054 523.106 296.697 522.801 296.318 522.492C294.964 521.386 293.767 520.087 292.706 518.641C292.276 518.695 291.808 518.759 291.305 518.829C291.305 518.829 291.591 518.478 292.225 517.956C281.154 501.706 286.275 467.829 287.798 459.281Z" fill="#D77D75"/>
<path fill-rule="evenodd" clip-rule="evenodd" d="M344.135 482.105C342.052 469.928 336.823 456.373 325.723 448.885L324.98 455.398C324.98 455.398 330.94 462.017 332.297 466.167C335.998 469.798 341.482 475.853 344.135 482.105Z" fill="#D77D75"/>
<path fill-rule="evenodd" clip-rule="evenodd" d="M289.161 521.998C292.06 523.084 295.277 523.549 298.522 523.38C298.054 522.125 297.551 520.243 297.226 518.217C297.226 518.217 295.557 518.236 291.356 518.822C290.215 519.6 289.152 520.679 289.161 521.998Z" fill="#D77D75"/>
<path d="M285.173 492.619C285.173 492.619 277.045 497.202 277.555 505.515L273.573 499.285C273.573 499.285 277.013 492.836 285.173 492.619Z" fill="#541138"/>
<path d="M284.811 470.084C284.811 470.084 275.593 471.524 273.15 479.487L271.682 472.884C271.682 472.884 277.093 467.425 284.811 470.084Z" fill="#541138"/>
<path d="M287.158 462.947C285.903 463.297 280.243 479.063 286.715 506.245L287.158 462.947Z" fill="#541138"/>
<path d="M298.446 405.915L331.838 414.097C333.634 414.537 334.736 416.362 334.3 418.158L330.93 432.051C330.494 433.848 328.666 434.953 326.869 434.513L293.477 426.331C291.681 425.891 290.578 424.07 291.015 422.273L294.388 408.377C294.821 406.58 296.649 405.475 298.446 405.915Z" fill="#541138"/>
<path fill-rule="evenodd" clip-rule="evenodd" d="M299.267 410.916L296.487 422.27L326.047 429.513L328.831 418.158L299.267 410.916Z" fill="#C7C0C9"/>
<path fill-rule="evenodd" clip-rule="evenodd" d="M299.267 410.916L296.487 422.27L296.496 422.274C299.716 420.413 310.765 415.368 328.079 421.229L328.831 418.158L299.267 410.916Z" fill="white"/>
<path d="M320.556 428.144L326.047 429.513L328.831 418.158L323.521 416.833C322.451 420.496 321.448 424.28 320.556 428.144Z" fill="#7C7896"/>
<path d="M230.346 551.61C230.346 551.61 232.203 558.521 227.604 565.908L231.489 565.806C233.337 562.48 234.69 558.168 234.566 552.721L232.789 551.575L230.346 551.61Z" fill="#541138"/>
<path d="M131.191 238.97C131.191 238.97 105.793 205.998 79.8764 215.521C63.7122 221.461 59.2945 242.419 64.4766 263.482C69.4293 283.621 86.8039 302.168 117.25 303.741C143.323 305.296 138.889 254.628 131.191 238.97Z" fill="#541138"/>
<path fill-rule="evenodd" clip-rule="evenodd" d="M126.697 255.513C126.697 255.513 106.602 213.916 82.0838 225.37C68.302 231.81 67.2223 252.471 75.6659 269.977C85.4473 290.259 108.166 297.999 122.678 292.89L126.697 255.513Z" fill="#FA8888"/>
<path fill-rule="evenodd" clip-rule="evenodd" d="M112.355 234.823C104.383 226.462 93.7348 219.926 82.0838 225.37C68.302 231.807 67.2223 252.471 75.6659 269.977C78.4401 275.729 82.2558 280.471 86.6289 284.198C83.8006 281.147 81.3226 277.589 79.3638 273.528C70.9234 256.026 72.0031 235.361 85.7849 228.921C95.7127 224.284 104.918 228.345 112.355 234.823Z" fill="white"/>
<path fill-rule="evenodd" clip-rule="evenodd" d="M126.697 255.513C126.697 255.513 113.842 228.905 96.152 224.115C98.1522 236.466 101.118 265.82 87.3867 284.832C98.337 293.744 112.517 296.467 122.677 292.89L126.697 255.513Z" fill="#C64D60"/>
<path d="M105.172 277.84C105.172 277.84 104.35 236.275 77.0415 240.349C77.0415 240.349 97.7094 228.176 109.561 254.758L110.332 265.368L105.172 277.84Z" fill="#541138"/>
<path d="M98.0343 243.072C98.0343 243.072 80.5514 250.309 90.9984 270.604C90.9984 270.604 87.1827 255.131 101.449 248.799L101.751 244.783L98.0343 243.072Z" fill="#541138"/>
<path d="M199.941 407.925C199.941 407.925 189.819 390.379 202.897 360.117C202.897 360.117 212.825 376.533 199.941 407.925Z" fill="#541138"/>
<path d="M100.092 184.078V248.203C100.092 277.748 93.6076 300.477 102.37 328.875C115.304 370.784 180.528 394.178 244.688 390.964C323.576 387.015 402.677 342.841 403.139 243.41C403.139 243.41 413.08 184.744 381.404 136.28C352.442 91.963 298.885 70.7568 242.175 72.9831C189.246 75.0598 133.765 97.1928 110.412 135.949C100.972 151.613 100.092 166.586 100.092 184.078Z" fill="#541138"/>
<path fill-rule="evenodd" clip-rule="evenodd" d="M394.132 208.575C392.443 185.05 385.959 161.655 372.976 141.787C344.725 98.5592 292.55 81.0827 242.57 83.0447C196.928 84.8379 146.018 100.043 122.566 135.707C113.858 148.947 110.164 164.703 110.164 184.078V248.203C110.164 274.544 104.026 300.082 111.992 325.903C135.256 401.284 361.01 413.521 390.265 274.273C393.182 260.386 395.119 222.34 394.132 208.575Z" fill="#FFCFA5"/>
<path fill-rule="evenodd" clip-rule="evenodd" d="M293.308 88.0421C276.829 83.962 259.572 82.379 242.57 83.0447C203.464 84.5799 160.488 95.9665 134.23 121.632C193.24 129.053 275.965 119.8 293.308 88.0421Z" fill="#FFE0B9"/>
<path fill-rule="evenodd" clip-rule="evenodd" d="M252.294 82.9111C249.049 82.8761 245.806 82.9175 242.57 83.0449C196.928 84.8381 146.018 100.044 122.566 135.707C113.858 148.947 110.164 164.704 110.164 184.078V248.203C110.164 274.544 104.026 300.082 111.992 325.903C122.926 361.337 178.601 382.811 237.576 381.167C181.611 380.772 130.357 359.671 119.913 325.83C111.944 300.009 118.082 274.471 118.082 248.13V184.005C118.082 164.63 121.779 148.874 130.484 135.634C153.936 99.9671 204.849 84.7648 250.491 82.9716C251.09 82.9493 251.692 82.9302 252.294 82.9111Z" fill="white"/>
<path fill-rule="evenodd" clip-rule="evenodd" d="M394.132 208.575C392.444 185.05 385.959 161.655 372.976 141.787C361.169 123.721 345.18 110.156 326.924 100.623C326.274 101.314 325.646 102.034 325.044 102.792C313.33 117.542 313.575 152.925 321.48 187.123C333.638 239.725 335.205 292.979 321.471 328.489C313.129 350.049 299.022 365.64 276.985 376.523C329.825 365.309 377.821 333.503 390.265 274.273C393.183 260.386 395.119 222.34 394.132 208.575Z" fill="#D77D75"/>
<path fill-rule="evenodd" clip-rule="evenodd" d="M394.39 217.025C370.266 209.846 356.36 222.232 352.605 246.429C349.916 263.766 342.053 279.739 322.143 280.634C303.959 281.452 288.473 262.922 255.486 265.116C238.471 266.247 223.514 274.853 203.668 276.586C175.575 279.041 171.658 264.285 149.13 275.398C130.398 284.641 116.782 284.16 108.842 274.649C107.625 291.82 106.714 308.799 111.992 325.903C135.256 401.284 361.01 413.521 390.265 274.273C392.708 262.645 394.463 234.094 394.39 217.025Z" fill="#D7B39D"/>
<path fill-rule="evenodd" clip-rule="evenodd" d="M116.375 280.309C113.47 279.07 110.954 277.178 108.842 274.649C107.625 291.82 106.714 308.799 111.992 325.903C122.926 361.337 178.601 382.811 237.576 381.167C181.611 380.772 130.357 359.671 119.913 325.83C115.225 310.634 115.419 295.533 116.375 280.309Z" fill="#EAD4BC"/>
<path fill-rule="evenodd" clip-rule="evenodd" d="M394.39 217.025C370.266 209.846 356.36 222.232 352.605 246.429C350.353 260.963 344.457 274.538 330.879 279.073C329.949 297.566 326.911 314.421 321.471 328.49C313.129 350.049 299.022 365.64 276.985 376.524C329.825 365.309 377.821 333.503 390.265 274.273C392.708 262.645 394.463 234.094 394.39 217.025Z" fill="#B3928C"/>
<path fill-rule="evenodd" clip-rule="evenodd" d="M338.985 288.59C340.501 288.59 341.731 289.819 341.731 291.335C341.731 292.851 340.501 294.081 338.985 294.081C337.466 294.081 336.236 292.851 336.236 291.335C336.236 289.819 337.466 288.59 338.985 288.59ZM124.025 305.643C126.356 305.643 128.248 307.531 128.248 309.866C128.248 312.201 126.356 314.093 124.025 314.093C121.69 314.093 119.798 312.201 119.798 309.866C119.798 307.531 121.69 305.643 124.025 305.643ZM176.161 357.094C176.088 354.76 177.916 352.81 180.248 352.734C182.582 352.657 184.535 354.486 184.608 356.817C184.685 359.152 182.856 361.104 180.522 361.181C178.19 361.254 176.238 359.426 176.161 357.094ZM166.692 351.125C166.651 349.823 167.67 348.733 168.969 348.692C170.272 348.651 171.361 349.67 171.403 350.973C171.447 352.272 170.425 353.361 169.125 353.403C167.823 353.447 166.734 352.425 166.692 351.125ZM227.572 353.855C228.928 353.855 230.027 354.954 230.027 356.308C230.027 357.664 228.928 358.763 227.572 358.763C226.218 358.763 225.119 357.664 225.119 356.308C225.119 354.954 226.218 353.855 227.572 353.855ZM297.85 326.772C300.185 326.772 302.077 328.661 302.077 330.996C302.077 333.331 300.185 335.222 297.85 335.222C295.515 335.222 293.623 333.331 293.623 330.996C293.623 328.661 295.515 326.772 297.85 326.772ZM297.426 345.759C298.78 345.759 299.882 346.857 299.882 348.214C299.882 349.571 298.78 350.67 297.426 350.67C296.07 350.67 294.971 349.571 294.971 348.214C294.971 346.857 296.07 345.759 297.426 345.759ZM354.525 296.014C356.86 296.014 358.749 297.906 358.749 300.241C358.749 302.572 356.86 304.464 354.525 304.464C352.19 304.464 350.299 302.572 350.299 300.241C350.299 297.906 352.19 296.014 354.525 296.014Z" fill="#7A5763"/>
<path d="M377.073 357.397C377.073 357.397 356.564 352.718 342.753 321.39C342.753 321.39 362.265 325.422 377.073 357.397Z" fill="#541138"/>
<path d="M135.81 384.703C135.81 384.703 134.924 370.179 153.031 354.91C153.031 354.91 154.156 368.647 135.81 384.703Z" fill="#541138"/>
<path fill-rule="evenodd" clip-rule="evenodd" d="M142.33 109.497C148.413 105.152 155.127 104.13 157.328 107.21C159.526 110.293 156.376 116.31 150.292 120.654C144.209 124.998 137.492 126.021 135.294 122.941C133.093 119.858 136.243 113.841 142.33 109.497Z" fill="white"/>
<path fill-rule="evenodd" clip-rule="evenodd" d="M289.97 290.762C272.723 369.073 167.73 344.224 149.193 315.778C149.193 315.778 184.277 330.139 208.257 325.992C232.238 321.848 249.112 317.112 249.112 317.112C249.112 317.112 280.052 293.278 289.97 290.762Z" fill="#FFCFA5"/>
<path d="M149.713 298.167C149.713 298.167 237.213 300.55 283.221 283.851C284.76 284.857 289.528 287.166 291.066 288.173C285.569 311.459 265.076 327.285 241.742 333.375C217.835 339.615 187.752 335.248 167.345 327.097C154.914 322.132 146.875 315.485 149.802 315.485C150.512 315.485 162.504 319.482 167.122 320.192C167.122 320.192 175.117 314.153 169.298 303.407C169.298 303.407 157.618 302.429 149.713 298.167Z" fill="#541138"/>
<path d="M269.719 280.405C275.507 282.354 287.721 287.482 296.761 298.231C297.022 298.54 297.452 298.629 297.808 298.442C298.168 298.257 298.296 297.871 298.248 297.47C296.531 283.08 285.979 276.309 269.859 278.745C269.464 278.806 269.175 279.121 269.14 279.519C269.105 279.917 269.34 280.274 269.719 280.405Z" fill="#541138"/>
<path d="M284.043 290.055C284.043 290.055 255.355 302.49 176.662 304.267C176.662 304.267 180.038 317.233 171.687 323.094C173.852 323.594 251.492 350.852 284.043 290.055Z" fill="#632143"/>
<path d="M176.773 315.268C176.066 318.173 174.582 321.062 171.687 323.094C173.547 323.524 230.986 343.654 267.812 310.933C229.225 297.699 184.229 312.606 176.773 315.268Z" fill="#6F2947"/>
<path d="M170.635 302.754C170.635 302.754 178.821 314.997 191.08 314.555C203.336 314.109 212.898 302.815 212.898 302.815C212.898 302.815 226.31 312.717 234.305 313.163C242.296 313.606 257.928 302.4 261.483 296.094L253.667 293.874L170.635 302.754Z" fill="#541138"/>
<path fill-rule="evenodd" clip-rule="evenodd" d="M177.015 304.219C177.015 304.219 182.258 310.306 189.405 310.481C196.556 310.659 204.951 303.378 204.951 303.378L177.015 304.219Z" fill="#A2A5B7"/>
<path fill-rule="evenodd" clip-rule="evenodd" d="M180.557 307.303C182.758 308.841 185.844 310.395 189.405 310.481C192.781 310.567 196.431 308.987 199.349 307.299C190.328 304.363 184.159 305.672 180.557 307.303Z" fill="white"/>
<path fill-rule="evenodd" clip-rule="evenodd" d="M219.427 302.088C219.427 302.088 228.664 308.528 236.034 308.35C243.408 308.172 254.113 297.693 254.113 297.693C254.113 297.693 232.04 301.244 219.427 302.088Z" fill="#A2A5B7"/>
<path fill-rule="evenodd" clip-rule="evenodd" d="M224.762 305.184C228.021 306.806 232.273 308.44 236.034 308.35C239.21 308.274 242.997 306.29 246.284 304.054C236.773 300.894 229.244 303.006 224.762 305.184Z" fill="white"/>
<path d="M196.393 328.865C196.393 328.865 204.671 314.982 212.398 315.44C220.125 315.899 233.623 323.107 233.623 323.107C233.623 323.107 237.445 315.055 242.551 313.813C247.657 312.567 254.046 314.899 259.973 317.186C259.973 317.186 245.424 336.949 196.393 328.865Z" fill="#541138"/>
<path fill-rule="evenodd" clip-rule="evenodd" d="M202.553 328.824C202.553 328.824 208.904 320.472 211.745 320.517C220.478 320.654 226.692 324.263 231.702 327.97C225.514 329.744 210.391 330.493 202.553 328.824ZM237.757 326.632C243.723 325.091 249.653 322.861 255.336 319.737C251.291 317.357 244.465 317.135 242.742 318.275C241.019 319.415 238.726 323.17 237.757 326.632Z" fill="white"/>
<path fill-rule="evenodd" clip-rule="evenodd" d="M202.553 328.824C202.553 328.824 203.757 327.241 205.349 325.457C214.452 327.174 222.217 326.98 228.648 325.852C229.718 326.537 230.731 327.25 231.702 327.97C225.514 329.744 210.391 330.493 202.553 328.824ZM248.602 317.727C246.542 319.218 243.43 321.141 239.277 322.826C238.652 324.037 238.114 325.355 237.757 326.632C243.723 325.091 249.653 322.861 255.336 319.737C253.431 318.616 250.915 317.975 248.602 317.727Z" fill="#A2A5B7"/>
<path d="M114.842 183.145C124.671 174.326 134.644 172.427 144.097 175.122C151.318 177.186 155.697 183.327 161.478 191.13C166.284 197.615 176.932 203.393 183.977 193.57C190.784 184.081 180.579 155.419 170.883 166.353C161.249 134.484 136.233 133.732 119.769 147.157C110.759 154.502 105.902 166.474 104.902 178.759C104.194 187.474 110.472 187.066 114.842 183.145Z" fill="#541138"/>
<path fill-rule="evenodd" clip-rule="evenodd" d="M168.568 178.874C168.568 178.874 162.794 146.074 141.543 146.074C120.292 146.074 110.699 170.52 110.39 177.431C110.39 177.431 110.906 178.772 113.177 177.122C115.444 175.472 139.17 154.84 160.937 179.288C160.937 179.288 169.6 191.665 173.623 191.461C179.006 191.184 181.05 185.524 180.582 180.024C180.248 176.151 178.305 171.937 175.416 171.552C174.263 171.399 172.979 172.558 171.76 174.074C171.642 175.667 170.753 177.788 168.568 178.874Z" fill="#AA665A"/>
<path fill-rule="evenodd" clip-rule="evenodd" d="M168.568 178.874C168.568 178.874 168.027 175.81 166.673 171.551C165.994 172.137 165.134 172.414 163.981 172.246C158.06 171.367 155.258 162.308 140.969 161.531C130.895 160.983 118.747 164.359 110.562 177.673C110.855 177.966 111.581 178.281 113.176 177.122C115.444 175.472 139.17 154.839 160.937 179.288C160.937 179.288 169.6 191.665 173.623 191.458C179.005 191.184 181.05 185.524 180.582 180.024C180.248 176.151 178.305 171.937 175.416 171.551C174.263 171.398 172.979 172.558 171.759 174.074C171.642 175.666 170.753 177.788 168.568 178.874Z" fill="#81424B"/>
<path fill-rule="evenodd" clip-rule="evenodd" d="M140.249 147.631C147.731 147.631 153.474 152.399 153.474 155.18C153.474 157.961 147.731 157.696 140.249 157.696C132.771 157.696 126.385 157.961 126.385 155.18C126.385 152.399 132.771 147.631 140.249 147.631Z" fill="#BB7A66"/>
<path fill-rule="evenodd" clip-rule="evenodd" d="M277.109 179.154C298.64 179.154 315.893 197.876 315.893 220.436C315.893 242.996 298.841 259.982 277.309 259.982C255.778 259.982 237.923 242.996 237.923 220.436C237.923 197.876 255.578 179.154 277.109 179.154Z" fill="#D77D75"/>
<path d="M240.585 222.605C239.792 223.688 242.079 265.849 281.533 259.994C281.533 259.994 250.8 257.864 250.711 227.134L244.895 223.137L240.585 222.605Z" fill="#541138"/>
<path d="M274.866 185.047C293.897 185.047 309.15 200.354 309.15 218.799C309.15 237.241 294.076 251.127 275.045 251.127C256.011 251.127 240.226 237.241 240.226 218.799C240.226 200.354 255.832 185.047 274.866 185.047Z" fill="#541138"/>
<path fill-rule="evenodd" clip-rule="evenodd" d="M274.832 191.35C290.235 191.35 302.577 203.737 302.577 218.662C302.577 233.587 290.378 244.827 274.975 244.827C259.572 244.827 246.8 233.587 246.8 218.662C246.8 203.737 259.429 191.35 274.832 191.35Z" fill="#A2A5B7"/>
<path fill-rule="evenodd" clip-rule="evenodd" d="M272.226 195.115C281.743 197 285.473 207.658 282.839 219.557C280.208 231.453 272.21 240.088 262.696 238.202C253.183 236.314 246.344 224.991 248.975 213.094C251.606 201.195 262.712 193.226 272.226 195.115Z" fill="white"/>
<path fill-rule="evenodd" clip-rule="evenodd" d="M296.741 233.183C290.585 241.298 281.644 237.718 289.269 227.695C298.621 215.401 302.115 226.099 296.741 233.183Z" fill="white"/>
<path d="M279.303 207.151C285.899 207.151 291.247 212.499 291.247 219.098C291.247 225.694 285.899 231.042 279.303 231.042C272.704 231.042 267.356 225.694 267.356 219.098C267.356 212.499 272.704 207.151 279.303 207.151Z" fill="#541138"/>
<path d="M280.561 222.799C284.89 220.509 284.848 212.658 287.314 216.575C289.776 220.493 288.266 225.525 283.94 227.815C279.612 230.106 274.108 228.787 271.643 224.872C269.181 220.955 276.236 225.089 280.561 222.799Z" fill="#79364E"/>
<path fill-rule="evenodd" clip-rule="evenodd" d="M279.94 209.912C281.88 211.352 281.529 214.693 279.16 217.375C276.79 220.057 273.299 221.06 271.359 219.62C269.423 218.178 269.773 214.836 272.143 212.155C274.513 209.476 278.003 208.469 279.94 209.912Z" fill="white"/>
<path fill-rule="evenodd" clip-rule="evenodd" d="M286.947 223.121C287.909 224.029 287.479 225.841 285.989 227.169C284.495 228.497 282.507 228.838 281.549 227.934C280.587 227.026 281.017 225.214 282.507 223.885C284.001 222.554 285.989 222.213 286.947 223.121Z" fill="white"/>
<path d="M315.358 216.104C315.358 216.104 319.432 234.444 302.347 250.43C311.017 247.14 316.868 242.674 318.992 236.89C321.088 231.189 319.553 224.204 315.358 216.104Z" fill="#541138"/>
<path fill-rule="evenodd" clip-rule="evenodd" d="M143.97 190.697C161.322 190.697 175.225 207.227 175.225 227.144C175.225 247.06 161.481 262.055 144.132 262.055C126.783 262.055 112.393 247.06 112.393 227.144C112.393 207.227 126.621 190.697 143.97 190.697Z" fill="#D77D75"/>
<path d="M175.76 225.978C176.556 227.064 174.269 269.225 134.816 263.371C134.816 263.371 165.549 261.24 165.635 230.51L171.454 226.513L175.76 225.978Z" fill="#541138"/>
<path d="M147.916 194.978C163.743 194.978 176.426 208.864 176.426 225.596C176.426 242.327 163.889 254.924 148.063 254.924C132.236 254.924 119.11 242.327 119.11 225.596C119.11 208.864 132.09 194.978 147.916 194.978Z" fill="#541138"/>
<path fill-rule="evenodd" clip-rule="evenodd" d="M147.881 201.571C160.23 201.571 170.122 212.403 170.122 225.452C170.122 238.505 160.344 248.331 147.999 248.331C135.65 248.331 125.414 238.505 125.414 225.452C125.414 212.403 135.536 201.571 147.881 201.571Z" fill="white"/>
<path fill-rule="evenodd" clip-rule="evenodd" d="M154.576 205.647C162.14 208.587 167.507 216.397 167.507 225.414C167.507 236.896 158.904 245.544 148.043 245.544C141.578 245.544 135.768 242.48 132.127 237.581C134.405 238.482 136.886 238.973 139.472 238.973C150.336 238.973 158.939 230.329 158.939 218.846C158.939 213.875 157.305 209.272 154.576 205.647Z" fill="#B3B6C5"/>
<path d="M153.952 216.773C159.634 216.773 164.24 221.379 164.24 227.061C164.24 232.743 159.634 237.348 153.952 237.348C148.27 237.348 143.664 232.743 143.664 227.061C143.664 221.379 148.27 216.773 153.952 216.773Z" fill="#541138"/>
<path d="M155.251 229.864C158.697 228.039 158.665 221.783 160.627 224.905C162.59 228.023 161.389 232.033 157.942 233.858C154.496 235.683 150.11 234.632 148.145 231.514C146.183 228.392 151.805 231.689 155.251 229.864Z" fill="#79364E"/>
<path fill-rule="evenodd" clip-rule="evenodd" d="M154.757 219.595C156.299 220.745 156.022 223.404 154.133 225.541C152.244 227.675 149.464 228.478 147.922 227.328C146.378 226.181 146.658 223.519 148.543 221.385C150.432 219.248 153.213 218.448 154.757 219.595Z" fill="white"/>
<path fill-rule="evenodd" clip-rule="evenodd" d="M160.338 230.118C161.102 230.841 160.762 232.284 159.574 233.342C158.386 234.402 156.803 234.673 156.038 233.95C155.271 233.227 155.615 231.784 156.803 230.727C157.991 229.666 159.574 229.395 160.338 230.118Z" fill="white"/>
<path d="M113.008 231.115C113.008 231.115 113.18 248.311 131.73 259.02C123.318 257.883 117.174 255.118 114.081 250.401C111.03 245.754 110.95 239.208 113.008 231.115Z" fill="#541138"/>
<path d="M167.75 209.205C167.75 209.205 168.549 221.461 178.853 235.495C198.903 249.089 229.479 239.428 224.415 237.715C226.578 226.051 228.384 205.058 227.97 189.13C227.97 189.13 213.984 172.08 186.933 179.075C176.543 185.658 167.947 201.058 167.75 209.205Z" fill="#541138"/>
<path fill-rule="evenodd" clip-rule="evenodd" d="M187.29 178.826C187.29 178.826 174.515 195.016 175.228 209.17C175.556 215.604 183.452 230.953 189.599 236.559C196.549 238.995 218.809 238.336 228.501 239.043L229.565 188.063C229.565 188.063 217.131 171.72 187.29 178.826Z" fill="#FA8888"/>
<path fill-rule="evenodd" clip-rule="evenodd" d="M183.716 183.999C179.996 189.914 174.763 199.972 175.228 209.171C175.429 213.088 178.432 220.312 182.143 226.628C190.424 225.105 198.103 220.669 200.734 210.967C206.353 190.235 189.214 185.098 183.716 183.999Z" fill="#FBA39B"/>
<path fill-rule="evenodd" clip-rule="evenodd" d="M175.203 208.056C175.203 208.428 175.212 208.801 175.228 209.17C175.556 215.604 183.452 230.953 189.599 236.559C196.549 238.995 218.809 238.336 228.502 239.043L225.243 211.715C202.18 198.564 181.917 205.361 175.203 208.056Z" fill="#C64D60"/>
<path fill-rule="evenodd" clip-rule="evenodd" d="M223.746 238.814C225.527 238.871 227.138 238.945 228.501 239.043L229.565 188.063C229.565 188.063 227.686 185.286 224.24 183.391C222.389 187.678 216.978 200.81 216.682 208.46C216.354 216.977 222.746 235.909 223.746 238.814Z" fill="#B03554"/>
<path d="M195.816 233.093C191.759 231.561 184.494 231.851 181.251 232.915C160.351 239.763 152.777 262.53 165.855 276.777C184 296.543 239.041 292.985 242.194 259.647C243.331 247.611 234.181 236.11 221.752 233.625L195.816 233.093Z" fill="#541138"/>
<path fill-rule="evenodd" clip-rule="evenodd" d="M196.953 232.227C176.738 234.53 167.179 247.707 165.784 257.717C164.154 269.426 174.623 282.131 197.406 283.233C234.267 285.013 250.252 253.755 225.208 235.059C218.927 230.374 204.725 231.342 196.953 232.227Z" fill="#C64D60"/>
<path d="M161.749 255.38C165.421 265.113 179.544 265.247 196.998 261.39C210.933 264.702 239.898 258.036 237.156 244.366L229.782 238.684L177.292 236.906C177.292 236.906 162.813 247.742 161.749 255.38Z" fill="#541138"/>
<path fill-rule="evenodd" clip-rule="evenodd" d="M196.864 231.517C184.824 232.89 176.607 238.454 171.626 244.783C166.705 251.041 165.501 256.029 173.731 260.708C192.236 271.228 233.906 259.969 232.83 244.2C232.406 238.021 225.167 233.992 217.749 232.237C209.786 230.354 201.479 230.991 196.864 231.517Z" fill="#FA8888"/>
<path fill-rule="evenodd" clip-rule="evenodd" d="M185.044 235.243C185.044 235.243 223.679 247.235 182.824 261.001L175.273 257.153L171.868 247.678C171.868 247.678 175.272 241.167 185.044 235.243Z" fill="#FBA39B"/>
<path fill-rule="evenodd" clip-rule="evenodd" d="M192.58 232.211C182.843 234.275 175.992 239.234 171.626 244.783C166.705 251.042 165.501 256.029 173.731 260.708C185.764 267.55 207.591 265.18 221.09 258.351C204.209 263.285 173.96 262.017 174.463 251.456C175.053 239.021 192.596 232.211 192.596 232.211H192.58Z" fill="#FFCCBF"/>
<path fill-rule="evenodd" clip-rule="evenodd" d="M168.747 270.177C174.426 264.775 185.153 271.34 184.535 281.07C177.044 278.739 171.785 274.78 168.747 270.177ZM212.207 282.026C220.819 280.054 227.505 275.961 231.808 270.783C221.991 262.68 212.449 269.155 212.207 282.026Z" fill="#A82D4C"/>
<path d="M173.416 211.69C173.416 211.69 187.921 203.73 204.786 204.584C204.786 204.584 188.765 199.679 171.986 204.96L173.416 211.69Z" fill="#541138"/>
<path d="M212.465 279.911C212.465 279.911 216.793 265.441 231.263 270.288C231.263 270.288 224.714 264.148 218.274 267.183C211.834 270.215 212.465 279.911 212.465 279.911Z" fill="#541138"/>
<path d="M184.805 281.586C184.805 281.586 180.423 266.938 165.778 271.846C165.778 271.846 172.371 265.482 179.369 268.849C186.369 272.216 184.805 281.586 184.805 281.586Z" fill="#541138"/>
<path d="M234.983 172.322C230.938 160.273 222.746 160.149 217.685 165.439C211.598 171.797 209.057 187.904 217.073 198.621C222.405 205.75 233.346 209.384 247.3 201.335C263.98 191.713 275.016 183.696 302.659 188.967C306.825 189.76 318.046 191.398 314.74 180.686C303.72 145.004 250.644 145.109 234.983 172.322Z" fill="#541138"/>
<path fill-rule="evenodd" clip-rule="evenodd" d="M218.016 179.931C218.016 179.931 216.596 201.603 233.559 199.472C250.523 197.338 261.983 172.472 304.615 182.951C304.615 182.951 309.813 184.719 308.434 180.463C301.662 159.557 253.119 145.896 234.005 184.282C231.572 174.765 228.192 169.695 224.415 170.102C221.743 170.389 218.159 173.644 218.016 179.931Z" fill="#AA665A"/>
<path fill-rule="evenodd" clip-rule="evenodd" d="M218.026 182.706C218.309 188.48 220.412 201.122 233.56 199.472C250.523 197.338 261.983 172.472 304.615 182.951C304.615 182.951 309.721 184.687 308.469 180.575C278.625 159.076 254.211 181.757 239.818 190.474C226.928 198.284 219.956 186.687 218.026 182.706Z" fill="#81424B"/>
<path fill-rule="evenodd" clip-rule="evenodd" d="M259.199 162.907C267.241 159.792 275.274 161.783 276.309 164.452C277.344 167.121 270.987 169.452 262.945 172.57C254.902 175.685 248.22 178.409 247.188 175.74C246.153 173.074 251.157 166.025 259.199 162.907Z" fill="#BB7A66"/>
<path fill-rule="evenodd" clip-rule="evenodd" d="M367.743 134.43C338.59 96.5718 289.61 81.1975 242.57 83.0448C197.208 84.8252 146.649 99.8588 123.006 135.054C131.535 138.07 146.346 141.3 156.268 132.378C156.268 132.378 221.252 176.788 283.425 128.528C283.425 128.528 288.457 163.168 329.612 155.47C347.875 152.056 360.185 143.797 367.743 134.43Z" fill="#D77D75"/>
<path d="M92.343 177.613C72.2389 200.198 81.8514 229.103 102.312 240.996L102.608 184.967C102.618 183.285 102.615 181.629 102.64 179.995C100.178 179.173 95.0695 177.769 92.343 177.613Z" fill="#541138"/>
<path fill-rule="evenodd" clip-rule="evenodd" d="M96.6335 183.884C94.3466 186.611 78.8098 208.416 100.092 227.507V184.499C99.4108 184.365 97.3724 183.961 96.6335 183.884Z" fill="#81424B"/>
<path d="M412.382 111.258C412.382 111.258 415.044 65.6065 392.663 63.8292C370.281 62.052 375.788 95.4474 375.788 95.4474C385.675 110.608 397.874 125.766 407.76 140.924C423.625 151.212 436.846 150.364 440.824 143.485C446.822 133.104 436.687 111.258 412.382 111.258Z" fill="#541138"/>
<path fill-rule="evenodd" clip-rule="evenodd" d="M406.34 117.832C406.34 117.832 406.875 74.4898 391.953 72.5342C377.031 70.5785 385.914 100.779 385.914 100.779L395.329 127.779C395.329 127.779 428.725 146.253 433.518 140.746C438.315 135.239 428.725 115.52 406.34 117.832Z" fill="#AA665A"/>
<path fill-rule="evenodd" clip-rule="evenodd" d="M406.34 117.832C406.34 117.832 407.76 82.4812 392.841 80.5287C377.919 78.5731 385.914 100.779 385.914 100.779L395.329 127.779C395.329 127.779 423.839 142.552 428.635 137.045C433.429 131.541 424.874 118.039 406.34 117.832Z" fill="#81424B"/>
<path d="M321.725 104.42C292.716 129.464 308.418 160.525 347.187 144.3C372.291 133.793 346.416 98.5593 321.725 104.42Z" fill="#541138"/>
<path fill-rule="evenodd" clip-rule="evenodd" d="M330.134 107.882C315.782 118.476 312.068 130.585 315.702 136.614C320.101 143.908 336.517 143.373 351.983 134.35C366.906 125.648 345.056 98.6453 330.134 107.882Z" fill="#81424B"/>
<path d="M341.68 127.868C341.68 127.868 319.269 140.214 328.86 167.392C337.539 191.98 350.448 191.707 347.687 230.896C347.397 235.023 346.941 239.588 346.298 244.665C346.298 244.665 349.142 262.96 373.654 251.235C384.789 245.91 405.562 240.776 416.334 225.637C427.941 209.329 431.145 167.49 421.37 144.071C418.784 137.879 410.101 134.187 405.451 130.798C405.725 107.102 384.066 76.2956 359.978 72.3556C320.897 65.9632 317.878 103.531 341.68 127.868Z" fill="#541138"/>
<path fill-rule="evenodd" clip-rule="evenodd" d="M340.969 128.133C340.969 128.133 326.404 145.721 337.772 168.991C348.142 190.213 359.984 197.991 356.063 231.803C355.111 239.999 353.64 249.229 367.259 245.018C377.031 241.999 409.894 234.715 416.287 186.754C416.287 186.754 419.841 156.91 407.228 131.862C403.187 112.3 389.44 89.0009 356.78 83.0129L323.563 93.8485C323.563 93.8485 325.872 122.094 340.969 128.133Z" fill="#AA665A"/>
<path fill-rule="evenodd" clip-rule="evenodd" d="M340.969 128.133C340.969 128.133 337.638 145.017 350.206 167.659C360.427 186.069 367.683 200.51 361.539 227.956C359.739 236.005 353.643 249.226 367.259 245.018C377.031 241.999 409.894 234.715 416.287 186.754C416.287 186.754 419.841 156.91 407.228 131.862C403.186 112.3 389.44 89.0009 356.78 83.0129L323.563 93.8485C322.837 93.8485 323.917 122.094 340.969 128.133Z" fill="#81424B"/>
<path d="M101.698 191.907C47.9591 161.468 43.2006 79.2928 107.561 59.5677C107.561 59.5677 121.553 20.2544 175.435 11.2184C213.118 4.89602 234.802 14.3334 269.907 23.6497C288.113 28.4846 305.255 33.7177 332.803 24.7517C336.829 39.6738 340.498 57.4369 344.527 72.359C302.306 75.4389 260.088 78.5157 217.87 81.5957L156.229 98.8269L133.673 118.189C133.673 118.189 105.071 134.531 101.698 191.907Z" fill="#541138"/>
<path fill-rule="evenodd" clip-rule="evenodd" d="M100.137 178.281C91.7441 172.208 67.5472 151.731 69.8978 119.077C72.742 79.6431 105.427 58.3254 157.65 63.654C157.65 63.654 143.441 55.9271 118.747 57.9719C142.938 24.121 177.149 16.7571 208.779 19.7479C245.118 23.1846 274.914 39.594 305.621 38.2531L331.554 74.4896C331.554 74.4896 303.233 72.7474 268.71 73.6806C260.002 72.8652 251.128 72.6296 242.175 72.9831C220.609 73.8303 198.616 78.006 178.547 85.2806C172.307 87.2618 166.708 89.5646 161.972 92.2241C139.988 102.773 121.547 117.469 110.412 135.949C102.032 149.855 100.398 163.216 100.137 178.281Z" fill="#AA665A"/>
<path fill-rule="evenodd" clip-rule="evenodd" d="M69.7671 121.721C69.7926 120.848 69.834 119.969 69.8977 119.078C71.7546 93.3103 86.3581 75.2797 110.826 67.3616C114.422 74.7191 128.28 110.035 69.7671 121.721Z" fill="#BB7A66"/>
<path fill-rule="evenodd" clip-rule="evenodd" d="M125.461 49.5283C148.633 23.3407 178.932 17.2285 207.324 19.6173C214.984 48.611 151.069 50.0825 125.461 49.5283Z" fill="#BB7A66"/>
<path fill-rule="evenodd" clip-rule="evenodd" d="M255.46 29.7236C267.726 33.138 279.533 36.3772 291.305 37.7022C246.383 64.6256 201.454 46.0248 201.454 46.0248C238.815 47.1014 251.82 34.6063 255.46 29.7236Z" fill="#81424B"/>
<path fill-rule="evenodd" clip-rule="evenodd" d="M129.946 57.6757C126.5 57.5642 122.763 57.6374 118.747 57.9719C142.938 24.121 177.148 16.7571 208.779 19.7479C221.29 20.9327 233.031 23.6528 244.296 26.6595C167.708 15.499 137.252 47.8911 129.946 57.6757Z" fill="#CE9877"/>
<path fill-rule="evenodd" clip-rule="evenodd" d="M95.3625 174.52C85.0014 165.701 67.904 146.769 69.8979 119.078C72.7039 80.1656 104.564 58.8957 155.586 63.4599C131.812 64.2753 107.59 73.0852 92.6902 90.2686C73.7772 112.08 69.3882 145.402 95.3625 174.52Z" fill="#CE9877"/>
<path fill-rule="evenodd" clip-rule="evenodd" d="M100.137 178.282C71.4713 149.782 91.6838 113.558 117.572 126.139C115.053 129.279 112.46 132.55 110.412 135.949C102.032 149.855 100.398 163.216 100.137 178.282Z" fill="#81424B"/>
<path d="M104.94 120.915C113.845 132.678 148.658 137.86 156.497 116.421L140.326 96.2502C140.326 96.2502 112.571 95.8425 104.94 120.915Z" fill="#541138"/>
<path fill-rule="evenodd" clip-rule="evenodd" d="M104.717 120.766C104.717 120.766 139.358 131.955 149.48 113.303L128.697 94.2976C128.697 94.2976 108.268 87.0134 104.717 120.766Z" fill="#AA665A"/>
<path fill-rule="evenodd" clip-rule="evenodd" d="M113.336 122.842C123.394 124.702 139.654 125.823 147.582 116.128C141.457 110.478 134.02 103.267 130.914 98.8682C131.201 99.3013 148.069 123.804 113.336 122.842Z" fill="#81424B"/>
<path d="M200.817 45.891C200.817 45.891 241.083 54.9589 287.008 35.0936C307.746 26.1245 326.608 -1.64934 348.611 0.949675C367.119 3.13463 386.357 30.7014 366.46 59.1249C366.46 59.1249 376.821 87.2332 352.758 103.636C340.173 112.214 318.989 116.705 280.132 114.813C280.132 114.813 259.731 143.411 207.862 140.217C183.532 138.717 163.348 130.158 150.346 120.524C135.635 109.618 129.761 99.2695 128.962 94.562L158.007 81.0637L200.817 45.891Z" fill="#541138"/>
<path fill-rule="evenodd" clip-rule="evenodd" d="M200.285 45.3592C200.285 45.3592 227.995 63.6542 277.733 48.3786C288.769 44.9897 297.092 40.9511 303.71 36.7914C316.47 28.7745 322.891 20.2959 330.172 15.1138C346.17 3.72716 367.029 14.9577 365.37 35.3421C364.854 41.7091 362.914 48.213 356.605 57.9721C370.836 94.4379 334.153 104.49 309.112 106.837C280.619 109.506 241.156 102.162 219.026 117.036C219.026 117.036 242.917 111.172 268.496 114.013C250.631 128.572 230.775 132.933 211.305 132.136C178.54 130.795 145.537 113.227 126.299 93.2308L139.358 80.7963L178.792 56.9942L200.285 45.3592Z" fill="#AA665A"/>
<path fill-rule="evenodd" clip-rule="evenodd" d="M307.017 36.6765C318.62 29.4018 325.99 22.4042 328.226 25.9715C330.462 29.5387 326.717 42.3236 315.113 49.5951C303.51 56.8666 288.445 55.8761 286.209 52.3088C283.973 48.7383 295.414 43.948 307.017 36.6765Z" fill="#BB7A66"/>
<path fill-rule="evenodd" clip-rule="evenodd" d="M206.302 48.3658C216.959 52.8185 241.5 59.5071 277.733 48.3785C288.77 44.9896 297.092 40.9509 303.711 36.7912C316.47 28.7744 322.891 20.2958 330.172 15.1136C340.81 7.54274 353.595 9.97295 360.481 18.4452C330.761 0.841359 319.276 47.751 277.466 55.2264C250.902 59.9753 224.778 61.2048 206.302 48.3658Z" fill="#CE9877"/>
<path fill-rule="evenodd" clip-rule="evenodd" d="M357.077 59.2429C369.966 94.6704 333.861 104.519 309.113 106.837C293.62 108.29 274.886 106.78 257.457 107.494C288.037 92.839 241.449 83.0545 240.538 83.2647C312.387 90.1604 345.754 69.0306 357.077 59.2429Z" fill="#81424B"/>
<path fill-rule="evenodd" clip-rule="evenodd" d="M219.026 117.036C219.026 117.036 242.917 111.172 268.497 114.013C250.632 128.572 230.776 132.933 211.305 132.136C180.512 130.875 149.512 115.281 129.924 96.814C153.156 110.325 199.215 120.616 219.026 117.036Z" fill="#81424B"/>
<path d="M362.554 47.0439C362.554 47.0439 355.805 69.9605 312.463 79.5539C312.463 79.5539 347.011 82.7517 363.354 60.5455L362.554 47.0439Z" fill="#541138"/>
<path fill-rule="evenodd" clip-rule="evenodd" d="M353.264 17.3911C353.264 17.3911 346.604 73.6394 250.976 77.6367C250.976 77.6367 314.776 86.2236 343.938 62.9822C373.101 39.7407 353.264 17.3911 353.264 17.3911Z" fill="#81424B"/>
<path fill-rule="evenodd" clip-rule="evenodd" d="M189.832 80.2992C215.545 81.57 236.388 85.2966 236.388 93.186C236.388 101.075 215.545 110.14 189.832 108.869C164.118 107.598 143.275 96.4698 143.275 88.5804C143.275 80.6909 164.118 79.0283 189.832 80.2992Z" fill="#BB7A66"/>
<path d="M372.712 223.764C382.506 204.542 402.234 194.318 419.826 195.366C441.048 196.634 458.671 214.489 456.492 246.42C454.514 275.391 432.687 301.824 406.563 303.401C387.105 304.579 373.285 291.775 374.547 274.588C375.54 261.039 374.368 267.769 369.982 256.268C365.447 244.365 367.033 234.909 372.712 223.764Z" fill="#541138"/>
<path fill-rule="evenodd" clip-rule="evenodd" d="M381.913 223.006C416.083 185.148 458.26 213.454 445.188 258.771C439.933 276.987 425.925 293.087 405.897 295.256C362.743 299.932 359.452 247.888 381.913 223.006Z" fill="#FA8888"/>
<path fill-rule="evenodd" clip-rule="evenodd" d="M381.914 223.006C416.083 185.148 458.26 213.454 445.188 258.771C443.545 264.469 441.044 269.957 437.773 274.878C445.427 257.803 447.851 233.361 434.948 221.245C420.918 208.071 390.227 208.288 371.323 241.454C373.636 234.625 377.206 228.22 381.914 223.006Z" fill="#FBBAAD"/>
<path fill-rule="evenodd" clip-rule="evenodd" d="M432.002 232.176C432.002 232.176 446.657 275.697 400.027 278.509C400.027 278.509 414.535 274.808 414.535 258.972C414.535 243.133 400.916 236.027 400.916 236.027C400.916 236.027 411.723 221.815 432.002 232.176Z" fill="#C64D60"/>
<path d="M385.866 260.635C389.179 248.955 398.46 237.855 409.56 233.227C417.921 229.74 430.957 229.746 435.961 236.301C433.126 215.719 386.398 221.146 385.866 260.635Z" fill="#541138"/>
<path d="M402.83 235.055C427.151 244.496 423.265 278.162 398.746 278.754C420.042 269.011 414.181 247.104 396.348 239.674C399.011 237.899 400.167 236.832 402.83 235.055Z" fill="#541138"/>
<path fill-rule="evenodd" clip-rule="evenodd" d="M399.759 246.05C402.925 245.531 408.56 250.975 409.678 257.775C410.793 264.578 406.967 270.168 403.804 270.687C400.639 271.206 399.333 266.46 398.215 259.657C397.1 252.854 396.593 246.573 399.759 246.05Z" fill="#FBA39B"/>
<path fill-rule="evenodd" clip-rule="evenodd" d="M374.419 279.028C387.64 297.575 418.701 296.734 431.409 279.028C431.409 279.028 403.878 293.683 374.419 279.028Z" fill="#C64D60"/>
<path d="M428.002 560.557C427.718 559.665 427.301 558.773 426.728 557.866C425.504 555.926 423.734 554.582 421.596 553.852C420.042 553.324 418.405 553.161 416.777 553.257L396.762 554.435C395.304 554.521 393.864 554.821 392.517 555.4C390.345 556.34 388.612 557.913 387.523 560.06C387.261 560.576 387.045 561.108 386.876 561.653L428.002 560.557Z" fill="#541138"/>
<path fill-rule="evenodd" clip-rule="evenodd" d="M422.046 560.713C421.415 559.961 420.574 559.366 419.478 558.993C418.567 558.681 417.5 558.538 416.265 558.608L397.903 559.691C396.82 559.754 395.88 559.977 395.078 560.325C394.37 560.627 393.778 561.019 393.288 561.484L422.046 560.713Z" fill="#B0C7D3"/>
<path fill-rule="evenodd" clip-rule="evenodd" d="M396.132 559.965C395.759 560.064 395.406 560.181 395.078 560.325C394.37 560.627 393.778 561.022 393.288 561.484L394.24 561.459C394.718 560.933 395.342 560.433 396.132 559.965Z" fill="#7B84A1"/>
<path fill-rule="evenodd" clip-rule="evenodd" d="M395.883 553.324C395.883 553.324 400.209 554.894 401.381 561.267L412.114 560.981C412.579 557.42 413.888 553.499 417.21 551.623C416.758 550.569 404.83 547.329 395.883 553.324Z" fill="#6C7559"/>
<path fill-rule="evenodd" clip-rule="evenodd" d="M406.076 547.584C409.713 547.584 412.589 549.068 412.589 550.212C412.589 551.355 409.713 551.731 406.076 551.731C402.438 551.731 399.419 551.355 399.419 550.212C399.419 549.068 402.438 547.584 406.076 547.584Z" fill="#8A9B65"/>
<path d="M394.122 550.562C396.008 552.228 398.234 556.069 399.655 561.312L403.4 561.213C402.668 556.477 399.963 552.139 394.122 550.562Z" fill="#541138"/>
<path d="M419.784 548.97C417.755 550.763 415.334 555.072 413.943 560.93L410.347 561.028C410.735 555.767 413.369 550.702 419.784 548.97Z" fill="#541138"/>
</svg>
