<svg width="1327" height="547" viewBox="0 0 1327 547" fill="none" xmlns="http://www.w3.org/2000/svg">
<path fill-rule="evenodd" clip-rule="evenodd" d="M48.5705 28.7305L1277.43 0.353943C1288.46 0.438757 1297.87 9.38322 1297.48 20.404L1326.84 506.527C1326.45 517.546 1317.81 526.281 1306.78 526.576L20.5982 546.764C9.57834 547.055 0.82345 537.735 0.549072 526.71L28.5172 48.7797C28.2473 37.7555 37.5423 28.6463 48.5705 28.7305Z" fill="#F0554D"/>
<mask id="mask0_83_3544" style="mask-type:luminance" maskUnits="userSpaceOnUse" x="0" y="0" width="1327" height="547">
<path d="M48.5705 28.7305L1277.43 0.353943C1288.46 0.438757 1297.87 9.38322 1297.48 20.404L1326.84 506.527C1326.45 517.546 1317.81 526.281 1306.78 526.576L20.5982 546.764C9.57834 547.055 0.82345 537.735 0.549072 526.71L28.5172 48.7797C28.2473 37.7555 37.5423 28.6463 48.5705 28.7305Z" fill="white"/>
</mask>
<g mask="url(#mask0_83_3544)">
<path fill-rule="evenodd" clip-rule="evenodd" d="M564.578 213.065C564.314 214.594 564.39 216.183 564.82 217.785L632.762 470.761C633.887 474.95 637.227 477.561 641.519 478.736L927.183 557.019C931.502 557.827 935.672 556.319 938.483 552.953L1114.05 342.797C1116.53 339.832 1117.16 336.238 1116.23 332.625C1116.5 330.798 1116.3 328.862 1115.74 326.987L1087.4 232.312C1086.18 228.24 1082.7 225.198 1078.33 224.989L852.455 214.218C848.972 214.053 845.791 214.665 843.128 216.919L807.846 246.788C804.422 249.688 803.039 253.914 804.138 258.135L804.26 258.605C804.008 260.103 804.074 261.668 804.482 263.233L814.669 302.339C815.825 306.777 819.447 309.687 824.093 310.495L977.973 337.27C982.367 338.033 985.827 340.619 987.195 344.735L987.199 344.742C986.768 347.004 985.601 349.162 983.947 351.13L905.763 444.245C903.288 447.194 899.367 448.252 895.597 447.455L728.653 412.156C724.378 411.254 721.179 408.639 719.747 404.634L714.733 390.636L677.374 235.533C676.367 231.347 677.432 227.459 680.346 224.123L791.69 96.7038C794.334 93.6771 798.356 92.9473 802.314 93.6121L1159.34 153.669C1162.88 154.08 1169.67 157.212 1172.83 164.051L1264.7 362.583C1264.93 363.066 1265.12 363.556 1265.28 364.05C1265.08 366.15 1264.3 368.139 1262.7 369.858L1094.98 550.843L681.151 616.746L546.653 587.972C542.642 587.113 539.455 584.553 538.383 580.702L427.371 181.849C427.33 181.698 427.275 181.554 427.23 181.404C427.584 179.308 428.649 177.414 430.266 175.769L575.647 27.6906L740.737 1.40027L566.869 202.543C564.346 205.465 563.499 209.05 564.475 212.688L564.578 213.066L564.578 213.065ZM1132.44 -60.9791L1170.77 46.9118C1170.95 47.4107 1171.09 47.9016 1171.22 48.3845C1170.48 53.0541 1166.51 55.8647 1160.22 54.8175L791.178 -6.63281L1132.44 -60.9789L1132.44 -60.9791Z" fill="#FE7454"/>
</g>
</svg>
