<svg xmlns="http://www.w3.org/2000/svg" width="1340" height="600" fill="none" viewBox="0 0 1340 600"><path fill="#f0554d" fill-rule="evenodd" d="m54.6 66.7 1228.8-28.3c11 0 20.5 9 20 20l29.4 486.1c-.3 11-9 19.8-20 20L26.6 584.9c-11 .3-19.8-9-20-20l28-478c-.4-11 9-20.2 20-20" clip-rule="evenodd"/><mask id="a" width="1327" height="547" x="6" y="37" maskUnits="userSpaceOnUse" style="mask-type:luminance"><path fill="#fff" d="m54.6 65.7 1228.8-28.3c11 0 20.5 9 20 20l29.4 486.1c-.3 11-9 19.8-20 20L26.6 583.9c-11 .3-19.8-9-20-20l28-478c-.4-11 9-20.2 20-20"/></mask><g mask="url(#a)"><path fill="#fe7454" fill-rule="evenodd" d="M570.6 250a11 11 0 0 0 .2 4.8l68 253c1 4.1 4.4 6.8 8.7 8L933.2 594c4.3.8 8.5-.7 11.3-4L1120 379.8a11 11 0 0 0 2.2-10.2q.4-2.7-.5-5.6l-28.3-94.7a10 10 0 0 0-9-7.3l-226-10.8c-3.4-.1-6.6.5-9.3 2.7l-35.3 29.9a11 11 0 0 0-3.7 11.3l.2.5a11 11 0 0 0 .2 4.6l10.2 39.1c1.1 4.5 4.7 7.4 9.4 8.2L984 374.3c4.4.7 7.8 3.3 9.2 7.4q-.7 3.5-3.3 6.4l-78.1 93.1c-2.5 3-6.4 4-10.2 3.3l-167-35.3q-6.5-1.6-8.9-7.6l-5-14-37.3-155q-1.5-6.4 3-11.5l111.3-127.4c2.6-3 6.7-3.8 10.6-3l357 60c3.6.4 10.4 3.5 13.5 10.4l91.9 198.5.6 1.4q-.2 3.2-2.6 5.9l-167.7 181-413.8 65.8L552.7 625c-4-.9-7.2-3.4-8.3-7.3l-111-398.9-.2-.4q.6-3.1 3-5.6L581.7 64.7l165.1-26.3L573 239.5q-3.9 4.6-2.4 10.2zm567.8-274 38.4 108 .4 1.4c-.7 4.7-4.7 7.5-11 6.4l-369-61.4z" clip-rule="evenodd"/></g><path fill="#541138" d="M893.2 69.7s9-48 64.3-39c0 0 44.7-7 65.5 36.5 0 0 5.9 3.4 5.2 13 0 0 28.7 25 6 59.9 0 0-1.5 25.6-19.4 30.2S856.5 108.8 893.2 69.7"/><path fill="#a96e68" fill-rule="evenodd" d="M1015.1 67.3c-18-46.1-97-32.6-115.7 9.2-2.7 2.9-3.5 2.2-4 6.3-1 8.7 7.2 18.6 12.9 24.3 10.5 10.6 24.1 20 37 27.5 13.5 8 28 15.3 42.7 21 4.1 1.7 20 7.5 24.2 6.8 24-6.2 19.7-48-16.4-56.4a75 75 0 0 0-43 4.3l-2.4-1.7c-.6-.4 54.4-27.5 81.8 21.2 9-15.7 2-35.8-11.1-46.1-9.6-1.8-58.5-9.7-83 23.2l-4.6-3.4s26-33.3 87.8-23.4c2.2-11-26.7-19.4-54.6-18-20.4 1-38.8 7-52 22.2l-3.6-4.1s39-38.1 104-12.9M953 36.6a44 44 0 0 0-47.5 21.3c8-6.5 24-16.7 47.5-21.3" clip-rule="evenodd"/><path fill="#c1887a" fill-rule="evenodd" d="M1015.1 67.3c-7.4-18.9-25-27.8-44.6-28.8 10.9 2.1 36 8.7 27.7 23.5q8.1 1.9 17 5.3m19.8 37.3a41 41 0 0 0-13.8-21c-3-.5-10-1.7-19-2 9.8 1.4 25 6.3 32.8 23M1001 78.3q9.4.1 20.2 1.8c1-5.3-5-10-14.9-13.3 4.3 3.1 9.3 8.8-5.2 11.5" clip-rule="evenodd"/><path fill="#904856" fill-rule="evenodd" d="M967 38.4q-10.4 0-20.6 2.6c1.6 7 1 14.2-.9 21.1q12-3.4 27.5-3.4c-3.2-7.3-5-14.4-6-20.3m59.7 108.1c3-14.8-7-35-30.9-40.5a75 75 0 0 0-43 4.3l-2.4-1.7c-.6-.4 54.4-27.5 81.8 21.2 4.3-7.6 5-16.2 3-24.3a90 90 0 0 1-46.4-23.6c-17.4 1.4-37.6 7.3-50.7 25l-4.6-3.4s16-20.4 52.5-24.5q-7.4-8.4-11.5-17h-7.8q-11.7.7-22.2 3.6c-5.8 18-18.8 33-18.8 33s16.2 36.9 29 39.3c8.2 1.5 45 6 72 8.6m-81-108.3-.6-2.4q3.8 0 7.8.8z" clip-rule="evenodd"/><path fill="#541138" d="M834.5 75.2c-12.6-1.2-16.8 21.7 9 29 16.4 4.8 29.9-11 29.9-11-1.3-3.3-2.8-9.5-6-16C864.9 70.7 864 66 861 62c-9.2-12.3-21-14.2-26.9-9-4.3 4-5.1 12.2.3 22.2"/><path fill="#ffc57b" fill-rule="evenodd" d="M873.1 91.5c-1.9 1.8-9 4.2-11 5.5-5.2 3.2-11.3 5-17.4 3.2-14.9-4.3-18.7-14.4-15.2-19.2 2.1-2.8 7.3-3.7 13.1-.4l-3.8-7c-9.5-17.6 4.1-24.4 18.2-9.7A91 91 0 0 1 873 91.5" clip-rule="evenodd"/><path fill="#fff" fill-rule="evenodd" d="M832 93c-4-4.2-4.6-9-2.5-12 2-2.6 6.6-3.5 11.9-1-3.2 0-12.4.8-9.4 13m10.3-13-3.5-6.4c-9-16.6 2.7-23.6 15.8-12-27-12.4-12 18.5-12.3 18.4" clip-rule="evenodd"/><path fill="#541138" d="M840.8 62.2c2-2.8 7-1 11.5 4.1s6.4 11.5 4.5 14.3-7 1-11.5-4.1-6.5-11.5-4.5-14.3"/><path fill="#ca5a57" fill-rule="evenodd" d="M842.8 64.2q.8-1 2.7-.4c0 2.4 1.7 6.5 4.1 9.3 1.8 2 4 3.6 5.8 4.2q0 .8-.4 1.4c-1.3 1.9-5.4-.3-8.4-3.7s-5.1-9-3.8-10.8" clip-rule="evenodd"/><path fill="#541138" d="M831.6 83.8c.8-2.6 5.3-2.5 10 .4 4.9 2.8 8 7.3 7.3 10s-5.3 2.5-10-.3c-4.8-2.9-8-7.4-7.3-10"/><path fill="#ca5a57" fill-rule="evenodd" d="M833.7 85q.5-1.2 2-1c.6 1.8 3 4.5 5.7 6 1.9 1.2 4 2 5.5 2q.2.6 0 1.1c-.5 1.8-4.2 1.2-7.4-.7-3.2-2-6.3-5.7-5.8-7.5" clip-rule="evenodd"/><path fill="#541138" d="m925.8 114.4-60.2-14.2-2.2-.5-1-2.1a93 93 0 0 1-7.8-48.6c2-12.6 7.9-24 18-32a60 60 0 0 1 74.4 3.8A52 52 0 0 1 962 64.6c-2.6 20.6-15.9 37.3-32.4 49.1l-1.7 1.2zm2.6-38a31 31 0 0 0 3-11.6c.4-8.3-2.9-17-9.8-22a21 21 0 0 0-7.4-3.5c-8-2-16.5-1.1-23.2 3.6a25 25 0 0 0-10 15.8q-.4 1.8-.5 3.6A25 25 0 0 1 893 50.2a26 26 0 0 1 20 .1c7.9 3.5 13 11.1 14.7 19.4q.6 3.3.6 6.6"/><path fill="#ffc57b" fill-rule="evenodd" d="M866.7 95.8C841.2 34.3 879 2 922.8 12.4c37.3 8.9 53.5 62.3 4 97.7zm50.4.4c29.7-21.4 20.6-56-1.9-61.3-26.4-6.3-50 15.6-34.5 52.8l.9 2c-3.5-26.9 9.6-39 25-36.6 15 2.4 24.4 23 10.5 43" clip-rule="evenodd"/><path fill="#ffe38a" fill-rule="evenodd" d="M858.5 62.5C856.6 23 888 4 922.8 12.5q10.4 2.5 18.2 9l-26.6 13.2c-16.1-3.5-31 3.5-36.5 18.1z" clip-rule="evenodd"/><path fill="#fff" fill-rule="evenodd" d="M861.4 80.2C848 28.9 883 2.9 922.8 12.4A45 45 0 0 1 951.5 34a45 45 0 0 0-26-17.3c-38.2-9.1-73 15.9-64.1 63.5m64 8.6c12-13.3 12.9-29.1 7-40.3 11.3 17.5 7.3 32.3-14.7 48 2.7-3.8 6.7-4 7.7-7.7m-44.2-3.2c-1.8-24 10.8-34.8 25.5-32.5-16.5-.4-25.9 14-22.4 41l-.9-2.2q-1.3-3.1-2.2-6.3" clip-rule="evenodd"/><path fill="#541138" d="M901.1 58.6c6.3 0 10.9 6.6 10.2 14.8-.7 8.1-6.3 14.8-12.6 14.8s-10.8-6.7-10.1-14.8c.6-8.2 6.3-14.8 12.5-14.8"/><path fill="#dd765f" fill-rule="evenodd" d="M900.8 62.1q1.5 0 3 .7c-4 1-7.4 5.6-7.8 11-.4 4.9 1.6 9 4.8 10.6l-1.8.3c-4.8 0-8.2-5-7.7-11.3S896 62 900.8 62" clip-rule="evenodd"/><path fill="#f17c61" fill-rule="evenodd" d="m866.7 95.8-.4-.9 54.3 12.9C966.2 75 956 27.2 925 13c35.7 10.4 50.3 62.3 1.8 97zm29.6-60.5c-12.7 4-21.7 16-20.4 33.5-.2 1 2.1 10.4 2 11.4-.7 4.5-3.3 1.4-2.5 7.2l-1-2c-19-47.4 17.2-50.2 22-50M907 53.2c11 1.9 18.8 13.7 16.4 27.9-1 5.7-2 8.4-2.7 9.3-2.8 3.6-5.5.3-9.8 3.5 11.7-17 6.8-34.3-4-40.7" clip-rule="evenodd"/><path fill="#541138" d="M914.3 60.6s6.5 13.3-2.8 26.8l6.6-.3s6-13.2-3.8-26.5M985.9 84.4c12.6-1.2 16.8 21.7-9 29-16.5 4.8-29.9-11.1-29.9-11.1 1.3-3.2 5.1-9 8.4-15.5 12.8-42 45.5-30.1 30.5-2.4"/><path fill="#f17c61" fill-rule="evenodd" d="M947.3 100.7c1.9 1.8 9 4.2 11 5.5 5.2 3.2 11.3 5 17.4 3.2 14.9-4.3 18.7-14.4 15.2-19.2-2.1-2.8-7.3-3.7-13.1-.4l3.8-7c9.5-17.6-4.1-24.4-18.2-9.8a91 91 0 0 0-16.1 27.7" clip-rule="evenodd"/><path fill="#541138" d="M968.6 92.5c6.4-.6 14.9-4.5 17 0 2.2 4.3-1.9 16.9-14.7 20.5-16.4 4.7-29.8-11.1-29.8-11.1 1.2-3.3 5-9 8.3-15.5 8.7-28.4 26.4-32.2 32.4-23.2 6.3 9.6-10 23.4-13.2 29.3"/><path fill="#ffc57b" fill-rule="evenodd" d="M941.3 100.3c2 1.8 9 4.2 11 5.4 5.3 3.3 11.3 5 17.4 3.2 14.9-4.2 18.7-14.3 15.2-19.1-2-2.9-7.2-3.7-13-.4l3.7-7c9.6-17.6-4-24.4-18.1-9.8a91 91 0 0 0-16.2 27.7" clip-rule="evenodd"/><path fill="#ffe38a" fill-rule="evenodd" d="M978.3 75.8c3.1-12.5-8.7-15.9-20.8-3.2a59 59 0 0 0-7.4 9.8z" clip-rule="evenodd"/><path fill="#541138" d="M980.4 91.5c2.5 1.6 1 6-3.5 9.9-4.4 3.8-10 5.5-12.4 4-2.5-1.7-.9-6.1 3.5-10 4.4-3.7 10-5.5 12.4-3.9"/><path fill="#ca5a57" fill-rule="evenodd" d="M978.7 93.3q.9.7.4 2.2c-2.2 0-5.7 1.6-8 3.7a12 12 0 0 0-3.7 4.9q-.7 0-1.2-.3c-1.6-1.1.2-4.6 3.1-7.2 3-2.6 7.7-4.4 9.4-3.3" clip-rule="evenodd"/><path fill="#541138" d="M912.7 10.5c7.3.9 34.4 6.8 38.9 42.4 0 0 3-27.5-19-41l-12.7-3.1zM911.1 34.1s-23-5.1-35.6 9.2c0 0 15-11.6 39.8-4.3l.9-1.8z"/><path fill="#721d49" fill-rule="evenodd" d="M969.3 70.9c3.5 1 3.3 6.9-.6 13-3.8 6.2-9.8 10.3-13.4 9.3s-3.2-7 .6-13c3.8-6.2 9.8-10.4 13.4-9.3" clip-rule="evenodd"/><path fill="#ca5a57" fill-rule="evenodd" d="M967.8 73.6q1.5.5 1.3 2.5c-2.5.8-6.2 4-8.2 7.3a15 15 0 0 0-2.5 7.2 3 3 0 0 1-1.6 0c-2.4-.6-1.5-5.5 1-9.6 2.7-4.2 7.6-8.1 10-7.4" clip-rule="evenodd"/><path fill="#fff" fill-rule="evenodd" d="M888.3 9c3.6 0 6.6 3 6.6 6.6s-3 6.6-6.6 6.6c-3.7 0-6.7-3-6.7-6.6s3-6.5 6.7-6.5" clip-rule="evenodd"/><path fill="#541138" d="M971.8 108.6s40.7-1.1 54.8 37.1-54.4 18-54.4 18-8-2-4.9-9.6c3.1-7.7 4.5-45.5 4.5-45.5"/><path fill="#f17c61" fill-rule="evenodd" d="M976 114.8s32.3-1 43.5 29.5-43.2 14.3-43.2 14.3-6.3-1.6-3.9-7.7c2.5-6 3.6-36.1 3.6-36.1" clip-rule="evenodd"/><path fill="#fff" fill-rule="evenodd" d="M892 55.9c1.4 1 1 4-.9 6.8s-4.6 4.2-6 3.2-1-4 .8-6.7c2-2.8 4.6-4.3 6-3.3M937 68.7c1.7.3 2.5 2.7 1.8 5.4-.7 2.6-2.7 4.5-4.4 4.2s-2.5-2.7-1.7-5.3c.7-2.7 2.6-4.6 4.3-4.3" clip-rule="evenodd"/><path fill="#fff" fill-rule="evenodd" d="M926.8 63.3c7.7 7.8 11.2 7.8 19.5 0-8.3 7.8-8.3 11.3 0 19.2-8.3-7.9-11.8-7.9-19.5 0 7.7-7.9 7.7-11.4 0-19.2" clip-rule="evenodd"/><path fill="#7d3453" fill-rule="evenodd" d="M732.3 143.2s-57 1.3-64.7 70.3 37.6 119 37.6 119 40 24.5 52.3 7.3c12.4-17.3 6.9-192.6-25.2-196.6" clip-rule="evenodd"/><path fill="#541138" d="M727 101.6s-29 19-38.6 42.6c-9.6 23.5 49.3 17 49.3 17z"/><path fill="#e0ae87" fill-rule="evenodd" d="M722.6 113.1s-18.3 12-24.4 27c-6.1 14.8 31 10.7 31 10.7z" clip-rule="evenodd"/><path fill="#c1887a" fill-rule="evenodd" d="M728.5 115.6a33 33 0 0 0-22.6 27.8c-.9 16 29.3 9.9 29.3 9.9z" clip-rule="evenodd"/><path fill="#541138" d="M687.4 349.4c10.3 0 18.6 8.2 18.6 18.4s-8.3 18.4-18.6 18.4a18.5 18.5 0 0 1-18.6-18.4c0-10.2 8.4-18.4 18.6-18.4"/><path fill="#f17c61" fill-rule="evenodd" d="M687.4 357.2c6 0 10.7 4.7 10.7 10.6s-4.8 10.5-10.7 10.5-10.7-4.7-10.7-10.5c0-5.9 4.8-10.6 10.7-10.6" clip-rule="evenodd"/><path fill="#ffc57b" fill-rule="evenodd" d="M687.2 368.9c4 0 7.4 1.4 7.4 3.7 0 2.2-3.3 4.4-7.4 4.4-4 0-7.4-2.2-7.4-4.4s3.3-3.7 7.4-3.7" clip-rule="evenodd"/><path fill="#541138" d="M733.3 422.3s12.3 15.9-3.7 27.2c0 0 18.9 1.3 24-11.8 5-13-20.3-15.4-20.3-15.4"/><path fill="#541138" d="M727.6 397.8c.7 53 60.4 57.4 91.2 43.9 0 0 13 37.8 65.8 25.9 0 0 24.7-5.8 15.9 17.6 0 0 16.7-1 18.3-19 0 0 34 26.5 62.3-5.2 0 0 40.8 10 57.2-33.7 0 0 13.3 8.6 28.4-3.5 0 0-16.8.3-17.4-11.7 0 0 18.5.5 21.2-22.4 2.8-22.8.5-53 .5-53l-32.4-53.2s-108.9-6.2-113.7-4.1c-4.8 2-53 15-60.6 23.9s-136.7 94.5-136.7 94.5M692.6 373s11 23.9-9 44.3c0 0 25.6-7.5 25.2-34.4-.3-27-16.2-9.9-16.2-9.9"/><path fill="#904856" fill-rule="evenodd" d="M736.8 405.7s7 49.8 81.3 28.3l3.4-1.5s12 28.5 38 29.3 44.7-11.2 48.7 12.5c0 0 9.1-8.2 4.5-21.8 0 0 19.3 21.6 39.6 17.3 20.3-4.2 26.2-17.2 26.2-17.2s52.7 11.3 59-45c0 0 2.3 4.5 2.2 12.6 0 0 1.5 5.7 13.1 4.9 0 0-10.8-4.8-7.4-17.2 0 0 18.5.4 20-18.9 1.6-19.2 2-46.7 2-46.7s-8-36.1-13.9-38.9c-5.8-2.7-66.1-17-71.6-15.7s-108.3 2-115.8 6.2c-7.6 4-131 63-129.3 111.8" clip-rule="evenodd"/><path fill="#a96e68" fill-rule="evenodd" d="M765 422c7.5 3.7 12.3 9.1 10.8 12.1s-8.8 2.5-16.3-1.2c-7.4-3.6-12.3-9-10.8-12s8.8-2.5 16.3 1.2" clip-rule="evenodd"/><path fill="#7d3453" fill-rule="evenodd" d="M905.5 398.7c-9.7 2.9-17.8 22.6-4.5 39.3 0 0-25.3-11.8-18.1-33.4z" clip-rule="evenodd"/><path fill="#7d3453" fill-rule="evenodd" d="M1032.9 426.2a68 68 0 0 0 4.5-18.6s2.4 4.5 2.3 12.6c0 0 1.5 5.7 13.1 4.9 0 0-10.8-4.8-7.4-17.2 0 0 18.5.4 20-18.9 1.6-19.2 2-46.7 2-46.7s-8-36.1-13.9-38.9c-5.8-2.7-66.1-17-71.6-15.7s-108.3 2-115.8 6.2c-2.1 1.1-13.2 6.5-28 14.7 15 45-76.2 102.2-76.2 102.2 73.3 59.1 126.2-24.7 204.2-25.1 27.8-.2 53.3 10.4 66.8 40.5" clip-rule="evenodd"/><path fill="#541138" d="M825.2 413.4s-9.6 27.3 2.4 66.2l-75.7-5s35.6-22.1 23-68.4c0 0 6.2-12.6 17.2-12.2 11 .3 33.1 19.4 33.1 19.4"/><path fill="#ffd6b6" fill-rule="evenodd" d="M817.5 412.4s-6.6 36.1 1.5 66.3l-61-2.6s34.1-24 22.4-69.7c0 0 7.3-4.8 16.7-2.2 9.5 2.5 20.4 8.2 20.4 8.2" clip-rule="evenodd"/><path fill="#de7c79" fill-rule="evenodd" d="M817.5 412.4s-4.3 23.7-1.6 48.8c-8.7-21.4-25.3-26.7-35.8-17.4 3.2-10 3.9-22.7.3-37.4 0 0 7.3-4.8 16.7-2.2 9.5 2.5 20.4 8.2 20.4 8.2" clip-rule="evenodd"/><path fill="#541138" d="M787.7 155.5c-101.5 17.7-90 57.2-90.2 122.3 0 0-.4 27.9-9.3 55.8 0 0-11 36.6 24 63 53.9 40.9 144.6 26 192.6-16.4 47.3-41.8 62-103.3 32-160-19.2-36.3-58-68.6-149.1-64.7"/><path fill="#ffc7a9" fill-rule="evenodd" d="M789.6 163.6c-95.2 16.6-84.4 53.7-84.6 114.8 0 0-.4 26.1-8.8 52.3 0 0-10.3 36 22.5 60.9 50.6 38.3 135.7 22.6 180.7-17.2 44.4-39.2 59-97 30.9-150.2-18-34-55.2-64.2-140.7-60.6" clip-rule="evenodd"/><path fill="#dc7577" fill-rule="evenodd" d="M831.8 408.5a162 162 0 0 0 67.6-34.1c26-23 41.7-52.1 44.7-83.1-28 4.1-64.2 16.2-64.2 16.2 5.8 1.3 32.3 72.8-48.1 101" clip-rule="evenodd"/><path fill="#e0797a" fill-rule="evenodd" d="M768.3 208.6s39.5-7.9 50.4 30.1c0 0 1.8-31.2-35.5-39z" clip-rule="evenodd"/><path fill="#ffd6b6" fill-rule="evenodd" d="M718.7 200.8c52 19 36.6 33.5-9.2 28.8 0 0 .9-17.9 9.2-28.8" clip-rule="evenodd"/><path fill="#e0797a" fill-rule="evenodd" d="M770.7 370.8s2 7.3 10.4 8.6c0 0-1.6-3.3-3.2-5.1a16 16 0 0 0-7.2-3.5" clip-rule="evenodd"/><path fill="#ffd6b6" fill-rule="evenodd" d="M752.7 301.5s10.6 13.2 7.5 35.6l-6 .8-1.4-3.5s4.6-11-.1-33" clip-rule="evenodd"/><path fill="#e0797a" fill-rule="evenodd" d="M781.7 238.3s.3 32.5 28.7 32.2c28.5-.3 42.6-13.4 65.4 9.9l-3-16.8-27.3-11.4-32 2s-22.7 1-31.8-16" clip-rule="evenodd"/><path fill="#fff" fill-rule="evenodd" d="M772.4 167c-76.6 18.1-67.2 54.2-67.4 111.4 0 0-.4 26.1-8.8 52.3 0 0-10.3 36 22.5 60.9 32 24.2 77.7 26.8 118.4 15.5-38.6 8.8-80.5 5-110.4-17.6-32.8-24.8-23.8-60.8-23.8-60.8 8.4-26.2 5.7-51.1 5.7-51.1 1.8-54.4-4.1-91.9 63.8-110.5" clip-rule="evenodd"/><path fill="#de7c79" fill-rule="evenodd" d="M697.4 326.9c2.8 8 12.9 18.7 38.8 5.5 0 0-18.7-17.9-19.7-18.3a67 67 0 0 0-14.5-3l-1 1.6q-1.5 6.9-3.6 14.2" clip-rule="evenodd"/><path fill="#e0797a" fill-rule="evenodd" d="M789.6 163.6c-49.3 8.6-70.2 22.7-78.9 42.8 3.9-5 11.1-10.2 23-6 12.6 4.5 18 9.2 32.3 8.2 26.3-1.9 42.6-20 67.6 0 37.9 30 18.2 85.8 61.8 113.4 9 5.7 20.5 10.3 35.7 12.5a116 116 0 0 0-.8-110.3c-18-34-55.2-64.2-140.7-60.6" clip-rule="evenodd"/><path fill="#f28496" fill-rule="evenodd" d="M703.7 288s3.3-19.4 20.4-17.2c17.1 2.3 18.6 41.6 12.3 60.8 0 0-24.3-18.4-25-19.2s-7.7-24.3-7.7-24.3" clip-rule="evenodd"/><path fill="#d55a80" fill-rule="evenodd" d="M733.5 277.5c8 12.5 7.8 39.3 2.9 54.1l-14.4-11c-1-12.6-1.4-29.3-1.4-29.3 20.6 11 10.4-13.7 10.4-13.7z" clip-rule="evenodd"/><path fill="#541138" d="M704.2 288.9c-15.9 20-10 53 31.9 43.3 0 0 4.6-36.3-32-43.3"/><path fill="#fff" fill-rule="evenodd" d="M708.6 294.2c-12.9 16.2-8 42.8 25.8 35 0 0 3.6-29.3-25.8-35" clip-rule="evenodd"/><path fill="#721d49" fill-rule="evenodd" d="M1031.9 243.2s-2 35.5-29.3 45.5-81.5-13-86.3-21.4c-4.9-8.4-27.6-37.2-25-51 2.5-13.9 5.5-29.8 7.3-33s-6.4-10.2 9.6-11.3 52.3 4 54.2 5.2c1.8 1.1 69.5 66 69.5 66" clip-rule="evenodd"/><path fill="#7d3453" fill-rule="evenodd" d="M1022.7 241.8s3.2 30-29.6 43.1-71.1-22.7-74.8-31c-3.6-8.5-26.8-46.8-19.2-56 7.5-9 17-17.4 22.7-19.4s41.3.2 44.5 2.7 56.4 60.6 56.4 60.6" clip-rule="evenodd"/><path fill="#541138" d="M714 330.2a22.4 22.4 0 0 1 5.5-33.8c18.2 10.8 15.4 33.4 15.4 33.4q-13 2.8-20.9.4"/><path fill="#5c7fd2" fill-rule="evenodd" d="M720.8 330a17.5 17.5 0 0 1 2-30.1c13.4 10.5 11.1 28.7 11.1 28.7q-7.4 1.6-13.1 1.3" clip-rule="evenodd"/><path fill="#62d1e6" fill-rule="evenodd" d="M719.8 307c3.5 0 6.6 4.3 7 9.7s-2 9.8-5.5 9.8-6.6-4.4-7-9.8 2-9.7 5.5-9.7" clip-rule="evenodd"/><path fill="#541138" d="m734.6 328.7-2.3.2a12.5 12.5 0 0 1-4.5-24.1c7 9 7 20 6.8 23.9"/><path fill="#754052" d="M728.8 313.6c2 .3 3.5 3.3 3.6 6.7s-1.3 6.2-3.2 6-3.6-3.3-3.7-6.7c0-3.5 1.4-6.2 3.3-6"/><path fill="#541138" d="M681.8 264.5c-.1 26.1 16.8 26 34.2 34 9.5 4.3 17 14.3 20 33.8 4.7-25.9-3-40.5-27.5-46.7-23.6-6-26.7-21-26.7-21.1"/><path fill="#541138" d="M707.6 278.3c8.2-6.4 15.6-5.4 20.3-1.2 5.9 5 8.7 15.2 10.4 23.7.8 3.6 1.9 3.6 1.7-.4a49 49 0 0 0-7.7-27.9c-7.1-8.7-20.4-2.6-24.7 5.8M781 232.2s0 30.3 26.1 31c26 .7 36.2-15 78.6 14 0 0-15.7-33.8-35.2-36s-47 20.1-69.6-9M730 367.9s18.5 13.6 45.7 4.7c.8.6 2.4 2.6 3.2 3.3-15.3 6.3-40.8 5.1-48.8-8"/><path fill="#541138" d="M770.6 370.7s7 3.7 10.5 8.8c1.4-5.5-4.9-10-10.5-8.8M743.7 198.8s-7.7-.9-12.3-9c-5.3-9.4-14-16.5-28-14.3-18.8 3-23.8 29-20.5 46.3 4.4 22.5 10.7 37.5 13.4 50.4 2.6 13.2 1.5 24.2 0 40.9-1.4 16.6-6.3 35.7-21.7 61.8-14.5 24.7-39.3 22-56 8-17.1-14.4-16-42-7.4-61.5 6.4-14.9 18.2-26.4 30.6-28.7 0 0 11.7 0 11.5 27 0 0-1.7-11.1-11.5-13.4-9.7 3.6-15.9 19.8-15 34.6.8 12.8 6.8 23.6 17.1 25.2 5.2.8 11.8-.2 17.6-12.2 7.2-15 14.8-39 8.9-67.7-9.8-47.3-26.8-53.9-25.4-74.3 1.4-20.5 19.3-56.6 40-74.4 0 0 31-14.6 67.5-1 36.6 13.7 10 59.5 10 59.5z"/><path fill="#a96e68" fill-rule="evenodd" d="M759.6 150.5s-15.9-19.8-70.7-6.8c0 0-22 20.1-32.2 51.4-6.4 19.5-5.1 22.1 2.8 40 7.9 18 18.1 46.2 18.3 74.7 0 12.7-8 44.1-16.5 54-6.2 7.3-13.1 10-19.7 8.5-10.2-2.2-19.6-14.5-20.5-30.5-.8-15.5 5.7-32.9 15.6-38.2 0 0-22.2 3.6-25.5 42.8 0 0-3 36.5 30.3 41 0 0 18.7 3.4 30-16.3a152 152 0 0 0 13-118.7c-7.4-23.7-13-49.7 4.5-66.5 18.8-18.2 41.5-19.6 49.8 5.9l14.6-23.3a189 189 0 0 0 6.2-18" clip-rule="evenodd"/><path fill="#e0ae87" fill-rule="evenodd" d="M721.8 139.3q-13.4-.1-32.9 4.4s-22 20.1-32.2 51.4a122 122 0 0 0-3.1 10.8c13-32 35.3-62 68-66z" clip-rule="evenodd"/><path fill="#904856" fill-rule="evenodd" d="M759.6 150.5s-11.2-14-47.2-10.8c4.2 8.5 4.9 22.7-14.7 39.1 16.7-10.9 34-8.6 41.1 13l14.6-23.3a189 189 0 0 0 6.2-18" clip-rule="evenodd"/><path fill="#e0ae87" fill-rule="evenodd" d="m636 304 .7-.4s-22.2 3.6-25.5 42.8c0 0-2.4 30 22 39-18.1-11.7-27.7-60 2.8-81.4" clip-rule="evenodd"/><path fill="#904856" fill-rule="evenodd" d="M673.2 275.1c2.7 11 4.5 22.9 4.6 34.7 0 12.7-8 44.1-16.5 54a29 29 0 0 1-7.3 6.3c7.7.3 16.2 2.9 4 14.4 4.6-2.4 9.5-6.5 13.4-13.4a151 151 0 0 0 16.3-105.3c-3.2 8-7.8 12.9-14.5 9.3" clip-rule="evenodd"/><path fill="#541138" d="M759.4 202.3s-6.5 2-15.4-3C735.1 194 705.7 142 726 95c0 0 19.3-25.6 52-17.7 32.8 7.8-18.6 125-18.6 125"/><path fill="#a96e68" fill-rule="evenodd" d="M761 196s-5.5 3.4-13.3-1.1S713 140.3 731 98.8c0 0 17.4-21.9 46.2-15C806.1 90.9 761 196 761 196" clip-rule="evenodd"/><path fill="#904856" fill-rule="evenodd" d="M756.7 83.5c6-1.3 12.9-1.5 20.5.4 9.3 2.2 11 14.6 8.9 30.5-5.8 20.8-24.6 85-32.8 36.7-7-41.3-.4-60.5 3.4-67.6" clip-rule="evenodd"/><path fill="#904856" fill-rule="evenodd" d="M761 196s-5.5 3.4-13.3-1.1c-2.5-1.5-7-7.6-11.3-16.6 5.2 4 13 6.7 15.9-11.2 0 0 4 15 14.8 13.7-3.5 9.2-6 15.2-6 15.2" clip-rule="evenodd"/><path fill="#e0ae87" fill-rule="evenodd" d="M734 172.7c-8.1-19.4-14.1-48.3-3-73.9 0 0 8.3-10.4 23-14.6-9 5.8-36.5 21.8-20 88.5" clip-rule="evenodd"/><path fill="#541138" d="M891 63.4s-21.8-26-68-14.3c0 0-30.2 8-52.9 32.9-12.8 14-17.9 35.4-16.6 61.8a96 96 0 0 0 2.7 56.6c4 5 19.8 4.4 25 1.4 7.8-4.5 76.1-68.3 189.1-11.7l66.9 42.3c16-68.8-16.3-120.3-74.6-131.5 0 0-25.6-39.4-71.6-37.5M931.3 318.8c29.7-17.2 52 0 53.6 24 3.4 51-70.4 69.9-80.7 28.7l10-26z"/><path fill="#f88d87" fill-rule="evenodd" d="M932.8 324.6c24.7-14.2 43.2 0 44.5 20 2.9 42.2-58.4 57.8-66.9 23.7l8.3-21.5z" clip-rule="evenodd"/><path fill="#c74f6c" fill-rule="evenodd" d="M965.4 343.6s8.2 25.2-22.4 27.3c0 0 11.6-9.1 8.3-17.6s-2.4-10.6-2.4-10.6 5.8-2 16.5 1" clip-rule="evenodd"/><path fill="#c74f6c" fill-rule="evenodd" d="M932.8 324.6c24.6-14.2 43.1 0 44.5 19.8-44.3-10.9-53 20-53.8 40a23 23 0 0 1-13-16l8.2-21.6z" clip-rule="evenodd"/><path fill="#541138" d="M927.4 363.5s11.4-24.5 41.7-18.2c-16.9-13.7-40.3-1.4-41.7 18.2"/><path fill="#541138" d="M945.5 344.3s10.7 14.5-3.3 27c0 0 20.9-9.5 9.9-28.7zM910.6 297.5s9.7 26.3-11.3 60.9 4 74 23.9 79.2c0 0-29-36.3-5.6-68.2 23.5-32 28.3-29.5 28.5-59.1s-35.5-12.8-35.5-12.8"/><path fill="#a96e68" fill-rule="evenodd" d="M918.8 301.2s9 22.4-12.5 58.8c0 0-16.2 22-1.2 52.6 0 0-9.2-27.3 8-48.5 17.3-21.1 31-36 25.2-60.8 0 0-8.9-6.6-19.5-2" clip-rule="evenodd"/><path fill="#904856" fill-rule="evenodd" d="M918.8 301.2s3.7 9.2.7 25.4c3.5 26.5-5.8 27.8-12.6 47.8a45 45 0 0 1 6.3-10.3c17.2-21.1 31-36 25.1-60.8 0 0-8.9-6.6-19.5-2" clip-rule="evenodd"/><path fill="#541138" d="M793.9 194.5s47.9-16.7 70 25.6c22 42.3 44 133.3 146 83.9 0 0 39-6.5 66.2 29 0 0 3.1-37.2-19-53.6-23.5-17.5-53-10.4-91.2-29.6-19-9.6-38.8-25.7-63.8-54.6L868 179.8s-66.5-.7-74.1 14.7"/><path fill="#a96e68" fill-rule="evenodd" d="M761.5 198.2s-11.6-28.4-8.1-60.9A91 91 0 0 1 806.2 63c24.8-12.3 62.6-15.5 79.7 7 0 0 43.2-4.3 70.4 37.6 0 0 91.2 10.4 74.7 121.3l-60.7-21.5c-3.4-1.4-87.2-48.1-87.2-48.1l-51.6 13.6-39.4 13.4s-11 17.4-30.6 12" clip-rule="evenodd"/><path fill="#c1887a" fill-rule="evenodd" d="M757.7 116.9c23-25.3 37 .4 33.6 9.2 31.1-22.6 25.5 10 25.5 10 9.7-1 14 1.9 14.6 5.8 1.7 10.2-16 22.6-16 22.6l54.2-25.4c-33.8 1-15.9-25.2-15.9-25.2-43.5 10.5-36.2-15.4-36.2-15.4-42.5 19.7-37.8-7-35-18-9.5 7.5-19.3 24.8-24.8 36.4" clip-rule="evenodd"/><path fill="#c1887a" fill-rule="evenodd" d="m952.5 102.1 3.8 5.4s19.5 4.5 37.4 25.4c-14.6-10.7-10-11-24.8-15.8-76-24.7-148 16.7-148 16.7 40.3-30.8 88.6-36.2 131.6-31.7" clip-rule="evenodd"/><path fill="#e0ae87" fill-rule="evenodd" d="M754.8 173.2a130 130 0 0 1-1.4-35.9A91 91 0 0 1 806.2 63c21.9-10.8 53.9-14.6 72.8 0-39.6-15.1-82.3 2.9-106.1 37.7-16 23.4-18.6 47-18.1 72.6" clip-rule="evenodd"/><path fill="#904856" fill-rule="evenodd" d="M847.5 53.3A50 50 0 0 1 882 65.6c-21.9 4.5-59.2 27.8-59.2 27.8 46.8-28.5 38.4-38.2 24.6-40M761.5 198.2s-4.2-10.1-6.8-25.2c3.7 6.4 11.6 14.1 25.7-.4 0 0-.3 18 17 4.5l-6.6 10.8c-3.4 4.2-13.6 14.6-29.3 10.3M956.3 107.5s90.9 10.3 65.3 120.3l-51.3-20.5c-2.5-1-22.9-12.4-44-24-12.4-18-17.1-36.2 13.8-37.5 61.7-2.5 22.7-39 10.4-40.2 2.3-2.1 4.2-.5 5.8 2" clip-rule="evenodd"/><path fill="#904856" fill-rule="evenodd" d="M881.3 64.8a37 37 0 0 1 4.6 5s38.2-3.7 65.4 30.8l-16.2-.7c-56-2.5-105 25.7-105 25.7 73-38.4 33.9-54 33.9-54q11.2-2.5 17.3-6.8" clip-rule="evenodd"/><path fill="#541138" d="M957.6 107.7s-78.2-19.3-140.8 29.2c0 0 41.5-52.4 136.5-36.9l4 3zM886.7 69.6s-50.5 6.3-81.2 42.6c0 0 22-37.9 77.6-49.6l3.6 1.4zM933.5 378a17 17 0 0 1 17 17 17 17 0 0 1-17 16.8 17 17 0 0 1-17-16.8 17 17 0 0 1 17-17"/><path fill="#ffc57b" fill-rule="evenodd" d="M933.5 384.4c5.9 0 10.7 4.7 10.7 10.6s-4.8 10.5-10.7 10.5c-6 0-10.7-4.7-10.7-10.5 0-5.9 4.8-10.6 10.7-10.6" clip-rule="evenodd"/><path fill="#f17c61" fill-rule="evenodd" d="M937.5 387.2a8.8 8.8 0 0 1-4 16.5 9 9 0 0 1-8.1-5.2 9 9 0 0 0 13-7.7q0-2-.9-3.6" clip-rule="evenodd"/><path fill="#fff" fill-rule="evenodd" d="M931.7 386.5c2.4 0 3.4 2 2.4 4.3a8 8 0 0 1-6.2 4.2c-2.4 0-3.4-2-2.4-4.2 1-2.4 3.8-4.3 6.2-4.3" clip-rule="evenodd"/><path fill="#541138" d="M976 459.4s-1.3 17.3 17.8 18.2c0 0-10.5-4.4-7.6-20l-3.7-2z"/><path fill="#541138" d="M956 450.7s29.1 11 46-20c0 0-2.6 21.2-18.3 25.8a32 32 0 0 1-27.7-5.8"/><path fill="#a96e68" fill-rule="evenodd" d="M821.6 186.8s35-5 49.3 30 42.4 102.1 93.7 93.3c51.4-8.9 49.5-25.6 91.7-.4l12 7s2.1-27.8-27.2-40.2-86-3.3-115.6-58.5c0 0-17.6-42.6-20-44s-76.8-11.2-83.9 12.8" clip-rule="evenodd"/><path fill="#904856" fill-rule="evenodd" d="M1011 297.8c12.4-3.1 22.3-1.8 45.3 12l12 7s2.1-27.9-27.2-40.3c-23.5-10-64.7-6-95.3-32.7 1.7 10 9.4 32.8 44.2 44.4q12 4.1 21 9.6" clip-rule="evenodd"/><path fill="#e0ae87" fill-rule="evenodd" d="M875.4 227.7c15.4 36.3 42.8 90.4 89.2 82.4q11.5-2.1 20-4.4c-24 2-40.1-1.2-55.1-10.3-32-19.5-49.3-57.2-54-67.7" clip-rule="evenodd"/><path fill="#904856" fill-rule="evenodd" d="M821.6 186.8s35-5 49.3 30q1.6 4 3.6 8.6c6.8-5.2 27.3-16.8 56.9 2.2q-3-4.4-5.9-9.6s-17.6-42.6-20-44-76.8-11.2-83.9 12.8" clip-rule="evenodd"/><path fill="#541138" d="M899.8 239.4c20.4 47.8 49.7 59.2 85.3 64.3 26.6 3.8 49.7 6.3 63.8 14.3 14.5 8.2 17.9 26.8 11.7 39.6s-22 19.7-41 2.5c0 0 4.1 41.4 43.8 39.4 22-1.1 35.8-20.3 36-39.2a67 67 0 0 0-25.9-54.8c-18.9-13.4-43.8-12.6-72-17.2a84 84 0 0 1-50-28.3c-28-32.3-51.7-20.6-51.7-20.6"/><path fill="#a96e68" fill-rule="evenodd" d="M899 238.5c18 33 48.6 55 86.8 60.5 12.3 1.7 24.7 3.2 36.8 5.6a96 96 0 0 1 28.7 9.2c33.9 19.2 15.3 77.6-23.4 58a35 35 0 0 0 44.7 19.4c32.5-14.1 28.6-84.5-37-93.3-11.7-1.5-23.4-2.5-35-5-44.7-10.7-47.7-33.5-57.8-48.7-16.3-15.6-36.7-5-43.8-5.7" clip-rule="evenodd"/><path fill="#c1887a" fill-rule="evenodd" d="M1052.4 314.4c32.3 19.7 13.8 76.5-24.2 57.4 35.4 29.6 82.1-24.3 24.1-57.4" clip-rule="evenodd"/><path fill="#541138" d="M773.8 203.5s37.9-11.7 53.5 24.7c0 0-2.2-31.3-40.2-34.3z"/><path fill="#541138" d="M779 202.6s-.2 0 1.7-4.1c11.8-27.2 67-72 135.9-58.6 82.7 16 96.8 109 174.4 91.7 0 0-19.3 37.2-83.5 20.8-64-16.4-126.2-101-228.5-49.8"/><path fill="#a96e68" fill-rule="evenodd" d="M799 186.4s48.5-20.4 98.4 3.1c50 23.6 121.2 85.5 178.4 49.3 0 0-45.3 11.9-93.5-61-17.3-26.2-49.2-38.4-80.2-40-35.2-2-87.5 21-103.1 48.6" clip-rule="evenodd"/><path fill="#c1887a" fill-rule="evenodd" d="M836.6 165.9a92 92 0 0 1 70.3-5.8c32.9 10.5 60.7 37 85 58.5 0 0-85.1-48.2-155.3-52.7" clip-rule="evenodd"/><path fill="#904856" fill-rule="evenodd" d="M799 186.4s48.5-20.4 98.4 3.1c50 23.6 121.2 85.5 178.4 49.3-60 14.4-100.5-46.7-163.3-69.5-31-11.2-72.8-16.4-113.5 17.1" clip-rule="evenodd"/><path fill="#541138" d="M797.4 151.6s-25 15.8-29 50.7l7.9-.6s2-32.5 21-50"/><path fill="#de7c79" fill-rule="evenodd" d="M787.5 333c26.3 50.6 83.5 34.2 86.3-16.6 0 0-28.8-9-49.8-6.8S787.5 333 787.5 333" clip-rule="evenodd"/><path fill="#f28496" fill-rule="evenodd" d="M789.4 331s30.7-36 79.2-19.5c-16.8-57.2-83.6-48-79.2 19.5" clip-rule="evenodd"/><path fill="#d55a80" fill-rule="evenodd" d="M824.6 309.7c12-3.3 27-4 44 1.8a54 54 0 0 0-23.3-32.6q-3.4-.6-7 .3s18.5 21.2-18.5 27.7c0 0-.6.7 4.8 2.8" clip-rule="evenodd"/><path fill="#f8a3a6" fill-rule="evenodd" d="M819.5 297.6c-28.7 19-23.9-1.2-8.3-11.3 14.9-9.7 34.8-6.3 8.3 11.3" clip-rule="evenodd"/><path fill="#541138" d="M790 332.3c21.4 39.6 82.2 27.2 84.8-14.5 0 0-28.8-10.4-49.8-8.2s-35 22.7-35 22.7"/><path fill="#ffebf5" fill-rule="evenodd" d="M793.5 329.5c19.4 34.3 72.8 24 75.5-12.5 0 0-24.8-9.5-43.9-7.5s-31.6 20-31.6 20" clip-rule="evenodd"/><path fill="#b3aabe" fill-rule="evenodd" d="m793.5 329.5 1.5 2.3c14.1-11.7 33-15.9 58.4-2.1 0 0 .4-16.7-1.9-17.8a85 85 0 0 0-26.4-2.4c-19 2-31.6 20-31.6 20" clip-rule="evenodd"/><path fill="#541138" d="m868.4 315.3 2 3.4c-3 20.9-22 33-41.4 33.1a27 27 0 0 1 1.3-44c15.4.2 32.1 5.5 38 7.5"/><path fill="#5c7fd2" fill-rule="evenodd" d="M859.1 313.8c4 3.2 6.8 7.9 7.7 13.2a38 38 0 0 1-29.8 22.9 21.3 21.3 0 0 1 2.7-40.1c7.2.8 14.1 2.5 19.4 4" clip-rule="evenodd"/><path fill="#62d1e6" fill-rule="evenodd" d="M831.9 322.7c5.4-2.2 12 1.5 15 8.3 2.7 6.8.6 14-4.8 16.2-5.4 2.3-12.1-1.5-15-8.2-2.7-6.8-.6-14.1 4.8-16.3" clip-rule="evenodd"/><path fill="#541138" d="M846 314.4a16 16 0 0 1 16.1 15.8 16 16 0 0 1-16 16 16 16 0 0 1-16-16 16 16 0 0 1 16-15.8"/><path fill="#754052" d="M856.3 326.4c2.3 2 2.6 7.8-1.2 11.8s-10.2 5-12.5 3c-2.3-2.1.4-6.4 4.2-10.5s7.3-6.4 9.5-4.3"/><path fill="#541138" d="M789.7 335.3c6.1-6.8 20.4-21.4 40.7-20.2 27.5 1.6 57.3 16.8 70.2-11.9-15 12.7-51.9-.7-70.4 0a48 48 0 0 0-42.2 29c-1 2-3 8 1.7 3"/><path fill="#ffebf5" fill-rule="evenodd" d="M829.5 317.4c4 0 7.3 2.9 7.3 6.4s-3.2 6.4-7.3 6.4-7.2-2.9-7.2-6.4 3.2-6.4 7.2-6.4M858.1 334.8c1 1 .3 3.2-1.6 5s-4.1 2.4-5.1 1.5c-1-1-.2-3.2 1.7-5s4-2.5 5-1.5" clip-rule="evenodd"/><path fill="#fff" fill-rule="evenodd" d="M719.9 305.4c2.7 1 3.8 4.4 2.4 7.6s-4.7 4.8-7.4 3.8-3.8-4.3-2.4-7.5c1.4-3.1 4.7-4.9 7.4-3.9" clip-rule="evenodd"/><path fill="#ff8989" fill-rule="evenodd" d="M833.5 392.9c-23.2.5-45.6-25.6-.4-26 43-.3 22.2 25.5.4 26M696 331.8c22.4 18.1 24 31 2 32.2a60 60 0 0 1-2-32.2" clip-rule="evenodd"/><path fill="#ffa198" fill-rule="evenodd" d="m696 331.8 5.8 5c-.3 6.5.2 15.9 4.2 26a36 36 0 0 1-8 1.2v-.2l-.4-1v-.2l-.4-1v-.3l-.4-1v-.2l-.3-1.1v-.2l-.3-1v-.2l-.3-1v-.1l-.2-1v-.3l-.2-1v-.2l-.2-1v-.1l-.4-3.2v-1.2l-.1-1v-1.1l-.1-1v-4.7l.1-.8v-.8l.1-.1v-.9l.1-.6.1-.7.1-.7.2-1.2v-.6h.1v-.6h.1v-.5h.1v-.5h.1v-.5l.1-.2zm.5 27-.3-1zm-1.7-11.4v-1z" clip-rule="evenodd"/><path fill="#e0797a" fill-rule="evenodd" d="M704.7 248.3c15.5-1.3 36.1 32.3 46.3-12.4l-11.2 8.1-31.7-9.7-3.1.5a53 53 0 0 0-.3 13.5" clip-rule="evenodd"/><path fill="#541138" d="M695 240.4c16.8-8.5 40.5 35.5 57-6.6-24.9 19.3-27.9-18-57.5-3.6 0 0-1.3 4.3.4 10.2"/><path fill="#fff" fill-rule="evenodd" d="M767.7 338.2c-28.8 4-8 9.5 4.3 10.3l-30-.6-3.3-4.8s14.6-7 29-5" clip-rule="evenodd"/><path fill="#e0797a" fill-rule="evenodd" d="M738.8 345s5.7 12.5 13 15.2c8.4 3.2 19.3-3.5 20.7-12 0 0-16.6 1.5-30.9-4.5l-2.5-.3z" clip-rule="evenodd"/><path fill="#541138" d="M752.7 301.6s3.4 21.6-4.7 37.1l7.3-.3s5.7-22-2.6-36.8"/><path fill="#541138" d="M737 344.2s-.2-4.7 1.9-5.8c2-1.1 17.2-4.3 29.1 0 0 0-16.9.7-25.5 4-.4.1-1.7.6-1.5 1.3.7 2.6 3.9 12.1 13 17.2-7 .2-16.5-8.3-17-16.7"/><path fill="#541138" d="M740.2 342.6a53 53 0 0 0 19.7 5.4s-11.4 1.2-20.3-1.5l-.7-2.2z"/><path fill="#e0797a" fill-rule="evenodd" d="M754.6 387c5.2.5 10 3.2 11.7 4.6 2.3 1.9-5 1.6-12.6.4-5.7-.8-10.6-1.4-10.1-2.6.3-.8 4-3.1 11-2.4" clip-rule="evenodd"/><path fill="#541138" d="M1077.3 236.9c-1 0-31.8 9.7-71.2-11.9 0 0 33.8 28.9 69.3 19l3.4-3.9z"/><path fill="#fbaea7" fill-rule="evenodd" d="M945 351.7c2 .7 2.8 5 1.6 9.6-1.1 4.7-3.8 8-5.8 7.3-2.1-.7-2.8-5-1.7-9.6 1.2-4.7 3.8-8 5.9-7.3" clip-rule="evenodd"/><path fill="#7d3453" fill-rule="evenodd" d="M984.1 386.7s23.5 5.5 21.4 35c0 0 10.5-20.2-.1-36-10.7-16-17.2-8.5-17.2-8.5z" clip-rule="evenodd"/><path fill="#541138" d="M1042.4 309.8s32 8.1 36.9 36.5c0 0-5.7-17.8-31-29l-5.2-3.7zM1028.5 370.8s15.8 11.4 30.8 8.2c0 0-12.6 6.5-31-1.5l-2.5-5s-.2-3 2.7-1.7M792.8 305c4.6-8.8 15.2-24.3 32.3-25.1a46 46 0 0 1 33.9 14c4.1 4.2 4.1 3.4 1.2-1.4-5.4-8.7-17.3-22.4-37.6-20-21.2 2.4-28.8 21.5-31.4 32-.9 3.4-.4 4.2 1.6.6"/><path fill="#f8a3a6" fill-rule="evenodd" d="M718.6 275.3c6 0 10.4 4.5 10.4 6.7s-4.4 1.4-10.4 1.4-11.5.8-11.5-1.4 5.4-6.7 11.5-6.7" clip-rule="evenodd"/><path fill="#ffe1ca" fill-rule="evenodd" d="M744.6 379.2c4.6 1.1 8.5 1.7 8.3 2.9s-4.5 2.4-9.1 1.3c-4.6-1.2-7.7-4.3-7.4-5.4s3.6 0 8.2 1.2" clip-rule="evenodd"/><path fill="#541138" d="M953.7 101.3S928.9 87.2 890.8 91c0 0 32.2-9.5 59.8 1.3l1.3 2.2z"/><path fill="#a96e68" fill-rule="evenodd" d="M1026.1 203s-3.9-29.3-37.6-46.5c0 0 27.5 5.6 41.5 28.6 0 0 1.5 7.5 1.4 8.1-.1.7-5.3 9.8-5.3 9.8" clip-rule="evenodd"/><path fill="#541138" d="M754.5 80.1s-6.9 14.8-4.5 37.3c0 0 .9-24.3 13.4-36.8l-4.8-1.8zM881.5 468.1s11.7-1 10.8 9.9c0 0 7.5-8.8 0-16.4l-5-1.2z"/><path fill="#a96e68" fill-rule="evenodd" d="M864.5 440.7c12.6 0 22.9 4 22.9 9.2 0 5-10.3 9.2-23 9.2s-22.8-4.2-22.8-9.2c0-5.1 10.2-9.2 22.9-9.2M974.7 431.7c10.4-5 20.4-5.5 22.4-1.4 2 4.2-4.7 11.5-15 16.4-10.4 5-20.5 5.5-22.5 1.3-2-4.1 4.8-11.5 15.1-16.3M939.1 453.7c7.7 1.6 14 5.7 14 9 0 3.4-6.2 4.8-13.9 3.1s-14-5.7-14-9c0-3.4 6.2-4.8 13.9-3.1" clip-rule="evenodd"/><path fill="#541138" d="M766.8 463.8c-37 26-53.7 41.9-50.3 62.4 3 18.2 7.2 30.1 6.8 48l88.3-1.4a56 56 0 0 1 9.6-20.6l6.4-65-4.6-17.5s-43.3-7.4-56.2-5.9"/><path fill="#f66" fill-rule="evenodd" d="M768.6 468.5q-10 6.9-19.7 14.4-7.9 6.1-15 13.1c-5.8 6-11.7 13.5-12.8 22q-.4 3.8.2 7.5c1.5 8.8 3.8 17.3 5.7 26.1q2.5 11.4 2.5 22.5l77.1-1.2q2.5-11.8 10-22.5l6.1-62.8-3.6-13.7a595 595 0 0 0-41.3-5.3c-2.8-.2-6.3-.4-9.2-.1" clip-rule="evenodd"/><path fill="#ff8978" fill-rule="evenodd" d="M730.4 504s16 14.5-1.6 42.4l-3.9-10.2s-6.5-19.4 5.5-32.2" clip-rule="evenodd"/><path fill="#fff" fill-rule="evenodd" d="M768.6 468.5q-10 6.9-19.7 14.4-7.9 6.1-15 13.1c-5.8 6-11.7 13.5-12.8 22q-.4 3.8.2 7.5c1.5 8.8 3.8 17.3 5.7 26.1q2.5 11.4 2.5 22.5h4.4c-.1-7.3-1-14.2-2.6-21.6-6.1-26-13.8-36.7 7-55.6q7.1-7 15-13 9.6-7.6 19.6-14.5c3-.3 6.4 0 9.3.1l15 1.5 22 3.1v-.2a595 595 0 0 0-41.4-5.3c-2.8-.2-6.3-.4-9.2-.1" clip-rule="evenodd"/><path fill="#c5385d" fill-rule="evenodd" d="M806.6 573q2.5-12 10-22.6l1.6-17.4a30 30 0 0 0-25.7 18.7c0 .3-3.9 8.6-6 21.5z" clip-rule="evenodd"/><path fill="#c5385d" fill-rule="evenodd" d="M794.5 573.1a436 436 0 0 0 22.9-31.4l5.3-54.1-3.6-13.7q-13.1-2.1-26.2-3.8c-11.9 8.1-17.4 24.8-24.3 38-9.5 27-24.7 52-34.1 66z" clip-rule="evenodd"/><path fill="#ffc7a9" fill-rule="evenodd" d="M768.6 468.5a452 452 0 0 0-25.9 19.5c2.8 5.3 13.5 8.5 49.4-7.2q10.1-4.5 17.3-8.4a597 597 0 0 0-31.6-3.8c-2.8-.2-6.3-.4-9.2-.1" clip-rule="evenodd"/><path fill="#541138" d="M741.9 486.2s4.2 6.8 15.3 6.5l-.3 2.5s-11 2.8-17.7-7zM761.2 458.6c6.3 0 11.4 5 11.4 11.3 0 6.2-5.1 11.2-11.4 11.2s-11.4-5-11.4-11.2c0-6.3 5-11.3 11.4-11.3"/><path fill="#ffc57b" fill-rule="evenodd" d="M761.2 462.8c4 0 7.1 3.2 7.1 7 0 4-3.2 7.1-7.1 7.1-4 0-7.2-3.1-7.2-7 0-4 3.2-7 7.2-7" clip-rule="evenodd"/><path fill="#f17c61" fill-rule="evenodd" d="M763.9 464.7a5.9 5.9 0 0 1-2.7 11 6 6 0 0 1-5.4-3.4 6 6 0 0 0 8.6-5.2q0-1.3-.5-2.4" clip-rule="evenodd"/><path fill="#fff" fill-rule="evenodd" d="M760 464.2c1.6 0 2.3 1.3 1.6 2.9a5 5 0 0 1-4.1 2.8c-1.6 0-2.3-1.3-1.6-2.8a5 5 0 0 1 4-2.9" clip-rule="evenodd"/><path fill="#541138" d="M777.3 460.8c4.9 0 8.8 4 8.8 8.7 0 4.8-3.9 8.7-8.8 8.7a8.7 8.7 0 0 1-8.7-8.7c0-4.8 3.9-8.7 8.7-8.7"/><path fill="#ffc57b" fill-rule="evenodd" d="M777.3 464c3 0 5.5 2.5 5.5 5.5s-2.4 5.5-5.5 5.5c-3 0-5.5-2.5-5.5-5.5s2.5-5.4 5.5-5.4" clip-rule="evenodd"/><path fill="#f17c61" fill-rule="evenodd" d="M779.4 465.5a4.5 4.5 0 0 1-2 8.5 5 5 0 0 1-4.2-2.6 4.6 4.6 0 0 0 6.6-4q0-1-.4-1.9" clip-rule="evenodd"/><path fill="#fff" fill-rule="evenodd" d="M776.4 465.2c1.2 0 1.8 1 1.3 2.2s-2 2.1-3.2 2.1-1.8-1-1.2-2.1c.5-1.2 2-2.2 3.1-2.2" clip-rule="evenodd"/><path fill="#541138" d="M792.1 458.7c4.9 0 8.8 3.9 8.8 8.7s-3.9 8.7-8.8 8.7a8.7 8.7 0 0 1-8.7-8.7c0-4.8 3.9-8.7 8.7-8.7"/><path fill="#ffc57b" fill-rule="evenodd" d="M792.1 462c3 0 5.5 2.4 5.5 5.4s-2.4 5.4-5.5 5.4c-3 0-5.5-2.4-5.5-5.4s2.5-5.5 5.5-5.5" clip-rule="evenodd"/><path fill="#f17c61" fill-rule="evenodd" d="M794.2 463.4a4.5 4.5 0 0 1-2 8.5 5 5 0 0 1-4.2-2.7 4.6 4.6 0 0 0 6.6-4q0-1-.4-1.8" clip-rule="evenodd"/><path fill="#fff" fill-rule="evenodd" d="M791.2 463q2 .2 1.3 2.2c-.6 1.2-2 2.2-3.2 2.2q-2-.2-1.2-2.2c.5-1.2 2-2.2 3.1-2.2" clip-rule="evenodd"/><path fill="#541138" d="M815.5 445.2a8 8 0 0 1 8 8 8 8 0 0 1-8 8 8 8 0 0 1-8.1-8 8 8 0 0 1 8-8"/><path fill="#ffc57b" fill-rule="evenodd" d="M815.5 448.2a5 5 0 0 1 5 5 5 5 0 0 1-5 5 5 5 0 0 1-5-5 5 5 0 0 1 5-5" clip-rule="evenodd"/><path fill="#f17c61" fill-rule="evenodd" d="M817.4 449.5a4.2 4.2 0 0 1-2 7.9q-2.6-.1-3.8-2.5a4.2 4.2 0 0 0 6.2-3.7q0-1-.4-1.7" clip-rule="evenodd"/><path fill="#fff" fill-rule="evenodd" d="M814.6 449.2c1.2 0 1.7 1 1.2 2-.5 1.1-1.8 2-3 2-1 0-1.6-.9-1-2 .4-1 1.7-2 2.8-2" clip-rule="evenodd"/><path fill="#541138" d="M806.5 454c4.8 0 8.8 4 8.8 8.7 0 4.8-4 8.7-8.8 8.7a8.7 8.7 0 0 1-8.8-8.7c0-4.8 4-8.7 8.8-8.7"/><path fill="#ffc57b" fill-rule="evenodd" d="M806.5 457.3c3 0 5.5 2.4 5.5 5.4s-2.5 5.5-5.5 5.5-5.5-2.5-5.5-5.5 2.4-5.4 5.5-5.4" clip-rule="evenodd"/><path fill="#f17c61" fill-rule="evenodd" d="M808.6 458.7a4.5 4.5 0 0 1-2.1 8.5 5 5 0 0 1-4.2-2.6q1 .5 2.1.5a4.5 4.5 0 0 0 4.2-6.4" clip-rule="evenodd"/><path fill="#fff" fill-rule="evenodd" d="M805.6 458.4q1.9.2 1.2 2.2c-.5 1.2-2 2.1-3.2 2.1s-1.7-1-1.2-2.1 2-2.2 3.2-2.2" clip-rule="evenodd"/><path fill="#541138" d="M806.5 462.7c27 2.7 29.4 40 16 55.3 0 0-18.3 29.5-41.1 55.3l-60.5 1a322 322 0 0 0 40-69.6c10.6-19 18.7-44.8 45.6-42"/><path fill="#ffc7a9" fill-rule="evenodd" d="M765 507a279 279 0 0 1-38.1 67.2l48-.8a458 458 0 0 0 31.7-39.8c8.5-11.7 18.6-25.1 18.4-40.3-.2-12-5.7-24-19-25.3-8.9-.8-16 2.3-21.5 7.3-8.9 8.2-13.9 21.4-19.6 31.7" clip-rule="evenodd"/><path fill="#ffd6b6" fill-rule="evenodd" d="M750.2 545.7s20.2 22.2-16.7 28.4h-3.2l5-7.2s10.7-18.5 14.9-21.2M800.9 472.2c7.9-.5 14.3 2.5 14.3 6.6s-6.4 7.8-14.3 8.2c-8 .5-14.4-2.5-14.4-6.6s6.5-7.8 14.4-8.2" clip-rule="evenodd"/><path fill="#fff" fill-rule="evenodd" d="M765 507a279 279 0 0 1-38.1 67.2l5.2-.1a273 273 0 0 0 33.8-61.6c5.7-10.2 10.7-23.5 19.6-31.6 5.5-5 12.6-8.2 21.5-7.3 9.9 1 15.5 7.8 17.8 16.2-1.1-10.7-6.8-20.5-18.8-21.8-8.9-.8-16 2.3-21.5 7.3-8.9 8.2-13.9 21.4-19.6 31.7" clip-rule="evenodd"/><path fill="#de7c79" fill-rule="evenodd" d="m727.6 573.3-.7.9h.9zM765 507a268 268 0 0 1-17.9 36.9q3.8 2.5 8.9 2.6c3.7 8.3 11.6 13.5 24.3 10.6q1.5 3.4 4 5.5c8.2-9.7 15.7-19.8 22.3-29 4.3-5.9 9-12.3 12.6-19.1a16 16 0 0 0-4.8-4c-6.1-3.6-11.5-3.8-16-1.8-1.5-3.8-6.3-7.7-12.4-9.4q-3.5-.9-6.6-.7-3-2.5-8.6-3.1z" clip-rule="evenodd"/><path fill="#541138" d="M739.6 469.7a63 63 0 0 1 29-1.3s3.5-.4 2.2-4.6-17.3-7.5-29.6-7-29.6 11-29.6 11-45.7 11.8-55 33.8c0 0 3.2 36.6 12 73.5l44.3-.7-19.7-62s11.3 1.6 30.1-11.6c0 0 8.2-.4 19.6 5.5 2.8 1.4 2.3 1.6 3.8-2 1.6-3.7-9.8-15.9-19.4-18.9 0 0 10-3.2 16.5-1.9 0 0 5.7 2.7 13.6 12 0 0 1.5 1.5 3.3-1.8 1.9-3.3-4.4-14.5-7.1-17.4a28 28 0 0 0-14-6.6"/><path fill="#fff" fill-rule="evenodd" d="M741.1 460c-8.2.3-20.4 7-27.3 11.3l-.5.3-.6.2q-5.6 1.3-10.9 3.3a131 131 0 0 0-22 9.9 45 45 0 0 0-18.3 17q1.3 12 3 23.8 3.5 24.8 9.3 49.2l34.7-.6-21.7-67c16 1.5 21.5-1.6 34.4-10.6 8 0 15.1 3.4 20.7 6.4 1.3-1.8 1.7-2.6-.4-4.3a66 66 0 0 0-27.6-15c1-.6 6.1-.3 7.7-.3a45 45 0 0 1 23.7-3.1c3.8 2.1 7.3 6.2 10.6 9.4.6.5 2.3-.2 2-1.5a54 54 0 0 0-6.3-10 44 44 0 0 0-15.1-7.2l-14.1 1c1.5-.6 9.2-3.2 10.8-3.4 9-3.4 15.7-4.1 25.3-4 6.8 0 6.1-1.5 2.2-2.7a63 63 0 0 0-19.6-2.1" clip-rule="evenodd"/><path fill="#bcafbc" fill-rule="evenodd" d="M741.1 460q-2.1 0-4.7.7c.9 1.5 1.7 5.1-6.4 9l3.2-1c9-3.3 15.7-4 25.3-4 6.8.2 6.1-1.4 2.2-2.6a63 63 0 0 0-19.6-2.1m-17.6 37c7.1.5 13.4 3.5 18.4 6.2 1.3-1.8 1.7-2.6-.4-4.3a117 117 0 0 0-10.3-7.7c.2 2.4-1.6 4.6-7.7 5.7m20.9-16.6.9.1c3.8 2.1 7.3 6.2 10.6 9.4.6.5 2.3-.2 2-1.5a54 54 0 0 0-6.3-10 19 19 0 0 0-4.2-2.8c.4 1.7-.1 3.4-3 4.8M708.5 574.4l-21.3-66c2.3 10.5 10.2 49 1.4 66.4z" clip-rule="evenodd"/><path fill="#541138" d="M771.6 483.6a28.5 28.5 0 0 0-30.5 18.4c-5.7 16.6 2.3 34.5 18.4 32.5.2 0 20.3-19.5 24-34.6 1.8-7.6-.5-15.2-11.9-16.3"/><path fill="#f66" fill-rule="evenodd" d="M769.6 488.8c-12.1-1.3-21.2 6-24.3 14.7-4.5 13.2 1.9 27.4 14.7 25.7 0 0 16-15.4 19-27.4 1.5-6-.3-12-9.4-13" clip-rule="evenodd"/><path fill="#fff" fill-rule="evenodd" d="M769.6 488.8c-12.1-1.3-21.2 6-24.3 14.7q-1.5 4.5-1.4 8.9.3-2.9 1.3-5.6c3-8.8 12.1-16 24.2-14.7 6.8.7 9.5 4.2 9.8 8.5 1-5.7-1.2-11-9.6-11.8" clip-rule="evenodd"/><path fill="#d0415f" fill-rule="evenodd" d="M744 513.6c.5 9.3 6.5 16.9 16 15.6 0 0 3.1-3 6.8-7.3-.5-5.5-2.7-9-8.4-5.7-8.2 5-12.4 1.4-14.5-2.6" clip-rule="evenodd"/><path fill="#541138" d="M831 546.8c-13 17.6-31.8 8.8-35-.3 0-.2 7.2-45.3 23.7-40 18.4 5.7 22.6 25.2 11.4 40.3"/><path fill="#c5385d" fill-rule="evenodd" d="M827.5 543.6c-10.4 14-25.3 7-27.8-.3 0-.1 5.7-36 18.8-31.8 14.6 4.5 18 20 9 32" clip-rule="evenodd"/><path fill="#541138" d="M788 543s14.3-29.1 11.7-44.8c-.7-4.1-5.9-9-12.8-10.8-10.7-3-21.5 3-29 18.8-9.2 19.5-.8 49.4 30 36.8"/><path fill="#f66" fill-rule="evenodd" d="M787.1 539.5s10.7-25.7 8.6-39c-1.5-9-27.7-17-38.2 5.2-7.8 16.6 3.4 44.5 29.6 33.8" clip-rule="evenodd"/><path fill="#d0415f" fill-rule="evenodd" d="M787.1 539.5s10.7-25.7 8.6-39l-.5-1.5c-17.4 1.2-26.8 29.8-16.7 42.8q4-.4 8.6-2.3" clip-rule="evenodd"/><path fill="#541138" d="M815.4 498.5c11.6 6.7 9 21.1 1.5 34.7-5.2 9.7-13.9 24.6-27.8 19.7-9.5-3.4-12.9-16.7-5.8-35 6-15.3 16.1-28.5 32-19.4"/><path fill="#f66" fill-rule="evenodd" d="M812.6 504.4c12.3 7 11 28.8-3.5 39.2-22.7 16.2-32.8-9.5-25.8-26.2 5-11.6 17-20 29.3-13" clip-rule="evenodd"/><path fill="#541138" d="m721.4 572.8 1.1 1.4-6.5.1q2.4-1 5.4-1.5M808.7 569.2s-2.5 1.4-5.9 3.8l5.6-.1z"/><path fill="#541138" d="M800.6 573a53 53 0 0 1-8.1-9.3l13.8 9.2z"/><path fill="#fff" fill-rule="evenodd" d="M917.5 377.1c8 8.1 11.7 8.1 20.2 0-8.5 8.1-8.5 11.8 0 20-8.5-8.2-12.2-8.2-20.2 0 8-8.2 8-11.9 0-20M771.7 450.9c4 10.5 7.4 12 18.5 8-11.1 4-12.6 7.3-8 18.3-4.6-11-8-12.4-18.6-8 10.6-4.4 12.1-7.8 8-18.3" clip-rule="evenodd"/><path fill="#ff8978" fill-rule="evenodd" d="M778 494.6c3.3 2.3.5 9.4-4.5 16.3-5 6.8-10.3 10.9-13.6 8.5-3.3-2.3-3.2-10 1.8-17 5-6.8 13-10.2 16.3-7.8M805.3 503.9c3.3 2.3.5 9.4-4.5 16.3-5 6.8-10.3 10.9-13.6 8.5-3.3-2.3-3.2-10 1.8-17 5-6.8 13-10.2 16.3-7.8" clip-rule="evenodd"/><path fill="#c5385d" fill-rule="evenodd" d="M784.1 533.3c2.7 23.6 31.8 12.1 34.7-10-11.8 17.5-29 16.7-34.7 10" clip-rule="evenodd"/><path fill="#541138" d="M774.6 523.3s-2.6 11.4 3.8 21.2l3.7-1.5s-6.7-7.8-7.5-19.7"/><path fill="#d0415f" fill-rule="evenodd" d="M757.6 525.5s4.8 13.6 16.5 14.2c0 0-2.3-6.8-1.4-13.4 0 0-6.4 8.4-15-.8" clip-rule="evenodd"/><path fill="#fff" fill-rule="evenodd" d="M796.1 472.7c4.3-1 8.2-.2 8.6 1.7s-2.8 4.1-7 5c-4.4 1-8.3.3-8.7-1.6-.4-1.8 2.8-4.1 7.1-5" clip-rule="evenodd"/><path fill="#541138" d="M698.2 507.5s-11 1.4-18-1.9c0 0 3.7 5.2 10.5 6.5 0 0 3.2-1.8 4-1.7.8 0 3.5-2.9 3.5-2.9"/><path fill="#541138" d="M690.7 511.2s-5.7 2.8-15.7 2c0 0 5.6 3.5 16.4 2.2l-.5-2.5z"/><path fill="#fff" fill-rule="evenodd" d="M1052 379.3s22 21.8 23.9 21.3c2-.5 23-6.8 26.6-10.1 3.6-3.4 9-23.3 7.1-25-1.9-2-37.5-17-39.3-14.4z" clip-rule="evenodd"/><path fill="#fff" fill-rule="evenodd" d="m1136.3 351.6 1.3.2c9.8 1 21.2 7.7 29.7 12.7q6.1 3.5 9.2 9.6c1.9 3.7 2.7 8 1.9 12l-1 4.2-1.5 6.2-1 3.7q2.2 5 2.5 10.2.3 6.1-2.5 11.4c-.2 3.7-.9 7.7-2.3 11a18 18 0 0 1-10.8 10l-2.4.6a288 288 0 0 1-43.9 3.7q-6.3.1-12.7-.5-3.8-.2-7.4-1.1c-6-1.6-11.2-6.2-12.8-12.4a16 16 0 0 1-3.5-5.4c-2-4.8-3.2-11-2.1-16.5-5.8-8.2-6.1-17.2.9-24.2q1.6-5 6.2-7.8a16 16 0 0 1 8.6-7.3q1.8-3 5-5.2a15 15 0 0 1 6.8-7.9l1.2-1.4c.8-4.2 3.7-7.5 7.5-9.7a8 8 0 0 0 2-1.6 9 9 0 0 1 17.2 1.4l2.1 2z" clip-rule="evenodd"/><path fill="#fff" fill-rule="evenodd" d="m1075.4 375.1 1.5 1.5q4 5 5.1 11.3l.5 3.2c1.3 7.7-.7 16-5.1 22.3a27 27 0 0 1-23.6 11.6 48 48 0 0 1-26.9-10.5 40 40 0 0 1-22.5 10.8 30 30 0 0 1-26.8-10.8 32 32 0 0 1-3.9-33q4-8.2 11-13.2a65 65 0 0 1-4.2-43c5-21.6 19.8-45 42.4-50.8l.4-.1a30.4 30.4 0 0 1 39 27.3 22 22 0 0 1 18.5 5.9c7-5.2 15.8-8 24.2-5q5.2 2 8.6 5.6.8-.8 1.7-1.3 6.1-4.2 13.3-4.4c1.3-4 2.5-8 2.8-11.9a12 12 0 0 1 7.4-9.9 12 12 0 0 1 12.2 1.8c6 4.7 8.9 7.3 10.8 12.1h.5a19 19 0 0 1 17.4 8.4 22 22 0 0 1 22 1 33 33 0 0 1 17.2-21.5 32 32 0 0 1 23.9-2c9.3 3.5 12 9.4 13.6 18.5q.5 3.3 0 6.8-.3 1.8-.9 3.7-1.2 3.8-2.6 7.5-1 3.3-1.1 6.7a12 12 0 0 1-2.2 6.6c5.2 11.9 5.2 25-1.5 36.8-4 7.1-10.8 12.3-18.3 15a33 33 0 0 1-36.2-9.7l-1.2.8c-6.6 4-14.5 6-22 3a20 20 0 0 1-4.5-2.5 23 23 0 0 1-15.2 4q-3.7-.4-7-2.2a18 18 0 0 1-12.3-.7 22 22 0 0 1-28.5-3.6c-7 5.6-16 8.3-24.7 5.2z" clip-rule="evenodd"/><path fill="#541138" d="M1043 365.6q-2 8-4.8 15a38 38 0 0 0 19.7 3.4c1.9-.3 5-1.2 6.3-2.7q1.4-1.5 3.5-1.5t3.5 1.6q2.8 3.4 3.5 7.8l.5 3.2c1 5.7-.6 12-4 16.7-4 5.7-10.1 8.8-17 8.5-11.6-.6-19.6-6.5-28-13a35 35 0 0 1-22.6 13.2c-19.3 2.1-30.1-17-23.2-32.9v-.2q5.6-10.7 15.4-13.9c-10.6-10-11-30.8-8-43.9 4.5-19.9 18-40.3 37-45.2h.3c20.3-5.2 33.7 11.8 29 31.2 4.9-3.4 10.7-5.1 16.3-3.2a14 14 0 0 1 9 9.8c5.1-6.8 14.5-12.8 23.2-9.8 5.2 1.9 8.2 6 9.4 11.2q3-4.6 7.5-7.9c3.6-2.4 8-3.8 12.3-2.5q.8.2 1.6.6a80 80 0 0 0 5.5-19.7 5 5 0 0 1 2.8-3.8q2.5-1 4.6.7c8.2 6.5 8.8 7.6 10.1 15.5l.2 2.7 1.8-1.2q.2-.9.8-1.6 1.3-1.5 3.4-1.7c5.6-.2 10.8 2.2 12 8v.4l.5 3.2.1.4v2.2q2.3-2.7 5-4.8c7-5.2 17.1-5.1 21.3 3.4v.1l1.2 3.2v.3l.2.6.5 3.3.1.7q3-1.9 6.8-2.2l-1-3.7-.5-3.2v-.3l-.2-1.6a23 23 0 0 1 7.6-18.6q2.7-2.6 6-4.3a24 24 0 0 1 18-1.5c6.7 2.4 7.8 6.5 8.8 12.6q.5 2.3 0 4.4-.2 1.5-.6 2.9-1.2 3.7-2.6 7.2-1.4 4.3-1.5 8.7 0 2.3-1.7 3.5-1.2 1-2.6 1c6.6 11 8.3 23.8 1.6 35.6a27 27 0 0 1-14.4 11.7 26 26 0 0 1-23.5-3.4 25 25 0 0 1-8.2-10.5 39 39 0 0 1-7 5.5c-4.5 2.8-10 4.5-15.3 2.5q-4.4-2-6.6-5.8c-4.1 4.2-9.4 7.4-15.1 6.8q-4.2-.6-6.5-3.5c-4.7 2.9-9.8 2.7-14-1-9 8.3-22.3 7.2-26.6-7.1v-.1l-.8 1c-4.8 7.1-14.1 13-22.9 9.8a15 15 0 0 1-9-10l-.2.3c-4.9 7-14.2 12.8-23 9.7q-3.3-1.4-5.5-3.8"/><path fill="#af443f" fill-rule="evenodd" d="M1198.5 321.5v.3zm-66.6 5c6.3 0-1 22.7-8 22.3-5.2-.3 1-22.2 8-22.2m112.1-27v.1zm-3.3 43.4v.7zm-165-18.5v.3zm32.1 0v.3zm43.4-23.7v.5l.1.2.5 3.2.1 2.1c-.5 8.3-7.3 22.5-10.5 30.5-1.7 3.8-3.8 8.7-4.4 12l-.1.9c1.6 2.8 6.6 1.5 10-2.9 2-12.3 9-24.3 9-24.3q2-.9 4-1-2.4-.7-3-2.9l-.5-3.2v-1.6c.7-3.3 4.6-5 5.7-5.8q.8-.8.8-1.2l-.1-.6c5.2-.2 6.8 2.4 7.2 4.4v.1l.6 3.2v.3c.5 4-2.7 6.5-6 7.3q1 .1 1 .2l.6 3.2a125 125 0 0 0-8 24.4c1 1.1 3.5-.3 6-2.8q2-2 4.1-4.8 1-6.2 3-10.6c2.8-6 6.8-12.7 11.6-16.4 5.4-4 12-3.4 14.5 1.8l.3.7.5 1.5v.2l.1.5.5 3.2q.5 2.3 0 5.3c-1.4 9.4-9.1 16.1-16.8 13.7-.4.5-1.2 2.6-1.2 4.9q.8 1.8 3.6 2.2c6.5.3 16-16.6 16-16.6 2.6-4 7.3-8.6 14.7-6.8l.6 3.2s-6 7.3-5.2 19.8l.2.5v.2l.2.4v.2l.3.5c2.6 5.4 8.5 5.9 12.8 3.2a10 10 0 0 0 4.5-8.6v-.8q-.8-3-3-6.7c-3.2-5.5-10.2-12.9-11.6-21.2l-.5-3.2v-.3q-.2-.7-.2-1.3c-.4-4.7 1.2-9.8 6.3-15 6.3-6.2 17.8-7.3 22.5-2.6l.5.6.1.1.4.6.4.7v.1l.3.7v.1l.2.8.6 3.3v3c-1 5.5-4.5 9.5-4.8 19.3 0 0-7.6-1.6-8.5-7l-.5-3.2v-2c.4-2.6 2.6-6.3 3.3-9q-.4-.4-1.1-.5c-3.6-.5-7 5.9-6.7 12.2l.1.3.1.4.2.6.4.8.1.4.3.6.1.2c2.8 5.4 8 11 11 17.7l1 2.8.1.1.8 2.8v.3l.1.6.5 3.2c.9 4.8.2 10.3-3.4 16.6-2.7 4.7-7.4 8-12 9.7-6 2.2-13.5 1.2-19.2-2.8a24 24 0 0 1-8.7-15.4l-.1-1c-7 9.5-16.2 15.9-22.7 13.3-3.5-1.4-5.4-5-6.1-9.3l-.3-1.8c-4.6 6.9-10.7 12.4-16.6 11.8-2.2-.3-4.2-1.7-5-5.7v-1c-4.5 5.6-11 8.4-15.7-.7-6.5 10.2-18.6 11.8-22.4-1l-.5-2-.5-3.1q-.6-3.6 0-7.7l-2 .6c-1.5 4-3.5 8.4-6 12-7.4 10.7-22 12.6-24.3-1.8l-.6-3.2v-.7q-.4-3.3-.1-6.6l-1.2.3c-1.4 4-3.4 8.4-6 12-7.4 10.7-21.9 12.6-24.3-1.8l-.5-3.2-.1-.7a44 44 0 0 1 8-29c4.3-5.7 11.9-10.6 18.2-8.3 3.9 1.3 5.7 4.4 6.4 8v.1l.2.5.5 3.2q.6 4.2 0 8.6l1-.4q2.2-6.4 6-11.6c4.1-5.8 11.7-10.7 18-8.4 4 1.3 5.8 4.4 6.5 8v.1l.1.5.5 3.2q.7 4.2.1 8.6l2.5-1q1.4-3.7 3.1-6.8c6.9-12.4 17-15.8 21.3-7.7a103 103 0 0 0 8.4-27.1c3.3 2.7 6.7 5 7.7 8.8m-101.3 2.5-.1-2.1zm-.4-4.4-.6-2.2-.2-.6-.8-1.7v-.1l-1.1-1.8-.2-.2q-.5-.8-1.1-1.3l-.3-.4-1.2-1q0-.3-.3-.3l-1.5-1q0-.2-.2-.2-1.7-1-3.8-1.8h-.1l-2-.5h-.3l-2-.3h-.3q-3.5-.3-7.3.7h-.2l-2.3.8h-.4l-2.3 1-.3.2q-3.9 1.8-7.9 5 0 .3-.3.4a45 45 0 0 0-4.8 4.7l-.4.4q-2.5 2.8-5 6.4l-.1.3-2 3.3-.5.9a83 83 0 0 0-4 7.9l-.3.7-2 4.9a54 54 0 0 0-2.5 23.5l.3 2.4.6 3.2c1.6 9.7 6.3 18 15.8 19.6 3.5.7 9.1-.8 14.1-3.4-.9 2.5-2.3 5.4-3.9 7.4-5.5-1.8-24.8-6.3-33.2 11q-2.4 5.4-1.4 10.2l.5 3.2c2.5 14.5 25.1 21.4 41.6-2 9 6.9 17.2 14.3 29 14.9s17.8-11.3 16.3-19.9l-.5-3.2q-.6-3.1-2.4-5.5s-9.6 11-35.5-1.4c4.6-10.3 9.8-26.2 7.7-38.5l-.5-3.2a24 24 0 0 0-2.2-7s-6.5-.5-9.4 2.8c0 0-5 19.3-13.4 16.4a4 4 0 0 1-2.2-1.9l-.1-.1-.1-.3-.1-.2-.2-.3-.2-.5v-.4l-.1-.1c-.4-4.4.4-10.3 2-16.6 2-7.4 9-28 16.5-29.8q1.8-.4 2.6.4c-.8 5.1-5.9 14-6.3 14.8l.5 3.2s10 6.4 20.9-4a26 26 0 0 0 2.5-15.1l-.5-3.2zm134.8 35.6a12 12 0 0 0 7.5-7.1c-1.6-.3-5 2-7.5 7m-96 15.7c.2-3.2 1.4-7.5 2.3-10q1.3 2.7 4 4.4c-2 4.3-4 7.3-5.6 6.2q-.4-.2-.7-.6m-32.1 0 .6.6c1.6 1 3.7-1.9 5.6-6.2q-2.7-1.6-4-4.3c-.8 2.4-2 6.7-2.2 9.9m38-18.8q.8 2.4 3.3 4a43 43 0 0 0 1-7.2l-.4-.4q-1.3-.4-3.7 3.2zm-32.2 0q.8 2.4 3.3 4a41 41 0 0 0 1-7.2l-.4-.4q-1.2-.4-3.7 3.2zm-49.8 58.8c-4-1-8-1-10.3-.4-2.5.7-4.6 3.5-4.9 6.3 1.3 2.3 5.2 3 8.5.8 2.3-1.5 5-4 6.7-6.7" clip-rule="evenodd"/><path fill="#fad862" fill-rule="evenodd" d="m1107.6 332.4-.5 2.5 3.6-1.5q1.4-3.6 3.1-6.7c6.9-12.4 17-15.8 21.3-7.7q7.4-17.2 8.4-27.1c4.1 3.3 8.3 6.2 7.9 11.6-.6 8.3-7.4 22.5-10.6 30.5-1.6 3.8-3.8 8.7-4.3 12-1.4 7.5 6 7 10.3 1.2 2.2-12.3 9-24.3 9-24.3 4.3-2 9.8-.8 9.8-.8-2.4 5.2-6.7 17-7.8 23.2-1.1 6.8 2.6 5.4 6.3 1.6q2.2-2 4.2-4.8 1-6.2 3-10.6c2.8-6 6.8-12.7 11.6-16.4 7.6-5.7 17.2-2.2 15.4 10-1.4 9.4-9.2 16-16.8 13.7-.9 1-3.5 10 3 10.3s16-16.6 16-16.6c2.5-4 7.2-8.6 14.6-6.8 0 0-6 7.3-5.1 19.8.7 9.9 8.6 11.6 14 8.2 4.5-3 6.9-9.3 1-19.4-5.2-8.8-20.4-22.6-5.5-37.6 8.3-8.4 26.2-7.5 24.4 4-.8 5.6-4.4 9.6-4.7 19.4 0 0-9.4-2-8.5-9 .6-4.4 6.5-12 1.6-12.7-4-.6-7.9 7.7-6.2 14.7 2.7 12 23 23.7 11 44.9-2.7 4.7-7.4 8-12 9.7-6.1 2.2-13.6 1.2-19.3-2.8a24 24 0 0 1-8.8-16.3c-6.9 9.4-16.1 15.8-22.6 13.2-4-1.6-6-6-6.4-11.2-4.6 7-10.7 12.5-16.6 11.9-2.4-.3-4.6-2-5-6.7-4.5 5.5-11 8.4-15.7-.7-6.5 10.2-18.6 11.7-22.5-1-1-3.7-.8-8.4.2-13.2l-3.2 1c-1.4 4-3.4 8.3-5.9 12-7.6 10.9-22.4 12.6-24.5-2.5a39 39 0 0 1 .4-10.1l-2.2.6c-1.4 4-3.4 8.3-5.9 12-7.5 10.9-22.4 12.6-24.4-2.5a44 44 0 0 1 8-29c4.3-5.7 11.9-10.6 18.2-8.3 7.4 2.6 7.3 11.2 6.5 18.3q0 1.1-.4 2.5l2-.8q2.2-6.4 6-11.6c4.1-5.8 11.7-10.7 18-8.4 7.4 2.6 7.3 11.2 6.6 18.3m-81.4-14s9.9 6.5 20.8-3.9c14.9-32.4-32.7-48-53.6 8.5-5.3 14.5-4.5 42.4 13.6 45.5 4 .7 10.7-1.3 16.2-4.5 0 0-2.1 6.4-5.3 11.7-7.5-2.6-24.9-6.3-33.3 11-8.9 20.4 20.2 36.6 40.2 8.2 9 6.8 17.1 14.3 29 14.8 14.8.7 20.3-17.7 13.9-25.3 0 0-10 11.5-37.1-2.2 5.6-11.9 13.4-34.3 6.6-47.9 0 0-6.5-.5-9.4 2.8 0 0-5 19.3-13.4 16.4-4.6-1.5-4.6-11.9-1.5-23.6 1.9-7.4 9-28 16.4-29.8 8.6-2-2.4 17.1-3.1 18.4m-12.6 69.2c-1.4 3.4-5 7.1-8.1 9.2-3.4 2.3-7.6 1.4-8.7-1.2-1.4-3.5 1.2-8.1 4.6-9.1 2.6-.8 7.8-.6 12.2 1m47.7-59.3c.3 2.4 1.2 5.5 4 7q.7-3 1-5.8.1-4.3-1-5-1.1-.5-3.6 3.2zm2 13.7q-3.8-1.7-5.4-5c-1.3 3.8-3.7 12-1 13.7 1.8 1.2 4.4-3 6.4-8.7m30.2-13.7c.3 2.4 1.2 5.5 4 7l.9-5.8q.2-4.3-.9-5-1.2-.5-3.7 3.2zm2 13.7q-3.8-1.7-5.5-5c-1.3 3.8-3.6 12-1 13.7 1.8 1.2 4.5-3 6.5-8.7m86.8-7.2s5.9-.4 9-6.2c4-7.8-5.2-5.5-9 6.2m-19.5-28.2s.5.8-.7 1.8c-1 .7-5 2.5-5.6 5.8-.7 3.4 2.2 4.7 5.1 4.8 3.8 0 9.1-2.6 8.5-7.6-.3-2-1.8-5-7.3-4.8m-32.7 18c6.3 0-1 22.7-7.9 22.3-5.3-.3 1-22.3 7.9-22.3" clip-rule="evenodd"/><path fill="#ffff8a" fill-rule="evenodd" d="M1180.5 337.3q-1-1-.5-2.4c1.2-3.6 3.1-7.3 5.9-10q1.5-1.4 3.4-2.2 2.3-1 4.4.4c2.5 1.9 1.3 5.3.1 7.6a14 14 0 0 1-6.8 6.5h-.2c5-1.1 8.4-6.7 9-11.6.5-3 .4-7.4-2.8-9-2.7-1.4-6-.1-8.2 1.5a43 43 0 0 0-13.6 25.2q0 .7-.5 1.3a52 52 0 0 1-4.2 5q1-1 2.4-.7 1.8.5 2 2.4c.3 3.2 1.3 7.6 4.7 9 2.9 1 6.4-.5 8.8-2 4.1-2.5 7.9-6.5 10.7-10.4q1.2-1.4 2.8-1 1.8.5 2 2.2c.7 5.4 3.2 11.3 7.7 14.5a19 19 0 0 0 16.8 2.5 21.6 21.6 0 0 0 10.6-31.8q-3-5-6.3-9.7c-2-3-4.2-6.4-5-10-.9-3.8-.4-8.2 1.2-11.9 1.4-3.1 4.2-6.6 8.1-6q2.2.3 3.5 2c1.7 2.9-.2 6.8-1.4 9.5-.5 1.2-1.3 2.9-1.6 4.2-.2 2 1 3.4 2.6 4.4l1 .5q.4-3.5 1.5-7.1 1.3-3.6 2.5-7l.4-2q.5-2.1-.8-4c-1.3-1.7-4-2.4-6-2.5a18 18 0 0 0-13.1 4.8c-4 4-6.4 8.6-5.3 14.3q.8 3.9 2.7 7.2 2 3.6 4.3 6.7 2.3 3 4.2 6.2c2.5 4.1 4.4 9.2 3.8 14q-.8 5.8-5.7 9a12 12 0 0 1-9.3 1.7c-5.7-1.4-8.4-6.6-8.7-12a35 35 0 0 1 3.2-17.6q-5 1-7.9 5.9l-.1.2q-3 5.2-6.7 9.8c-2.7 3.2-7 8-11.6 7.7q-3.4 0-5.4-2.8a9 9 0 0 1-1.3-5.1c0-1.9.6-5.2 1.8-6.6q.3-.5.9-.8m-34.9-39.5q-.8 3.7-2 7.5a177 177 0 0 1-5.8 15.6q-.7 1.5-2.3 1.7-1.6 0-2.5-1.4a5 5 0 0 0-3-2.9c-2.1-.6-4.4.5-6.1 1.6a27 27 0 0 0-7.5 9q-1.8 3-3 6.4-.4 1-1.3 1.4-1.9 1-3.8 1.6-1.6.5-2.7-.5-1-1-.8-2.5l.4-2.3.3-4c.1-4.5-.3-9.8-5.1-11.5-5.5-2-12 3.3-15 7.5q-3.7 5-5.6 10.9-.5 1-1.5 1.6l-2.2.8q-1.5.5-2.6-.5t-.9-2.5l.4-2.3.3-4c.2-4.5-.3-9.8-5-11.5-5.5-2-12.1 3.3-15.1 7.5a41 41 0 0 0-7.6 27c1.8 13 13.8 9.5 19.6 1.2q3.5-5.3 5.5-11.2.5-1.4 1.9-1.7l2-.7q1.4-.4 2.6.5 1 1 .9 2.5a37 37 0 0 0-.4 9.4c1.8 13 13.9 9.5 19.6 1.2q3.6-5.3 5.6-11.2.5-1.4 1.8-1.7l3-1q1.6-.6 2.7.5 1.1 1 .9 2.6c-.8 3.6-1.3 8.2-.3 11.9 3.3 10.7 12.6 8.2 17.7.3q.8-1.3 2.3-1.2 1.5 0 2.3 1.4c1 1.8 2.6 4.4 5 4.4 2.3 0 4.8-2.5 6.2-4.2q1.2-1.4 2.8-.9t2 2.3c0 1.7.5 4.1 2.6 4.3 5.6.6 11.4-6.6 14.1-10.7l.3-.3c-2 2-5.6 5-8.7 3.5-2.7-1.4-2.6-4.9-2.2-7.5q1.3-6.1 3.4-12 1.5-4.2 3.2-8.4a14 14 0 0 0-4 .7 81 81 0 0 0-8.3 22.6q0 .6-.5 1.2-2.3 3.1-5.9 4.7c-2.1.8-4.7 1-6.7-.3-2.6-1.7-3-4.9-2.5-7.8q1-4 2.6-8l2-4.5q2.9-7.1 5.8-14.3 1.7-4 3-8.4 1.1-3.4 1.5-7a6 6 0 0 0-.7-3.2q-1-1.7-2.7-3.2m-86.4 30.1.5-.8q1-1.6 2.6-3.1 2.1-1.9 4.5-1c2.5 1.3 2.4 5.1 2.3 7.5v.1q-.2 3-1 6.1-.2 1.3-1.4 1.9t-2.4-.1c-3.4-1.8-5-5.3-5.4-9q0-.7.3-1.6m1.3 8.7q1.3 2.7 4 3.8c1.4.5 2 2 1.6 3.4-.9 2.4-2 5-3.3 7s-3 4-5.6 3.7q-.9-.2-1.6-.6c-3.3-2.2-2.4-7.7-1.7-11q.7-3 1.7-5.9.5-1.6 2.3-1.8 1.6 0 2.6 1.4m36 1.9c-3.4-1.8-5-5.3-5.4-9q-.2-.7.3-1.6l.5-.8q1-1.6 2.6-3.1 2-1.9 4.5-1c2.5 1.3 2.4 5.1 2.3 7.5v.1q-.3 3-1 6.1-.3 1.3-1.5 1.9t-2.3-.1m1.7 5.3q-1.2 3.8-3.3 7c-1.2 2-3 4-5.5 3.7q-1-.2-1.6-.6c-3.4-2.2-2.5-7.7-1.7-11q.7-3 1.6-5.9.7-1.6 2.3-1.8 1.8 0 2.6 1.4 1.4 2.7 4 3.8c1.4.5 2.1 2 1.6 3.4m32.1-21q1.5 0 2.6.8c4.5 3 1.9 11.9.3 15.8-1.7 4.2-5.5 11.4-10.9 11q-1 0-1.9-.5c-4.6-2.6-2-12-.6-15.7 1.6-4.4 5.2-11.3 10.5-11.3m-85.2-9c3-6.7 3.9-15.3-2-20.9-5.7-5.6-14.7-4.7-21.4-1.3-12.6 6.2-20.9 20.6-25.5 33.2-2 5.5-2.9 12.2-2.7 18 .2 9.5 3.2 22.1 14.2 24 4.1.7 10.8-2 14.4-4.2q1.5-.8 3 .2 1.3 1.2 1 2.8c-1.2 4-3.4 9.6-6 12.7q-1.1 1.2-2.9.8c-4.5-1.4-9.7-2-14.3-1.5a19 19 0 0 0-15.6 11.2c-2 4.5-2 9.4.8 13.6 3.2 4.6 9 6.5 14.4 6 8.6-1 15.6-7.4 20.4-14.1q.6-1 1.7-1.1t2 .5c8.4 6.4 16.5 13.8 27.6 14.3 5.7.2 10-3 12.3-8 1.3-3 2-7.4.7-10.7-2.2 1.3-5 2.3-7.2 2.7-10.1 2-21.5-2-30.4-6.5a3 3 0 0 1-1.2-3.5c5.3-11.3 12.3-31.6 7.3-44.1-1.8 0-4 .5-5.3 1.5-.9 3.2-2.3 6.8-3.9 9.7-1.8 3.4-4.6 7.3-8.7 8.1q-2 .4-4-.2c-8.6-3-4.9-20.7-3.3-26.8a104 104 0 0 1 5.5-15.7c2.3-5.2 7-14.5 13-16q2.9-1 5 1c3.1 3 .5 9.3-.9 12.5l-3 6.1 2.9.6c4.6.3 8.7-1.8 12-4.8m-28.8 75.6c-1.6 4-5.6 8.2-9.1 10.6a10 10 0 0 1-6.6 1.6 7 7 0 0 1-5.5-3.1l-.5-1c-2-4.9 1.3-11.2 6.3-12.6 4-1.2 10-.4 13.8 1q1.1.4 1.6 1.5.4 1 0 2m148.7-79.1-1 1c-1.5 1.2-4.3 2.4-4.7 4.3v.9c.5.5 2 .7 2.6.7 2.5 0 6.2-1.5 5.8-4.6-.2-1.5-1.4-2.1-2.7-2.3" clip-rule="evenodd"/><path fill="#ffff8a" fill-rule="evenodd" d="m1113 328.2.8-1.5c6.9-12.4 17-15.8 21.3-7.7q7.4-17.2 8.4-27.1c4.1 3.3 8.3 6.2 7.9 11.6-.4 6.1-4.2 15.5-7.5 23.2l-11.5.6q-.3-2.6-2.3-2.7-2.4.1-4.6 3zm41.1-2 1.7-3.3c4.3-2 9.8-.8 9.8-.8l-1.5 3.6zm20.5-1a35 35 0 0 1 8.3-10c7.3-5.6 16.6-2.5 15.5 8.8l-6.5.3q-.8-.6-2.3.2zm42.8-2.1c-4.6-7.7-7.5-16.8 2-26.4 8.4-8.4 26.3-7.5 24.5 4-.8 5.6-4.4 9.6-4.7 19.4 0 0-9.4-2-8.5-9 .6-4.4 6.5-12 1.6-12.7-4-.6-7.9 7.7-6.2 14.7q1.2 4.6 4.7 9.3zm-171.6 8.4a43 43 0 0 1 5-9c4.2-5.8 11.8-10.7 18-8.4 6.7 2.3 7.3 9.4 6.8 16l-9.5.4.1-1q.3-4.3-.8-5-1.3-.5-3.7 3.2l-.4.6.5 2.4zm32.9-1.6a42 42 0 0 1 4.2-7.4c4.2-5.8 11.8-10.7 18.1-8.4 6.1 2.1 7.2 8.3 6.9 14.4l-9.5.4q0-3.7-.9-4.4-1.2-.5-3.7 3.2l-.3.6.1.9zm-87.8 4.3 21.2-1 .8-3.3c1.9-7.4 9-28 16.4-29.8 8.6-2-2.4 17.1-3.1 18.4 0 0 9.9 6.4 20.8-4 14.9-32.4-32.7-48-53.6 8.5q-1.8 5-2.5 11.2m171.9-27.6s.5.8-.7 1.8c-1 .7-5 2.5-5.6 5.8-.7 3.4 2.2 4.7 5.1 4.8 3.8 0 9.1-2.6 8.5-7.6-.3-2-1.8-5-7.3-4.8" clip-rule="evenodd"/><path fill="#fff" fill-rule="evenodd" d="m1113 328.2.8-1.5c6.9-12.4 17-15.8 21.3-7.7q7.4-17.2 8.4-27.1c4.1 3.3 8.3 6.2 7.9 11.6-.4-4.5-4.1-7.1-8-10.2q-1 10-8.3 27.1c-4.4-8-14.4-4.6-21.3 7.7zm41.1-2 1.7-3.3c4.3-2 9.8-.8 9.8-.8l-.6 1.3c-1.5-.2-5.7-.6-9.2 1l-1 1.8zm20.5-1a35 35 0 0 1 8.3-10c7.1-5.4 16-2.7 15.6 7.8-.4-9.3-8.8-11.5-15.6-6.4a33 33 0 0 0-7.4 8.6zM1213 311c-.2-4.5 1.5-9.4 6.4-14.3 8.1-8.2 25.3-7.6 24.5 3.2-.8-9.4-16.7-9.6-24.5-1.8a19 19 0 0 0-6.4 13m17.5 1.7v-1.6c.5-2.8 3.1-7 3.6-9.8.6 2.6-3 7.9-3.5 11.2zm-5-2.2q.1 1.4.5 2.6 1.2 4.6 4.7 9.3h-1a26 26 0 0 1-3.7-7.8q-.6-2.1-.4-4.1m-179.8 21a43 43 0 0 1 5-9c4.2-5.8 11.8-10.7 18-8.4 5.9 2 7 7.7 7 13.4-.2-5.2-1.6-10.1-7-12-6.2-2.2-13.8 2.7-18 8.4a42 42 0 0 0-4.4 7.6zm20.5-1h-.2l.1-1v-.5zm-4.8-1 .3 1.2h-.3l-.2-1zm17.2.4a42 42 0 0 1 4.2-7.4c4.2-5.8 11.8-10.7 18.1-8.4 5.8 2 7 7.7 7 13.4-.2-5.2-1.7-10.1-7-12-6.3-2.2-13.9 2.7-18 8.4a42 42 0 0 0-3.7 6zm-87.8 4.3h.2q.8-5.5 2.3-9.7c18-48.7 55.6-44 56.4-21 .8-24.2-38-30.1-56.4 19.5q-1.8 5-2.5 11.2m41.6-31c-.5 5.1-5.8 14.4-6.3 15.3l.6.3c1.7-3.1 6.3-11.8 5.8-15.6m130.3 3.4s.5.8-.7 1.8c-1 .7-5 2.5-5.6 5.8q-.3 1 0 1.7v-.3c.6-3.2 4.5-5 5.6-5.8 1.2-1 .7-1.7.7-1.7 5.5-.2 7 2.7 7.3 4.7v.1-1.5c-.3-2-1.8-5-7.3-4.8" clip-rule="evenodd"/><path fill="#f5a151" fill-rule="evenodd" d="M1180.2 336.4q-.8-1-.4-2.4c1.1-3.6 3-7.3 5.8-10q1.5-1.5 3.5-2.2 2.2-1 4.4.4c2.4 1.9 1.3 5.3.1 7.6a14 14 0 0 1-6.9 6.5h-.2c5.2-1.2 8.4-6.7 9.1-11.6.5-3 .3-7.4-2.8-9-2.7-1.4-6-.1-8.3 1.5a43 43 0 0 0-13.6 25.2q0 .7-.5 1.3l-4.2 5q1.1-1 2.5-.7 1.7.5 2 2.4c.3 3.2 1.3 7.6 4.6 9 3 1 6.4-.5 8.9-2a40 40 0 0 0 10.7-10.4q1-1.5 2.8-1 1.6.4 2 2.2c.7 5.4 3.2 11.3 7.7 14.5a19 19 0 0 0 16.7 2.5c4.3-1.6 8.4-4.5 10.6-8.5a22 22 0 0 0 0-23.3q-2.8-5-6.3-9.7c-2-3-4.1-6.4-5-10-.8-3.8-.4-8.3 1.3-11.9 1.3-3.1 4.2-6.6 8-6q2.3.3 3.5 2c1.8 2.9-.2 6.8-1.4 9.5-.5 1.2-1.3 2.9-1.5 4.1-.2 2.1 1 3.5 2.6 4.5l.9.5q.4-3.5 1.6-7.1c.7-2.4 1.8-4.7 2.4-7l.5-2q.4-2.2-.8-4c-1.4-1.7-4-2.4-6-2.5a18 18 0 0 0-13.1 4.8c-4 4-6.4 8.6-5.4 14.3q.8 3.9 2.7 7.2 2 3.5 4.4 6.7 2.3 3 4.2 6.2c2.4 4.1 4.4 9.2 3.7 14q-.9 5.8-5.6 8.9a12 12 0 0 1-9.4 1.7c-5.7-1.3-8.3-6.5-8.7-12a35 35 0 0 1 3.3-17.5c-3.3.4-6 2.7-8 5.9v.2q-3.1 5.2-6.8 9.8c-2.6 3.2-7 8-11.5 7.7q-3.4 0-5.4-2.8a9 9 0 0 1-1.4-5.1c0-1.9.7-5.2 1.9-6.7zm-34.8-39.6-2 7.6q-2.6 8-5.8 15.6-.7 1.5-2.4 1.7-1.6 0-2.4-1.4a5 5 0 0 0-3-2.9c-2.1-.6-4.5.5-6.1 1.6a27 27 0 0 0-7.6 9q-1.6 3-3 6.4-.3 1-1.3 1.4l-3.8 1.6q-1.5.5-2.6-.5-1-1-.9-2.5l.4-2.3.3-4c.2-4.5-.2-9.8-5-11.5-5.5-2-12 3.3-15.1 7.5q-3.6 5-5.6 10.9-.3 1-1.4 1.5l-2.2 1q-1.6.3-2.7-.6-1-1-.8-2.5l.3-2.3.4-4c.1-4.5-.3-9.8-5.1-11.5-5.5-2-12 3.3-15 7.5a41 41 0 0 0-7.7 27c1.8 13 13.9 9.5 19.7 1.2 2.3-3.4 4.2-7.4 5.5-11.2q.5-1.4 1.8-1.7l2-.7q1.5-.4 2.6.5t1 2.5q-.9 4.6-.4 9.4c1.8 13 13.8 9.5 19.6 1.2 2.4-3.4 4.2-7.4 5.6-11.2q.5-1.4 1.8-1.7l3-1q1.5-.6 2.7.5 1 1 .8 2.5c-.8 3.7-1.3 8.3-.2 12 3.2 10.7 12.6 8.2 17.6.3q.8-1.3 2.4-1.2 1.5 0 2.2 1.4c1 1.8 2.7 4.4 5 4.4 2.4 0 4.9-2.5 6.2-4.2q1.1-1.4 2.9-.9 1.6.6 1.9 2.3c.2 1.7.6 4.1 2.7 4.3 5.5.6 11.4-6.6 14-10.7q.3 0 .3-.3c-2 2-5.5 5-8.6 3.5-2.8-1.4-2.6-5-2.2-7.5q1.2-6.1 3.4-12l3.1-8.4q-2.2 0-4 .7a80 80 0 0 0-8.2 22.6l-.5 1.2q-2.4 3.1-6 4.6c-2 1-4.6 1.1-6.7-.2-2.6-1.7-3-5-2.5-7.8q.9-4 2.7-8l1.9-4.5q3-7.2 6-14.3l2.9-8.4q1.1-3.4 1.5-7a6 6 0 0 0-.7-3.2q-1-1.7-2.7-3.3M1059 327l.5-.8c.7-1 1.6-2.3 2.6-3.1q2-1.9 4.5-1c2.5 1.3 2.4 5.1 2.3 7.5v.1q-.3 3-1 6.1-.3 1.3-1.5 1.8t-2.3 0c-3.4-1.8-5-5.3-5.4-9q-.2-.7.3-1.6m1.2 8.7q1.4 2.7 4 3.8c1.4.5 2.1 2 1.6 3.4q-1.2 3.8-3.2 7c-1.3 2-3.1 4-5.6 3.7q-1-.1-1.6-.6c-3.4-2.2-2.5-7.7-1.7-11q.7-3 1.6-5.9.7-1.6 2.3-1.8 1.8 0 2.6 1.4m36 1.9c-3.4-1.8-5-5.3-5.4-9q0-.7.3-1.6l.5-.8c.8-1 1.6-2.3 2.6-3.1q2.1-1.9 4.5-1c2.5 1.3 2.5 5.1 2.3 7.5v.1a45 45 0 0 1-1 6.1q-.2 1.3-1.4 1.8t-2.4 0m1.8 5.3q-1.3 3.8-3.3 7c-1.2 2-3 4-5.6 3.7q-.8-.1-1.6-.6c-3.3-2.2-2.4-7.7-1.7-11q.7-3 1.7-5.9.5-1.6 2.3-1.8 1.6 0 2.6 1.4 1.3 2.7 4 3.8c1.4.5 2.1 2 1.6 3.4m32.1-21q1.5 0 2.6.8c4.5 3 1.8 11.9.3 15.8-1.7 4.2-5.5 11.3-11 11q-.9 0-1.8-.5c-4.6-2.6-2-12-.6-15.7 1.6-4.4 5.1-11.3 10.5-11.3m-85.3-9c3-6.7 4-15.3-1.8-20.9-5.9-5.6-14.8-4.7-21.6-1.3-12.6 6.2-20.8 20.6-25.5 33.2-2 5.5-2.8 12.2-2.7 18 .3 9.5 3.3 22.1 14.3 24 4 .7 10.8-2 14.4-4.2q1.5-.8 3 .2 1.3 1.2.9 2.8c-1.1 4-3.3 9.6-6 12.7q-1.2 1.2-2.8.8c-4.5-1.4-9.7-2-14.4-1.5a19 19 0 0 0-15.6 11.2c-2 4.5-2 9.4.9 13.6 3.2 4.6 8.9 6.5 14.4 5.9 8.5-1 15.5-7.3 20.3-14q.6-1 1.8-1.1 1-.2 2 .5c8.4 6.4 16.4 13.8 27.6 14.3 5.6.2 10-3 12.3-8 1.3-3 2-7.4.7-10.7a23 23 0 0 1-7.2 2.7c-10.2 2-21.5-2-30.4-6.5a2.7 2.7 0 0 1-1.2-3.6c5.3-11.2 12.3-31.5 7.3-44-1.8 0-4 .4-5.3 1.5-1 3.2-2.3 6.8-3.9 9.7-1.8 3.4-4.7 7.3-8.7 8.1q-2.1.4-4-.3c-8.6-2.8-5-20.6-3.3-26.7q2-8.2 5.5-15.7c2.3-5.2 6.9-14.6 13-16q2.7-1 5 1c3 3 .5 9.3-1 12.5q-1.3 3.1-3 6.1l3 .6c4.6.3 8.7-1.8 12-4.9m-28.7 75.6c-1.6 4-5.6 8.2-9.2 10.5a10 10 0 0 1-6.6 1.7 7 7 0 0 1-5.4-3.1l-.5-1c-2-4.9 1.3-11.2 6.2-12.7 4-1.1 10-.3 13.9 1.2q1 .3 1.5 1.4t0 2m148.6-79.1q-.3.6-1 1c-1.4 1.2-4.2 2.4-4.6 4.3v.9c.5.5 2 .7 2.6.7 2.5 0 6.1-1.5 5.8-4.6-.2-1.5-1.4-2.1-2.7-2.3" clip-rule="evenodd"/><path fill="#ee874b" fill-rule="evenodd" d="M1201 349.5c1 4.6 3.2 9.5 7 12.2a17 17 0 0 0 15.7 2.4 19 19 0 0 0 10-8q3-5 3.2-9.7a46 46 0 0 1-5.3 3.4q-1.6 4.5-5.6 7c-3 2-6.8 2.8-10.3 2q-5.4-1.5-7.7-6.2-3.4-1-7-3.1m-29.2.8c.3 2.7 1.1 6.8 4 8 2.4.9 5.7-.6 7.8-1.9q3.3-2 6.2-5.1c-5.8 3.5-15 3-18-1m-21.8 4.5.1.6c.1 1 .4 3.1 1.7 3.2 3 .4 6.2-2 8.9-4.9-.3 0-6 3-10.7 1m-17.5-8.1c-3 3.1-13.2 12.6-21 3.7q0 1.5.4 2.6c.8 2.7 2.4 5.7 5.5 6.3q2.8.3 5.1-1.2 3-1.9 5-5 1.2-1.9 3.3-1.8 2.2.1 3.3 2c.7 1.4 2.2 3.8 4 3.8q1.7-.2 3.5-1.9-3.1.8-5.9-.9c-2.6-1.7-3.4-4.7-3.2-7.6m-34.7 2.3-2 1.4-.1.2c-1.5 2.3-3.7 4.5-6.7 4.1a5 5 0 0 1-2.1-.8q-.8-.5-1.5-1.3-3.7-1-6.9-6.7l.1 5c.4 3 1.6 6.3 4.6 7.4 2.2.7 4.6 0 6.6-1q3.8-2 6.3-5.6zm-31.5-1-1.8.9-1 1.7c-1.5 2.3-3.7 4.5-6.7 4.1a5 5 0 0 1-2-.8q-1-.6-1.6-1.5-4.2.2-6.8-3.4v2c.5 2.8 1.6 6.2 4.7 7.3 2.1.7 4.6 0 6.5-1q3.9-2 6.4-5.6z" clip-rule="evenodd"/><path fill="#f7b359" fill-rule="evenodd" d="m1185 324.7.6-.6q1.5-1.6 3.5-2.3 2.2-1 4.4.4 1 .8 1.3 2h1c.3-3 0-7-3-8.5-2.7-1.4-6-.1-8.3 1.5q-3.8 3.1-6.7 7.8zm42.7-2.1a28 28 0 0 1-4.2-8.9c-1-3.8-.5-8.3 1.2-11.9 1.3-3.1 4.2-6.6 8-6q2.3.3 3.5 2c1.8 2.9-.2 6.8-1.4 9.5-.5 1.2-1.3 2.9-1.5 4.1-.2 2.1 1 3.5 2.6 4.5l.9.5q.4-3.5 1.6-7.1c.7-2.4 1.8-4.7 2.4-7l.5-2q.4-2.2-.8-4c-1.4-1.7-4-2.4-6-2.5a18 18 0 0 0-13.1 4.8c-4 4-6.4 8.6-5.4 14.3q.8 3.9 2.7 7.2l1.7 2.8zm-86.7 4.3-6 .2q-.1-2.8-2.3-4.4-1.2-.7-2.6-.7c-3.4 0-6 2.7-8 5.8l-6 .3v-.1c1.9-3.3 4.4-6.8 7.6-9 1.6-1.1 4-2.2 6-1.6q2.1.9 3 2.9 1 1.4 2.5 1.4 1.7-.2 2.4-1.7a174 174 0 0 0 7.8-23.2q1.6 1.5 2.7 3.3a6 6 0 0 1 .7 3.3q-.4 3.4-1.5 6.9-1.4 4.3-3 8.4t-3.3 8.2m20.1-1-4 .2.6-1q1.8-.7 4-.7zm-88.2 4.3-4 .2v-.7c.1-2.5.2-6.3-2.3-7.5-1.6-.8-3.3-.2-4.5.9a16 16 0 0 0-3.1 4q-.5.6-.3 1.6 0 1.1.4 2.2l-10.3.5a40 40 0 0 1 4.1-7.3c3-4.2 9.6-9.4 15-7.5 4.9 1.7 5.3 7 5.2 11.4zm32.3-1.6-4.1.2c0-2.4-.1-5.5-2.4-6.6-1.6-.8-3.2-.2-4.5.9a15 15 0 0 0-3 4q-.6.6-.4 1.6l.1.6-9.2.5q1.4-3 3.4-5.7c3-4.2 9.6-9.4 15-7.5 4.9 1.7 5.3 7 5.1 11.4zm-111.6 5.5 15.7-.8a88 88 0 0 1 6.5-19.7c2.3-5.2 6.9-14.6 13-16q2.7-1 5 1c3 3 .5 9.3-1 12.5q-1.3 3.1-3 6.1l3 .6c4.6.3 8.7-1.8 12-4.9 3-6.7 4-15.3-1.8-20.9-5.9-5.6-14.8-4.7-21.6-1.3-12.6 6.2-20.8 20.6-25.5 33.2a45 45 0 0 0-2.3 10.2m171.1-24.7q-.3.6-1 1c-1.4 1.2-4.2 2.4-4.6 4.3v.9c.5.5 2 .7 2.6.7 2.5 0 6.1-1.5 5.8-4.6-.2-1.5-1.4-2.1-2.7-2.3" clip-rule="evenodd"/><path fill="#d25148" fill-rule="evenodd" d="M1194.4 323.2c1.1 2 .2 4.7-.8 6.6a14 14 0 0 1-6.9 6.5h-.2c5.2-1.2 8.4-6.7 9.1-11.6l.1-.8zm.1-6q-.6-.9-1.7-1.5c-2.7-1.4-6-.1-8.3 1.5a43 43 0 0 0-13.6 25.2q0 .7-.5 1.3l-4.2 5q1.1-1 2.5-.7.8.2 1.3.8l2.7-3.4q.5-.6.5-1.2a42.4 42.4 0 0 1 13.6-25.2c2.1-1.6 5.1-2.8 7.7-1.8m-24 32.5.2.7c.3 3.2 1.3 7.6 4.6 9a14 14 0 0 1-2.3-7.3 2.6 2.6 0 0 0-2.5-2.4m19.4 3.1q2.8-2.8 5-5.8a3 3 0 0 1 3-1l.2-.3a76 76 0 0 0 6.9-10 14 14 0 0 1 4.3-4.5l1.3-3.1c-3.3.4-6 2.7-8 5.9v.2q-3.1 5.2-6.8 9.8c-2.6 3.2-7 8-11.5 7.7q-1.5 0-2.8-.6 1.9 2.3 5 2.4 1.8 0 3.4-.7m9.6-5.2.2.6a21 21 0 0 0 8.5 15 23 23 0 0 1-6.2-13.3 2.6 2.6 0 0 0-2.5-2.3m28.3-50.2a6 6 0 0 1 5-1.6q2-.4 4-.3 1.9.1 3.8.9l-.1-.1c-1.4-1.7-4-2.4-6-2.5a18 18 0 0 0-13.1 4.8c-4 4-6.4 8.6-5.4 14.3q.8 3.9 2.7 7.2 2 3.5 4.4 6.7 2.3 3 4.2 6.2c2.4 4.1 4.4 9.2 3.7 14q-.9 5.8-5.6 8.9a12 12 0 0 1-9.4 1.7q-1.5-.3-2.7-1 2 2 5 2.8 5 1 9.4-1.8 4.8-3.1 5.6-8.8c.7-5-1.3-10-3.7-14q-2-3.2-4.2-6.2-2.3-3.2-4.4-6.8a24 24 0 0 1-2.7-7.1c-1-5.8 1.4-10.4 5.4-14.4q1.7-1.8 4-2.9m8.4.4c1.8 2.9-.2 6.8-1.4 9.5-.5 1.2-1.3 2.9-1.5 4.1-.2 2.1 1 3.5 2.6 4.5l.6.4q-1-1.3-1-3.1c.3-1.3 1.1-3 1.6-4.2 1.2-2.7 3.2-6.6 1.4-9.4a5 5 0 0 0-2.3-1.8m-90.8-1-2 7.6q-2.6 8-5.8 15.6a3 3 0 0 1-2.7 1.6l.1.4q.9 1.4 2.5 1.4 1.7-.1 2.3-1.6a174 174 0 0 0 7.7-22.6zm-13.3 22.4a5 5 0 0 0-2.4-1.8c-2-.6-4.4.5-6 1.6a27 27 0 0 0-7.6 9q-1.6 3-3 6.4-.3 1-1.3 1.4l-3.8 1.6-1 .2q0 .4.4.8a3 3 0 0 1 3 .7q2-.7 3.7-1.5 1-.5 1.4-1.5a50 50 0 0 1 3-6.4c1.7-3.3 4.3-6.8 7.5-9 1.6-1 4-2.2 6-1.5zm-29-.6a7 7 0 0 0-3-2c-5.4-2-12 3.3-15 7.5q-3.6 5-5.6 10.9-.3 1-1.4 1.5l-2.2 1h-1.1q.1.6.7 1.1a3 3 0 0 1 1.5.7q.6 0 1.2-.2l2.1-.8q1.2-.5 1.5-1.6 2-5.9 5.6-10.9c3-4.2 9.6-9.4 15-7.5zm-32.1 0a7 7 0 0 0-3-2c-5.5-2-12 3.3-15 7.5a41 41 0 0 0-7.7 27q1 6.5 4.8 8-1.8-2-2.5-6.3a41 41 0 0 1 7.6-27c3-4.2 9.6-9.4 15-7.5zm6.7 21.7q.3.8.1 1.4-.7 4.6-.3 9.4 1 6.5 4.7 8a12 12 0 0 1-2.4-6.3q-.5-4.7.3-9.4.3-1.5-.9-2.4-.7-.6-1.5-.7m33.2-.3q.3.7.1 1.4c-.8 3.7-1.3 8.3-.2 12q1.6 5.2 4.8 6.5-1.5-1.7-2.5-4.8c-1.1-3.6-.6-8.3.2-12q.3-1.4-.8-2.5-.7-.6-1.6-.6m22.3 14.2c.8 1.5 2 3.3 3.7 4l-1.6-2.6a3 3 0 0 0-2.1-1.4m9.3 1.8q1-1 1.7-1.9 1.1-1.4 2.9-.9l1 .5q1.8-1.3 3.1-3.1.5-.5.5-1.2a71 71 0 0 1 8.3-22.6l.8-.3 1-2q-2.3 0-4.1.6a80 80 0 0 0-8.2 22.6l-.5 1.2q-2.4 3.1-6 4.6-2.9 1.3-5.7.3.5.7 1.3 1.3 1.8 1 4 .9m6.3-1.1.2.6c.2 1.7.6 4.1 2.7 4.3h.1q-.5-1.2-.5-2.6a2.6 2.6 0 0 0-2.5-2.3m12.8-.4q2.6-3 4.2-5.4l.2-.3c-1.9 2-5 4.6-8 3.8q.6.9 1.7 1.4a4 4 0 0 0 1.9.5m-93.5-30.9c1 1.7.9 4.3.8 6v.1q-.3 3-1 6.1-.3 1.3-1.5 1.8t-2.3 0a9 9 0 0 0 2.3 1.7q1 .6 2.3 0t1.5-1.7a45 45 0 0 0 1-6.2c0-2.4.2-6.2-2.4-7.5zm-7.7 12.5a8 8 0 0 0 3.3 3.2l-1.2-1.8a3 3 0 0 0-2.1-1.4m5.4 4.8q.4 1 0 2-1.2 3.8-3.2 7c-1.3 2-3.1 4-5.6 3.7l-.6-.2q.4.8 1.3 1.3.7.5 1.6.6c2.5.4 4.3-1.7 5.5-3.6q2.1-3.4 3.3-7c.5-1.4-.2-3-1.5-3.4zm30.4-3.3a9 9 0 0 0 2.3 1.7q1.2.6 2.4 0t1.5-1.7q.7-3 1-6.1v-.1c0-2.4.1-6.2-2.4-7.5l-.8-.3c1 1.7 1 4.3.8 6v.1a45 45 0 0 1-1 6.1q-.2 1.3-1.4 1.8t-2.4 0m1.8 5.3q-1.3 3.8-3.3 7c-1.2 2-3 4-5.6 3.7l-.6-.2q.6.8 1.3 1.3t1.6.6c2.5.4 4.4-1.7 5.6-3.6q2-3.4 3.3-7c.5-1.4-.2-3-1.6-3.4l-.8-.4q.4 1 .1 2m-5.5-6.8a8 8 0 0 0 3.4 3.2q-.7-.8-1.2-1.8a3 3 0 0 0-2.2-1.4M1134 324c2.6 3.7.4 11-1 14.5-1.7 4.2-5.5 11.3-11 11l-1-.1q.5.8 1.5 1.4t1.9.5c5.4.3 9.2-6.8 10.9-11 1.5-4 4.2-13-.3-15.8zm-91.2-32c-5.8-5.6-14.7-4.6-21.4-1.3-12.6 6.2-20.8 20.6-25.5 33.2-2 5.5-2.8 12.2-2.7 18 .2 7.9 2.4 18 9.3 22.2-5.1-4.9-6.8-13.5-7-20.4-.1-5.9.7-12.5 2.7-18 4.7-12.7 13-27.1 25.5-33.3 5.9-2.9 13.4-4 19.1-.5m-17 71.1q0 .7 0 1.6c-1.1 4-3.3 9.6-6 12.7q-1.2 1.2-2.8.8c-4.5-1.4-9.7-2-14.4-1.5a19 19 0 0 0-15.6 11.2c-2 4.5-2 9.4.9 13.6q1.5 2.4 4 3.8l-1.8-2a14 14 0 0 1-.8-13.7 19 19 0 0 1 15.6-11.2c4.7-.6 9.9.1 14.4 1.5q1.6.5 2.8-.8a37 37 0 0 0 6-12.6q.4-1.7-1-2.8-.6-.6-1.4-.6m2.6 31.3 5.1 4-4.8-3.9zm39.2-3.4q-.1-1.4-.6-2.6a23 23 0 0 1-7.2 2.7 49 49 0 0 1-29.3-6q.3.8 1.2 1.2c8.9 4.5 20.2 8.5 30.3 6.5q2.7-.5 5.6-1.8m-31.5-52.2-.6-1.8c-1.8 0-4 .4-5.3 1.5-1 3.2-2.3 6.8-3.9 9.7-1.8 3.4-4.7 7.3-8.7 8.1a8 8 0 0 1-4.7-.5q1.1 1.5 2.9 2 2 .6 4 .3c4.1-.9 7-4.8 8.8-8.2 1.6-2.9 3-6.5 3.9-9.7q1.4-1 3.6-1.4m-1.7-39.5c2 3.2-.2 8.8-1.5 11.8l-3 6.1 2.8.6 2.5-5c1.3-3.2 4-9.5 1-12.5q-.9-.7-1.8-1m-18.4 89.2c-1.5 4-5.5 8.2-9 10.5a10 10 0 0 1-6.7 1.7q-1.4 0-2.6-.7 1.9 2 5 2.5a10 10 0 0 0 6.5-1.7c3.6-2.4 7.5-6.5 9.1-10.5q.4-1 0-2-.4-1.1-1.5-1.5l-.8-.3q.4 1 0 2m148.8-79.1q-.5.6-1.1 1c-1.4 1.2-4.2 2.4-4.6 4.3v.9c.4.5 1.6.6 2.3.7.5-1.8 3.2-3 4.6-4l1-1.2h.3c-.3-1-1.4-1.5-2.5-1.7" clip-rule="evenodd"/><path fill="#ee874b" fill-rule="evenodd" d="M1066.4 392.1c-.1 13.3-10.6 15.8-20.9 11.7-7.3-3-13.6-8.7-19.8-13.4l1.4-3.3c6.9 4.8 14.7 11.3 22.6 12.4 5.5.9 13.5.2 16.7-7.4m-50.2-7.6c-4.5-2-10.4-3.3-17-2 0 0 6.9-5 18.1-.9z" clip-rule="evenodd"/><path fill="#d25148" fill-rule="evenodd" d="M1030.5 385.7s-1.1 3.5-4 7.2l-.1-.1-.7-.4-.7-1.2 3.5-7.4q.3.5.9.8l1.3.6z" clip-rule="evenodd"/><path fill="#fff" fill-rule="evenodd" d="M1069.8 231.4c-9.3 3.5-16.5 14.6-14.8 23.6 0 0-9.2 4-10.5-4.2-.9-5.3 6-17.7 18.2-24 8.7-4.5 21.3-5.6 27.4 0 8.6 8.1-.3 28.3-13.5 30.5 0 0-8.3 2.4-8.7-5.6 0 0-4.7 11-6.1 23.8q0 .3-.2.5t-.5.3c-2 .3-7.9.5-10.2-5 0 0 5.5-8.5 11-26.7 2.4-8 11.5-9.8 13-4.7 0 0-2.2 2.6-3.4 5.4s.5 4.2 3.5 2.7c6.3-3.2 9.5-11.5 6.4-15.5-1.8-2.3-5.8-3.3-11.6-1.1M1117.8 248.2s-8.2 10.5-10.8 18.4c-3.1 9.6 4.9 11.8 12.5 4-3.8 16.3-15.7 21.7-30 20.2 3 7.4 15.9 9.6 25.2 3.7 6.6-4.1 8.7-13.5 12.5-23.7a70 70 0 0 1 12.6-22s-2.3-2.1-9.4-1c0 0-10.2 18.8-12.8 19.3-3.4 1.4 4.5-13.3 6.8-15.6 0 0-2-2.7-6.6-3.3" clip-rule="evenodd"/><path fill="#fff" fill-rule="evenodd" d="M1107 251c-1.8 0-6.1 1.3-10 8.9 0 0-3.9 8-1.7 9.5 2 1.5 6.7-8.2 6.9-13.6 0 0 2.6-3.3 5.6-3.2 0 0 5.6 2.7 8.3-1.5l1.8 2.4c-1.9 3.4-7.4 4.5-10.7 3.8 0 0-.7 8.7-5.4 14.4-5.3 6.3-14.9 6.8-15.7-2.4-.3-6 2.2-12.7 6.2-17.3 3.8-4.3 11-7.5 15-2q.8.9-.3 1M1176.1 238.6s-11.9 9.7-18.3 27c0 0-3.4 9.2 3 10.4s13.6-6.7 14.2-12.8c0 0 0-2-2.4-2.7 0 0-2.7 6.3-5 5.6-3.2-.9 2.3-9.5 3.5-11.4 2.3-3.6 6.3-9.2 10.2-13 0 0-.3-2.4-5.2-3.1" clip-rule="evenodd"/><path fill="#fff" fill-rule="evenodd" d="M1152.8 251c-2.3-5-10.3-2.8-15.4 4.4-3.5 4.7-5.6 10.9-4.5 15.4 1.8 7.7 9.7 6.5 14.7 0 5 6.2 11.4-.3 13.4-5.6l-1.4-3.6c-2.7 7-8.5 5.8-6.1 1.4 2.6-4.9 11.1-15.1 0-16 0 0 0 2.5-.7 4m-3.7 3c4 .2-2.4 13.5-6.8 13-3.4-.4 2.3-13.3 6.8-13M1070.7 253.3l13.3 24.2c2.8 5.1 7.9 7.6 13.6 6.5-4.5 6.5-16 7.3-20.8.3-4.7-6.8-10.7-19.8-15.2-29.4l5.4-4.8 3 1.6z" clip-rule="evenodd"/><path fill="#fff" d="M1189.5 314.9c1.4 0 2.5-.8 2.5-1.8q-.1-1.6-2.5-1.8-2.3.1-2.5 1.8.2 1.6 2.5 1.8M1031.5 287.7q2.3-.2 2.5-1.8-.1-1.6-2.5-1.8c-1.3 0-2.5.8-2.5 1.8s1.2 1.8 2.5 1.8M1229.3 294.2c2-.3 3.5-1.3 3.5-2.3s-1.6-1.5-3.5-1.3c-2 .3-3.6 1.3-3.6 2.2s1.6 1.6 3.6 1.4"/><path fill="#ee874b" fill-rule="evenodd" d="M989.4 397.3s-1.2 7.4 8.9 9.3c4.5.9 9.4-.8 13-2.8 4.2-2.5 6.3-5.6 6.3-5.6s-17.3 13.5-28.2-.9M996 351.1s1.3 11 10 13.2 17.7-4.7 17.7-4.7-20 7.7-27.7-8.5" clip-rule="evenodd"/><path fill="#d25148" fill-rule="evenodd" d="M1025.7 373s-6.8 20.4-11.8 23.5l-1.2-3.5 7.3-17.8z" clip-rule="evenodd"/><path fill="#fad862" fill-rule="evenodd" d="M1022.7 372.8s-5.9 16.5-10 21.2l-2-1.9a53 53 0 0 0 7-16.4c1.5-.7 3.5-2.2 5-2.9M1028.8 379.7s-4.5 11.3-9.3 17.7l5.7-3.7a60 60 0 0 0 5.1-11s-.7-2-1.5-3" clip-rule="evenodd"/><path fill="#ffff8a" fill-rule="evenodd" d="M1028.8 379.7s-4.5 11.3-9.3 17.7l1.4-.9c3.4-5 6.6-12 8.4-16z" clip-rule="evenodd"/><path fill="#541138" d="M1099 378.8a8 8 0 0 1 4.6-6.2 9 9 0 0 1 5.9-.6l5.9-4.4a7 7 0 0 1 2.5-4.2q1.8-1.4 3.8-2.5c2-1 4.4-1.6 6.5-.8q4-.6 8.3-.1c8.1 1 19 7.3 26.1 11.5q4 2.3 6.2 6.4 1.6 3.2 1.2 7l-.9 3.8-1.5 6q-.7 3-1.7 6.3c2 2.6 2.8 6.2 3 9.2 0 3-.6 6.2-2.3 8.7-.2 3.2-.6 7.3-1.8 10.1a10 10 0 0 1-6.1 5.7l-1.1.3a274 274 0 0 1-41.8 3.6 126 126 0 0 1-17.8-1.4c-3.4-.9-6.5-3.4-7.3-7l-.4-2a8 8 0 0 1-3.4-4c-1.6-4-3-10.5-.7-14.6l-2-3c-3.9-5.4-4.4-10.6 1-15.2l.4-.4c.3-2.4 1.6-4.6 4-5.6l1-.3q.8-3 3.5-4.8a9 9 0 0 1 4.8-1.5"/><path fill="#541138" d="M1092.5 387.1q0-3.1 2.8-5a7 7 0 0 1 5.7-1c-.3-2.7.7-5.2 3.5-6.5a7 7 0 0 1 8.6 2.3c1.8 2.6 3.6 3.6 6.5 4.4l7.4 1.9q3.4.8 6.1 3 1.7 1.5 2.4 3.8c1.3 3.4 1.2 7.9.2 11.4-1.3 4.7-4.5 8.4-9.4 9.5q-3.8 1-7.1-1.1c-2-1.4-3.4-3.5-4.5-5.5-1-1.6-2-4-3.2-5.3a52.3 52.3 0 0 0-11.3-7.4l-1.4-.6a62 62 0 0 0 8.2 5c2.4 1.1 2.8 4.2 2.5 6.6s-1.6 5.5-4.3 5.7q-1.3.2-2.4-.6c-2.2-1.7-1.3-5.2-2.6-6.6l-4-3.7-3.4-2.7-1.4 1.1q-1 .8-2 .4t-1.5-1.5c-.7-2.6-.4-6.2 2.5-7.3a4 4 0 0 1 2-.3m13.4-3 1 .6 8.3 5.7q2.5 2 4.2 4.7l2 3.3c.4.5 1 1.3 1.5 1.6q1.3.6 2.6 0c2.4-.7 3-4.7 2.3-6.8-.1-.6-2.4-1.6-3-1.8q-3.8-1.4-7.8-2.4l-1.2-.4c-3.2-1-6.8-2.7-9.6-4.8zm15-11.4h-.1q-1 .8-2 .3-1.2-.5-1.4-1.6c-.4-2.2 0-5 1.8-6.3q1.7-1.3 3.6-2.3c3.3-1.9 6.4-1 7.4 3 .3 1 2 2.6 2.8 3.2a20 20 0 0 0 8.3 3.7c2.4.5 5.1.5 7.6.8 5.6.6 10.8 2.4 12.7 8.4q1.6 5-.3 9.7c-1 2.5-2.8 4.8-5.2 5.9-1.8.7-3.8 1-5.4-.3s-2-3.6-1.9-5.6c.1-.9.4-2.5.2-3.4q-.5-1.1-1.5-1.7c-.7-.5-2-.9-2.8-1.2l-5-1.7a61 61 0 0 1-12.9-6q-3.2-2-6-5"/><path fill="#541138" d="M1163.8 406a49 49 0 0 1-1 22.2 8 8 0 0 1-4.8 4.5l-.7.2a274 274 0 0 1-41.5 3.6 125 125 0 0 1-17.3-1.4c-2.6-.6-5.1-2.6-5.7-5.3l-2.5-12.3q0-.9.3-1.6c1-1.8 3.3-2.8 5.1-3.5q4-1.5 8.2-2.2 11.2-2.2 22.5-3.3a632 632 0 0 1 35-2.7q1.9 0 2.4 1.8"/><path fill="#e7a568" fill-rule="evenodd" d="m1094.6 417.2 2.2 11.6s.6 2.5 3.9 3.4 20.6 3 54.6-2.2c0 0 2.4-.4 3.5-3.1 1.7-3.8 2-14.5.9-19.6 0 0-61.2 3-65.2 10" clip-rule="evenodd"/><path fill="#efbf82" fill-rule="evenodd" d="M1117.4 421.4c3.2 0 5.7 1 5.7 2.5 0 1.4-2.5 1.7-5.7 1.7s-5.8-.3-5.8-1.7 2.6-2.5 5.8-2.5M1147.7 420.6c1.7 0 4.6 1.5 4.6 2.9s-2.8.4-4.4.4-4.7 1.3-4.7-.1 2.8-3.2 4.5-3.2" clip-rule="evenodd"/><path fill="#d17d53" fill-rule="evenodd" d="m1096.3 417 2.2 11s.5 2.5 3.6 3.3c3 .8 19.8 3 52.2-2 0 0 2.3-.4 3.4-3 1.2-2.8 1.7-9.5 1.4-14.7 0 4.6-.5 9.5-1.5 11.7-1 2.7-3.4 3-3.4 3-32.5 5-49.1 3-52.2 2.1s-3.7-3.2-3.7-3.2l-1.6-8.6z" clip-rule="evenodd"/><path fill="#ba6746" fill-rule="evenodd" d="M1150.5 425.7a1 1 0 0 1 0 2 1 1 0 0 1-1-1q.1-.9 1-1m-31.8.6q1.6.2 1.6 1.7-.2 1.4-1.7 1.5-1.6-.2-1.7-1.7c0-1 .9-1.6 1.8-1.5m19 2.6q.7 0 .8.9-.1.8-1 .8a1 1 0 0 1-.9-1q.1-.7 1-.7m14.1-6.5q.7 0 .7.6-.1.6-.7.6a.6.6 0 0 1-.7-.6q.1-.7.7-.6m3.2.9q1.5.1 1.5 1.6-.2 1.3-1.7 1.4-1.3-.2-1.5-1.6.2-1.5 1.7-1.4m-9.7 1.5q1.5.2 1.5 1.7-.2 1.4-1.7 1.4-1.5-.1-1.6-1.6.2-1.4 1.8-1.5m-4.4-4.4q1 .1 1 1-.1.9-1 1a1 1 0 0 1-1-1q.1-1 1-1m-26.2 10.5q.3 0 .4.4 0 .4-.5.4a.4.4 0 0 1-.4-.5q0-.3.5-.3m2.2-9.5q.5 0 .5.5-.1.4-.5.4a1 1 0 0 1-.5-.5q.1-.3.5-.4m-10.3 6.8q.5 0 .6.6t-.7.5a1 1 0 0 1-.5-.6q0-.5.6-.5m-3.4-4.5q1 .1 1.1 1.3-.1 1-1.3 1t-1.2-1.2q.2-1 1.4-1m7.9-3q1.3.1 1.5 1.6-.1 1.3-1.5 1.4-1.3-.1-1.5-1.4.2-1.4 1.5-1.5m13.4 3.4a.9.9 0 0 1 0 1.7.9.9 0 0 1 0-1.7m-.5 5.8q.5 0 .5.5a.5.5 0 1 1-1.1 0q.1-.5.5-.5m5.3-1.4q1 0 1 1 0 .8-1 .9a1 1 0 0 1-1-1q.1-.9 1-1" clip-rule="evenodd"/><path fill="#ba6746" fill-rule="evenodd" d="m1094.6 417.2 2.2 11.5c6.6-1.5 12.8-7.8 19.7-8.2 7.5-.4 12.2 6.3 18.5 6.1 5.3-.2 8.8-6.1 12.4-6.5 3.5-.3 8 4.9 12.4 3 .8-4.9.8-12-.1-15.8 0 0-61.2 3-65.2 10" clip-rule="evenodd"/><path fill="#541138" d="M1090 408.8c2.8-2 10-3.3 13-3.8q11.2-2 22.5-3.2a393 393 0 0 1 23.3-2c2.5 0 11.1-.6 13.4.6 3 1.7 4.4 6.6 4.5 10a12 12 0 0 1-2.3 8c-5.3 6.4-11.7.1-16.2.6-3.7.4-7.3 5.3-12.8 5.5-6.6.2-11.5-5.2-19.4-4.8-5.4.3-11.2 3.5-16.3 5.5-1.8.7-5.2 2.2-7.1 1.6q-2.8-.9-3.7-3.5c-1.6-3.7-3.5-12.5 1.2-14.5"/><path fill="#782d21" fill-rule="evenodd" d="M1092.9 411c-2.8.8-1.8 7.4-.3 11 .8 1.7 1.8 2 2.2 2 2.1.7 12.9-5.6 21.6-6s12.7 4 18.6 3.8c7-.3 9.2-6.7 15.4-4.2 15.6 6.2 13.6-12.3 9.1-14.7-3.8-2-61.9 3.4-66.7 8" clip-rule="evenodd"/><path fill="#8c3f2e" fill-rule="evenodd" d="M1092 411.5c-1.7 1.7-.7 7.3.6 10.5.8 1.7 1.8 2 2.2 2 1.8.6 9.7-3.7 17.4-5.4-5.4-1.1-13.3 3.9-16.5 3-3.4-1-4.3-7.3-3.5-10z" clip-rule="evenodd"/><path fill="#691c1b" fill-rule="evenodd" d="M1092.9 411q-.6 0-.9.5c1 1.7 4.2 6.3 9.2 6.5 6 .2 14-3.4 21.6-1.6 7.6 2 11.4-.1 14.8-1.5 3.3-1.4 6.2-3 10.5-2.1 3.8.8 11.3 1.9 14.3-4.8-.5-2.4-1.6-4.4-2.9-5-3.8-2.1-61.9 3.3-66.7 8" clip-rule="evenodd"/><path fill="#541138" d="M1121.2 365.8c5.1-3.7 8.8-4.4 15-3.7 7.6.9 18.7 7.3 25.3 11.2q3.5 2 5.4 5.5a9 9 0 0 1 1 5.7l-.9 3.7-1.4 6q-1 4.3-2.4 8.4a11 11 0 0 1-7.9 7.4q-6.2 1.6-12.6 2.7a307 307 0 0 1-42.6 4.5c-7 0-10.6-6.8-14.2-11.8-3.2-4.5-3.9-8.6.6-12.4a633 633 0 0 1 34.7-27.2"/><path fill="#a04935" fill-rule="evenodd" d="M1122.7 368.6c-4.5 3.3-18.9 13.8-33.2 26-3 2.6-3 5-.2 8.8 3.3 4.7 6.3 10.4 11.9 10.4 13.7 0 39.4-3.3 52.3-6.7a9 9 0 0 0 6-5.7 246 246 0 0 0 4.5-17.2c.4-2-.7-5.8-5-8.3s-16.3-9.7-23.4-10.5c-5.4-.6-8.4-.1-12.9 3.2" clip-rule="evenodd"/><path fill="#dbab77" fill-rule="evenodd" d="M1122.7 368.6c-4.5 3.3-18.9 13.8-33.2 26q-2 1.7-2.2 3.6c.2 1 1.6 2.8 8.6 2.2 9.5-.8 38.8-7.8 39.6-8 .9 0 27.3-6 27.1-13.2q-1.2-1.8-3.6-3.3c-4.3-2.5-16.3-9.7-23.4-10.5-5.4-.6-8.4-.1-12.9 3.2" clip-rule="evenodd"/><path fill="#c88055" fill-rule="evenodd" d="M1123 368.4c-4.1 3-17.3 12.6-30.5 23.9-2.5 2-3.3 4-2.2 4.9 1.5 1.1 5.8.7 8 .5 8.7-.8 35.8-7.3 36.5-7.4.7 0 16.2-3.5 22.4-8.3q5.1-4-.5-7.4a80 80 0 0 0-21.6-9.3c-5-.6-8 0-12 3" clip-rule="evenodd"/><path fill="#782d21" fill-rule="evenodd" d="M1090 394.1s-1-3.8 1.2-4.7q1.6-.4 3.3 1c4.2 3.2 5.8 4.7 11.5 7.5 2.6 1.3 1.2 8-1 8.3-2.5.2-1-4.4-3.3-6.7-2.1-2-8.2-8.2-9.7-7zm29-10.7c7.2 2 12.6 2.1 14.5 7.3 1.8 5.2 1 16.2-7.7 18-8 1.8-9.3-7.6-12.8-11.3a45 45 0 0 0-15.7-9.2l-2.2 1.7c-2.1-6 3.5-8.2 6.9-6 3.8 2.6 8.3 5.5 11.9 8.3 1.8 1.4 3 3.1 3.7 4.1 2.5 3.7 3.4 7.5 8.6 5.8 3.7-1.1 4.6-6.5 3.7-9.5-.8-2.9-7.5-4.2-13.5-6.1-4.2-1.4-7.9-3.4-10.2-5.5l-2.5 2c-1.4-3.3-.2-5.5 1.7-6.4 2.2-1 4.5-.4 6 1.6 2 3 4.2 4.3 7.7 5.2m.5-12.4s-.5-3 1-4.2q1.6-1.1 3.4-2c1.8-1.1 3.5-1.2 4.2 1.5.6 2.2 4.8 6.9 12.7 8.6 6 1.2 16.2-.5 18.8 7.7 1.9 6.1-1.2 11.4-4.4 12.8s-4.5-.6-4.2-3.6 1-5.1-2.4-7.2c-3.3-2.1-19.7-5-27.4-14.9z" clip-rule="evenodd"/><path fill="#6b2724" fill-rule="evenodd" d="M1112.9 380.1c-.7.9-2.2 1.9-5.2 2a32 32 0 0 0 8.5 4.3c1.7-1.2 4.4-2.1 8.7-1.5l-5.8-1.5a13 13 0 0 1-6.2-3.3M1130.3 369.5c-.4 1.4-1.6 3.2-5 4.3q3.6 2.8 7.6 4.7 5-2.3 11.9-3.1l-4-.5a21 21 0 0 1-10.5-5.4" clip-rule="evenodd"/><path fill="#6b2628" fill-rule="evenodd" d="M1119.5 371s-.5-3 1-4.2c-.3.5-1 2.1.9 3h-.2z" clip-rule="evenodd"/><path fill="#9d543b" fill-rule="evenodd" d="M1159 384.7c.6.9-.6 3.8-2.6 3.8s-4.2 0-4.2-1c0-.7 1.8-1 3.4-1.7s3-1.6 3.3-1.1M1121.9 366.5c2.2-1.8 4.8-2.4 4.7-1.4 0 .4-1.6 1.5-3 2.4-2.3 1.3-4.5 1.3-1.7-1" clip-rule="evenodd"/><path fill="#611817" fill-rule="evenodd" d="M1107 398.9c1.2 2.2-.1 7-2 7.3-2.4.2-1-4.3-3.2-6.6 4.2 2.6 5-.1 5.2-.7M1159.8 383.3c1.4 5.9-1.5 10.8-4.6 12.1-3.3 1.5-4.5-.6-4.2-3.6q.3-2.2.2-4c7.2 1.8 8.4-3.8 8.5-4.5M1134 392.8c1 5.6-.6 14.3-8.2 16-8 1.7-9.2-7.6-12.7-11.3 3.3 1.5 4.3-.3 4.6-1 2.4 3.6 3.4 7.2 8.4 5.6 3.4-1 4.5-5.3 4-8.4 2.3 1.8 3.7-.4 4-.9" clip-rule="evenodd"/><path fill="#6b2628" fill-rule="evenodd" d="m1097.3 388.2-2.2 1.7c-1-2.6-.4-4.5.9-5.6-.7 1.2-1.1 3.6 1.3 3.9M1106.2 381l-2.5 2q-1.4-3.6.3-5.4c-1 2.5 1.3 3.4 2.2 3.4M1090 394.1s-.6-2.4.3-3.9c-.2.8-.2 2 1.8 2.2z" clip-rule="evenodd"/><path fill="#9d543b" fill-rule="evenodd" d="M1107.3 376.7c1.4 0 2.7.8 2.7 1.2 0 .5-1.3.5-2.7.5q-2.2.1-2.4-.5c0-.4 1-1.2 2.4-1.2M1098.7 383.4c1.5 0 2.8.8 2.8 1.3s-1.3.4-2.8.4q-2.2.1-2.4-.4c0-.5 1-1.3 2.4-1.3M1149.8 376.7c3.9.4 6.6 2 6.6 2.8s-2.7.3-6.6-.1-7.2-.7-7.2-1.5c0-.7 3.4-1.7 7.2-1.2M1129.6 386.8c1.7.8 2.5 2.5 2.4 3.2s-1.2.2-3-.6c-1.6-.8-3.3-1.6-3.2-2.3.2-.7 2-1.1 3.8-.3" clip-rule="evenodd"/><path fill="#8c3f2e" fill-rule="evenodd" d="M1134.2 418c2.7 0 5-.4 5 .8s-2.4 2.4-5.1 2.4c-2.8 0-5.4-1-5.4-2.3s2.7-.9 5.5-.9M1156.5 414.7c2.4-.3 4.4-.5 4.5.4s-1.7 2.4-4.1 2.8c-2.5.3-4.6-.7-4.7-1.6s1.8-1.3 4.3-1.6" clip-rule="evenodd"/><path fill="#d38660" d="M1133.5 420.8q1.6-.1 1.8-.8-.2-.8-1.8-.9t-1.7.9q.1.7 1.7.8M1092.4 420.8c.4 1.1 1 2 1.5 1.8s.5-1.2.1-2.4q-.6-2-1.5-1.9c-.4.2-.5 1.3-.1 2.4M1102 421c2-.5 3.7-1.4 3.7-1.8s-1.7-.3-3.7.3-3.7 1.5-3.7 2 1.7.2 3.8-.4M1140.5 419c2-1 3.7-2.2 3.7-2.9s-1.8-.4-4 .5c-2 1-3.7 2.2-3.6 2.9 0 .6 1.8.4 3.9-.5"/><path fill="#892f31" fill-rule="evenodd" d="M1113.2 404.8c1.1 0 2 1 2 2a2 2 0 0 1-2 2c-1 0-2-.9-2-2 0-1 1-2 2-2m21.8 2q.9 0 1 1-.1 1-1 1.1a1 1 0 0 1 0-2.1m15.8-9q.7 0 .7.9 0 .6-.7.7a1 1 0 0 1-.8-.7q0-.8.8-.8m3.6 1c1 0 1.9.8 1.9 1.8s-.8 1.9-1.9 1.9q-1.7-.2-1.8-1.9.1-1.6 1.8-1.8m-11 2.5c1 0 1.9.9 1.9 2q-.1 1.6-1.9 1.8c-1 0-1.9-.8-1.9-1.9s.9-1.9 2-1.9m-5.2-5q1 0 1.1 1-.1 1.1-1.1 1.2a1.2 1.2 0 0 1 0-2.3m-29.3 14.4q.5 0 .5.5t-.5.5a1 1 0 0 1-.5-.5q0-.5.5-.5m2-11.7q.5 0 .5.6t-.5.5a1 1 0 0 1-.5-.5q0-.5.5-.6m-11.4 9a.7.7 0 0 1 0 1.4.7.7 0 0 1 0-1.4m-4.2-5.2q1.3.1 1.4 1.4-.1 1.3-1.4 1.5-1.3-.2-1.4-1.5.1-1.3 1.4-1.4" clip-rule="evenodd"/><path fill="#aa5b3f" fill-rule="evenodd" d="M1151.4 403.2a1.2 1.2 0 0 1 0 2.3q-1.1-.1-1.2-1.1 0-1.1 1.2-1.2m-51.2-1.1q.5 0 .6.6t-.6.6a1 1 0 0 1-.6-.6q0-.6.6-.6m4.1 7.1q1 .1 1 1t-1 1a1 1 0 0 1-1-1q.1-.9 1-1m12.6.5q.9.1 1 1-.1 1-1 1a1 1 0 0 1-1-1q0-.9 1-1m7.8-12.1q.5 0 .6.6t-.6.6a1 1 0 0 1-.6-.6q0-.6.6-.6m12.5 3.2q.6 0 .7.7-.1.6-.7.7a1 1 0 0 1-.8-.7q.1-.6.8-.7m7.8-8.4q1 0 1 1t-1 1a1 1 0 0 1-1-1q.1-1 1-1" clip-rule="evenodd"/><path fill="#fff" d="M1123.6 395.8c2.2-.4 4-1.2 3.9-1.9s-2-.9-4.3-.5-4 1.3-3.9 2 2 .8 4.3.4M1091.3 401.2c1.6.2 3-.1 3-.8.1-.7-1.2-1.4-2.8-1.6-1.7-.3-3 .1-3.1.8q.2 1.2 2.9 1.6M1141.8 391.1c2.8-.6 4.8-1.7 4.6-2.4s-2.6-.6-5.3 0c-2.8.7-4.9 1.8-4.7 2.5s2.6.6 5.4 0"/><path fill="#541138" d="M1134.2 373.1s-3.9-8.2-1.3-15l1 .6s2.2-9 9.1-11.6c0 0 .7.8.8 2.2.6-2 4-4.4 5.6-4.7l.2 1s2-1.6 4.9-2.1l.3 1.3s2.4-1.3 6-1.7l.2 1.6s2.6-1 6.2-.5l-1.7 3.4 1.4.2s-.5 3.2-1.6 4.6l1.7-.4c.6-.3.4 6-3.6 10.2l2.1-.2s-.4 4.7-4.5 7.2h2.6s-2.6 7.7-18.7 7c-3.1-.1-6.8-1-9.4.4l-2.8 2z"/><path fill="#91a721" fill-rule="evenodd" d="M1136.6 371.9s-2.9-5.6-1.3-11.4c0 0 1 .4 1.8 1.8 0 0-1-7 4.8-11.4 0 0 1.1.8 1.6 2.3 0 0 1.6-4.4 5-5.8l.3 1s1.8-1.8 4.5-2.1l-.2 1.2s2.7-1.7 5.2-1.4l-.1 1.3s2.6-1.1 5.4-1c0 0-.3 2.2-1.7 4.3l2.1-1.6s.9 2.2-1.9 4.9h3s-.4 5.7-6 9.3c0 0 1.8.4 3.5 0 0 0 0 3.7-4.7 5.2l2.8 1.2c-4.1 5.4-16.7 5.5-22.3 3z" clip-rule="evenodd"/><path fill="#6f851f" fill-rule="evenodd" d="M1141.9 356.1s-1.3 6.3 9.5.2l3-2.4s-5 4.7-1 5c0 0-9.4 2.7-5.3 6.4l-6.2 2.1s-2.2 11 18.7 2.4c-4.5 5.2-16.5 5.4-22.2 2.8l-1.8-.7s-1.4-2.6-1.7-6.1c.6 1.7 2.1 3 5.4 1.6l1.8-2s-1.4-6.8-.2-9.3" clip-rule="evenodd"/><path fill="#ced44f" fill-rule="evenodd" d="M1137.2 359.5c.3-2.4 1.3-6 4.7-8.6 0 0 1.1.8 1.6 2.3 0 0 1.6-4.4 5-5.8l.3 1s1.8-1.8 4.5-2.1l-.2 1.2s2.7-1.7 5.2-1.4l-.1 1.3s2.6-1.1 5.4-1c0 0-4.1.6-6.6 2.5v-1.4c-2.5-.2-4.8 1.4-4.8 1.4l.2-1.4c-2.7.3-4 3-4 3l-.3-1c-3.3 1.3-5 5.6-5 5.6-.5-1.4-1.6-2.3-1.6-2.3q-3.7 3.2-4.3 6.7" clip-rule="evenodd"/><path fill="#5a6c2c" fill-rule="evenodd" d="M1160.5 348.9s-20.4 14-24.8 24.9l2.2.1s-.6-4.8 22.6-25" clip-rule="evenodd"/><path fill="#5a6c2c" fill-rule="evenodd" d="M1147.5 360.8s7.9-.8 12-3.6c0 0-6.3 2-10.5 1.9l-.6.3zM1141.9 355.6s0 5.2 1.2 9.2l-1.8 1.2s-1-5.5.6-10.4" clip-rule="evenodd"/><path fill="#541138" d="M1140.1 369.3s5.6-4.1 15-3.6c0 0-5.7-1.9-13 .6l-1.3 1.1z"/><path fill="#a1b833" fill-rule="evenodd" d="M1148.7 351.3c2.2-1.7 5.7-1.8 6.3-1 .5.6-1 2.6-3.2 4.2s-4.5 2.4-5 1.6-.4-3.2 1.9-4.8M1156.4 353.8c2-.8 4.6-.2 4.8.4s-1.1 1.8-3.1 2.6c-2 .7-3.7.8-4 .2s.3-2.5 2.3-3.2" clip-rule="evenodd"/><path fill="#a1b833" d="M1149.4 371.3c3.7-.5 6.5-2 6.3-3.4s-3.3-2-7-1.4c-3.7.5-6.5 2-6.3 3.4s3.3 2 7 1.4M1154.4 363.1c2.3-.3 4-1.2 4-2-.2-.8-2.2-1.2-4.5-.8s-4 1.2-4 2c.2.8 2.2 1.2 4.4.8"/><path fill="#541138" d="M1116.7 359.4v-1.2c0-2.5 1.9-4.2 3.9-5.4q2.3-1.3 4.1-3.4.6-.7 1-1.5.3-1.2 1.5-1.2 1.3.2 1.5 1.4c.3 3.6 5.3 4.5 5.9 9q3 1.1 4.4 4 .6 1 .9 2.2 2.5 1 4.1 3.3l1.2 2.4q5.3 3.6 4.2 10.2a16 16 0 0 1-2.6 5.7v.1c-4.6 5.4-12.3 7.5-19.1 7.6-4.6.1-9.5-.7-13.7-2.5a16 16 0 0 1-8.9-8 11 11 0 0 1-.8-4.9 8 8 0 0 1 3.7-6.2q0-4 3.2-6.8 1.3-.8 2.8-1.3a5 5 0 0 1 2.7-3.5"/><path fill="#f4ebcf" fill-rule="evenodd" d="M1127 350.4s-.7 2.7-5.1 5.3c-4.5 2.6-2.5 5.7-2.5 5.7s-2.9.5-3 3.4c0 0-6 1-5.2 7.1 0 0-3.2 1-3.4 5-.7 13 26.8 17 36 6 0 0 6-8.2-1.5-12.8 0 0-1.2-4.3-4.8-5 0 0-.5-4.6-5-5.6.2-4.3-5-4.8-5.4-9" clip-rule="evenodd"/><path fill="#fff" fill-rule="evenodd" d="M1115.5 365c-1.5.6-4.5 2.1-4.3 6.2 1.8 2.4 7.1 4.6 8.6 3.5s-3-8-4.3-9.6M1127 350.8c-.4.8-1.6 2.9-5.1 5-4.2 2.3-2.7 5.2-2.5 5.5-.2-4.8 7.2-5.2 7.6-10.5m-7.6 10.6" clip-rule="evenodd"/><path fill="#e0caa7" fill-rule="evenodd" d="M1127 350.4v.4c-.2.8-.6 3.9.5 7.3.5 1.7 1.8 2.9-.5 4q-.7.3-2.2.5-2.3.4-4.8-1c.7 1.8 6.8 4.6 11.3 1 0 0 .8-.7 1.1.4.3 1 .5 5.7-6.1 6.9l7.4.2s6.3 1.8-.3 5.3c0 0 7.4 5.5-5.8 5.2l-5.4 1.1s-6.1 6.2-13.4-.3c5 9.3 27 11.2 35 1.5 0 0 6-8.2-1.5-12.8 0 0-1.2-4.3-4.8-5 0 0-.5-4.6-5-5.6.2-4.3-5-4.8-5.4-9" clip-rule="evenodd"/><path fill="#d0987d" fill-rule="evenodd" d="M1137 363.5c-3.4 9-21.4 7-19.7-.9q-.7.7-.9 2.2h-.2c.7 2.5 3.3 7.1 11 7.1 0 0 8.6 0 11.2-6.5l-1-.2q.1-.2-.4-1.8zm4.4 4.1c.1 3.6-3 8.9-13.1 7.6 0 0 6.5 3.9 11.8 1l3-5.6-.8-.5s.2-1.1-.9-2.5m1.8 3.1c.2 2.3.3 12.9-15.5 10 0 0-12.3-2.2-16.5-9.4.7 5.2 6 8.5 10.1 10.3 4.6 2 7.3 3.7 6.5 4.8-.6 1-3.6 3-10 1.5 8.6 2.8 20.5 1.6 26-5 0 0 5.6-7.5-.6-12.2" clip-rule="evenodd"/><path fill="#b97364" fill-rule="evenodd" d="M1144 382.7c-1.5 1.2-7.3 2.7-13.2 1 0 0 6.2 2.3 1.1 5.2 4.8-.8 9.2-2.7 12-6z" clip-rule="evenodd"/><path fill="#541138" d="M1141.2 367.4s1.8 5.6-1.5 9c0 0 3.5-1.4 3.7-6.6l-.8-1.5zM1136.4 362s.6 1 .6 2.3c-.1 2.6-2 6.4-10.2 7.7 0 0 9.9.5 12.2-7.4l-.7-.5zM1116.9 363.1s-1 2.4 1.1 5.1c0 0-2.3-1-3-4.2l.5-.4zM1145.2 380.5s-3.3 4.4-11.2 4c0 0 5.6 1.6 10.3-.8l.9-1.4zM1111.2 369.9s-.1 4.6 4.6 8.5c0 0-4.3-1.6-6-7.1z"/><path fill="#ead5b6" fill-rule="evenodd" d="M1126.3 353.8s-3.2 2.2-4.3 5.7l2.7-2.9z" clip-rule="evenodd"/><path fill="#fff" fill-rule="evenodd" d="M1123.4 364.2c2.4.6 4.3 1.3 4 2.2s-2.6 1.8-5 1.1-4-2.6-3.7-3.5c.3-1 2.3-.5 4.7.2" clip-rule="evenodd"/><path fill="#fff" d="M1123.3 361.4c.8 0 2-1 2.6-2.3q.9-2.1-.2-2.3c-.8 0-2 1-2.6 2.3q-.9 2.1.2 2.3M1111.4 382.3c1.2 0 1.8-1.7 1.3-3.9s-1.8-3.9-3-3.9-1.7 1.7-1.3 3.9c.5 2.2 1.8 4 3 4M1126.3 378.4c2.1.4 3.8 0 3.8-.8s-1.7-1.8-3.8-2.3-3.8 0-3.8.8 1.7 1.8 3.8 2.3"/><path fill="#541138" d="M1132.5 358.7s.3 2-2.5 3.8c0 0 2.5-1 3.6-3l-.4-.6zM1101 392.6q1.6 1.7 3.5 2.3 3 .8 5.2-1.3c1.3.7 3 1 4.2.6a6 6 0 0 0 4.5-5.4c2.4-1.5 4.2-3.9 3-7q-.5-1.3-1.7-2.6c.6-2.3.5-4.8-1.7-6.3q-.8-.7-2-1c-.3-2.7-1.7-5-4.7-5.6q-1.6-.2-3.3.1a6 6 0 0 0-5-.8c-2 .6-3.7 2.4-4.3 4.5q-3.5.9-4.7 4.4-.3 1.3-.2 2.7c-1.7 1.8-2.5 4-1.6 6.6q.5 1.1 1.5 2.3-.3 2.4 1.2 4.2c1.4 1.5 3.2 2.6 5.2 2.4z"/><path fill="#bd1f51" fill-rule="evenodd" d="M1107.6 368.8s6.4-2.4 6.6 4.7c0 0 5.3.3 3.2 6.2 0 0 5.4 4.2-1 7.8 0 0 .2 3.4-3.4 4.6 0 0-1.4.6-3.7-1 0 0-1.8 2.4-4.2 1.6s-3.1-2.6-3.1-2.6-2.5 1.8-5.4-1.3c0 0-1.3-1.4-.6-3.5 0 0-4.4-3.5 0-7.4 0 0-1.3-5.2 4.4-6 .3-3 4-6 7.2-3.1" clip-rule="evenodd"/><path fill="#f65a70" fill-rule="evenodd" d="M1098.4 389.2c3.6 1.7 6.1-1.2 2.5-3.5-2.6-1.6-3.7-2-4.2-1s-.1 3.6 1.7 4.5M1100.5 383.5s.3 2 2.8 3.1c2.5 1 4.5-.4 5-.9s1.2-1.7.4-3c-1.3-2-4.4-3.6-6.4-2.7-1 .5-2 1.8-1.8 3.5" clip-rule="evenodd"/><path fill="#d8425c" fill-rule="evenodd" d="M1101 383.5s.2 1.9 2.5 2.8a4 4 0 0 0 4.4-.8c.3-.4.9-1.2.7-2.1l-.6.9a4 4 0 0 1-4.4.8c-2.3-1-2.5-2.8-2.5-2.8v-.1q-.2.6-.2 1.3" clip-rule="evenodd"/><path fill="#f65a70" fill-rule="evenodd" d="M1112.2 370c2.8 2.9.8 6.3-2.5 3.5-2.3-1.9-3-2.8-2.3-3.6s3.4-1.3 4.8.2" clip-rule="evenodd"/><path fill="#f65a70" fill-rule="evenodd" d="M1115.7 374.6c4.3 2-1 10.3-2.2 3.6a6 6 0 0 1 0-2.8q.4-1.7 2.2-.8M1103.5 391c3.4 3.7 9.4-4.4 2.7-3.4q-1.4 0-2.7.9t0 2.5M1107.5 373.6s2.1-.4 4 1.7c1.8 2 1.1 4.5.7 5.1-.3.6-1.2 1.8-2.7 1.5-2.4-.6-5-3.1-4.8-5.4 0-1.1 1-2.5 2.8-3" clip-rule="evenodd"/><path fill="#f65a70" fill-rule="evenodd" d="M1114.6 386.2c-1.6 2.3-3.8 2.7-4.8 1.7-2.5-2.4 2.7-8.5 4.9-6.4.9.9 1.1 2.9-.1 4.7" clip-rule="evenodd"/><path fill="#f99" fill-rule="evenodd" d="M1115.4 377.9c-1.5 3.3-2.8-3.1-1-3.3 1.2-.1 1.5 2.1 1 3.3M1111.5 369.9q1 1 1 1.5c-.5 1-4.8.5-4.7-1 0-1.3 2.7-1.3 3.7-.5M1110.2 374.8c4.1 3.2-4.7 4.7-4.5 1.2 0-2.1 3-2.3 4.5-1.2M1106.8 381.3c3.2 3.4-5.2 1.9-4.3-.5.5-1.4 3.3-.7 4.3.5M1112.2 381.8c3.6-1.8.2 4.8-1.5 3.4-1-.7.3-2.8 1.5-3.4" clip-rule="evenodd"/><path fill="#d8425c" fill-rule="evenodd" d="M1119 384c-.4 1.8-2 2.7-2.7 2.5-1-.2 0-6.3 1-6 .4 0 2 1.5 1.6 3.4M1113.8 391.2c1.6-1 2-2.6 1.6-3.3-.5-.9-6 2-5.5 2.9.3.4 2.2 1.4 3.9.4" clip-rule="evenodd"/><path fill="#812248" fill-rule="evenodd" d="M1105.5 373s-3 1.1-2.1 4.7c0 0-3.1.3-3.8 3.4-1 0-1.9 1.6-2.4 1.1-.5-.3-1-2.3.8-4.6 0 0-.6-3 2.7-3.8.6-2.7 3.7-3.6 4.8-3.2.7.2-.6.9 0 2.5" clip-rule="evenodd"/><path fill="#6b0f3c" fill-rule="evenodd" d="M1105.5 373s-2.1.8-2.3 3.2c-1-1.4-2.9-2-5.1-.2q.2-1.4 2.6-2.2c.6-2.7 3.7-3.6 4.8-3.2.7.2-.6.9 0 2.5" clip-rule="evenodd"/><path fill="#f99" fill-rule="evenodd" d="M1097.5 387.9c.7 1 1.8 1.4 2.2 1.1q.5-.5-.6-2.1-1-1.7-1.8-1.4c-.4.2-.4 1.4.2 2.4M1106 388c-1.4.2-2.6.7-2.5 1.3s1.5.9 2.9.6 2.5-1 2.4-1.6-1.4-.7-2.8-.4" clip-rule="evenodd"/><path fill="#fff" d="M1109.8 370.4q-1.3-.2-1.3-.6.1-.5 1.4-.4t1.3.6q-.1.4-1.4.4M1108.3 375.3q-1.2 0-1.3-.6.2-.4 1.4-.3 1.3 0 1.4.6-.2.4-1.5.3M1112.4 383q-1 .8-1.4.5-.2-.4.7-1.2 1-.8 1.4-.6.3.4-.7 1.3"/><path fill="#d8425c" fill-rule="evenodd" d="M1112.3 378.4s.2 2.2-1.7 3c-2 .7-4.3-1.7-4.3-1.7s4.6 1.3 6-1.3" clip-rule="evenodd"/><path fill="#f65a70" d="M1113 390q-1.6.4-1.7 0 0-.7 1.4-1.3c.8-.3 1.6-.4 1.6 0q0 .7-1.4 1.3"/><path fill="#f65a70" fill-rule="evenodd" d="M1116.5 382.3q.2.9 1 .9c.3 0 1-.2 1-.8s-.8-1.4-1.1-1.4-.9.7-.9 1.3" clip-rule="evenodd"/><path fill="#d8425c" d="M1104.4 369.6q-1.7.3-2-.4.1-.9 1.7-1.1 1.7-.2 2 .4-.1.8-1.7 1.1M1098.4 374.6c-.7.7-1.6 1-1.9.7s0-1.2.8-1.8q1.3-1.1 1.9-.7.4.6-.8 1.8"/></svg>