<svg width="1326" height="522" viewBox="0 0 1326 522" fill="none" xmlns="http://www.w3.org/2000/svg">
<path fill-rule="evenodd" clip-rule="evenodd" d="M20.5705 8.73041L1305.43 0.354004C1316.46 0.438242 1325.87 9.38326 1325.48 20.4033L1299.84 501.527C1299.45 512.546 1290.81 521.281 1279.78 521.575L38.0982 505.264C27.078 505.555 18.3232 496.235 18.049 485.21L0.517201 28.7797C0.247486 17.7553 9.54239 8.64617 20.5705 8.73041Z" fill="#F0554D"/>
<mask id="mask0_86_5100" style="mask-type:luminance" maskUnits="userSpaceOnUse" x="0" y="0" width="1326" height="522">
<path d="M20.5705 8.73041L1305.43 0.354004C1316.46 0.438242 1325.87 9.38326 1325.48 20.4033L1299.84 501.527C1299.45 512.546 1290.81 521.281 1279.78 521.575L38.0982 505.264C27.078 505.555 18.3232 496.235 18.049 485.21L0.517201 28.7797C0.247486 17.7553 9.54239 8.64617 20.5705 8.73041Z" fill="white"/>
</mask>
<g mask="url(#mask0_86_5100)">
<path fill-rule="evenodd" clip-rule="evenodd" d="M633.812 67.2104C632.762 68.3532 631.966 69.7308 631.462 71.3107L551.738 320.825C550.418 324.956 551.814 328.959 554.789 332.27L752.684 552.654C755.879 555.671 760.202 556.658 764.387 555.348L1025.74 473.59C1029.43 472.437 1031.9 469.752 1033.07 466.212C1034.29 464.825 1035.17 463.083 1035.71 461.203L1063.1 366.251C1064.28 362.168 1062.99 357.723 1059.44 355.188L875.296 223.925C872.457 221.901 869.45 220.696 865.991 221.151L820.159 227.182C815.711 227.769 812.261 230.575 810.902 234.72L810.75 235.182C809.727 236.305 808.936 237.656 808.433 239.193L795.844 277.593C794.415 281.951 795.886 286.359 799.357 289.551L914.286 395.321C917.568 398.34 919.08 402.386 918.004 406.588L918.003 406.596C916.417 408.265 914.268 409.448 911.812 410.209L795.682 446.222C792.005 447.362 788.135 446.131 785.396 443.421L664.09 323.415C660.983 320.343 659.707 316.414 660.669 312.27L664.026 297.786L716.519 147.13C717.937 143.065 720.936 140.371 725.192 139.142L887.769 92.2192C891.63 91.1042 895.407 92.6662 898.376 95.3668L1166.15 339.031C1168.9 341.29 1172.92 347.598 1171.88 355.063L1141.74 571.734C1141.66 572.261 1141.56 572.777 1141.43 573.28C1140.12 574.937 1138.39 576.188 1136.12 576.771L897.148 638.243L513.455 469.779L415.906 372.814C412.998 369.922 411.703 366.045 412.885 362.226L535.306 -33.2737C535.354 -33.4225 535.386 -33.5741 535.429 -33.7239C536.861 -35.2956 538.781 -36.3126 541.031 -36.8212L743.411 -82.7038L896.477 -15.4986L641.431 59.6009C637.728 60.6933 635.076 63.2499 633.929 66.8375L633.812 67.2104ZM1264.5 122.5L1233.52 255.43C1233.4 255.945 1233.26 256.439 1233.1 256.913C1229.96 260.442 1225.1 260.658 1220.37 256.374L933 -8L1033.07 -55.5L1264.5 122.5Z" fill="#FE7454"/>
</g>
</svg>
