<svg width="495" height="570" viewBox="0 0 495 570" fill="none" xmlns="http://www.w3.org/2000/svg">
<path d="M288.179 63.7008C288.179 63.7008 297.252 15.6445 352.469 24.7936C352.469 24.7936 397.245 17.6445 417.997 61.1933C417.997 61.1933 423.888 64.6492 423.209 74.2084C423.209 74.2084 451.943 99.1401 429.187 134.067C429.187 134.067 427.668 159.662 409.818 164.273C391.969 168.883 251.458 102.815 288.179 63.7008Z" fill="#541138"/>
<path fill-rule="evenodd" clip-rule="evenodd" d="M410.137 61.3455C392.059 15.1867 313.191 28.718 294.408 70.5295C291.709 73.4048 290.896 72.6729 290.397 76.8169C289.353 85.4689 297.647 95.3745 303.281 101.096C313.755 111.735 327.426 121.009 340.274 128.615C353.776 136.609 368.331 143.889 382.957 149.649C387.149 151.3 402.959 157.148 407.198 156.447C431.243 150.235 426.914 108.316 390.842 100.045C379.405 97.4221 366.199 97.9179 347.854 104.347L345.357 102.578C344.759 102.155 399.782 75.0886 427.208 123.789C436.166 108.056 429.225 87.9841 416.072 77.6514C406.456 75.8993 357.565 67.9867 333.082 100.89L328.518 97.5005C328.518 97.5005 354.469 64.2373 416.318 74.1416C418.464 63.0567 389.631 54.6747 361.688 56.0764C341.284 57.0996 322.883 63.0718 309.792 78.3491L306.081 74.1604C306.081 74.1604 345.102 36.0868 410.137 61.3455ZM347.854 30.582C327.925 27.0781 309.683 35.0402 300.373 51.8518C308.361 45.4056 324.429 35.1701 347.854 30.582Z" fill="#A96E68"/>
<path fill-rule="evenodd" clip-rule="evenodd" d="M410.137 61.3455C402.716 42.3981 385.051 33.5153 365.504 32.5107C376.379 34.6269 401.453 41.2264 393.244 56.0031C398.66 57.3235 404.291 59.0751 410.137 61.3455ZM429.893 98.5583C427.615 90.3356 422.612 82.7893 416.072 77.6514C413.03 77.0974 406.054 75.9274 397.165 75.6266C406.876 77.0311 422.153 81.941 429.893 98.5583ZM396.148 72.323C402.397 72.4257 409.11 72.9874 416.318 74.1419C417.351 68.8068 411.206 64.0996 401.441 60.8058C405.693 63.9416 410.698 69.6249 396.148 72.323Z" fill="#C1887A"/>
<path fill-rule="evenodd" clip-rule="evenodd" d="M361.916 32.4106C355.122 32.3927 348.165 33.2919 341.386 35.0214C343.007 41.9758 342.371 49.2262 340.54 56.1428C348.457 53.98 357.64 52.5688 367.985 52.7076C364.758 45.3993 362.934 38.3488 361.916 32.4106ZM421.73 140.54C424.665 125.698 414.697 105.515 390.841 100.045C379.405 97.4221 366.2 97.9179 347.854 104.347L345.357 102.578C344.76 102.155 399.782 75.0889 427.208 123.789C431.542 116.177 432.154 107.552 430.142 99.5036C408.862 94.9572 394.083 86.1593 383.819 75.9175C366.446 77.3153 346.24 83.2066 333.082 100.89L328.518 97.4999C328.518 97.4999 344.436 77.1024 381.044 73.0108C376.093 67.5091 372.347 61.681 369.5 55.9338C366.906 55.9001 364.293 55.9459 361.689 56.0764C353.948 56.4642 346.496 57.5661 339.513 59.6164C333.668 77.6225 320.718 92.5221 320.718 92.5221C320.718 92.5221 336.856 129.494 349.679 131.901C357.891 133.442 394.662 137.854 421.73 140.54ZM340.697 32.21L340.097 29.7906C342.643 29.8604 345.234 30.1213 347.855 30.5819C345.387 31.0652 343.001 31.6122 340.697 32.21Z" fill="#904856"/>
<path d="M229.505 69.1754C216.91 67.9894 212.745 90.9177 238.513 98.2724C254.947 102.963 268.358 87.1155 268.358 87.1155C267.098 83.8798 265.585 77.7299 262.351 71.1892C259.948 64.6748 259.106 60.0215 256.098 55.993C246.892 43.6637 235.052 41.7839 229.247 47.0753C224.897 51.0403 224.08 59.1785 229.505 69.1754Z" fill="#541138"/>
<path fill-rule="evenodd" clip-rule="evenodd" d="M268.106 85.5071C266.207 87.3262 259.134 89.7308 257.119 90.9721C251.853 94.2162 245.835 95.9207 239.708 94.1715C224.837 89.9275 220.993 79.8152 224.492 75.0486C226.595 72.1851 231.773 71.3186 237.613 74.6174L233.802 67.5942C224.274 50.0332 237.917 43.2152 251.95 57.8503C259.797 66.0328 265.305 78.5025 268.106 85.5071Z" fill="#FFC57B"/>
<path fill-rule="evenodd" clip-rule="evenodd" d="M227.003 87.066C222.946 82.7571 222.379 77.9279 224.492 75.0486C226.447 72.3864 231.06 71.4509 236.391 73.9837C233.198 73.9337 224.029 74.8243 227.003 87.066ZM237.293 74.0275L233.802 67.5942C224.799 51.0011 236.484 44.0033 249.637 55.6281C222.516 43.2014 237.522 74.0511 237.293 74.0275Z" fill="white"/>
<path d="M235.771 56.1678C237.705 53.3551 242.861 55.2112 247.288 60.3121C251.715 65.4138 253.736 71.8296 251.802 74.6418C249.868 77.4545 244.711 75.5989 240.285 70.4971C235.858 65.3958 233.837 58.9796 235.771 56.1678Z" fill="#541138"/>
<path fill-rule="evenodd" clip-rule="evenodd" d="M237.795 58.2026C238.309 57.4554 239.28 57.3774 240.45 57.7679C240.408 60.2419 242.249 64.308 244.64 67.0643C246.43 69.1267 248.625 70.722 250.374 71.2566C250.35 71.8246 250.222 72.3077 249.973 72.6686C248.672 74.5605 244.573 72.4197 241.596 68.9888C238.618 65.5579 236.494 60.0941 237.795 58.2026Z" fill="#CA5A57"/>
<path d="M226.646 77.8447C227.426 75.1649 231.923 75.3069 236.689 78.1628C241.454 81.0175 244.685 85.5053 243.904 88.1858C243.124 90.8654 238.627 90.7229 233.861 87.8677C229.096 85.0124 225.865 80.5246 226.646 77.8447Z" fill="#541138"/>
<path fill-rule="evenodd" clip-rule="evenodd" d="M228.748 78.9187C228.955 78.2067 229.692 77.9002 230.704 77.9084C231.31 79.847 233.795 82.5493 236.369 84.0915C238.295 85.2463 240.418 85.9347 241.918 85.9084C242.046 86.3571 242.071 86.7658 241.971 87.1103C241.446 88.9128 237.699 88.2814 234.494 86.3612C231.288 84.4407 228.223 80.7211 228.748 78.9187Z" fill="#CA5A57"/>
<path d="M320.753 108.445C300.709 103.704 280.665 98.9647 260.62 94.2246L258.354 93.6882L257.47 91.5548C251.229 76.4816 247.13 59.3283 249.646 43.0014C251.594 30.3615 257.466 19.0333 267.679 11.0281C282.135 -0.302654 301.408 -2.11937 318.889 2.04407C327.658 4.13267 335.608 8.52669 342.015 14.8068C353.701 26.2609 358.901 42.5882 356.892 58.6478C354.324 79.1757 340.998 95.8853 324.475 107.714L322.783 108.925L320.753 108.445ZM323.408 70.3306C325.078 66.7673 326.122 62.9097 326.341 58.7981C326.783 50.4943 323.517 41.8157 316.649 36.7527C314.407 35.0999 311.878 33.915 309.158 33.267C301.268 31.3882 292.74 32.1865 285.983 36.8915C280.534 40.685 277.256 46.3356 275.973 52.7452C275.737 53.9272 275.569 55.1206 275.464 56.3211C278.193 50.9466 282.415 46.5851 288.15 44.2019C292.67 42.324 297.581 41.9177 302.401 42.6783C304.341 42.9841 306.232 43.5431 308.026 44.3363C315.972 47.8491 321.109 55.407 322.781 63.703C323.226 65.9133 323.426 68.1292 323.408 70.3306Z" fill="#541138"/>
<path fill-rule="evenodd" clip-rule="evenodd" d="M261.677 89.849C236.185 28.2838 274.097 -3.99599 317.825 6.41837C355.082 15.2916 371.284 68.652 321.809 104.069C298.857 98.6407 282.981 94.8867 261.677 89.849ZM312.073 90.1559C341.799 68.7735 332.679 34.2413 310.222 28.8928C283.83 22.6083 260.285 44.4962 275.671 81.6531L276.573 83.7399C273.051 56.8445 286.202 44.6789 301.685 47.1209C316.568 49.4691 325.951 70.1168 312.073 90.1559Z" fill="#FFC57B"/>
<path fill-rule="evenodd" clip-rule="evenodd" d="M253.531 56.457C251.629 17.0583 282.866 -1.90814 317.825 6.41836C324.69 8.05344 330.837 11.2028 335.993 15.4677L309.366 28.7031C293.26 25.2309 278.368 32.2487 272.948 46.8055L253.531 56.457Z" fill="#FFE38A"/>
<path fill-rule="evenodd" clip-rule="evenodd" d="M256.36 74.1725C242.966 22.8989 277.975 -3.07256 317.825 6.41837C330.312 9.39188 340.428 17.3668 346.504 27.9848C340.332 19.5157 331.34 13.2453 320.588 10.6847C282.336 1.57399 247.435 26.5594 256.36 74.1725ZM320.433 82.7588C332.434 69.548 333.267 53.6957 327.33 42.4883C338.663 60.0396 334.745 74.7629 312.736 90.5943C315.445 86.6825 319.364 86.5764 320.433 82.7588ZM276.158 79.6453C274.435 55.6149 287.012 44.8066 301.685 47.1209C285.225 46.68 275.813 61.1331 279.337 88.0062L278.434 85.9198C277.546 83.7758 276.794 81.6849 276.158 79.6453Z" fill="white"/>
<path d="M296.127 52.5947C302.402 52.5947 306.954 59.2128 306.294 67.3775C305.634 75.5421 300.01 82.1606 293.734 82.1606C287.459 82.1606 282.906 75.5421 283.567 67.3775C284.227 59.2128 289.85 52.5947 296.127 52.5947Z" fill="#541138"/>
<path fill-rule="evenodd" clip-rule="evenodd" d="M295.843 56.0982C296.882 56.0982 297.859 56.3364 298.748 56.7723C294.723 57.8375 291.398 62.3761 290.958 67.8147C290.563 72.6931 292.607 76.8469 295.811 78.4209C295.225 78.576 294.626 78.6573 294.018 78.6573C289.229 78.6573 285.756 73.6073 286.26 67.3774C286.764 61.1475 291.054 56.0982 295.843 56.0982Z" fill="#DD765F"/>
<path fill-rule="evenodd" clip-rule="evenodd" d="M261.678 89.849C261.549 89.5395 261.434 89.2354 261.309 88.9278L315.62 101.771C361.22 69.1274 351.027 21.2409 319.979 6.99377C355.687 17.3724 370.319 69.3429 321.81 104.069C298.857 98.6407 282.981 94.8867 261.678 89.849ZM291.328 29.3256C278.573 33.3478 269.618 45.2774 270.914 62.8047C270.678 63.8031 273.021 73.1561 272.858 74.2355C272.185 78.7064 269.613 75.565 270.383 81.4425L269.481 79.3557C250.369 31.9584 286.555 29.2296 291.328 29.3256ZM301.962 47.1706C312.921 49.0766 320.809 60.9301 318.434 75.0819C317.396 80.7965 316.366 83.524 315.678 84.4093C312.915 87.9658 310.23 84.731 305.882 87.8586C317.606 70.9306 312.73 53.5689 301.962 47.1706Z" fill="#F17C61"/>
<path d="M309.342 54.6472C309.342 54.6472 315.753 67.8828 306.468 81.4463L313.1 81.1184C313.1 81.1184 319.179 67.8828 309.342 54.6472Z" fill="#541138"/>
<path d="M380.892 78.3647C393.486 77.1785 397.651 100.106 371.883 107.461C355.449 112.152 342.038 96.3044 342.038 96.3044C343.299 93.0689 347.132 87.3565 350.367 80.8156C363.196 38.7741 395.92 50.6678 380.892 78.3647Z" fill="#541138"/>
<path fill-rule="evenodd" clip-rule="evenodd" d="M342.291 94.6961C344.19 96.5153 351.263 98.9199 353.277 100.161C358.544 103.405 364.562 105.109 370.688 103.361C385.559 99.1162 389.403 89.0041 385.904 84.2375C383.802 81.3742 378.624 80.5075 372.784 83.8067L376.595 76.7829C386.123 59.2221 372.48 52.4041 358.447 67.0396C350.6 75.2217 345.092 87.6911 342.291 94.6961Z" fill="#F17C61"/>
<path d="M363.648 86.4586C369.991 85.8614 378.493 81.997 380.652 86.4147C382.778 90.7676 378.704 103.374 365.915 107.024C349.481 111.714 336.069 95.8667 336.069 95.8667C337.33 92.631 341.164 86.9186 344.398 80.3785C353.059 51.9943 370.79 48.1962 376.77 57.2453C383.057 66.7593 366.833 80.5892 363.648 86.4586Z" fill="#541138"/>
<path fill-rule="evenodd" clip-rule="evenodd" d="M336.322 94.2583C338.221 96.0778 345.293 98.4826 347.309 99.7233C352.575 102.968 358.593 104.672 364.719 102.923C379.59 98.6787 383.434 88.5668 379.935 83.8002C377.832 80.9365 372.655 80.0704 366.815 83.3686L370.626 76.3454C380.154 58.7848 366.51 51.9662 352.478 66.6021C344.631 74.784 339.123 87.2538 336.322 94.2583Z" fill="#FFC57B"/>
<path fill-rule="evenodd" clip-rule="evenodd" d="M373.276 69.8273C376.445 57.3329 364.609 53.9495 352.478 66.602C349.714 69.4829 347.241 72.8969 345.074 76.416L373.276 69.8273Z" fill="#FFE38A"/>
<path d="M375.444 85.5229C377.904 87.1468 376.333 91.5533 371.932 95.3639C367.532 99.1752 361.969 100.948 359.508 99.3237C357.047 97.6996 358.619 93.2937 363.019 89.4824C367.42 85.6716 372.982 83.8986 375.444 85.5229Z" fill="#541138"/>
<path fill-rule="evenodd" clip-rule="evenodd" d="M373.69 87.263C374.344 87.6943 374.42 88.5208 374.09 89.5207C371.938 89.5053 368.417 91.1056 366.04 93.164C364.261 94.7051 362.891 96.5873 362.44 98.0808C361.946 98.065 361.525 97.9596 361.209 97.751C359.554 96.6586 361.382 93.1506 364.341 90.5873C367.301 88.0239 372.035 86.1704 373.69 87.263Z" fill="#CA5A57"/>
<path d="M307.739 4.49409C315.044 5.36597 342.121 11.3178 346.592 46.8807C346.592 46.8807 349.632 19.3708 327.525 5.80665L314.869 2.79816L307.739 4.49409Z" fill="#541138"/>
<path d="M306.138 28.1203C306.138 28.1203 283.147 22.979 270.545 37.2535C270.545 37.2535 285.468 25.6585 310.339 32.9877L311.168 31.182L306.138 28.1203Z" fill="#541138"/>
<path fill-rule="evenodd" clip-rule="evenodd" d="M364.264 64.8797C367.806 65.9258 367.563 71.7595 363.72 77.9097C359.879 84.0592 353.893 88.1981 350.35 87.152C346.808 86.1063 347.051 80.2728 350.893 74.1222C354.735 67.9725 360.722 63.8339 364.264 64.8797Z" fill="#721D49"/>
<path fill-rule="evenodd" clip-rule="evenodd" d="M362.815 67.5951C363.756 67.8728 364.153 68.8321 364.13 70.1466C361.554 70.9096 357.942 74.0999 355.867 77.4225C354.314 79.9092 353.376 82.6549 353.392 84.6028C352.796 84.7631 352.254 84.7904 351.799 84.6555C349.416 83.9522 350.298 79.0978 352.883 74.961C355.466 70.8245 360.433 66.8915 362.815 67.5951Z" fill="#CA5A57"/>
<path fill-rule="evenodd" clip-rule="evenodd" d="M283.261 3.05273C286.923 3.05273 289.893 5.99107 289.893 9.61556C289.893 13.2404 286.923 16.1788 283.261 16.1788C279.598 16.1788 276.628 13.2404 276.628 9.61556C276.628 5.99107 279.598 3.05273 283.261 3.05273Z" fill="white"/>
<path d="M366.77 102.552C366.77 102.552 407.447 101.457 421.596 139.743C435.745 178.028 367.212 157.682 367.212 157.682C367.212 157.682 359.254 155.713 362.349 148.056C365.443 140.399 366.77 102.552 366.77 102.552Z" fill="#541138"/>
<path fill-rule="evenodd" clip-rule="evenodd" d="M370.957 108.758C370.957 108.758 403.293 107.888 414.54 138.322C425.788 168.757 371.308 152.583 371.308 152.583C371.308 152.583 364.982 151.018 367.442 144.931C369.902 138.844 370.957 108.758 370.957 108.758Z" fill="#F17C61"/>
<path fill-rule="evenodd" clip-rule="evenodd" d="M286.962 49.8843C288.397 50.8452 288.021 53.8764 286.121 56.6554C284.221 59.4346 281.519 60.908 280.083 59.9475C278.648 58.9867 279.025 55.9551 280.925 53.1766C282.824 50.3974 285.526 48.9239 286.962 49.8843Z" fill="white"/>
<path fill-rule="evenodd" clip-rule="evenodd" d="M332.032 62.7124C333.725 63.0094 334.51 65.4062 333.786 68.0652C333.062 70.7249 331.103 72.6397 329.41 72.3427C327.717 72.0457 326.932 69.6489 327.657 66.9897C328.381 64.3298 330.339 62.415 332.032 62.7124Z" fill="white"/>
<path fill-rule="evenodd" clip-rule="evenodd" d="M321.812 57.3033C329.478 65.0926 333.044 65.0926 341.258 57.3033C333.044 65.0926 333.044 68.6221 341.258 76.5472C333.044 68.6221 329.478 68.6221 321.812 76.5472C329.478 68.6221 329.478 65.0926 321.812 57.3033Z" fill="white"/>
<path fill-rule="evenodd" clip-rule="evenodd" d="M127.269 137.155C127.269 137.155 70.3716 138.516 62.5711 207.534C54.7712 276.552 100.197 326.499 100.197 326.499C100.197 326.499 140.116 351.018 152.505 333.764C164.893 316.509 159.387 141.241 127.269 137.155Z" fill="#7D3453"/>
<path d="M122.037 95.5624C122.037 95.5624 93.0908 114.659 83.4421 138.189C73.7936 161.718 132.72 155.241 132.72 155.241L122.037 95.5624Z" fill="#541138"/>
<path fill-rule="evenodd" clip-rule="evenodd" d="M117.553 107.117C117.553 107.117 99.2834 119.169 93.1939 134.02C87.1038 148.871 124.295 144.782 124.295 144.782L117.553 107.117Z" fill="#E0AE87"/>
<path fill-rule="evenodd" clip-rule="evenodd" d="M123.461 109.614C111.016 112.778 101.586 126.342 100.936 137.426C99.9993 153.425 130.203 147.28 130.203 147.28L123.461 109.614Z" fill="#C1887A"/>
<path d="M82.4219 343.383C92.6868 343.383 101.009 351.619 101.009 361.776C101.009 371.934 92.6868 380.169 82.4219 380.169C72.1575 380.169 63.835 371.934 63.835 361.776C63.835 351.619 72.1575 343.383 82.4219 343.383Z" fill="#541138"/>
<path fill-rule="evenodd" clip-rule="evenodd" d="M82.4222 351.204C88.3225 351.204 93.1053 355.938 93.1053 361.776C93.1053 367.615 88.3225 372.348 82.4222 372.348C76.522 372.348 71.7388 367.615 71.7388 361.776C71.7388 355.938 76.522 351.204 82.4222 351.204Z" fill="#F17C61"/>
<path fill-rule="evenodd" clip-rule="evenodd" d="M82.204 362.892C86.2711 362.892 89.568 364.313 89.568 366.554C89.568 368.795 86.2711 371.009 82.204 371.009C78.137 371.009 74.8403 368.795 74.8403 366.554C74.8403 364.313 78.137 362.892 82.204 362.892Z" fill="#FFC57B"/>
<path d="M128.336 416.295C128.336 416.295 140.61 432.188 124.551 443.539C124.551 443.539 143.478 444.788 148.525 431.733C153.573 418.679 128.336 416.295 128.336 416.295Z" fill="#541138"/>
<path d="M122.568 391.783C123.252 444.868 183.02 449.217 213.772 435.656C213.772 435.656 226.867 473.509 279.591 461.574C279.591 461.574 304.288 455.833 295.5 479.193C295.5 479.193 312.155 478.114 313.82 460.267C313.82 460.267 347.878 486.694 376.136 454.98C376.136 454.98 416.915 464.958 433.284 421.308C433.284 421.308 446.636 429.919 461.713 417.812C461.713 417.812 444.914 418.068 444.31 406.133C444.31 406.133 462.747 406.558 465.503 383.711C468.261 360.862 466.019 330.681 466.019 330.681L433.627 277.482C433.627 277.482 324.733 271.344 319.908 273.39C315.084 275.436 266.841 288.395 259.259 297.261C251.677 306.127 122.568 391.783 122.568 391.783Z" fill="#541138"/>
<path d="M87.6468 367.001C87.6468 367.001 98.6736 390.873 78.6875 411.333C78.6875 411.333 104.188 403.83 103.843 376.891C103.499 349.951 87.6468 367.001 87.6468 367.001Z" fill="#541138"/>
<path fill-rule="evenodd" clip-rule="evenodd" d="M131.752 399.732C131.752 399.732 138.816 449.521 213.078 428.037L216.524 426.503C216.524 426.503 228.414 454.978 254.431 455.83C280.448 456.682 299.229 444.577 303.192 468.279C303.192 468.279 312.325 460.094 307.672 446.453C307.672 446.453 326.969 468.107 347.301 463.844C367.633 459.582 373.49 446.623 373.49 446.623C373.49 446.623 426.215 457.877 432.418 401.609C432.418 401.609 434.831 406.127 434.659 414.225C434.659 414.225 436.209 419.938 447.839 419.085C447.839 419.085 436.985 414.311 440.43 401.949C440.43 401.949 458.868 402.288 460.419 383.021C461.97 363.753 462.313 336.302 462.313 336.302C462.313 336.302 454.387 300.155 448.529 297.427C442.67 294.698 382.366 280.377 376.852 281.74C371.338 283.104 268.647 283.786 261.065 287.878C253.484 291.971 130.116 350.966 131.752 399.732Z" fill="#904856"/>
<path fill-rule="evenodd" clip-rule="evenodd" d="M159.979 416.052C167.459 419.709 172.307 425.11 170.807 428.115C169.306 431.121 162.026 430.592 154.546 426.936C147.066 423.279 142.218 417.878 143.718 414.873C145.218 411.867 152.499 412.396 159.979 416.052Z" fill="#A96E68"/>
<path fill-rule="evenodd" clip-rule="evenodd" d="M300.457 392.736C290.821 395.574 282.676 415.326 295.983 432.013C295.983 432.013 270.747 420.207 277.859 398.639L300.457 392.736Z" fill="#7D3453"/>
<path fill-rule="evenodd" clip-rule="evenodd" d="M427.884 420.22C430.03 415.03 431.616 408.889 432.418 401.609C432.418 401.609 434.831 406.127 434.659 414.225C434.659 414.225 436.209 419.938 447.84 419.085C447.84 419.085 436.985 414.311 440.43 401.949C440.43 401.949 458.868 402.288 460.419 383.021C461.97 363.753 462.313 336.302 462.313 336.302C462.313 336.302 454.388 300.155 448.529 297.427C442.67 294.698 382.366 280.377 376.852 281.74C371.338 283.104 268.647 283.786 261.065 287.878C258.961 289.014 247.935 294.382 233.145 302.581C248.086 347.537 156.902 404.834 156.902 404.834C230.218 463.928 283.096 380.1 361.086 379.684C388.91 379.535 414.375 390.092 427.884 420.22Z" fill="#7D3453"/>
<path d="M220.224 407.398C220.224 407.398 210.574 434.678 222.636 473.553L146.937 468.548C146.937 468.548 182.544 446.505 169.911 400.236C169.911 400.236 176.115 387.618 187.142 387.959C198.169 388.3 220.224 407.398 220.224 407.398Z" fill="#541138"/>
<path fill-rule="evenodd" clip-rule="evenodd" d="M212.471 406.373C212.471 406.373 205.923 442.521 214.021 472.701C193.651 471.848 173.281 470.996 152.911 470.143C152.911 470.143 187.143 446.101 175.426 400.406C175.426 400.406 182.663 395.632 192.139 398.189C201.615 400.746 212.471 406.373 212.471 406.373Z" fill="#FFD6B6"/>
<path fill-rule="evenodd" clip-rule="evenodd" d="M212.471 406.373C212.471 406.373 208.168 430.132 210.854 455.208C202.169 433.8 185.592 428.464 175.11 437.806C178.297 427.755 178.972 415.128 175.426 400.405C175.426 400.405 182.663 395.632 192.139 398.189C201.615 400.747 212.471 406.373 212.471 406.373Z" fill="#DE7C79"/>
<path d="M182.678 149.474C81.2167 167.206 92.7169 206.687 92.4888 271.807C92.4888 271.807 92.1418 299.683 83.1823 327.646C83.1823 327.646 72.1246 364.182 107.107 390.651C161.096 431.503 251.759 416.599 299.77 374.18C347.116 332.351 361.729 270.934 331.737 214.202C312.57 177.948 273.847 145.605 182.678 149.474Z" fill="#541138"/>
<path fill-rule="evenodd" clip-rule="evenodd" d="M184.573 157.606C89.3945 174.24 100.182 211.276 99.9686 272.363C99.9686 272.363 99.6429 298.514 91.2386 324.745C91.2386 324.745 80.8662 360.724 113.682 385.553C164.328 423.875 249.377 408.189 294.415 368.397C338.828 329.158 353.397 271.374 325.264 218.155C307.284 184.146 270.096 153.976 184.573 157.606Z" fill="#FFC7A9"/>
<path fill-rule="evenodd" clip-rule="evenodd" d="M226.763 402.453C252.504 396.109 276.593 384.143 294.415 368.397C320.346 345.487 336.098 316.253 339.121 285.298C311.146 289.397 274.865 301.494 274.865 301.494C280.695 302.798 307.231 374.304 226.763 402.453Z" fill="#DC7577"/>
<path fill-rule="evenodd" clip-rule="evenodd" d="M163.277 202.592C163.277 202.592 202.833 194.742 213.69 232.722C213.69 232.722 215.498 201.481 178.221 193.712L163.277 202.592Z" fill="#E0797A"/>
<path fill-rule="evenodd" clip-rule="evenodd" d="M113.662 194.806C165.706 213.741 150.308 228.263 104.485 223.638C104.485 223.638 105.403 205.703 113.662 194.806Z" fill="#FFD6B6"/>
<path fill-rule="evenodd" clip-rule="evenodd" d="M165.719 364.759C165.719 364.759 167.684 372.109 176.13 373.4C176.13 373.4 174.523 370.108 172.86 368.292C171.197 366.476 167.21 364.986 165.719 364.759Z" fill="#E0797A"/>
<path fill-rule="evenodd" clip-rule="evenodd" d="M147.661 295.489C147.661 295.489 158.329 308.657 155.232 331.133L149.267 331.928L147.775 328.409C147.775 328.409 152.364 317.398 147.661 295.489Z" fill="#FFD6B6"/>
<path fill-rule="evenodd" clip-rule="evenodd" d="M176.654 232.259C176.654 232.259 176.998 264.838 205.447 264.497C233.895 264.156 248.004 251.102 270.832 274.372L267.849 257.572L240.548 246.22L208.429 248.264C208.429 248.264 185.831 249.286 176.654 232.259Z" fill="#E0797A"/>
<path fill-rule="evenodd" clip-rule="evenodd" d="M167.44 161.085C90.7497 179.123 100.169 215.22 99.9686 272.363C99.9686 272.363 99.6427 298.514 91.2382 324.745C91.2382 324.745 80.8656 360.724 113.682 385.553C145.665 409.754 191.368 412.41 232.051 401.064C193.487 409.928 151.606 406.13 121.711 383.51C88.8963 358.68 97.8911 322.701 97.8911 322.701C106.295 296.47 103.639 271.569 103.639 271.569C105.438 217.187 99.4601 179.738 167.44 161.085Z" fill="white"/>
<path fill-rule="evenodd" clip-rule="evenodd" d="M92.4209 320.874C95.2055 328.815 105.267 339.599 131.203 326.366C131.203 326.366 112.505 308.544 111.473 308.09C110.441 307.636 97.9374 304.343 97.0198 305.025C96.8245 305.169 96.4217 305.792 95.9096 306.681C94.9772 311.256 93.83 316.042 92.4209 320.874Z" fill="#DE7C79"/>
<path fill-rule="evenodd" clip-rule="evenodd" d="M184.572 157.606C135.289 166.219 114.421 180.305 105.722 200.365C109.593 195.477 116.809 190.196 128.665 194.426C141.292 198.93 146.778 203.619 160.998 202.604C187.344 200.724 203.594 182.671 228.569 202.525C266.451 232.64 246.755 288.445 290.39 316.013C299.316 321.651 310.948 326.279 326.086 328.489C343.726 294.735 344.916 255.332 325.263 218.155C307.284 184.146 270.096 153.976 184.572 157.606Z" fill="#E0797A"/>
<path fill-rule="evenodd" clip-rule="evenodd" d="M98.71 282.082C98.71 282.082 102.037 262.558 119.128 264.828C136.22 267.099 137.712 306.431 131.403 325.615C131.403 325.615 107.084 307.226 106.396 306.431C105.707 305.637 98.71 282.082 98.71 282.082Z" fill="#F28496"/>
<path fill-rule="evenodd" clip-rule="evenodd" d="M128.478 271.491C136.493 283.996 136.273 310.807 131.403 325.615C131.403 325.615 123.787 319.857 116.958 314.645C116.026 301.971 115.649 285.27 115.649 285.27C136.182 296.394 125.974 271.648 125.974 271.648C126.808 271.5 127.645 271.454 128.478 271.491Z" fill="#D55A80"/>
<path d="M99.1799 282.895C83.3014 302.991 89.2199 335.839 131.103 326.22C131.103 326.22 135.664 289.935 99.1799 282.895Z" fill="#541138"/>
<path fill-rule="evenodd" clip-rule="evenodd" d="M103.554 288.172C90.7236 304.411 95.5065 330.953 129.35 323.181C129.35 323.181 133.035 293.861 103.554 288.172Z" fill="white"/>
<path fill-rule="evenodd" clip-rule="evenodd" d="M426.891 237.16C426.891 237.16 424.941 272.692 397.64 282.681C370.338 292.67 316.08 269.739 311.263 261.339C306.445 252.939 283.732 224.106 286.256 210.257C288.779 196.408 291.762 180.516 293.597 177.337C295.433 174.16 287.174 167.121 303.233 165.986C319.292 164.851 355.542 170.073 357.377 171.208C359.211 172.343 426.891 237.16 426.891 237.16Z" fill="#721D49"/>
<path fill-rule="evenodd" clip-rule="evenodd" d="M417.714 235.798C417.714 235.798 420.925 265.766 388.118 278.934C355.311 292.102 316.998 256.231 313.327 247.831C309.656 239.431 286.485 201.063 294.055 191.981C301.626 182.9 311.033 174.5 316.769 172.456C322.504 170.413 358.064 172.683 361.276 175.18C364.488 177.678 417.714 235.798 417.714 235.798Z" fill="#7D3453"/>
<path d="M109.032 324.166C105.69 320.233 103.675 315.158 103.675 309.616C103.675 301.498 107.998 294.38 114.49 290.389C132.7 301.202 129.866 323.763 129.866 323.763C121.232 325.746 114.342 325.67 109.032 324.166Z" fill="#541138"/>
<path fill-rule="evenodd" clip-rule="evenodd" d="M115.778 323.938C111.167 320.773 108.146 315.496 108.146 309.522C108.146 302.696 112.089 296.781 117.843 293.884C131.225 304.431 128.946 322.597 128.946 322.597C123.932 323.749 119.558 324.146 115.778 323.938Z" fill="#5C7FD2"/>
<path fill-rule="evenodd" clip-rule="evenodd" d="M114.813 300.973C118.266 300.973 121.396 305.343 121.805 310.735C122.213 316.128 119.746 320.498 116.293 320.498C112.841 320.498 109.711 316.128 109.302 310.735C108.893 305.343 111.361 300.973 114.813 300.973Z" fill="#62D1E6"/>
<path d="M129.645 322.679C128.875 322.825 128.08 322.901 127.266 322.901C120.311 322.901 114.67 317.321 114.67 310.435C114.67 305.119 118.035 300.579 122.772 298.788C129.731 307.766 129.845 318.86 129.645 322.679Z" fill="#541138"/>
<path d="M123.814 307.642C125.718 307.86 127.339 310.86 127.436 314.342C127.533 317.825 126.068 320.47 124.165 320.252C122.262 320.033 120.639 317.034 120.543 313.552C120.446 310.07 121.911 307.424 123.814 307.642Z" fill="#754052"/>
<path d="M76.7546 258.499C76.689 284.616 93.581 284.428 110.956 292.425C120.505 296.82 127.964 306.772 131.029 326.276C135.669 300.409 127.959 285.794 103.462 279.55C79.857 273.534 76.754 258.534 76.7546 258.499Z" fill="#541138"/>
<path d="M102.562 272.269C110.811 265.883 118.161 266.928 122.909 271.052C128.789 276.16 131.576 286.257 133.348 294.761C134.105 298.392 135.158 298.425 135 294.394C134.512 282.042 131.758 271.91 127.331 266.539C120.164 257.843 106.912 263.899 102.562 272.269Z" fill="#541138"/>
<path d="M175.908 226.186C175.908 226.186 176.08 256.536 202.098 257.218C228.116 257.9 238.281 242.214 280.667 271.2C280.667 271.2 264.988 237.44 245.518 235.223C226.048 233.006 198.48 255.343 175.908 226.186Z" fill="#541138"/>
<path d="M125.07 361.85C125.07 361.85 143.507 375.49 170.73 366.624C171.534 367.249 173.085 369.237 173.889 369.863C158.648 376.241 133.121 375.033 125.07 361.85Z" fill="#541138"/>
<path d="M165.647 364.748C165.647 364.748 172.537 368.441 176.07 373.471C177.537 367.978 171.245 363.406 165.647 364.748Z" fill="#541138"/>
<path d="M138.749 192.797C138.749 192.797 131.008 191.936 126.392 183.779C121.112 174.446 112.412 167.294 98.4923 169.506C79.6209 172.503 74.5945 198.522 77.9203 215.754C82.2733 238.309 88.6226 253.282 91.2498 266.197C93.9288 279.366 92.8328 290.416 91.3615 307.081C89.8948 323.685 84.9693 342.789 69.6299 368.869C55.084 393.601 30.2788 390.875 13.6437 376.889C-3.51439 362.464 -2.32135 334.897 6.17063 315.385C12.6374 300.526 24.3672 289.029 36.7526 286.702C36.7526 286.702 48.4681 286.702 48.2964 313.642C48.2964 313.642 46.5737 302.559 36.7526 300.343C27.0515 303.943 20.902 320.15 21.7921 334.93C22.562 347.715 28.5496 358.525 38.9156 360.089C44.0609 360.865 50.7391 359.908 56.4982 347.934C63.6929 332.974 71.2739 308.807 65.3552 280.166C55.5942 232.932 38.6461 226.342 40.0242 205.881C41.4021 185.421 59.3226 149.273 79.9984 131.541C79.9984 131.541 111.012 116.877 147.54 130.518C184.068 144.158 157.533 189.969 157.533 189.969L138.749 192.797Z" fill="#541138"/>
<path fill-rule="evenodd" clip-rule="evenodd" d="M154.571 144.475C154.571 144.475 138.72 124.696 83.9275 137.655C83.9275 137.655 61.9366 157.807 51.6968 189.146C45.3312 208.628 46.5526 211.219 54.4812 229.192C62.3629 247.06 72.6105 275.348 72.8044 303.816C72.8911 316.544 64.7342 347.937 56.3193 357.78C50.0699 365.091 43.1699 367.742 36.6382 366.328C26.3935 364.108 16.952 351.768 16.0899 335.823C15.2536 320.349 21.7853 302.9 31.7206 297.59C31.7206 297.59 9.49434 301.171 6.22005 340.388C6.22005 340.388 3.29027 376.877 36.5447 381.48C36.5447 381.48 55.2097 384.833 66.4098 365.054C77.6089 345.275 95.6417 302.364 79.4456 246.438C72.1298 222.712 66.5251 196.682 83.976 179.876C102.828 161.723 125.456 160.294 133.842 185.781C133.842 185.781 146.816 165.105 148.367 162.548C149.917 159.991 154.571 144.475 154.571 144.475Z" fill="#A96E68"/>
<path fill-rule="evenodd" clip-rule="evenodd" d="M116.823 133.26C107.867 133.336 97.0095 134.561 83.9276 137.654C83.9276 137.654 61.9367 157.806 51.6971 189.146C50.2968 193.431 49.2632 196.901 48.5889 199.895C61.683 167.916 83.8631 137.995 116.533 133.992C116.64 133.745 116.736 133.502 116.823 133.26Z" fill="#E0AE87"/>
<path fill-rule="evenodd" clip-rule="evenodd" d="M154.572 144.475C154.572 144.475 143.391 130.534 107.371 133.734C111.557 142.192 112.291 156.366 92.7485 172.811C109.363 161.911 126.728 164.159 133.842 185.781C133.842 185.781 146.816 165.106 148.367 162.548C149.917 159.991 154.572 144.475 154.572 144.475Z" fill="#904856"/>
<path fill-rule="evenodd" clip-rule="evenodd" d="M30.9734 298.02C31.2206 297.869 31.4692 297.725 31.7212 297.591C31.7212 297.591 9.49449 301.171 6.22038 340.388C6.22038 340.388 3.80836 370.453 28.2363 379.444C10.0982 367.685 0.467856 319.443 30.9734 298.02Z" fill="#E0AE87"/>
<path fill-rule="evenodd" clip-rule="evenodd" d="M68.2372 269.123C70.9029 280.165 72.7239 291.974 72.8046 303.816C72.8913 316.544 64.734 347.937 56.3195 357.78C53.959 360.541 51.5054 362.638 49.0142 364.101C56.7159 364.43 65.1893 366.968 52.919 378.51C57.5801 376.126 62.4596 372.03 66.41 365.054C76.6996 346.881 92.7554 309.177 82.732 259.794C79.536 267.757 74.9091 272.696 68.2372 269.123Z" fill="#904856"/>
<path d="M154.43 196.331C154.43 196.331 147.884 198.376 139.01 193.261C130.136 188.146 100.672 136.142 121.004 89.0827C121.004 89.0827 140.302 63.5074 173.039 71.3503C205.776 79.1935 154.43 196.331 154.43 196.331Z" fill="#541138"/>
<path fill-rule="evenodd" clip-rule="evenodd" d="M156.022 190.039C156.022 190.039 150.512 193.374 142.692 188.867C134.872 184.36 108.045 134.27 125.961 92.7991C125.961 92.7991 143.4 70.9427 172.249 77.8537C201.098 84.7655 156.022 190.039 156.022 190.039Z" fill="#A96E68"/>
<path fill-rule="evenodd" clip-rule="evenodd" d="M151.748 77.496C157.697 76.2138 164.569 76.0141 172.249 77.8539C181.542 80.08 183.158 92.5182 181.087 108.351C175.27 129.239 156.521 193.419 148.344 145.067C141.358 103.754 147.912 84.6128 151.748 77.496Z" fill="#904856"/>
<path fill-rule="evenodd" clip-rule="evenodd" d="M156.022 190.039C156.022 190.039 150.512 193.374 142.693 188.867C140.186 187.422 135.726 181.288 131.413 172.261C136.563 176.366 144.317 178.951 147.27 161.121C147.27 161.121 151.374 176.154 162.119 174.781C158.596 184.021 156.022 190.039 156.022 190.039Z" fill="#904856"/>
<path fill-rule="evenodd" clip-rule="evenodd" d="M128.944 166.715C120.896 147.296 114.898 118.406 125.961 92.7988C125.961 92.7988 134.276 82.3813 148.919 78.2071C140.079 84.0322 112.487 100.029 128.944 166.715Z" fill="#E0AE87"/>
<path d="M285.994 57.3793C285.994 57.3793 264.206 31.4656 218.029 43.06C218.029 43.06 187.823 51.1474 165.137 75.9877C152.348 89.9906 147.222 111.362 148.493 137.793C143.795 156.294 144.526 176.114 151.168 194.354C155.112 199.371 171.011 198.779 176.264 195.776C184.018 191.344 252.308 127.458 365.337 184.066C387.621 198.161 409.906 212.256 432.19 226.351C448.132 157.629 415.911 106.143 357.584 94.8895C357.584 94.8895 331.999 55.5033 285.994 57.3793Z" fill="#541138"/>
<path d="M326.25 312.794C355.956 295.644 378.287 312.793 379.904 336.808C383.333 387.731 309.471 406.656 299.198 365.48L309.192 339.563L326.25 312.794Z" fill="#541138"/>
<path fill-rule="evenodd" clip-rule="evenodd" d="M327.843 318.618C352.475 304.398 370.991 318.618 372.331 338.531C375.174 380.755 313.93 396.446 305.413 362.304L313.699 340.815L327.843 318.618Z" fill="#F88D87"/>
<path fill-rule="evenodd" clip-rule="evenodd" d="M360.389 337.627C360.389 337.627 368.591 362.827 337.963 364.871C337.963 364.871 349.606 355.79 346.279 347.276C342.953 338.762 343.87 336.719 343.87 336.719C343.87 336.719 349.721 334.789 360.389 337.627Z" fill="#C74F6C"/>
<path fill-rule="evenodd" clip-rule="evenodd" d="M327.843 318.618C352.436 304.421 370.932 318.574 372.324 338.439C328.027 327.508 319.353 358.352 318.522 378.368C312.269 375.534 307.402 370.279 305.412 362.305L313.699 340.815L327.843 318.618Z" fill="#C74F6C"/>
<path d="M322.414 357.549C322.414 357.549 333.785 332.995 364.11 339.304C347.22 325.565 323.791 337.894 322.414 357.549Z" fill="#541138"/>
<path d="M340.505 338.281C340.505 338.281 351.187 352.773 337.23 365.221C337.23 365.221 358.079 355.843 347.052 336.575L340.505 338.281Z" fill="#541138"/>
<path d="M305.633 291.475C305.633 291.475 315.282 317.786 294.262 352.399C273.242 387.012 298.222 426.343 318.15 431.628C318.15 431.628 289.146 395.312 312.632 363.368C336.119 331.424 340.89 333.926 341.063 304.259C341.236 274.591 305.633 291.475 305.633 291.475Z" fill="#541138"/>
<path fill-rule="evenodd" clip-rule="evenodd" d="M313.842 295.223C313.842 295.223 322.802 317.56 301.264 354.048C301.264 354.048 285.067 376.042 300.058 406.564C300.058 406.564 290.926 379.282 308.156 358.14C325.387 336.997 339.17 322.164 333.312 297.269C333.312 297.269 324.397 290.705 313.842 295.223Z" fill="#A96E68"/>
<path fill-rule="evenodd" clip-rule="evenodd" d="M313.842 295.223C313.842 295.223 317.529 304.416 314.487 320.639C317.994 347.066 308.689 348.437 301.851 368.43C303.394 364.935 305.449 361.462 308.156 358.14C325.386 336.997 339.17 322.164 333.312 297.27C333.312 297.27 324.397 290.705 313.842 295.223Z" fill="#904856"/>
<path d="M188.901 188.498C188.901 188.498 236.801 171.789 258.855 214.074C280.91 256.359 302.963 347.41 404.965 297.963C404.965 297.963 443.904 291.482 471.128 326.947C471.128 326.947 474.228 289.776 452.174 273.408C428.583 255.898 399.012 262.968 360.859 243.766C341.844 234.196 322.073 218.098 297.104 189.178L262.988 173.832C262.988 173.832 196.48 173.15 188.901 188.498Z" fill="#541138"/>
<path fill-rule="evenodd" clip-rule="evenodd" d="M156.497 192.237C156.497 192.237 144.872 163.792 148.36 131.334C151.246 104.478 164.772 74.7994 201.206 56.8519C226.027 44.6259 263.806 41.4288 280.898 63.8452C280.898 63.8452 324.059 59.582 351.283 101.527C351.283 101.527 442.518 111.928 425.976 222.757C425.976 222.757 368.773 202.637 365.327 201.273C361.881 199.908 278.142 153.19 278.142 153.19L226.451 166.831L187.053 180.192C187.053 180.192 176.022 197.582 156.497 192.237Z" fill="#A96E68"/>
<path fill-rule="evenodd" clip-rule="evenodd" d="M152.707 110.903C175.617 85.5639 189.772 111.255 186.341 120.063C217.428 97.4735 211.806 130.166 211.806 130.166C221.494 129.142 225.784 132.004 226.422 135.927C228.075 146.095 210.43 158.546 210.43 158.546L264.573 133.118C230.848 134.026 248.743 107.917 248.743 107.917C205.153 118.361 212.495 92.4788 212.495 92.4788C170.015 112.207 174.701 85.5447 177.465 74.5936C168.034 81.996 158.187 99.3345 152.707 110.903Z" fill="#C1887A"/>
<path fill-rule="evenodd" clip-rule="evenodd" d="M347.488 96.1077C348.782 97.8234 350.05 99.6265 351.283 101.527C351.283 101.527 370.801 106.001 388.709 126.86C374.119 116.233 378.67 115.949 363.866 111.136C287.93 86.4463 215.831 127.774 215.831 127.774C256.183 96.9913 304.496 91.6169 347.488 96.1077Z" fill="#C1887A"/>
<path fill-rule="evenodd" clip-rule="evenodd" d="M149.784 167.178C148.015 156.973 146.947 144.482 148.36 131.334C151.246 104.478 164.772 74.7994 201.206 56.8519C223.103 46.0668 255.082 42.3121 274.048 56.9664C234.422 41.7536 191.737 59.7889 167.853 94.6265C151.82 118.014 149.334 141.524 149.784 167.178Z" fill="#E0AE87"/>
<path fill-rule="evenodd" clip-rule="evenodd" d="M242.45 47.3254C255.674 47.4888 268.232 51.0824 277.098 59.5937C255.241 64.1459 217.862 87.4321 217.862 87.4321C264.689 58.8767 256.312 49.2179 242.45 47.3254Z" fill="#904856"/>
<path fill-rule="evenodd" clip-rule="evenodd" d="M156.497 192.237C156.497 192.237 152.343 182.068 149.746 166.955C153.374 173.415 161.281 181.133 175.374 166.57C175.374 166.57 175.144 184.619 192.466 171.111L185.803 181.891C182.409 186.129 172.202 196.536 156.497 192.237Z" fill="#904856"/>
<path fill-rule="evenodd" clip-rule="evenodd" d="M351.283 101.527C351.283 101.527 442.173 111.814 416.57 221.849C416.57 221.849 367.899 202.29 365.327 201.273C362.755 200.255 342.446 188.922 321.387 177.244C308.879 159.242 304.203 141.06 335.127 139.809C396.841 137.312 357.84 100.759 345.451 99.6243C347.776 97.488 349.739 99.1467 351.283 101.527Z" fill="#904856"/>
<path fill-rule="evenodd" clip-rule="evenodd" d="M276.295 58.8434C277.955 60.3463 279.497 62.0078 280.898 63.8452C280.898 63.8452 319.135 60.0742 346.329 94.6065C341.507 94.4356 336.115 94.2162 330.081 93.9469C274.102 91.4495 225.006 119.6 225.006 119.6C298.191 81.2322 258.961 65.5676 258.961 65.5676C266.579 63.9747 272.127 61.5999 276.295 58.8434Z" fill="#904856"/>
<path d="M352.576 101.696C352.576 101.696 274.351 82.4291 211.806 130.853C211.806 130.853 253.331 78.5067 348.269 94.0232L352.317 97.0925L352.576 101.696Z" fill="#541138"/>
<path d="M281.674 63.6328C281.674 63.6328 231.19 69.8981 200.521 106.216C200.521 106.216 222.49 68.3212 278.143 56.5558L281.674 57.9625V63.6328Z" fill="#541138"/>
<path d="M328.468 372.071C337.889 372.071 345.526 379.628 345.526 388.951C345.526 398.273 337.889 405.83 328.468 405.83C319.048 405.83 311.411 398.273 311.411 388.951C311.411 379.628 319.048 372.071 328.468 372.071Z" fill="#541138"/>
<path fill-rule="evenodd" clip-rule="evenodd" d="M328.468 378.379C334.368 378.379 339.151 383.112 339.151 388.951C339.151 394.789 334.368 399.522 328.468 399.522C322.568 399.522 317.785 394.789 317.785 388.951C317.785 383.112 322.568 378.379 328.468 378.379Z" fill="#FFC57B"/>
<path fill-rule="evenodd" clip-rule="evenodd" d="M332.545 381.156C335.391 382.617 337.336 385.559 337.336 388.951C337.336 393.797 333.365 397.725 328.468 397.725C324.865 397.725 321.763 395.599 320.376 392.545C321.596 393.171 322.983 393.526 324.453 393.526C329.351 393.526 333.321 389.597 333.321 384.751C333.321 383.47 333.043 382.253 332.545 381.156Z" fill="#F17C61"/>
<path fill-rule="evenodd" clip-rule="evenodd" d="M326.693 380.516C329.056 380.516 330.123 382.411 329.077 384.75C328.031 387.089 325.267 388.984 322.904 388.984C320.541 388.984 319.474 387.089 320.52 384.75C321.566 382.411 324.33 380.516 326.693 380.516Z" fill="white"/>
<path d="M370.907 453.354C370.907 453.354 369.702 470.746 388.827 471.598C388.827 471.598 378.316 467.166 381.245 451.649L377.542 449.517L370.907 453.354Z" fill="#541138"/>
<path d="M351.005 444.743C351.005 444.743 380.124 455.655 397.01 424.623C397.01 424.623 394.425 445.936 378.746 450.54C363.068 455.143 351.005 444.743 351.005 444.743Z" fill="#541138"/>
<path fill-rule="evenodd" clip-rule="evenodd" d="M216.609 180.797C216.609 180.797 251.587 175.85 265.888 210.805C280.188 245.76 308.274 312.941 359.62 304.074C410.966 295.207 409.07 278.498 451.284 303.733L463.345 310.724C463.345 310.724 465.413 282.93 436.121 270.483C406.83 258.037 350.141 267.245 320.506 212C320.506 212 302.931 169.373 300.519 168.009C298.106 166.645 223.673 156.756 216.609 180.797Z" fill="#A96E68"/>
<path fill-rule="evenodd" clip-rule="evenodd" d="M405.92 291.765C418.43 288.695 428.346 290.021 451.284 303.733L463.345 310.723C463.345 310.723 465.413 282.93 436.122 270.483C412.605 260.491 371.433 264.447 340.775 237.812C342.466 247.764 350.155 270.553 385.037 282.234C393.076 284.926 399.974 288.195 405.92 291.765Z" fill="#904856"/>
<path fill-rule="evenodd" clip-rule="evenodd" d="M270.427 221.738C285.832 258.028 313.232 312.085 359.62 304.074C367.346 302.74 373.859 301.228 379.506 299.709C355.561 301.722 339.478 298.486 324.471 289.354C292.474 269.882 275.204 232.224 270.427 221.738Z" fill="#E0AE87"/>
<path fill-rule="evenodd" clip-rule="evenodd" d="M216.609 180.797C216.609 180.797 251.587 175.851 265.888 210.806C266.992 213.506 268.18 216.399 269.453 219.435C276.328 214.17 296.791 202.589 326.363 221.619C324.313 218.65 322.357 215.451 320.506 212C320.506 212 302.931 169.373 300.519 168.009C298.106 166.645 223.673 156.756 216.609 180.797Z" fill="#904856"/>
<path d="M294.793 233.442C315.199 281.234 344.54 292.596 380.134 297.693C406.746 301.503 429.759 303.953 443.913 311.967C458.373 320.155 461.775 338.84 455.615 351.61C449.439 364.417 433.649 371.281 414.612 354.055C414.612 354.055 418.747 395.541 458.377 393.498C480.441 392.359 494.233 373.216 494.307 354.282C494.409 328.163 481.618 308.76 468.497 299.459C449.599 286.063 424.71 286.947 396.562 282.254C378.142 279.184 360.431 270.075 346.504 254.029C318.472 221.734 294.793 233.442 294.793 233.442Z" fill="#541138"/>
<path fill-rule="evenodd" clip-rule="evenodd" d="M293.985 232.5C311.934 265.58 342.636 287.482 380.828 292.951C393.076 294.705 405.474 296.211 417.621 298.551C427.21 300.398 437.784 302.976 446.318 307.809C480.168 326.974 461.558 385.388 422.875 365.715C431.502 385.623 453.057 391.502 467.6 385.188C500.109 371.074 496.219 300.673 430.667 291.929C418.899 290.36 407.212 289.388 395.557 286.942C350.91 276.205 347.937 253.394 337.816 238.238C321.496 222.559 301.054 233.168 293.985 232.5Z" fill="#A96E68"/>
<path fill-rule="evenodd" clip-rule="evenodd" d="M447.346 308.424C479.693 328.136 461.245 384.901 423.15 365.848C458.589 395.381 505.342 341.546 447.346 308.424Z" fill="#C1887A"/>
<path d="M168.822 197.518C168.822 197.518 206.676 185.825 222.277 222.15C222.277 222.15 220.098 190.933 182.128 187.869L168.822 197.518Z" fill="#541138"/>
<path d="M173.996 196.596C173.996 196.596 173.834 196.656 175.662 192.461C187.488 165.324 242.612 120.485 311.579 133.85C394.283 149.877 408.412 242.973 485.948 225.583C485.948 225.583 466.65 262.754 402.554 246.385C338.458 230.016 276.343 145.444 173.996 196.596Z" fill="#541138"/>
<path fill-rule="evenodd" clip-rule="evenodd" d="M193.984 180.419C193.984 180.419 242.458 160.013 292.426 183.542C342.394 207.071 413.614 268.966 470.817 232.819C470.817 232.819 425.523 244.654 377.285 171.758C360.003 145.634 328.056 133.436 297.138 131.708C261.915 129.74 209.572 152.84 193.984 180.419Z" fill="#A96E68"/>
<path fill-rule="evenodd" clip-rule="evenodd" d="M231.588 159.878C254.119 147.901 279.976 147.099 301.909 154.09C334.794 164.574 362.583 191.165 386.907 212.55C386.907 212.55 301.791 164.419 231.588 159.878Z" fill="#C1887A"/>
<path fill-rule="evenodd" clip-rule="evenodd" d="M193.984 180.419C193.984 180.419 242.458 160.013 292.426 183.542C342.394 207.071 413.614 268.966 470.817 232.819C410.715 247.189 370.303 186.054 307.456 163.273C276.521 152.06 234.741 146.915 193.984 180.419Z" fill="#904856"/>
<path d="M192.378 145.645C192.378 145.645 167.313 161.424 163.471 196.273L171.271 195.705C171.271 195.705 173.393 163.24 192.378 145.645Z" fill="#541138"/>
<path fill-rule="evenodd" clip-rule="evenodd" d="M182.493 327.019C208.771 377.594 266.011 361.206 268.753 310.37C268.753 310.37 239.979 301.387 218.959 303.604C197.94 305.82 182.493 327.019 182.493 327.019Z" fill="#DE7C79"/>
<path fill-rule="evenodd" clip-rule="evenodd" d="M184.361 325.009C184.361 325.009 215.071 289.023 263.565 305.484C246.768 248.322 179.956 257.412 184.361 325.009Z" fill="#F28496"/>
<path fill-rule="evenodd" clip-rule="evenodd" d="M219.561 303.736C231.655 300.396 246.508 299.694 263.565 305.484C258.854 289.451 250.207 278.633 240.303 272.853C237.987 272.548 235.659 272.642 233.344 273.238C233.344 273.238 251.812 294.353 214.761 300.936C214.761 300.936 214.184 301.602 219.561 303.736Z" fill="#D55A80"/>
<path fill-rule="evenodd" clip-rule="evenodd" d="M214.539 291.564C185.835 310.634 190.6 290.44 206.23 280.271C221.055 270.625 240.98 273.998 214.539 291.564Z" fill="#F8A3A6"/>
<path d="M184.984 326.338C206.415 365.855 267.198 353.496 269.754 311.846C269.754 311.846 240.979 301.387 219.959 303.604C198.94 305.82 184.984 326.338 184.984 326.338Z" fill="#541138"/>
<path fill-rule="evenodd" clip-rule="evenodd" d="M188.514 323.45C207.908 357.807 261.253 347.435 263.982 310.984C263.982 310.984 239.169 301.503 220.146 303.509C201.122 305.515 188.514 323.45 188.514 323.45Z" fill="#FFEBF5"/>
<path fill-rule="evenodd" clip-rule="evenodd" d="M188.514 323.45C188.981 324.278 189.474 325.071 189.98 325.847C204.134 314.114 222.947 309.95 248.437 323.672C248.437 323.672 248.784 307.021 246.499 305.856C238.393 304.023 228.686 302.608 220.146 303.509C201.123 305.515 188.514 323.45 188.514 323.45Z" fill="#B3AABE"/>
<path d="M263.39 309.318C264.121 310.402 264.774 311.541 265.344 312.727C262.394 333.586 243.477 345.751 223.965 345.83C217.444 340.879 213.237 333.089 213.237 324.327C213.237 314.968 218.035 306.719 225.329 301.854C240.656 301.967 257.44 307.261 263.39 309.318Z" fill="#541138"/>
<path fill-rule="evenodd" clip-rule="evenodd" d="M254.128 307.803C258.135 311.043 260.939 315.686 261.778 320.972C256.947 333.633 245.128 341.675 231.999 343.85C224.358 340.583 219.01 333.058 219.01 324.297C219.01 314.534 225.652 306.304 234.709 303.794C241.865 304.638 248.803 306.293 254.128 307.803Z" fill="#5C7FD2"/>
<path fill-rule="evenodd" clip-rule="evenodd" d="M226.894 316.681C232.314 314.476 238.993 318.187 241.812 324.971C244.631 331.754 242.523 339.042 237.103 341.248C231.683 343.453 225.005 339.742 222.186 332.958C219.366 326.174 221.474 318.887 226.894 316.681Z" fill="#62D1E6"/>
<path d="M241.071 308.374C249.926 308.374 257.105 315.478 257.105 324.24C257.105 333.003 249.926 340.107 241.071 340.107C232.217 340.107 225.038 333.003 225.038 324.24C225.038 315.478 232.217 308.374 241.071 308.374Z" fill="#541138"/>
<path d="M251.348 320.408C253.63 322.49 253.891 328.166 250.091 332.245C246.291 336.325 239.869 337.263 237.587 335.181C235.305 333.099 238.026 328.785 241.826 324.705C245.626 320.625 249.065 318.326 251.348 320.408Z" fill="#754052"/>
<path d="M184.659 329.264C190.829 322.547 205.122 307.872 225.384 309.065C252.866 310.684 282.675 325.859 295.598 297.213C280.543 309.932 243.714 296.458 225.171 297.266C199.066 298.403 187.219 316.933 182.992 326.196C182.078 328.201 180.081 334.249 184.659 329.264Z" fill="#541138"/>
<path fill-rule="evenodd" clip-rule="evenodd" d="M224.544 311.39C228.555 311.39 231.806 314.253 231.806 317.785C231.806 321.317 228.555 324.179 224.544 324.179C220.534 324.179 217.283 321.317 217.283 317.785C217.283 314.253 220.534 311.39 224.544 311.39Z" fill="#FFEBF5"/>
<path fill-rule="evenodd" clip-rule="evenodd" d="M253.143 328.783C254.093 329.749 253.353 331.985 251.492 333.778C249.63 335.57 247.351 336.241 246.401 335.275C245.452 334.309 246.191 332.072 248.052 330.28C249.914 328.487 252.193 327.817 253.143 328.783Z" fill="#FFEBF5"/>
<path fill-rule="evenodd" clip-rule="evenodd" d="M114.869 299.435C117.577 300.436 118.657 303.802 117.284 306.953C115.911 310.104 112.604 311.846 109.896 310.845C107.188 309.844 106.107 306.478 107.481 303.328C108.854 300.176 112.162 298.434 114.869 299.435Z" fill="white"/>
<path fill-rule="evenodd" clip-rule="evenodd" d="M228.508 386.894C205.348 387.399 182.947 361.296 228.051 360.928C271.102 360.577 250.329 386.419 228.508 386.894Z" fill="#FF8989"/>
<path fill-rule="evenodd" clip-rule="evenodd" d="M90.9726 325.812C113.414 343.933 114.918 356.849 92.9919 357.958C87.725 343.002 90.1099 329.597 90.9726 325.812Z" fill="#FF8989"/>
<path fill-rule="evenodd" clip-rule="evenodd" d="M90.9729 325.812C93.1252 327.55 95.0835 329.24 96.8483 330.876C96.5186 337.255 97.0201 346.699 100.979 356.772C98.7926 357.397 96.1342 357.799 92.9927 357.958L92.987 357.943L92.9429 357.815C92.8261 357.482 92.7149 357.149 92.6057 356.817L92.5246 356.572C92.4129 356.226 92.3065 355.883 92.2023 355.539L92.1346 355.314C92.0298 354.96 91.9279 354.608 91.831 354.257L91.7754 354.055C91.6785 353.7 91.5856 353.346 91.4963 352.995L91.4521 352.817C91.3641 352.464 91.2795 352.112 91.199 351.762L91.1875 351.714L91.1672 351.62C91.0901 351.279 91.0166 350.941 90.9461 350.603L90.918 350.472C90.8467 350.127 90.7807 349.786 90.717 349.446L90.6771 349.231C90.6149 348.896 90.5568 348.56 90.5017 348.228L90.4704 348.038C90.4174 347.71 90.367 347.383 90.3196 347.059L90.2905 346.852C90.1391 345.785 90.0195 344.74 89.9284 343.722L89.9113 343.534C89.8831 343.204 89.8581 342.876 89.8352 342.552L89.8308 342.492C89.8071 342.148 89.7861 341.807 89.768 341.469L89.7665 341.438C89.7498 341.109 89.7351 340.785 89.7231 340.463L89.7218 340.417L89.7212 340.399C89.711 340.089 89.7018 339.78 89.6956 339.476L89.6937 339.399L89.6928 339.333C89.687 339.037 89.6844 338.743 89.6832 338.454L89.6827 338.372C89.6823 338.077 89.6838 337.784 89.687 337.496L89.6877 337.385C89.6915 337.087 89.6979 336.791 89.7056 336.5V336.494C89.7218 335.895 89.7462 335.313 89.7776 334.75L89.7799 334.701L89.7831 334.647L89.8331 333.866L89.8352 333.837C89.8536 333.574 89.8732 333.317 89.8941 333.063L89.9012 332.98L89.9638 332.284L89.9783 332.14L90.042 331.515L90.0463 331.477L90.0503 331.439L90.1218 330.824L90.1299 330.755L90.1353 330.713L90.2169 330.081L90.2201 330.057C90.2749 329.651 90.3309 329.267 90.3877 328.903L90.4033 328.803L90.4092 328.767L90.4923 328.26L90.4975 328.229L90.5067 328.176L90.5777 327.77L90.5908 327.694L90.5962 327.666L90.6472 327.388L90.6824 327.2L90.6978 327.123L90.7471 326.871L90.7723 326.748L90.7956 326.633L90.8565 326.342L90.8571 326.339L90.8883 326.195L90.9315 325.996L90.9361 325.974L90.9729 325.812ZM91.4521 352.817C91.3641 352.464 91.2791 352.112 91.199 351.762L91.4521 352.817ZM89.7665 341.438C89.7498 341.11 89.7351 340.783 89.7231 340.463L89.7665 341.438Z" fill="#FFA198"/>
<path fill-rule="evenodd" clip-rule="evenodd" d="M99.6981 242.337C115.223 240.996 135.837 274.629 146.026 229.931L134.785 238.048L103.124 228.286L99.9977 228.81C99.3602 233.235 99.183 237.771 99.6981 242.337Z" fill="#E0797A"/>
<path d="M89.9302 234.37C106.772 225.913 130.536 269.905 146.962 227.805C122.141 247.127 119.112 209.814 89.4995 224.225C89.4995 224.225 88.207 228.487 89.9302 234.37Z" fill="#541138"/>
<path fill-rule="evenodd" clip-rule="evenodd" d="M162.742 332.184C133.916 336.21 154.787 341.678 167.039 342.525L137.003 341.876L133.748 337.08C133.748 337.08 148.333 330.137 162.742 332.184Z" fill="white"/>
<path fill-rule="evenodd" clip-rule="evenodd" d="M133.831 338.94C133.831 338.94 139.525 351.453 146.873 354.246C155.173 357.402 166.126 350.727 167.538 342.271C167.538 342.271 150.898 343.725 136.595 337.674L134.088 337.377L133.831 338.94Z" fill="#E0797A"/>
<path d="M147.677 295.555C147.677 295.555 151.083 317.228 142.982 332.704L150.287 332.377C150.287 332.377 155.99 310.423 147.677 295.555Z" fill="#541138"/>
<path d="M131.915 338.169C131.915 338.169 131.782 333.542 133.852 332.398C135.922 331.254 151.099 328.108 163.003 332.475C163.003 332.475 146.111 333.107 137.53 336.365C137.054 336.545 135.834 336.951 136.026 337.726C136.67 340.334 139.885 349.799 149.058 354.918C142.043 355.147 132.496 346.554 131.915 338.169Z" fill="#541138"/>
<path d="M135.165 336.647C136.741 338.436 147.721 341.343 154.877 342.015C154.877 342.015 143.54 343.173 134.646 340.534L133.937 338.255L135.165 336.647Z" fill="#541138"/>
<path fill-rule="evenodd" clip-rule="evenodd" d="M149.576 380.972C154.845 381.476 159.523 384.164 161.3 385.603C163.594 387.462 156.323 387.177 148.733 386.026C143.027 385.162 138.083 384.623 138.591 383.435C138.949 382.598 142.524 380.297 149.576 380.972Z" fill="#E0797A"/>
<path d="M472.319 230.85C471.287 230.963 440.544 240.612 401.083 219.044C401.083 219.044 434.924 247.876 470.369 238.001L473.811 234.142L472.319 230.85Z" fill="#541138"/>
<path fill-rule="evenodd" clip-rule="evenodd" d="M340.003 345.713C342.075 346.365 342.806 350.663 341.635 355.315C340.465 359.967 337.837 363.21 335.765 362.558C333.692 361.907 332.96 357.608 334.131 352.956C335.301 348.304 337.93 345.061 340.003 345.713Z" fill="#FBAEA7"/>
<path fill-rule="evenodd" clip-rule="evenodd" d="M379.145 380.735C379.145 380.735 402.633 386.173 400.536 415.611C400.536 415.611 411.036 395.518 400.369 379.626C389.7 363.734 383.162 371.226 383.162 371.226L379.145 380.735Z" fill="#7D3453"/>
<path d="M437.347 303.834C437.347 303.834 469.322 311.922 474.255 340.301C474.255 340.301 468.635 322.479 443.283 311.241L438.122 307.637L437.347 303.834Z" fill="#541138"/>
<path d="M423.467 364.761C423.467 364.761 439.354 376.168 454.324 373.046C454.324 373.046 441.648 379.46 423.295 371.457L420.772 366.519C420.772 366.519 420.599 363.511 423.467 364.761Z" fill="#541138"/>
<path d="M187.755 299.055C192.443 290.193 203.047 274.677 220.106 273.871C236.046 273.118 247.857 281.975 253.978 287.985C258.136 292.069 258.111 291.273 255.152 286.49C249.76 277.775 237.911 264.074 217.617 266.426C196.367 268.889 188.759 288.008 186.175 298.421C185.317 301.877 185.815 302.721 187.755 299.055Z" fill="#541138"/>
<path fill-rule="evenodd" clip-rule="evenodd" d="M113.552 269.339C119.602 269.339 124.048 273.754 124.048 275.98C124.048 278.205 119.602 277.398 113.552 277.398C107.503 277.398 102.139 278.205 102.139 275.98C102.139 273.754 107.503 269.339 113.552 269.339Z" fill="#F8A3A6"/>
<path fill-rule="evenodd" clip-rule="evenodd" d="M139.604 373.213C144.172 374.341 148.115 374.903 147.893 376.05C147.672 377.197 143.371 378.494 138.803 377.366C134.235 376.238 131.131 373.111 131.352 371.964C131.574 370.817 135.036 372.085 139.604 373.213Z" fill="#FFE1CA"/>
<path d="M348.693 95.2715C348.693 95.2715 323.915 81.1951 285.831 85.0552C285.831 85.0552 317.95 75.6333 345.595 86.4174L346.857 88.574L348.693 95.2715Z" fill="#541138"/>
<path fill-rule="evenodd" clip-rule="evenodd" d="M421.118 197.003C421.118 197.003 417.219 167.716 383.494 150.462C383.494 150.462 411.024 156.138 425.019 179.068C425.019 179.068 426.51 186.56 426.395 187.241C426.281 187.922 421.118 197.003 421.118 197.003Z" fill="#A96E68"/>
<path d="M149.492 74.1183C149.492 74.1183 142.61 88.9319 145.019 111.351C145.019 111.351 145.879 87.0584 158.383 74.572L153.622 72.7562L149.492 74.1183Z" fill="#541138"/>
<path d="M276.538 462.132C276.538 462.132 288.217 461.154 287.348 471.987C287.348 471.987 294.771 463.218 287.228 455.634L282.318 454.449L276.538 462.132Z" fill="#541138"/>
<path fill-rule="evenodd" clip-rule="evenodd" d="M259.469 434.663C272.108 434.663 282.354 438.779 282.354 443.857C282.354 448.935 272.108 453.052 259.469 453.052C246.831 453.052 236.584 448.935 236.584 443.857C236.584 438.779 246.831 434.663 259.469 434.663Z" fill="#A96E68"/>
<path fill-rule="evenodd" clip-rule="evenodd" d="M369.745 425.655C380.098 420.765 390.118 420.175 392.124 424.334C394.13 428.494 387.362 435.83 377.01 440.719C366.656 445.609 356.637 446.2 354.631 442.04C352.624 437.88 359.391 430.544 369.745 425.655Z" fill="#A96E68"/>
<path fill-rule="evenodd" clip-rule="evenodd" d="M334.095 447.658C341.79 449.318 348.05 453.392 348.078 456.756C348.106 460.119 341.891 461.5 334.197 459.839C326.503 458.178 320.242 454.104 320.214 450.741C320.186 447.377 326.401 445.997 334.095 447.658Z" fill="#A96E68"/>
<path d="M161.817 457.84C124.865 483.78 108.113 499.684 111.541 520.246C114.575 538.447 118.697 550.315 118.288 568.219L206.581 566.847C208.13 560.104 211.107 553.088 216.188 546.156L222.612 481.225L218.023 463.744C218.023 463.744 174.663 456.252 161.817 457.84Z" fill="#541138"/>
<path fill-rule="evenodd" clip-rule="evenodd" d="M163.566 462.452C156.914 467.134 150.301 471.915 143.916 476.946C138.739 481.025 133.606 485.338 128.989 490.035C123.081 496.044 117.198 503.482 116.108 512.067C115.794 514.541 115.88 517.013 116.29 519.471C117.767 528.33 120.101 536.846 121.954 545.603C123.587 553.316 124.477 560.539 124.512 568.122L201.614 566.924C203.278 559.024 206.572 551.467 211.523 544.43L217.739 481.603L214.146 467.916C205.419 466.454 196.591 465.176 187.829 464.109C182.851 463.502 177.84 462.96 172.835 462.63C169.972 462.442 166.548 462.225 163.566 462.452Z" fill="#FF6666"/>
<path fill-rule="evenodd" clip-rule="evenodd" d="M125.415 497.959C125.415 497.959 141.475 512.489 123.809 540.414L119.909 530.197C119.909 530.197 113.371 510.786 125.415 497.959Z" fill="#FF8978"/>
<path fill-rule="evenodd" clip-rule="evenodd" d="M163.566 462.452C156.914 467.134 150.301 471.915 143.916 476.946C138.739 481.025 133.606 485.338 128.989 490.035C123.081 496.044 117.198 503.482 116.108 512.067C115.794 514.541 115.88 517.013 116.29 519.471C117.767 528.33 120.101 536.846 121.954 545.603C123.587 553.316 124.477 560.539 124.512 568.122L128.861 568.054C128.758 560.826 127.875 553.893 126.313 546.511C120.176 520.504 112.51 509.832 133.347 490.943C137.965 486.246 143.098 481.933 148.275 477.854C154.66 472.823 161.273 468.042 167.925 463.361C170.907 463.133 174.33 463.35 177.194 463.538C182.199 463.868 187.21 464.41 192.188 465.017C199.511 465.909 206.881 466.949 214.199 468.12L214.146 467.916C205.419 466.454 196.591 465.176 187.829 464.109C182.851 463.502 177.84 462.96 172.835 462.63C169.972 462.442 166.548 462.225 163.566 462.452Z" fill="white"/>
<path fill-rule="evenodd" clip-rule="evenodd" d="M201.614 566.924C203.278 559.024 206.572 551.468 211.523 544.43L213.249 526.977C202.58 528.076 192.659 533.45 187.51 545.659C187.51 546.028 183.615 554.304 181.471 567.237L201.614 566.924Z" fill="#C5385D"/>
<path fill-rule="evenodd" clip-rule="evenodd" d="M189.528 567.112C198.29 556.238 206.202 545.012 212.383 535.73L217.739 481.603L214.145 467.917C205.433 466.457 196.62 465.18 187.872 464.114C176.01 472.239 170.466 488.876 163.604 502.162C154.138 529.134 138.879 554.063 129.484 568.045L189.528 567.112Z" fill="#C5385D"/>
<path fill-rule="evenodd" clip-rule="evenodd" d="M163.566 462.452C156.914 467.134 150.301 471.915 143.916 476.946C141.837 478.584 139.765 480.26 137.73 481.983C140.471 487.266 151.166 490.508 187.076 474.818C193.898 471.837 199.616 469.022 204.389 466.365C198.87 465.535 193.337 464.78 187.829 464.109C182.851 463.502 177.84 462.96 172.835 462.63C169.972 462.442 166.548 462.225 163.566 462.452Z" fill="#FFC7A9"/>
<path d="M136.888 480.219C136.888 480.219 141.103 487.001 152.173 486.66L151.943 489.158C151.943 489.158 140.931 491.996 134.163 482.234L136.888 480.219Z" fill="#541138"/>
<path d="M156.172 452.599C162.464 452.599 167.564 457.646 167.564 463.871C167.564 470.097 162.464 475.144 156.172 475.144C149.881 475.144 144.781 470.097 144.781 463.871C144.781 457.646 149.881 452.599 156.172 452.599Z" fill="#541138"/>
<path fill-rule="evenodd" clip-rule="evenodd" d="M156.172 456.811C160.112 456.811 163.307 459.972 163.307 463.871C163.307 467.771 160.112 470.932 156.172 470.932C152.232 470.932 149.038 467.771 149.038 463.871C149.038 459.972 152.232 456.811 156.172 456.811Z" fill="#FFC57B"/>
<path fill-rule="evenodd" clip-rule="evenodd" d="M158.895 458.666C160.796 459.642 162.095 461.607 162.095 463.871C162.095 467.108 159.443 469.732 156.173 469.732C153.766 469.732 151.695 468.311 150.769 466.272C151.584 466.69 152.51 466.927 153.491 466.927C156.762 466.927 159.413 464.303 159.413 461.067C159.413 460.211 159.228 459.399 158.895 458.666Z" fill="#F17C61"/>
<path fill-rule="evenodd" clip-rule="evenodd" d="M154.986 458.239C156.564 458.239 157.277 459.505 156.579 461.066C155.88 462.628 154.035 463.894 152.457 463.894C150.878 463.894 150.165 462.628 150.864 461.066C151.563 459.505 153.409 458.239 154.986 458.239Z" fill="white"/>
<path d="M172.346 454.838C177.198 454.838 181.13 458.73 181.13 463.53C181.13 468.33 177.198 472.222 172.346 472.222C167.496 472.222 163.563 468.33 163.563 463.53C163.563 458.73 167.496 454.838 172.346 454.838Z" fill="#541138"/>
<path fill-rule="evenodd" clip-rule="evenodd" d="M172.346 458.086C175.385 458.086 177.848 460.523 177.848 463.53C177.848 466.536 175.385 468.974 172.346 468.974C169.309 468.974 166.846 466.536 166.846 463.53C166.846 460.523 169.309 458.086 172.346 458.086Z" fill="#FFC57B"/>
<path fill-rule="evenodd" clip-rule="evenodd" d="M174.446 459.516C175.911 460.269 176.912 461.784 176.912 463.53C176.912 466.026 174.868 468.049 172.346 468.049C170.491 468.049 168.894 466.953 168.18 465.381C168.808 465.703 169.522 465.886 170.279 465.886C172.801 465.886 174.845 463.863 174.845 461.367C174.845 460.708 174.702 460.081 174.446 459.516Z" fill="#F17C61"/>
<path fill-rule="evenodd" clip-rule="evenodd" d="M171.432 459.187C172.649 459.187 173.198 460.163 172.66 461.367C172.122 462.571 170.698 463.547 169.482 463.547C168.265 463.547 167.715 462.571 168.254 461.367C168.793 460.163 170.215 459.187 171.432 459.187Z" fill="white"/>
<path d="M187.144 452.682C191.995 452.682 195.928 456.573 195.928 461.373C195.928 466.174 191.995 470.065 187.144 470.065C182.294 470.065 178.361 466.174 178.361 461.373C178.361 456.573 182.294 452.682 187.144 452.682Z" fill="#541138"/>
<path fill-rule="evenodd" clip-rule="evenodd" d="M187.144 455.93C190.182 455.93 192.646 458.367 192.646 461.373C192.646 464.38 190.182 466.817 187.144 466.817C184.107 466.817 181.644 464.38 181.644 461.373C181.644 458.367 184.107 455.93 187.144 455.93Z" fill="#FFC57B"/>
<path fill-rule="evenodd" clip-rule="evenodd" d="M189.243 457.359C190.709 458.112 191.71 459.627 191.71 461.374C191.71 463.869 189.666 465.892 187.144 465.892C185.289 465.892 183.692 464.796 182.978 463.224C183.606 463.546 184.32 463.729 185.077 463.729C187.598 463.729 189.643 461.706 189.643 459.211C189.643 458.551 189.5 457.924 189.243 457.359Z" fill="#F17C61"/>
<path fill-rule="evenodd" clip-rule="evenodd" d="M186.23 457.03C187.447 457.03 187.996 458.006 187.458 459.211C186.92 460.414 185.496 461.391 184.279 461.391C183.063 461.391 182.513 460.414 183.052 459.211C183.59 458.006 185.013 457.03 186.23 457.03Z" fill="white"/>
<path d="M210.48 439.224C214.942 439.224 218.56 442.804 218.56 447.22C218.56 451.636 214.942 455.216 210.48 455.216C206.018 455.216 202.4 451.636 202.4 447.22C202.4 442.804 206.018 439.224 210.48 439.224Z" fill="#541138"/>
<path fill-rule="evenodd" clip-rule="evenodd" d="M210.48 442.212C213.275 442.212 215.541 444.454 215.541 447.22C215.541 449.986 213.275 452.228 210.48 452.228C207.685 452.228 205.419 449.986 205.419 447.22C205.419 444.454 207.685 442.212 210.48 442.212Z" fill="#FFC57B"/>
<path fill-rule="evenodd" clip-rule="evenodd" d="M212.411 443.528C213.759 444.22 214.68 445.613 214.68 447.22C214.68 449.515 212.8 451.377 210.48 451.377C208.773 451.377 207.304 450.369 206.647 448.922C207.225 449.219 207.882 449.387 208.578 449.387C210.898 449.387 212.779 447.526 212.779 445.23C212.779 444.624 212.647 444.047 212.411 443.528Z" fill="#F17C61"/>
<path fill-rule="evenodd" clip-rule="evenodd" d="M209.639 443.225C210.758 443.225 211.264 444.123 210.769 445.23C210.273 446.338 208.964 447.236 207.844 447.236C206.725 447.236 206.22 446.338 206.715 445.23C207.21 444.123 208.52 443.225 209.639 443.225Z" fill="white"/>
<path d="M201.482 448.027C206.333 448.027 210.266 451.919 210.266 456.719C210.266 461.519 206.333 465.411 201.482 465.411C196.632 465.411 192.699 461.519 192.699 456.719C192.699 451.919 196.632 448.027 201.482 448.027Z" fill="#541138"/>
<path fill-rule="evenodd" clip-rule="evenodd" d="M201.482 451.275C204.521 451.275 206.983 453.712 206.983 456.719C206.983 459.725 204.521 462.162 201.482 462.162C198.445 462.162 195.982 459.725 195.982 456.719C195.982 453.712 198.445 451.275 201.482 451.275Z" fill="#FFC57B"/>
<path fill-rule="evenodd" clip-rule="evenodd" d="M203.581 452.705C205.047 453.457 206.049 454.972 206.049 456.719C206.049 459.214 204.004 461.237 201.482 461.237C199.627 461.237 198.03 460.142 197.315 458.57C197.944 458.892 198.658 459.075 199.415 459.075C201.937 459.075 203.981 457.051 203.981 454.556C203.981 453.896 203.838 453.27 203.581 452.705Z" fill="#F17C61"/>
<path fill-rule="evenodd" clip-rule="evenodd" d="M200.568 452.376C201.785 452.376 202.334 453.352 201.796 454.556C201.257 455.76 199.834 456.736 198.618 456.736C197.401 456.736 196.851 455.76 197.39 454.556C197.928 453.352 199.351 452.376 200.568 452.376Z" fill="white"/>
<path d="M201.513 456.653C228.584 459.377 230.879 496.611 217.573 512.049C217.573 512.049 199.17 541.462 176.385 567.316L115.939 568.255C125.217 555.806 144.103 528.569 155.859 498.654C166.455 479.778 174.604 453.946 201.513 456.653Z" fill="#541138"/>
<path fill-rule="evenodd" clip-rule="evenodd" d="M159.908 500.958C149.678 526.864 137.803 546.779 121.899 568.163L169.931 567.416C181.668 554.512 192.511 540.281 201.641 527.628C210.08 515.931 220.203 502.451 220.003 487.343C219.844 475.325 214.303 463.384 200.96 462.042C192.108 461.152 184.919 464.298 179.474 469.304C170.605 477.457 165.597 490.735 159.908 500.958Z" fill="#FFC7A9"/>
<path fill-rule="evenodd" clip-rule="evenodd" d="M145.166 539.749C145.166 539.749 165.362 561.874 128.508 568.06L125.307 568.11L130.369 560.863C130.369 560.863 141.037 542.36 145.166 539.749Z" fill="#FFD6B6"/>
<path fill-rule="evenodd" clip-rule="evenodd" d="M195.871 466.158C203.79 465.702 210.209 468.661 210.209 472.767C210.209 476.873 203.79 480.573 195.871 481.029C187.953 481.486 181.533 478.528 181.533 474.421C181.533 470.315 187.953 466.616 195.871 466.158Z" fill="#FFD6B6"/>
<path fill-rule="evenodd" clip-rule="evenodd" d="M159.908 500.958C149.678 526.864 137.803 546.779 121.899 568.163L127.056 568.082C140.922 548.773 151.614 530.135 160.94 506.52C166.629 496.297 171.637 483.019 180.505 474.866C185.951 469.859 193.14 466.714 201.992 467.604C211.895 468.601 217.499 475.435 219.796 483.806C218.676 473.077 212.989 463.252 200.96 462.042C192.108 461.152 184.919 464.298 179.474 469.304C170.605 477.457 165.597 490.735 159.908 500.958Z" fill="white"/>
<path fill-rule="evenodd" clip-rule="evenodd" d="M122.551 567.283L121.899 568.163L122.794 568.149C122.701 567.856 122.619 567.567 122.551 567.283Z" fill="#DE7C79"/>
<path fill-rule="evenodd" clip-rule="evenodd" d="M159.908 500.958C154.539 514.555 148.716 526.5 142.096 537.875C144.593 539.548 147.577 540.517 150.983 540.537C154.697 548.765 162.634 554.01 175.286 551.061C176.252 553.337 177.617 555.205 179.327 556.61C187.461 546.86 195.004 536.827 201.641 527.628C205.916 521.703 210.623 515.321 214.201 508.501C213 506.955 211.431 505.592 209.448 504.456C203.253 500.904 197.931 500.731 193.392 502.742C191.921 498.946 187.125 494.958 180.953 493.285C178.748 492.687 176.54 492.467 174.358 492.63C172.411 491.023 169.624 489.893 165.811 489.481C163.798 493.447 161.894 497.389 159.908 500.958Z" fill="#DE7C79"/>
<path d="M134.568 463.692C140.574 461.614 149.179 460.494 163.637 462.376C163.637 462.376 167.079 462.036 165.817 457.836C164.554 453.636 148.495 450.344 136.221 450.798C123.947 451.252 106.625 461.809 106.625 461.809C106.625 461.809 60.8541 473.612 51.6777 495.634C51.6777 495.634 54.789 532.154 63.6095 569.068L107.862 568.38L88.1565 506.418C88.1565 506.418 99.5124 508.007 118.325 494.839C118.325 494.839 126.461 494.438 137.944 500.264C140.691 501.658 140.203 501.854 141.726 498.302C143.331 494.556 131.861 482.41 122.34 479.401C122.34 479.401 132.262 476.223 138.801 477.528C138.801 477.528 144.48 480.196 152.394 489.504C152.394 489.504 153.885 490.98 155.721 487.688C157.556 484.396 151.348 473.216 148.551 470.263C146.135 467.712 141.852 465.395 134.568 463.692Z" fill="#541138"/>
<path fill-rule="evenodd" clip-rule="evenodd" d="M136.145 453.97C127.943 454.274 115.726 461.055 108.792 465.284L108.259 465.609L107.653 465.763C104.032 466.685 100.334 467.893 96.8152 469.126C89.2616 471.772 81.6755 474.997 74.7493 478.994C68.0017 482.887 59.922 488.699 56.4634 495.96C57.263 503.915 58.353 511.926 59.5154 519.825C61.9385 536.281 64.9362 552.793 68.8448 568.987L103.45 568.449L81.8397 501.459C97.8502 502.924 103.313 499.823 116.174 490.822C124.276 490.852 131.337 494.236 136.86 497.177C138.172 495.406 138.586 494.561 136.465 492.861C126.031 484.5 122.596 482.215 108.89 477.821C109.985 477.344 115.042 477.616 116.597 477.584C125.362 474.449 130.579 473.431 140.252 474.504C144.07 476.619 147.578 480.727 150.868 483.851C151.481 484.433 153.177 483.667 152.963 482.389C151.463 479.087 147.739 473.719 146.573 472.488C144.28 470.065 134.69 465.659 131.479 465.174L117.357 466.188C118.869 465.648 126.607 463.014 128.227 462.788C137.205 459.383 143.914 458.665 153.538 458.794C160.348 458.885 159.612 457.333 155.699 456.065C150.059 454.238 142.085 453.75 136.145 453.97Z" fill="white"/>
<path fill-rule="evenodd" clip-rule="evenodd" d="M136.145 453.97C134.676 454.024 133.076 454.288 131.402 454.706C132.254 456.207 133.101 459.841 124.993 463.66C126.449 463.211 127.684 462.864 128.227 462.788C137.205 459.383 143.914 458.665 153.538 458.794C160.348 458.885 159.612 457.333 155.699 456.065C150.059 454.238 142.086 453.75 136.145 453.97ZM118.52 490.924C125.642 491.51 131.877 494.524 136.86 497.177C138.172 495.406 138.586 494.561 136.465 492.861C132.29 489.516 129.235 487.143 126.194 485.218C126.39 487.57 124.634 489.8 118.52 490.924ZM139.386 474.412L140.252 474.504C144.071 476.619 147.578 480.727 150.868 483.851C151.481 484.433 153.177 483.667 152.963 482.389C151.464 479.087 147.739 473.719 146.573 472.488C145.813 471.685 144.252 470.664 142.386 469.641C142.844 471.323 142.251 473.05 139.386 474.412Z" fill="#BCAFBC"/>
<path fill-rule="evenodd" clip-rule="evenodd" d="M103.45 568.449L82.1592 502.45C84.546 512.873 92.3514 551.407 83.6204 568.757L103.45 568.449Z" fill="#BCAFBC"/>
<path d="M166.615 477.55C151.405 475.973 139.937 485.064 136.139 496.045C130.4 512.632 138.433 530.542 154.529 528.455C154.683 528.435 174.809 509.011 178.47 493.936C180.324 486.299 178.034 478.734 166.615 477.55Z" fill="#541138"/>
<path fill-rule="evenodd" clip-rule="evenodd" d="M164.576 482.767C152.484 481.513 143.367 488.74 140.348 497.47C135.786 510.657 142.171 524.895 154.967 523.235C155.09 523.22 171.089 507.778 173.999 495.793C175.473 489.722 173.653 483.709 164.576 482.767Z" fill="#FF6666"/>
<path fill-rule="evenodd" clip-rule="evenodd" d="M164.576 482.768C152.484 481.513 143.367 488.741 140.347 497.47C139.315 500.457 138.844 503.498 138.881 506.396C139.101 504.528 139.527 502.635 140.175 500.762C143.195 492.033 152.311 484.805 164.404 486.059C171.188 486.763 173.918 490.299 174.249 494.576C175.196 488.939 173.045 483.646 164.576 482.768Z" fill="white"/>
<path fill-rule="evenodd" clip-rule="evenodd" d="M138.925 507.567C139.498 516.93 145.464 524.468 154.967 523.235C155.021 523.228 158.117 520.266 161.826 515.931C161.281 510.383 159.092 506.808 153.434 510.24C145.198 515.235 141 511.552 138.925 507.567Z" fill="#D0415F"/>
<path d="M226.057 540.823C212.917 558.405 194.227 549.629 191.075 540.519C191.009 540.331 198.216 495.24 214.699 500.414C233.061 506.178 237.326 525.747 226.057 540.823Z" fill="#541138"/>
<path fill-rule="evenodd" clip-rule="evenodd" d="M222.526 537.556C212.086 551.523 197.238 544.552 194.734 537.314C194.682 537.164 200.407 501.342 213.502 505.453C228.09 510.031 231.478 525.578 222.526 537.556Z" fill="#C5385D"/>
<path d="M182.925 536.961C182.925 536.961 197.25 507.88 194.704 492.242C194.024 488.067 188.819 483.25 181.871 481.366C171.178 478.467 160.406 484.412 152.939 500.214C143.741 519.68 152.084 549.579 182.925 536.961Z" fill="#541138"/>
<path fill-rule="evenodd" clip-rule="evenodd" d="M182.139 533.494C182.139 533.494 192.848 507.821 190.685 494.533C189.218 485.529 163.013 477.594 152.544 499.747C144.728 516.287 155.935 544.215 182.139 533.494Z" fill="#FF6666"/>
<path fill-rule="evenodd" clip-rule="evenodd" d="M182.138 533.494C182.138 533.494 192.848 507.821 190.684 494.533C190.599 494.012 190.428 493.495 190.185 492.986C172.827 494.176 163.399 522.753 173.494 535.751C176.163 535.481 179.045 534.759 182.138 533.494Z" fill="#D0415F"/>
<path d="M210.366 492.537C221.998 499.205 219.392 513.645 211.948 527.234C206.664 536.881 198.048 551.789 184.141 546.879C174.552 543.495 171.201 530.243 178.349 511.859C184.281 496.604 194.433 483.404 210.366 492.537Z" fill="#541138"/>
<path fill-rule="evenodd" clip-rule="evenodd" d="M207.599 498.373C219.932 505.443 218.568 527.235 204.145 537.562C181.444 553.816 171.254 528.065 178.302 511.41C183.234 499.764 195.268 491.305 207.599 498.373Z" fill="#FF6666"/>
<path d="M116.421 566.799C116.421 566.799 116.805 567.33 117.516 568.231L111.034 568.331C112.587 567.645 114.371 567.111 116.421 566.799Z" fill="#541138"/>
<path d="M203.677 563.206C203.677 563.206 201.22 564.557 197.85 566.983L203.432 566.896L203.677 563.206Z" fill="#541138"/>
<path d="M195.568 567.018C192.767 564.419 189.8 561.241 187.475 557.729C187.475 557.729 195.431 563.041 201.274 566.93L195.568 567.018Z" fill="#541138"/>
<path fill-rule="evenodd" clip-rule="evenodd" d="M312.533 371.123C320.488 379.207 324.19 379.207 332.714 371.123C324.19 379.207 324.19 382.87 332.714 391.094C324.19 382.87 320.488 382.87 312.533 391.094C320.488 382.87 320.488 379.207 312.533 371.123Z" fill="white"/>
<path fill-rule="evenodd" clip-rule="evenodd" d="M166.659 444.879C170.701 455.43 174.097 456.889 185.169 452.835C174.097 456.889 172.622 460.249 177.129 471.153C172.622 460.249 169.226 458.79 158.619 463.197C169.226 458.79 170.701 455.43 166.659 444.879Z" fill="white"/>
<path fill-rule="evenodd" clip-rule="evenodd" d="M172.991 488.557C176.256 490.883 173.475 497.996 168.479 504.865C163.483 511.734 158.163 515.758 154.897 513.432C151.632 511.107 151.66 503.312 156.656 496.444C161.652 489.574 169.726 486.231 172.991 488.557Z" fill="#FF8978"/>
<path fill-rule="evenodd" clip-rule="evenodd" d="M200.292 497.865C203.557 500.191 200.777 507.304 195.781 514.174C190.784 521.042 185.464 525.066 182.198 522.74C178.933 520.415 178.961 512.621 183.957 505.752C188.953 498.882 197.027 495.54 200.292 497.865Z" fill="#FF8978"/>
<path fill-rule="evenodd" clip-rule="evenodd" d="M179.132 527.268C181.788 550.924 210.902 539.422 213.775 517.279C202.037 534.846 184.863 533.979 179.132 527.268Z" fill="#C5385D"/>
<path d="M169.611 517.278C169.611 517.278 166.973 528.743 173.397 538.506L177.067 537.03C177.067 537.03 170.414 529.197 169.611 517.278Z" fill="#541138"/>
<path fill-rule="evenodd" clip-rule="evenodd" d="M152.63 519.491C152.63 519.491 157.447 533.113 169.091 533.737C169.091 533.737 166.797 526.869 167.714 520.342C167.714 520.342 161.291 528.685 152.63 519.491Z" fill="#D0415F"/>
<path fill-rule="evenodd" clip-rule="evenodd" d="M191.1 466.726C195.429 465.781 199.278 466.528 199.694 468.395C200.11 470.262 196.937 472.542 192.606 473.487C188.276 474.433 184.428 473.686 184.011 471.819C183.595 469.951 186.769 467.672 191.1 466.726Z" fill="white"/>
<path d="M93.1974 501.546C93.1974 501.546 82.1275 502.908 75.2451 499.616C75.2451 499.616 78.9158 504.781 85.7412 506.086C85.7412 506.086 88.8965 504.327 89.6989 504.384C90.5018 504.44 93.1974 501.546 93.1974 501.546Z" fill="#541138"/>
<path d="M85.684 505.178C85.684 505.178 80.0059 508.016 69.9683 507.108C69.9683 507.108 75.5891 510.741 86.4294 509.379L85.9132 506.938L85.684 505.178Z" fill="#541138"/>
</svg>
