<svg width="1326" height="530" viewBox="0 0 1326 530" fill="none" xmlns="http://www.w3.org/2000/svg">
<path fill-rule="evenodd" clip-rule="evenodd" d="M20.5706 8.72995L1305.43 0.353516C1316.46 0.438035 1325.87 9.38298 1325.48 20.403L1299.84 501.527C1299.45 512.546 1290.81 521.28 1279.78 521.575L38.0983 505.263C27.0779 505.554 18.3233 496.234 18.0488 485.21L0.517205 28.7794C0.247394 17.7551 9.54234 8.64579 20.5706 8.72995Z" fill="#F0554D"/>
<mask id="mask0_148_4434" style="mask-type:luminance" maskUnits="userSpaceOnUse" x="0" y="0" width="1326" height="522">
<path d="M20.5706 8.72995L1305.43 0.353516C1316.46 0.438035 1325.87 9.38298 1325.48 20.403L1299.84 501.527C1299.45 512.546 1290.81 521.28 1279.78 521.575L38.0983 505.263C27.0779 505.554 18.3233 496.234 18.0488 485.21L0.517205 28.7794C0.247394 17.7551 9.54234 8.64579 20.5706 8.72995Z" fill="white"/>
</mask>
<g mask="url(#mask0_148_4434)">
<path fill-rule="evenodd" clip-rule="evenodd" d="M563.764 165.327C563.263 166.795 563.088 168.376 563.261 170.026L590.572 430.539C591.025 434.853 593.913 437.957 597.967 439.792L867.764 562.026C871.903 563.503 876.258 562.669 879.563 559.788L1086 379.858C1088.91 377.32 1090.1 373.868 1089.75 370.155C1090.31 368.394 1090.4 366.449 1090.15 364.509L1077.05 266.557C1076.49 262.344 1073.53 258.791 1069.25 257.899L847.877 211.738C844.464 211.027 841.227 211.132 838.242 212.939L798.701 236.887C794.864 239.213 792.833 243.169 793.255 247.51L793.302 247.994C792.817 249.434 792.636 250.989 792.793 252.598L796.703 292.82C797.147 297.385 800.266 300.829 804.728 302.357L952.482 352.999C956.701 354.444 959.712 357.542 960.415 361.821L960.418 361.829C959.637 363.995 958.144 365.943 956.202 367.627L864.347 447.287C861.439 449.81 857.4 450.238 853.803 448.858L694.487 387.744C690.407 386.18 687.659 383.095 686.875 378.914L684.125 364.302L671.623 205.254C671.287 200.962 672.951 197.289 676.353 194.453L806.35 86.1303C809.437 83.5572 813.523 83.4687 817.328 84.7477L1160.47 200.206C1163.89 201.168 1170.11 205.329 1172.16 212.581L1231.66 423.09C1231.81 423.602 1231.92 424.117 1232 424.63C1231.47 426.672 1230.39 428.514 1228.55 429.961L1034.45 582.317H615.401L487.102 532.749C483.276 531.271 480.531 528.241 480.078 524.268L433.173 112.921C433.157 112.765 433.126 112.614 433.105 112.46C433.784 110.445 435.133 108.741 436.989 107.371L603.849 -16.0006H771.019L567.682 155.296C564.731 157.785 563.33 161.192 563.722 164.938L563.764 165.327L563.764 165.327ZM1167.66 -16.001L1188.54 96.5746C1188.64 97.0951 1188.71 97.6033 1188.76 98.0999C1187.3 102.596 1182.93 104.747 1176.89 102.724L822.096 -16.001H1167.66Z" fill="#FE7454"/>
</g>
</svg>
