<svg width="360" height="192" viewBox="0 0 360 192" fill="none" xmlns="http://www.w3.org/2000/svg">
<path d="M178.28 183.769C176.607 184.929 174.78 185.843 172.839 186.478C170.348 187.293 167.716 187.556 165.108 187.358C162.266 187.142 159.483 186.446 156.956 185.104C155.772 184.476 154.66 183.737 153.634 182.893C153.501 182.915 153.367 182.934 153.232 182.95L142.72 184.19C140.849 184.411 139.015 184.049 137.429 183.221C136.385 183.53 135.279 183.653 134.159 183.568L124.257 182.815C119.351 182.442 115.595 178.175 115.848 173.261L116.033 169.67C116.04 169.528 116.051 169.386 116.065 169.244C116.407 165.772 116.743 162.3 117.078 158.827C117.127 158.315 117.177 157.803 117.227 157.291L98.4763 162.711C93.3152 164.202 87.9017 162.16 85.0132 157.63L81.0419 151.403L78.9119 153.224C75.7695 155.911 71.6725 156.785 67.7074 155.615L50.4235 150.517C48.2986 149.89 46.5147 148.783 45.0092 147.157L36.6657 138.147C34.8569 136.194 33.8054 133.872 33.5309 131.224L32.9541 125.66C32.8909 125.049 32.8724 124.443 32.8984 123.846L10.6735 119.478C7.21472 118.799 4.38122 116.781 2.60812 113.735C0.835024 110.689 0.479601 107.229 1.59641 103.886L29.7442 19.623C30.9805 15.9214 33.7657 13.1731 37.4838 11.9859L59.7008 4.89351C61.0527 4.46152 62.3834 4.27985 63.8014 4.33258L94.2864 5.46817C99.8918 5.67694 104.54 9.64499 105.625 15.1485L109.651 35.5736C111.419 32.4077 114.492 30.2377 118.188 29.6378L140.504 26.0179C140.835 25.9637 141.164 25.924 141.489 25.8972L141.383 18.3006C141.307 12.9207 144.714 8.23635 149.855 6.65252L152.657 5.78926C155.34 4.96213 158.076 4.30837 160.843 3.82618C170.336 2.17227 179.921 1.80387 189.497 0.928697C204.275 -0.421443 220.162 2.99182 231.547 12.9409C231.623 13.0073 231.698 13.0735 231.774 13.1406C232.949 11.2848 234.646 9.76275 236.745 8.75682L238.884 7.7314C240.595 6.91113 242.33 6.13745 244.098 5.44685C251.971 2.37238 260.001 0.993695 268.396 0.361246C272.224 0.0726527 276.06 0.2063 279.851 0.827552L305.115 4.96467C306.55 5.19945 307.973 5.50391 309.381 5.86186C315.225 7.34744 320.69 9.92024 325.477 13.5968C330.457 17.4219 334.376 22.3153 337.227 27.8968C344.26 41.6612 343.323 60.5393 335.444 74.2216C336.473 74.5698 337.456 75.0647 338.395 75.7087L351.038 84.3751C352.874 85.6339 354.232 87.2463 355.161 89.2686L358.862 97.3228C359.757 99.2715 360.102 101.271 359.911 103.406L358.482 119.4C358.1 123.677 355.609 127.28 351.743 129.147L341.131 134.274C339.193 135.21 337.192 135.593 335.044 135.438L324.346 134.668C323.983 134.642 323.623 134.6 323.264 134.542L312.601 132.792C309.814 132.335 307.433 131.023 305.559 128.911L300.739 123.477C298.878 123.447 297.061 122.979 295.406 122.099C295.342 122.134 295.278 122.168 295.214 122.201L297.399 146.523C297.694 149.802 296.719 152.871 294.588 155.379C292.455 157.887 289.584 159.343 286.3 159.579L245.606 162.516L244.512 182.982C244.249 187.906 240.087 191.742 235.158 191.604L223.603 191.279C222.141 191.238 220.762 190.869 219.529 190.201C218.864 190.299 218.185 190.324 217.505 190.273L207.186 189.489C205.311 189.347 203.586 188.636 202.193 187.523C201.522 187.74 200.84 187.926 200.149 188.083C197.448 188.696 194.675 188.862 191.915 188.652C190.429 188.539 188.966 188.236 187.54 187.809C186.346 187.451 185.173 187.028 184.021 186.555C182.946 186.113 181.887 185.635 180.846 185.118C179.981 184.688 179.124 184.24 178.28 183.769Z" fill="white"/>
<path fill-rule="evenodd" clip-rule="evenodd" d="M326.738 79.6379C326.9 79.9478 327.063 80.2581 327.225 80.568L331.904 80.6872C333.316 80.723 334.518 81.121 335.673 81.934L348.205 90.7605C349.263 91.506 349.994 92.3964 350.52 93.5793L354.118 101.68C354.625 102.821 354.8 103.914 354.672 105.156L353.041 121.13C352.79 123.594 351.373 125.588 349.129 126.637L338.454 131.628C337.319 132.159 336.224 132.354 334.976 132.249L324.287 131.343C324.07 131.325 323.886 131.301 323.672 131.263L313.032 129.379C311.418 129.094 310.118 128.355 309.046 127.116L302.545 119.598C300.28 120.2 298.052 119.678 296.285 118.133L294.976 116.988C293.808 118.582 291.964 119.647 289.847 119.771L289.403 119.796L291.608 148.399C291.755 150.3 291.195 151.989 289.941 153.426C288.688 154.863 287.091 155.648 285.187 155.761L235.597 158.709C233.733 158.82 232.089 158.257 230.683 157.028C218.657 170.877 185.526 149.08 185.493 149.029C183.916 149.797 182.307 149.939 180.62 149.459L166.884 145.547C166.047 145.309 165.37 144.974 164.672 144.455L162.32 142.705L151.428 145.871C149.103 146.547 146.784 146.025 144.973 144.418L140.037 140.041L132.061 141.916C131.938 144.907 129.955 147.415 127.037 148.219L96.2743 156.689C93.3006 157.508 90.2615 156.317 88.6365 153.696L81.6784 142.474L78.6119 144.87L74.897 147.967C73.0629 149.495 70.7733 149.954 68.4924 149.249L51.275 143.932C50.043 143.552 49.0768 142.935 48.2128 141.978L39.9841 132.863C38.9482 131.715 38.3869 130.433 38.2471 128.894L37.7411 123.324C37.5955 121.725 37.948 120.308 38.8246 118.963L39.3705 118.126L11.4571 112.273C9.46044 111.854 7.90478 110.716 6.90102 108.941C5.89727 107.165 5.72493 105.246 6.3953 103.32L35.6083 19.4198C36.3498 17.2899 37.9181 15.7808 40.0751 15.1224L62.3806 8.31169C63.1756 8.06897 63.8915 7.98011 64.7219 8.02201L95.19 9.54337C98.401 9.70338 101.002 11.9814 101.583 15.1429L105.907 38.6404L113.268 41.4963L114.369 38.4251C115.242 35.9878 117.243 34.3454 119.803 33.9633L142.163 30.6258C142.997 30.5016 143.73 30.5214 144.556 30.6919L147.56 31.311L147.542 17.806C147.538 14.7185 149.494 12.0999 152.455 11.2276L155.267 10.3994C157.752 9.66762 160.283 9.09728 162.841 8.68516C172.21 7.17465 181.672 6.94242 191.112 6.20053C204.475 5.15018 218.97 8.31097 229.155 17.4412C231.831 19.8403 234.065 22.6045 235.814 25.6186C235.855 24.669 235.897 23.7191 235.942 22.7695L236.069 20.0541C236.191 17.4408 237.654 15.2639 240.027 14.1627L242.178 13.1647C243.783 12.4199 245.408 11.7181 247.065 11.0954C254.524 8.29039 262.014 7.1342 269.93 6.63828C273.36 6.42337 276.77 6.58158 280.157 7.18007L305.367 11.6376C306.651 11.8647 307.924 12.1548 309.185 12.4925C314.334 13.8712 319.127 16.1922 323.318 19.4967C327.649 22.9118 331.015 27.248 333.457 32.1804C340.479 46.367 337.924 66.9221 327.458 78.8375C327.221 79.1073 326.981 79.3743 326.738 79.6379Z" fill="#4D0C2E"/>
<path fill-rule="evenodd" clip-rule="evenodd" d="M56.1929 99.5805L44.9316 112.296L12.8623 105.571L42.0749 21.6715L64.38 14.8608L94.8485 16.3822L107.799 86.7639L96.2874 113.038L60.3874 114.037L58.0895 99.7712L56.1929 99.5805Z" fill="#4D0C2E"/>
<path fill-rule="evenodd" clip-rule="evenodd" d="M54.5918 95.4867L43.5097 108V108L18.021 102.655L45.1174 24.8337L64.8685 18.8032L91.5607 20.1357L103.734 86.2925L93.6992 109.196L63.7054 110.03L61.4747 96.1787L54.5918 95.4867Z" fill="#FB9442"/>
<path fill-rule="evenodd" clip-rule="evenodd" d="M47.8612 94.8102L67.0637 74.7842L63.5822 85.3361L43.5093 108L47.8612 94.8102Z" fill="#A3322C"/>
<path fill-rule="evenodd" clip-rule="evenodd" d="M45.1172 24.8337L64.8683 18.8032L91.5608 20.1357L78.4824 26.4999L45.1172 24.8337Z" fill="#FFFF99"/>
<path fill-rule="evenodd" clip-rule="evenodd" d="M78.4824 26.5L91.5609 20.1357L103.733 86.2926L93.6991 109.196L78.4824 26.5Z" fill="#FB9442"/>
<path fill-rule="evenodd" clip-rule="evenodd" d="M78.4824 26.5L91.5609 20.1357L103.733 86.2926L93.6991 109.196L78.4824 26.5Z" fill="#E4632E"/>
<path fill-rule="evenodd" clip-rule="evenodd" d="M58.7152 56.4609L75.7466 44.1045L70.5374 60.378L52.2036 76.8026L58.7152 56.4609Z" fill="#A3322C"/>
<path fill-rule="evenodd" clip-rule="evenodd" d="M52.2036 76.8025L70.5374 60.3779L77.6945 61.0974L61.1497 77.7015L52.2036 76.8025Z" fill="white"/>
<path fill-rule="evenodd" clip-rule="evenodd" d="M93.6992 109.196L63.7054 110.03L61.4747 96.179L47.8613 94.8108L43.5097 108L18.021 102.655L45.1174 24.834L78.4826 26.5002L93.6992 109.196ZM61.15 77.7022L58.7152 56.4608L52.2036 76.8032L61.15 77.7022Z" fill="#FFD456"/>
<path fill-rule="evenodd" clip-rule="evenodd" d="M93.6992 109.196L63.7054 110.03L61.4747 96.179L47.8613 94.8108L43.5097 108L18.021 102.655L45.1174 24.834L78.4826 26.5002L93.6992 109.196ZM61.15 77.7022L58.7152 56.4608L52.2036 76.8032L61.15 77.7022Z" fill="#FFAF55"/>
<path fill-rule="evenodd" clip-rule="evenodd" d="M93.6992 109.196L63.7054 110.03L61.4747 96.1789L47.8613 94.8107L43.5097 108L18.021 102.655L27.7487 74.7168L91.7531 98.6202L93.6992 109.196Z" fill="#FB9442"/>
<path fill-rule="evenodd" clip-rule="evenodd" d="M33.793 57.3576L45.1175 24.834L78.4827 26.5002L33.793 57.3576Z" fill="#FFF171"/>
<path fill-rule="evenodd" clip-rule="evenodd" d="M318.293 78.2772C319.953 81.4448 321.613 84.6118 323.275 87.778C325.434 91.8898 327.593 96.0016 329.751 100.113L332.016 104.428L327.314 105.708C323.23 106.82 319.15 107.953 315.068 109.071C310.984 110.189 306.903 111.313 302.818 112.427L300.793 112.979L289.819 103.381C289.741 105.383 289.662 107.384 289.585 109.386L289.448 112.935L285.903 113.141C282 113.369 278.098 113.601 274.195 113.834C270.294 114.066 266.393 114.29 262.492 114.518L260.419 114.639L241.375 89.774L241.402 88.4054C241.826 66.6345 241.763 44.8459 242.782 23.0901L242.909 20.3747L245.06 19.3767C246.511 18.7035 247.978 18.0681 249.475 17.505C256.324 14.9297 263.094 13.9274 270.358 13.4726C273.256 13.291 276.103 13.4174 278.965 13.9234L304.175 18.3809C305.263 18.5788 306.345 18.8208 307.414 19.1073C311.669 20.2461 315.617 22.1442 319.079 24.8741C322.611 27.6596 325.328 31.1949 327.32 35.2186C333.109 46.9137 330.947 64.4901 322.313 74.3189C321.072 75.7322 319.72 77.0488 318.293 78.2772Z" fill="#4D0C2E"/>
<path fill-rule="evenodd" clip-rule="evenodd" d="M301.788 108.651L286.229 95.0423L286.163 96.7352C286.003 100.902 285.836 105.068 285.675 109.235C281.769 109.463 277.863 109.695 273.963 109.928C270.063 110.16 266.163 110.384 262.263 110.612L245.314 88.4812L246.69 23.2725L246.706 22.9257C248.077 22.29 249.441 21.7053 250.852 21.1671C257.382 18.7189 263.682 17.8113 270.603 17.3778C273.203 17.2149 275.706 17.3251 278.283 17.7762L303.19 22.1799L303.457 22.2272L303.474 22.2304C304.459 22.4089 305.435 22.6274 306.402 22.8864C310.264 23.9205 313.691 25.6087 316.655 27.9463C319.633 30.2944 321.494 33.2284 323.295 36.8678C328.354 47.0867 326.996 63.0575 319.373 71.7359C317.703 73.6376 315.692 75.4739 313.334 77.2427C315.492 81.3635 317.652 85.4848 319.81 89.5966C321.969 93.708 324.128 97.8202 326.286 101.932C322.2 103.044 318.113 104.18 314.034 105.296C309.953 106.413 305.868 107.539 301.788 108.651V108.651Z" fill="#FFC457"/>
<path fill-rule="evenodd" clip-rule="evenodd" d="M301.788 108.651L276.935 86.913L276.829 86.6005L276.724 86.2881L276.62 85.9753L276.514 85.6629L276.409 85.3498L276.303 85.037L276.199 84.7245L276.094 84.4114L275.989 84.0982L275.883 83.7847L275.779 83.4715L275.674 83.1584L275.569 82.8452L275.464 82.5317L275.359 82.2189L275.254 81.905L275.149 81.5923L275.044 81.2784L274.94 80.9652L274.835 80.6517L274.73 80.3382L274.625 80.025L274.52 79.7115L274.415 79.3984L274.311 79.0845L274.206 78.7717L274.101 78.4578L273.997 78.145L273.892 77.8315L273.787 77.5184L273.682 77.2052L273.578 76.8917L273.473 76.5785L273.369 76.2654L273.264 75.9522L273.16 75.6387L273.055 75.3259L272.951 75.0128L272.846 74.6996L272.741 74.3857L272.637 74.0729L272.532 73.7601L272.428 73.4463L272.323 73.1331L272.219 72.8203L272.114 72.5064L272.01 72.1937L271.905 71.8801L271.8 71.567L271.696 71.2535L271.591 70.9396L271.487 70.6264L271.382 70.3129L271.277 69.9994L271.173 69.6862L271.068 69.3724L270.964 69.0592L270.859 68.7453L270.754 68.4315L270.65 68.118L270.545 67.8044L270.441 67.4906L270.336 67.1767L270.231 66.8628L293.41 83.5879L293.541 83.9808L293.671 84.3731L293.802 84.765L293.933 85.1569L294.064 85.5495L294.194 85.9414L294.325 86.3333L294.456 86.7255L294.587 87.1174L294.717 87.509L294.848 87.9009L294.979 88.2931L295.11 88.6843L295.24 89.0762L295.371 89.4684L295.502 89.8596L295.632 90.2519L295.763 90.643L295.894 91.0353L296.025 91.4265L296.155 91.818L296.286 92.2099L296.417 92.6011L296.548 92.9922L296.678 93.3845L296.809 93.7757L296.94 94.1668L297.07 94.5584L297.201 94.9495L297.332 95.3414L297.462 95.733L297.593 96.1241L297.724 96.5164L297.854 96.9076L297.985 97.2987L298.116 97.691L298.247 98.0825L298.378 98.4744L298.509 98.8656L298.64 99.2575L298.771 99.649L298.901 100.041L299.033 100.432L299.164 100.824L299.295 101.217L299.426 101.608L299.557 102L299.688 102.391L299.819 102.783L299.951 103.175L300.082 103.566L300.213 103.958L300.345 104.349L300.475 104.74L300.607 105.133L300.738 105.524L300.869 105.915L301 106.306L301.132 106.697L301.263 107.089L301.395 107.479L301.526 107.87L301.657 108.261L301.788 108.651Z" fill="#FFC457"/>
<path fill-rule="evenodd" clip-rule="evenodd" d="M262.263 110.612L245.314 88.4812L246.706 22.9258L264.004 28.667L262.271 110.185L262.263 110.612Z" fill="#FFC457"/>
<path fill-rule="evenodd" clip-rule="evenodd" d="M262.263 110.612L245.314 88.4813L245.941 58.9834L263.253 63.974L262.271 110.185L262.263 110.612Z" fill="#E76835"/>
<path fill-rule="evenodd" clip-rule="evenodd" d="M264.004 28.6671L246.707 22.926L246.897 22.8378L247.086 22.7497L247.276 22.6626L247.466 22.5767L247.654 22.4914L247.844 22.4069L248.033 22.3231L248.222 22.2404L248.411 22.1584L248.599 22.0768L248.788 21.9962L248.976 21.9172L249.164 21.8384L249.353 21.7604L249.54 21.6831L249.728 21.6069L249.916 21.5318L250.103 21.4573L250.291 21.3833L250.478 21.3107L250.666 21.2388L250.853 21.1673L251.039 21.0972L251.226 21.0279L251.413 20.9596L251.6 20.8917L251.786 20.8249L251.972 20.7591L252.158 20.6938L252.344 20.6302L252.53 20.5663L252.715 20.5045L252.901 20.4431L253.086 20.3824L253.272 20.3221L253.457 20.2618L253.642 20.2033L253.827 20.1455L254.013 20.0881L254.198 20.031L254.384 19.9746L254.569 19.9197L254.754 19.8645L254.94 19.8107L255.125 19.7572L255.311 19.7045L255.496 19.6521L255.682 19.6008L255.867 19.551L256.053 19.5008L256.239 19.4513L256.424 19.4032L256.61 19.3556L256.796 19.3079L256.983 19.2616L257.169 19.2165L257.355 19.1713L257.542 19.1276L257.728 19.084L257.915 19.0413L258.101 18.9994L258.288 18.9579L258.475 18.9174L258.662 18.8777L258.849 18.8391L259.037 18.8001L259.223 18.7625L259.411 18.7249L259.598 18.6881L259.786 18.6523L259.974 18.6169L260.162 18.5815L260.35 18.5465L260.538 18.5125L260.727 18.4797L260.915 18.4464L261.104 18.4139L261.293 18.3825L261.482 18.3514L261.671 18.3207L261.86 18.2897L262.049 18.2608L262.239 18.2312L262.428 18.2026L262.618 18.1748L262.808 18.1474L262.999 18.1203L263.188 18.0932L263.378 18.0675L263.569 18.0419L263.759 18.017L263.949 17.9931L264.139 17.9689L264.33 17.9458L264.521 17.9231L264.712 17.9007L264.905 17.8779L265.098 17.8566L265.291 17.8349L265.485 17.8136L265.679 17.793L265.873 17.7721L266.067 17.7522L266.261 17.7324L266.457 17.7129L266.651 17.6933L266.847 17.6746L267.042 17.6558L267.238 17.6377L267.434 17.6193L267.63 17.602L267.826 17.585L268.023 17.5673L268.22 17.551L268.417 17.5348L268.615 17.5189L268.813 17.5034L269.011 17.4878L269.209 17.473L269.407 17.4586L269.606 17.4441L269.805 17.4304L270.004 17.4163L270.203 17.4033L270.403 17.3903L270.603 17.378L270.803 17.365L271.003 17.3531L271.314 17.3365L271.624 17.3228L271.933 17.3123L272.242 17.3044L272.549 17.2997L272.857 17.2979L273.163 17.2982L273.47 17.3029L273.776 17.3098L274.081 17.3202L274.385 17.3332L274.689 17.3495L274.992 17.3683L275.294 17.391L275.596 17.4159L275.897 17.4438L276.198 17.4748L276.497 17.5084L276.797 17.5463L277.095 17.5861L277.393 17.6294L277.691 17.6753L277.987 17.7244L278.283 17.7764L303.474 22.2307L303.104 22.1653L302.734 22.1035L302.362 22.0464L301.99 21.9923L301.617 21.9424L301.242 21.8955L300.867 21.8532L300.492 21.8142L300.115 21.7795L299.738 21.7485L299.36 21.7203L298.982 21.6968L298.602 21.6762L298.222 21.66L297.84 21.6466L297.458 21.6379L297.075 21.6325L296.692 21.6318L296.307 21.634L295.923 21.6405L295.537 21.6498L295.15 21.6629L294.763 21.6802L294.375 21.7011L294.124 21.7163L293.874 21.7319L293.624 21.7474L293.374 21.764L293.126 21.7802L292.877 21.7976L292.628 21.8149L292.38 21.833L292.132 21.851L291.883 21.8698L291.636 21.8893L291.389 21.9081L291.142 21.9283L290.896 21.9489L290.65 21.9688L290.404 21.9912L290.158 22.0121L289.913 22.0342L289.668 22.0569L289.423 22.0793L289.179 22.1028L288.935 22.1263L288.691 22.1505L288.447 22.175L288.205 22.1999L287.961 22.2249L287.719 22.2505L287.477 22.2765L287.235 22.3033L286.993 22.3307L286.751 22.3571L286.51 22.3852L286.272 22.4138L286.034 22.4416L285.795 22.4705L285.557 22.5012L285.319 22.5312L285.081 22.5622L284.843 22.5944L284.605 22.6265L284.368 22.6601L284.131 22.6937L283.893 22.728L283.656 22.7634L283.419 22.7985L283.182 22.8353L282.945 22.8721L282.71 22.9104L282.473 22.9487L282.237 22.9881L282 23.0271L281.765 23.0679L281.529 23.1094L281.293 23.1506L281.058 23.1929L280.822 23.2369L280.588 23.2806L280.353 23.3254L280.118 23.3699L279.884 23.4161L279.649 23.463L279.416 23.5096L279.182 23.5584L278.948 23.6072L278.714 23.6563L278.481 23.7072L278.247 23.7589L278.014 23.8112L277.781 23.8643L277.547 23.9192L277.314 23.9741L277.082 24.0301L276.849 24.0868L276.616 24.1446L276.384 24.2039L276.151 24.2635L275.919 24.3238L275.687 24.3855L275.455 24.4484L275.223 24.5109L274.99 24.5752L274.759 24.6398L274.527 24.7066L274.295 24.7731L274.063 24.8403L273.831 24.9093L273.6 24.9783L273.368 25.0483L273.137 25.1195L272.905 25.1917L272.673 25.2636L272.442 25.3373L272.21 25.4124L271.978 25.4875L271.747 25.5634L271.515 25.6399L271.283 25.7176L271.05 25.7974L270.818 25.8773L270.585 25.9585L270.353 26.0409L270.12 26.1243L269.886 26.2088L269.653 26.2944L269.42 26.3811L269.186 26.4689L268.952 26.5581L268.718 26.648L268.484 26.7387L268.25 26.8312L268.015 26.9244L267.781 27.0183L267.546 27.1136L267.311 27.2097L267.076 27.308L266.84 27.4062L266.605 27.5048L266.37 27.6059L266.133 27.7078L265.898 27.8104L265.662 27.9133L265.425 28.0184L265.189 28.1239L264.952 28.2304L264.715 28.3377L264.478 28.4464L264.241 28.557L264.004 28.6671Z" fill="#FFE563"/>
<path fill-rule="evenodd" clip-rule="evenodd" d="M287.313 65.5731C260.892 49.7843 265.902 31.8807 296.121 42.7945C301.077 44.5979 302.505 49.9497 302.045 54.75L302.001 55.0956L301.948 55.4362C300.613 62.5626 293.976 65.1538 287.475 65.563L287.313 65.5731Z" fill="#A3322C"/>
<path fill-rule="evenodd" clip-rule="evenodd" d="M287.313 65.5729L273.022 57.0329C275.306 52.1987 277.534 48.3462 277.534 48.3462L301.936 55.5043L301.886 55.7701L301.814 56.0988L301.732 56.4221L301.641 56.7392L301.54 57.0506L301.43 57.3558L301.311 57.6545L301.181 57.9481L301.043 58.2353L300.896 58.5163L300.738 58.7955L300.576 59.0689L300.408 59.3355L300.235 59.597L300.057 59.8516L299.873 60.0994L299.684 60.3421L299.491 60.5787L299.291 60.8084L299.086 61.0324L298.876 61.2505L298.66 61.4625L298.438 61.6695L298.212 61.8707L297.979 62.0654L297.741 62.2546L297.496 62.4396L297.248 62.6194L296.995 62.7932L296.739 62.9622L296.48 63.1248L296.216 63.283L295.949 63.4347L295.678 63.582L295.404 63.7229L295.125 63.8591L294.842 63.9891L294.557 64.1141L294.267 64.234L293.972 64.3481L293.674 64.4569L293.372 64.5609L293.069 64.6587L292.768 64.7512L292.466 64.8379L292.166 64.9195L291.866 64.9954L291.567 65.0665L291.268 65.1323L290.971 65.1926L290.673 65.2471L290.377 65.2973L290.082 65.3429L289.786 65.3819L289.492 65.4165L289.198 65.4461L288.904 65.4711L288.611 65.4906L288.448 65.5011L288.285 65.5104L288.122 65.5213L287.96 65.5314L287.798 65.5415L287.636 65.5527L287.475 65.5628L287.313 65.5729Z" fill="#FFC457"/>
<path fill-rule="evenodd" clip-rule="evenodd" d="M326.512 49.9464C326.512 53.0552 326.267 55.8909 325.766 58.4619C325.285 61.0325 324.519 63.412 323.46 65.6092C322.4 67.7792 321.05 69.8272 319.373 71.7361C317.703 73.6378 315.692 75.4741 313.334 77.2428C315.493 81.3637 317.652 85.4849 319.81 89.5967C321.969 93.7082 324.128 97.8204 326.287 101.932C322.2 103.044 318.113 104.18 314.034 105.296C309.954 106.414 305.868 107.539 301.789 108.651C300.388 104.485 298.987 100.3 297.593 96.1246C296.199 91.9488 294.805 87.7731 293.411 83.5883C291.162 83.7981 288.913 84.008 286.665 84.2175C286.498 88.3932 286.324 92.5596 286.163 96.7353C286.003 100.902 285.836 105.068 285.675 109.235C281.769 109.463 277.863 109.695 273.963 109.928C270.063 110.16 266.163 110.384 262.263 110.612C262.353 106.062 262.437 101.494 262.52 96.9542C262.603 92.414 262.693 87.8731 262.777 83.3513C262.861 78.8292 262.957 74.289 263.047 69.7488C263.137 65.2083 263.24 60.6406 263.355 56.0729C263.413 51.4688 263.484 46.9102 263.561 42.379C263.638 37.8475 263.786 33.2983 264.004 28.6667C266.535 27.4816 269.04 26.4656 271.515 25.6399C273.987 24.8156 276.456 24.1446 278.949 23.6071C281.441 23.096 283.966 22.677 286.51 22.3848C289.08 22.0843 291.702 21.8586 294.374 21.7011C298.519 21.4576 302.534 21.8568 306.402 22.8865C310.263 23.926 313.691 25.6088 316.656 27.9465C319.634 30.2946 322.007 33.3167 323.813 36.9543C325.618 40.6103 326.512 44.95 326.512 49.9464ZM302.123 53.3105C302.123 51.6057 301.904 50.0923 301.493 48.7154C301.063 47.357 300.453 46.1535 299.637 45.1963C298.814 44.2208 297.811 43.4915 296.584 42.9718C295.377 42.461 293.95 42.2569 292.312 42.3516C291.586 42.3935 290.878 42.4841 290.192 42.625C289.504 42.7666 288.836 42.9718 288.187 43.1903C288.039 46.9286 287.885 50.6666 287.744 54.3865C287.603 58.1061 287.455 61.8441 287.313 65.573C287.744 65.5456 288.175 65.5171 288.611 65.4911C290.173 65.3986 291.753 65.0898 293.372 64.561C294.991 64.0141 296.437 63.2481 297.741 62.2544C299.019 61.2517 300.08 60.0298 300.896 58.5164C301.718 57.0395 302.123 55.2888 302.123 53.3105Z" fill="#FB9442"/>
<path fill-rule="evenodd" clip-rule="evenodd" d="M271.979 25.4871C274.296 24.7322 276.612 24.111 278.949 23.6071C281.441 23.096 283.966 22.677 286.51 22.3848C289.08 22.0843 291.702 21.8586 294.374 21.7011C298.519 21.4576 302.534 21.8568 306.402 22.8865C310.263 23.926 313.691 25.6088 316.656 27.9465C319.634 30.2946 322.007 33.3167 323.813 36.9543C324.819 38.991 325.541 41.2402 325.984 43.697L271.979 25.4871Z" fill="#FFAD50"/>
<path fill-rule="evenodd" clip-rule="evenodd" d="M325.98 57.2524C325.914 57.6617 325.843 58.0651 325.766 58.4621C325.285 61.0327 324.519 63.4122 323.46 65.6094C322.4 67.7794 321.05 69.8274 319.373 71.7363C317.703 73.638 315.692 75.4743 313.334 77.243C315.493 81.3639 317.652 85.4851 319.81 89.5969C321.969 93.7084 324.128 97.8206 326.287 101.932C322.2 103.044 318.113 104.18 314.034 105.297C309.954 106.414 305.868 107.539 301.789 108.652C300.388 104.485 298.987 100.301 297.593 96.1248C296.199 91.949 294.805 87.7733 293.411 83.5885C291.162 83.7983 288.913 84.0082 286.665 84.2177C286.498 88.3934 286.324 92.5598 286.163 96.7355C286.003 100.902 285.836 105.069 285.675 109.235C281.769 109.463 277.863 109.696 273.963 109.928C270.063 110.16 266.163 110.384 262.263 110.612C262.353 106.063 262.437 101.495 262.52 96.9544C262.603 92.4142 262.693 87.8733 262.777 83.3515C262.807 81.7363 262.838 80.1185 262.871 78.4989L325.98 57.2524Z" fill="#EE793D"/>
<path fill-rule="evenodd" clip-rule="evenodd" d="M227.803 56.4808C233.567 61.85 236.449 69.5647 235.664 77.6886C235.362 80.8065 234.501 83.2846 232.74 85.8707L232.716 85.9072L219.915 103.835C219.663 104.188 219.417 104.542 219.157 104.889C218.182 106.185 217.041 107.34 215.756 108.33C213.518 110.054 210.98 111.266 208.264 112.025C205.624 112.763 202.924 113.226 200.189 113.398C188.467 114.136 173.486 110.675 163.01 105.403C160.589 104.185 158.263 102.776 156.085 101.163L154.504 99.9912L154.39 17.7963L157.201 16.9685C159.41 16.3183 161.658 15.8119 163.931 15.4457C173.013 13.981 182.471 13.7484 191.649 13.0271C203.102 12.1267 215.83 14.6922 224.584 22.5402C231.246 28.5126 234.369 37.1924 233.234 46.0593L233.224 46.1341C232.619 50.2253 231.009 53.8004 227.803 56.4808Z" fill="#4D0C2E"/>
<path fill-rule="evenodd" clip-rule="evenodd" d="M216.029 102.537C215.255 103.566 214.364 104.462 213.368 105.23C211.593 106.597 209.537 107.616 207.21 108.257C204.883 108.917 202.466 109.337 199.943 109.493C188.967 110.187 174.571 106.841 164.768 101.907C162.531 100.782 160.4 99.49 158.414 98.0181L158.306 20.7217C160.275 20.142 162.351 19.663 164.554 19.308C172.714 17.9925 181.996 17.7252 191.956 16.9274C202.32 16.1277 213.995 18.4021 221.972 25.4537C227.535 30.5397 230.346 37.7975 229.352 45.5624C228.889 48.6986 227.733 51.5167 225.127 53.6145L221.346 56.5177L221.443 56.5741C228.796 60.9756 232.563 68.8788 231.769 77.3116C231.501 79.8533 230.861 81.677 229.506 83.669L216.73 101.561C216.49 101.898 216.278 102.205 216.029 102.537Z" fill="#FFC457"/>
<path fill-rule="evenodd" clip-rule="evenodd" d="M182.006 84.4818L202.07 69.5237L202.231 69.5876L202.39 69.6504L202.548 69.7115L202.704 69.7707L202.859 69.8296L203.013 69.8881L203.165 69.9455L203.316 70.0026L203.467 70.0572L203.617 70.1074L203.766 70.1529L203.916 70.1948L204.064 70.2327L204.212 70.2659L204.359 70.2963L204.505 70.3237L204.616 70.3421L204.728 70.3587L204.841 70.375L204.956 70.3894L205.072 70.4025L205.19 70.414L205.308 70.4237L205.429 70.4328L205.55 70.4404L205.673 70.4461L205.797 70.4498L205.922 70.4527L206.049 70.4534L206.178 70.4527L206.307 70.4501L206.438 70.4465L206.569 70.4404L206.699 70.4303L206.829 70.4169L206.956 70.4006L207.083 70.3808L207.209 70.3577L207.334 70.3306L207.458 70.2999L207.581 70.2659L207.703 70.228L207.824 70.1865L207.944 70.1409L208.064 70.0922L208.181 70.0391L208.299 69.982L208.414 69.921L208.64 69.7927L208.857 69.6483L209.064 69.4868L190.749 84.4355L190.49 84.6374L190.219 84.818L189.936 84.9787L189.791 85.0546L189.646 85.1258L189.498 85.1922L189.349 85.2533L189.199 85.3107L189.048 85.3623L188.895 85.4096L188.742 85.4519L188.586 85.4906L188.43 85.5242L188.273 85.5531L188.114 85.5783L187.954 85.5986L187.792 85.6152L187.63 85.6275L187.466 85.635L187.303 85.6401L187.141 85.643L186.98 85.6441L186.822 85.643L186.665 85.639L186.509 85.6347L186.356 85.6275L186.204 85.6181L186.054 85.6072L185.905 85.5946L185.758 85.5805L185.614 85.5639L185.47 85.5462L185.328 85.5256L185.188 85.5046L185.05 85.4819L184.868 85.4476L184.684 85.4096L184.499 85.3674L184.313 85.3205L184.126 85.2684L183.939 85.211L183.752 85.1485L183.564 85.0802L183.375 85.0091L183.185 84.9372L182.992 84.8643L182.798 84.7906L182.603 84.7165L182.406 84.64L182.207 84.5616L182.006 84.4818Z" fill="white"/>
<path fill-rule="evenodd" clip-rule="evenodd" d="M204.149 67.1914L219.785 55.6914C225.346 58.4253 229.083 62.735 230.902 68.6102L230.958 68.7951C232.375 73.6286 232.449 79.0859 229.702 83.3801L229.506 83.6694L216.301 102.164C224.137 90.6527 215.403 73.1334 204.992 67.6144L204.573 67.3998L204.149 67.1914Z" fill="#E76835"/>
<path fill-rule="evenodd" clip-rule="evenodd" d="M204.149 67.1914L212.302 61.1956C216.046 59.5009 219.989 57.726 221.904 56.8652C224.656 58.5748 226.868 60.747 228.525 63.3808C219.336 65.6159 214.914 72.3247 213.404 75.1951C211.003 71.9292 208.072 69.2466 204.992 67.6143L204.573 67.3998L204.149 67.1914Z" fill="#C83E35"/>
<path fill-rule="evenodd" clip-rule="evenodd" d="M182.543 45.6803L202.5 38.4824L202.243 49.1044L182.222 58.9577L182.543 45.6803Z" fill="#A3322C"/>
<path fill-rule="evenodd" clip-rule="evenodd" d="M182.222 58.958L202.243 49.1046L202.365 49.1256L202.492 49.1454L202.622 49.1635L202.755 49.1819L202.892 49.1985L203.033 49.2141L203.177 49.2292L203.325 49.2437L203.477 49.2571L203.632 49.2693L203.79 49.2805L203.952 49.2914L204.117 49.3008L204.286 49.3094L204.458 49.3166L204.634 49.3239L204.813 49.3282L204.992 49.3297L205.169 49.3271L205.345 49.3213L205.52 49.312L205.695 49.2982L205.868 49.2812L206.041 49.2607L206.212 49.2365L206.382 49.2094L206.552 49.1772L206.72 49.1422L206.888 49.1036L207.054 49.0613L207.219 49.015L207.383 48.9659L207.548 48.9089L207.709 48.8475L207.868 48.7806L208.022 48.7077L208.174 48.6304L189.636 58.3649L189.447 58.4621L189.253 58.5527L189.056 58.6362L188.854 58.7131L188.648 58.7842L188.443 58.846L188.236 58.9038L188.028 58.9562L187.819 59.0049L187.608 59.0486L187.397 59.0887L187.184 59.123L186.97 59.1527L186.754 59.1787L186.537 59.2L186.319 59.217L186.1 59.2289L185.88 59.2357L185.658 59.239L185.435 59.2375L185.211 59.2318L184.991 59.2234L184.776 59.2141L184.565 59.2029L184.358 59.1913L184.156 59.1779L183.958 59.1639L183.764 59.1483L183.575 59.1317L183.39 59.1137L183.21 59.0949L183.034 59.0754L182.862 59.0544L182.695 59.0313L182.533 59.0089L182.375 58.984L182.222 58.958Z" fill="white"/>
<path fill-rule="evenodd" clip-rule="evenodd" d="M182.222 70.8377L202.243 58.6084L202.07 69.524L182.006 84.4821L182.222 70.8377Z" fill="#A3322C"/>
<path fill-rule="evenodd" clip-rule="evenodd" d="M166.742 19.0388L170.993 18.3648L191.956 16.9276L192.125 16.9146C197.681 16.5057 203.398 16.9868 208.764 18.5024L208.953 18.5562L209.142 18.6111C215.713 20.5565 221.685 23.9589 225.642 29.6401L225.755 29.8088L225.866 29.9775L225.977 30.1472L226.085 30.3188L226.192 30.4915L226.298 30.6648C230.069 37.0413 231.62 48.3879 225.127 53.6147L210.828 64.5957C224.792 49.3298 202.845 22.6944 184.978 19.4567C179.977 18.584 173.387 19.0702 168.325 19.4429L166.742 19.0388Z" fill="#FB9442"/>
<path fill-rule="evenodd" clip-rule="evenodd" d="M216.722 21.7393L216.83 21.7999L217.003 21.8982C222.146 24.8798 225.966 28.7565 228.077 34.3933L228.123 34.5197C218.035 33.2584 216.155 43.7522 215.89 45.7434L215.867 45.6036C214.685 38.8298 211.382 33.223 206.136 28.7442L205.946 28.5871L205.755 28.4314L205.563 28.2765L205.491 28.2191C215.149 28.1739 216.636 24.0234 216.722 21.7393Z" fill="#E76835"/>
<path fill-rule="evenodd" clip-rule="evenodd" d="M219.257 91.547C219.257 94.8652 218.72 97.6392 217.646 99.849C216.59 102.062 215.158 103.861 213.368 105.23C211.596 106.602 209.537 107.616 207.21 108.256C204.883 108.917 202.466 109.337 199.943 109.493C197.437 109.651 194.913 109.623 192.371 109.386C189.847 109.132 187.466 108.82 185.264 108.438C183.098 108.062 180.861 107.591 178.534 107.002C176.207 106.414 173.879 105.703 171.57 104.871C169.279 104.022 167.006 103.034 164.768 101.907C162.531 100.782 160.4 99.4896 158.414 98.0181L158.306 20.7217C160.275 20.142 162.352 19.6634 164.554 19.3084C166.755 18.9533 168.993 18.7276 171.284 18.6134C173.575 18.5199 175.867 18.5293 178.14 18.6781C180.413 18.8067 182.615 19.0458 184.745 19.416C187.233 19.8484 189.739 20.4681 192.263 21.2751C194.805 22.0646 197.239 23.102 199.585 24.3495C201.93 25.5964 204.113 27.0614 206.136 28.7442C208.159 30.4472 209.949 32.3969 211.47 34.6273C212.992 36.858 214.173 39.3365 215.033 42.087C215.892 44.8375 216.322 47.9228 216.322 51.3227C216.322 53.5552 216.035 55.5949 215.48 57.4648C214.907 59.3314 214.102 60.9528 213.064 62.3294C212.008 63.7022 210.737 64.8125 209.233 65.6577C207.729 66.5022 206.029 67.0057 204.149 67.1914C206.423 68.2825 208.499 69.6471 210.361 71.2812C212.24 72.9184 213.815 74.81 215.14 76.9042C216.447 79.0157 217.467 81.323 218.183 83.8026C218.899 86.2826 219.257 88.8637 219.257 91.547ZM192.603 52.7122C192.603 51.5448 192.406 50.5274 191.977 49.6334C191.565 48.7427 191.046 47.9766 190.438 47.359C189.829 46.7413 189.149 46.2339 188.433 45.8636C187.717 45.514 187.09 45.2821 186.517 45.1828C185.819 45.0614 185.139 45.0661 184.476 45.1763C183.814 45.307 183.17 45.4818 182.543 45.6801L182.221 58.958C183.027 59.0978 184.029 59.1899 185.21 59.2314C186.41 59.2758 187.556 59.127 188.647 58.7839C189.757 58.4238 190.688 57.7866 191.458 56.8551C192.228 55.9445 192.603 54.5554 192.603 52.7122ZM185.157 70.9785C184.155 70.8044 183.17 70.7563 182.221 70.8373L182.007 84.482C182.543 84.698 183.063 84.8905 183.564 85.0802C184.065 85.2694 184.566 85.3977 185.05 85.4815C185.783 85.609 186.589 85.6671 187.466 85.635C188.343 85.6032 189.167 85.398 189.936 84.9787C190.706 84.5796 191.35 83.9543 191.852 83.12C192.353 82.2853 192.603 81.1204 192.603 79.6045C192.603 78.0687 192.353 76.7962 191.852 75.7466C191.35 74.6966 190.724 73.8297 189.99 73.1698C189.256 72.5099 188.451 72.0014 187.573 71.6648C186.696 71.3483 185.891 71.106 185.157 70.9785Z" fill="#FFC457"/>
<path fill-rule="evenodd" clip-rule="evenodd" d="M219.257 91.547C219.257 94.8652 218.72 97.6392 217.646 99.849C216.59 102.062 215.158 103.861 213.368 105.23C211.596 106.602 209.537 107.616 207.21 108.256C204.883 108.917 202.466 109.337 199.943 109.493C197.437 109.651 194.913 109.623 192.371 109.386C189.847 109.132 187.466 108.82 185.264 108.438C183.098 108.062 180.861 107.591 178.534 107.002C176.207 106.414 173.879 105.703 171.57 104.871C169.279 104.022 167.006 103.034 164.768 101.907C162.531 100.782 160.4 99.4896 158.414 98.0181L158.306 20.7217C160.275 20.142 162.352 19.6634 164.554 19.3084C166.755 18.9533 168.993 18.7276 171.284 18.6134C173.575 18.5199 175.867 18.5293 178.14 18.6781C180.413 18.8067 182.615 19.0458 184.745 19.416C187.233 19.8484 189.739 20.4681 192.263 21.2751C194.805 22.0646 197.239 23.102 199.585 24.3495C201.93 25.5964 204.113 27.0614 206.136 28.7442C208.159 30.4472 209.949 32.3969 211.47 34.6273C212.992 36.858 214.173 39.3365 215.033 42.087C215.892 44.8375 216.322 47.9228 216.322 51.3227C216.322 53.5552 216.035 55.5949 215.48 57.4648C214.907 59.3314 214.102 60.9528 213.064 62.3294C212.008 63.7022 210.737 64.8125 209.233 65.6577C207.729 66.5022 206.029 67.0057 204.149 67.1914C206.423 68.2825 208.499 69.6471 210.361 71.2812C212.24 72.9184 213.815 74.81 215.14 76.9042C216.447 79.0157 217.467 81.323 218.183 83.8026C218.899 86.2826 219.257 88.8637 219.257 91.547ZM192.603 52.7122C192.603 51.5448 192.406 50.5274 191.977 49.6334C191.565 48.7427 191.046 47.9766 190.438 47.359C189.829 46.7413 189.149 46.2339 188.433 45.8636C187.717 45.514 187.09 45.2821 186.517 45.1828C185.819 45.0614 185.139 45.0661 184.476 45.1763C183.814 45.307 183.17 45.4818 182.543 45.6801L182.221 58.958C183.027 59.0978 184.029 59.1899 185.21 59.2314C186.41 59.2758 187.556 59.127 188.647 58.7839C189.757 58.4238 190.688 57.7866 191.458 56.8551C192.228 55.9445 192.603 54.5554 192.603 52.7122ZM185.157 70.9785C184.155 70.8044 183.17 70.7563 182.221 70.8373L182.007 84.482C182.543 84.698 183.063 84.8905 183.564 85.0802C184.065 85.2694 184.566 85.3977 185.05 85.4815C185.783 85.609 186.589 85.6671 187.466 85.635C188.343 85.6032 189.167 85.398 189.936 84.9787C190.706 84.5796 191.35 83.9543 191.852 83.12C192.353 82.2853 192.603 81.1204 192.603 79.6045C192.603 78.0687 192.353 76.7962 191.852 75.7466C191.35 74.6966 190.724 73.8297 189.99 73.1698C189.256 72.5099 188.451 72.0014 187.573 71.6648C186.696 71.3483 185.891 71.106 185.157 70.9785Z" fill="#FFEC71"/>
<path fill-rule="evenodd" clip-rule="evenodd" d="M158.336 41.8874L158.306 20.7218C160.275 20.1421 162.351 19.6632 164.554 19.3081C166.755 18.9534 168.993 18.7277 171.284 18.6135C173.575 18.52 175.867 18.529 178.14 18.6782C180.413 18.8068 182.615 19.0463 184.745 19.4161C186.477 19.717 188.217 20.1085 189.965 20.5907C194.742 22.6409 197.988 24.1564 197.988 24.1564L158.336 41.8874Z" fill="white"/>
<path fill-rule="evenodd" clip-rule="evenodd" d="M158.309 22.8189L158.306 20.7218C160.275 20.1421 162.351 19.6632 164.554 19.3081C166.755 18.9534 168.993 18.7277 171.284 18.6135C173.575 18.52 175.867 18.529 178.14 18.6782C180.413 18.8068 182.615 19.0463 184.745 19.4161C187.233 19.8481 189.739 20.4683 192.263 21.2752C194.805 22.0647 197.24 23.1021 199.585 24.3496C201.93 25.5965 204.113 27.0615 206.136 28.7443C208.159 30.4473 209.949 32.397 211.47 34.6274C212.992 36.8581 214.173 39.337 215.033 42.0871C215.852 44.709 216.28 47.6358 216.319 50.8489L216.318 50.8471C213.498 36.7447 203.795 29.5989 194.798 25.5828C177.033 17.6531 156.479 23.4654 158.309 22.8189Z" fill="white"/>
<path fill-rule="evenodd" clip-rule="evenodd" d="M150.498 134.935L140.402 125.98L139.49 129.116L129.938 131.361L121.18 122.473L121.287 138.641L96.2393 145.538L80.0564 119.439L79.9961 52.9765L102.686 48.9325L119.671 55.5222L123.708 44.2601L144.79 43.7866L173.016 49.7654L175.233 127.746L162.865 131.341L150.498 134.935Z" fill="#A3322C"/>
<path fill-rule="evenodd" clip-rule="evenodd" d="M255.823 97.4164L240.497 88.6737L240.684 88.6676L240.872 88.6614L241.059 88.6549L241.247 88.6491L241.434 88.643L241.621 88.6368L241.809 88.6311L241.996 88.6249L242.184 88.6184L242.371 88.6123L242.559 88.6065L242.746 88.6004L242.934 88.5942L243.121 88.5885L243.309 88.5823L243.496 88.5762L243.684 88.5697L243.871 88.5642L244.059 88.5577L244.246 88.5523L244.434 88.5458L244.621 88.5397L244.809 88.5336L244.996 88.5278L245.184 88.5216L245.371 88.5155L245.558 88.5097L245.746 88.5036L245.933 88.4971L246.121 88.4906L246.308 88.4851L246.495 88.4786L246.682 88.4725L246.869 88.4671L247.056 88.4609L247.243 88.4548L247.43 88.4483L247.618 88.4429L247.805 88.4364L247.992 88.4299L248.179 88.4245L248.366 88.418L248.553 88.4118L248.741 88.4057L248.928 88.3995L249.116 88.393L249.303 88.3869L249.49 88.3808L249.678 88.3746L249.865 88.3681L250.052 88.362L250.239 88.3555L250.426 88.3493L250.614 88.3428L250.801 88.3367L250.988 88.3306L251.175 88.3244L251.362 88.3176L251.55 88.3114L251.737 88.3046L251.924 88.298L252.111 88.2912L252.298 88.285L252.485 88.2778L270.808 96.9219L270.574 96.9302L270.34 96.9382L270.107 96.9468L269.873 96.9548L269.639 96.9631L269.404 96.971L269.171 96.9797L268.937 96.9876L268.703 96.9956L268.469 97.0032L268.235 97.0111L268.001 97.0187L267.767 97.0266L267.532 97.0346L267.298 97.0422L267.064 97.0501L266.83 97.0577L266.596 97.0656L266.362 97.0736L266.128 97.0815L265.894 97.0895L265.659 97.0971L265.425 97.105L265.191 97.1119L264.957 97.1198L264.723 97.1274L264.489 97.1346L264.256 97.1426L264.022 97.1502L263.788 97.1581L263.554 97.1653L263.32 97.1729L263.086 97.1809L262.852 97.1881L262.618 97.1957L262.384 97.2036L262.149 97.2116L261.915 97.2184L261.681 97.2264L261.447 97.2343L261.213 97.2408L260.978 97.2488L260.744 97.2567L260.509 97.2647L260.275 97.2715L260.04 97.2795L259.806 97.2867L259.571 97.2943L259.338 97.3022L259.102 97.3098L258.869 97.3171L258.634 97.325L258.4 97.3326L258.165 97.3394L257.932 97.3474L257.696 97.3553L257.463 97.3633L257.228 97.3701L256.994 97.3781L256.76 97.3857L256.525 97.3929L256.291 97.4008L256.057 97.4084L255.823 97.4164Z" fill="#FA7B34"/>
<path fill-rule="evenodd" clip-rule="evenodd" d="M257.142 90.4751L270.807 96.9217L271.675 113.646L267.293 113.962L278.765 121.81L280.575 145.281L231.689 148.496L221.19 129.537L221.325 66.6187L254.659 66.7685L274.934 68.7212L274.835 80.6517L273.186 86.4568L265.685 87.8492L257.142 90.4751Z" fill="#A3322C"/>
<path fill-rule="evenodd" clip-rule="evenodd" d="M230.392 71.2278L221.326 66.6186L255.787 65.7178L274.935 68.7214L247.087 71.1498L230.392 71.2278Z" fill="#FFFF99"/>
<path fill-rule="evenodd" clip-rule="evenodd" d="M212.097 111.354L208.042 113.565L203.434 120.631L203.679 123.335L207.673 127.759L216.029 130.34L217.873 128.804L223.219 124.626L224.263 120.324L220.392 112.029L212.097 111.354Z" fill="#FFE563"/>
<path fill-rule="evenodd" clip-rule="evenodd" d="M203.434 120.631L205.984 121.799L203.679 123.335L203.434 120.631Z" fill="#FFC457"/>
<path fill-rule="evenodd" clip-rule="evenodd" d="M205.984 121.799L210.53 121.461L215.722 114.579L217.035 111.756L212.097 111.354L208.042 113.565L203.434 120.631L205.984 121.799Z" fill="#FFE563"/>
<path fill-rule="evenodd" clip-rule="evenodd" d="M210.53 121.461L214.309 123.612L217.873 128.804L216.029 130.34L207.673 127.759L203.679 123.335L205.984 121.799L210.53 121.461Z" fill="#E76835"/>
<path fill-rule="evenodd" clip-rule="evenodd" d="M215.722 114.579L214.309 123.611L210.53 121.461L215.722 114.579Z" fill="#FFC457"/>
<path fill-rule="evenodd" clip-rule="evenodd" d="M217.035 111.756L215.722 114.579L214.309 123.612L217.873 128.803L223.219 124.626L224.263 120.324L220.392 112.029L217.035 111.756Z" fill="#FA7B34"/>
<path fill-rule="evenodd" clip-rule="evenodd" d="M217.036 111.756L212.097 111.354L208.042 113.565L203.434 120.631L208.914 115.092L217.036 111.756Z" fill="white"/>
<path fill-rule="evenodd" clip-rule="evenodd" d="M231.689 148.496L221.19 129.537L221.325 66.6187L231.858 69.8477L233.854 105.808L231.689 148.496Z" fill="#FFD456"/>
<path fill-rule="evenodd" clip-rule="evenodd" d="M256.055 122.677L240.683 108.882L240.85 108.876C246.847 108.679 252.856 108.428 258.851 108.188L278.766 121.81C271.339 122.106 263.9 122.411 256.471 122.663L256.264 122.67L256.055 122.677Z" fill="#A3322C"/>
<path fill-rule="evenodd" clip-rule="evenodd" d="M221.264 92.0546L221.325 66.6187L231.858 69.8477L232.335 97.5397L221.264 92.0546Z" fill="#FFEC71"/>
<path fill-rule="evenodd" clip-rule="evenodd" d="M274.935 68.7212L275.867 80.3281L273.632 86.2618L265.772 89.704L255.775 90.5965L255.823 97.4162L270.808 96.9217L271.676 113.646L255.976 114.756L256.056 122.677L278.766 121.81L280.576 145.281L231.689 148.496L231.779 109.184L231.858 69.847L274.935 68.7212Z" fill="#FFB04E"/>
<path fill-rule="evenodd" clip-rule="evenodd" d="M274.002 145.713L235.155 148.268L231.715 137.041V137.037L231.803 97.2759L274.002 145.713Z" fill="#FB9442"/>
<path fill-rule="evenodd" clip-rule="evenodd" d="M150.497 134.936L125.835 110.051C125.854 98.4861 123.508 87.828 123.535 76.2637L150.588 91.5692C150.557 105.799 150.514 120.029 150.499 134.259L150.497 134.936Z" fill="#A3322C"/>
<path fill-rule="evenodd" clip-rule="evenodd" d="M151.667 56.0511L123.708 44.2599L143.064 41.3711L175 47.9531L151.667 56.0511Z" fill="#FFFF99"/>
<path fill-rule="evenodd" clip-rule="evenodd" d="M136.024 93.6137L111.884 77.8993L123.708 44.2603L150.804 51.5654C145.767 65.5515 140.847 79.5499 136.024 93.6137Z" fill="#FFD456"/>
<path fill-rule="evenodd" clip-rule="evenodd" d="M96.1642 62.4604L85.8337 58.4298L79.9961 52.9765L102.686 48.9326L124.526 57.4058L96.1642 62.4604Z" fill="#FFFF99"/>
<path fill-rule="evenodd" clip-rule="evenodd" d="M96.2393 145.538L80.0561 119.439L79.9961 52.9766L96.1642 62.4604L96.2375 144.241L96.2393 145.538Z" fill="#FFF171"/>
<path fill-rule="evenodd" clip-rule="evenodd" d="M175 47.9531L175.233 127.746C171.104 128.945 166.985 130.144 162.865 131.341C158.738 132.54 154.617 133.737 150.498 134.936C150.509 127.716 150.528 120.476 150.539 113.257C150.55 106.038 150.57 98.7983 150.589 91.569C148.722 97.7609 146.86 103.993 145.016 110.226C143.163 116.488 141.328 122.792 139.49 129.116C136.306 129.861 133.113 130.616 129.938 131.361C128.455 126.346 126.98 121.302 125.506 116.258C124.023 111.183 122.538 106.078 121.054 100.963C121.082 107.246 121.122 113.529 121.162 119.802C121.203 126.085 121.251 132.368 121.287 138.641C117.106 139.799 112.928 140.962 108.755 142.105C104.584 143.247 100.411 144.4 96.2396 145.538C96.2183 131.693 96.2056 117.828 96.1926 103.984C96.1807 90.1491 96.168 76.3042 96.1641 62.4597C100.888 61.6239 105.622 60.7823 110.337 59.9426C115.061 59.101 119.793 58.2511 124.526 57.4052C126.443 63.5267 128.375 69.5994 130.294 75.6599C132.199 81.6719 134.118 87.662 136.025 93.613C138.461 86.504 140.909 79.4304 143.369 72.4077C145.818 65.415 148.314 58.4823 150.804 51.5651L175 47.9531Z" fill="#FB9442"/>
<path fill-rule="evenodd" clip-rule="evenodd" d="M175.233 127.746C171.104 128.945 166.985 130.144 162.865 131.341C158.738 132.54 154.617 133.737 150.498 134.936C150.508 127.716 150.528 120.477 150.539 113.257C150.543 110.666 150.548 108.071 150.554 105.476L175.122 89.9673L175.233 127.746ZM145.625 108.168L145.016 110.226C143.163 116.488 141.328 122.793 139.49 129.116C136.306 129.861 133.113 130.616 129.938 131.361C128.7 127.175 127.468 122.969 126.237 118.758L145.625 108.168ZM121.173 121.524C121.211 127.233 121.254 132.941 121.287 138.641C117.106 139.799 112.928 140.962 108.755 142.105C104.584 143.247 100.411 144.4 96.2396 145.538L96.2251 135.151L121.173 121.524Z" fill="#EE793D"/>
<path fill-rule="evenodd" clip-rule="evenodd" d="M87.353 57.2915L109.452 60.0998L96.1704 75.4386L87.353 57.2915Z" fill="white"/>
<path fill-rule="evenodd" clip-rule="evenodd" d="M79.9961 52.9765L102.686 48.9326L124.526 57.4058L102.11 51.4866L79.9961 52.9765Z" fill="white"/>
<path fill-rule="evenodd" clip-rule="evenodd" d="M150.804 51.5651L123.708 44.2599L143.065 41.3711L133.638 44.5622L150.804 51.5651Z" fill="white"/>
<path fill-rule="evenodd" clip-rule="evenodd" d="M146.487 63.5942L148.626 75.9445L140.386 80.9648L140.43 74.8227L146.487 63.5942Z" fill="#EE793D"/>
<path fill-rule="evenodd" clip-rule="evenodd" d="M148.626 75.9446L138.427 86.628L140.43 74.8228L148.626 75.9446Z" fill="#FFE072"/>
<path fill-rule="evenodd" clip-rule="evenodd" d="M143.493 115.397L139.49 129.116L142.973 128.261L143.493 115.397Z" fill="#5F1730"/>
<path fill-rule="evenodd" clip-rule="evenodd" d="M120.815 52.3145L124.526 57.4055L119.671 55.5222L118.62 53.2853L120.815 52.3145Z" fill="#5F1730"/>
<path fill-rule="evenodd" clip-rule="evenodd" d="M224.728 54.0039L213.707 62.4157L225.849 57.0018L224.728 54.0039Z" fill="#5F1730"/>
<path fill-rule="evenodd" clip-rule="evenodd" d="M178.982 110.588L169.111 119.123L164.438 131.454L171.014 136.226L182.081 139.301L195.137 133.1L194.652 122.539L178.982 110.588Z" fill="#FFE563"/>
<path fill-rule="evenodd" clip-rule="evenodd" d="M178.982 110.588L175.068 123.575L177.89 125.196L194.652 122.539L178.982 110.588Z" fill="#FFC457"/>
<path fill-rule="evenodd" clip-rule="evenodd" d="M175.068 123.575L168.316 130.535L164.438 131.454L169.111 119.123L178.982 110.588L175.068 123.575Z" fill="#FFE563"/>
<path fill-rule="evenodd" clip-rule="evenodd" d="M168.316 130.536L176.847 132.347L177.89 125.196L175.068 123.575L168.316 130.536Z" fill="#FFA147"/>
<path fill-rule="evenodd" clip-rule="evenodd" d="M164.438 131.454L168.316 130.536L176.847 132.347L182.641 136.609L182.081 139.301L171.014 136.227L164.438 131.454Z" fill="#E45F30"/>
<path fill-rule="evenodd" clip-rule="evenodd" d="M176.847 132.347L182.641 136.609L195.137 133.1L194.652 122.54L177.89 125.196L176.847 132.347Z" fill="#FA7B34"/>
<path fill-rule="evenodd" clip-rule="evenodd" d="M182.641 136.609L182.081 139.301L195.136 133.1L182.641 136.609Z" fill="#CE4230"/>
<path fill-rule="evenodd" clip-rule="evenodd" d="M226.221 138.622L231.204 139.327L237.585 148.108L245.914 148.644L232.663 149.663L226.126 143.947L226.221 138.622Z" fill="#5F1730"/>
<path fill-rule="evenodd" clip-rule="evenodd" d="M226.221 138.622L231.715 137.041L237.585 148.108L226.221 138.622Z" fill="#FA7B34"/>
<path fill-rule="evenodd" clip-rule="evenodd" d="M275.867 80.3281L265.771 89.704L275.25 87.1027L275.867 80.3281Z" fill="#E76835"/>
<path fill-rule="evenodd" clip-rule="evenodd" d="M309.422 23.8625C309.422 23.8625 299.388 20.1773 279.884 23.4161C279.884 23.4161 288.268 18.5194 300.044 19.4253L306.299 20.7194L309.422 23.8625Z" fill="#4D0C2E"/>
<path fill-rule="evenodd" clip-rule="evenodd" d="M68.7368 26.0128L80.1494 35.5567L82.9472 24.3271L68.7368 26.0128Z" fill="white"/>
<path fill-rule="evenodd" clip-rule="evenodd" d="M312.915 97.0436L320.561 90.6631L330.573 90.9177L329.972 93.8506L318.303 101.198L311.812 101.68L312.915 97.0436Z" fill="#FFFF66"/>
<path fill-rule="evenodd" clip-rule="evenodd" d="M312.915 97.0436L320.561 90.6631L330.574 90.9177L341.584 98.6726L344.416 105.048L343.073 118.202L335.072 121.943L325.32 121.117L315.942 119.457L309.572 112.09L311.813 101.68L312.915 97.0436Z" fill="#FFFF66"/>
<path fill-rule="evenodd" clip-rule="evenodd" d="M330.573 90.9175L341.584 98.6727L336.961 107.118L329.972 93.8507L330.573 90.9175Z" fill="#FFC457"/>
<path fill-rule="evenodd" clip-rule="evenodd" d="M341.584 98.6724L344.416 105.048L343.073 118.202L338.772 115.829L337.175 102.984L341.584 98.6724Z" fill="#FA7B34"/>
<path fill-rule="evenodd" clip-rule="evenodd" d="M311.813 101.68L309.572 112.09L315.942 119.457L320.759 115.281L318.303 101.198L311.813 101.68Z" fill="#FFC457"/>
<path fill-rule="evenodd" clip-rule="evenodd" d="M325.32 121.117L335.072 121.943L343.073 118.202L338.772 115.829L320.759 115.281L315.942 119.457L325.32 121.117Z" fill="#E45F30"/>
<path fill-rule="evenodd" clip-rule="evenodd" d="M329.972 93.8506L337.153 102.806L338.772 115.83L320.759 115.281L318.303 101.198L329.972 93.8506Z" fill="#FFE563"/>
<path fill-rule="evenodd" clip-rule="evenodd" d="M33.7928 57.3574L32.8725 76.6303L22.1162 90.8935L27.7487 74.7167L33.7928 57.3574Z" fill="#FFF171"/>
<path fill-rule="evenodd" clip-rule="evenodd" d="M64.8683 18.8032L45.1172 24.8337L68.7364 26.013L54.2192 23.6013L64.8683 18.8032Z" fill="white"/>
<path fill-rule="evenodd" clip-rule="evenodd" d="M286.664 84.2173L285.675 109.235L288.889 97.3687L286.664 84.2173Z" fill="#5F1730"/>
<path fill-rule="evenodd" clip-rule="evenodd" d="M33.7929 57.3574L53.0547 74.1446L52.2036 76.803L56.6131 77.2458L73.1785 91.683L32.8726 76.6303L33.7929 57.3581V57.3574Z" fill="#FFF171"/>
<path fill-rule="evenodd" clip-rule="evenodd" d="M33.6723 57.7036L32.8726 76.6305L54.5634 84.7313L34.7981 75.2338L33.6723 57.7036Z" fill="white"/>
<path fill-rule="evenodd" clip-rule="evenodd" d="M73.4632 29.9658L58.6431 40.1988L76.3646 31.4341L73.4632 29.9658Z" fill="white"/>
<path d="M34.0455 77.8193C35.1771 78.0556 36.0945 77.465 36.0945 76.5003C36.0945 75.5355 35.1771 74.562 34.0455 74.3257C32.9139 74.0895 31.9966 74.68 31.9966 75.6448C31.9966 76.6095 32.9139 77.5831 34.0455 77.8193Z" fill="white"/>
<path d="M140.922 50.3552C142.477 50.649 143.892 50.0725 144.082 49.0676C144.272 48.0627 143.165 47.0098 141.61 46.716C140.054 46.4223 138.64 46.9987 138.45 48.0037C138.26 49.0086 139.367 50.0614 140.922 50.3552Z" fill="white"/>
<path fill-rule="evenodd" clip-rule="evenodd" d="M64.7889 102.776L57.1064 106.966L48.376 120.353L48.8416 125.475L56.4078 133.856L72.2385 138.745L75.7306 135.834L85.8577 127.919L87.8363 119.771L80.5034 104.057L64.7889 102.776Z" fill="#FFE563"/>
<path fill-rule="evenodd" clip-rule="evenodd" d="M48.376 120.353L53.2066 122.565L48.8416 125.475L48.376 120.353Z" fill="#FFC457"/>
<path fill-rule="evenodd" clip-rule="evenodd" d="M53.2066 122.565L61.8203 121.924L71.6567 108.887L74.1442 103.539L64.7889 102.776L57.1064 106.966L48.376 120.353L53.2066 122.565Z" fill="#FFE563"/>
<path fill-rule="evenodd" clip-rule="evenodd" d="M61.8205 121.924L68.9794 125.999L75.7308 135.835L72.2388 138.745L56.4081 133.856L48.8418 125.475L53.2068 122.565L61.8205 121.924Z" fill="#E76835"/>
<path fill-rule="evenodd" clip-rule="evenodd" d="M71.6567 108.887L68.9792 125.998L61.8203 121.924L71.6567 108.887Z" fill="#FFC457"/>
<path fill-rule="evenodd" clip-rule="evenodd" d="M74.1441 103.539L71.6566 108.887L68.979 125.998L75.7305 135.834L85.8575 127.919L87.8362 119.771L80.5032 104.057L74.1441 103.539Z" fill="#FA7B34"/>
<path fill-rule="evenodd" clip-rule="evenodd" d="M74.1444 103.539L64.7887 102.776L57.1066 106.966L48.3765 120.353L58.7583 109.859L74.1444 103.539Z" fill="white"/>
<path fill-rule="evenodd" clip-rule="evenodd" d="M96.941 74.5482L96.1933 104.582L96.2067 118.916L94.1519 71.2852L96.941 74.5482Z" fill="white"/>
<path fill-rule="evenodd" clip-rule="evenodd" d="M254.578 146.99L270.183 141.223L280.575 145.281L254.578 146.99Z" fill="#C83E35"/>
<path fill-rule="evenodd" clip-rule="evenodd" d="M96.2068 104.51L101.086 118.09L94.334 114.705L96.2068 104.51Z" fill="#F27643"/>
<path fill-rule="evenodd" clip-rule="evenodd" d="M101.086 118.09L96.2112 126.522L94.3345 114.705L101.086 118.09Z" fill="#FDFF7F"/>
<path fill-rule="evenodd" clip-rule="evenodd" d="M227.016 68.3633L239.568 69.6455L231.847 75.3549L227.016 68.3633Z" fill="white"/>
<path fill-rule="evenodd" clip-rule="evenodd" d="M264.667 42.8447L260.616 49.2389L263.339 57.8194L266.264 47.9661L264.667 42.8447Z" fill="#FFD456"/>
<path fill-rule="evenodd" clip-rule="evenodd" d="M263.864 35.2515L260.616 49.239L266.264 47.9662L263.864 35.2515Z" fill="#FA7B34"/>
<path fill-rule="evenodd" clip-rule="evenodd" d="M272.64 17.3071C267.46 17.781 256.85 19.6253 249.678 24.6458L245.906 60.4199L246.69 23.2726L246.706 22.9258C248.077 22.2901 249.441 21.7054 250.852 21.1672C257.382 18.719 263.682 17.8113 270.602 17.3779C271.287 17.3346 271.966 17.3107 272.64 17.3071Z" fill="white"/>
<path d="M247.929 28.1828C249.585 28.1828 251.393 26.522 251.968 24.4732C252.543 22.4245 251.666 20.7637 250.011 20.7637C248.355 20.7637 246.547 22.4245 245.972 24.4732C245.397 26.522 246.273 28.1828 247.929 28.1828Z" fill="white"/>
<path fill-rule="evenodd" clip-rule="evenodd" d="M232.502 74.5046L231.877 129.116L230.302 72.2612L232.502 74.5046Z" fill="white"/>
<path d="M209.968 34.4528C211.119 33.2477 210.483 30.7732 208.548 28.9258C206.613 27.0785 204.112 26.5578 202.961 27.7628C201.811 28.9679 202.446 31.4424 204.381 33.2898C206.316 35.1371 208.817 35.6578 209.968 34.4528Z" fill="white"/>
<path fill-rule="evenodd" clip-rule="evenodd" d="M209.144 141.298C209.811 140.986 210.537 140.881 211.313 140.986L222.22 142.46C222.637 142.517 223.032 142.636 223.393 142.809C223.51 142.688 223.636 142.573 223.771 142.464C224.627 141.768 225.616 141.479 226.712 141.606L237.176 142.812C239.266 143.052 240.798 144.886 240.664 146.986C240.586 148.185 240.512 149.383 240.433 150.582L238.26 183.446C238.119 185.581 236.297 187.218 234.16 187.131L222.61 186.659C221.508 186.614 220.575 186.176 219.837 185.356C219.691 185.193 219.56 185.024 219.445 184.85C218.698 185.394 217.76 185.679 216.771 185.592L206.464 184.677C204.635 184.515 203.2 183.123 202.916 181.382C201.361 182.276 199.677 182.899 197.911 183.276C195.704 183.746 193.45 183.847 191.205 183.647C190.092 183.549 188.992 183.298 187.928 182.965C186.901 182.643 185.893 182.263 184.903 181.842C183.947 181.435 183.005 180.995 182.081 180.521C181.287 180.114 180.501 179.691 179.728 179.246C178.627 178.611 177.935 177.567 177.783 176.358C176.913 177.344 175.948 178.241 174.889 179.027C173.452 180.096 171.867 180.912 170.158 181.447C168.293 182.03 166.358 182.186 164.416 182.013C162.29 181.825 160.196 181.299 158.315 180.27C156.641 179.354 155.173 178.148 153.975 176.661C153.926 176.601 153.878 176.54 153.831 176.48C153.231 177.017 152.461 177.373 151.6 177.463L141.073 178.57C139.332 178.753 137.728 177.795 137.047 176.238C136.256 177.314 134.938 177.957 133.518 177.831L123.626 176.953C121.494 176.764 119.899 174.904 120.036 172.768L120.266 169.18C120.27 169.115 120.275 169.06 120.282 168.996C120.669 165.525 121.048 162.054 121.428 158.582C121.808 155.105 122.211 151.631 122.599 148.155C122.792 146.416 122.962 144.674 123.148 142.935C123.341 141.143 123.565 139.354 123.819 137.57C124.046 135.982 125.128 134.752 126.673 134.323C127.892 133.986 129.13 133.714 130.379 133.52C131.575 133.333 132.78 133.203 133.989 133.143C135.176 133.086 136.365 133.082 137.552 133.127C138.729 133.171 139.906 133.251 141.08 133.356C143.179 133.542 145.235 134.015 147.195 134.789C149.176 135.571 150.991 136.671 152.56 138.116C152.815 138.35 153.061 138.593 153.297 138.843C154.118 137.69 155.52 137.044 157.003 137.232L167.73 138.596C168.3 138.669 168.826 138.859 169.288 139.14C169.396 139.022 169.513 138.91 169.639 138.803C170.477 138.084 171.459 137.769 172.558 137.867L183.321 138.822C184.692 138.943 185.842 139.747 186.452 140.882C188.126 139.777 189.969 139 191.921 138.523C193.974 138.021 196.073 137.864 198.178 138.051C199.037 138.127 199.892 138.235 200.745 138.366C201.685 138.511 202.617 138.711 203.535 138.961C204.434 139.205 205.322 139.483 206.191 139.819C207.106 140.173 207.993 140.601 208.838 141.099C208.944 141.162 209.046 141.228 209.144 141.298Z" fill="#4D0C2E"/>
<path fill-rule="evenodd" clip-rule="evenodd" d="M154.505 148.889C154.504 148.902 154.503 148.915 154.502 148.928L154.238 152.345C154.229 152.456 154.219 152.567 154.208 152.68C154.091 153.825 153.887 154.854 153.589 155.768C153.298 156.682 152.901 157.508 152.392 158.248C151.883 158.98 151.26 159.647 150.515 160.241C150.141 160.539 149.734 160.825 149.292 161.101L152.435 168.336L152.169 171.78L142.043 172.711L139.605 162.964L136.862 162.768L135.527 171.91L126.036 170.942L126.302 167.498C126.72 164.153 127.128 160.816 127.535 157.501C127.941 154.187 128.358 150.85 128.79 147.507C128.985 145.815 129.186 144.146 129.385 142.484C129.586 140.823 129.816 139.157 130.079 137.471C131.143 137.191 132.192 136.979 133.22 136.832C134.247 136.686 135.268 136.592 136.293 136.552C137.315 136.52 138.35 136.526 139.387 136.578C140.432 136.632 141.496 136.717 142.581 136.828C144.26 136.999 145.863 137.399 147.384 138.018C148.903 138.645 150.218 139.479 151.329 140.528C152.439 141.577 153.285 142.836 153.875 144.289C154.427 145.657 154.635 147.19 154.505 148.889ZM182.898 146.844C182.895 146.879 182.892 146.915 182.889 146.951L182.623 150.399C182.575 151.017 182.519 151.637 182.456 152.257C182.345 153.349 182.177 154.543 181.938 155.842C181.699 157.142 181.396 158.474 181.012 159.85C180.636 161.22 180.191 162.605 179.668 164.006C179.145 165.398 178.537 166.729 177.845 167.998C177.152 169.266 176.371 170.435 175.514 171.52C174.651 172.596 173.697 173.519 172.645 174.279C171.594 175.039 170.448 175.608 169.207 175.983C167.959 176.351 166.615 176.465 165.154 176.316C163.452 176.142 161.997 175.712 160.795 175.034C159.593 174.356 158.592 173.5 157.791 172.475C156.982 171.449 156.363 170.282 155.917 168.981C155.472 167.68 155.153 166.323 154.972 164.896C154.79 163.47 154.708 162.031 154.735 160.573C154.75 159.507 154.797 158.476 154.874 157.478L155.141 154.035C155.17 153.659 155.203 153.288 155.24 152.921C155.45 150.865 155.757 148.819 156.177 146.792C156.591 144.756 157.093 142.737 157.685 140.735L167.972 142.179L167.706 145.624C167.071 147.895 166.495 150.181 165.971 152.487C165.541 154.375 165.206 156.283 164.967 158.211C164.963 158.402 164.96 158.601 164.96 158.806C164.958 159.43 164.976 160.064 165.025 160.708C165.065 161.359 165.163 161.962 165.298 162.509C165.432 163.063 165.621 163.516 165.858 163.882C166.095 164.249 166.401 164.455 166.77 164.493C167.192 164.536 167.596 164.372 167.977 164C168.357 163.628 168.706 163.123 169.039 162.472C169.364 161.82 169.669 161.059 169.947 160.198C170.226 159.335 170.485 158.433 170.711 157.49C170.944 156.547 171.147 155.601 171.328 154.653C171.508 153.705 171.659 152.822 171.795 152.007C171.932 151.184 172.043 150.465 172.116 149.832C172.195 149.201 172.252 148.728 172.283 148.418C172.315 148.107 172.345 147.795 172.375 147.483C172.425 146.655 172.466 145.826 172.495 145.001L172.762 141.557L183.088 142.61C183.071 144.01 183.005 145.423 182.898 146.844ZM205.51 167.538C205.52 167.442 205.529 167.347 205.536 167.251L205.802 163.808C205.885 162.741 205.813 161.742 205.594 160.811C205.347 159.797 204.928 158.909 204.345 158.134C203.762 157.359 203.028 156.714 202.131 156.188C202.072 156.154 202.012 156.121 201.952 156.089C202.649 156.338 203.32 156.611 203.969 156.902L205.719 148.031L205.985 144.587C205.369 144.212 204.709 143.886 204.015 143.603C203.313 143.325 202.592 143.084 201.845 142.871C201.105 142.659 200.354 142.491 199.591 142.36C198.827 142.236 198.092 142.131 197.369 142.057C195.749 141.892 194.157 141.988 192.59 142.354C191.023 142.712 189.608 143.313 188.334 144.157C187.068 145.002 186.015 146.075 185.174 147.381C184.341 148.689 183.828 150.205 183.651 151.945C183.641 152.04 183.633 152.134 183.625 152.228L183.359 155.672C183.27 156.832 183.363 157.927 183.644 158.969C183.948 160.089 184.433 161.081 185.09 161.948C185.74 162.786 186.541 163.48 187.501 164.024C186.059 163.482 184.763 162.787 183.615 161.926L181.716 170.919L181.45 174.362C182.053 174.721 182.743 175.111 183.531 175.526C184.311 175.94 185.13 176.336 185.982 176.712C186.834 177.088 187.683 177.418 188.523 177.694C189.37 177.971 190.151 178.15 190.866 178.223C192.734 178.413 194.507 178.342 196.186 178.004C197.863 177.672 199.356 177.063 200.671 176.193C201.993 175.315 203.07 174.154 203.924 172.719C204.778 171.284 205.304 169.557 205.51 167.538ZM205.777 175.96L209.777 145.02L220.235 146.573L219.969 150.017L218.184 162.376L222.852 162.852L224.635 145.819L234.671 147.109C234.582 148.257 234.494 149.405 234.405 150.553L231.904 182.095L220.815 181.497L221.082 178.053L221.71 171.291L216.695 170.78L215.401 180.412L205.511 179.404L205.777 175.96ZM138.322 152.536L138.617 152.566C139.249 152.63 139.898 152.613 140.569 152.521C141.242 152.423 141.855 152.234 142.417 151.949C142.971 151.663 143.444 151.277 143.83 150.776C143.929 150.649 144.018 150.513 144.097 150.37C143.973 149.952 143.794 149.572 143.554 149.242C143.261 148.831 142.884 148.496 142.409 148.227C141.941 147.966 141.372 147.801 140.709 147.734C140.415 147.704 140.127 147.69 139.845 147.699C139.562 147.708 139.285 147.741 139.014 147.782L138.322 152.536Z" fill="#923137"/>
<path fill-rule="evenodd" clip-rule="evenodd" d="M206.571 159.468L208.46 144.849C208.508 144.483 208.681 144.184 208.977 143.961C209.271 143.738 209.606 143.652 209.972 143.707L220.43 145.26C221.152 145.367 221.653 146.041 221.549 146.763L219.468 161.173L221.67 161.398L223.315 145.681C223.353 145.312 223.52 145.008 223.811 144.778C224.103 144.548 224.436 144.455 224.804 144.503L234.841 145.793C235.543 145.883 236.05 146.508 235.994 147.214L233.493 178.756C233.436 179.473 232.817 180.015 232.098 179.976L221.01 179.378C220.636 179.358 220.322 179.204 220.077 178.92C219.832 178.637 219.725 178.303 219.76 177.93L220.587 169.04L218.105 168.786L216.982 177.145C216.887 177.855 216.245 178.361 215.532 178.288L205.642 177.28C205.272 177.242 204.968 177.076 204.737 176.784C204.506 176.493 204.413 176.158 204.461 175.79L205.184 170.196C204.273 171.657 203.111 172.9 201.67 173.855C200.161 174.856 198.485 175.508 196.712 175.862C194.828 176.238 192.907 176.293 190.998 176.099C190.108 176.008 189.225 175.79 188.376 175.512C187.471 175.215 186.583 174.867 185.713 174.482C184.853 174.103 184.006 173.695 183.176 173.256C182.454 172.873 181.74 172.477 181.038 172.06C180.541 171.764 180.298 171.21 180.418 170.644L182.316 161.652C182.413 161.195 182.711 160.848 183.148 160.684C183.585 160.519 184.038 160.584 184.412 160.865C185.522 161.698 186.757 162.335 188.058 162.815C189.382 163.304 190.757 163.642 192.162 163.785C192.475 163.817 192.793 163.831 193.108 163.845C193.386 163.858 193.667 163.847 193.941 163.791C194.05 163.769 194.157 163.737 194.257 163.691C194.23 163.669 194.204 163.651 194.186 163.64C193.974 163.524 193.748 163.433 193.548 163.371C193.244 163.287 192.937 163.206 192.627 163.147C192.353 163.094 192.076 163.05 191.799 163.022C191.563 162.998 191.327 162.973 191.091 162.95C189.728 162.811 188.404 162.448 187.202 161.784C186.07 161.161 185.09 160.337 184.304 159.312C183.58 158.368 183.058 157.308 182.716 156.175C182.664 156.37 182.611 156.565 182.557 156.76C182.159 158.202 181.701 159.626 181.177 161.027C180.641 162.457 180.008 163.849 179.276 165.19C178.564 166.495 177.746 167.739 176.82 168.902C175.913 170.041 174.869 171.058 173.689 171.91C172.52 172.756 171.237 173.397 169.853 173.811C168.365 174.255 166.826 174.35 165.286 174.192C163.589 174.019 161.902 173.589 160.409 172.746C159.094 172.004 157.946 171.04 157.013 169.851C156.096 168.681 155.409 167.371 154.928 165.967C154.444 164.555 154.11 163.101 153.921 161.62C153.731 160.124 153.65 158.616 153.675 157.108C153.683 156.607 153.697 156.106 153.718 155.605C153.127 156.45 152.414 157.193 151.608 157.835C151.051 158.279 150.458 158.676 149.843 159.036L153.653 167.807C153.828 168.21 153.801 168.634 153.577 169.013C153.354 169.391 152.995 169.617 152.557 169.658L142.431 170.589C141.774 170.649 141.182 170.229 141.022 169.589L138.817 160.776L138.264 160.736L137.106 168.658C137.004 169.361 136.365 169.858 135.658 169.786L126.168 168.818C125.799 168.781 125.495 168.615 125.264 168.325C125.033 168.035 124.94 167.702 124.985 167.334C125.401 164.003 125.809 160.672 126.217 157.34C126.626 154.006 127.057 150.676 127.473 147.343C127.681 145.672 127.867 143.998 128.068 142.326C128.271 140.635 128.506 138.948 128.768 137.266C128.851 136.733 129.22 136.325 129.742 136.188C130.825 135.903 131.924 135.677 133.032 135.518C134.098 135.367 135.17 135.264 136.245 135.226C137.315 135.188 138.386 135.198 139.454 135.253C140.543 135.308 141.631 135.397 142.715 135.508C144.494 135.689 146.233 136.111 147.887 136.789C149.499 137.451 150.972 138.365 152.24 139.563C153.502 140.756 154.454 142.182 155.106 143.791C155.191 144.001 155.268 144.212 155.338 144.425C155.657 143.06 156.014 141.704 156.413 140.358C156.6 139.724 157.214 139.329 157.87 139.421L168.157 140.866C168.549 140.92 168.866 141.122 169.083 141.453C169.3 141.785 169.357 142.155 169.25 142.537C168.621 144.789 168.05 147.057 167.532 149.337C167.02 151.587 166.646 153.866 166.412 156.161C166.376 156.512 166.353 156.866 166.333 157.219C166.303 157.749 166.289 158.28 166.287 158.811C166.285 159.414 166.308 160.016 166.349 160.617C166.385 161.148 166.462 161.678 166.587 162.195C166.665 162.515 166.779 162.851 166.954 163.133C166.992 163.105 167.03 163.07 167.049 163.051C167.381 162.726 167.646 162.285 167.854 161.874C168.189 161.209 168.456 160.497 168.684 159.79C168.962 158.928 169.207 158.056 169.421 157.176C169.645 156.258 169.847 155.334 170.024 154.405C170.189 153.535 170.34 152.662 170.486 151.788C170.603 151.086 170.713 150.381 170.798 149.674C170.854 149.212 170.915 148.747 170.962 148.284C171.078 147.154 171.178 146.021 171.256 144.888C171.333 143.763 171.396 142.637 171.435 141.51C171.449 141.13 171.602 140.807 171.889 140.557C172.177 140.306 172.517 140.198 172.897 140.237L183.223 141.29C183.909 141.36 184.424 141.937 184.416 142.627C184.4 143.87 184.348 145.112 184.264 146.352C185.158 145.042 186.272 143.935 187.599 143.052C189.033 142.098 190.615 141.447 192.292 141.06C194.007 140.665 195.753 140.558 197.504 140.737C198.276 140.815 199.044 140.923 199.809 141.051C200.619 141.186 201.421 141.369 202.21 141.595C202.988 141.818 203.758 142.069 204.51 142.371C205.259 142.672 205.984 143.033 206.674 143.453C207.159 143.748 207.397 144.287 207.287 144.844L205.538 153.715C205.457 154.125 205.217 154.444 204.846 154.636C204.475 154.829 204.075 154.84 203.693 154.669C202.741 154.243 201.764 153.874 200.771 153.558C199.825 153.257 198.853 153.041 197.865 152.94C197.63 152.916 197.393 152.9 197.158 152.883C196.87 152.86 196.58 152.853 196.32 152.85C196.017 152.853 195.714 152.879 195.442 152.904C195.25 152.927 195.051 152.961 194.865 153.019C194.915 153.045 194.963 153.067 195.006 153.085C195.299 153.21 195.609 153.296 195.92 153.36C196.307 153.44 196.697 153.502 197.089 153.549C197.467 153.595 197.847 153.634 198.227 153.665C198.58 153.694 198.935 153.738 199.281 153.815C200.516 154.018 201.712 154.411 202.797 155.041C203.816 155.633 204.697 156.394 205.405 157.336C205.9 157.994 206.288 158.708 206.571 159.468ZM140.441 145.582L139.611 151.274C139.869 151.266 140.127 151.243 140.384 151.207C140.883 151.137 141.363 150.997 141.812 150.767C142.197 150.57 142.516 150.305 142.781 149.963C143.041 149.628 143.157 149.217 143.2 148.802C143.244 148.366 143.236 147.923 143.141 147.495C143.068 147.165 142.942 146.849 142.744 146.574C142.55 146.307 142.313 146.102 142.025 145.94C141.673 145.742 141.238 145.651 140.841 145.611C140.708 145.597 140.574 145.587 140.441 145.582Z" fill="#4D0C2E"/>
<path d="M154.474 149.236C154.357 150.381 154.153 151.41 153.855 152.323C153.564 153.237 153.167 154.065 152.658 154.804C152.15 155.536 151.526 156.203 150.781 156.797C150.035 157.391 149.157 157.94 148.139 158.446L152.435 168.336L142.31 169.267L139.871 159.52L137.128 159.324L135.793 168.465L126.302 167.497C126.719 164.153 127.128 160.816 127.535 157.501C127.941 154.186 128.357 150.85 128.79 147.507C128.985 145.815 129.186 144.146 129.385 142.484C129.585 140.823 129.816 139.156 130.08 137.471C131.143 137.191 132.192 136.978 133.219 136.832C134.247 136.685 135.268 136.592 136.292 136.552C137.315 136.519 138.35 136.525 139.387 136.578C140.432 136.631 141.496 136.717 142.581 136.827C144.26 136.999 145.863 137.399 147.384 138.018C148.902 138.644 150.218 139.479 151.329 140.528C152.439 141.577 153.285 142.836 153.875 144.289C154.464 145.749 154.661 147.398 154.474 149.236ZM144.52 148.936C144.583 148.311 144.551 147.737 144.437 147.207C144.316 146.678 144.114 146.201 143.82 145.798C143.527 145.387 143.15 145.052 142.676 144.783C142.207 144.522 141.638 144.357 140.975 144.29C140.682 144.26 140.393 144.246 140.111 144.255C139.829 144.264 139.551 144.297 139.281 144.338L138.089 152.512L138.616 152.565C139.25 152.63 139.898 152.613 140.57 152.521C141.242 152.422 141.855 152.233 142.417 151.948C142.971 151.662 143.444 151.277 143.83 150.776C144.215 150.283 144.445 149.666 144.52 148.936ZM182.722 148.813C182.611 149.906 182.444 151.098 182.204 152.398C181.965 153.698 181.662 155.029 181.278 156.406C180.903 157.776 180.457 159.161 179.933 160.561C179.411 161.954 178.803 163.285 178.111 164.554C177.418 165.822 176.637 166.991 175.781 168.075C174.917 169.152 173.963 170.075 172.912 170.835C171.86 171.595 170.714 172.163 169.473 172.539C168.226 172.906 166.882 173.02 165.421 172.872C163.719 172.698 162.263 172.268 161.061 171.59C159.859 170.912 158.858 170.056 158.057 169.031C157.249 168.005 156.629 166.838 156.183 165.537C155.738 164.236 155.419 162.879 155.238 161.453C155.056 160.026 154.974 158.587 155.001 157.128C155.021 155.661 155.103 154.262 155.24 152.921C155.45 150.865 155.757 148.819 156.177 146.791C156.59 144.756 157.093 142.737 157.685 140.735L167.972 142.179C167.337 144.452 166.761 146.737 166.237 149.042C165.714 151.341 165.332 153.669 165.091 156.026C165.066 156.275 165.035 156.645 165.008 157.144C164.98 157.636 164.962 158.19 164.96 158.806C164.957 159.43 164.976 160.063 165.025 160.707C165.065 161.359 165.163 161.962 165.298 162.509C165.432 163.063 165.621 163.516 165.858 163.882C166.094 164.249 166.4 164.455 166.77 164.493C167.191 164.536 167.596 164.372 167.977 163.999C168.357 163.628 168.706 163.123 169.039 162.471C169.364 161.819 169.67 161.059 169.947 160.197C170.226 159.335 170.485 158.433 170.711 157.489C170.944 156.547 171.147 155.601 171.327 154.653C171.508 153.705 171.659 152.822 171.795 152.007C171.932 151.183 172.044 150.464 172.116 149.832C172.195 149.201 172.251 148.727 172.283 148.418C172.4 147.274 172.501 146.127 172.58 144.978C172.658 143.837 172.722 142.694 172.761 141.557L183.088 142.61C183.063 144.654 182.935 146.727 182.722 148.813ZM205.776 164.094C205.57 166.113 205.044 167.84 204.19 169.276C203.336 170.71 202.259 171.872 200.936 172.749C199.622 173.62 198.129 174.228 196.452 174.559C194.773 174.898 193.001 174.969 191.132 174.778C190.417 174.705 189.636 174.527 188.789 174.25C187.95 173.974 187.1 173.644 186.248 173.268C185.396 172.892 184.577 172.496 183.797 172.082C183.01 171.667 182.319 171.277 181.716 170.918L183.615 161.926C184.788 162.807 186.117 163.513 187.598 164.06C189.08 164.606 190.559 164.955 192.028 165.105C192.314 165.135 192.654 165.154 193.049 165.171C193.45 165.189 193.833 165.167 194.206 165.091C194.579 165.015 194.897 164.88 195.175 164.688C195.446 164.495 195.607 164.191 195.649 163.777C195.677 163.498 195.611 163.248 195.45 163.034C195.297 162.82 195.088 162.632 194.823 162.475C194.549 162.326 194.242 162.195 193.903 162.092C193.555 161.995 193.214 161.908 192.878 161.843C192.542 161.778 192.227 161.731 191.933 161.701C191.64 161.671 191.406 161.647 191.225 161.629C189.96 161.5 188.83 161.164 187.842 160.622C186.848 160.071 186.023 159.363 185.357 158.504C184.699 157.638 184.214 156.644 183.91 155.525C183.606 154.398 183.522 153.21 183.651 151.944C183.828 150.205 184.341 148.689 185.174 147.381C186.015 146.074 187.068 145.002 188.334 144.157C189.607 143.312 191.023 142.711 192.59 142.353C194.157 141.988 195.75 141.892 197.369 142.057C198.092 142.131 198.827 142.236 199.591 142.36C200.354 142.491 201.105 142.659 201.845 142.871C202.592 143.084 203.313 143.325 204.015 143.602C204.709 143.886 205.369 144.212 205.985 144.587L204.236 153.458C203.268 153.024 202.25 152.631 201.173 152.293C200.105 151.948 199.047 151.726 198 151.619C197.812 151.6 197.562 151.582 197.26 151.559C196.958 151.536 196.639 151.526 196.305 151.523C195.97 151.526 195.632 151.553 195.286 151.586C194.939 151.627 194.628 151.694 194.344 151.795C194.067 151.895 193.84 152.04 193.653 152.226C193.474 152.413 193.374 152.647 193.36 152.934C193.342 153.26 193.436 153.528 193.649 153.755C193.855 153.974 194.134 154.155 194.484 154.305C194.834 154.455 195.218 154.57 195.65 154.66C196.083 154.749 196.509 154.816 196.931 154.867C197.359 154.918 197.758 154.959 198.12 154.988C198.49 155.018 198.79 155.064 199.028 155.118C200.196 155.306 201.232 155.67 202.131 156.188C203.028 156.713 203.762 157.359 204.345 158.134C204.928 158.909 205.347 159.796 205.594 160.811C205.833 161.825 205.896 162.919 205.776 164.094ZM232.17 178.651L221.081 178.053L222.03 167.852L216.961 167.336L215.667 176.968L205.777 175.959L209.776 145.019L220.235 146.573L217.956 162.353L222.852 162.852L224.635 145.819L234.671 147.109L232.17 178.651Z" fill="white"/>
</svg>
