<svg xmlns="http://www.w3.org/2000/svg" width="1338" height="599" fill="none" viewBox="0 0 1338 599"><path fill="#f0554d" fill-rule="evenodd" d="m25.6 63.7 1288.8 9.7c11 0 20.5 9 20 20l-15.6 443.1c-.3 11-9 19.8-20 20L37.6 590.4c-11 .3-19.8-9-20-20L5.5 83.7c-.4-11 9-20.2 20-20" clip-rule="evenodd"/><mask id="a" width="1330" height="528" x="5" y="63" maskUnits="userSpaceOnUse" style="mask-type:luminance"><path fill="#fff" d="m25.6 63.7 1288.8 9.7c11 0 20.5 9 20 20l-15.6 443.1c-.3 11-9 19.8-20 20L37.6 590.4c-11 .3-19.8-9-20-20L5.5 83.7c-.4-11 9-20.2 20-20"/></mask><g mask="url(#a)"><path fill="#fe7454" fill-rule="evenodd" d="M568.8 232.3a11 11 0 0 0-.5 4.7l27.3 260.5c.4 4.4 3.3 7.5 7.4 9.3L872.8 629c4.1 1.5 8.5.7 11.8-2.2l206.4-180c3-2.5 4.1-6 3.8-9.6q.7-2.8.4-5.7l-13.2-98a10 10 0 0 0-7.7-8.6l-221.4-46.2c-3.4-.7-6.7-.6-9.7 1.2l-39.5 24a11 11 0 0 0-5.4 10.6v.5a11 11 0 0 0-.5 4.6l3.9 40.2c.4 4.6 3.6 8 8 9.6L957.5 420c4.2 1.4 7.2 4.5 8 8.8q-1.4 3.3-4.3 5.8l-91.9 79.7c-2.9 2.5-6.9 3-10.5 1.6l-159.3-61.2c-4-1.5-6.8-4.6-7.6-8.8l-2.8-14.6-12.5-159q-.4-6.5 4.8-10.8l130-108.4c3-2.5 7.1-2.6 11-1.4l343 115.5c3.5 1 9.7 5.1 11.8 12.4l59.5 210.5.3 1.5q-.7 3.2-3.5 5.4l-194 152.3H620.4l-128.3-49.5a10 10 0 0 1-7-8.5l-47-411.4v-.4q1-3 3.9-5.1L608.8 51H776L572.7 222.3q-4.5 3.9-4 9.6zM1172.7 51l20.8 112.6.3 1.5c-1.5 4.5-5.9 6.6-12 4.6L827.2 51z" clip-rule="evenodd"/></g><path fill="#541138" d="M1027.8 563.8c-34.7-82.3-96.1-143-168.3-135.5-68.4 7-122.5 84-154.7 144.1z"/><path fill="#ab6456" fill-rule="evenodd" d="M1021.3 564q-11-26.2-26.3-49.5c-23.1-35.3-57-69-99.8-78.5a109 109 0 0 0-35-2c-44.3 4.5-81.3 40.3-107 73.5a475 475 0 0 0-41.6 64.8z" clip-rule="evenodd"/><path fill="#874652" fill-rule="evenodd" d="M964.6 565.5c-63.1-35-115-63-118.9-63-4.3 0-45.3 1.7-93.2 6a477 477 0 0 0-41 63.8z" clip-rule="evenodd"/><path fill="#541138" d="M678.5 441.4s-30 5.8-80.5 119.4c0 0-6 5.9-14.4 14.9l125.7-3.4c25.3-64.2 7.7-126.4-30.8-131"/><path fill="#e44554" fill-rule="evenodd" d="M679.7 449.9s-41.4 34-74.3 116.4l-9 9 111.5-3c17.6-48.3 21.6-104.7-28.2-122.4" clip-rule="evenodd"/><path fill="#f2827a" fill-rule="evenodd" d="M644 492.3a392 392 0 0 0-38.6 74l-9 9 18-.4 3.8-2.7c-4.1-41.5 27.4-64.9 27.4-64.9q.1-8.8-1.6-15" clip-rule="evenodd"/><path fill="#ad2952" fill-rule="evenodd" d="M679.7 449.9s-26.7 22-54.3 73.4c11.6 19.2 14.8 36.1 12.3 51l70.2-2c17.6-48.3 21.6-104.7-28.2-122.4" clip-rule="evenodd"/><path fill="#541138" d="M1010 408.3s33.3-2.2 65.2 65.4c15.9 33.9 27.8 60.2 42.2 87.7L985.8 565a221 221 0 0 0-15.2-21.5s-56.4-78.1-4.4-123c0 0 12.4-14 43.8-12.1"/><path fill="#ad2952" fill-rule="evenodd" d="M1000.5 420.2s32.2-6.5 54.2 37.6c11.6 23.4 29.8 63.6 50.5 104L983 565a176 176 0 0 0-27.1-21.5s-14.6-60.7 9.9-95c24.5-34.4 34.7-28.3 34.7-28.3" clip-rule="evenodd"/><path fill="#e44554" fill-rule="evenodd" d="M1077.1 504.7c8.5 17.7 18 37.4 28 57l-10.4.3a883 883 0 0 1-17.6-57.3" clip-rule="evenodd"/><path fill="#541138" d="M675 479.5s-9.1 31.2-3.8 93.8l343.5-9.1c-4.6-18-9.7-34-14.3-46-12-31-19.2-59.7-43-75.4 0 0-159.8-61.7-282.5 36.7"/><path fill="#e44554" fill-rule="evenodd" d="M684.4 481.3s-11 36.2-4.3 90.8v1l320.3-8.6c-3.4-46-13.3-92.6-38.6-108.7 0 0-126.5-52-277.4 25.5" clip-rule="evenodd"/><path fill="#ad2952" fill-rule="evenodd" d="M759.7 560.6q7.2 5.8 14.6 10l73-2q13.9-9.8 24-27.3c14.3-24.7 4.4-57.4 1.8-57.8s-82.8-11.3-90.7-7.4-27.6 6-28.9 21.7 6.2 62.8 6.2 62.8" clip-rule="evenodd"/><path fill="#ad2952" fill-rule="evenodd" d="M684.4 481.3s-11 36.2-4.3 90.8v1l79.4-2.1c38-45.8 15.9-102.6 8-121.1a389 389 0 0 0-83 31.4" clip-rule="evenodd"/><path fill="#ad2952" fill-rule="evenodd" d="M682.2 544.3s5.7 10.9 17.4 28.3l44.6-1.2q-12.2-16.2-23.4-34l-25.4-15.5zM924.8 529s-12.4 15.5-33.9 38.5l42.8-1.2q5.3-8.6 9.6-17.5s-.2-14-3.8-14c-3.7 0-14.7-4.4-14.7-5.9" clip-rule="evenodd"/><path fill="#ad2952" fill-rule="evenodd" d="M985 565c1-4.8 1.4-8.3 1.4-8.3a8 8 0 0 0 12 4.4c3.6-2.7-3.4-10-4.2-17.8-.7-6 4.7-12 6.4-17.7-14.7-30.3-20.6-58.2-38.8-69.8 0 0-28-11.5-73.5-15.6a173 173 0 0 0-26 54c-4 15.3-3.2 50.3 3.8 74z" clip-rule="evenodd"/><path fill="#ad2952" fill-rule="evenodd" d="M1004.3 564.4a205 205 0 0 0-10.1-30.6c-37.2 3.1-50.9 16.5-50.9 16.5s1.1 5.7 2.4 15.7z" clip-rule="evenodd"/><path fill="#541138" d="M916.4 523.9s-14.6 18-39.6 44l45.2-1.3q7.2-11.2 13-22.8s-.3-14.1-4-14.1c-3.6 0-14.6-4.4-14.6-5.8"/><path fill="#93484f" fill-rule="evenodd" d="M917.5 531.6s-11.4 14.5-31 36l28-.8q8.4-11.7 15.4-24l-5.1-8.3z" clip-rule="evenodd"/><path fill="#7e2e48" fill-rule="evenodd" d="M917.5 531.6s-11.4 14.5-31 36l28-.8q8.4-11.7 15.4-24l-5.1-8.3z" clip-rule="evenodd"/><path fill="#541138" d="M686 543c-1 .5 4.8 11.9 17.1 29.5l48-1.3a419 419 0 0 1-26.7-36.4l-25.8-14.6z"/><path fill="#93484f" fill-rule="evenodd" d="M705.3 558s3.2 5.3 9.5 14.2l29-.8q-8.7-12-16.1-24.9l-9.5-6.4z" clip-rule="evenodd"/><path fill="#7e2e48" fill-rule="evenodd" d="M705.3 558s3.2 5.3 9.5 14.2l29-.8q-8.7-12-16.1-24.9l-9.5-6.4z" clip-rule="evenodd"/><path fill="#541138" d="M863.9 542.3a75 75 0 0 0 11.4 25.6l104.9-2.8c5.4-10.3 7-24.6 7-24.6a8 8 0 0 0 11.9 4.4c6.5-4.8 9.5-24.2 13.5-37.3 6.3-20.4 15.7-44 32.2-48 0 0 15.8-1.1 27.4 15.4 0 0 12.2-10.9 9.8-28.5 0 0 5.5 11.6 10.3 11s11.7-15 6.6-30.5c0 0 12.3 0-2-28 0 0 8.4 1.3 10.4-10.1s-11.8-36.9-63.2-35.2c0 0 16.4-4.4 17.2-11.2.7-7-25.3-13.1-53.5-4.4-80.4 25-168.2 114.8-144 204.2"/><path fill="#874652" fill-rule="evenodd" d="M871 518.2s5.9 52.1 19 38.4l5.5-8s3.2 10.4 7.9 18.5l21.1-.5c5.4-10 9.2-24.8 11-33.2 0 0 .1 22.6 3.5 32.8l8.5-.2c6.5-12 13.9-41.3 13.9-41.3s-1.5 39.8 9.1 34.4 14.7-61.9 14.7-61.9c1.3 5.2 3.2 42 12.3 27.6 5.6-9 15.1-80.4 54.6-75.7 0 0 12.8 1.5 19.4 8 0 0 8.8-18-8.8-34 0 0 17.2 4 26.7 20.3 0 0 7.7-22.5-16-41 0 0 12.1 3.5 21.1 16.4 0 0 5.9-19.4-20.5-33.7 0 0 10 1.6 19.2 8 0 0 8.1.4 6.6-7.1-5.9-29-65.2-27.2-78.5-26.3 0 0 25-12 23-14.7s-21-9.4-50.3 10.2-130 70.4-123 163" clip-rule="evenodd"/><path fill="#ab6456" fill-rule="evenodd" d="M979.8 537.3c3.8-18 5.4-40 5.4-40 1.3 5 3.2 42 12.3 27.5 5.6-9 15.1-80.4 54.6-75.7 0 0 12.8 1.5 19.4 8 0 0 8.8-18-8.8-34 0 0 17.2 4 26.7 20.3 0 0 7.7-22.5-16-41 0 0 12.1 3.5 21.1 16.4 0 0 5.9-19.4-20.5-33.7 0 0 10 1.6 19.2 8 0 0 8.1.4 6.6-7.1-3.4-16.7-24.6-23.2-44.5-25.5 3.1 11.8 8.4 45.3-26.6 57.3 0 0 3 42.4-39 66.2 0 0-18 20.2-10 53.3" clip-rule="evenodd"/><path fill="#541138" d="M929.2 469c24 0 43.5 19.3 43.5 43 0 23.8-19.5 43.1-43.5 43.1s-43.5-19.3-43.5-43c0-23.8 19.4-43 43.5-43"/><path fill="#ffc565" fill-rule="evenodd" d="M929.2 476.6a35.6 35.6 0 0 1 35.8 35.5c0 19.5-16 35.4-35.8 35.4a35.6 35.6 0 0 1-35.9-35.4c0-19.6 16-35.5 35.9-35.5" clip-rule="evenodd"/><path fill="#ea8453" fill-rule="evenodd" d="M929.2 476.6a34.3 34.3 0 0 1 34.9 33.8 34.3 34.3 0 0 1-35 33.8 34.3 34.3 0 0 1-34.8-33.8 34.3 34.3 0 0 1 34.9-33.8" clip-rule="evenodd"/><path fill="#541138" d="M929.2 487c14 0 25.4 11.2 25.4 25a25.3 25.3 0 0 1-25.4 25.2c-14 0-25.4-11.3-25.4-25.1a25.3 25.3 0 0 1 25.4-25.2"/><path fill="#ea8453" fill-rule="evenodd" d="M929.2 491.2a21 21 0 0 1 21.1 20.9 21 21 0 0 1-21.1 20.8 21 21 0 0 1-21.1-20.8 21 21 0 0 1 21-20.9" clip-rule="evenodd"/><path fill="#ffc565" fill-rule="evenodd" d="M928.6 517.1c6.8 0 12.4 3.1 12.4 7 0 3.7-5.6 6.8-12.4 6.8s-12.4-3-12.4-6.9c0-3.8 5.6-6.9 12.4-6.9" clip-rule="evenodd"/><path fill="#541138" d="M636.8 382.7s-37.7 20.6-52.3 50c-8.6 17.5-10.8 36.1 17.4 28.6-11.2 16.2.3 20.1 15.2 15.3 0 0-8.8 25.3 4 27.9a34 34 0 0 0 24.4-6.2c-10.7 41.2 16.7 39.5 26.1 30-13.4 38.3 5.4 48.7 45.4 26.8 0 0 1 11.6 8 16.8l18.2-.5c12.2-6.7 23.4-25.3 27.2-58.2 9.6-82.5-57-130.5-133.6-130.5"/><path fill="#ab6456" fill-rule="evenodd" d="M638.3 390.2c-21.6 13.4-53.2 51-46.8 60.8 3 4.5 16.1 1.9 37.3-8.7 0 0-22.4 19.6-21.1 24.7s31.8-7.8 31.8-7.8-22 28.8-14.3 33.2c7.7 4.3 34.5-14.9 34.5-14.9-26 65.6 18.5 41.3 30.9 32.1l-9.2 14.7c-5.1 13.2-5.2 26 2.7 28 8.5 1.9 33.1-3.9 41.1-29.7l-2.6 21.4s1.1 14.9 8.5 17.6c7.3 2.7 22.1-12.9 22.1-39.1s10.3-109.9-114.9-132.3" clip-rule="evenodd"/><path fill="#541138" d="M702.4 482.5a41 41 0 0 1 41.2 40.8 41 41 0 0 1-41.2 40.8 41 41 0 0 1-41.3-40.8 41 41 0 0 1 41.3-40.8"/><path fill="#ffdc5d" fill-rule="evenodd" d="M702.4 489.7c18.7 0 34 15 34 33.6a34 34 0 0 1-34 33.6c-18.8 0-34-15-34-33.6a34 34 0 0 1 34-33.6" clip-rule="evenodd"/><path fill="#ffff8a" fill-rule="evenodd" d="M731 541.5a34 34 0 0 1-62.6-18.2c0-8.2 3-15.8 8-21.6a33 33 0 0 0-5.4 18.2 34 34 0 0 0 60 21.6" clip-rule="evenodd"/><path fill="#ea8453" fill-rule="evenodd" d="M702.4 489.7c18.7 0 34 15 34 33.6 0 8.7-3.4 16.7-9 22.6-13.4-31.4-43.2-38-54.5-39.3a34 34 0 0 1 29.5-16.9" clip-rule="evenodd"/><path fill="#541138" d="M702.4 499.5a24 24 0 0 1 24 23.8 24 24 0 0 1-24 23.8 24 24 0 0 1-24.1-23.8 24 24 0 0 1 24-23.8"/><path fill="#ffdc5d" fill-rule="evenodd" d="M702.4 503.5c11 0 20 8.9 20 19.8s-9 19.8-20 19.8-20-8.9-20-19.8 9-19.8 20-19.8" clip-rule="evenodd"/><path fill="#ea8453" fill-rule="evenodd" d="M702.4 503.5a20 20 0 0 1 17.6 29.3 65 65 0 0 0-32.4-22.9c3.7-4 9-6.4 14.8-6.4" clip-rule="evenodd"/><path fill="#ffff8a" fill-rule="evenodd" d="M698.4 527.4c6.3 5 11 9.1 8.9 11.7S697 542 690.7 537s-8.3-13.2-6.1-15.8c2.1-2.6 7.5 1.4 13.8 6.3" clip-rule="evenodd"/><path fill="#541138" d="M700.5 232.8c.9-6-14.2-28-39.3-24.4-15.7 2.3-22.8 15.7-24 27.8-2.9 28.3 25.8 50.4 52.3 31.2l6.7-26z"/><path fill="#fa8888" fill-rule="evenodd" d="M695.8 237s-11.9-22.6-31.7-19.8c-27 3.9-27.8 59 24.8 48.1 0 0 3.5-5.7 5.7-15.1 2.1-9.5 1.2-13.1 1.2-13.1" clip-rule="evenodd"/><path fill="#fff" fill-rule="evenodd" d="M687 225.7a27 27 0 0 0-22.9-8.5c-19.6 2.8-25.4 32.4-7.2 44.5-12.9-13.5-6.5-38.5 11.4-41 7.4-1.1 13.7 1.4 18.6 5" clip-rule="evenodd"/><path fill="#541138" d="M688.2 249.8s-10-16.3-30.5-15.2c0 0 10.8-4.8 19-1.2 8.3 3.6 11.5 16.4 11.5 16.4"/><path fill="#541138" d="M676.5 237.5s-6.4 9 1 20.1c0 0-13.1-7.3-6.4-22.5l2.5.3zM687.6 195.5a7 7 0 0 1-2.6-4.9c-.7-7 10.1-13.4 15.4-16.7-9.6-12.7 14-24.2 23-27.5l2 .4 1.2.5c7 2.7 11.5 11.3 13.9 18a75 75 0 0 1 3.9 29.2c-1.5 22.3-13 41.3-37.2 43.6h-.8c-11.3-1.3-27.6-5.5-30-18.5-1.6-8.8 3.2-18 11.2-24.1"/><path fill="#835d63" fill-rule="evenodd" d="M725.7 152.6c-3.9 1.4-32.1 12.1-18 22.4-3 2.8-26.3 13.6-11.7 19.2-14.3 11.1-21.7 33.4 12.4 37.2 44.3-4.2 35-72 17.3-78.8" clip-rule="evenodd"/><path fill="#541138" d="M811 98.1c.1 0-60 1-86.6 27.4-9.4 9.3-11.3 17.8-13.4 29.7-1.5 8.4-4 16.9-6.7 23.7-5.8 15-17.5 39.1-39.4 66-15.2 18.6-27.3 31.5-34.7 56-14.4 47.2-13.8 124.4 107 156.6 180 47.9 253.1-84.2 242.4-165 0 0-14.4-74.7-18.1-109.3 0 0-16.9-85.3-150.4-85"/><path fill="#ffc6a1" fill-rule="evenodd" d="M721.7 147v.5l-.1.1v.4l-1.2 5.8a260 260 0 0 1-65.7 118.3s-97.3 147 126.7 183.2 185.2-156.5 185.2-156.5l-9.4-117.2s-2-3-5.9-7.7c-4.7-9-14.8-24.3-33.3-37.9-21.6-15.7-56.5-28.6-97.6-29.3-95.3-1.6-96.6 38.2-98.7 40.3" clip-rule="evenodd"/><path fill="#ffd9b5" fill-rule="evenodd" d="M714 176.1c51.7 4.2 113.6-12.6 68.4-67.4-57.7 7.9-58.9 36.5-60.7 38.3v.5l-.1.1v.4l-1.2 5.8c-1.1 5.1-3.1 12.8-6.4 22.3M809 116.2c6.3 4 10.4 10.2 9 13.6-1.3 3.5-7.5 3-14-1-6.3-4-10.4-10.2-9-13.6 1.3-3.5 7.5-3 14 1" clip-rule="evenodd"/><path fill="#df7e78" fill-rule="evenodd" d="M806.5 246.8s27 8.7 30.3 11c3.4 2.2 19.3 27 24.5 47.5l-35.7 9.3-31.7-19s7.5-47 12.6-48.8" clip-rule="evenodd"/><path fill="#ffd9b5" fill-rule="evenodd" d="M690.8 231.9c26.5 23.6 3.5 26.3-20.6 30 0 0 10.7-24.2 20.6-30" clip-rule="evenodd"/><path fill="#fff" fill-rule="evenodd" d="M721.7 147s-8.4 62.8-67 125c0 0-97.3 147.1 126.7 183.3l5.3.8c-221.8-36.7-125-183-125-183 58.7-62.2 67-125 67-125 1.4-1.4 1.9-18 29.7-28.4a214 214 0 0 1 97.2-9.3c-21.7-3.8-41.4-5-63.4-3-67 6-68.6 37.7-70.5 39.6" clip-rule="evenodd"/><path fill="#df7e78" fill-rule="evenodd" d="M772.3 181.4s33.8 1 41.4 40.4-18 55-18 55-32.8-27.5-30-32c3-4.6 13.6-51.7 6.6-63.4M902.1 197c-11.6 18.6-4.6 25.6 8.3 30.8 0 0 10.5-16.3 9.9-21.5-.5-3.8-11.3-51.6-21.6-59.6-2-1.6-41 53.2 3.4 50.3" clip-rule="evenodd"/><path fill="#df7e78" fill-rule="evenodd" d="M976.1 354c3.7-29.6-1.1-53.9-1.1-53.9L956 190.7c-3.9-27.3-60.6-77-78.5-62-6.2 5.2 6.3 18.3 20.8 61.3 12.7 37.5 9.8 98.9-52.4 106-91.5 10.4 12.7 49.3 22 50.6 7.7 1.1 62.3 33.8 108.1 7.5" clip-rule="evenodd"/><path fill="#541138" d="M658.8 251.6s-32.7 10.6-55 42.3c-5.5 7.7-24.4 44.7-5.6 49-4.7 6.4-16 50 8.5 47.4 0 0-15.7 47.8 21 68.8.4 44.9 32.1 66.2 53.4 67.8 0 0 22.6 28.2 46.8 17a34 34 0 0 0 49.3 8.5c17.6 18.4 59.3 15.9 80.4-18.9 0 0 35.8 19.8 55.2-17.7 0 0 30.4 8.5 49.2-37 0 0 33.4 8.2 46.3-57.2 0 0 29.6-11.7.5-65 0 0 20.6-22.6-9.1-59.8L969 229l-36-.1s5.1 39-24.7 61c.4-27.8-43.3 15-60.7 18L763 295.5l-57-1.6s-38.5-2.3-47-42.3"/><path fill="#855963" fill-rule="evenodd" d="M654.8 265.1c-20 9-41.6 31.6-50.1 51.1-5.3 12.2-5.9 20.4 16 11.1-19.7 15-32.4 74.3 4.3 43.3-4.3 3.9-31.5 59.6 12.2 80-3 16.6 9.7 62.5 48.8 63 6 14.1 28.2 29.8 41.3 14.6 0 0 8 16 23.8 19.3 15.7 3.3 32.7-11.1 32.7-11.1 3.5 13.3 15 16.8 25.1 16.2 22.7-1.5 48.8-29.8 55.7-48l-.3 16.2s32.8 19.4 48.4-30.5c0 0 1.6 8.7 1.3 14.3 0 0 40.4 8.3 43.6-62.4 0 0 2.7 5.5 4 23.6 0 0 38.2 5.3 35-67l8 11.5s19.1-21.6-15-68.9l12.4 6.1s12.8-25.4-21.1-54.2l5.3-2.6-20.4-50.6L941 237c.7 22.8-10.1 55.4-42.4 66.1 2.2-5.8 2.6-11.7.5-12.4-7.6-2.6-42.3 30.6-56.5 33.1l-83.5-22.4-70-5s-23.7-1.9-34.3-31.2" clip-rule="evenodd"/><path fill="#916a6e" fill-rule="evenodd" d="M619.8 393.7c3-14.6 9.4-24.4 14.2-21.8 4.9 2.6 6.3 16.5 3.3 31.2s-9.3 24.4-14.2 21.8-6.3-16.6-3.3-31.2" clip-rule="evenodd"/><path fill="#9c7477" fill-rule="evenodd" d="M668.9 441.8s22.4 51.8 76.5 36.9c0 0-10.5 18.1-37.7 15.3-27.1-2.8-39.6-30-38.8-52.2" clip-rule="evenodd"/><path fill="#9c7477" fill-rule="evenodd" d="m634.5 449.2 2.7 1.4c-.8 4-.6 10 .8 16.6l13 26s57.4-11.5 24-14.3c-33.6-2.8-34.8-48.3-34.8-48.3-3.4 7.7-5 14-5.7 18.6" clip-rule="evenodd"/><path fill="#af8f87" fill-rule="evenodd" d="M654.8 265.1c-20 9-41.6 31.6-50.1 51.1-5.3 12.2-5.9 20.4 16 11.1-19.7 15-32.4 74.3 4.3 43.3-4.3 3.9-31.5 59.6 12.2 80v-2.8c-.3-6 1-14.3 3.7-18.4-39 5.7-12.7-62.8-8.4-66.7-36.2 26.4-19.7-26-2-42.5-51.2 21.6 9.2-44 24.9-53.6z" clip-rule="evenodd"/><path fill="#653651" fill-rule="evenodd" d="M677.9 292.7q-4.8 5.1-10 11.6s-12.7 5.6-32-10c0 0-3.3 31.3 29 57.3 0 0 9.7 8.5 24.7 7.5 0 0 17-4.8 36.6-37.8 10 5.2 27.6 8.6 35.8-1.6 0 0 10.4 14.4 36 4.8 0 0 16.4 36.2 38.5 49.2 0 0 62.9 7 75.2-58.7 0 0-21.2 11.3-42.4 11.3 0 0-2.9-5.3-7.5-12.8a61 61 0 0 1-19.2 10.2l-83.5-22.4-70-5s-4.9-.4-11.2-3.6" clip-rule="evenodd"/><path fill="#653651" fill-rule="evenodd" d="M637.2 450.6c-3 16.6 9.7 62.5 48.8 63 6 14.1 28.2 29.8 41.3 14.6 0 0 8 16 23.8 19.3 15.7 3.3 32.7-11.1 32.7-11.1 3.5 13.3 15 16.8 25.1 16.2 22.7-1.5 48.8-29.8 55.7-48l-.3 16.2s32.8 19.4 48.4-30.5c0 0 1.6 8.7 1.3 14.3 0 0 40.4 8.3 43.6-62.4 0 0 2.7 5.5 4 23.6 0 0 38.2 5.3 35-67l8 11.5s19.1-21.6-15-68.9l12.4 6.1s12.8-25.4-21.1-54.2l5.3-2.6-20.4-50.6-17-2.2-8.5 11.5c-.4 3-2.3 14.7-10.8 29.8 14.6 18 19.4 56.5-15.8 68.2 0 0 10 49-38.6 54.1 0 0 15.4 38.1-28 41.6 0 0-9.3 42.3-57.8 19.9 0 0-17.7 28.8-44 16 0 0-39.7 26.4-67.7-12.1-2.4 5.4-.5 7.7-3.7 9.5-15.2 8.7-37.1-9.5-36.7-25.8" clip-rule="evenodd"/><path fill="#541138" d="M683.9 290.4c-9-7-9-21.8-13.2-24-2-1-13.1 2.4-6.9 19.3l9.1 4s10.5.2 11 .7"/><path fill="#855963" fill-rule="evenodd" d="M663.5 287s.9-14.5 4.6-14.3c3.8.2 1.3 6.3 8.7 17.8s-15.3 1.7-13.3-3.5" clip-rule="evenodd"/><path fill="#916a6e" fill-rule="evenodd" d="M760 332.4c19.3 0 34.7 8.3 34.7 15.2s-15.4 8.9-34.7 8.9c-19.2 0-35.1-2-35.1-9 0-6.8 15.9-15 35.1-15" clip-rule="evenodd"/><path fill="#541138" d="M893 163.3c-4.3 6.9-8.8 16.5-4.8 21.7 4.8 6 21 6.2 25.2 3.4 0 0-11.4 17.7 7 25.4 0 0-10.2 9.3 2.2 19.7-4.9 9.6-1.5 18.6 3 21.8 6.4 4.3 17.8-.8 21.4-14.8l26-2 .6-23.9c.5-15 .5-24-14.3-38.5-10-9.8-24-20-45.2-21.4-11-.8-15.5-.5-21.1 8.6"/><path fill="#855963" fill-rule="evenodd" d="M905.7 161.5s-14 13.6-9 19.6 33.2-3.7 33.2-3.7-16.3 11.3-10.5 24.7 27.5 2 27.5 2-1 8.2-17.6 11.5c-9.5 6.5-1.8 18.7 9.3 14.5 0 0-1.3 5-9.2 5-1.8 7.1-.8 11.6 1.4 13.3 5.5 4.5 18.6-5.1 23.6-8l11-14.9-4.6-28.7s-13.8-35.4-55-35.3" clip-rule="evenodd"/><path fill="#653651" fill-rule="evenodd" d="M905.7 161.5c-18 24.4 9.7 21.4 24.2 15.9-14.3 11.4-5.6 38.9 17 26.7 0 0-1 8.2-17.6 11.5-2.6 8.4 2.2 15.5 9.3 14.5 0 0-1.3 5-9.2 5 1 16.2 16.2 10.3 25 5.3l11.4.5c0-15.5 3-44.2-6.4-54.7a69 69 0 0 0-53.7-24.7" clip-rule="evenodd"/><path fill="#541138" d="M696.6 527.5s-13.4-10.1-17.4-39.6c0 0-6.2 12.5 2.1 37.5l10.8 6.3s5-5 4.5-4.2M761.4 547.8s23.6-6.3 40-31.2c0 0-2.8 20.3-21.7 35l-16 2s-2.4-6.8-2.3-5.8M741.8 543.7s-15-12.3-22.5-37.8c0 0-2.2 16.4 6.7 35.9l10.9 5.7s5.5-4.5 5-3.8M641 478.6s-7.8-15-.3-49.2c0 0-13.4 14.5-12.2 36.4l7.4 13z"/><path fill="#653651" fill-rule="evenodd" d="M749.9 457s22.3 20.2 42.9 12.6 21.4-32.5 21.4-32.5-18.3 29.9-64.3 20M908.9 382.9S887 407 847.1 395.4c0 0 14 19.5 49 14.3C931.3 404.5 909 383 909 383M668.9 441.3s2.4 24.7 20.6 38.8l-18.2 1.3s-8.7-15.4-2.4-40" clip-rule="evenodd"/><path fill="#ffd9b5" fill-rule="evenodd" d="M864.3 255c8.3-7 15-12.6 18.2-9s1.6 15-6.7 22c-8.2 7.2-19.8 7.2-23 3.6s3.3-9.5 11.5-16.6" clip-rule="evenodd"/><path fill="#621a40" fill-rule="evenodd" d="M896.2 254a6.7 6.7 0 0 1 0 13.4c-3.8.1-6.8-2.9-6.8-6.6s3-6.7 6.8-6.7" clip-rule="evenodd"/><path fill="#703c4f" fill-rule="evenodd" d="M896.2 255.6c2.4 0 4.3 1.4 4.3 3 0 1.8-2 3.2-4.3 3.2-2.4 0-4.3-1.4-4.3-3.1s2-3.1 4.3-3.1" clip-rule="evenodd"/><path fill="#df7e78" fill-rule="evenodd" d="M859.5 226.7c0 20.2-14.7 28.1-30.1 28.1s-26.7-12.2-28-29.4a32.5 32.5 0 0 1 28.3-35c16.4-1 29.8 16 29.8 36.3M746.2 224.2C745 237 733.7 245 721.5 245c-12.3 0-21.3-9-20.1-21.6a28 28 0 0 1 24.9-25c11.8-.6 21.6 8.8 20 26" clip-rule="evenodd"/><path fill="#541138" d="M744.2 227.2a19.4 19.4 0 0 1-20.1 19.4c-10.7 0-19.2-8.4-19-20.3.2-14 10.5-22.8 19.8-23.4 10.3-.7 19.5 8.2 19.3 24.3"/><path fill="#abc" fill-rule="evenodd" d="M738.6 226.5a14 14 0 0 1-14.4 13.8c-7.6 0-13.7-6-13.6-14.4.2-10 7.6-16.3 14.3-16.8 7.3-.4 13.8 6 13.7 17.4" clip-rule="evenodd"/><path fill="#fff" fill-rule="evenodd" d="M729.4 221c0 5.8-4.4 10.6-9.3 11.8s-9-1.9-9-7.8c.1-7 5-12.5 9.3-13.9 4.7-1.5 9 1.8 9 9.8" clip-rule="evenodd"/><path fill="#541138" d="M729.7 214.7c4 0 7.3 3.7 7.3 8.3-.1 4.5-3.5 8.3-7.5 8.3s-7.3-3.8-7.2-8.3 3.4-8.3 7.4-8.3"/><path fill="#fff" fill-rule="evenodd" d="M728.8 216.7c1.5.6 2 2.9 1.2 5.3-.9 2.3-2.8 3.9-4.3 3.4s-2-2.9-1.1-5.3c.8-2.3 2.7-3.9 4.2-3.4" clip-rule="evenodd"/><path fill="#541138" d="M855.4 229.5c0 16.5-12 22.9-24.5 22.9s-21.7-10-22.8-23.9a26.4 26.4 0 0 1 23-28.5c13.4-.7 24.3 13 24.3 29.5"/><path fill="#abc" fill-rule="evenodd" d="M848.6 228.8c0 10.5-8.2 17.2-17.6 17.2s-17.2-7.5-17.2-18c0-12.5 9.1-20.3 17.4-20.8 9-.6 17.4 7.3 17.4 21.6" clip-rule="evenodd"/><path fill="#fff" fill-rule="evenodd" d="M837.5 221.7c0 7.2-5.4 13.1-11.5 14.7s-11-2.4-11-9.7c.1-8.5 6-15.4 11.4-17 5.8-2 11.2 2.2 11 12" clip-rule="evenodd"/><path fill="#541138" d="M836.5 214.1c5.3 0 9.6 4.9 9.7 10.9s-4.3 10.8-9.5 10.8-9.7-4.9-9.7-10.8 4.2-10.9 9.5-10.9"/><path fill="#fff" fill-rule="evenodd" d="M835 216.4c2 .7 2.9 3.7 1.8 6.6-1 3-3.6 4.9-5.6 4.2s-2.8-3.7-1.7-6.7 3.6-4.8 5.6-4.1" clip-rule="evenodd"/><path fill="#df7e78" fill-rule="evenodd" d="M815.8 252.8a25 25 0 0 0 47-11.8s-13.7 18-47 11.8" clip-rule="evenodd"/><path fill="#ffc6a1" fill-rule="evenodd" d="M810 246s5.8 13 26.3 11.5c20.6-1.5 29-18.3 29.2-20.7 0 0-31.7-7.3-55.4 9.3" clip-rule="evenodd"/><path fill="#541138" d="M815.5 252.6s10.6 10.8 24.5 9c13.9-2 19.7-15.4 19.7-15.4s-17.2 18-44.2 6.4M808 247.3s31.7-10.5 60.7-9.8a58 58 0 0 0-60.7 9.8"/><path fill="#ffd9b5" fill-rule="evenodd" d="M838 241.1c10.5-1.6 19-.5 19 2.5s-8.5 6.7-19 8.3-19 .6-19-2.4 8.6-6.8 19-8.4" clip-rule="evenodd"/><path fill="#df7e78" fill-rule="evenodd" d="M711.3 247.8s3.7 9.4 14.8 13.2c10.2 3.6 19.5-11.1 20.4-19.5-6.2 9.4-20.9 19.9-35.2 6.3" clip-rule="evenodd"/><path fill="#ffc6a1" fill-rule="evenodd" d="M747 239.6s-20.2-6.2-41.7-.4a23 23 0 0 0 15.5 13.7c11.5 3.2 26.1-8.6 26.3-13.3" clip-rule="evenodd"/><path fill="#541138" d="M711 247.6s9.3 10.4 20.6 8.6c11.2-1.8 15-14.9 15-14.9s-13.7 17.6-35.5 6.3M704.3 239.5c9.4-7 36.8-12.1 43.3.3 0 0-19-4-43.3-.3M702 302s67.8 12 116-4.8l3.4 2.4c18.7 70.4-84.1 74.2-124.2 34.9-1-1.6.9-.3 2.2.5 3.8 2.5 11 4.7 11 4.7 12.3-8 13.1-12.8 9.4-30.3 0 0-20.2-6-17.8-7.4"/><path fill="#67244c" fill-rule="evenodd" d="M726.6 310.9c3.2 15.3.4 23.6-9.4 30.3 35.7 19.7 107.3 19.2 98.4-37 0 0-35.3 12.3-89 6.7" clip-rule="evenodd"/><mask id="b" width="100" height="49" x="717" y="304" maskUnits="userSpaceOnUse" style="mask-type:luminance"><path fill="#fff" d="M726.6 310.9c3.2 15.3.4 23.6-9.4 30.3 35.7 19.7 107.3 19.2 98.4-37 0 0-35.3 12.3-89 6.7"/></mask><g mask="url(#b)"><path fill="#541138" d="M724.5 336.4s3.5-4.3 15.8-4.8l1 14.5s-16.7-2.4-16.8-9.7"/><path fill="#b4b7c0" fill-rule="evenodd" d="M727.6 338.4s1.9-3 10-3.6l.9 9.4s-10.8-.9-10.9-5.8" clip-rule="evenodd"/><path fill="#541138" d="M742.6 342.4s5-15.6 24-10c0 0 6.8-8.5 18.7-7 11.8 1.7 18.9 11.8 18 18.2-1 6.4-45.4 15.2-60.7-1.2"/><path fill="#ab2e52" fill-rule="evenodd" d="M746.7 343.3s2.6-11 18.1-7.6c0 0-2 2.2-3 5.7 0 0 10.5-13.8 23.5-11.8s15 15.2 15 15.2-21.7 10.5-53.6-1.5" clip-rule="evenodd"/><path fill="#e7596a" fill-rule="evenodd" d="M776.6 331c5-1.8 11-.9 11.8 1 2.2 4.6-17 8.8-19.2 5.1-.7-1.2 2.4-4.3 7.4-6.1" clip-rule="evenodd"/><path fill="#802143" fill-rule="evenodd" d="M746.7 343.3s.2-1 1-2.2c5.2.9 9.8.8 14 .9 4.2.3 12.5.2 20.2-1.7 1.5-.3 6.6-.7 14.2-4.7 3.5 4.3 4.2 9.2 4.2 9.2s-21.7 10.5-53.6-1.5" clip-rule="evenodd"/><path fill="#541138" d="M728.2 310.3s4 9 8.4 12.7c0 0 43 7.3 72.2-9.3l1.6-9.8s-42.7 11-82.2 6.4M722.4 348.3s21.6 12.6 49.4 12.8c27.8.1 39.3-13.5 39.3-13.5-1.7-3.2-3.5-7.3-5.1-10.5-22.8 8.1-56.9 9.4-81.5-.7z"/><path fill="#fff" fill-rule="evenodd" d="M727.2 340.9s33.3 14.1 77.2.8l2.5 4.4c-19.2 17.3-63 11-80.5-.1z" clip-rule="evenodd"/><path fill="#b4b7c0" fill-rule="evenodd" d="m795.3 344.1 9-2.4 2.6 4.4c-19.2 17.3-63 11-80.5-.1v-.4c38.1 15.8 60.7 4.4 68.9-1.5" clip-rule="evenodd"/><path fill="#fff" fill-rule="evenodd" d="M733 311c1 1.8 3.5 5.9 5.6 8.3 0 0 38.7 6.4 66.6-8l.6-4.9c-16 3-41.4 6.1-72.9 4.5" clip-rule="evenodd"/><path fill="#b4b7c0" fill-rule="evenodd" d="m733 311 2.5 4c8.8 1 34.2 3 69.8-4.5l.5-4c-16 3-41.4 6-72.9 4.4" clip-rule="evenodd"/><path fill="#e7596a" d="M757.4 339.8c2.4-.3 4.2-1.5 4-2.7-.2-1.1-2.3-1.8-4.8-1.4-2.4.3-4.2 1.5-4 2.7.3 1.1 2.4 1.8 4.8 1.4"/><path fill="#541138" d="M796.3 334s-4.7 4.2-14.7 6.4a49 49 0 0 0 17.4-3.8c.4-2.8-2.7-2.6-2.7-2.6M824.6 307c-3.1-2-10.1-6.5-15.2-8.7-2.3-1-4.7-2.2-4.6-2.7.5-1.2 8-2.1 14.2 1.4 2.7 1.6 8.1 7.1 7.9 10.8q.2.9-2.3-.8"/></g><path fill="#541138" d="M824.6 307c-3.1-2-10.1-6.5-15.2-8.7-2.3-1-4.7-2.2-4.6-2.7.5-1.2 8-2.1 14.2 1.4 2.7 1.6 8.1 7.1 7.9 10.8 0 .5-.5.4-2.3-.8"/><path fill="#541138" d="M738.7 267a63 63 0 0 0-29-9.3s-14.5-1-47.3 39c0 0-12.7 5.6-32-10 0 0-3.3 31.3 29 57.4 0 0 9.7 8.5 24.8 7.4 0 0 16.9-4.8 36.5-37.7 10 5.1 27.6 8.6 35.8-1.6 0 0 16.1 14.3 41.7 4.8 0 0 13.8 37.8 35.9 50.8 0 0 60.2 2 72.1-60.4 0 0-16.4 10.9-37.6 10.9 0 0-18.3-32.4-38-51 0 0-16.3-5.7-43.7 1.5-15.4 4-33.6 7.2-48.2-1.7"/><path fill="#9c7472" fill-rule="evenodd" d="M641.1 303.4s9.4 30 39.3 39.3c0 0 18.3-6.6 32.8-34.3 0 0-8.7-7.1-13.6-16 0 0 21.4 16.7 35.3 18.5 13.8 1.7 18.4-4.7 18.4-4.7s-6.2-7.2-7.2-9.7c0 0 16.8 14.8 30.5 15.5 13.7.8 22.7-9.4 22.7-9.4s14.5 37 39.2 56c0 0 42.7-1.8 56-38.2 0 0-11.6 5.3-29.1 4.5 0 0-22.9-36.7-41.2-51 0 0-15.6-5-50.2 5l-14 1.8-13.5-2.2s-21.5-11.1-38.4-13.3c-15.5 7.7-32 27-40 41.1 0 0-8.7 2.8-27-3" clip-rule="evenodd"/><path fill="#ba9282" fill-rule="evenodd" d="M732.6 272.2c-7.4-2.9-16.5-6-24.5-7-14.2 7-29.1 23.7-37.7 37.4 7.6-9 32-34.2 62.2-30.4" clip-rule="evenodd"/><path fill="#7f4d5a" fill-rule="evenodd" d="M799.6 303.4c2.1 5.2 16.2 37.7 38.9 55.3 0 0 42.3-1.9 55.7-37.7a68 68 0 0 1-51 22.4s-27.2-17.3-43.6-40M641.3 304c1.5 4.2 11.7 30.2 39 38.7 0 0 18.4-6.6 32.9-34.3 0 0-2.8-2.2-6-5.8-2.3 3.3-30.5 42.2-65.9 1.4M802.7 273.1c-24 2.3-41.2 11.7-65 1.3 5.8 6.5 31 30.5 65-1.3" clip-rule="evenodd"/><path fill="#541138" d="M893.6 318.3s-9.3 16.4-34.6 23.7c0 0 22.7-.7 38.3-18l1.2-4zM641 302s11.5 14.2 24.6 19.5c0 0-11.5-.8-26-11.3l-2.2-5s-1.7-5.6 3.6-3.2M765.7 200.8s-30.1 11.8-38.5 37.9c-15.4 48.4 55.8 59 73.6 19.6l-11.4-64.4c3-7.6-33.6-12.9-30.7-8.8a43 43 0 0 1 7 15.7"/><path fill="#fa8888" fill-rule="evenodd" d="M780.8 199.5s-52.6 22.6-47.7 56.3c0 0 1 6.7 6.2 12.1 14.3 15 52.8 5 63.2-10.1 7.3-27.8 6-46.7-.5-58.5-14.3-26.6-50.6-19.6-42.5-13.5 4.3 3.2 10 8.3 12.8 13.5 0 0 4.9-.1 8.5.2" clip-rule="evenodd"/><path fill="#fba095" fill-rule="evenodd" d="M765.9 207.9s13.3 39.1-29 45.8l-.1-8.2s3.7-21 29-37.6" clip-rule="evenodd"/><path fill="#fbc2b3" fill-rule="evenodd" d="M779.8 200c-7.2 3.3-51.2 24.8-46.7 55.8 4.6 14.8 13.6 13.8 26.3 14.2-16.5-3-23.5-10.6-17.4-29.8 8.2-25.7 38.1-40.2 38.1-40.2z" clip-rule="evenodd"/><path fill="#d9576e" fill-rule="evenodd" d="M733.2 256.4c.4 1.7 1.8 7 6.1 11.5 13 13.7 46 6.7 59.7-6 4-3.9 4.8-6.9 5.3-11.2-4.8-5.3-13.6-12.2-25.1-9.3-7.4 2-12.8 6.7-18.7 10.6-7.1 4.8-20.2 10.8-27.3 4.4" clip-rule="evenodd"/><path fill="#b03259" fill-rule="evenodd" d="M793.4 254.4s-10 12-26 13.5c0 0 1.7-7.8 9.2-12.2 7.6-4.4 16.8-1.3 16.8-1.3" clip-rule="evenodd"/><path fill="#541138" d="M765.9 271s11.5-22.1 30.2-15.3c0 0-6.3-8.4-16.8-5.6s-13.4 21-13.4 20.9"/><path fill="#fba095" fill-rule="evenodd" d="M786 221.7c7 0 12.7 6.6 12.7 9.5s-5.6 1.3-12.7 1.3-12.7 1.7-12.7-1.3 5.7-9.5 12.7-9.5" clip-rule="evenodd"/><path fill="#541138" d="M803.3 186.9s-3.9 13.7 6 14 24.8-14.7 53.1 1.4c0 0 3.7 1.4 6.5-2 1.9-2.3 1.4-20-10.3-31.4-21.5-21-49.6-6.7-55.3 18"/><path fill="#835d63" fill-rule="evenodd" d="M863.9 192.2c-1.1-12.9-13-26.8-27-27.2-18.6-.5-31.8 25.1-26.7 29.4 1.1 1 2.6.2 5.7-1 15-7 26.4-8.2 42-.1 4.2 2.1 6.3 3 6-1" clip-rule="evenodd"/><path fill="#653651" fill-rule="evenodd" d="M861.8 190.6a28 28 0 0 0-14.6-21.5l-.4 1.4c-.6 4.3-2.8 11-10.2 16.3a37 37 0 0 1 20 4.7c3.7 2 5.5 2.7 5.2-.9" clip-rule="evenodd"/><path fill="#9c7977" fill-rule="evenodd" d="M831.8 169.9c2.5 2.3.7 8.2-4 13.1s-10.5 7.2-13 4.9c-2.5-2.4-.7-8.2 4-13.2s10.5-7.1 13-4.8" clip-rule="evenodd"/><path fill="#541138" d="M700.8 188.7s-3.2 11 4.8 11.4c8 .3 20.4-12.5 43.4.7 0 0 2.8 1.5 5-1.2 1.6-1.9 2-16.5-7.4-25.8-17.5-17-41.1-5.2-45.8 14.9"/><path fill="#835d63" fill-rule="evenodd" d="M750 193c-1-10.5-10.6-21.8-22-22.1-15-.4-25.7 20.4-21.6 23.9 1 .8 2.1.1 4.7-.8 12.1-5.7 21.4-6.7 34-.2 3.5 1.8 5.1 2.5 4.9-.8" clip-rule="evenodd"/><path fill="#653651" fill-rule="evenodd" d="M747.8 191.2a24 24 0 0 0-12.5-18c-.5 3.8-2.2 9.7-7.3 14.8 4.9-.2 9.8 1 15.5 4 3 1.6 4.6 2.2 4.3-.8" clip-rule="evenodd"/><path fill="#9c7977" fill-rule="evenodd" d="M726.1 174.2c2 2.2 0 7.1-4.3 11-4.4 4-9.6 5.5-11.6 3.3s0-7.1 4.4-11 9.6-5.5 11.5-3.3" clip-rule="evenodd"/><path fill="#541138" d="M946.1 256.3c-2.1-8 10-41.7 43.4-37 20.8 3 32.1 20.6 35.6 36.5 8 37-28.5 62.7-63.6 40.7l-12.8-34z"/><path fill="#fa8888" fill-rule="evenodd" d="M945.5 256.3s13-31.9 41.1-27.9c32.3 4.6 42.7 57.3 7 67.5a73 73 0 0 1-33.8 0c-11.1-7.1-17.9-26.7-14.3-39.6" clip-rule="evenodd"/><path fill="#fbc2b3" fill-rule="evenodd" d="M959 237.4c6.7-6 15.8-10.6 27.6-9 29.1 4.1 40.4 47.3 16.4 63.3 18.7-18 7-56.3-20.3-60.1a32 32 0 0 0-23.7 5.8" clip-rule="evenodd"/><path fill="#d9576e" fill-rule="evenodd" d="M945.5 256.3s8.4-20.6 26.3-26.6c-5.4 11-20.6 48 6 68.2q-8.4 0-18-2c-11.1-7.1-17.9-26.7-14.3-39.6" clip-rule="evenodd"/><path fill="#d9576e" fill-rule="evenodd" d="M996.7 251.7s13.8 30.3-21.3 33.2c0 0 10-13 3-24.4-6.9-11.5-6.4-6.5-6.4-6.5s13.2-7.2 24.7-2.3" clip-rule="evenodd"/><path fill="#541138" d="M958.1 274.2s11.6-26.9 43.2-21.3c-18.6-14.3-44.2-6.3-43.2 21.3"/><path fill="#541138" d="M972.5 256.9a26 26 0 0 0 2 28.2s17.2-10.2 5.3-31.6l-3.5.4z"/><path fill="#653651" fill-rule="evenodd" d="M942.8 264.8s6.5-7.7 8.2-4.2-.2 21.3-.2 21.3 4.4-5.5 6.6-4.1c1.8 1.1 3.6 10.8 2.8 19.2-.5 4.5-26-10.3-17.4-32.2" clip-rule="evenodd"/><path fill="#fbc2b3" fill-rule="evenodd" d="M971.6 262c2-.1 3.9 3.4 4.4 7.8.4 4.5-.8 8.3-2.7 8.5s-3.8-3.3-4.3-7.8.7-8.2 2.6-8.4" clip-rule="evenodd"/><path fill="#541138" d="M732.8 89.6c8.2-7.2 14-15.6 16.3-32.7.7-5 .2-6.1 2.7-.1 9.8 23.5 27.9 27 27.9 27s-45.3 11.7-46.9 5.8M902.6 104.3c-6-10-10.1-21.3-9.2-41.4.3-6 1.1-7.2-3-.7-16.3 25.2-39.9 25-39.9 25s49 23.5 52 17M992.4 157.8a63 63 0 0 1 5-41.5c2.7-5.5 4-6-2.6-1.9-23.7 14.5-48.4 9.1-48.4 9.1s40.6 39 46 34.3"/><path fill="#541138" d="m686.9 63.7 11.8 40.4.5 12.8 5.4 8q3.9 13.5 7.3 26.4s129-49.3 260.7 58c0 0 4-9.6 12-20.8l13.1-4.9 5-14.6q7.9-7.7 18.6-15.4c13.7-9.7 18-8.2-2-8-14 0-31.9-2.5-44.7-13.7-10.8-9.4-18.5-24.7-12.3-50.8 2.5-10.4 5.2-12.5-7.9-5-17 9.7-52.1 21-76.3 10.5-25-10.7-43-52-49.1-75-4-14.6-2.7-16.4-9.8.2-10.3 24-33.7 63.6-66 66.6-28 2.7-47.8-7-59.1-17.4-12.2-11.1-11.3-11.6-7.2 2.7"/><path fill="#fac761" fill-rule="evenodd" d="m698.2 74.8 21.7 64.6s125.7-38.2 249.8 55.5c0 0 16.3-27.3 39.8-42.2 0 0-69.7 1-54.6-67.8 0 0-36.6 21.3-73.8 13.3S823.5 20 823.5 20 787 130 698.2 74.8" clip-rule="evenodd"/><path fill="#ffff8a" fill-rule="evenodd" d="m698.2 74.8 21.7 64.6s9.2-2.8 25-5a89 89 0 0 0 7.4-44.5c-15.3 1.7-33.3-2.1-54.1-15" clip-rule="evenodd"/><path fill="#ec774b" fill-rule="evenodd" d="M924.9 96.5a97 97 0 0 1-43.8 1.7C844 90.2 823.5 20 823.5 20l-.2.5c1.6 11 16 96.2 80 85.3 10.5-1.9 17.4-5.1 21.6-9.3" clip-rule="evenodd"/><path fill="#fff" fill-rule="evenodd" d="M823.5 20.2V20s-36.1 109-124.3 55.4A65 65 0 0 0 756.5 95c32.7-4.8 57.4-36 67-74.8" clip-rule="evenodd"/><path fill="#ec774b" fill-rule="evenodd" d="M879.6 145.3a292 292 0 0 1 88.3 46s10.6-23 32.6-37c0 0-64.8.1-50.8-64.2 0 0-20.2 12.7-48.8 12.5a169 169 0 0 1-21.3 42.7" clip-rule="evenodd"/><path fill="#ffff8a" fill-rule="evenodd" d="M711.6 114.6c31-9.3 150.5-35.9 277 55.8l-4.4 5c-124-89.6-240.5-63.5-270.5-54.6z" clip-rule="evenodd"/><path fill="#ce5a4d" fill-rule="evenodd" d="M708.6 110.9c.4-.2 136.3-49.9 281 59.8l-4.2 5.2c-141.7-107.5-274.1-59-274.5-58.8z" clip-rule="evenodd"/><path fill="#541138" d="m704.8 94.4 22.6 15.2-10.4 21-9.8-17.7z"/><path fill="#f25156" fill-rule="evenodd" d="m707.4 102.3 13.5 9-6.2 12.5-8.4-9z" clip-rule="evenodd"/><path fill="#fff" fill-rule="evenodd" d="m707.4 102.3 13.5 9-14.6 3.5z" clip-rule="evenodd"/><path fill="#541138" d="m1002.5 159.9-27 4.6.6 23.3 16.4-12z"/><path fill="#ac1a48" fill-rule="evenodd" d="m996.8 166-16.2 2.7.4 14 11.7-4.9z" clip-rule="evenodd"/><path fill="#541138" d="m789.1 98.9 26.4-24q.8-.6 1.8-.6 1.1 0 1.6.9l19.5 27q.8 1.3-.3 2.4l-26.4 24q-.7.6-1.8.6-1 0-1.7-.9l-19.4-27q-.8-1.3.3-2.4"/><path fill="#f25156" fill-rule="evenodd" d="m796.6 100.6 14.4 20 19.6-17.7L816 83z" clip-rule="evenodd"/><path fill="#ac1a48" fill-rule="evenodd" d="m796.6 100.6 14.4 20 19.6-17.7z" clip-rule="evenodd"/><path fill="#fff" fill-rule="evenodd" d="m796.6 100.6 17 1.2 2.5-19z" clip-rule="evenodd"/><path fill="#e03454" fill-rule="evenodd" d="m796.6 100.6 14.4 20 2.6-18.8z" clip-rule="evenodd"/><path fill="#541138" d="m910 125.7 25.2-9.4q.8-.2 1.5 0 .6.5.9 1.1l5.7 24.2q.2 1-1 1.6l-25.2 9.4q-.7.2-1.5-.1-.6-.3-.9-1l-5.7-24.2q-.2-1.1 1-1.6"/><path fill="#f25156" fill-rule="evenodd" d="m914.7 129 4.2 17.9 18.7-7-4.2-17.9z" clip-rule="evenodd"/><path fill="#ac1a48" fill-rule="evenodd" d="m914.7 129 4.2 17.9 18.7-7z" clip-rule="evenodd"/><path fill="#fff" fill-rule="evenodd" d="m914.7 129 11.4 5.5 7.3-12.5z" clip-rule="evenodd"/><path fill="#e03454" fill-rule="evenodd" d="m914.7 129 4.2 17.9 7.3-12.5z" clip-rule="evenodd"/><path fill="#fff" fill-rule="evenodd" d="M1139 342.9c4-12 17.9-15.1 28.5-8.6a28 28 0 0 1 13 20c4.3 3.9 7.1 9.8 8.2 15.4 1 5.7.3 12.1-2.8 17.1a36 36 0 0 1-.5 9.3 63.2 63.2 0 0 1-126.2 0q-.7-3.4-.7-6.7.2-11.7 6.8-21.3c5.7-8.6 14.4-15 23.7-19.1a82 82 0 0 1 35.5-6.8l1.5-.6q3.5-1.4 7.1-1 3.3.6 6 2.3M1072.7 251.8h101.2c13.4 0 18.5 7 18.5 13.8s-4.8 13.6-18.5 13.6h-101.2c-12.7 0-17.4-6.6-17.5-13.3 0-7 4.8-14 17.5-14" clip-rule="evenodd"/><path fill="#fff" fill-rule="evenodd" d="M1047.1 217v1l16 54 121.5-.2 16-54c0-3.2-3.2-3.3-5.4-2-12 7.4-25.4 12.8-37.7 19.6l-30.5-32.7c-.5-.6-1.2-1.7-2.8-1.8-2.1-.2-2.5.3-3.4 1.3l-31.9 33-36.2-19.6q-1.5-1-3.4-.5c-1.7.6-1.4.9-2.2 2" clip-rule="evenodd"/><path fill="#fff" fill-rule="evenodd" d="m1163.6 203.2-14 12.4c-1.3 1.5-1.5 1.3.3 3.5l7.8 8.9c.6.8.8 1 2.1.7l13.2-7.1c1.1-.9.2-2-.2-3l-7-14.5c-.4-.7-1-1.6-2.2-1M1080.1 203.8l-7 14.8q-1 1.3.8 2.4c2 1.3 12.3 7 13.6 7.2q1.2-.2 1.8-1.4l8.5-10c.5-1 .2-1.2-.6-2l-13.8-12.1c-1.9-1.7-2.4-.8-3.3 1M1120.9 270.2q2.8-1 5.8-1l14.7-.2q3 0 5.6 1 2.7-1 5.7-1l15-.2q2.5 0 4.8.7 2.3-.7 4.8-.7l39.4-.3q2.8 0 5.4.8l20.3 6.4c7 2.3 12 8.9 12 16.3l.2 9a109.2 109.2 0 0 1-4 30 71 71 0 0 1-25.4 39v3.5c0 9.6-7.6 17.4-17.2 17.5l-18.3.1q-3 0-5.9-1-2.7 1-5.8 1l-20.5.2a47 47 0 0 1-35.3-15.4 55 55 0 0 1-41.3 16h-9.3a17 17 0 0 1-13.3-6.1l-.4.2c-8.2 5.4-18.3 8-28.1 8a56 56 0 0 1-28-7.4 17 17 0 0 1-8.4-14.7l-.1-23.6q0-7.1 4.7-12.1-4.9-8.4-5-18.6a39 39 0 0 1 25.7-38q7.2-2.9 14.5-5.7 6.4-2.7 13.3-4a69 69 0 0 1 26.6 1.2q4.7 1 8.1 4c10-5.6 18.7-5.8 33.8-5.9q3 0 5.9 1" clip-rule="evenodd"/><path fill="#541138" d="M1121.3 282.3q2.1-2.8 5.9-3h14.6a7 7 0 0 1 5.7 2.8 7 7 0 0 1 5.6-2.8h15a7 7 0 0 1 4.1 1.3l.8.5q1.9-1.7 4.7-1.8h39.5l2.2.4 20.2 6.6c3 1 5 3.7 5 6.8v9q.1 4.4-.3 8.8a99 99 0 0 1-3.5 18.2 59 59 0 0 1-26 36.1v9c0 4-3.3 7.2-7.2 7.2h-18.4a7 7 0 0 1-5.8-3 7 7 0 0 1-5.8 3H1157a37 37 0 0 1-35-24.8q-2.1 6.2-6.6 11.4c-8.9 10.1-22 13.4-35 13.4h-9.2a7 7 0 0 1-5.2-2.2 7 7 0 0 1-2-5.4 47 47 0 0 0-.3-9.8l-2.6 3.9a30 30 0 0 1-9.1 9 42 42 0 0 1-22.7 6.3 46 46 0 0 1-22.6-6.1 7 7 0 0 1-3.4-6.1v-23.7a7 7 0 0 1 2.7-5.6l6-4.7a29 29 0 0 1-8.7-20.4 29 29 0 0 1 19.5-28.2q7.1-3 14.4-5.7 5.5-2.2 11.5-3.3c7.7-1.4 15.2-.3 22.8 1.3 3.3.7 5.6 3.6 5.6 7v2.9c12.7-10.8 18-11.3 38.4-11.3a7 7 0 0 1 5.8 3"/><path fill="#541138" d="M1123.6 293v-6.5c0-2 1.6-3.6 3.6-3.6h14.6q2.1 0 3.2 1.8l3.6 6.6h1v-4.8c0-2 1.5-3.6 3.5-3.6h15q1.2 0 2 .6l4 2.8c.1-1.9 1.7-3.4 3.6-3.4h39.5q.6 0 1 .2l20.3 6.6q2.4.9 2.4 3.4l.2 9a96.4 96.4 0 0 1-3.7 26 55 55 0 0 1-26.2 35v11.2c0 2-1.7 3.5-3.6 3.5h-18.4q-2.1 0-3-1.8l-5-9.1v7.4c0 2-1.7 3.5-3.6 3.5H1157c-18.4 0-33.4-15-33.4-33.4zm-106.2 44.2a26 26 0 0 1-10.5-20.6 25.5 25.5 0 0 1 17.1-24.9c21.5-8.2 26-11.9 46.7-7.5 1.7.3 2.8 1.8 2.8 3.5v10.8c16.9-15.3 19.4-15.6 42-15.6q1.5 0 2.6 1.1 1 1 1 2.6v.1c-.4 11.2 1.7 21.1 2.5 31.4.7 8.2.3 16.6-.4 25.7-.7 8.1-3.1 15.6-8.5 21.8-8.2 9.3-20.3 12.2-32.2 12.2h-9.3q-1.5 0-2.6-1.1-1-1-1-2.7.1-3 0-6-.5-7-1.7-14l-7.8 12q-3.1 4.8-8 8c-6 3.9-13.6 5.6-20.8 5.6a43 43 0 0 1-20.7-5.6 4 4 0 0 1-1.7-3v-23.7q0-1.6 1.3-2.8z"/><path fill="#a83e3d" fill-rule="evenodd" d="m1038.7 325.2 15.6-12.3-.4-.3-.3-.2-.4-.2-.3-.2-.4-.2-.3-.3-.4-.2-.3-.2-.4-.2-.3-.2-.4-.3-.3-.2-.3-.2-.3-.2-.3-.2-.3-.3-.3-.2-.3-.2-.2-.2-.3-.3-.2-.2-.2-.2-.2-.2-.2-.2-.2-.3v-.2l-.2-.2-.1-.2-.1-.3v-.4l-.1-.2v-.8l.1-.3.1-.3.2-.3.1-.3.2-.3.2-.3.3-.2.2-.3.3-.2.3-.2.3-.2-16.8 10-.4.3-.4.3-.3.2-.3.3-.3.3-.2.3-.3.4-.1.3-.2.4-.1.4-.1.4-.1.4v1.1l.1.2.1.3.1.3.2.2.2.3.2.3.2.3.2.2.3.3.3.3.3.2.3.3.3.3.4.2.3.3.4.3.3.3.4.2.4.3.5.3.4.2.4.3.4.3.4.2.5.3.4.3.4.2.5.3.4.3z" clip-rule="evenodd"/><path fill="#c15e47" fill-rule="evenodd" d="m1038.9 354.8 15.5-17.7-.2.2-.3.3-.3.1-.2.2-.4.2-.3.1-.3.2h-.3l-.4.2h-.3l-.4.2h-1.1l-.4.1h-1.1l-.4-.1h-.3l-.4-.1-.3-.1-.4-.1-.3-.2-17.3 18 .4.2.4.1.4.1.4.1h.5l.4.1h.5l.4.1h1.9l.4-.2h.5l.4-.2h.4l.4-.2.4-.2.4-.2.4-.2.3-.2.4-.2.3-.3zM1057.9 294.5l12-6.8-5.2-1.1h-.2l-.3-.1h-.3l-.5-.1-.5-.1h-.6l-.6-.1-.7-.1h-.7l-.8-.1h-6.6l-1 .1-1.1.2-1 .1-1.2.2-1 .2-1.1.3-1.1.3-1 .3-1.1.4-18 7 1.3-.5 1.3-.4 1.3-.4 1.3-.3 1.3-.3 1.4-.2 1.3-.2 1.3-.1 1.2-.1 1.3-.1h1.2l1.2-.1h4.3l1 .1 1 .1h.8l.8.2h.7l.6.1.5.1h.5l.3.1h.3z" clip-rule="evenodd"/><path fill="#c15e47" fill-rule="evenodd" d="m1055.2 364 12.5-19.4.3-.4.3-.5.3-.5.2-.5.3-.6.2-.5.2-.5.2-.5.1-.6.2-.5v-.6l.2-.6.1-.5v-.6l.1-.6v-.6l.1-.6v-2.7l-.2-1-.2-1-.2-1-.3-1-.3-.8-.3-.9-.4-.8-.5-.8-.4-.8-.5-.8-.5-.7-.6-.7-.5-.7-.6-.6-.6-.7-.7-.6-.6-.6-.7-.6-.6-.6-.7-.5-.7-.5-.7-.5-.7-.5-.7-.5-.7-.5-.6-.4-.7-.5-.7-.4-.7-.4-.6-.4-15.6 12.3.8.5c13.6 9.3 22.6 22.6 16 37.7z" clip-rule="evenodd"/><path fill="#a83e3d" fill-rule="evenodd" d="m1029 356.3 17.3-18V331l-17.3 16.4z" clip-rule="evenodd"/><path fill="#c15e47" fill-rule="evenodd" d="m1029 347.3 17.3-16.4H1031l-20.7 16.4z" clip-rule="evenodd"/><path fill="#a83e3d" fill-rule="evenodd" d="m1057.9 316.5 12-10.8v-18l-12 6.8zM1117.6 343.5l1.4-15.7v-2.5l.1-1.3v-2.6l-.1-1.3-.1-1.4-.2-1.3v-1.3l-.2-1.3-.2-1.2-.2-1.3-.2-1.3-.2-1.3-.2-1.2-.2-1.3-.2-1.2-.2-1.2-.1-1-.2-1-.1-1-.1-1-.2-.9v-.9l-.2-.9v-.8l-.1-.8-.1-.8v-.8l-.1-.7v-.8l-.1-.6v-1.9l-.1-.5v-3.9l-2.2 6.5v4.8l.1.7v1.4l.1.8v.9l.1.8v1l.2.9v1l.1 1 .1 1 .2 1v1.2l.2 1.1.2 1.2.2 1.2.1 1.2.2 1.2.3 1.5.2 1.5.3 1.5.2 1.5.3 1.6.2 1.5.2 1.6.2 1.6.2 1.6.1 1.5.2 1.6.1 1.6.1 1.6v6.3z" clip-rule="evenodd"/><path fill="#c15e47" fill-rule="evenodd" d="m1113.4 293 2-6.5h-10.7l-1.1.1h-1l-1 .2-1 .1-1 .1-1 .2-.9.2-1 .2-.8.2-.9.2-.8.3-.9.2-.8.3-.8.3-.8.3-.7.4-.8.3-.7.4-.7.4-.7.4-.7.4-.6.5-.6.5-.6.4-.6.5-9 8.2c12.1-8.6 24.6-8 38.1-8.8M1098.2 347.2l4.9-16.3-.2.7-.3.6-.3.7-.4.6-.4.5-.4.5-.1.2-.1.1-.2.1v.2l-.2.1-.2.1-.1.1-.2.2h-.1l-.2.2-.1.1-.2.1-.2.1-.1.1-.2.1-.2.1-.2.1-.2.1-.1.1-.2.1h-.2l-.2.2h-.2l-.3.1-.2.1h-.2l-.2.1-.2.1h-.3l-.2.2h-.5l-6.5 18 .3-.2h.2l.3-.1.3-.1h.3l.3-.2h.2l.3-.2h.2l.3-.2h.2l.3-.2h.2l.3-.2.2-.1.2-.1.2-.1.3-.2h.2l.2-.2.2-.1.2-.2.1-.1.2-.2.2-.1.2-.2.2-.1.1-.2.2-.1.1-.2.2-.1.1-.2.6-.6.4-.7.5-.7.3-.8.4-.8z" clip-rule="evenodd"/><path fill="#a83e3d" fill-rule="evenodd" d="m1088.8 355.5 6.5-17.8v-.5l-.1-.2v-.4l-.1-.2v-.3l-.1-.2v-.4l-.1-.2v-.3l-.1-.2v-.2l-.1-.2v-.5l-.1-.2v-.2l-.1-.2v-.3l-.1-.2v-.2l-.1-.3v-.2l-.1-.2v-.2l-.1-.3v-.2l-.1-.2v-.3l-.1-.2-.2-.8-.2-1-.1-.8-.2-.9-.2-.9-.2-.9-.1-.9-.2-.9-.2-1-.1-.8-.1-1-.1-.8-.2-1v-.8l-.1-.9-.1-.8v-1.7l-.1-.9v-1.6l.1-.7v-.8l.2-.7.1-.7.2-.7.2-.6.2-.6.3-.6.3-.5-7 10.9-.4.6-.3.7-.3.8-.2.8-.2.8-.2.8-.2 1v.8l-.1 1v5l.1 1 .1 1.1.1 1.1.2 1 .1 1.2.2 1 .2 1.2.1 1.1.2 1.1.2 1.1.3 1.1.2 1.1.2 1.1.2 1 .2 1.1.2 1v.4l.2.2v.6l.1.3v.3l.2.2v.6l.1.3v.3l.1.2v.3l.1.3.1.2v.3l.1.3v.3l.1.2v.3l.1.3v.2l.1.3v.3l.1.3v.2l.1.3v.3l.1.2v.3l.1.2zM1159.2 293l-6.1-6.5v51.3l6.1 18z" clip-rule="evenodd"/><path fill="#c15e47" fill-rule="evenodd" d="m1159.2 355.7-6.1-17.9h-1.7l-.6-.2-.5-.1-.5-.2-.6-.1-.5-.2-.5-.3-.5-.2-.4-.3-.5-.3-.4-.3-.5-.3-.4-.4-.4-.4-.3-.3-.4-.5-.3-.4-.3-.4-.3-.5-.3-.4-.2-.5-.3-.5-.2-.5-.2-.6-.1-.5 3.7 16 .2.7.3.6.2.6.3.6.3.6.3.6.4.6.3.5.5.5.4.5.4.5.5.5.5.4.5.4.6.4.5.3.6.4.6.3.6.2.6.3.7.2.6.2.7.1.7.2h.6l.7.1zM1145.5 293l-3.7-6.5h-14.6v6.5zM1177.6 293l-9.4-6.5H1153l6.1 6.5zM1237.4 293l-20.2-6.5h-39.5l11.5 6.5z" clip-rule="evenodd"/><path fill="#a83e3d" fill-rule="evenodd" d="m1189.2 293-11.5-6.5V353l11.5 21.2zM1218.4 311.6l-16.8-10-.1.7-.1.7-.1.6-.1.7-.1.7-.2.7-.1.7-.1.8-.2.7-.2.7-.2.8-.2.7-.2.8-.2.8-.2.7-.3.8-.3.8-.2.7-.3.8-.4.7-.3.8-.3.7-.4.7-.4.8-.4.7-.4.7-.4.7-.5.7-.4.6-.5.7-.5.6-.5.6 14.8 15 .6-.8.6-.8.7-.7.5-.9.6-.8.5-.8.5-.9.5-.9.5-.8.4-1 .4-.8.4-1 .4-.9.3-.9.4-1 .3-.8.3-1 .3-1 .3-.8.2-1 .3-.9.2-.9.2-1 .2-.8.2-.9.2-.9.1-.8.2-.9.1-.8.1-.8.2-.8z" clip-rule="evenodd"/><path fill="#541138" d="M1073.5 303.8s10-9.3 29-10.7c0 0-11-3.5-26.6 3l-2 2zM1021 297s10.9-6.2 31.3-3.5c0 0-9.5-5.4-24.9-2.5l-2.4 1.8zM1062.5 317.8s-2 15 5.5 27.8l.8-26.6z"/><path fill="#fad862" fill-rule="evenodd" d="M1038.7 325.2c-4.5-2.8-9.7-5.7-9.7-8.6 0-5 6.8-6.4 11.6-5.7l.9 5.6h16.4v-22l-6.4-1.3c-2.2-.4-22-3.5-33.3 6a22 22 0 0 0-7.8 17.4c0 12.7 10.7 19.4 18.4 24.3 7 4.4 11.2 7.3 11.2 11.1 0 4.5-7 6-11 4.3v-9h-18.6V371s8.3 5 19 5c6.4 0 13.3-1.5 18.7-5a22 22 0 0 0 10.4-19c0-14.3-11.4-21.5-19.8-26.8m71.3 38c11.3-12.8 7.7-32.2 5.1-47.8-2.1-13.4-1.7-22.4-1.7-22.4h-9.3q-21.8 0-31.5 11.5c-10.6 12.5-6.6 31-3.7 45.8 2.9 15 2.3 24 2.3 24h9.3q19.8 0 29.5-11m-13.1-44.8c2 12 4.7 26.8-1 33.3q-2.4 2.6-7.1 3.8l-1.8-8.7c-2.3-11.1-5.1-25 0-31q2.5-3 8.7-4.2zm62.3-25.4v62.7c-7.5 0-13.7-6.1-13.7-13.7v-49h-18.3v51.4a30 30 0 0 0 29.8 29.9h20.6V293zm78.3 9.2-.1-9.2h-48.2v81.3h18.4v-13.4c30.3-13.9 30-56.8 30-58.7m-30 37.3v-28h10.9c-1 8.3-3.8 20.1-10.8 28" clip-rule="evenodd"/><path fill="#ffff8a" fill-rule="evenodd" d="M1127.2 308.6c1.6-9 9-13.9 18.3-13.8V293h-18.3zm32-13.2c9.1 0 15.9 6.5 18.4 20.2V293h-18.4zM1189.2 314.6c1-6.1 4.1-19.3 24.3-19 20.1.1 21.7 10.5 23 19.3 1.1-7 1-12.1 1-12.7l-.1-9.2h-48.2zM1065.7 325.3c2.5-15.7 13.9-28.3 31.3-27.6 15.3.7 16.8 16 20.8 39.8-.2-7.5-1.5-15.2-2.7-22-2.1-13.5-1.7-22.5-1.7-22.5h-9.3q-21.8 0-31.5 11.5a32 32 0 0 0-7 20.8M1057.6 316.5h.3v-22l-6.4-1.3c-2.2-.4-22-3.5-33.3 6a22 22 0 0 0-7.8 17.4c2.5-20 42-32 47.2-.1" clip-rule="evenodd"/><path fill="#f5a151" fill-rule="evenodd" d="M1019.2 334c3.1 2.8 6.6 5 9.6 7 7 4.3 11.2 7.2 11.2 11 0 4.5-7 6-11 4.3v-9h-18.6V371s8.3 5 19 5c6.4 0 13.3-1.5 18.7-5a22 22 0 0 0 10.4-19c0-6-2-10.8-5-14.7-11.3 5-21-4-34.3-3.2m46.6-3.3c5.5-2.6 11-3.7 18.5 0 .5 5.3 1.7 11 2.7 16l1.8 8.8q4.7-1 7-3.8c2.5-2.8 3.4-7.1 3.5-12 7.1 2.6 11.8.1 18.4-4.2.5 10-1 20-7.7 27.8q-9.7 11-29.5 11h-9.3s.6-9-2.3-24c-1.2-6.1-2.6-12.9-3-19.6m61.4-1c7.5-3.4 13-1.5 18.3 1.8V342c0 7.6 6.2 13.7 13.7 13.7v-15.4c5 2.3 10.9 3 18.4-.2v34.2H1157a30 30 0 0 1-29.8-30zm62 3.8c7.8-4 13.6-4.5 18.4-3.6v9.6q3-3.6 5.2-7.9c6 2.6 10.7 6.7 17 6.3a46 46 0 0 1-22.2 23v13.4h-18.4z" clip-rule="evenodd"/><path fill="#d25148" fill-rule="evenodd" d="M1010.4 364.8v6.2c13.5 9.2 41 6.5 47-11.7-19.1.2-23.6 18.2-47 5.5m59.8-6.5c15.1 1 17.8 7.7 36.2 8.4q-9.5 7.5-26 7.6h-9.2s.4-6-1-16m65.5 7c13.8-2.8 20-6.7 41.9-1.6v10.6H1157c-8.3 0-15.9-3.5-21.3-9m53.5 1.3a50 50 0 0 0 18.4 1.6v6h-18.4z" clip-rule="evenodd"/><path fill="#541138" d="M1052.2 335.6s13 17.7-1 33l10.8-7.5s3.2-15.3-9.8-25.5M1016.7 331.6s5.3 5.5 13.5 10c0 0-8.9-2.1-12.8-4.9l-1.3-2.1zM1145.5 326.5v16.1s-.3 8.3 7.1 11.4c0 0-3.8-3.8-3.7-10v-13.5zM1114.2 309.5s6 26.7 2.4 41.5l5.4-7.6s-1.4-19.4-7.8-33.9M1238.5 293H1200l36.2-3.8zM1189.4 350.2v27.4l-4.2-3.8zM1093.6 252.6c1.4-3 1.5-5.8 1.5-6.4v-3.9h-17.8v29.4h6.6v-6.5q2.4.4 3.5 2.8c1 1.8 1 3.7 1 3.7h6.7c0-.3 0-3.3-1.5-6.4q-2.3-4.8-7.1-6.4 4.8-1.5 7.1-6.3m-9.7 0V249h3.9q0 .4-.3.7-1.1 2.5-3.6 3m30.2 15.2q2.9-3.7 2.8-8.3c.1-3-.5-6.2-1-9l-.5-6v-2.2h-3.4q-7.8 0-11.4 4.2c-2 2.3-2.5 5-2.5 8q.2 4.4 1.1 8.6.8 4 .8 6.3v2.3h3.4q7.2 0 10.7-4m-4.7-16.3q.6 3.4.8 6.8.2 3.3-1.2 5.3-.8.9-2.6 1.3l-.6-3.1a47 47 0 0 1-1-6.3q-.3-3.1 1-4.9 1-1.1 3.2-1.5 0 1.2.4 2.4m23.3-9.2-1.7 6.7-1.6 6.7a36.2 36.2 0 0 1-3.5-13.3h-6.8c0 .3.2 3.8 1.3 8.2 1 4.4 3.2 9.6 7 13.3l-1 4-1 3.8h6.7l3.6-14.7 3.6-14.7zm25.7 29.4-1.5-14.7-1.4-14.7h-6.7a40.1 40.1 0 0 0-11.2 26v3.4h3.4a14 14 0 0 0 10.3-4.5l.4 4.5zm-13.9-7.3a36 36 0 0 1 5.2-13l.3 2.5q.3 4-1.3 6.7a8 8 0 0 1-4.2 3.8m24.3.6v-22.7h-6.6v29.4h14.7V265z"/><path fill="#fff" fill-rule="evenodd" d="M1089.4 358.5s-21.6 2.3-27.9 25.5c-5.5 20.4 12.4 3.8 12.4 3.8s15.9-24 15.5-29.3" clip-rule="evenodd"/><path fill="#541138" d="m1145.3 347.1-2.2 6.1-7.1-1.7a6 6 0 0 0-4.3-2.7q-1.5-.2-3 .3-1 .5-2 1.3l-4.4-.1c-9.7 0-19.5 1.8-28.4 5.8a45 45 0 0 0-19.4 15.4 29 29 0 0 0-4.6 21.2 52.1 52.1 0 0 0 87 37 54 54 0 0 0 17.8-37 26 26 0 0 0 .1-10c3.4-3 4-8.5 3.2-12.6-.9-4.4-3.6-10-8-12 .8-6.4-3.3-13.1-8.7-16.5-6.2-3.9-14.5-2.4-16 5.5"/><path fill="#541138" d="M1122.3 354c-27 0-49 14.7-49 33 0 33.3 24.5 52.1 49.3 52 24.2 0 48.7-18.5 48.7-52 0-18.3-22-33-49-33"/><path fill="#b86f55" d="M1122.3 357.1c-25 0-45.3 13.7-45.3 30.5 0 31 22.7 48.3 45.6 48.2 22.4 0 45-17 45-48.2 0-16.8-20.2-30.5-45.3-30.5"/><path fill="#a64f4b" d="M1122.3 357.1c-25 0-45.3 13.4-45.3 29.8a45 45 0 0 0 45.6 47 45 45 0 0 0 45-47c0-16.4-20.2-29.8-45.3-29.8"/><path fill="#b86f55" d="M1145.2 416.1s3.7 3.1 10.9 3.6l1.5-2.3zM1133.6 422.3s2.3 4 12 6.6l2-1.8s-9.8-2.3-14-4.8M1104.4 423.6s6 2.4 7 10.5l3.6-.1s-2.4-7.6-10.6-10.4M1115.4 424.3s5.1 6.7 14 10.3l3.4-1.6s-13.8-5.5-17.5-8.7"/><path fill="#842c3f" fill-rule="evenodd" d="M1139.1 432.6c-8.4-.5-15.5-4-22.5-8.3-9.3-5.6-18.6-11.9-32.7-10.3l1.2 2c13-1 22.4 4 31 9.3 6 3.6 11.6 7.5 18.5 8.8zm-47.3-8.7c9.8-2.5 18.6-.3 23 11.3l2.5.3c-5.8-13-16.5-15.4-27.4-13.5zm58.3 2.4c-13.3-1.8-24.5-6.9-24.8-18.7-.5-4.7-.7-6.5-.5-6.5a16 16 0 0 1 3.4 3c5.5 5.5 15.3 15.3 30 14l1.6-2.4c-16.4 3-25.8-7.1-30.1-13-2.3-2.3-3.9-3.9-5.2-3.7-1.6.2-2 2.6-1.2 8.8 1.4 12 12.3 17.6 24.6 20.2z" clip-rule="evenodd"/><path fill="#541138" d="M1122.3 354.2c-27.2 0-49.2 14.9-49.2 33.2s22 30.3 49.2 30.3 49.3-12 49.3-30.3-22-33.2-49.3-33.2"/><path fill="#dfa566" d="M1122.3 418.4c25.4 0 45.9-13.8 45.9-30.9s-20.5-30.9-45.9-30.9-45.8 13.9-45.8 31c0 17 20.5 30.8 45.8 30.8"/><path fill="#ecca7d" fill-rule="evenodd" d="M1122.3 356.6a63 63 0 0 0-23.9 4.6 215 215 0 0 1 66.3 38.2q3.4-5.5 3.5-11.9c0-17-20.5-30.9-45.9-30.9" clip-rule="evenodd"/><path fill="#a64f4b" d="M1168.2 386.8c-.3-7.9-5-15-12.4-20.4-5.5 3-18.2 13-18.9 14.3-.8 1.5 15.1 24.5 21 14.3 3.4-5.7 7.4-7.6 10.3-8.2"/><path fill="#541138" d="M1122.3 411.8c21.5 0 38.8-11.6 38.8-25.9s-17.3-25.8-38.8-25.8-38.8 11.6-38.8 25.8 17.4 25.9 38.8 25.9"/><path fill="#8c3642" d="M1122.3 411.8c21.7 0 39.3-11.1 39.3-24.8s-17.6-24.8-39.3-24.8-39.2 11.1-39.2 24.8 17.6 24.8 39.2 24.8"/><path fill="#fad862" fill-rule="evenodd" d="M1122.3 371.2c-19.7 0-35.6 10-35.6 22.5q0 2.5.7 4.6c6.6 8 19.7 13.5 35 13.5 15.1 0 28.3-5.5 34.8-13.5q.8-2.1.8-4.6c0-12.4-16-22.5-35.7-22.5" clip-rule="evenodd"/><path fill="#ff6" d="M1113.1 391.2c8.3 0 15-3 15-6.9 0-3.8-6.7-6.8-15-6.8s-15 3-15 6.8 6.7 6.9 15 6.9"/><path fill="#ff6" fill-rule="evenodd" d="M1132.2 403.8c-9.7 0-18 3-20.5 7a61 61 0 0 0 35-4.4 38 38 0 0 0-14.5-2.6" clip-rule="evenodd"/><path fill="#eb8350" fill-rule="evenodd" d="M1157.4 395.8c-1.5-3.5-7.5-6.5-10.3.2l-21.2-11.4s.3-8.6-12.7-6.4l1.7-4.6 24.7 1 13.7 10s2.7 2.4 3.9 7.7c.2.9 0 2.5.2 3.5" clip-rule="evenodd"/><path fill="#eb8350" d="M1096.8 393.2c3.3 0 6-.8 6-1.7 0-1-2.7-1.8-6-1.8s-6 .8-6 1.8 2.7 1.7 6 1.7"/><path fill="#f4b750" d="M1131.4 407.7c4.2 0 7.6-.7 7.6-1.6s-3.4-1.6-7.6-1.6c-4.3 0-7.7.7-7.7 1.6s3.4 1.6 7.7 1.6"/><path fill="#eb8350" fill-rule="evenodd" d="m1101 378.7-2.4.3q-2 .4-2 1.8l.4 5.1c.1 1 .9 1 1.8 1.2l5 1.2h1.6l7-1.8q2.7-.5 2.6-2.4l-.3-3.6c0-.6-.8-1.1-1.5-1.3-1.1-.8-4.5-1.1-6.3-1q-4 0-6 .5M1115.2 399.1l2.1.1q1.9.2 1.8 1.5l.5 4.4q-.2 1-1.5 1.2l-5.5 1q-.8.3-1.5.1l-6.8-1.3q-2.5-.6-2.6-2.5l-.2-3.1c0-.5.9-1.2 1.6-1.4 1-.8 5.3 0 6.8-.1a18 18 0 0 1 5.3.1M1147.1 390l.2 5.3c-.1 2-1.3 2.2-2.6 2.8a86 86 0 0 1-10 2q-1.6.1-9.5-.4c-2.7-.5-4.3-1.6-4.3-4.3l.1-6c.5-.9 9.3-3.3 11.6-3.5l12.7 2.1c1.2.2 2 .3 1.8 2" clip-rule="evenodd"/><path fill="#eb8350" fill-rule="evenodd" d="M1122.3 371.2c-19.7 0-35.6 10-35.6 22.5q0 1.6.3 3.2c2.5-11 17.3-19.3 35.3-19.3s33 8.4 35.4 19.3q.3-1.5.3-3.2c0-12.4-16-22.5-35.7-22.5" clip-rule="evenodd"/><path fill="#541138" d="M1135.3 358.2v-.1c-.1-1-.5-2.2-1.4-2.7l-.4-1c-.5-.9-1.2-1.9-2.3-2l-1 .1q-1.2.6-2 1.7h-.7q-.4 0-.7.2c-.8.5-1 1.8-1.3 2.6q-1.5.2-2.2 1.7-.4.8-.6 2c-1-.8-2.3-1.4-3.4-.4q-1 1.4-.8 3.4l-.6.3c-1 .8-.6 2.6-.3 3.7l-.6.5q-.7 1.3 0 2.6t1.6 2.2c1.8 2 4.4 3.6 7 4.5.3.2.5 1 .5 1.4.4 2.2-.6 5.5-1.3 7.6q-.1.6.1 1.2.4.6 1 .7l2.8.6q.6 0 1.2-.3.5-.4.5-1l.3-4.8q0-1.6.6-3a5 5 0 0 1 2.4-2.3l5.6-3.4c1-.7 2-1.8 1.6-3q0-.6-.4-.9c.8-1 1.8-2.3 1.1-3.6l.4-.6c.6-1.1 1.3-2.7.3-3.8q-.3-.4-.9-.5-1.4-.3-3 .3l-.8-.3c0-1.2-.1-2.5-1.2-3.3q-.5-.3-1-.3"/><path fill="#83ba32" fill-rule="evenodd" d="M1137.5 371s4.2-3.8 1.7-3.7c0 0 2.5-3.5 1.4-3.9s-3 1-3 1 0-2-2 0c0 0 1.4-6-1.7-4 0 0-.2-3.8-1.2-3.1 0 0-.9-3.3-2-2.8s-2 3-2 3-.6-1.6-1-1.3-1 3.5-1 3.5-1-1.7-1.9 0c-.8 1.8-.6 4.6-.6 4.6s-2.7-3.3-3.5-2.6c-.8.8 0 4.8 0 4.8s-1.1-1.4-1.5-1.1.7 4.1.7 4.1-.9-.8-1.3-.3 1.7 4.6 7.6 6.8c0 0 3.3 1 .1 10.4l2.7.5c.4-5.2-.5-8.6 3.8-10.8 3.4-1.8 9.2-5 4.7-5.2" clip-rule="evenodd"/><path fill="#b2d74d" fill-rule="evenodd" d="M1124 364c-.8-.9-2.7-2.9-3.3-2.3-.8.8 0 4.8 0 4.8s-1.1-1.4-1.5-1.1.7 4.1.7 4.1-.9-.8-1.3-.3 1.4 4 6.4 6.2z" clip-rule="evenodd"/><path fill="#5f9137" fill-rule="evenodd" d="M1137 371s4-3.7 1.6-3.6c1.7-1.7 2.5-4.3-1-3 0 0 0-2-2 0-.1.5.4-4.4-2.1-3 0 0 0-4-1.1-3.3 0 0-.5-2.8-1.6-3-.3 5.1-2 26.7-3 31.6l1.2.2c.4-5.2-.5-8.6 3.9-10.8 3.3-1.8 8.5-5 4-5" clip-rule="evenodd"/><path fill="#83ba32" fill-rule="evenodd" d="M1129.3 374.2s7.4-6.8 7-6.7-8 5.4-8 5.4z" clip-rule="evenodd"/><path fill="#5f9137" fill-rule="evenodd" d="m1122.8 365.6 6.6 6.5.8-1.8-.3-.4s-6.3-3.9-7.2-4.3" clip-rule="evenodd"/><path fill="#83ba32" fill-rule="evenodd" d="m1134.6 362.2-4.7 3.2-.5-1z" clip-rule="evenodd"/><path fill="#5f9137" fill-rule="evenodd" d="m1126 362.7 4 3.8.6-1z" clip-rule="evenodd"/><path fill="#541138" d="M1165.5 360.6c3-6-1.5-13-6.1-15.9-4.2-2.6-9.6-2.1-10.5 3.3-3.3 11.2-10.6 23.7-21.2 29.2q-1.2.6-1.5 1.8-.5 1.2.3 2.3l3.4 4.7c.7 1.2 1.3 1.9 2.6 1.5 12.8-4 28-14.2 33-26.9"/><path fill="#83ba32" fill-rule="evenodd" d="M1151.9 348.2c-1.2 4.2-7 22.3-23 30.5l3.5 5.8s23.8-7.3 30.6-25.5l-4.4-6.6c-.9-.8-6.1-6.3-6.7-4.2" clip-rule="evenodd"/><path fill="#5f9137" fill-rule="evenodd" d="m1128.3 378.6 2.2 6.3s19.4-5.5 28.2-19.8c3.4-5.6.3-4.7-2.6-.9a33 33 0 0 1-27.8 14.4" clip-rule="evenodd"/><path fill="#b2d74d" fill-rule="evenodd" d="M1150.6 352.1c-2.6 7-8.9 20-21.7 26.6l.3.5c22.2-6.5 21.6-26.6 21.6-26.6z" clip-rule="evenodd"/><path fill="#541138" d="M1151.6 345.7c-2.5 1-2.9 3.4-2 6 1.6 4.1 6.9 8.5 11.3 6.8 2.4-.9 1.4-3.8-1-7.6-2.2-3.7-6-6-8.3-5.2"/><path fill="#d7eb57" d="M1161.9 359.9c-2.4.9-6.1-1.5-8.5-5.3-2.3-3.7-2.2-7.5.1-8.4s6.1 1.4 8.4 5.2 2.3 7.6 0 8.5"/><path fill="#541138" d="M1164 362.3a69 69 0 0 1-29.9 19c-1 .2-1.6 1.4-1.4 2.4l1.4 7.3a2 2 0 0 0 2.4 1.8l3.5-.6a97 97 0 0 0 31.8-11.9c.8-.5 1.5-2 1.3-3l-1.6-7.2-.3-.7-4-6.6c-.3-.6-.5-1.5-1.1-1.6s-1.7.7-2.2 1.1"/><path fill="#83ba32" fill-rule="evenodd" d="M1165.4 364s-10.2 12.6-30.6 19.3l1.5 7.3s19.4-2.2 34.7-12.8l-1.7-7.2z" clip-rule="evenodd"/><path fill="#b2d74d" fill-rule="evenodd" d="M1163.8 365.6a70 70 0 0 1-19 13.7c17.3 1.3 19-13.3 19-13.3z" clip-rule="evenodd"/><path fill="#5f9137" fill-rule="evenodd" d="m1139.2 381.8-3.7 1.4 1.3 6.6s13.5-1.5 26.2-8.3c4.1-2.1 3.3-2.9-.7-1.9-8 2-16.3 3.2-23 2.2" clip-rule="evenodd"/><path fill="#541138" d="M1166.6 361c-3.4-.1-3.5 4.1-2.5 9.5s3 10.3 6.1 10.3 5.2-4.6 4.2-10-4.4-9.8-7.8-9.8"/><path fill="#d7eb57" d="M1169.7 378.2c-2.3 0-4.8-3.3-5.6-7.4s.5-7.4 2.8-7.4c2.4 0 4.9 3.4 5.7 7.5s-.5 7.4-2.9 7.3"/><path fill="#541138" d="M1105 383.5h-2.8l-3.9-.7q-2-.5-1.7-2.6l1.4-7.5c.3-1.5 1-1.5 2-1.8l5.1-1.8q1-.3 1.7 0l6.9 2.6c1.6.7 2.6 1.6 2.3 3.6l-1.1 5.3q-.4 1.5-2 2c-1.8.7-4 .8-6 1.3q-1 0-1.9-.4"/><path fill="#b1314a" fill-rule="evenodd" d="m1104.3 373.2-2.3 3.1-.1 3.5s4 3.1 4.7 3 4.6-.6 4.9-1.1c.2-.5-.4-8-.4-8z" clip-rule="evenodd"/><path fill="#b1314a" fill-rule="evenodd" d="m1100.4 373.2 6.8 2.8q.5.2.5 1l-1.2 7.1c-4.8.1-6.6-1.2-8-2q-.5-.4-.5-1l1.2-7.2q0-.4.4-.6.4-.3.8-.1" clip-rule="evenodd"/><path fill="#e95b5b" fill-rule="evenodd" d="m1113.2 374.3-5 1.8q-.3 0-.5.6l-1.2 7.4c1.8 0 5.5-.4 6.7-1.6l1.1-7.2q0-.5-.3-.8a1 1 0 0 0-.8-.2" clip-rule="evenodd"/><path fill="#f39582" fill-rule="evenodd" d="m1112.4 374.6-4.3 1.6h-.6l-6-2.5a1 1 0 0 1-.5-.8q0-.6.5-.8l4.3-1.6h.6l6 2.5q.6.2.6.8t-.6.8" clip-rule="evenodd"/><path fill="#541138" d="m1147 390-1-5.8c-.4-2.2-1.6-2.2-3-2.8l-7.4-2.6q-1.3-.5-2.6 0l-9.6 3.8c-2.6 1-4 2.4-3.5 5.4l1.1 6.5c.7 1 9.7 2.4 12 2.2l12.5-4.3c1.2-.3 2-.6 1.5-2.4"/><path fill="#b1314a" fill-rule="evenodd" d="m1136.7 384.5 3.5 4.7.1 5-7.6 2.8-6.9-2.2.7-9.5z" clip-rule="evenodd"/><path fill="#e95b5b" fill-rule="evenodd" d="m1142.7 384.5-10.3 4.2q-1 .4-.8 1.4l1.1 6.9c5.3-.4 10-1.5 12.9-4.6l-1.2-6.9q0-.6-.6-1-.6-.2-1.1 0" clip-rule="evenodd"/><path fill="#b1314a" fill-rule="evenodd" d="m1123.2 386.2 7.5 2.6q.6.4.8 1l1.2 7.2q-5.3-.3-10.1-3.3l-1-6q-.2-.8.4-1.3.5-.5 1.2-.2" clip-rule="evenodd"/><path fill="#b1314a" fill-rule="evenodd" d="M1130.7 393s5.5 1.1 5.2 1.4c-.3.4-4.8 1.2-4.8 1.2z" clip-rule="evenodd"/><path fill="#f39582" fill-rule="evenodd" d="m1124.4 386.7 6.5 2.3q.4.3 1 0l9-3.8q.9-.4.9-1.2 0-.9-.9-1.2l-6.5-2.3q-.4-.2-.9 0l-9.2 3.7q-.8.4-.8 1.2 0 .9.9 1.3" clip-rule="evenodd"/><path fill="#319109" fill-rule="evenodd" d="M1130.2 380.5h-6v3c0 1.6 2.7 2.9 6 2.9s5.9-1.3 5.9-3v-2.9z" clip-rule="evenodd"/><path fill="#4ac82d" d="M1130.2 383.6c3.2 0 5.9-1.3 5.9-3s-2.7-2.9-6-2.9-5.9 1.3-5.9 3 2.7 2.9 6 2.9"/><path fill="#319109" d="M1130.2 382.2c2 0 3.8-.7 3.8-1.5 0-1-1.7-1.6-3.8-1.6s-3.8.7-3.8 1.6c0 .8 1.7 1.5 3.8 1.5"/><path fill="#319109" fill-rule="evenodd" d="M1108.8 369.6h-5v2.4c0 1.4 2.3 2.5 5 2.5s5-1.1 5-2.5v-2.4z" clip-rule="evenodd"/><path fill="#4ac82d" d="M1108.8 372.1c2.8 0 5-1 5-2.4s-2.2-2.5-5-2.5-5 1.1-5 2.5 2.3 2.4 5 2.4"/><path fill="#319109" d="M1108.8 371c1.8 0 3.2-.6 3.2-1.3s-1.4-1.4-3.2-1.4c-1.7 0-3.2.6-3.2 1.4s1.5 1.3 3.2 1.3"/><path fill="#319109" fill-rule="evenodd" d="M1149.8 393.5h-5.3v2.6c0 1.5 2.3 2.7 5.3 2.7s5.4-1.2 5.4-2.7v-2.6z" clip-rule="evenodd"/><path fill="#4ac82d" d="M1149.8 396.2c3 0 5.4-1.2 5.4-2.6s-2.4-2.7-5.4-2.7-5.4 1.2-5.4 2.7c0 1.4 2.4 2.6 5.4 2.6"/><path fill="#319109" d="M1149.8 395c2 0 3.5-.6 3.5-1.4s-1.6-1.5-3.5-1.5-3.4.7-3.4 1.5 1.5 1.4 3.4 1.4"/><path fill="#319109" fill-rule="evenodd" d="m1097.9 390.2-4.4-2.3-1 2-.2.2v.7c3.8 2.3 7.4 1.6 9.1 1.1z" clip-rule="evenodd"/><path fill="#4ac82d" fill-rule="evenodd" d="M1099 388c-2.5-1.2-5-1.2-5.6 0s.8 3 3 4.3c3.4.5 5.8-.6 6-.7q-.4-2-3.4-3.5" clip-rule="evenodd"/><path fill="#319109" fill-rule="evenodd" d="M1098.5 389c-1.6-.7-3.2-.9-3.5-.2q-.2 1.2 2.2 2.6c1.6.8 3.1 1 3.5.3s-.7-1.9-2.2-2.6M1130 404.2l5.5-2.9 1.3 2.6.1.2.2.9c-5 2.8-9.5 2-11.6 1.4z" clip-rule="evenodd"/><path fill="#4ac82d" fill-rule="evenodd" d="M1128.6 401.5c3-1.6 6.2-1.6 7 0 .7 1.4-1 3.8-4 5.4-4 .6-7.1-.8-7.3-1 .2-1.4 1.9-3.2 4.3-4.4" clip-rule="evenodd"/><path fill="#319109" fill-rule="evenodd" d="M1129.2 402.8c2-1 4-1.2 4.3-.3.5.8-.8 2.3-2.7 3.3s-4 1.1-4.4.3.9-2.3 2.8-3.3" clip-rule="evenodd"/><path fill="#76ad32" fill-rule="evenodd" d="M1161 358.2c-1.3 0-3-.5-4.7-2.5-4.5-5-2.1-10 2.4-6.2 4 3.4 3.4 8.5-.3 6-2.9-2-3.2-5.8-.9-4.7q.8.5 1.2 1.4c.4 1.2-1.4-1.1-1.6.2-.2 1.7 3.6 4 3.4 1.3-.2-3.2-5.6-6.5-5.7-2.8 0 4 6.5 8.8 7.6 5 1.2-4-6-11-8.8-8.2-1.5 1.5-1 5 1.5 7.7 2.2 2.4 3.7 3 6 2.8M1169.5 377q-1.9-.4-3.3-4c-2.4-6.3 1.2-10 4-4.9 2.5 4.6.3 9.2-2.1 5.5-2-2.8-1-6.5.7-4.7q.6.7.6 1.7c0 1.3-1-1.5-1.5-.4-.7 1.6 1.8 5.1 2.6 2.5.8-3.1-2.9-8-4-4.6-1.4 3.7 2.8 10.5 5 7.4 2.2-3.4-1.8-12.6-5.2-10.9-1.7.9-2.3 4.4-1 7.8 1.1 3 2.2 4 4.2 4.7" clip-rule="evenodd"/><path fill="#b2d74d" fill-rule="evenodd" d="M1152.8 360.8c-.4-.3-2 2.1-4 5-1.8 3-3.2 5.2-2.8 5.5s2.6-1.5 4.5-4.4 2.8-5.9 2.3-6.1M1163.5 374.7c-.4-.6-2.2.3-4.3 1.7s-3.5 2.6-3.2 3.2c.4.5 2.4 0 4.5-1.3 2-1.3 3.3-3 3-3.6" clip-rule="evenodd"/><path fill="#541138" d="m1110.8 405 2.8.4 3.9-.1q2-.1 2.1-2.3l-.2-7.7c0-1.4-.8-1.6-1.7-2l-4.8-2.6q-.8-.4-1.7-.2l-7.1 1.4c-1.8.4-2.9 1.2-2.8 3.2l.2 5.4c0 1 .8 1.9 1.5 2.3 1.8 1 3.9 1.4 5.9 2.2q.9.2 1.9 0"/><path fill="#b1314a" fill-rule="evenodd" d="m1113.1 394.8 1.8 3.5-.5 3.5s-4.5 2.4-5.1 2.2c-.7-.3-4.5-1.3-4.6-1.9-.2-.5 1.6-7.7 1.6-7.7z" clip-rule="evenodd"/><path fill="#e95b5b" fill-rule="evenodd" d="m1117 395.5-7.2 1.7q-.7.1-.7.8v7.3c4.9.9 6.8-.1 8.3-.8q.7-.2.7-.8v-7.4q0-.4-.4-.6z" clip-rule="evenodd"/><path fill="#b1314a" fill-rule="evenodd" d="m1104.1 394.6 4.6 2.5q.4.2.4.7v7.5c-1.7-.2-5.3-1.2-6.2-2.7v-7.2q0-.6.4-.8.3-.3.8 0" clip-rule="evenodd"/><path fill="#f39582" fill-rule="evenodd" d="m1104.8 395 4 2.2q.3.2.6.1l6.4-1.5q.6-.2.7-.7 0-.6-.5-1l-4-2.1h-.6l-6.4 1.4q-.5 0-.6.7t.4.9" clip-rule="evenodd"/><path fill="#eb8350" d="M1093.9 398.5c2 0 3.8-.7 3.8-1.6s-1.7-1.7-3.9-1.7c-2 0-3.8.8-3.8 1.7s1.7 1.6 3.8 1.6"/><path fill="#fff" d="M1143.6 404c1.9 0 3.4-.5 3.4-1.3 0-.7-1.5-1.3-3.4-1.3s-3.3.6-3.3 1.3 1.5 1.4 3.3 1.4M1096.2 401.1c1.5 0 2.7-.4 2.7-1s-1.2-1.1-2.7-1.1-2.7.5-2.7 1c0 .7 1.3 1.1 2.7 1.1M1149.3 401.5q2.3 0 2.5-1-.2-.7-2.5-.9-2.4.1-2.6 1c0 .5 1.1.9 2.5.9"/><path fill="#fad862" d="M1114 390q2.4 0 2.6-.8-.2-.8-2.5-.9c-1.4 0-2.6.4-2.6.9s1.2.8 2.6.8"/><path fill="#b1314a" fill-rule="evenodd" d="M1108.5 399.7s6 2.2 5.4 2.5-6 .3-6 .3z" clip-rule="evenodd"/><path fill="#e95b5b" fill-rule="evenodd" d="M1134.1 393.8s-5.2-1.1-5.1-1.7c0-.6 5-2.3 5-2.3z" clip-rule="evenodd"/><path fill="#f39582" fill-rule="evenodd" d="M1118 399c-1 0-5.7.3-5.7.7s5 2.3 5.8 2.6zM1139.1 388c-2.6 1-5.6 2.1-5.2 2.4.4.4 3.5-.1 5.2-.5.9-.1 8-4.9 0-1.9" clip-rule="evenodd"/><path fill="#541138" d="M1091.2 382.7s-6 9.3-1.9 17.7q-2.2-2.1-3.7-4.6c0-3.2 1.7-10 5.6-13.1M1154.5 401.1s-19.4 15.6-50.4 7.7c0 0 11.2 6 27.4 3.9a35 35 0 0 0 23-11.6"/></svg>