<svg width="540" height="576" viewBox="0 0 540 576" fill="none" xmlns="http://www.w3.org/2000/svg">
<path d="M449.756 563.814C415.056 481.496 353.661 420.85 281.478 428.281C213.134 435.319 158.984 512.386 126.767 572.444L449.756 563.814Z" fill="#541138"/>
<path fill-rule="evenodd" clip-rule="evenodd" d="M443.315 563.986C435.911 546.615 427.146 529.94 417.014 514.489C393.875 479.201 360.048 445.477 317.183 435.952C305.646 433.387 293.89 432.704 282.129 433.914C237.859 438.46 200.917 474.287 175.186 507.514C159.605 527.636 145.802 549.657 133.576 572.26L443.315 563.986Z" fill="#AB6456"/>
<path fill-rule="evenodd" clip-rule="evenodd" d="M386.574 565.504C323.458 530.564 271.671 502.58 267.722 502.58C263.43 502.58 222.444 504.171 174.45 508.472C159.171 528.331 145.61 550.014 133.576 572.26L386.574 565.504Z" fill="#874652"/>
<path d="M100.489 441.374C100.489 441.374 70.4716 447.163 19.9543 560.8C19.9543 560.8 14.0231 566.663 5.62769 575.68L131.304 572.322C156.597 508.067 139.04 445.894 100.489 441.374Z" fill="#541138"/>
<path fill-rule="evenodd" clip-rule="evenodd" d="M101.689 449.864C101.689 449.864 60.3485 483.86 27.4237 566.32C27.4237 566.32 23.9004 569.672 18.3508 575.34L129.923 572.358C147.536 524.032 151.526 467.557 101.689 449.864Z" fill="#E44554"/>
<path fill-rule="evenodd" clip-rule="evenodd" d="M65.9928 492.347C53.7488 510.499 39.9753 534.883 27.4237 566.32C27.4237 566.32 23.9004 569.672 18.3508 575.34L36.3693 574.857C38.8009 573.183 40.212 572.242 40.212 572.242C36.0527 530.677 67.5813 507.301 67.5813 507.301C67.7174 501.411 67.1376 496.477 65.9928 492.347Z" fill="#F2827A"/>
<path fill-rule="evenodd" clip-rule="evenodd" d="M101.69 449.864C101.69 449.864 74.971 471.844 47.3857 523.305C58.9671 542.509 62.2389 559.424 59.7008 574.233L129.923 572.358C147.536 524.032 151.527 467.557 101.69 449.864Z" fill="#AD2952"/>
<path d="M432.035 408.275C432.035 408.275 465.327 406.104 497.154 473.734C513.081 507.576 525.027 533.88 539.404 561.421L407.828 564.936C403.388 557.786 398.344 550.585 392.617 543.429C392.617 543.429 336.24 465.259 388.221 420.383C388.221 420.383 400.575 406.464 432.035 408.275Z" fill="#541138"/>
<path fill-rule="evenodd" clip-rule="evenodd" d="M422.525 420.208C422.525 420.208 454.719 413.697 476.669 457.822C488.295 481.192 506.49 521.406 527.177 561.747L404.994 565.013C394.33 554.659 384.29 547.663 377.859 543.495C377.859 543.495 363.26 482.777 387.769 448.418C412.28 414.061 422.525 420.208 422.525 420.208Z" fill="#AD2952"/>
<path fill-rule="evenodd" clip-rule="evenodd" d="M499.139 504.707C507.573 522.394 517.078 542.054 527.174 561.747L516.684 562.028C509.064 539.921 503.198 519.776 499.139 504.707Z" fill="#E44554"/>
<path d="M96.9327 479.52C96.9327 479.52 87.8805 510.691 93.2112 573.34L436.733 564.164C432.154 546.225 427.03 530.277 422.368 518.16C410.44 487.155 403.228 458.499 379.439 442.821C379.439 442.821 219.565 381.095 96.9327 479.52Z" fill="#541138"/>
<path fill-rule="evenodd" clip-rule="evenodd" d="M106.443 481.331C106.443 481.331 95.4683 517.498 102.053 572.106L102.148 573.1L422.38 564.548C419.034 518.492 409.08 471.941 383.829 455.849C383.829 455.849 257.265 403.882 106.443 481.331Z" fill="#E44554"/>
<path fill-rule="evenodd" clip-rule="evenodd" d="M181.653 560.552C186.478 564.477 191.368 567.817 196.275 570.586L269.393 568.633C278.484 562.075 286.616 552.919 293.325 541.285C307.56 516.607 297.706 483.919 295.077 483.487C292.45 483.055 212.309 472.231 204.425 476.127C196.545 480.023 176.837 482.189 175.524 497.775C174.21 513.362 181.653 560.552 181.653 560.552Z" fill="#AD2952"/>
<path fill-rule="evenodd" clip-rule="evenodd" d="M106.443 481.331C106.443 481.331 95.4683 517.498 102.053 572.106L102.148 573.1L181.54 570.979C219.53 525.225 197.39 468.445 189.477 449.867C163.158 456.482 135.244 466.54 106.443 481.331Z" fill="#AD2952"/>
<path fill-rule="evenodd" clip-rule="evenodd" d="M104.204 544.278C104.204 544.278 109.863 555.191 121.64 572.58L166.226 571.387C158.094 560.628 150.252 549.29 142.815 537.336L117.418 521.92L104.204 544.278Z" fill="#AD2952"/>
<path fill-rule="evenodd" clip-rule="evenodd" d="M346.83 528.937C346.83 528.937 334.411 544.521 312.914 567.471L355.746 566.326C359.228 560.566 362.431 554.736 365.319 548.843C365.319 548.843 365.135 534.729 361.473 534.729C357.814 534.729 346.83 530.387 346.83 528.937Z" fill="#AD2952"/>
<path fill-rule="evenodd" clip-rule="evenodd" d="M407.012 564.956C408.047 560.194 408.438 556.709 408.438 556.709C410.473 562.868 417.404 563.279 420.353 561.108C423.992 558.428 417.037 551.106 416.188 543.344C415.531 537.344 420.921 531.289 422.646 525.591C407.89 495.302 401.992 467.424 383.828 455.849C383.828 455.849 355.752 444.327 310.296 440.221C298.543 456.92 289.562 475.13 284.385 494.261C280.27 509.469 281.125 544.5 288.133 568.133L407.012 564.956Z" fill="#AD2952"/>
<path fill-rule="evenodd" clip-rule="evenodd" d="M426.267 564.442C422.433 549.982 418.644 538.983 416.156 533.789C379.03 536.933 365.298 550.254 365.298 550.254C365.298 550.254 366.449 556.037 367.677 566.006L426.267 564.442Z" fill="#AD2952"/>
<path d="M338.438 523.888C338.438 523.888 323.762 541.93 298.848 567.846L344.023 566.64C348.809 559.143 353.14 551.523 356.924 543.793C356.924 543.793 356.74 529.677 353.081 529.677C349.419 529.677 338.438 525.334 338.438 523.888Z" fill="#541138"/>
<path fill-rule="evenodd" clip-rule="evenodd" d="M339.479 531.603C339.479 531.603 328.09 546.113 308.48 567.589L336.488 566.841C342.064 558.993 347.238 550.979 351.918 542.811L346.798 534.496L339.479 531.603Z" fill="#93484F"/>
<path fill-rule="evenodd" clip-rule="evenodd" d="M339.479 531.6C339.479 531.6 328.087 546.116 308.477 567.589L336.509 566.841C342.073 558.993 347.238 550.982 351.918 542.811L346.798 534.496L339.479 531.6Z" fill="#7E2E48"/>
<path d="M108.038 542.906C107.076 543.542 112.777 554.898 125.124 572.488L173.1 571.204C163.773 559.818 154.828 547.713 146.423 534.845L120.58 520.172L108.038 542.906Z" fill="#541138"/>
<path fill-rule="evenodd" clip-rule="evenodd" d="M127.269 558.07C127.269 558.07 130.479 563.32 136.842 572.174L165.788 571.402C160.049 563.43 154.644 555.15 149.666 546.547L140.238 540.104L127.269 558.07Z" fill="#93484F"/>
<path fill-rule="evenodd" clip-rule="evenodd" d="M127.269 558.07C127.269 558.07 130.479 563.317 136.842 572.174L165.779 571.402C160.043 563.43 154.644 555.147 149.666 546.547L140.238 540.104L127.269 558.07Z" fill="#7E2E48"/>
<path d="M285.882 542.326C288.429 551.68 292.251 561.543 297.28 567.888L402.202 565.086C407.562 554.827 409.169 540.474 409.169 540.474C411.204 546.63 418.132 547.044 421.084 544.873C427.578 540.093 430.63 520.693 434.618 507.62C440.857 487.173 450.299 463.564 466.791 459.629C466.791 459.629 482.63 458.482 494.164 474.977C494.164 474.977 506.429 464.108 504.05 446.53C504.05 446.53 509.544 458.13 514.303 457.585C519.063 457.041 526.021 442.546 520.894 426.959C520.894 426.959 533.162 426.959 518.88 399.048C518.88 399.048 527.305 400.317 529.316 388.902C531.331 377.483 517.463 352.033 466.058 353.666C466.058 353.666 482.52 349.324 483.254 342.452C483.985 335.58 457.991 329.374 429.841 338.112C349.439 363.062 261.566 452.938 285.882 542.326Z" fill="#541138"/>
<path fill-rule="evenodd" clip-rule="evenodd" d="M293.02 518.22C293.02 518.22 298.872 570.299 312.042 556.555L317.529 548.6C317.529 548.6 320.709 558.996 325.374 567.139L346.529 566.572C351.898 556.635 355.702 541.826 357.406 533.41C357.406 533.41 357.628 556.031 360.968 566.187L369.467 565.959C375.989 553.952 383.379 524.731 383.379 524.731C383.379 524.731 381.918 564.513 392.526 559.087C403.137 553.662 407.16 497.243 407.16 497.243C408.521 502.375 410.441 539.223 419.463 524.822C425.137 515.761 434.597 444.439 474.107 449.143C474.107 449.143 486.91 450.589 493.495 457.097C493.495 457.097 502.275 439.014 484.715 423.101C484.715 423.101 501.911 427.08 511.422 443.356C511.422 443.356 519.104 420.933 495.326 402.489C495.326 402.489 507.529 405.935 516.501 418.803C516.501 418.803 522.359 399.412 495.995 385.094C495.995 385.094 506.065 386.724 515.22 393.07C515.22 393.07 523.335 393.496 521.811 386C515.927 357.039 456.595 358.825 443.265 359.722C443.265 359.722 468.348 347.762 466.333 345.043C464.318 342.325 445.279 335.618 415.984 355.19C386.689 374.764 286.069 425.634 293.02 518.22Z" fill="#874652"/>
<path fill-rule="evenodd" clip-rule="evenodd" d="M401.791 537.262C405.58 519.385 407.16 497.243 407.16 497.243C408.521 502.373 410.44 539.226 419.463 524.822C425.137 515.761 434.597 444.439 474.107 449.142C474.107 449.142 486.91 450.589 493.495 457.097C493.495 457.097 502.275 439.014 484.715 423.101C484.715 423.101 501.911 427.08 511.422 443.356C511.422 443.356 519.104 420.933 495.326 402.489C495.326 402.489 507.529 405.935 516.501 418.803C516.501 418.803 522.358 399.412 495.995 385.094C495.995 385.094 506.064 386.724 515.22 393.07C515.22 393.07 523.334 393.496 521.811 386C518.415 369.283 497.208 362.81 477.32 360.5C480.426 372.294 485.742 405.752 450.645 417.788C450.645 417.788 453.713 460.218 411.671 484.029C411.671 484.029 393.712 504.177 401.791 537.262Z" fill="#AB6456"/>
<path d="M351.188 469.034C375.229 469.034 394.721 488.303 394.721 512.073C394.721 535.842 375.229 555.108 351.188 555.108C327.144 555.108 307.652 535.842 307.652 512.073C307.652 488.303 327.144 469.034 351.188 469.034Z" fill="#541138"/>
<path fill-rule="evenodd" clip-rule="evenodd" d="M351.188 476.627C370.987 476.627 387.038 492.495 387.038 512.072C387.038 531.647 370.987 547.515 351.188 547.515C331.385 547.515 315.334 531.647 315.334 512.072C315.334 492.495 331.385 476.627 351.188 476.627Z" fill="#FFC565"/>
<path fill-rule="evenodd" clip-rule="evenodd" d="M351.188 476.627C370.443 476.627 386.053 491.755 386.053 510.419C386.053 529.079 370.443 544.207 351.188 544.207C331.93 544.207 316.319 529.079 316.319 510.419C316.319 491.755 331.93 476.627 351.188 476.627Z" fill="#EA8453"/>
<path d="M351.188 486.948C365.222 486.948 376.599 498.196 376.599 512.072C376.599 525.946 365.222 537.194 351.188 537.194C337.151 537.194 325.777 525.946 325.777 512.072C325.777 498.196 337.151 486.948 351.188 486.948Z" fill="#541138"/>
<path fill-rule="evenodd" clip-rule="evenodd" d="M351.187 491.196C362.849 491.196 372.303 500.541 372.303 512.073C372.303 523.601 362.849 532.946 351.187 532.946C339.523 532.946 330.072 523.601 330.072 512.073C330.072 500.541 339.523 491.196 351.187 491.196Z" fill="#EA8453"/>
<path fill-rule="evenodd" clip-rule="evenodd" d="M350.581 517.149C357.415 517.149 362.952 520.225 362.952 524.021C362.952 527.819 357.415 530.895 350.581 530.895C343.751 530.895 338.21 527.819 338.21 524.021C338.21 520.225 343.751 517.149 350.581 517.149Z" fill="#FFC565"/>
<path d="M58.7572 382.746C58.7572 382.746 21.0578 403.293 6.52704 432.736C-2.09613 450.216 -4.33552 468.844 23.9479 461.256C12.6535 477.547 24.1639 481.44 39.1324 476.63C39.1324 476.63 30.3495 501.944 43.1556 504.476C55.9587 507.008 67.4809 498.329 67.4809 498.329C56.8373 539.462 84.2362 537.791 93.6403 528.346C80.1746 566.628 99.0272 576.97 139.001 555.108C139.001 555.108 140.034 566.719 147.042 571.902L165.173 571.417C177.405 564.663 188.587 546.062 192.415 513.155C202.008 430.701 135.422 382.746 58.7572 382.746Z" fill="#541138"/>
<path fill-rule="evenodd" clip-rule="evenodd" d="M60.3486 390.191C38.6827 403.577 7.12158 441.294 13.5113 451.045C16.4163 455.476 29.6306 452.855 50.838 442.271C50.838 442.271 28.3793 461.934 29.6631 467.01C30.944 472.083 61.5201 459.215 61.5201 459.215C61.5201 459.215 39.5495 488.031 47.2378 492.383C54.9292 496.731 81.6595 477.521 81.6595 477.521C55.7663 543.092 100.172 518.788 112.602 509.599L103.447 524.278C98.264 537.501 98.1752 550.346 106.124 552.209C114.584 554.194 139.203 548.426 147.205 522.556L144.643 544.033C144.643 544.033 145.743 558.895 153.065 561.611C160.389 564.329 175.219 548.745 175.219 522.465C175.219 496.187 185.463 412.615 60.3486 390.191Z" fill="#AB6456"/>
<path d="M124.385 482.505C147.169 482.505 165.64 500.763 165.64 523.287C165.64 545.814 147.169 564.072 124.385 564.072C101.601 564.072 83.1328 545.814 83.1328 523.287C83.1328 500.763 101.601 482.505 124.385 482.505Z" fill="#541138"/>
<path fill-rule="evenodd" clip-rule="evenodd" d="M124.385 489.702C143.149 489.702 158.36 504.739 158.36 523.287C158.36 541.838 143.149 556.874 124.385 556.874C105.624 556.874 90.4131 541.838 90.4131 523.287C90.4131 504.739 105.624 489.702 124.385 489.702Z" fill="#FFDC5D"/>
<path fill-rule="evenodd" clip-rule="evenodd" d="M152.958 541.468C146.909 550.736 136.375 556.875 124.385 556.875C105.624 556.875 90.4131 541.838 90.4131 523.287C90.4131 515.057 93.4098 507.52 98.3796 501.68C94.9628 506.919 92.9779 513.158 92.9779 519.856C92.9779 538.406 108.189 553.443 126.953 553.443C137.389 553.443 146.726 548.79 152.958 541.468Z" fill="#FFFF8A"/>
<path fill-rule="evenodd" clip-rule="evenodd" d="M124.385 489.702C143.149 489.702 158.36 504.739 158.36 523.287C158.36 532.017 154.994 539.965 149.474 545.935C136.028 514.477 106.174 507.958 94.8916 506.612C100.749 496.509 111.762 489.702 124.385 489.702Z" fill="#EA8453"/>
<path d="M124.385 499.482C137.685 499.482 148.465 510.141 148.465 523.287C148.465 536.436 137.685 547.095 124.385 547.095C111.088 547.095 100.305 536.436 100.305 523.287C100.305 510.141 111.088 499.482 124.385 499.482Z" fill="#541138"/>
<path fill-rule="evenodd" clip-rule="evenodd" d="M124.385 503.508C135.437 503.508 144.397 512.362 144.397 523.287C144.397 534.215 135.437 543.071 124.385 543.071C113.336 543.071 104.375 534.215 104.375 523.287C104.375 512.362 113.336 503.508 124.385 503.508Z" fill="#FFDC5D"/>
<path fill-rule="evenodd" clip-rule="evenodd" d="M124.385 503.505C135.437 503.505 144.397 512.362 144.397 523.287C144.397 526.716 143.513 529.94 141.963 532.75C132.502 519.959 119.971 513.345 109.635 509.922C113.295 505.979 118.548 503.505 124.385 503.505Z" fill="#EA8453"/>
<path fill-rule="evenodd" clip-rule="evenodd" d="M120.421 527.449C126.692 532.428 131.414 536.498 129.287 539.116C127.16 541.737 118.989 541.912 112.718 536.93C106.446 531.952 104.444 523.701 106.571 521.083C108.698 518.465 114.15 522.468 120.421 527.449Z" fill="#FFFF8A"/>
<path d="M122.459 232.809C123.391 226.712 108.266 204.724 83.1862 208.383C67.5107 210.67 60.4494 224.109 59.2188 236.205C56.3464 264.512 85.0499 286.627 111.479 267.361L118.173 241.32L122.459 232.809Z" fill="#541138"/>
<path fill-rule="evenodd" clip-rule="evenodd" d="M117.753 237.092C117.753 237.092 105.896 214.361 86.109 217.201C59.065 221.082 58.3077 276.176 110.899 265.317C110.899 265.317 114.449 259.634 116.599 250.162C118.75 240.689 117.753 237.092 117.753 237.092Z" fill="#FA8888"/>
<path fill-rule="evenodd" clip-rule="evenodd" d="M108.934 225.679C103.515 220.506 95.7557 215.817 86.1089 217.201C66.5463 220.009 60.7453 249.608 78.9353 261.663C66.005 248.186 72.3859 223.233 90.2712 220.665C97.6697 219.6 103.959 222.115 108.934 225.679Z" fill="white"/>
<path d="M110.23 249.783C110.23 249.783 100.279 233.492 79.7163 234.628C79.7163 234.628 90.4576 229.797 98.7346 233.397C107.012 236.995 110.23 249.783 110.23 249.783Z" fill="#541138"/>
<path d="M98.5305 237.462C98.5305 237.462 92.12 246.443 99.4505 257.599C99.4505 257.599 86.3574 250.318 93.0903 235.098L95.6077 235.379L98.5305 237.462Z" fill="#541138"/>
<path d="M109.564 195.485C108.171 194.231 107.171 192.636 106.982 190.601C106.319 183.51 117.143 177.15 122.379 173.935C112.756 161.167 136.478 149.659 145.489 146.438L147.332 146.796L148.595 147.275C155.683 149.979 160.135 158.561 162.499 165.223C165.744 174.369 167.001 184.862 166.371 194.512C164.918 216.796 153.411 235.797 129.207 238.122L128.825 238.157L128.447 238.116C117.084 236.841 100.829 232.64 98.4563 219.63C96.847 210.791 101.627 201.555 109.564 195.485Z" fill="#541138"/>
<path fill-rule="evenodd" clip-rule="evenodd" d="M147.74 152.606C143.838 153.999 115.587 164.705 129.668 174.967C126.654 177.783 103.435 188.592 118.045 194.204C103.692 205.321 96.3381 227.605 130.428 231.43C174.657 227.185 165.43 159.351 147.74 152.606Z" fill="#835D63"/>
<path d="M233.052 98.1482C233.12 98.1482 173.059 99.1687 146.388 125.547C137.049 134.783 135.088 143.302 133.002 155.191C131.532 163.569 128.95 172.097 126.323 178.889C120.492 193.97 108.846 218.003 86.8513 244.923C71.658 263.524 59.621 276.433 52.1722 300.883C37.8013 348.075 38.4137 425.27 159.253 457.458C339.107 505.369 412.34 373.347 401.569 292.431C401.569 292.431 387.248 217.781 383.48 183.194C383.48 183.194 366.615 97.876 233.052 98.1482Z" fill="#541138"/>
<path fill-rule="evenodd" clip-rule="evenodd" d="M143.693 147.015V147.018V147.024L143.69 147.033V147.044L143.687 147.059L143.684 147.08L143.681 147.104L143.678 147.13L143.673 147.16L143.667 147.192V147.198L143.664 147.231L143.658 147.269L143.652 147.314L143.643 147.361L143.634 147.411L143.628 147.464L143.619 147.524L143.608 147.583L143.599 147.648L143.563 147.861L143.551 147.938L143.539 148.018C143.359 149.118 143.004 151.1 142.401 153.839C138.454 171.716 123.799 222.053 76.6781 272.055C76.6781 272.055 -20.5997 419.128 203.408 455.328C427.418 491.528 388.648 298.818 388.648 298.818L379.173 181.596C379.173 181.596 377.25 178.605 373.327 173.878C368.57 164.859 358.515 149.565 339.985 136.031C318.381 120.255 283.469 107.375 242.355 106.689C147.086 105.091 145.847 144.888 143.693 147.015Z" fill="#FFC6A1"/>
<path fill-rule="evenodd" clip-rule="evenodd" d="M135.96 176.138C187.673 180.286 249.553 163.519 204.366 108.65C146.681 116.563 145.512 145.219 143.693 147.015V147.018V147.024L143.69 147.033V147.044L143.687 147.059L143.684 147.08L143.681 147.104L143.678 147.13L143.672 147.16L143.667 147.192V147.198L143.664 147.231L143.658 147.269L143.652 147.314L143.643 147.361L143.634 147.411L143.628 147.464L143.619 147.524L143.607 147.583L143.599 147.648L143.563 147.861L143.551 147.938L143.539 148.018C143.359 149.118 143.004 151.1 142.4 153.839C141.282 158.91 139.3 166.592 135.96 176.138Z" fill="#FFD9B5"/>
<path fill-rule="evenodd" clip-rule="evenodd" d="M230.91 116.226C237.291 120.276 241.379 126.369 240.042 129.834C238.705 133.301 232.451 132.824 226.073 128.775C219.692 124.728 215.604 118.634 216.941 115.17C218.278 111.703 224.532 112.176 230.91 116.226Z" fill="#FFD9B5"/>
<path fill-rule="evenodd" clip-rule="evenodd" d="M228.458 246.78C228.458 246.78 255.499 255.543 258.833 257.758C262.17 259.974 278.123 284.841 283.342 305.282L247.648 314.591L215.9 295.54C215.9 295.54 223.42 248.514 228.458 246.78Z" fill="#DF7E78"/>
<path fill-rule="evenodd" clip-rule="evenodd" d="M112.801 231.895C139.282 255.457 116.262 258.246 92.2173 261.986C92.2173 261.986 102.947 237.74 112.801 231.895Z" fill="#FFD9B5"/>
<path fill-rule="evenodd" clip-rule="evenodd" d="M143.693 147.015C143.693 147.015 135.345 209.8 76.6808 272.055C76.6808 272.055 -20.5998 419.128 203.407 455.328C205.209 455.621 206.945 455.855 208.712 456.115C-13.0564 419.439 83.6859 273.138 83.6859 273.138C142.353 210.88 150.701 148.098 150.701 148.098C152.127 146.689 152.556 130.177 180.402 119.666C200.698 112.004 238.101 105.082 277.599 110.413C255.868 106.615 236.208 105.422 214.24 107.384C147.213 113.362 145.604 145.125 143.693 147.015Z" fill="white"/>
<path fill-rule="evenodd" clip-rule="evenodd" d="M194.344 181.448C194.344 181.448 228.064 182.425 235.729 221.822C243.391 261.219 217.773 276.806 217.773 276.806C217.773 276.806 184.928 249.313 187.773 244.769C190.622 240.222 201.349 193.139 194.344 181.448Z" fill="#DF7E78"/>
<path fill-rule="evenodd" clip-rule="evenodd" d="M324.105 197.044C312.494 215.577 319.511 222.621 332.403 227.774C332.403 227.774 342.914 211.539 342.254 206.345C341.772 202.514 331.013 154.706 320.733 146.713C318.677 145.113 279.738 199.934 324.105 197.044Z" fill="#DF7E78"/>
<path fill-rule="evenodd" clip-rule="evenodd" d="M398.132 354.057C401.835 324.377 396.969 300.117 396.969 300.117L378.137 190.654C374.214 163.362 317.544 113.682 299.638 128.704C293.435 133.907 305.898 147.003 320.414 190.012C333.072 227.514 330.202 288.905 268.027 295.964C176.5 306.353 280.726 345.318 289.923 346.617C297.739 347.72 352.341 380.379 398.132 354.057Z" fill="#DF7E78"/>
<path d="M80.8135 251.644C80.8135 251.644 48.1017 262.234 25.7613 293.896C20.3478 301.566 1.40638 338.609 20.2413 342.827C15.4845 349.335 4.25809 392.854 28.7195 390.274C28.7195 390.274 13.0321 438.141 49.7672 459.085C50.134 503.964 81.843 525.272 103.056 526.937C103.056 526.937 125.66 555.138 149.882 543.962C149.882 543.962 168.264 572.523 199.234 552.39C216.832 570.846 258.531 568.258 279.638 533.508C279.638 533.508 315.447 553.292 334.77 515.761C334.77 515.761 365.174 524.284 384.018 478.778C384.018 478.778 417.39 487.037 430.308 421.578C430.308 421.578 459.911 409.872 430.844 356.66C430.844 356.66 451.385 333.982 421.694 296.777L391.014 228.954L354.915 228.874C354.915 228.874 360.122 267.837 330.312 289.914C330.658 262.095 287.045 304.977 269.639 307.927L184.866 295.469L127.816 293.866C127.816 293.866 89.4249 291.55 80.8135 251.644Z" fill="#541138"/>
<path fill-rule="evenodd" clip-rule="evenodd" d="M76.8437 265.118C56.7693 274.017 35.2276 296.653 26.6754 316.212C21.3507 328.388 20.8241 336.553 42.6941 327.321C22.9688 342.354 10.284 401.601 46.9865 370.564C42.6852 374.463 15.4579 430.189 59.1891 450.583C56.1244 467.161 68.8683 513.126 107.997 513.658C114.005 527.727 136.153 543.412 149.343 528.153C149.343 528.153 157.36 544.216 173.092 547.515C188.824 550.813 205.768 536.386 205.768 536.386C209.286 549.745 220.826 553.218 230.91 552.579C253.626 551.141 279.738 522.825 286.572 504.621L286.302 520.835C286.302 520.835 319.106 540.24 334.702 490.267C334.702 490.267 336.317 499.039 336.048 504.621C336.048 504.621 376.38 512.859 379.607 442.152C379.607 442.152 382.293 447.734 383.639 465.812C383.639 465.812 421.821 471.128 418.594 398.823L426.661 410.254C426.661 410.254 445.75 388.724 411.603 341.408L423.972 347.522C423.972 347.522 436.766 322.073 402.856 293.34L408.24 290.68L387.784 240.127L363.027 236.935C363.745 259.714 352.904 292.289 320.585 303.007C322.81 297.173 323.218 291.331 321.091 290.612C313.5 288.038 278.845 321.233 264.631 323.723L181.1 301.321L111.123 296.271C111.123 296.271 87.4459 294.405 76.8437 265.118Z" fill="#855963"/>
<path fill-rule="evenodd" clip-rule="evenodd" d="M41.8037 393.712C44.8122 379.077 51.1753 369.312 56.0149 371.901C60.8575 374.489 62.3395 388.446 59.331 403.08C56.3196 417.711 49.9565 427.477 45.1168 424.888C40.2772 422.303 38.7922 408.343 41.8037 393.712Z" fill="#916A6E"/>
<path fill-rule="evenodd" clip-rule="evenodd" d="M90.8596 441.756C90.8596 441.756 113.301 493.601 167.386 478.665C167.386 478.665 156.875 496.847 129.725 494.033C102.571 491.22 90.0905 463.945 90.8596 441.756Z" fill="#9C7477"/>
<path fill-rule="evenodd" clip-rule="evenodd" d="M56.5264 449.24C57.3872 449.699 58.2658 450.151 59.1888 450.583C58.4315 454.689 58.6445 460.594 59.9845 467.167L72.9592 493.166C72.9592 493.166 130.437 481.695 96.9385 478.881C63.4338 476.065 62.2298 430.606 62.2298 430.606C58.8486 438.345 57.2334 444.548 56.5264 449.24Z" fill="#9C7477"/>
<path fill-rule="evenodd" clip-rule="evenodd" d="M76.8437 265.118C56.7693 274.017 35.2277 296.653 26.6755 316.212C21.3507 328.388 20.8241 336.55 42.6942 327.321C22.9688 342.354 10.284 401.601 46.9895 370.564C42.6853 374.463 15.458 430.189 59.1891 450.583L59.1152 447.829C58.9465 441.788 60.2452 433.523 62.8573 429.367C23.9421 435.058 50.2376 366.614 54.5418 362.715C18.2771 389.1 34.7928 336.618 52.4385 320.176C1.2556 341.78 61.7243 276.173 77.3851 266.559C77.2017 266.086 77.0212 265.606 76.8437 265.118Z" fill="#AF8F87"/>
<path fill-rule="evenodd" clip-rule="evenodd" d="M99.8585 292.692C96.7316 296.123 93.3977 299.984 89.8479 304.326C89.8479 304.326 77.2104 309.909 57.849 294.224C57.849 294.224 54.6216 325.593 86.8897 351.643C86.8897 351.643 96.5689 360.148 111.626 359.086C111.626 359.086 128.565 354.299 148.193 321.339C158.2 326.51 175.822 329.93 183.954 319.745C183.954 319.745 194.397 334.098 219.941 324.528C219.941 324.528 236.43 360.651 258.478 373.676C258.478 373.676 321.354 380.616 333.722 314.958C333.722 314.958 312.503 326.291 291.263 326.291C291.263 326.291 288.447 321.022 283.826 313.509C276.333 318.677 269.355 322.895 264.631 323.723L181.1 301.321L111.123 296.268C111.123 296.268 106.21 295.881 99.8585 292.692Z" fill="#653651"/>
<path fill-rule="evenodd" clip-rule="evenodd" d="M59.1888 450.583C56.1241 467.161 68.8681 513.126 107.996 513.658C114.004 527.727 136.153 543.412 149.343 528.153C149.343 528.153 157.36 544.216 173.092 547.515C188.823 550.813 205.768 536.386 205.768 536.386C209.285 549.745 220.825 553.218 230.91 552.579C253.626 551.141 279.738 522.825 286.571 504.621L286.302 520.835C286.302 520.835 319.106 540.24 334.702 490.264C334.702 490.264 336.317 499.039 336.047 504.621C336.047 504.621 376.38 512.862 379.607 442.152C379.607 442.152 382.293 447.734 383.639 465.812C383.639 465.812 421.821 471.128 418.593 398.823L426.66 410.254C426.66 410.254 445.75 388.724 411.603 341.408L423.971 347.522C423.971 347.522 436.766 322.073 402.856 293.34L408.24 290.68L387.784 240.127L370.836 237.944L362.319 249.401C361.899 252.374 359.991 264.11 351.466 279.164C366.124 297.239 370.851 335.734 335.66 347.401C335.66 347.401 345.733 396.324 297.12 401.518C297.12 401.518 312.45 439.62 269.094 443.081C269.094 443.081 259.788 485.401 211.288 462.996C211.288 462.996 193.551 491.788 167.276 479.014C167.276 479.014 127.642 505.425 99.6157 466.892C97.19 472.264 99.1483 474.613 95.918 476.441C80.698 485.064 58.7865 466.85 59.1888 450.583Z" fill="#653651"/>
<path d="M105.873 290.393C96.859 283.453 96.9537 268.612 92.7383 266.458C90.706 265.42 79.5535 268.778 85.7983 285.651L94.948 289.633C94.948 289.633 105.396 289.926 105.873 290.393Z" fill="#541138"/>
<path fill-rule="evenodd" clip-rule="evenodd" d="M85.5321 286.962C85.5321 286.962 86.3752 272.532 90.1321 272.724C93.892 272.916 91.3657 279.007 98.7523 290.488C106.139 301.972 83.4584 292.221 85.5321 286.962Z" fill="#855963"/>
<path fill-rule="evenodd" clip-rule="evenodd" d="M182.049 332.441C201.337 332.441 216.696 340.73 216.696 347.587C216.696 354.444 201.337 356.456 182.049 356.456C162.765 356.456 146.853 354.444 146.853 347.587C146.853 340.73 162.765 332.441 182.049 332.441Z" fill="#916A6E"/>
<path d="M314.965 163.279C310.681 170.186 306.164 179.815 310.243 184.963C315.015 190.983 331.196 191.184 335.376 188.43C335.376 188.43 324.043 206.096 342.438 213.779C342.438 213.779 332.181 223.121 344.553 233.483C339.704 243.112 343.079 252.138 347.688 255.267C354.001 259.557 365.417 254.463 368.996 240.541L395.079 238.45C395.209 233.46 395.454 219.263 395.617 214.61C396.144 199.52 396.073 190.58 381.264 176.124C371.236 166.335 357.276 156.105 336.131 154.662C325.088 153.907 320.603 154.194 314.965 163.279Z" fill="#541138"/>
<path fill-rule="evenodd" clip-rule="evenodd" d="M327.705 161.463C327.705 161.463 313.616 175.13 318.715 181.099C323.815 187.069 351.862 177.384 351.862 177.384C351.862 177.384 335.625 188.66 341.396 202.061C347.165 215.462 368.907 204.052 368.907 204.052C368.907 204.052 367.857 212.3 351.327 215.562C341.819 222.115 349.546 234.273 360.586 230.055C360.586 230.055 359.308 235.084 351.419 235.084C349.638 242.245 350.599 246.665 352.753 248.41C358.252 252.868 371.377 243.272 376.38 240.397L387.405 225.511L382.805 196.813C382.805 196.813 368.955 161.409 327.705 161.463Z" fill="#855963"/>
<path fill-rule="evenodd" clip-rule="evenodd" d="M327.705 161.463C309.717 185.874 337.417 182.948 351.862 177.384C337.648 188.814 346.339 216.258 368.907 204.052C368.907 204.052 367.857 212.299 351.327 215.562C348.685 223.955 353.534 231.134 360.586 230.055C360.586 230.055 359.308 235.084 351.418 235.084C352.433 251.277 367.6 245.443 376.38 240.397L387.781 240.882C387.884 225.384 390.872 196.692 381.4 186.244C373.345 177.357 356.081 160.691 327.705 161.463Z" fill="#653651"/>
<path d="M118.628 527.482C118.628 527.482 105.183 517.379 101.151 487.874C101.151 487.874 94.9655 500.367 103.302 525.355L114.058 531.733C114.058 531.733 119.167 526.683 118.628 527.482Z" fill="#541138"/>
<path d="M183.434 547.799C183.434 547.799 206.954 541.477 223.443 516.56C223.443 516.56 220.627 536.85 201.689 551.603L185.705 553.582C185.705 553.582 183.294 546.849 183.434 547.799Z" fill="#541138"/>
<path d="M163.839 543.669C163.839 543.669 148.788 531.407 141.303 505.943C141.303 505.943 139.114 522.287 147.992 541.791L158.884 547.488C158.884 547.488 164.357 542.98 163.839 543.669Z" fill="#541138"/>
<path d="M62.9698 478.571C62.9698 478.571 55.172 463.685 62.7006 429.393C62.7006 429.393 49.3176 443.918 50.5276 465.812L57.861 478.837L62.9698 478.571Z" fill="#541138"/>
<path fill-rule="evenodd" clip-rule="evenodd" d="M171.87 457.044C171.87 457.044 194.205 477.174 214.788 469.598C235.371 462.023 236.247 437.129 236.247 437.129C236.247 437.129 217.852 467.001 171.87 457.044Z" fill="#653651"/>
<path fill-rule="evenodd" clip-rule="evenodd" d="M330.895 382.873C330.895 382.873 308.998 407.118 269.145 395.427C269.145 395.427 283.158 414.91 318.192 409.715C353.229 404.521 330.895 382.873 330.895 382.873Z" fill="#653651"/>
<path fill-rule="evenodd" clip-rule="evenodd" d="M90.904 441.321C90.904 441.321 93.315 465.998 111.487 480.068L93.3149 481.369C93.3149 481.369 84.5557 465.998 90.904 441.321Z" fill="#653651"/>
<path fill-rule="evenodd" clip-rule="evenodd" d="M286.347 255.025C294.556 247.961 301.339 242.382 304.516 245.988C307.693 249.594 306.057 261.021 297.848 268.085C289.639 275.153 277.966 275.179 274.792 271.573C271.615 267.967 278.138 262.089 286.347 255.025Z" fill="#FFD9B5"/>
<path fill-rule="evenodd" clip-rule="evenodd" d="M318.153 254.087C321.901 254.087 324.939 257.09 324.939 260.796C324.939 264.503 321.901 267.509 318.153 267.509C314.405 267.509 311.364 264.503 311.364 260.796C311.364 257.09 314.405 254.087 318.153 254.087Z" fill="#621A40"/>
<path fill-rule="evenodd" clip-rule="evenodd" d="M318.18 255.602C320.553 255.602 322.478 256.983 322.478 258.687C322.478 260.391 320.553 261.773 318.18 261.773C315.808 261.773 313.885 260.391 313.885 258.687C313.885 256.983 315.808 255.602 318.18 255.602Z" fill="#703C4F"/>
<path fill-rule="evenodd" clip-rule="evenodd" d="M281.475 226.688C281.475 246.911 266.82 254.806 251.36 254.806C235.904 254.806 224.695 242.586 223.367 225.449C221.79 205.093 238.208 191.258 251.694 190.459C268.08 189.492 281.475 206.466 281.475 226.688Z" fill="#DF7E78"/>
<path fill-rule="evenodd" clip-rule="evenodd" d="M168.217 224.224C166.989 236.85 155.71 244.881 143.463 244.881C131.216 244.881 122.152 235.942 123.382 223.313C124.838 208.356 137.508 199.017 148.252 198.369C160.055 197.659 169.882 207.134 168.217 224.224Z" fill="#DF7E78"/>
<path d="M166.161 227.185C165.984 239.042 156.727 246.585 146.06 246.585C135.393 246.585 126.87 238.19 127.048 226.33C127.261 212.285 137.635 203.514 146.948 202.904C157.174 202.239 166.401 211.137 166.161 227.185Z" fill="#541138"/>
<path fill-rule="evenodd" clip-rule="evenodd" d="M160.57 226.481C160.443 234.948 153.834 240.331 146.22 240.331C138.605 240.331 132.52 234.338 132.647 225.872C132.798 215.843 140.206 209.584 146.853 209.149C154.154 208.673 160.742 215.024 160.57 226.481Z" fill="#AABBCC"/>
<path fill-rule="evenodd" clip-rule="evenodd" d="M151.367 220.914C151.32 226.798 147.033 231.605 142.066 232.844C137.102 234.087 133.112 230.924 133.159 225.04C133.215 218.071 138.019 212.527 142.353 211.143C147.11 209.625 151.432 212.95 151.367 220.914Z" fill="white"/>
<path d="M151.731 214.666C155.787 214.666 159.02 218.382 158.952 222.967C158.881 227.549 155.538 231.265 151.482 231.265C147.424 231.265 144.19 227.549 144.261 222.967C144.329 218.382 147.672 214.666 151.731 214.666Z" fill="#541138"/>
<path fill-rule="evenodd" clip-rule="evenodd" d="M150.82 216.746C152.311 217.254 152.829 219.592 151.974 221.97C151.122 224.348 149.217 225.866 147.726 225.357C146.232 224.851 145.714 222.514 146.569 220.136C147.424 217.757 149.326 216.24 150.82 216.746Z" fill="white"/>
<path d="M277.36 229.51C277.36 245.961 265.438 252.383 252.863 252.383C240.287 252.383 231.167 242.444 230.088 228.502C228.807 211.942 242.163 200.686 253.135 200.038C266.465 199.251 277.36 213.057 277.36 229.51Z" fill="#541138"/>
<path fill-rule="evenodd" clip-rule="evenodd" d="M270.565 228.771C270.565 239.305 262.441 246.005 252.966 246.005C243.491 246.005 235.806 238.548 235.806 228.014C235.806 215.536 244.905 207.744 253.17 207.203C262.246 206.608 270.565 214.515 270.565 228.771Z" fill="#AABBCC"/>
<path fill-rule="evenodd" clip-rule="evenodd" d="M259.474 221.665C259.415 228.91 254.135 234.826 248.023 236.356C241.912 237.882 236.995 233.989 237.054 226.744C237.125 218.166 243.042 211.338 248.375 209.634C254.233 207.765 259.554 211.862 259.474 221.665Z" fill="white"/>
<path d="M258.487 214.131C263.779 214.131 268.11 218.979 268.154 224.961C268.201 230.939 263.947 235.788 258.655 235.788C253.36 235.788 249.032 230.939 248.985 224.961C248.937 218.979 253.194 214.131 258.487 214.131Z" fill="#541138"/>
<path fill-rule="evenodd" clip-rule="evenodd" d="M257.075 216.367C259.087 217.068 259.853 220.059 258.788 223.044C257.72 226.032 255.223 227.88 253.209 227.176C251.197 226.472 250.428 223.484 251.496 220.497C252.564 217.512 255.061 215.663 257.075 216.367Z" fill="white"/>
<path fill-rule="evenodd" clip-rule="evenodd" d="M237.809 252.809C249.952 274.789 283.244 268.219 284.888 240.959C284.888 240.959 271.091 258.98 237.809 252.809Z" fill="#DF7E78"/>
<path fill-rule="evenodd" clip-rule="evenodd" d="M232.084 246.056C232.084 246.056 237.75 258.93 258.336 257.457C278.925 255.983 287.338 239.187 287.471 236.799C287.471 236.799 255.797 229.513 232.084 246.056Z" fill="#FFC6A1"/>
<path d="M237.504 252.641C237.504 252.641 248.112 263.388 261.995 261.53C275.878 259.672 281.708 246.165 281.708 246.165C281.708 246.165 264.492 264.183 237.504 252.641Z" fill="#541138"/>
<path d="M230.002 247.328C230.002 247.328 261.708 236.761 290.69 237.509C271.872 229.229 245.621 232.347 230.002 247.328Z" fill="#541138"/>
<path fill-rule="evenodd" clip-rule="evenodd" d="M260.004 241.112C270.45 239.482 278.916 240.583 278.916 243.571C278.916 246.561 270.45 250.304 260.004 251.937C249.559 253.566 241.092 252.463 241.092 249.475C241.092 246.488 249.559 242.742 260.004 241.112Z" fill="#FFD9B5"/>
<path fill-rule="evenodd" clip-rule="evenodd" d="M133.256 247.751C133.256 247.751 136.969 257.184 148.086 261.018C158.342 264.556 167.604 249.86 168.48 241.453C162.259 250.925 147.618 261.379 133.256 247.751Z" fill="#DF7E78"/>
<path fill-rule="evenodd" clip-rule="evenodd" d="M169.062 239.551C169.062 239.551 148.769 233.389 127.295 239.228C127.295 239.228 128.828 243.698 133.12 247.659C135.457 249.816 138.69 251.771 142.755 252.892C154.292 256.075 168.941 244.325 169.062 239.551Z" fill="#FFC6A1"/>
<path d="M133.061 247.594C133.061 247.594 142.326 258.027 153.561 256.214C164.794 254.401 168.527 241.32 168.527 241.32C168.527 241.32 154.896 258.859 133.061 247.594Z" fill="#541138"/>
<path d="M126.313 239.491C135.741 232.566 163.122 227.395 169.571 239.832C169.571 239.832 150.609 235.779 126.313 239.491Z" fill="#541138"/>
<path d="M123.959 302.034C123.959 302.034 191.752 313.973 239.974 297.209L243.355 299.59C262.116 369.993 159.268 373.809 119.19 334.485C118.119 332.941 120.06 334.166 121.388 335.021C125.219 337.488 132.316 339.695 132.327 339.686C144.651 331.651 145.542 326.88 141.823 309.412C141.823 309.412 121.554 303.359 123.959 302.034Z" fill="#541138"/>
<path fill-rule="evenodd" clip-rule="evenodd" d="M148.636 310.861C151.825 326.205 149.015 334.512 139.17 341.194C174.911 360.878 246.541 360.39 237.584 304.161C237.584 304.161 202.328 316.514 148.636 310.861Z" fill="#67244C"/>
<mask id="mask0_82_2755" style="mask-type:luminance" maskUnits="userSpaceOnUse" x="139" y="304" width="100" height="49">
<path d="M148.636 310.861C151.825 326.205 149.015 334.512 139.17 341.194C174.911 360.878 246.541 360.39 237.584 304.161C237.584 304.161 202.328 316.514 148.636 310.861Z" fill="white"/>
</mask>
<g mask="url(#mask0_82_2755)">
<path d="M146.509 336.376C146.509 336.376 150.024 332.06 162.303 331.637L163.214 346.129C163.214 346.129 146.565 343.744 146.509 336.376Z" fill="#541138"/>
<path fill-rule="evenodd" clip-rule="evenodd" d="M149.639 338.408C149.639 338.408 151.49 335.337 159.593 334.84L160.46 344.23C160.46 344.23 149.674 343.301 149.639 338.408Z" fill="#B4B7C0"/>
<path d="M164.584 342.387C164.584 342.387 169.566 326.761 188.554 332.373C188.554 332.373 195.432 323.904 207.28 325.492C219.13 327.084 226.189 337.225 225.23 343.611C224.272 349.995 179.946 358.757 164.584 342.387Z" fill="#541138"/>
<path fill-rule="evenodd" clip-rule="evenodd" d="M168.702 343.253C168.702 343.253 171.255 332.329 186.827 335.663C186.827 335.663 184.839 337.923 183.747 341.372C183.747 341.372 194.275 327.593 207.336 329.604C220.396 331.619 222.346 344.753 222.346 344.753C222.346 344.753 200.567 355.281 168.702 343.253Z" fill="#AB2E52"/>
<path fill-rule="evenodd" clip-rule="evenodd" d="M198.598 330.968C203.553 329.158 209.543 330.107 210.445 332.051C212.566 336.612 193.4 340.81 191.199 337.145C190.468 335.929 193.645 332.775 198.598 330.968Z" fill="#E7596A"/>
<path fill-rule="evenodd" clip-rule="evenodd" d="M168.702 343.253C168.702 343.253 168.921 342.304 169.633 341.053C174.864 341.993 179.478 341.902 183.735 341.967C187.874 342.327 196.192 342.159 203.907 340.346C205.386 339.996 210.489 339.624 218.095 335.606C221.621 339.872 222.346 344.753 222.346 344.753C222.346 344.753 200.567 355.281 168.702 343.253Z" fill="#802143"/>
<path d="M150.213 310.293C150.213 310.293 154.15 319.345 158.567 322.999C158.567 322.999 201.547 330.317 230.806 313.719L232.38 303.856C232.38 303.856 189.74 314.837 150.213 310.293Z" fill="#541138"/>
<path d="M144.415 348.265C144.415 348.265 165.977 360.935 193.793 361.08C221.612 361.225 233.116 347.569 233.116 347.569C231.439 344.419 229.638 340.275 227.96 337.124C205.161 345.212 171.124 346.54 146.512 336.432L144.415 348.265Z" fill="#541138"/>
<path fill-rule="evenodd" clip-rule="evenodd" d="M149.18 340.863C149.18 340.863 182.516 355.024 226.381 341.7L228.857 346.135C209.702 363.357 165.865 357.19 148.394 345.972L149.18 340.863Z" fill="white"/>
<path fill-rule="evenodd" clip-rule="evenodd" d="M217.305 344.108C220.275 343.431 223.301 342.635 226.381 341.7L228.857 346.135C209.702 363.357 165.865 357.19 148.394 345.972L148.447 345.626C186.522 361.399 209.149 349.954 217.305 344.108Z" fill="#B4B7C0"/>
<path fill-rule="evenodd" clip-rule="evenodd" d="M154.919 310.929C156.055 312.843 158.534 316.875 160.647 319.289C160.647 319.289 199.287 325.667 227.224 311.385L227.819 306.441C211.729 309.435 186.368 312.532 154.919 310.929Z" fill="white"/>
<path fill-rule="evenodd" clip-rule="evenodd" d="M154.919 310.929C155.496 311.899 156.419 313.417 157.463 314.991C166.306 316.05 191.737 317.91 227.327 310.518L227.819 306.441C211.729 309.435 186.368 312.532 154.919 310.929Z" fill="#B4B7C0"/>
<path d="M179.419 339.815C181.835 339.467 183.621 338.255 183.408 337.109C183.195 335.963 181.065 335.316 178.649 335.664C176.234 336.012 174.448 337.223 174.66 338.369C174.873 339.516 177.004 340.163 179.419 339.815Z" fill="#E7596A"/>
<path d="M218.311 334.018C218.311 334.018 213.616 338.207 203.623 340.425C208.217 340.204 215.678 339.177 220.979 336.589C221.443 333.761 218.311 334.018 218.311 334.018Z" fill="#541138"/>
<path d="M246.63 307.033C243.491 305.09 236.457 300.528 231.369 298.271C229.079 297.256 226.656 296.126 226.845 295.612C227.277 294.44 234.824 293.488 241.033 297.04C243.713 298.573 249.106 304.099 248.863 307.817C248.828 308.347 248.431 308.151 246.63 307.033Z" fill="#541138"/>
</g>
<path d="M246.63 307.033C243.491 305.09 236.457 300.528 231.369 298.271C229.079 297.256 226.656 296.126 226.845 295.612C227.277 294.44 234.824 293.488 241.033 297.04C243.713 298.573 249.106 304.096 248.86 307.817C248.828 308.347 248.434 308.151 246.63 307.033Z" fill="#541138"/>
<path d="M160.741 267.085C154.958 263.562 144.22 258.205 131.695 257.675C131.695 257.675 117.176 256.61 84.3723 296.75C84.3723 296.75 71.7348 302.333 52.3763 286.648C52.3763 286.648 49.1489 318.017 81.4141 344.067C81.4141 344.067 91.0934 352.572 106.151 351.51C106.151 351.51 123.092 346.723 142.72 313.763C152.725 318.934 170.347 322.354 178.482 312.169C178.482 312.169 194.616 326.522 220.157 316.952C220.157 316.952 234.022 354.805 256.07 367.83C256.07 367.83 316.319 369.794 328.25 307.382C328.25 307.382 311.847 318.28 290.607 318.28C290.607 318.28 272.322 285.852 252.694 267.245C252.694 267.245 236.27 261.58 208.907 268.801C193.471 272.875 175.322 275.969 160.741 267.085Z" fill="#541138"/>
<path fill-rule="evenodd" clip-rule="evenodd" d="M63.1294 303.395C63.1294 303.395 72.5424 333.432 102.388 342.736C102.388 342.736 120.672 336.092 135.191 308.447C135.191 308.447 126.536 301.3 121.572 292.414C121.572 292.414 143.045 309.128 156.866 310.852C170.69 312.577 175.251 306.211 175.251 306.211C175.251 306.211 169.081 299.046 168.14 296.526C168.14 296.526 184.916 311.252 198.603 312.047C212.291 312.843 221.284 302.628 221.284 302.628C221.284 302.628 235.753 339.547 260.489 358.686C260.489 358.686 303.244 356.826 316.42 320.407C316.42 320.407 304.856 325.723 287.379 324.927C287.379 324.927 264.524 288.243 246.239 273.889C246.239 273.889 230.647 268.976 195.962 278.809L181.961 280.687L168.539 278.546C168.539 278.546 147.024 267.375 130.085 265.248C114.573 272.916 98.1575 292.142 90.1674 306.344C90.1674 306.344 81.4437 309.128 63.1294 303.395Z" fill="#9C7472"/>
<path fill-rule="evenodd" clip-rule="evenodd" d="M154.553 272.245C147.231 269.316 138.141 266.26 130.085 265.248C115.904 272.256 100.968 288.926 92.4067 302.587C100 293.629 124.341 268.372 154.553 272.245Z" fill="#BA9282"/>
<path fill-rule="evenodd" clip-rule="evenodd" d="M221.58 303.356C223.745 308.607 237.797 341.126 260.489 358.686C260.489 358.686 302.786 356.84 316.201 320.978C311.341 326.332 292.796 344.446 265.252 343.428C265.252 343.428 238.031 326.128 221.58 303.356Z" fill="#7F4D5A"/>
<path fill-rule="evenodd" clip-rule="evenodd" d="M63.3276 303.977C64.8127 308.184 74.9889 334.195 102.388 342.736C102.388 342.736 120.672 336.092 135.191 308.447C135.191 308.447 132.425 306.163 129.127 302.575C126.87 305.856 98.7374 344.842 63.3276 303.977Z" fill="#7F4D5A"/>
<path fill-rule="evenodd" clip-rule="evenodd" d="M224.73 273.135C200.683 275.422 183.49 284.773 159.697 274.395C165.475 280.862 190.791 304.862 224.73 273.135Z" fill="#7F4D5A"/>
<path d="M315.612 318.325C315.612 318.325 306.306 334.666 281.013 342.029C281.013 342.029 303.679 341.269 319.334 323.951L320.538 320.055L315.612 318.325Z" fill="#541138"/>
<path d="M62.9787 301.978C62.9787 301.978 74.4744 316.159 87.6118 321.46C87.6118 321.46 76.1161 320.706 61.6623 310.207L59.3638 305.226C59.3638 305.226 57.722 299.599 62.9787 301.978Z" fill="#541138"/>
<path d="M187.708 200.819C187.708 200.819 157.561 212.616 149.249 238.699C133.825 287.095 204.972 297.664 222.784 258.297L211.43 193.876C214.397 186.318 177.825 181.022 180.733 185.105C183.212 187.862 186.981 196.302 187.708 200.819Z" fill="#541138"/>
<path fill-rule="evenodd" clip-rule="evenodd" d="M202.813 199.532C202.813 199.532 150.249 222.056 155.088 255.815C155.088 255.815 156.109 262.459 161.309 267.94C175.58 282.986 214.093 272.978 224.535 257.797C231.812 230.001 230.416 211.137 224.05 199.298C209.729 172.674 173.397 179.682 181.452 185.785C185.756 189.045 191.516 194.065 194.29 199.322C194.29 199.322 199.201 199.201 202.813 199.532Z" fill="#FA8888"/>
<path fill-rule="evenodd" clip-rule="evenodd" d="M187.889 207.859C187.889 207.859 201.248 247.041 158.987 253.75L158.768 245.526C158.768 245.526 162.49 224.526 187.889 207.859Z" fill="#FBA095"/>
<path fill-rule="evenodd" clip-rule="evenodd" d="M201.81 199.979C194.592 203.292 150.645 224.816 155.088 255.815C159.709 270.603 168.717 269.603 181.446 270.047C164.924 266.917 157.91 259.353 164.031 240.187C172.231 214.515 202.127 199.958 202.127 199.958L201.81 199.979Z" fill="#FBC2B3"/>
<path fill-rule="evenodd" clip-rule="evenodd" d="M155.198 256.374C155.568 258.084 157.011 263.408 161.309 267.94C174.278 281.613 207.259 274.596 221.012 261.811C225.088 258.022 225.772 255.037 226.289 250.709C221.497 245.446 212.676 238.494 201.189 241.438C193.847 243.319 188.38 248.058 182.52 252.013C175.37 256.838 162.271 262.826 155.198 256.374Z" fill="#D9576E"/>
<path fill-rule="evenodd" clip-rule="evenodd" d="M215.388 254.353C215.388 254.353 205.478 266.476 189.386 267.937C189.386 267.937 191.084 260.143 198.636 255.705C206.191 251.268 215.388 254.353 215.388 254.353Z" fill="#B03259"/>
<path d="M187.892 270.967C187.892 270.967 199.408 248.895 218.063 255.661C218.063 255.661 211.756 247.304 201.287 250.091C190.82 252.874 187.868 271.052 187.892 270.967Z" fill="#541138"/>
<path fill-rule="evenodd" clip-rule="evenodd" d="M208.049 221.721C215.063 221.721 220.748 228.256 220.748 231.244C220.748 234.235 215.063 232.545 208.049 232.545C201.035 232.545 195.349 234.235 195.349 231.244C195.349 228.256 201.035 221.721 208.049 221.721Z" fill="#FBA095"/>
<path d="M225.304 186.903C225.304 186.903 221.402 200.588 231.256 200.967C241.107 201.345 256.114 186.196 284.412 202.336C284.412 202.336 288.054 203.727 290.855 200.351C292.79 198.02 292.257 180.283 280.599 168.876C259.125 147.867 231.031 162.199 225.304 186.903Z" fill="#541138"/>
<path fill-rule="evenodd" clip-rule="evenodd" d="M285.85 192.219C284.779 179.307 272.902 165.362 258.824 164.977C240.305 164.468 227.103 190.098 232.185 194.399C233.348 195.387 234.833 194.583 237.933 193.447C252.887 186.471 264.308 185.235 279.904 193.255C284.113 195.42 286.187 196.29 285.85 192.219Z" fill="#835D63"/>
<path fill-rule="evenodd" clip-rule="evenodd" d="M283.841 190.64C283.143 182.229 277.23 173.322 269.177 169.136C269.086 169.503 268.958 169.953 268.79 170.465C268.177 174.754 265.988 181.525 258.637 186.755C264.938 186.323 271.245 187.758 278.614 191.548C282.315 193.45 284.137 194.219 283.841 190.64Z" fill="#653651"/>
<path fill-rule="evenodd" clip-rule="evenodd" d="M253.789 169.864C256.285 172.168 254.499 178.067 249.798 183.034C245.1 188.001 239.27 190.16 236.776 187.853C234.279 185.545 236.066 179.65 240.764 174.683C245.464 169.716 251.295 167.557 253.789 169.864Z" fill="#9C7977"/>
<path d="M122.811 188.687C122.811 188.687 119.643 199.795 127.642 200.103C135.638 200.41 148.048 187.646 171.018 200.751C171.018 200.751 173.752 202.342 176.024 199.603C177.591 197.71 178.038 183.096 168.572 173.834C151.142 156.78 127.459 168.63 122.811 188.687Z" fill="#541138"/>
<path fill-rule="evenodd" clip-rule="evenodd" d="M171.959 193.003C171.092 182.519 161.448 171.198 150.018 170.888C134.99 170.476 124.273 191.278 128.396 194.772C129.34 195.574 130.547 194.92 133.061 193.997C145.202 188.335 154.473 187.332 167.131 193.84C170.551 195.597 172.234 196.307 171.959 193.003Z" fill="#835D63"/>
<path fill-rule="evenodd" clip-rule="evenodd" d="M169.82 191.234C169.231 184.123 164.149 176.585 157.277 173.195C156.774 176.967 155.136 182.927 149.988 187.956C154.86 187.823 159.789 189.06 165.48 191.988C168.554 193.568 170.066 194.204 169.82 191.234Z" fill="#653651"/>
<path fill-rule="evenodd" clip-rule="evenodd" d="M148.139 174.195C150.121 176.354 148.166 181.303 143.77 185.256C139.374 189.205 134.203 190.657 132.218 188.501C130.236 186.341 132.192 181.392 136.588 177.44C140.984 173.491 146.155 172.038 148.139 174.195Z" fill="#9C7977"/>
<path d="M368.138 256.347C365.988 248.372 378.096 214.583 411.467 219.373C432.323 222.363 443.617 239.941 447.075 255.77C455.166 292.801 418.579 318.541 383.477 296.529L370.733 262.459L368.138 256.347Z" fill="#541138"/>
<path fill-rule="evenodd" clip-rule="evenodd" d="M367.506 256.344C367.506 256.344 380.412 224.449 408.645 228.434C440.925 232.992 451.338 285.669 415.642 295.893C406.468 298.519 394.884 298.599 381.758 295.952C370.659 288.775 363.911 269.168 367.506 256.344Z" fill="#FA8888"/>
<path fill-rule="evenodd" clip-rule="evenodd" d="M381.036 237.353C387.663 231.404 396.806 226.762 408.645 228.434C437.712 232.54 449.042 275.652 424.948 291.659C443.685 273.786 432.036 235.433 404.705 231.572C395.058 230.211 387.201 233.04 381.036 237.353Z" fill="#FBC2B3"/>
<path fill-rule="evenodd" clip-rule="evenodd" d="M367.508 256.347C367.508 256.347 375.854 235.726 393.801 229.717C388.367 240.787 373.159 277.617 399.779 297.901C394.206 297.886 388.166 297.244 381.758 295.952C370.659 288.775 363.911 269.168 367.508 256.347Z" fill="#D9576E"/>
<path fill-rule="evenodd" clip-rule="evenodd" d="M418.7 251.703C418.7 251.703 432.494 282.007 397.351 284.929C397.351 284.929 407.314 271.943 400.416 260.468C393.517 248.996 393.958 253.975 393.958 253.975C393.958 253.975 407.205 246.831 418.7 251.703Z" fill="#D9576E"/>
<path d="M380.143 274.156C380.143 274.156 391.689 247.298 423.256 252.889C404.681 238.61 379.116 246.624 380.143 274.156Z" fill="#541138"/>
<path d="M394.543 256.865C394.543 256.865 405.01 269.47 396.555 285.125C396.555 285.125 413.733 274.91 401.788 253.549L398.3 253.945L394.543 256.865Z" fill="#541138"/>
<path fill-rule="evenodd" clip-rule="evenodd" d="M364.813 264.825C364.813 264.825 371.333 257.137 373.017 260.601C374.703 264.062 372.756 281.894 372.756 281.894C372.756 281.894 377.164 276.38 379.368 277.791C381.164 278.939 382.956 288.589 382.16 297.049C381.749 301.457 356.255 286.669 364.813 264.825Z" fill="#653651"/>
<path fill-rule="evenodd" clip-rule="evenodd" d="M393.618 262.086C395.54 261.888 397.484 265.355 397.954 269.831C398.425 274.304 397.244 278.09 395.321 278.288C393.396 278.486 391.455 275.019 390.985 270.547C390.514 266.074 391.692 262.284 393.618 262.086Z" fill="#FBC2B3"/>
<path d="M154.807 89.6374C162.972 82.4164 168.82 73.9589 171.095 56.9463C171.778 51.8315 171.275 50.7636 173.781 56.7984C183.555 80.3339 201.692 83.7388 201.692 83.7388C201.692 83.7388 156.446 95.4858 154.807 89.6374Z" fill="#541138"/>
<path d="M324.558 104.275C318.506 94.3498 314.456 83.014 315.447 62.9011C315.743 56.8546 316.55 55.7216 312.37 62.1912C296.073 87.4129 272.55 87.2383 272.55 87.2383C272.55 87.2383 321.419 110.703 324.558 104.275Z" fill="#541138"/>
<path d="M414.411 157.78C412.787 146.346 410.97 132.833 419.354 116.264C422.102 110.833 423.46 110.395 416.804 114.448C393.094 128.887 368.425 123.524 368.425 123.524C368.425 123.524 408.956 162.522 414.411 157.78Z" fill="#541138"/>
<path d="M108.904 63.7265L120.693 104.121L121.196 116.927L126.642 124.808C129.218 133.774 131.668 142.773 133.901 151.266C133.901 151.266 262.968 101.973 394.611 209.267C394.611 209.267 398.54 199.709 406.565 188.468L419.711 183.611L424.613 169.009C429.956 163.915 436.147 158.596 443.288 153.573C456.967 143.947 461.212 145.432 441.342 145.577C427.379 145.681 409.449 143.077 396.59 131.857C385.825 122.465 378.084 107.162 384.305 81.1C386.798 70.6576 389.514 68.5868 376.448 76.0681C359.465 85.7918 324.286 97.0211 300.099 86.6378C275.067 75.8906 257.105 34.6828 250.964 11.594C247.079 -3.01363 248.316 -4.75602 241.207 11.7863C230.871 35.8395 207.478 75.3789 175.248 78.4377C147.225 81.0971 127.373 71.406 116.063 61.0256C103.932 49.8909 104.825 49.3733 108.904 63.7265Z" fill="#541138"/>
<path fill-rule="evenodd" clip-rule="evenodd" d="M120.181 74.8287L141.939 139.386C141.939 139.386 267.603 101.248 391.739 194.899C391.739 194.899 408.015 167.563 431.509 152.677C431.509 152.677 361.849 153.739 376.874 84.8925C376.874 84.8925 340.266 106.159 303.114 98.1837C265.962 90.2084 245.473 20.0338 245.473 20.0338C245.473 20.0338 209.093 129.981 120.181 74.8287Z" fill="#FAC761"/>
<path fill-rule="evenodd" clip-rule="evenodd" d="M120.181 74.8286L141.939 139.386C141.939 139.386 151.089 136.614 166.871 134.398C174.556 117.578 175.216 101.204 174.272 89.9392C158.99 91.6165 141.031 87.7619 120.181 74.8286Z" fill="#FFFF8A"/>
<path fill-rule="evenodd" clip-rule="evenodd" d="M346.895 96.5153C334.169 99.7308 318.689 101.526 303.114 98.1837C265.961 90.2084 245.473 20.0338 245.473 20.0338C245.473 20.0338 245.411 20.2201 245.298 20.5396C246.884 31.5146 261.311 116.69 325.226 105.751C335.769 103.946 342.7 100.704 346.895 96.5153Z" fill="#EC774B"/>
<path fill-rule="evenodd" clip-rule="evenodd" d="M245.511 20.1639L245.473 20.0338C245.473 20.0338 209.371 129.094 121.222 75.4499C136.768 92.8116 160.158 97.7281 178.508 95.0243C211.19 90.2143 235.9 58.946 245.511 20.1639Z" fill="white"/>
<path fill-rule="evenodd" clip-rule="evenodd" d="M301.566 145.317C329.74 154.212 359.879 168.601 389.928 191.27C389.928 191.27 400.516 168.281 422.459 154.378C422.459 154.378 357.672 154.449 371.705 90.1462C371.705 90.1462 351.519 102.766 322.928 102.603C319.097 113.839 312.308 130.248 301.566 145.317Z" fill="#EC774B"/>
<path fill-rule="evenodd" clip-rule="evenodd" d="M133.576 114.575C164.575 105.325 284.057 78.7335 410.641 170.361C409.068 172.038 407.574 173.704 406.172 175.337C282.175 85.8391 165.684 111.857 135.682 120.826L133.576 114.575Z" fill="#FFFF8A"/>
<path fill-rule="evenodd" clip-rule="evenodd" d="M130.6 110.883C131.002 110.741 266.852 61.002 411.538 170.731L407.373 175.922C265.66 68.4478 133.274 116.945 132.881 117.081L130.6 110.883Z" fill="#CE5A4D"/>
<path d="M126.784 94.4179L149.411 109.57L138.951 130.526L129.165 112.927L126.784 94.4179Z" fill="#541138"/>
<path fill-rule="evenodd" clip-rule="evenodd" d="M129.432 102.278L142.933 111.318L136.694 123.822L128.316 114.835L129.432 102.278Z" fill="#F25156"/>
<path fill-rule="evenodd" clip-rule="evenodd" d="M129.432 102.278L142.933 111.318L128.316 114.835L129.432 102.278Z" fill="white"/>
<path d="M424.536 159.853L397.489 164.522L398.087 187.811L414.487 175.739L424.536 159.853Z" fill="#541138"/>
<path fill-rule="evenodd" clip-rule="evenodd" d="M418.777 165.941L402.64 168.725L402.995 182.62L414.721 177.819L418.777 165.941Z" fill="#AC1A48"/>
<path d="M211.102 98.8788L237.465 74.9647C237.962 74.5121 238.598 74.2991 239.297 74.3464C239.992 74.3938 240.557 74.6896 240.927 75.2014L260.395 102.233C260.939 102.988 260.806 103.964 260.069 104.633L233.703 128.547C233.206 128.999 232.57 129.212 231.874 129.165C231.176 129.118 230.611 128.822 230.244 128.313L210.777 101.278C210.229 100.524 210.362 99.5474 211.102 98.8788Z" fill="#541138"/>
<path fill-rule="evenodd" clip-rule="evenodd" d="M218.586 100.598L233.025 120.651L252.585 102.914L238.143 82.8602L218.586 100.598Z" fill="#F25156"/>
<path fill-rule="evenodd" clip-rule="evenodd" d="M218.586 100.598L233.025 120.651L252.585 102.914L218.586 100.598Z" fill="#AC1A48"/>
<path fill-rule="evenodd" clip-rule="evenodd" d="M218.586 100.598L235.578 101.807L238.143 82.8602L218.586 100.598Z" fill="white"/>
<path fill-rule="evenodd" clip-rule="evenodd" d="M218.586 100.598L233.025 120.651L235.584 101.757L218.586 100.598Z" fill="#E03454"/>
<path d="M331.95 125.731L357.216 116.317C357.692 116.14 358.195 116.164 358.666 116.389C359.139 116.613 359.447 116.974 359.553 117.43L365.274 141.575C365.434 142.249 365.061 142.894 364.354 143.157L339.085 152.567C338.609 152.748 338.106 152.721 337.636 152.496C337.162 152.275 336.858 151.914 336.748 151.455L331.027 127.31C330.867 126.636 331.243 125.994 331.95 125.731Z" fill="#541138"/>
<path fill-rule="evenodd" clip-rule="evenodd" d="M336.66 128.979L340.902 146.888L359.642 139.906L355.4 121.997L336.66 128.979Z" fill="#F25156"/>
<path fill-rule="evenodd" clip-rule="evenodd" d="M336.66 128.979L340.902 146.888L359.642 139.906L336.66 128.979Z" fill="#AC1A48"/>
<path fill-rule="evenodd" clip-rule="evenodd" d="M336.66 128.979L348.132 134.478L355.4 121.997L336.66 128.979Z" fill="white"/>
<path fill-rule="evenodd" clip-rule="evenodd" d="M336.66 128.979L340.902 146.888L348.152 134.442L336.66 128.979Z" fill="#E03454"/>
</svg>
