<svg width="55" height="61" viewBox="0 0 55 61" fill="none" xmlns="http://www.w3.org/2000/svg">
<path fill-rule="evenodd" clip-rule="evenodd" d="M54.8569 41.8935C54.8569 44.6678 53.3909 47.187 51.0008 48.5688L31.2739 59.9636C28.8838 61.3455 25.9731 61.3455 23.5723 59.9636L3.85613 48.5688C1.45534 47.187 0 44.6678 0 41.8935V19.1145C0 16.3402 1.45534 13.821 3.85613 12.4285L23.5723 1.04435C25.9731 -0.348116 28.8838 -0.348116 31.2739 1.04435L51.0008 12.4285C53.3909 13.821 54.8569 16.3402 54.8569 19.1145V41.8935Z" fill="url(#paint0_linear_254_14)"/>
<path d="M28.1196 6.51854L47.8358 17.9134C48.2819 18.1685 48.5369 18.6043 48.5369 19.1145V22.8773C48.5369 23.3875 48.2819 23.8234 47.8358 24.0785C47.4002 24.3336 46.8903 24.3336 46.4548 24.0785L28.1196 13.4915C27.684 13.2364 27.1741 13.2364 26.728 13.4915L13.0456 21.3892C12.5994 21.6443 12.3551 22.0907 12.3551 22.601V38.407C12.3551 38.9172 12.5994 39.353 13.0456 39.6081L26.728 47.5165C27.1741 47.7716 27.684 47.7716 28.1196 47.5165L41.8125 39.6081C42.2481 39.353 42.503 38.9172 42.503 38.407V36.5362C42.503 36.026 42.2481 35.5902 41.8125 35.3351L28.1196 27.4267C27.684 27.1716 27.1741 27.1716 26.728 27.4267L25.1133 28.3621C24.6671 28.6173 24.4122 29.0531 24.4122 29.5633V31.4447C24.4122 31.9549 24.6671 32.3907 25.1133 32.6458L31.3808 36.2599C31.8164 36.515 32.0713 36.9614 32.0713 37.461C32.0713 37.9712 31.8164 38.4176 31.3808 38.6621L28.1196 40.5542C27.684 40.8093 27.1741 40.8093 26.728 40.5542L19.0794 36.1323C18.6333 35.8772 18.389 35.4308 18.389 34.9205V26.0768C18.389 25.5666 18.6333 25.1308 19.0794 24.8757L26.728 20.4538C27.1741 20.1987 27.684 20.1987 28.1196 20.4538L47.8358 31.8486C48.2819 32.1037 48.5369 32.5395 48.5369 33.0498V41.8935C48.5369 42.4037 48.2819 42.8395 47.8358 43.0946L28.1196 54.4894C27.684 54.7445 27.1741 54.7445 26.728 54.4894L7.01178 43.0946C6.57624 42.8395 6.32129 42.4037 6.32129 41.8935V19.1145C6.32129 18.6043 6.57624 18.1685 7.01178 17.9134L26.728 6.51854C27.1741 6.26343 27.684 6.26343 28.1196 6.51854Z" fill="white"/>
<defs>
<linearGradient id="paint0_linear_254_14" x1="27.4284" y1="0" x2="27.4284" y2="61" gradientUnits="userSpaceOnUse">
<stop stop-color="#FE6A4C"/>
<stop offset="1" stop-color="#DC0158"/>
</linearGradient>
</defs>
</svg>
