<svg width="1326" height="534" viewBox="0 0 1326 534" fill="none" xmlns="http://www.w3.org/2000/svg">
<path fill-rule="evenodd" clip-rule="evenodd" d="M27.5533 20.4507L1255.96 0.401611C1266.98 0.48585 1276.39 9.43086 1276 20.4509L1319.84 512.527C1319.45 523.546 1310.81 532.28 1299.78 532.575L20.0981 516.263C9.07783 516.554 0.323111 507.234 0.0488281 496.21L7.50002 40.5C7.2303 29.4757 16.5252 20.3665 27.5533 20.4507Z" fill="#F0554D"/>
<mask id="mask0_141_1982" style="mask-type:luminance" maskUnits="userSpaceOnUse" x="0" y="0" width="1326" height="534">
<path d="M20.5705 21.7304L1284.5 0.5C1295.53 0.584238 1325.87 21.3833 1325.48 32.4033L1299.84 513.527C1299.45 524.546 1290.81 533.281 1279.78 533.575L38.0982 517.264C27.078 517.555 18.3232 508.235 18.049 497.21L0.517201 41.7797C0.247486 30.7553 9.54239 21.6462 20.5705 21.7304Z" fill="white"/>
</mask>
<g mask="url(#mask0_141_1982)">
<path fill-rule="evenodd" clip-rule="evenodd" d="M612.646 109.549C611.758 110.821 611.152 112.292 610.861 113.925L564.936 371.808C564.176 376.079 566.091 379.861 569.478 382.747L794.856 574.937C798.423 577.503 802.839 577.908 806.813 576.055L1055.01 460.354C1058.52 458.722 1060.61 455.733 1061.3 452.069C1062.33 450.532 1062.96 448.69 1063.25 446.754L1077.8 349.008C1078.43 344.805 1076.57 340.57 1072.71 338.529L872.784 232.849C869.7 231.22 866.561 230.424 863.192 231.334L818.565 243.391C814.234 244.563 811.187 247.801 810.39 252.089L810.301 252.568C809.436 253.816 808.831 255.261 808.536 256.851L801.151 296.581C800.313 301.091 802.356 305.264 806.219 307.968L934.162 397.559C937.816 400.116 939.851 403.927 939.341 408.234L939.342 408.242C937.991 410.107 936.018 411.564 933.685 412.644L823.357 463.742C819.864 465.36 815.864 464.653 812.79 462.33L676.639 359.474C673.152 356.841 671.367 353.116 671.771 348.881L673.176 334.079L705.223 177.793C706.089 173.575 708.705 170.507 712.76 168.725L867.677 100.653C871.356 99.0354 875.307 100.083 878.608 102.366L1176.33 308.361C1179.36 310.235 1184.18 315.954 1184.14 323.491L1183 542.246C1183 542.778 1182.96 543.303 1182.9 543.819C1181.83 545.635 1180.28 547.104 1178.1 547.983L949.396 640.608L546.748 524.524L437.201 441.355C433.934 438.874 432.136 435.203 432.802 431.26L501.684 23.0178C501.711 22.8641 501.723 22.7096 501.746 22.5553C502.956 20.8076 504.725 19.5449 506.887 18.7424L701.394 -53.5777L862.021 -7.26842L619.189 100.996C615.664 102.57 613.375 105.456 612.714 109.164L612.646 109.549ZM1245.1 80.6979L1232.02 216.563C1231.97 217.09 1231.89 217.597 1231.8 218.088C1229.15 222.003 1224.36 222.861 1219.11 219.242L899.216 -4.68029L992.105 -65.034L1245.1 80.6979Z" fill="#FE7454"/>
</g>
</svg>
