<svg width="1310" height="534" viewBox="0 0 1310 534" fill="none" xmlns="http://www.w3.org/2000/svg">
<path fill-rule="evenodd" clip-rule="evenodd" d="M54.5696 0.731294L1277.43 16.354C1288.46 16.4383 1297.87 25.3839 1297.48 36.4039L1309.84 479.528C1309.45 490.546 1300.81 499.281 1289.78 499.576L20.5987 533.263C9.57871 533.555 0.823739 524.235 0.548828 513.21L34.5163 20.7795C34.2464 9.75612 43.5428 0.646965 54.5696 0.731294Z" fill="#F0554D"/>
<mask id="mask0_84_4367" style="mask-type:luminance" maskUnits="userSpaceOnUse" x="0" y="0" width="1310" height="534">
<path d="M54.5696 0.731294L1277.43 16.354C1288.46 16.4383 1297.87 25.3839 1297.48 36.4039L1309.84 479.528C1309.45 490.546 1300.81 499.281 1289.78 499.576L20.5987 533.263C9.57871 533.555 0.823739 524.235 0.548828 513.21L34.5163 20.7795C34.2464 9.75612 43.5428 0.646965 54.5696 0.731294Z" fill="white"/>
</mask>
<g mask="url(#mask0_84_4367)">
<path fill-rule="evenodd" clip-rule="evenodd" d="M566.296 146.581C565.637 147.986 565.289 149.539 565.281 151.198L563.879 413.134C563.856 417.472 566.387 420.873 570.216 423.141L824.993 574.207C828.945 576.129 833.365 575.776 836.967 573.273L1061.88 417.049C1065.05 414.847 1066.6 411.545 1066.67 407.816C1067.41 406.127 1067.73 404.205 1067.68 402.249L1065.4 303.451C1065.3 299.202 1062.75 295.345 1058.59 293.991L843.611 223.848C840.296 222.767 837.067 222.518 833.902 223.986L791.976 243.457C787.907 245.348 785.455 249.058 785.399 253.419L785.393 253.906C784.752 255.283 784.402 256.81 784.382 258.427L783.86 298.834C783.801 303.421 786.525 307.186 790.791 309.193L932.107 375.721C936.141 377.62 938.794 381.03 939.026 385.36L939.027 385.368C938.013 387.435 936.316 389.208 934.201 390.668L834.17 459.783C831.004 461.972 826.942 461.955 823.517 460.189L671.857 381.984C667.974 379.983 665.581 376.616 665.259 372.374L664.126 357.548L669.13 198.088C669.267 193.785 671.322 190.317 675.014 187.87L816.099 94.4454C819.451 92.2273 823.521 92.5861 827.162 94.2755L1155.58 246.64C1158.88 247.973 1164.61 252.788 1165.85 260.223L1201.93 475.985C1202.01 476.509 1202.07 477.033 1202.09 477.553C1201.35 479.525 1200.07 481.235 1198.07 482.473L988.449 612.641L571.926 566.72L449.831 503.391C446.191 501.501 443.793 498.19 443.779 494.191L442.234 80.1807C442.234 80.0246 442.221 79.8704 442.216 79.7138C443.112 77.7866 444.64 76.2413 446.634 75.0817L626.01 -29.2607L792.174 -10.9413L571.289 137.041C568.083 139.192 566.318 142.425 566.296 146.191L566.296 146.581ZM1186.43 32.523L1194.85 146.71C1194.88 147.239 1194.9 147.751 1194.89 148.249C1192.95 152.558 1188.37 154.217 1182.58 151.545L842.942 -5.34409L1186.43 32.523Z" fill="#FE7454"/>
</g>
</svg>
