<svg width="257" height="309" viewBox="0 0 257 309" fill="none" xmlns="http://www.w3.org/2000/svg">
<path d="M171.611 8.39148L172.213 7.71348C174.614 5.00654 179.473 2.91688 182.885 1.86952C186.827 0.658563 191.817 -0.144233 195.692 1.66377C199.569 3.47345 201.718 7.54146 201.817 11.714C201.901 15.1614 200.679 18.3608 198.712 21.0795C199.486 22.3984 200.105 23.7359 200.375 24.7664L200.738 26.1494L200.345 27.5239C200.193 28.0535 200.007 28.5628 199.792 29.0536C206.201 30.8903 212.066 34.3731 216.613 39.5137C216.666 39.5744 216.72 39.6351 216.772 39.6959C217.015 39.9741 217.253 40.2558 217.487 40.5425C217.558 40.6285 217.627 40.7146 217.698 40.8023C217.926 41.0856 218.146 41.3723 218.364 41.6624C218.425 41.7417 218.484 41.8192 218.543 41.8985C218.813 42.2611 219.072 42.6288 219.327 43.0015C220.337 44.4908 221.349 45.9783 222.361 47.4659C223.338 48.9028 224.205 50.4089 224.962 51.969C232.664 50.6855 240.451 52.7819 246.226 58.5045C246.245 58.523 246.263 58.5416 246.253 58.5314C246.606 58.8806 246.946 59.2398 247.275 59.6109C247.282 59.6176 247.287 59.6243 247.294 59.6311C247.613 59.9903 247.919 60.3597 248.218 60.7375C248.265 60.7965 248.311 60.8572 248.356 60.918C248.619 61.257 248.874 61.6027 249.119 61.9552C249.132 61.9737 249.146 61.9923 249.159 62.0108C249.196 62.0648 249.23 62.112 249.247 62.1373L252.281 66.6017C255.349 71.1183 256.823 76.4512 256.868 81.8887C256.912 87.2318 254.713 91.9879 250.613 95.4133C247.694 97.8538 244.976 101.606 242.797 105.206C243.263 105.781 243.705 106.374 244.123 106.988L247.157 111.453C248.859 113.957 250.104 116.728 250.851 119.661C255.069 136.196 243.33 153.06 227.703 157.798C228.996 160.198 230.059 162.721 230.88 165.318C231.029 165.792 231.17 166.269 231.303 166.748C236.171 168.754 240.348 172.274 243.403 176.551C243.41 176.562 243.418 176.574 243.426 176.584C243.56 176.772 243.691 176.959 243.819 177.149L246.854 181.614C249.535 185.559 251.325 190.163 251.846 194.914C252.278 198.861 251.854 202.892 250.588 206.656C249.27 210.57 247.115 214.02 244.369 217.022C244.971 219.88 245.133 222.825 244.874 225.736C243.897 236.643 237.11 246.933 227.848 252.826C229.656 257.253 230.101 262.114 229.065 266.909C226.379 279.335 215.126 287.412 202.6 287.181C197.095 287.08 192.266 284.607 188.966 280.2C188.901 280.114 188.837 280.028 188.775 279.941C175.893 282.666 162.92 288.448 150.755 293.371C140.286 297.606 129.936 301.844 119.024 304.855C102.871 309.307 83.6107 311.532 69.2766 301.438C63.011 304.952 55.2004 306.199 48.2349 305.425C38.6552 304.359 30.1262 299.658 24.6853 291.651L21.6512 287.186C21.6225 287.146 21.5956 287.105 21.5686 287.065C21.5585 287.048 21.5467 287.031 21.5349 287.014C18.7149 282.804 16.9693 278.016 16.2205 273.014C14.4243 261.019 16.998 248.275 20.8956 236.682C15.8427 234.761 11.3935 231.553 8.26323 226.947L5.22908 222.483C5.07223 222.252 4.91884 222.016 4.76873 221.779C4.7603 221.763 4.75013 221.747 4.74001 221.73C0.236876 214.554 -0.0312672 206.013 2.33667 198.053C5.12626 188.675 11.5875 181.89 18.865 175.711C24.7579 170.708 31.4924 166.549 38.4343 163.013L36.9147 160.776C36.6044 160.317 36.3041 159.852 36.0208 159.375L36.014 159.365C33.5212 155.19 32.1114 150.535 31.8027 145.739C27.8275 143.739 24.4611 140.794 21.9076 137.038L18.8751 132.573C15.5779 127.723 13.9571 122.007 13.5844 116.194C13.5743 116.032 13.5658 115.87 13.5591 115.708C13.1425 104.253 19.1265 92.6355 29.3252 87.1171C30.671 86.3885 32.0692 85.8454 33.4943 85.4896C33.4606 85.3799 33.4268 85.2703 33.3948 85.1607C33.27 84.7407 33.1553 84.3191 33.0508 83.8941C33.0137 83.744 32.9799 83.5955 32.9445 83.4454C32.8433 82.9968 32.7505 82.5448 32.6712 82.0911C32.6476 81.9663 32.6274 81.8432 32.6072 81.7184C32.5279 81.2394 32.4638 80.7587 32.4099 80.2764C32.398 80.1786 32.388 80.079 32.3778 79.9812C32.3272 79.4736 32.2901 78.9642 32.2665 78.4549C32.2631 78.384 32.2597 78.3132 32.258 78.2424C32.2361 77.706 32.231 77.1714 32.2411 76.6351C32.2411 76.5912 32.2429 76.5474 32.2429 76.5035C32.2564 75.9419 32.285 75.382 32.3272 74.8557C32.3289 74.8288 32.3323 74.8018 32.334 74.7731C33.4134 61.6634 43.1128 50.8205 56.5412 49.9063C61.5621 49.564 66.1597 51.232 69.7926 54.7147C70.1991 55.1043 70.5887 55.5125 70.9597 55.9375C71.1048 55.9173 71.2515 55.8954 71.3982 55.8734C71.2684 52.846 72.6817 49.6922 74.9518 47.5114C74.2536 46.1689 73.8859 44.6594 73.8235 43.0825C73.5688 36.6769 78.6572 30.7183 84.061 27.9219C87.8962 25.9368 94.0337 24.3818 98.1556 26.151L98.4862 24.704L101.18 23.7376C104.15 22.6716 107.353 21.8334 110.412 21.0542C113.455 20.2818 116.583 19.5245 119.673 18.9696L122.717 18.4215C123.132 18.1803 123.559 17.9577 123.992 17.7536C123.206 14.5222 124.738 10.9719 127.2 8.69844C128.352 7.6359 129.698 6.87357 131.189 6.39965C132.594 5.95102 134.015 5.79248 135.481 5.7402C136.122 5.71659 137.861 5.76213 138.507 5.59684L139.638 4.87162L141.131 4.84969C142.686 4.82777 144.184 5.34049 145.376 6.34568C147.677 8.28523 148.178 11.176 147.456 13.834C147.899 14.1022 148.328 14.421 148.739 14.7937C151.814 11.3986 155.752 8.94468 160.434 7.71011C164.424 6.65938 168.415 6.8196 171.611 8.39148Z" fill="white"/>
<path d="M43.273 162.562L41.8361 160.446C41.5409 160.012 41.2575 159.57 40.9894 159.12L40.9827 159.11C38.6232 155.16 37.289 150.753 36.9973 146.213C33.2345 144.32 30.0486 141.533 27.6318 137.977L24.7596 133.752C21.6411 129.162 20.1063 123.751 19.7538 118.25C19.7437 118.096 19.7353 117.943 19.7302 117.791C19.3356 106.946 25.0007 95.9531 34.6513 90.7281C35.9263 90.04 37.2486 89.5256 38.5979 89.1883C38.5658 89.0837 38.5354 88.9808 38.5034 88.8762C38.387 88.4799 38.2774 88.0802 38.1779 87.6771C38.1442 87.5371 38.1105 87.3954 38.0784 87.2537C37.9806 86.8287 37.8945 86.4004 37.8186 85.972C37.7967 85.8539 37.7765 85.7375 37.758 85.6195C37.6838 85.1658 37.6213 84.7104 37.5707 84.255C37.5606 84.1606 37.5505 84.0678 37.542 83.9734C37.4931 83.4944 37.4577 83.012 37.4358 82.5297C37.4324 82.4639 37.4307 82.3964 37.4273 82.329C37.4071 81.8213 37.4038 81.3154 37.4122 80.8077C37.4122 80.7655 37.4139 80.7251 37.4139 80.6829C37.4257 80.1516 37.4527 79.622 37.4931 79.1245C37.4948 79.0975 37.4982 79.0722 37.4999 79.0452C38.522 66.6389 47.7019 56.3744 60.4119 55.5092C65.1629 55.1854 69.5143 56.764 72.9533 60.0595C73.3395 60.4289 73.7071 60.8151 74.0579 61.2182C74.94 61.0934 75.8204 60.9467 76.6839 60.7932C92.3116 58.0272 107.514 51.1814 122.714 46.5855C142.34 40.6522 163.183 35.2484 183.737 34.3529C194.332 33.8924 204.821 37.6501 211.916 45.6731C211.969 45.7305 212.018 45.7878 212.068 45.8451C212.298 46.1083 212.522 46.3764 212.744 46.6463C212.81 46.7272 212.878 46.8099 212.943 46.8925C213.159 47.1607 213.368 47.4322 213.576 47.7071C213.632 47.7813 213.689 47.8555 213.745 47.9297C213.997 48.2738 214.245 48.6212 214.487 48.9737C215.443 50.382 216.401 51.792 217.357 53.2003C218.281 54.5596 219.103 55.9848 219.82 57.4605C227.109 56.2462 234.479 58.2313 239.945 63.6469C239.964 63.6637 239.981 63.6823 239.972 63.6738C240.305 64.0044 240.627 64.3434 240.939 64.6942C240.946 64.701 240.951 64.706 240.956 64.7128C241.259 65.0535 241.549 65.4043 241.831 65.7618C241.875 65.8175 241.919 65.8748 241.963 65.9305C242.212 66.2509 242.452 66.5798 242.683 66.9121C242.696 66.9306 242.708 66.9492 242.721 66.966C242.757 67.0166 242.789 67.0622 242.804 67.0858L245.676 71.3106C248.581 75.5861 249.975 80.634 250.018 85.7797C250.06 90.836 247.978 95.3392 244.098 98.5807C241.335 100.891 238.763 104.443 236.7 107.848C237.141 108.393 237.561 108.957 237.955 109.537L240.826 113.762C242.436 116.131 243.615 118.755 244.324 121.532C248.316 137.183 237.206 153.143 222.413 157.627C223.638 159.899 224.645 162.286 225.421 164.746C225.562 165.193 225.696 165.645 225.82 166.099C230.428 167.998 234.383 171.329 237.272 175.377C237.281 175.387 237.287 175.399 237.296 175.409C237.421 175.586 237.545 175.763 237.667 175.942L240.539 180.168C243.077 183.903 244.772 188.261 245.265 192.757C245.673 196.493 245.273 200.308 244.074 203.871C242.828 207.575 240.787 210.84 238.188 213.682C238.758 216.387 238.91 219.174 238.665 221.93C237.741 232.253 231.319 241.993 222.552 247.57C224.262 251.76 224.684 256.361 223.702 260.899C221.16 272.66 210.51 280.305 198.655 280.086C193.443 279.99 188.873 277.65 185.749 273.479C185.688 273.399 185.628 273.316 185.569 273.233C173.377 275.814 161.098 281.285 149.582 285.945C139.676 289.954 129.878 293.966 119.55 296.813C104.263 301.028 86.0326 303.134 72.4658 293.58C66.5342 296.906 59.1419 298.087 52.5491 297.353C43.4821 296.346 35.4102 291.897 30.2594 284.317L27.389 280.093C27.362 280.054 27.3366 280.015 27.3113 279.976C27.2995 279.961 27.2894 279.944 27.2793 279.929C24.6095 275.944 22.9583 271.412 22.2482 266.678C20.5482 255.325 22.9836 243.263 26.6738 232.29C21.8907 230.472 17.6811 227.436 14.7178 223.075L11.8455 218.85C11.6971 218.631 11.5521 218.408 11.4104 218.184C11.4003 218.169 11.3919 218.155 11.3834 218.14C7.12149 211.346 6.86682 203.263 9.10827 195.727C11.7477 186.852 17.8632 180.432 24.7511 174.583C30.3286 169.847 36.7021 165.91 43.273 162.562Z" fill="#442333"/>
<path fill-rule="evenodd" clip-rule="evenodd" d="M215.492 245.282L215.858 245.82C224.189 258.079 214.827 275.068 198.513 274.766C194.845 274.699 191.718 273.098 189.519 270.162C189.399 270.003 189.284 269.843 189.176 269.681L187.69 267.495C186.641 267.614 185.653 267.777 185.032 267.904C172.638 270.422 159.4 276.215 147.66 280.966C127.104 289.284 92.5324 304.156 73.0678 287.2L72.9075 287.06C67.6083 291.278 59.8248 292.725 53.3484 292.006C45.3304 291.114 38.7781 287.181 34.6781 281.148L31.816 276.937C31.7958 276.907 31.7755 276.876 31.7553 276.848C31.7452 276.832 31.735 276.817 31.7249 276.802C29.5847 273.608 28.1258 269.833 27.495 265.615C25.6786 253.492 29.1243 240.171 33.4587 228.742C27.1257 227.601 22.1874 224.525 19.1869 220.11L16.3249 215.9C16.2085 215.728 16.0955 215.553 15.9842 215.377C15.9774 215.367 15.9707 215.355 15.964 215.343C12.9248 210.501 12.1304 204.156 14.2471 197.043C16.5779 189.21 22.2363 183.476 28.2979 178.328C34.8148 172.796 42.8023 168.231 51.0766 164.438C50.3514 163.64 49.6835 162.793 49.078 161.901L46.2159 157.69C45.9764 157.337 45.7471 156.978 45.5278 156.612L45.521 156.602C43.1649 152.677 41.9506 148 42.2255 142.99C37.9838 141.561 34.5229 138.92 32.0589 135.296L29.1967 131.084C26.8254 127.595 25.3783 123.196 25.0511 118.094C25.0444 117.983 25.0394 117.887 25.036 117.776C24.7088 108.813 29.33 99.6567 37.3193 95.3324C40.4546 93.6357 43.8598 93.4518 47.1334 94.7977L46.3104 93.5868C46.2564 93.5058 46.2092 93.4232 46.1569 93.3422C46.0321 93.1533 45.9123 92.961 45.7942 92.7688C45.6559 92.5428 45.5193 92.3151 45.3895 92.0857C45.29 91.9086 45.1938 91.7298 45.0994 91.5494C44.9678 91.2998 44.8397 91.0485 44.72 90.7955C44.6424 90.6319 44.5681 90.4666 44.4939 90.3013C44.3725 90.0264 44.2544 89.7515 44.1465 89.4749C44.0875 89.3248 44.0318 89.1764 43.9761 89.0263C43.8665 88.7295 43.7636 88.4292 43.6675 88.1273C43.6253 87.9958 43.5848 87.8642 43.546 87.731C43.4499 87.4089 43.3623 87.0867 43.283 86.7612C43.2544 86.6465 43.2273 86.5335 43.202 86.4188C43.1227 86.0731 43.0519 85.7257 42.9912 85.3782C42.9726 85.2838 42.9575 85.1894 42.9423 85.0932C42.8816 84.7239 42.8309 84.3545 42.7905 83.9851C42.782 83.9092 42.7737 83.8333 42.7652 83.7591C42.7264 83.3679 42.6994 82.9766 42.6808 82.5836C42.6775 82.5296 42.6759 82.4757 42.6725 82.42C42.6573 82.0068 42.6539 81.5953 42.6607 81.1821C42.6607 81.1483 42.6623 81.1146 42.6623 81.0809C42.6724 80.6474 42.6944 80.2157 42.7298 79.7856C42.7298 79.7721 42.7315 79.7586 42.7315 79.7451C43.5157 70.2379 50.3767 61.5369 60.9751 60.8151C64.3246 60.5874 67.293 61.6651 69.7166 63.9875C70.3473 64.593 70.8971 65.2372 71.3609 65.9203L71.9513 66.7906C74.0274 66.6455 76.4999 66.234 77.7193 66.0181C93.1092 63.2926 109.083 56.2816 124.166 51.7211C143.173 45.975 163.928 40.5999 183.771 39.7363C193.332 39.3198 202.055 42.7064 207.936 49.3532C207.98 49.4021 208.022 49.451 208.064 49.4999C208.258 49.7225 208.45 49.9519 208.639 50.1813C208.696 50.2504 208.752 50.3196 208.808 50.3887C208.99 50.6164 209.167 50.8474 209.342 51.0802C209.391 51.1443 209.44 51.2067 209.487 51.2725C209.702 51.5592 209.909 51.851 210.111 52.1478C211.064 53.5527 212.019 54.9559 212.972 56.3592C214.311 58.3274 215.434 60.5165 216.306 62.9148C216.401 63.1712 216.488 63.4276 216.576 63.6873C224.157 60.9719 231.344 62.7968 236.095 67.5057C236.102 67.5124 236.108 67.5192 236.117 67.5259C236.376 67.784 236.629 68.0521 236.874 68.327C236.879 68.3321 236.884 68.3372 236.887 68.3422C237.124 68.607 237.351 68.8819 237.572 69.1619C237.608 69.2074 237.643 69.2529 237.677 69.2968C237.876 69.5548 238.068 69.8163 238.255 70.0861C238.274 70.1131 238.292 70.1384 238.311 70.1654C238.319 70.1772 238.328 70.1873 238.335 70.1991L241.197 74.4105C243.354 77.5829 244.632 81.575 244.669 86.0934C244.7 89.6537 243.276 92.7317 240.542 95.0153C236.791 98.1506 233.098 103.465 230.226 108.783C231.474 109.896 232.573 111.144 233.501 112.508L236.363 116.72C237.626 118.578 238.572 120.654 239.147 122.906C243.081 138.326 228.984 153.979 213.854 153.947L215.89 156.943C217.823 159.786 219.339 162.935 220.383 166.242C220.759 167.435 221.074 168.659 221.322 169.904C225.969 171.125 230.038 174.233 232.895 178.237C232.9 178.242 232.904 178.249 232.909 178.254C233.012 178.399 233.115 178.546 233.216 178.694L236.078 182.906C238.176 185.992 239.562 189.573 239.96 193.211C240.291 196.23 239.972 199.292 239.002 202.171C237.707 206.023 235.339 209.3 232.285 212.066C232.403 212.375 232.509 212.692 232.604 213.014C236.346 226.001 227.444 240.251 215.492 245.282Z" fill="#4B6B56"/>
<path d="M215.21 241.816C217.652 246.012 218.46 250.893 217.413 255.72C216.404 260.371 213.766 264.546 210.063 267.526C205.959 270.827 200.864 272.417 195.619 272.321C191.406 272.243 187.768 270.381 185.243 267.008C184.805 266.423 184.41 265.806 184.068 265.16C183.546 265.232 183.029 265.318 182.521 265.423C175.867 266.774 169.303 268.985 162.958 271.376C157.076 273.594 151.286 276.033 145.46 278.391C135.693 282.342 126.019 286.304 115.836 289.1C109.402 290.866 102.692 292.204 96.0119 292.474C89.6873 292.73 83.2463 292.012 77.3804 289.519C74.7089 288.384 72.2262 286.91 69.9729 285.097C64.4241 288.912 56.8497 290.278 50.2924 289.549C37.1675 288.09 27.7025 278.927 25.7478 265.876C23.7998 252.865 27.6705 238.662 32.4013 226.576C16.6285 224.822 7.87687 212.264 12.5554 196.54C14.9925 188.347 20.8028 182.376 27.1561 176.983C33.6359 171.481 41.2642 167.087 48.9954 163.456C47.8486 162.459 46.7945 161.358 45.8483 160.167C41.4953 154.689 39.7851 147.837 40.6318 140.989C29.9086 138.328 23.9971 129.221 23.2888 118.209C23.282 118.086 23.2753 117.963 23.2702 117.84C22.9211 108.228 27.9133 98.4154 36.4777 93.7808C38.6871 92.5867 41.05 92.0436 43.4213 92.165C36.4406 78.5308 44.4754 60.1708 60.8553 59.0543C64.699 58.7929 68.1582 60.0477 70.9393 62.7125C71.646 63.3905 72.2835 64.1359 72.8317 64.9438C74.3631 64.792 75.9097 64.5458 77.4108 64.2793C85.9364 62.7698 94.3304 60.0207 102.498 57.1957C109.531 54.762 116.531 52.1849 123.655 50.0312C142.944 44.2007 163.493 38.8509 183.693 37.9722C190.816 37.6619 197.951 39.3737 203.871 43.4249C209.137 47.0274 212.928 52.1191 215.104 58.1014C215.559 59.3528 215.935 60.6346 216.232 61.935C230.266 57.0861 243.445 66.5865 243.573 81.8668C243.607 85.9551 241.951 89.5373 238.814 92.1583C234.921 95.4117 231.396 100.792 228.865 105.502C228.927 105.543 228.989 105.585 229.05 105.627C233.487 108.663 236.663 113.035 237.996 118.26C241.903 133.577 229.281 149.338 214.188 151.305C216.37 154.416 218.06 157.875 219.204 161.5C219.865 163.591 220.339 165.748 220.609 167.927C230.303 169.835 237.798 179.162 238.854 188.807C239.212 192.074 238.863 195.41 237.815 198.523C236.535 202.327 234.297 205.593 231.453 208.37C232.275 211.249 232.536 214.273 232.27 217.253C231.356 227.488 224.348 237.154 215.21 241.816Z" fill="#442333"/>
<path fill-rule="evenodd" clip-rule="evenodd" d="M212.62 241.074C221.601 253.369 212.203 270.86 195.651 270.555C191.983 270.488 188.856 268.887 186.657 265.951C186.014 265.092 185.501 264.19 185.125 263.254C183.967 263.372 182.85 263.554 182.17 263.692C169.776 266.21 156.538 272.004 144.798 276.755C124.242 285.073 89.6706 299.945 70.2059 282.988C70.1519 282.943 70.0997 282.896 70.0457 282.848C64.7465 287.067 56.9647 288.515 50.4866 287.795C38.1848 286.427 29.3353 277.902 27.4953 265.615C25.5794 252.828 29.5175 238.709 34.1774 226.881C34.4254 226.252 34.6784 225.616 34.9382 224.976C34.6312 224.977 34.3208 224.967 34.0054 224.947C18.4721 223.915 9.72903 212.23 14.2473 197.043C16.5782 189.21 22.2366 183.476 28.2981 178.328C35.1591 172.503 43.6509 167.75 52.3891 163.843C44.8906 158.769 40.7669 149.65 42.6306 139.61C32.4454 137.807 25.8036 129.799 25.0514 118.094C25.0447 117.983 25.0396 117.887 25.0363 117.776C24.7091 108.813 29.3303 99.6568 37.3196 95.3325C40.487 93.6189 43.9275 93.4485 47.2332 94.8366C47.0966 94.6696 46.9651 94.4993 46.8369 94.3256C37.3348 81.5464 44.8231 61.9165 60.9754 60.8151C64.3249 60.5875 67.2932 61.6652 69.7168 63.9876C70.6107 64.8444 71.3393 65.7821 71.8975 66.794C73.9838 66.6524 76.4901 66.2358 77.7196 66.0182C93.1095 63.2927 109.083 56.2817 124.166 51.7212C143.174 45.975 163.929 40.5999 183.771 39.7364C197.102 39.1562 208.808 45.9615 213.446 58.7052C214.106 60.5166 214.595 62.4174 214.903 64.3552C228.689 58.2296 241.686 67.327 241.807 81.8804C241.838 85.4424 240.414 88.5204 237.682 90.804C233.55 94.2564 229.487 100.353 226.515 106.187C227.04 106.444 227.554 106.742 228.053 107.084C232.137 109.877 235.058 113.888 236.286 118.695C240.241 134.199 225.967 149.947 210.744 149.741C213.79 153.296 216.096 157.515 217.521 162.031C218.271 164.413 218.781 166.924 218.993 169.459C228.438 170.585 236.07 179.597 237.099 188.999C237.429 192.018 237.11 195.081 236.142 197.96C234.845 201.814 232.477 205.089 229.423 207.855C229.543 208.164 229.647 208.481 229.742 208.803C233.484 221.795 224.577 236.048 212.62 241.074Z" fill="#99CC66"/>
<path fill-rule="evenodd" clip-rule="evenodd" d="M29.4448 102.527C31.462 99.5708 34.12 97.0646 37.3194 95.3325C40.4868 93.6189 43.9274 93.4485 47.233 94.8366C47.0981 94.6696 46.9649 94.4993 46.8367 94.3256C37.3346 81.5464 44.823 61.9148 60.9752 60.8151C64.3247 60.5875 67.2931 61.6652 69.7167 63.9876C70.6106 64.8444 71.3391 65.7821 71.8974 66.794C73.9836 66.6524 76.4899 66.2358 77.7194 66.0182C93.1094 63.2927 109.083 56.2817 124.166 51.7212C143.173 45.975 163.928 40.5999 183.771 39.7364C197.101 39.1562 208.808 45.9615 213.444 58.7052C214.105 60.5166 214.593 62.4174 214.903 64.3552C228.689 58.2296 241.686 67.327 241.807 81.8821C241.838 85.4424 240.414 88.5204 237.682 90.804C233.55 94.2564 229.487 100.353 226.515 106.187C227.04 106.444 227.554 106.742 228.053 107.084C232.136 109.877 235.058 113.886 236.286 118.695C237.282 122.603 237.12 126.526 236.078 130.206L29.4448 102.527Z" fill="#BFE975"/>
<path fill-rule="evenodd" clip-rule="evenodd" d="M13.5964 209.604C12.7312 205.863 12.8881 201.612 14.2475 197.043C16.5783 189.21 22.2367 183.476 28.2983 178.328C34.52 173.046 42.0825 168.646 49.9537 164.957C50.8611 165.812 51.8394 166.598 52.8851 167.305C44.1453 171.211 35.6533 175.966 28.7924 181.791C22.7308 186.937 17.0724 192.671 14.7416 200.505C13.7853 203.718 13.426 206.772 13.5964 209.604ZM42.7403 149.579C42.2748 147.449 42.0944 145.208 42.2293 142.895C42.5245 142.959 42.8229 143.018 43.1248 143.072C42.7116 145.299 42.5936 147.479 42.7403 149.579ZM25.6031 122.292C25.3299 120.955 25.1443 119.553 25.0515 118.094C25.0448 117.983 25.0398 117.887 25.0364 117.776C24.7092 108.813 29.3304 99.6568 37.3197 95.3325C39.831 93.9731 42.516 93.5852 45.169 94.1755C45.7559 95.4235 46.4727 96.6328 47.3311 97.7864C47.4593 97.9601 47.5925 98.1322 47.7275 98.2991C44.4218 96.9094 40.9812 97.0814 37.8138 98.795C29.8246 103.119 25.2051 112.276 25.5306 121.236C25.534 121.349 25.539 121.444 25.5458 121.557C25.5626 121.805 25.5812 122.049 25.6031 122.292ZM43.1855 86.3869C40.5326 74.6905 47.9249 61.704 60.9755 60.8151C64.325 60.5875 67.2934 61.6652 69.717 63.9876C70.6108 64.8444 71.3394 65.7821 71.8976 66.794C73.9839 66.6524 76.4902 66.2358 77.7197 66.0182C93.1096 63.2927 109.083 56.2817 124.166 51.7212C143.174 45.975 163.929 40.5999 183.771 39.7364C197.102 39.1562 208.808 45.9615 213.445 58.7052C214.106 60.5166 214.593 62.4174 214.903 64.3552C228.253 58.4236 240.863 66.767 241.759 80.5176C239.155 68.8854 227.586 62.4022 215.398 67.8178C215.089 65.8782 214.6 63.9791 213.94 62.1661C209.304 49.4224 197.596 42.6188 184.265 43.1989C164.423 44.0625 143.668 49.4376 124.66 55.1837C109.577 59.7442 93.6039 66.7552 78.2139 69.479C76.9844 69.6966 74.4798 70.1149 72.3919 70.2565C71.8336 69.2446 71.1067 68.3069 70.2128 67.4484C67.7892 65.126 64.8191 64.05 61.4696 64.2777C49.6974 65.0788 42.5295 75.7244 43.1855 86.3869ZM228.288 107.248C232.248 110.033 235.083 113.981 236.286 118.695C236.626 120.036 236.829 121.376 236.91 122.709C236.869 122.525 236.827 122.341 236.78 122.157C235.554 117.349 232.631 113.338 228.548 110.545C228.049 110.205 227.534 109.904 227.01 109.648C227.416 108.85 227.843 108.047 228.288 107.248Z" fill="#E7FF93"/>
<path fill-rule="evenodd" clip-rule="evenodd" d="M211.562 238.559C215.721 236.812 219.404 233.849 222.192 230.32C226.749 224.552 229.205 216.796 227.119 209.559C227.048 209.314 226.967 209.07 226.874 208.83L226.208 207.088L227.591 205.833C230.263 203.413 232.399 200.525 233.555 197.09C234.396 194.592 234.673 191.915 234.386 189.296C234.169 187.308 233.6 185.313 232.745 183.422L31.2223 245.558C29.8225 252.144 29.2439 258.869 30.1934 265.21C31.8463 276.246 39.6905 283.849 50.7881 285.083C56.6186 285.731 63.6718 284.434 68.347 280.713L70.1398 279.286L71.8551 280.806C71.9023 280.848 71.9495 280.89 71.9967 280.931C74.1353 282.793 76.5286 284.275 79.136 285.382C89.9891 289.993 103.652 287.785 114.645 284.766C124.653 282.019 134.175 278.109 143.774 274.225C155.971 269.29 168.701 263.645 181.625 261.017C182.681 260.803 183.776 260.65 184.845 260.54L186.887 260.329L187.655 262.234C187.955 262.977 188.36 263.672 188.84 264.315C190.534 266.576 192.875 267.776 195.701 267.828C203.842 267.978 211.257 262.898 213.021 254.767C213.948 250.493 212.992 246.209 210.417 242.684L208.381 239.897L211.562 238.559Z" fill="#71A35D"/>
<path fill-rule="evenodd" clip-rule="evenodd" d="M130.804 50.1728C99.6164 90.8883 99.1779 122.92 103.784 170.481C111.633 220.906 116.963 259.896 76.5948 287.215C75.5795 286.719 74.5912 286.164 73.6298 285.549C114.635 260.152 108.818 221.246 100.851 170.864C96.2484 124.21 96.4305 92.7114 125.893 51.6233C127.517 51.1358 129.157 50.6501 130.804 50.1728ZM178.705 264.473C177.73 264.714 176.75 264.971 175.768 265.244C175.559 223.142 182.714 146.312 234.022 113.316C234.538 114.165 234.994 115.053 235.38 115.981C185.454 150.011 177.271 224.586 178.705 264.473ZM160.103 270.579C159.178 270.936 158.255 271.299 157.336 271.663C155.653 265.662 154.233 259.456 153.081 253.096C143.258 188.148 160.12 105.298 214.632 62.8879C214.735 63.3736 214.824 63.8627 214.903 64.3552C215.003 64.3113 215.103 64.2709 215.2 64.2287C215.226 64.3737 215.251 64.5188 215.275 64.6655C216.536 64.1039 217.793 63.6721 219.032 63.3584C163.138 104.084 145.906 187.4 155.99 252.574C157.107 258.737 158.479 264.755 160.103 270.579ZM128.076 283.31C126.903 283.734 125.719 284.152 124.522 284.56C139.227 251.232 134.832 226.778 125.556 190.887C101.502 79.9559 137.173 93.575 181.744 68.2225C190.303 63.3534 198.866 57.5549 206.351 47.7003C207.066 48.3851 207.747 49.1103 208.393 49.8777C170.42 87.5219 133.694 79.536 123.444 112.751C118.837 127.684 119.766 149.861 128.516 190.136C137.589 225.515 141.88 249.744 128.076 283.31ZM52.3436 163.864L52.3892 163.842C51.8141 163.453 51.2574 163.04 50.7228 162.603C50.2691 162.218 49.8324 161.815 49.4107 161.399C49.9319 155.023 47.574 150.045 42.6172 146.437C42.4907 144.637 42.5599 142.777 42.8415 140.881C59.9383 169.17 66.4316 203.63 31.3509 236.176C32.029 234.021 32.7643 231.906 33.53 229.848C56.3476 209.169 58.9111 186.807 50.6284 165.124C51.3368 164.795 52.0485 164.472 52.7602 164.153C52.6202 164.058 52.4819 163.961 52.3436 163.864ZM41.983 139.485C40.4195 139.163 38.9456 138.692 37.5659 138.082C34.0157 132.665 30.1012 127.494 25.9573 122.52C25.6942 121.206 25.5137 119.833 25.4226 118.405C25.4159 118.292 25.4108 118.195 25.4058 118.084C25.3973 117.816 25.3923 117.548 25.3906 117.28C31.4505 124.259 37.1038 131.627 41.983 139.485ZM218.958 169.071C218.971 169.201 218.983 169.329 218.993 169.457C219.11 169.472 219.226 169.487 219.341 169.504C219.349 169.592 219.358 169.68 219.364 169.767C220.198 169.867 221.017 170.029 221.818 170.246C209.314 188.782 206.019 211.055 218.938 237.36C218.132 237.984 217.295 238.566 216.437 239.099C204.922 211.348 207.756 188.254 218.958 169.071ZM31.6612 276.436C120.68 236.041 47.7494 132.882 56.4352 62.0952C57.4421 61.7545 58.4979 61.4964 59.5976 61.3227C52.2475 113.603 91.0386 184.125 75.6992 234.513C70.2061 252.558 57.1233 267.59 33.4001 278.88C32.7744 278.106 32.1942 277.289 31.6612 276.436ZM81.5668 65.642C76.7651 83.1166 86.1172 144.116 92.2647 97.6817C93.6511 87.2098 93.9294 73.041 97.8119 61.0816C98.984 60.6953 100.156 60.3007 101.327 59.9009C97.0377 72.1033 95.1639 86.2451 93.7135 97.1994C87.2135 146.289 75.2034 94.7016 78.5192 66.2492C79.5328 66.0637 80.5498 65.8613 81.5668 65.642Z" fill="#BFE975"/>
<path fill-rule="evenodd" clip-rule="evenodd" d="M130.433 49.8626C97.6128 90.0889 97.1423 122.11 103.413 170.172C109.92 220.042 114.984 258.94 76.1158 286.981C75.1191 286.471 74.1493 285.903 73.2048 285.274C114.271 259.879 108.451 220.96 100.48 170.555C95.8773 123.9 96.0595 92.4029 125.522 51.313C127.148 50.8256 128.786 50.3416 130.433 49.8626ZM123.927 284.763C138.905 251.171 134.51 226.652 125.185 190.576C101.131 79.6474 136.802 93.2664 181.373 67.9139C189.939 63.0414 198.508 57.238 205.997 47.3682C206.725 48.0411 207.42 48.7562 208.08 49.5135C170.086 87.2234 131.968 78.9626 121.714 112.195C117.106 127.128 118.715 149.552 127.465 189.827C135.021 224.679 139.492 248.744 127.492 283.52C126.316 283.941 125.127 284.356 123.927 284.763ZM218.661 63.0499C161.11 103.322 143.73 186.556 155.619 252.266C156.761 258.574 158.172 264.728 159.847 270.678C158.921 271.037 157.999 271.4 157.08 271.764C155.347 265.635 153.887 259.292 152.71 252.787C142.872 187.736 159.802 104.722 214.521 62.3719C214.669 63.028 214.797 63.6891 214.903 64.3553C216.165 63.7953 217.422 63.3619 218.661 63.0499ZM175.399 265.349C175.143 223.302 182.186 145.982 233.776 112.923C234.312 113.757 234.785 114.632 235.191 115.544C183.233 148.989 175.891 224.37 178.347 264.563C177.367 264.807 176.384 265.07 175.399 265.349ZM221.447 169.936C208.425 188.431 204.722 210.704 218.786 237.476C217.966 238.102 217.116 238.684 216.241 239.217C204.42 211.041 207.373 187.65 218.872 168.275C218.919 168.668 218.96 169.062 218.993 169.457C219.827 169.558 220.646 169.72 221.447 169.936ZM31.2902 276.126C120.309 235.731 47.3783 132.574 56.0642 61.7866C57.071 61.446 58.1268 61.1879 59.2265 61.0142C47.4188 131.813 121.849 235.626 33.0291 278.571C32.4034 277.797 31.8232 276.981 31.2902 276.126ZM81.1957 65.3335C76.394 82.8063 85.7461 143.806 91.8936 97.3732C93.28 86.9013 93.5583 72.7325 97.4408 60.773C98.6129 60.3868 99.7851 59.9921 100.956 59.5924C96.6666 71.7947 94.7929 85.9366 93.3424 96.8892C86.8424 145.98 74.8324 94.393 78.1482 65.939C79.1618 65.7551 80.1787 65.5527 81.1957 65.3335ZM25.0195 116.971C31.1485 124.029 36.8593 131.484 41.7773 139.441C40.2004 139.102 38.7145 138.61 37.3282 137.974C33.7425 132.484 29.7824 127.247 25.5862 122.211C25.3231 120.897 25.1426 119.523 25.0515 118.094C25.0448 117.983 25.0398 117.887 25.0364 117.776C25.0263 117.507 25.0212 117.239 25.0195 116.971ZM42.4704 140.573C59.5672 168.86 66.0605 203.322 30.9799 235.867C31.6579 233.71 32.3932 231.595 33.1589 229.538C55.9765 208.859 58.54 186.498 50.2573 164.816C50.9674 164.485 51.6775 164.161 52.3892 163.843C51.1816 163.026 50.0617 162.104 49.0396 161.088C49.5608 154.715 47.203 149.736 42.2479 146.129C42.1197 144.327 42.1888 142.469 42.4704 140.573Z" fill="#71A35D"/>
<path d="M71.5553 183.752C60.9772 195.54 50.7464 216.21 44.8805 231.098C41.3522 240.053 37.242 253.025 38.8713 263.912C41.3674 280.582 62.2268 277.794 64.4076 271.857C46.9634 258.601 77.7028 195.995 86.9907 181.432C106.246 176.181 191.823 158.486 202.202 182.374C212.048 178.05 207.948 156.535 194.017 151.627C178.848 146.282 113.959 154.226 73.6197 167.937C56.4302 173.781 43.8163 180.244 35.7444 187.097C30.4789 191.566 26.6825 195.584 25.2725 200.323C22.7291 208.877 27.1581 212.962 34.7679 213.468C34.7308 199.232 56.786 187.169 71.5553 183.752ZM131.992 230.197C131.96 231.663 131.546 233.506 131.427 235.262C131.034 241.081 137.212 243.698 140.809 240.639C144.665 237.358 147.773 229.02 150.35 227.119C150.385 230.841 150.81 233.97 153.364 235.962C160.829 241.787 169.864 231.443 174.615 225.013C173.657 231.489 175.274 237.056 182.852 236.382C183.38 234.936 184.125 224.633 188.542 218.46C191.35 226.731 197.061 234.803 207.816 230.61C213.868 228.251 220.963 219.882 218.688 211.989C214.9 212.645 213.06 219.153 204.634 218.73C199.023 218.45 194.349 214.256 192.504 209.371C203.308 208.53 227.067 203.057 225.664 190.252C225.131 185.377 220.505 180.042 215.946 180.949C213.173 189.927 205.142 202.013 194.751 204.556C195.567 201.896 198.469 197.707 197.619 194.506C196.473 190.188 190.578 188.126 185.323 188.674C184.866 196.206 182.779 206.31 179.545 211.387C176.399 216.72 167.949 227.553 162.566 229.883C161.884 223.665 169.425 199.714 175.256 198.399C176.468 199.962 175.331 203.615 174.387 205.435C172.294 209.467 175.122 207.907 177.252 205.597C187.072 194.956 172.667 183.255 162.826 194.516C157.28 200.863 151.047 221.459 143.513 226.618C143.707 223.797 149.783 210.517 151.155 207.272C154.086 200.343 147.812 194.202 140.866 195.444C140.079 198.537 141.172 198.56 138.644 205.307C136.54 210.92 127.038 231.764 123.019 233.806C124.109 223.672 137.453 209.643 133.265 202.991C131.302 199.873 127.844 199.112 123.35 199.773C123.299 200.013 123.257 200.235 123.22 200.446C122.962 208.801 112.967 224.839 111.631 235.093C111.542 235.783 111.505 236.459 111.515 237.119C109.323 240.301 106.72 243.14 104.205 243.6C98.095 244.722 101.504 238.036 101.504 238.036C101.504 238.036 112.21 217.521 113.799 211.672C115.598 205.054 111.827 203.271 107.155 204.057C101.752 204.966 95.0795 208.973 93.4216 207.459C89.6386 204.003 101.467 188.514 101.467 188.514C101.89 187.76 103.003 181.685 94.6141 186.402C86.2251 191.121 81.4892 199.82 83.626 207.13C85.7629 214.438 90.8327 212.578 95.8249 212.019C100.817 211.463 98.1626 215.672 98.1626 215.672C96.2382 219.902 89.9692 232.008 87.2808 240.58C85.3615 246.698 88.5154 252.155 97.4845 251.716C104.546 251.372 109.542 246.413 112.632 241.961C113.284 243.255 114.205 244.288 115.333 244.928C122.732 249.117 129.703 234.891 131.992 230.197ZM105.263 122.329C107.246 123.393 107.086 124.372 110.011 125.761C112.372 126.885 114.252 126.866 116.634 127.644C115.856 131.933 109.716 139.639 104.739 139.254C97.1506 138.669 102.875 125.105 105.263 122.329ZM157.496 120.469C156.287 125.186 150.21 133.117 144.432 131.97C138.062 130.705 142.745 117.863 145.419 115.033C148.208 117.83 151.419 120.353 157.496 120.469ZM118.821 121.849C113.956 120.044 114.418 113.434 117.852 110.49C122.813 106.236 120.167 119.909 118.821 121.849ZM159.877 114.741C157.191 113.66 155.705 111.5 156.371 107.477C156.87 104.457 157.747 101.694 160.817 102.106C162.598 105.715 160.935 111.174 159.877 114.741ZM202.755 97.4288C205.133 106.256 191.118 126.811 186.652 125.502C181.299 123.932 192.524 93.9629 202.755 97.4288ZM218.963 75.1577C213.445 77.9304 209.958 86.0799 207.805 91.1059C201.942 79.5495 181.803 88.7952 173.554 109.724C172.162 113.254 172.7 113.212 168.194 113.95C173.4 83.7018 151.843 91.6945 146.366 100.124C145.629 101.259 145.074 103.104 144.42 103.836C142.646 105.823 137.392 106.079 131.376 119.45C130.393 121.636 130.61 121.373 127.861 121.699C128.765 115.19 130.393 107.631 125.935 102.672C121.925 98.208 114.784 99.7984 110.383 102.325C106.454 99.4341 100.102 99.1828 92.408 100.567L92.4906 100.395C94.8147 95.7203 95.4809 93.435 92.2275 88.6182C95.0508 86.9383 157.734 71.8048 185.242 73.0225C189.316 73.2029 198.814 75.0463 199.529 80.0234C207.933 72.9348 204.496 50.3483 184.27 51.2286C166.523 52.0011 146.28 57.054 127.495 62.7327C112.557 67.2477 94.5044 74.7276 79.725 77.3451C72.0191 78.7096 61.5657 79.7907 61.758 72.2922C55.3204 72.7307 51.5863 81.4334 56.0675 87.4612C60.2552 93.0926 74.4781 91.9491 80.8162 90.1614L76.9287 97.1674L71.9668 106.061C61.2554 108.84 53.5343 109.562 49.2116 109.626C43.877 109.702 42.7942 105.45 42.7942 105.45C36.2216 109.007 36.532 117.357 36.532 117.357C37.7682 136.609 60.036 125.013 60.036 125.013C60.6904 124.643 61.3465 124.281 61.9992 123.92L57.916 131.238C56.3104 134.115 54.9291 137.293 54.0689 141.086C52.0231 150.11 58.2988 156.497 66.4382 156.533C66.5461 152.816 67.2511 149.281 68.3086 145.913C70.0812 140.269 79.6744 122.179 85.5842 112.245C94.3088 108.457 101.915 105.821 107.216 104.806C105.919 106.283 105.418 107.847 104.032 110.237C102.527 112.832 94.0558 115.053 89.1647 130.197C81.3357 154.438 104.227 162.721 119.192 140.629C125.596 131.175 124.137 127.58 128.986 126.844C128.081 134.481 128.323 140.419 133.7 143.727C146.317 151.49 159.724 135.763 164.546 124.309C166.55 119.546 165.249 120.361 170.663 119.312C168.059 141.015 180.45 143.423 192.234 134.375C195.206 132.093 197.37 129.711 199.655 126.337C200.222 131.454 201.311 133.725 205.14 136.341C217.204 144.584 232.751 124.235 221.559 116.578C221.294 121.491 216.7 125.47 212.003 123.498C207.978 121.81 211.4 112.63 212.476 109.633C215.856 100.212 222.818 88.2336 230.305 81.9765C230.271 78.0889 227.472 70.8805 218.963 75.1577ZM79.7621 254.239C74.2504 255.715 70.0542 267.6 77.7619 274.314C92.2242 286.913 125.728 272.061 140.482 266.091C154.141 260.564 167.872 254.86 179.878 252.419C186.738 251.025 198.166 250.623 195.864 259.054C203.583 259.196 207.622 251.175 201.77 246.206C187.888 234.425 152.377 250.129 134.255 253.62C120.144 256.339 106.541 259.513 97.1658 260.565C91.2763 261.227 79.7503 260.969 79.7621 254.239Z" fill="#4E3541"/>
<path d="M41.8057 271.133C42.4297 271.935 43.1263 272.634 43.8768 273.24C49.8894 269.573 55.0216 265.595 59.3527 261.321C59.2043 260.014 59.1369 258.634 59.1487 257.187C54.5275 262.284 48.8083 266.957 41.8057 271.133ZM76.2589 201.583C77.136 199.729 78.0045 197.948 78.8528 196.248C78.1225 186.928 76.5895 177.32 74.6836 167.582C74.3295 167.7 73.9703 167.819 73.6195 167.937C73.0949 168.116 72.5737 168.295 72.0576 168.475C74.2316 179.804 75.8558 190.927 76.2589 201.583ZM101.96 177.92C102.893 177.725 103.858 177.527 104.839 177.328C104.495 175.07 104.143 172.788 103.784 170.481C103.431 166.85 103.109 163.309 102.829 159.849C101.847 160.071 100.873 160.299 99.8995 160.53C100.183 163.895 100.502 167.335 100.851 170.864C101.227 173.242 101.598 175.594 101.96 177.92ZM122.216 174.178C123.199 174.019 124.194 173.864 125.195 173.712C123.995 167.236 123.048 161.316 122.339 155.889C121.375 156.062 120.408 156.239 119.442 156.418C120.133 161.876 121.054 167.781 122.216 174.178ZM154.772 170.499C155.711 170.447 156.646 170.401 157.575 170.363C158.842 163.714 160.395 157.121 162.244 150.633C161.294 150.707 160.333 150.785 159.359 150.869C157.548 157.332 156.02 163.891 154.772 170.499ZM189.718 173.081C190.669 173.38 191.583 173.7 192.448 174.051C194.813 167.819 197.547 161.707 200.694 155.826C199.928 155.081 199.103 154.394 198.218 153.78C194.948 159.984 192.133 166.458 189.718 173.081ZM55.9661 174.873C55.2307 175.21 54.5055 175.549 53.7955 175.89C54.7619 180.629 55.143 185.383 54.8462 190.126C55.4011 189.831 55.9611 189.544 56.5227 189.266C56.8971 184.417 56.6812 179.61 55.9661 174.873ZM120.59 64.937C116.672 71.3021 113.492 77.5155 110.935 83.6832C109.734 83.9581 108.58 84.2263 107.467 84.4894C109.827 78.551 112.744 72.5468 116.315 66.379C117.754 65.8882 119.18 65.4059 120.59 64.937ZM105.48 100.232C105.05 101.971 104.661 103.715 104.31 105.464C103.296 105.725 102.224 106.029 101.099 106.373C101.515 104.183 101.993 102.001 102.534 99.822C103.571 99.8962 104.556 100.031 105.48 100.232ZM103.322 111.073C102.391 117.165 101.893 123.361 101.726 129.76C100.859 132.695 100.53 135.749 101.681 137.581C101.745 142.649 101.979 147.859 102.338 153.258C101.318 153.433 100.323 153.502 99.3581 153.47C98.3833 139.217 98.2753 126.267 99.918 113.729C101.34 112.593 102.544 111.795 103.322 111.073ZM108.319 203.914C108.933 210.326 109.294 216.506 109.273 222.451C108.344 224.412 107.369 226.417 106.433 228.31C106.767 220.769 106.367 212.797 105.528 204.408C106.077 204.266 106.622 204.146 107.155 204.057C107.55 203.989 107.939 203.942 108.319 203.914ZM107.563 241.757C107.101 244.174 106.535 246.542 105.853 248.864C104.853 249.532 103.779 250.117 102.63 250.581C103.389 248.282 104.025 245.929 104.548 243.523C105.553 243.254 106.568 242.624 107.563 241.757ZM101.503 259.982C98.1505 266.661 93.5378 272.894 87.3498 278.686C86.2501 278.48 85.1876 278.21 84.1655 277.875C90.3569 272.537 94.9984 266.713 98.4002 260.419C99.3936 260.292 100.429 260.145 101.503 259.982ZM175.911 253.325C176.009 249.964 176.159 246.467 176.375 242.858C177.229 242.718 178.075 242.592 178.914 242.479C178.73 246.007 178.622 249.424 178.578 252.694C177.698 252.888 176.809 253.099 175.911 253.325ZM176.939 235.022C177.598 227.197 178.581 218.976 180.008 210.608C182.978 205.329 184.887 195.838 185.322 188.674C186.081 188.594 186.852 188.571 187.621 188.6C182.948 204.848 180.445 221.324 179.317 236.169C178.376 235.93 177.588 235.54 176.939 235.022ZM208.191 137.82C212.969 131.359 218.432 125.422 224.668 120.202C225.174 121.331 225.409 122.543 225.411 123.788C220.464 128.2 216.008 133.051 212.004 138.24C210.744 138.333 209.462 138.208 208.191 137.82ZM154.549 260.457C154.018 258.029 153.529 255.575 153.08 253.096C152.863 251.659 152.664 250.21 152.473 248.756C153.416 248.481 154.367 248.205 155.327 247.93C155.534 249.486 155.752 251.036 155.99 252.574C156.405 254.866 156.855 257.137 157.341 259.385C156.413 259.737 155.482 260.095 154.549 260.457ZM150.884 232.089C150.601 227.365 150.449 222.584 150.438 217.765C151.416 216.023 152.37 214.158 153.305 212.26C153.168 220.449 153.436 228.553 154.092 236.476C153.848 236.321 153.605 236.151 153.364 235.962C152.058 234.943 151.309 233.629 150.884 232.089ZM150.577 208.606C150.672 205.791 150.819 202.966 151.008 200.137C152.057 202.17 152.257 204.666 151.154 207.272C151.011 207.614 150.814 208.066 150.577 208.606ZM170.562 120.226C175.436 109.648 181.243 99.6179 188.033 90.4042C190.087 88.9386 192.167 87.8237 194.18 87.0935C184.437 99.0866 176.554 112.723 170.408 127.31C170.246 125.242 170.287 122.886 170.562 120.226ZM198.478 77.7583C200.104 75.9992 201.778 74.2874 203.494 72.6143C202.927 75.6299 201.583 78.2896 199.528 80.0234C199.407 79.1801 199.033 78.4279 198.478 77.7583ZM129.802 270.401C131.519 264.711 132.673 259.218 133.342 253.797L134.255 253.62C134.886 253.499 135.54 253.36 136.211 253.212C135.587 258.398 134.543 263.669 133.005 269.133C131.973 269.548 130.904 269.971 129.802 270.401ZM134.071 240.957C134.02 234.054 133.294 227.111 132.071 219.863C132.838 218.332 133.585 216.789 134.289 215.295C136.006 224.513 137.002 233.209 136.928 241.917C135.921 241.853 134.929 241.524 134.071 240.957ZM131.189 215.011C130.234 210.08 129.075 204.985 127.77 199.653C129.059 199.822 130.2 200.205 131.177 200.841C131.936 204.03 132.641 207.135 133.275 210.176C132.759 211.704 132.027 213.328 131.189 215.011ZM118.086 142.18C117.619 134.262 117.774 127.512 118.48 121.709C118.592 121.757 118.705 121.805 118.823 121.849C119.707 120.574 121.154 114.224 120.629 111.235C121.742 107.595 123.164 104.441 124.869 101.677C125.244 101.969 125.601 102.3 125.935 102.672C126.385 103.173 126.773 103.701 127.107 104.253C125.658 106.757 124.427 109.564 123.444 112.751C121.381 119.435 120.43 127.573 120.791 138.134C120.319 138.917 119.789 139.746 119.192 140.628C118.83 141.167 118.459 141.679 118.086 142.18ZM171.751 73.4002C175.016 71.852 178.354 70.1502 181.744 68.2225C187.476 64.9623 193.211 61.2839 198.621 56.2495C199.061 56.6914 199.473 57.1518 199.854 57.6325C191.863 64.2691 184.015 69.1467 176.549 73.0916C175.002 73.1675 173.4 73.2704 171.751 73.4002ZM213.653 186.648C211.689 192.598 210.651 198.867 210.71 205.46C210.167 205.654 209.621 205.843 209.071 206.022C209.004 201.379 209.381 196.899 210.159 192.576C211.503 190.649 212.677 188.637 213.653 186.648ZM211.877 216.897C212.453 219.879 213.249 222.921 214.274 226.026C213.691 226.652 213.075 227.234 212.442 227.768C211.466 224.377 210.71 221.061 210.162 217.819C210.785 217.549 211.353 217.236 211.877 216.897ZM67.7113 147.977C64.743 134.817 61.5841 121.594 59.2533 108.707C60.1303 108.574 61.0461 108.423 61.999 108.253C64.0229 119.675 66.723 131.376 69.3878 143.086C68.9105 144.211 68.5411 145.17 68.3084 145.913C68.0942 146.594 67.8952 147.282 67.7113 147.977ZM56.327 87.7833C55.9694 83.8097 55.7486 79.8918 55.7098 76.0448C56.4771 74.8591 57.4908 73.8724 58.6882 73.2046C58.582 78.6556 58.8552 84.26 59.4168 89.9775C58.1637 89.4192 57.1062 88.6974 56.327 87.7833ZM80.2678 77.2456C80.1835 81.3254 80.3387 85.7999 80.6844 90.1968C80.0705 90.3671 79.3875 90.529 78.6488 90.6808C78.2238 86.3918 77.9741 81.9477 77.9538 77.6436C78.5559 77.5475 79.148 77.4463 79.7248 77.3451C79.9053 77.313 80.0874 77.2793 80.2678 77.2456ZM80.6997 90.3721C81.4687 100.019 83.1418 109.245 85.137 113.001C84.7946 113.581 84.4421 114.187 84.0795 114.812C81.9241 110.77 80.0486 102.657 78.9574 93.5109L80.6997 90.3721ZM89.8054 110.466C90.6538 107.727 91.4853 103.571 92.2645 97.6817C92.5798 95.2919 92.8395 92.7097 93.0959 90.0062C93.7014 91.067 94.0875 92.0081 94.2882 92.9003C94.0859 94.3778 93.8971 95.813 93.7132 97.1994C93.6761 97.4743 93.639 97.7323 93.6018 98.0022C93.2983 98.7375 92.9239 99.5252 92.4904 100.395L92.4077 100.567C92.6911 100.517 92.9728 100.468 93.2528 100.422C92.6743 104.242 92.0586 107.359 91.4194 109.817C90.8865 110.029 90.3502 110.245 89.8054 110.466ZM93.2663 88.21C93.7065 83.5078 94.1803 78.4937 94.9629 73.5183C95.8872 73.2366 96.8165 72.9465 97.7474 72.6497C96.6124 77.7263 95.7455 82.8349 95.0287 87.6669C94.3136 87.8744 93.725 88.0565 93.2663 88.21Z" fill="#604954"/>
<path d="M41.5308 270.769C42.0873 271.538 42.7079 272.218 43.3792 272.817C49.6582 268.833 54.9018 264.465 59.2127 259.747C59.1486 258.692 59.1368 257.589 59.1638 256.452C54.497 261.692 48.6852 266.49 41.5308 270.769ZM75.93 202.281C76.3078 201.475 76.6872 200.679 77.0616 199.9C76.5405 189.63 74.977 178.981 72.9514 168.167C72.5551 168.303 72.1588 168.44 71.7675 168.577C73.9702 180.12 75.5994 191.448 75.93 202.281ZM101.647 177.988C102.527 177.802 103.429 177.615 104.354 177.426C104.047 175.035 103.731 172.618 103.413 170.172C102.959 166.7 102.542 163.315 102.17 160.001C101.298 160.201 100.427 160.404 99.5621 160.609C99.837 163.851 100.144 167.162 100.48 170.555C100.876 173.061 101.267 175.537 101.647 177.988ZM121.909 174.227C122.666 174.105 123.427 173.984 124.195 173.866C122.965 167.42 121.97 161.518 121.199 156.094C120.506 156.221 119.813 156.349 119.118 156.479C119.818 161.935 120.744 167.836 121.909 174.227ZM154.337 170.525C154.829 170.496 155.32 170.471 155.809 170.445C157.015 163.821 158.521 157.25 160.336 150.787C159.857 150.827 159.375 150.868 158.889 150.912C157.089 157.369 155.575 163.923 154.337 170.525ZM189.284 172.945C189.874 173.122 190.448 173.309 191.008 173.507C193.438 167.103 196.275 160.834 199.576 154.819C199.017 154.352 198.434 153.917 197.822 153.517C194.533 159.759 191.706 166.276 189.284 172.945ZM55.6591 175.014C54.9305 175.35 54.2171 175.687 53.5154 176.025C54.4498 180.792 54.7922 185.572 54.4414 190.342C54.9946 190.045 55.5528 189.755 56.1111 189.473C56.531 184.602 56.3438 179.774 55.6591 175.014ZM119.054 65.4515C114.998 71.7677 111.716 77.9507 109.106 84.105C108.363 84.2787 107.634 84.4507 106.926 84.6177C109.246 78.7113 112.117 72.7409 115.632 66.6136C116.78 66.2206 117.922 65.831 119.054 65.4515ZM103.795 99.9469C103.296 101.944 102.859 103.949 102.475 105.965C101.879 106.135 101.269 106.317 100.642 106.513C101.062 104.268 101.542 102.03 102.092 99.7951C102.677 99.8271 103.246 99.8777 103.795 99.9469ZM101.407 112.586C99.7341 125.335 100.066 138.64 101.478 153.381C100.635 153.479 99.8084 153.504 99.0073 153.457C98.0308 139.345 97.8958 126.515 99.4575 114.106C100.161 113.524 100.819 113.026 101.407 112.586ZM107.248 204.042C107.818 211.525 108.062 218.7 107.777 225.567C107.179 226.8 106.578 228.02 106.001 229.183C106.428 221.413 106.05 213.18 105.194 204.496C105.858 204.315 106.516 204.165 107.155 204.057L107.248 204.042ZM105.644 243.094C105.13 245.457 104.519 247.778 103.799 250.055C103.247 250.328 102.677 250.574 102.089 250.788C102.881 248.454 103.542 246.064 104.087 243.621C104.128 243.614 104.165 243.609 104.205 243.6C104.683 243.513 105.163 243.339 105.644 243.094ZM99.6751 260.248C96.4302 266.706 92.0569 272.776 86.272 278.46C85.3696 278.251 84.4943 277.998 83.6494 277.696C89.7901 272.429 94.4164 266.688 97.8267 260.488C98.4271 260.417 99.0444 260.336 99.6751 260.248ZM129.278 270.606C131.04 264.868 132.228 259.334 132.926 253.878C133.368 253.792 133.811 253.706 134.255 253.62L134.302 253.61C133.772 258.822 132.875 264.154 131.543 269.717C130.804 270.01 130.049 270.307 129.278 270.606ZM133.702 240.693C133.656 234.024 132.978 227.318 131.831 220.339C132.211 219.589 132.585 218.833 132.953 218.081C134.162 226.04 134.892 233.69 134.904 241.414C134.479 241.224 134.074 240.983 133.702 240.693ZM130.964 215.46C129.998 210.375 128.811 205.123 127.466 199.62C128.246 199.699 128.974 199.854 129.647 200.092C130.568 204.546 131.408 208.843 132.131 213.035C131.774 213.827 131.381 214.637 130.964 215.46ZM117.76 142.622C117.241 134.432 117.379 127.48 118.094 121.521C118.322 121.643 118.565 121.753 118.823 121.849C119.796 120.445 121.449 112.896 120.408 110.444C121.496 107.02 122.86 104.03 124.483 101.396C125.001 101.75 125.488 102.173 125.935 102.672C125.957 102.694 125.976 102.718 125.996 102.74C124.265 105.479 122.825 108.592 121.714 112.195C119.491 119.396 118.715 128.34 119.489 140.188C119.391 140.333 119.293 140.48 119.192 140.629C118.722 141.323 118.244 141.986 117.76 142.622ZM170.503 73.5049C174.046 71.8453 177.677 70.0154 181.372 67.9139C187.115 64.647 192.86 60.9619 198.279 55.9156C198.727 56.3407 199.149 56.7876 199.542 57.2531C191.183 64.1663 182.922 69.1603 175.058 73.1709C173.582 73.2586 172.061 73.3716 170.503 73.5049ZM201.972 76.9775C201.114 77.8225 200.265 78.6776 199.431 79.5462C199.216 78.7433 198.766 78.0282 198.15 77.3941C199.921 75.4815 201.751 73.6229 203.627 71.8116C203.365 73.6921 202.805 75.4562 201.972 76.9775ZM191.865 88.0903C183.228 98.6786 176.08 110.523 170.346 123.164C170.395 121.955 170.499 120.671 170.663 119.312L170.449 119.354C175.041 109.476 180.452 100.083 186.719 91.3926C188.421 90.045 190.153 88.9386 191.865 88.0903ZM152.102 214.655C152.181 221.832 152.588 228.942 153.31 235.918C150.805 233.924 150.385 230.814 150.35 227.119C150.326 227.136 150.302 227.155 150.279 227.173C150.159 224.271 150.088 221.349 150.07 218.413C150.758 217.216 151.436 215.954 152.102 214.655ZM154.907 248.051C155.131 249.463 155.367 250.869 155.619 252.266C156.059 254.698 156.54 257.108 157.061 259.491C156.133 259.845 155.202 260.203 154.269 260.565C153.704 258.002 153.183 255.408 152.709 252.787C152.512 251.482 152.33 250.168 152.154 248.849C153.063 248.584 153.981 248.318 154.907 248.051ZM150.173 209.528C150.269 206.204 150.429 202.868 150.657 199.525C152.001 201.659 152.37 204.398 151.154 207.272C150.935 207.793 150.591 208.575 150.173 209.528ZM175.529 253.421C175.623 250.053 175.768 246.545 175.981 242.924C176.684 242.806 177.382 242.695 178.075 242.595C177.959 246.134 177.92 249.557 177.949 252.836C177.149 253.018 176.341 253.214 175.529 253.421ZM176.569 234.7C177.193 227.284 178.111 219.513 179.419 211.599L179.544 211.387C180.467 209.936 181.298 208.076 182.023 205.983C180.091 216.276 178.952 226.396 178.386 235.864C177.677 235.574 177.073 235.181 176.569 234.7ZM207.707 137.659C212.55 131.086 218.103 125.051 224.452 119.761C224.955 120.715 225.249 121.741 225.36 122.8C219.804 127.462 214.856 132.651 210.464 138.244C209.545 138.178 208.622 137.987 207.707 137.659ZM186.059 188.615C185.673 189.999 185.297 191.386 184.943 192.772C185.117 191.355 185.245 189.976 185.322 188.674C185.567 188.649 185.813 188.63 186.059 188.615ZM211.719 190.178C210.381 195.149 209.717 200.342 209.835 205.766C209.459 205.895 209.083 206.02 208.703 206.142C208.614 201.736 208.926 197.478 209.599 193.361C210.358 192.324 211.064 191.258 211.719 190.178ZM211.228 217.29C211.876 220.273 212.753 223.323 213.879 226.436C213.345 226.979 212.787 227.488 212.216 227.956C211.213 224.544 210.432 221.206 209.864 217.943C210.349 217.75 210.801 217.529 211.228 217.29ZM67.5511 148.604C65.7009 140.372 63.7664 132.113 61.9972 123.923L61.9989 123.92L61.9972 123.921C60.8958 118.83 59.8603 113.767 58.9479 108.752C59.5416 108.665 60.1521 108.569 60.7829 108.464C62.795 120.712 65.6064 133.273 68.3387 145.82L68.3083 145.913C68.03 146.798 67.7771 147.695 67.5511 148.604ZM55.9374 87.2808C55.6187 83.6816 55.4196 80.1297 55.3589 76.6334C56.02 75.4309 56.9206 74.3954 58.0051 73.6347C57.8212 78.7889 57.9764 84.0746 58.3997 89.4632C57.4553 88.9201 56.6609 88.2589 56.0672 87.4612C56.0234 87.4022 55.9813 87.3415 55.9374 87.2808ZM79.8883 77.3148C79.8175 81.4149 79.9895 85.8978 80.347 90.2879C79.7281 90.4498 79.0468 90.605 78.3148 90.7483C77.8797 86.4645 77.6199 82.017 77.5862 77.701C78.3131 77.588 79.0299 77.4683 79.7248 77.3452L79.8883 77.3148ZM80.3993 90.9136C81.2342 100.684 82.9849 109.866 85.0392 113.166C84.6968 113.75 84.3426 114.357 83.9816 114.984C81.7756 111.24 79.8343 103.2 78.6824 94.0051L80.3993 90.9136ZM89.2623 110.689C90.1696 107.968 91.0601 103.662 91.8933 97.3732C92.2205 94.904 92.4853 92.2274 92.7518 89.4244C93.3168 90.3402 93.7283 91.1649 94.0049 91.9374C93.7722 93.6442 93.5529 95.3004 93.3421 96.8891C93.2291 97.7442 93.1144 98.5673 92.9963 99.3566C92.8395 99.6905 92.6691 100.036 92.4904 100.396L92.4077 100.568C92.5477 100.542 92.686 100.519 92.8243 100.495C92.2205 104.416 91.5763 107.563 90.9084 110.021C90.3653 110.238 89.8171 110.461 89.2623 110.689ZM92.8513 88.3534C93.2931 83.6597 93.757 78.6421 94.5227 73.6516C95.4368 73.375 96.3543 73.0917 97.2752 72.7999C96.1553 77.8765 95.3019 82.9783 94.5935 87.7935C93.8481 88.0161 93.2662 88.2033 92.8513 88.3534Z" fill="#442333"/>
<path d="M169.931 173.203C173.781 173.203 176.905 175.279 176.905 177.839C176.905 180.399 173.559 184.405 169.708 184.405C165.856 184.405 162.957 180.399 162.957 177.839C162.957 175.279 166.079 173.203 169.931 173.203Z" fill="#4E3541"/>
<path d="M178.907 183.069C180.341 182.536 181.504 181.34 181.504 180.397C181.504 179.455 180.341 179.123 178.907 179.656C177.473 180.189 176.311 181.385 176.311 182.328C176.311 183.27 177.473 183.602 178.907 183.069Z" fill="#4E3541"/>
<path d="M130.701 273.134L123.592 285.684L128.229 284.508L130.701 273.134Z" fill="#442333"/>
<path d="M177.932 256.535L177.222 266.055L180.442 265.323L177.932 256.535Z" fill="#442333"/>
<path d="M225.564 62.2015C225.564 62.2015 217.096 62.8204 207.267 72.0308C207.267 72.0308 211.655 62.8812 218.395 58.8638L225.564 60.0376V62.2015Z" fill="#442333"/>
<path d="M45.42 218.732C45.42 218.732 39.0532 227.942 29.2222 234.186L29.2845 239.812C29.2845 239.812 38.9284 232.207 45.42 218.732Z" fill="#442333"/>
<path d="M135.616 47.7966C135.616 47.7966 123.994 59.4187 112.372 77.1614C112.372 77.1614 124.55 53.5461 130.732 47.7358L132.524 46.8082L135.616 47.7966Z" fill="#442333"/>
<path d="M233.941 112.368L228.16 120.528L236.878 115.521L233.941 112.368Z" fill="#442333"/>
<path d="M34.3661 248.334C35.7322 248.334 36.8403 250.409 36.8403 252.971C36.8403 255.531 35.7322 257.607 34.3661 257.607C33.0016 257.607 30.7197 255.964 30.7197 253.403C30.7197 250.842 33.0016 248.334 34.3661 248.334Z" fill="#4E3541"/>
<path d="M35.4355 259.014C36.1945 259.014 36.8083 259.604 36.8083 260.333C36.8083 261.061 36.1945 261.652 35.4355 261.652C34.6765 261.652 33.4082 261.184 33.4082 260.456C33.4082 259.727 34.6765 259.014 35.4355 259.014Z" fill="#4E3541"/>
<path fill-rule="evenodd" clip-rule="evenodd" d="M172.149 78.3588C176.559 78.3588 184.116 90.5375 171.838 90.5375C168.015 90.5375 162.628 87.2672 162.628 84.9111C162.628 82.555 167.738 78.3588 172.149 78.3588ZM174.346 96.8773C167.954 97.1573 170.093 88.5574 176.2 93.1027C178.122 94.5346 178.785 96.685 174.346 96.8773Z" fill="#99CC66"/>
<path fill-rule="evenodd" clip-rule="evenodd" d="M122.253 87.5388C122.253 90.5426 118.511 91.5495 115.671 90.8782C113.696 90.411 112.301 88.797 112.301 87.8778C112.301 85.3075 122.253 82.3526 122.253 87.5388Z" fill="#71A35D"/>
<path fill-rule="evenodd" clip-rule="evenodd" d="M113.753 92.1009C113.753 93.6121 111.543 94.28 110.547 93.4569C109.924 92.9408 109.783 90.325 110.752 89.9151C111.715 89.5103 113.753 90.1074 113.753 92.1009Z" fill="#71A35D"/>
<path fill-rule="evenodd" clip-rule="evenodd" d="M126.428 84.4574C128.484 88.1004 119.943 85.3918 122.363 83.4235C123.129 82.8012 125.458 82.7405 126.428 84.4574Z" fill="#71A35D"/>
<path d="M169.324 16.2155L169.892 15.5746C172.167 13.0127 176.766 11.0343 179.994 10.0426C183.725 8.89578 188.449 8.13682 192.116 9.84869C195.786 11.5606 197.818 15.4127 197.914 19.3609C197.992 22.6244 196.837 25.6518 194.975 28.2239C195.707 29.4736 196.293 30.7385 196.548 31.715L196.89 33.0238L196.519 34.3242C194.695 40.7146 187.539 44.1889 182.312 41.6506C178.736 45.4639 173.235 45.8721 169.749 43.0943C167.828 45.2008 165.502 46.9346 162.8 48.2586C158.72 50.2589 154.183 51.2893 149.717 50.0008C148.908 49.7681 148.161 49.4645 147.474 49.1002L147.418 49.3953L146.533 50.4106C143.231 54.1919 137.41 56.091 132.899 54.1548L132.781 54.2729C130.679 56.3676 127.993 57.9867 124.99 58.2734C123.378 58.4269 121.759 58.1621 120.351 57.4807C119.086 58.7187 117.549 59.6834 115.866 60.3361C113.333 61.3194 107.153 63.0245 104.544 63.0683H104.494H104.443C102.893 63.0633 101.404 62.6838 100.127 61.8253C99.1387 62.9452 98.034 63.9099 96.8787 64.6554C91.7262 67.9712 82.7841 70.27 77.3045 66.7046L76.6636 66.2863L76.1778 65.6926C73.1032 61.94 74.4794 56.4654 77.8374 53.2424C77.1762 51.9724 76.8271 50.5422 76.768 49.0496C76.5285 42.9881 81.3437 37.3482 86.4591 34.702C90.0886 32.8214 95.8971 31.3507 99.7982 33.0238L100.112 31.656L102.66 30.7419C105.472 29.7316 108.504 28.939 111.4 28.2019C114.279 27.47 117.239 26.7532 120.163 26.2269L123.046 25.7092C123.439 25.4815 123.842 25.269 124.253 25.0767C123.51 22.019 124.958 18.6576 127.289 16.5073C128.379 15.5021 129.654 14.7802 131.064 14.3299C132.393 13.9066 133.74 13.7565 135.127 13.7059C135.732 13.6839 137.38 13.7278 137.992 13.5709L139.062 12.8845L140.473 12.8643C141.946 12.844 143.364 13.3281 144.492 14.2793C146.67 16.116 147.145 18.8516 146.46 21.3663C146.88 21.6209 147.287 21.9228 147.676 22.2753C150.586 19.0624 154.313 16.74 158.744 15.5712C162.522 14.5761 166.298 14.7296 169.324 16.2155Z" fill="#442333"/>
<path d="M96.5433 47.2955C95.7725 46.9886 93.7015 46.4876 90.3756 46.911C89.2152 47.0509 88.9048 46.8317 88.9672 46.3089C89.2641 44.2057 94.8416 43.5226 96.2751 45.2227C99.0141 43.892 101.627 39.3029 97.906 37.5944C96.0761 36.7545 91.89 37.4476 88.7311 39.0937C82.9951 42.052 81.6476 46.9363 81.71 48.8539C81.8938 53.1361 85.8926 53.6438 89.6081 52.959C91.3301 52.6284 91.8496 53.1614 91.4802 54.1767C90.9371 55.7233 87.8878 56.4654 84.8233 55.6474C81.2798 54.6995 78.1057 60.2416 80.0031 62.5589C83.749 64.9977 90.9961 62.5455 94.2006 60.4963C98.7712 57.5397 101.976 49.5049 96.5433 47.2955ZM101.795 53.5864C101.595 56.769 102.353 58.1165 104.46 58.1233C106.079 58.0963 112.125 56.4856 114.077 55.7267C118.546 53.9946 119.641 49.7275 118.185 47.6412C115.708 48.2821 113.232 48.923 110.754 49.5639C110.57 49.6112 110.385 49.6601 110.223 49.7005C110.282 49.2013 110.334 48.7746 110.397 48.2518C112.549 47.6952 113.237 47.562 114.424 47.2095C117.846 46.1621 119.241 43.1246 118.231 40.3182C116.34 40.1849 112.49 41.4347 111.147 41.7821C111.205 41.3082 111.25 40.927 111.296 40.5476C114.281 39.7751 114.814 39.6368 116.064 39.313C121.641 37.8693 121.744 32.1333 121.039 31.0943C116.959 31.828 108.245 33.9919 104.33 35.3968C103.387 39.5322 101.999 50.3785 101.795 53.5864ZM136.038 37.0968C136.012 37.1255 135.967 37.139 135.94 37.1677C135.867 37.026 135.771 36.8894 135.702 36.7241C134.39 34.1386 133.779 32.8231 132.504 30.4585C130.762 27.2017 125.895 29.084 123.466 31.5784C122.852 34.454 121.677 44.8432 121.16 50.6636C120.911 53.492 125.112 54.9373 129.288 50.7715C129.765 47.3545 129.747 45.8164 130.018 42.983C130.066 42.9712 130.136 42.9307 130.184 42.9172C130.259 43.0369 130.361 43.1246 130.413 43.2494C130.843 43.9679 132.071 46.7356 133.154 48.2282C135.532 51.458 140.573 49.7157 142.809 47.1572C143.73 42.2662 144.83 31.3912 145.176 28.492C145.656 24.4762 140.34 23.9635 137.102 28.2103C136.709 31.489 136.422 33.889 136.038 37.0968ZM130.46 25.2318C135.299 22.1842 136.404 24.2452 139.925 22.4136C142.123 21.2465 142.425 17.7839 140.544 17.8092C137.896 19.5076 133.466 17.5461 130.642 20.1418C128.575 22.0594 128.426 24.7899 130.46 25.2318ZM160.005 20.3543C153.644 22.024 150.139 26.3837 148.279 30.1128C146.899 32.8416 146.292 36.4053 146.621 39.2911C146.948 42.3606 148.334 44.4654 151.089 45.2497C153.971 46.093 157.197 45.5111 160.624 43.8178C164.863 41.7534 167.885 38.4393 169.629 33.9817C170.929 30.6052 171.044 27.5812 170.321 24.822C169.85 23.1253 167.897 18.2646 160.005 20.3543ZM159.103 28.831C160.741 28.4076 162.038 29.568 161.554 32.2952C161.095 35.0089 159.474 36.3733 158.245 36.7612C157.029 37.1677 155.369 36.6533 155.536 33.9446C155.689 31.1702 157.396 29.2779 159.103 28.836V28.831ZM188.561 27.8781C188.756 27.7364 188.93 27.5981 189.084 27.4429C194.811 22.1167 193.399 15.9186 190.023 14.3298C185.753 12.3498 175.846 16.3166 173.591 18.8583C172.483 21.9312 171.302 34.0492 171.444 36.0613C171.796 41.1733 176.797 40.6167 178.978 37.957C179.278 36.7511 179.627 34.9566 179.953 32.985C180.037 32.479 180.119 31.9747 180.17 31.5463C180.216 31.5345 180.288 31.4924 180.337 31.457C180.433 31.5936 180.55 31.747 180.642 31.9073C181.776 33.8249 182.317 34.6985 182.781 35.4996C184.967 39.3535 190.529 37.2925 191.764 32.9664C191.426 31.6728 189.522 28.6421 188.561 27.8781ZM184.473 23.041C184.393 23.7072 184.015 24.2418 183.29 24.5454C182.72 24.8085 182.15 24.9316 181.572 25.0817C181.479 25.107 181.317 24.9637 181.327 24.8692C181.405 24.0428 181.472 23.6566 181.592 22.6598C183.445 21.373 184.609 21.9009 184.473 23.041Z" fill="white"/>
<path fill-rule="evenodd" clip-rule="evenodd" d="M92.7197 52.9809C92.8951 53.5004 92.8277 54.0637 92.6405 54.5916C92.1497 55.9695 90.7093 56.6931 89.3685 56.9983C87.7983 57.3576 86.0528 57.2513 84.5045 56.8364C84.2127 56.7589 83.9192 56.7504 83.6224 56.8095C82.7505 56.9832 81.9881 57.6966 81.5007 58.4066C80.9914 59.147 80.3168 60.7358 80.8582 61.6381C84.1166 63.5186 90.6841 61.2957 93.5344 59.4607C94.6374 58.7507 95.6021 57.7337 96.3459 56.661C97.2684 55.3337 98.2197 53.266 98.1691 51.4833C96.3526 51.9825 94.5362 52.4817 92.7197 52.9809ZM117.494 49.0917C115.35 49.6466 113.207 50.2015 111.063 50.7547C110.886 50.8019 110.709 50.8474 110.532 50.893C109.95 51.0431 109.368 51.1949 108.786 51.345C108.857 50.7479 108.928 50.1509 109 49.5538C109.044 49.1929 109.086 48.832 109.13 48.4694C107.212 48.9973 105.293 49.5252 103.375 50.0514C103.237 51.2488 103.101 52.4649 103.025 53.664C102.981 54.342 102.905 56.1652 103.52 56.661C103.763 56.8567 104.168 56.8904 104.44 56.8921C104.988 56.882 105.727 56.7201 106.265 56.6087C107.238 56.408 108.209 56.1702 109.171 55.9189C110.618 55.5428 112.238 55.1178 113.632 54.5781C115.176 53.9794 116.563 52.8932 117.217 51.3382C117.492 50.6855 117.657 49.8321 117.494 49.0917ZM141.662 46.5804C142.103 44.1686 142.413 41.6793 142.708 39.2388C138.161 38.7969 134.373 39.8443 131.31 42.3724C131.383 42.4686 131.445 42.5563 131.502 42.6743C131.737 43.0723 131.944 43.5159 132.148 43.9291C132.45 44.5329 132.752 45.1384 133.074 45.7321C133.395 46.3291 133.746 46.9531 134.147 47.4996C135.938 49.9451 139.873 48.3935 141.662 46.5804ZM122.992 44.6594C122.773 46.6951 122.567 48.7342 122.387 50.7732C122.365 51.0195 122.403 51.2657 122.533 51.4782C122.901 52.0753 123.773 52.1849 124.404 52.1242C125.78 51.9926 127.111 51.1207 128.126 50.1812C128.313 48.7628 128.446 47.3579 128.549 45.9277C128.618 44.9731 128.686 44.0219 128.774 43.069C126.982 44.4182 125.112 45.2902 122.992 44.6594ZM147.769 37.8474C147.773 38.2943 147.798 38.7328 147.845 39.1561C148.105 41.5258 149.029 43.3743 151.429 44.0674C154.349 44.909 157.442 44.0067 160.083 42.7114C164.07 40.7584 166.871 37.6736 168.48 33.5348C168.678 33.0288 168.85 32.5212 168.995 32.0118C166.807 30.2966 164.62 30.7503 162.432 33.8165C161.802 35.6582 160.523 37.333 158.636 37.9283C158.282 38.0464 157.909 38.1122 157.535 38.1155C157.433 38.1172 157.331 38.1122 157.228 38.1037C155.802 37.9873 154.963 37.1103 154.57 35.977C151.596 34.0071 149.424 34.8723 147.769 37.8474ZM172.97 30.919C172.913 31.5362 172.86 32.1535 172.813 32.7725C172.761 33.4539 172.714 34.1386 172.685 34.8217C172.668 35.1927 172.646 35.6076 172.672 35.977C172.742 36.9872 173.054 38.1661 174.098 38.5675C175.343 39.0482 176.952 38.3213 177.853 37.3718C178.215 35.8673 178.487 34.3056 178.738 32.7843C178.814 32.3255 178.892 31.8617 178.947 31.4013C178.981 31.1213 179.015 30.843 179.047 30.5648C179.573 30.3961 180.097 30.2275 180.622 30.0571C180.863 30.2882 181.104 30.5192 181.346 30.7503C181.469 30.9257 181.593 31.096 181.703 31.2816C182.413 32.4841 183.16 33.6782 183.852 34.8908C184.223 35.5418 184.752 36.0276 185.489 36.2165C186.483 36.4711 187.571 36.122 188.404 35.5756C189.35 34.9566 190.084 34.0323 190.468 32.9715C190.011 31.8044 188.51 29.4112 187.795 28.8428C187.372 28.4144 186.948 27.986 186.525 27.5576C179.281 29.2948 174.297 30.553 172.97 30.919Z" fill="#C4CED7"/>
</svg>
