<svg width="1309" height="537" viewBox="0 0 1309 537" fill="none" xmlns="http://www.w3.org/2000/svg">
<path fill-rule="evenodd" clip-rule="evenodd" d="M45.5725 0.729076L1288.43 12.3546C1299.46 12.4374 1308.87 21.3842 1308.48 32.4014L1301.84 482.525C1301.44 493.545 1292.81 502.279 1281.78 502.575L20.5983 536.263C9.58118 536.553 0.82543 527.234 0.551514 516.21L25.5193 20.7791C25.2485 9.75556 34.5426 0.646264 45.5725 0.729076Z" fill="#F0554D"/>
<mask id="mask0_148_4024" style="mask-type:luminance" maskUnits="userSpaceOnUse" x="0" y="0" width="1309" height="537">
<path d="M45.5725 0.729076L1288.43 12.3546C1299.46 12.4374 1308.87 21.3842 1308.48 32.4014L1301.84 482.525C1301.44 493.545 1292.81 502.279 1281.78 502.575L20.5983 536.263C9.58118 536.553 0.82543 527.234 0.551514 516.21L25.5193 20.7791C25.2485 9.75556 34.5426 0.646264 45.5725 0.729076Z" fill="white"/>
</mask>
<g mask="url(#mask0_148_4024)">
<path fill-rule="evenodd" clip-rule="evenodd" d="M551.766 178.325C551.263 179.794 551.087 181.376 551.263 183.026L578.575 443.54C579.027 447.852 581.912 450.958 585.967 452.792L855.765 575.026C859.902 576.503 864.259 575.669 867.562 572.786L1074 392.859C1076.91 390.32 1078.1 386.868 1077.75 383.154C1078.31 381.392 1078.4 379.45 1078.15 377.51L1065.05 279.556C1064.49 275.342 1061.53 271.791 1057.25 270.899L835.877 224.738C832.463 224.028 829.227 224.133 826.242 225.939L786.703 249.887C782.865 252.212 780.833 256.168 781.256 260.51L781.301 260.994C780.817 262.433 780.635 263.988 780.795 265.599L784.703 305.82C785.148 310.385 788.267 313.828 792.729 315.356L940.481 365.999C944.701 367.445 947.711 370.541 948.415 374.822L948.418 374.828C947.638 376.994 946.144 378.943 944.201 380.625L852.347 460.287C849.439 462.809 845.4 463.236 841.805 461.857L682.487 400.742C678.407 399.181 675.659 396.095 674.875 391.913L672.126 377.303L659.625 218.253C659.287 213.963 660.95 210.291 664.355 207.453L794.35 99.1317C797.436 96.5581 801.523 96.469 805.329 97.7494L1148.47 213.205C1151.89 214.167 1158.11 218.33 1160.16 225.582L1219.67 436.09C1219.81 436.602 1219.92 437.115 1220 437.628C1219.47 439.673 1218.39 441.514 1216.54 442.96L1022.45 595.314H603.402L475.101 545.748C471.276 544.271 468.53 541.241 468.078 537.266L421.175 125.921C421.159 125.765 421.127 125.612 421.105 125.459C421.786 123.443 423.134 121.742 424.991 120.37L591.85 -3.00073H759.018L555.683 168.295C552.731 170.786 551.329 174.191 551.724 177.937L551.766 178.325ZM1155.66 -3.00073L1176.54 109.576C1176.64 110.095 1176.71 110.604 1176.76 111.101C1175.29 115.595 1170.93 117.748 1164.89 115.723L810.097 -3.00073H1155.66Z" fill="#FE7454"/>
</g>
</svg>
