<svg width="1330" height="528" viewBox="0 0 1330 528" fill="none" xmlns="http://www.w3.org/2000/svg">
<path fill-rule="evenodd" clip-rule="evenodd" d="M20.5706 0.732413L1309.43 10.3555C1320.46 10.4383 1329.87 19.3839 1329.48 30.4032L1313.84 473.528C1313.45 484.547 1304.81 493.28 1293.78 493.576L32.5987 527.264C21.5794 527.554 12.8231 518.235 12.548 507.21L0.516935 20.7802C0.247738 9.75494 9.54243 0.646625 20.5706 0.732413Z" fill="#F0554D"/>
<mask id="mask0_82_2747" style="mask-type:luminance" maskUnits="userSpaceOnUse" x="0" y="0" width="1330" height="528">
<path d="M20.5706 0.732413L1309.43 10.3555C1320.46 10.4383 1329.87 19.3839 1329.48 30.4032L1313.84 473.528C1313.45 484.547 1304.81 493.28 1293.78 493.576L32.5987 527.264C21.5794 527.554 12.8231 518.235 12.548 507.21L0.516935 20.7802C0.247738 9.75494 9.54243 0.646625 20.5706 0.732413Z" fill="white"/>
</mask>
<g mask="url(#mask0_82_2747)">
<path fill-rule="evenodd" clip-rule="evenodd" d="M563.763 169.327C563.263 170.797 563.088 172.376 563.26 174.027L590.573 434.539C591.025 438.855 593.913 441.958 597.965 443.792L867.763 566.028C871.901 567.504 876.259 566.67 879.563 563.789L1086 383.859C1088.91 381.321 1090.1 377.868 1089.75 374.156C1090.31 372.396 1090.4 370.449 1090.15 368.512L1077.05 270.556C1076.49 266.344 1073.53 262.791 1069.25 261.901L847.878 215.741C844.464 215.028 841.228 215.134 838.243 216.939L798.7 240.889C794.864 243.214 792.834 247.169 793.254 251.512L793.302 251.997C792.817 253.434 792.636 254.99 792.793 256.6L796.704 296.822C797.147 301.387 800.265 304.83 804.726 306.357L952.483 357.001C956.701 358.445 959.71 361.542 960.414 365.823L960.417 365.831C959.636 367.997 958.145 369.943 956.201 371.627L864.346 451.288C861.438 453.811 857.4 454.24 853.803 452.859L694.486 391.745C690.406 390.18 687.658 387.095 686.874 382.915L684.123 368.304L671.622 209.256C671.288 204.964 672.95 201.29 676.352 198.453L806.35 90.1324C809.436 87.5588 813.524 87.47 817.328 88.748L1160.47 204.207C1163.89 205.168 1170.11 209.33 1172.16 216.581L1231.66 427.09C1231.81 427.602 1231.92 428.117 1232 428.631C1231.47 430.672 1230.39 432.515 1228.55 433.962L1034.45 586.318H615.401L487.101 536.751C483.276 535.272 480.53 532.242 480.078 528.27L433.173 116.922C433.158 116.765 433.125 116.614 433.104 116.46C433.785 114.446 435.134 112.742 436.989 111.372L603.849 -11.9997H771.018L567.682 159.298C564.73 161.786 563.331 165.194 563.721 168.939L563.763 169.327ZM1167.66 -11.9997L1188.54 100.575C1188.64 101.096 1188.71 101.604 1188.75 102.101C1187.29 106.598 1182.93 108.748 1176.88 106.725L822.097 -11.9997H1167.66Z" fill="#FE7454"/>
</g>
</svg>
