<svg width="262" height="256" viewBox="0 0 262 256" fill="none" xmlns="http://www.w3.org/2000/svg">
<path fill-rule="evenodd" clip-rule="evenodd" d="M146.037 142.854C150.04 130.956 163.893 127.764 174.477 134.346C181.343 138.615 186.467 146.179 187.422 154.27C191.809 158.204 194.643 164.076 195.705 169.703C196.779 175.383 196.055 181.849 192.928 186.816C192.99 187.665 193.019 188.514 193.019 189.366C193.019 191.611 192.803 193.854 192.377 196.057C190.869 212.952 183.861 228.503 171.043 239.836C159.636 249.92 144.786 255.512 129.572 255.58C127.099 255.591 124.629 255.458 122.173 255.18C108.063 253.58 94.8247 247.285 84.7756 237.239C73.6557 226.122 67.5618 211.638 66.1567 196.093C65.7218 193.877 65.5059 191.623 65.5059 189.366C65.5059 181.66 68.0321 174.448 72.2949 168.079C78.0309 159.503 86.7073 153.166 96.0434 148.995C106.418 144.363 117.928 142.209 129.264 142.209C130.024 142.209 130.788 142.218 131.551 142.239C132.027 141.987 132.515 141.763 133.018 141.564C135.257 140.683 137.71 140.375 140.097 140.683C142.277 140.967 144.277 141.718 146.037 142.854Z" fill="white"/>
<path fill-rule="evenodd" clip-rule="evenodd" d="M79.6844 51.8419H180.861C194.342 51.8419 199.373 58.7315 199.412 65.6005C199.45 72.428 194.584 79.2348 180.861 79.2348H79.6844C66.9996 79.2348 62.3404 72.6144 62.2428 65.8815C62.1393 58.9208 67.0203 51.8419 79.6844 51.8419Z" fill="white"/>
<path fill-rule="evenodd" clip-rule="evenodd" d="M54.1255 17.0888V17.9438L70.159 71.9902L191.62 71.7624L207.553 17.8639C207.553 14.5507 204.37 14.5418 202.148 15.7133C190.135 23.1887 176.802 28.5519 164.538 35.3854L133.988 2.66463C133.471 2.09665 132.746 0.951822 131.181 0.863076C129.072 0.738831 128.734 1.20917 127.791 2.24159L95.9043 35.1339L59.6515 15.6009C58.5688 15.0447 57.6399 14.6779 56.2643 15.1453C54.6166 15.7014 54.9212 15.9618 54.1255 17.0888Z" fill="white"/>
<path fill-rule="evenodd" clip-rule="evenodd" d="M170.59 3.1882L156.642 15.6275C155.281 17.1095 155.128 16.9232 156.891 19.1122L164.665 27.9543C165.333 28.7767 165.532 28.9749 166.827 28.7027L180.042 21.5616C181.112 20.7274 180.237 19.6891 179.835 18.6833L172.883 4.11117C172.439 3.40416 171.838 2.49894 170.59 3.1882Z" fill="white"/>
<path fill-rule="evenodd" clip-rule="evenodd" d="M87.1154 3.77691L80.0128 18.5709C79.4803 19.6773 79.6755 20.1949 80.8647 20.973C82.8378 22.2657 93.2537 28.0224 94.4784 28.1673C95.3807 28.2738 95.7622 27.5402 96.345 26.7947L104.826 16.8019C105.305 15.7636 105.007 15.6452 104.223 14.8613L90.4346 2.69123C88.5324 1.0228 88.0413 1.85407 87.1154 3.77691Z" fill="white"/>
<path fill-rule="evenodd" clip-rule="evenodd" d="M127.889 70.1739C129.729 69.5024 131.693 69.1385 133.707 69.1237L148.395 69.0143C150.344 69.0024 152.249 69.3101 154.045 69.9106C155.826 69.2834 157.716 68.9492 159.651 68.9344L174.699 68.8249C176.341 68.8131 177.947 69.0261 179.489 69.455C181.021 69.0054 182.621 68.7658 184.245 68.7539L223.729 68.467C225.56 68.4522 227.358 68.7243 229.104 69.2805L249.356 75.7264C256.482 77.9954 261.339 84.5626 261.413 92.0321L261.629 100.907C261.712 104.249 261.526 107.586 261.23 110.914C260.626 117.689 259.434 124.421 257.582 130.965C253.198 146.451 245.09 160.515 232.183 170.002L232.207 173.528C232.278 183.077 224.575 190.892 215.026 190.963L196.673 191.097C194.652 191.111 192.682 190.78 190.833 190.135C188.999 190.804 187.041 191.167 185.032 191.182L164.479 191.33C150.785 191.431 138.077 185.609 129.241 175.912C118.526 187.476 103.418 191.777 87.9233 191.889L78.6404 191.957C73.8304 191.993 69.3132 190.079 65.9911 186.597C65.7338 186.328 65.4852 186.05 65.2456 185.766C65.1362 185.84 65.0267 185.911 64.9143 185.985C56.6668 191.392 46.5941 193.93 36.7906 194.004C30.1731 194.052 23.5674 192.818 17.3522 190.573C14.4118 189.508 11.5157 188.26 8.82968 186.647C3.62324 183.524 0.469776 178.001 0.425403 171.93L0.253785 148.262C0.221245 143.709 1.93705 139.426 5.02837 136.192C1.83055 130.622 0.0792843 124.404 0.0289948 117.555C-0.0567932 105.601 4.60532 94.5939 13.758 86.796C17.3108 83.7668 21.3695 81.4032 25.7092 79.6875C30.537 77.7764 35.3115 75.7383 40.1571 73.8716C44.5057 72.2002 48.8808 70.7418 53.4749 69.9017C62.527 68.251 71.2005 69.2894 80.1254 71.1087C83.2315 71.7417 86.0004 73.1794 88.228 75.1762C98.1971 69.4876 106.888 69.3189 122.025 69.2095C124.055 69.1947 126.034 69.526 127.889 70.1739Z" fill="white"/>
<path d="M128.32 82.338C129.616 80.5069 131.749 79.3088 134.157 79.3088H148.845C151.099 79.3088 153.137 80.3176 154.48 82.0511C155.787 80.3826 157.823 79.3088 160.103 79.3088H175.152C176.646 79.3088 178.018 79.7407 179.243 80.5956L179.968 81.1015C181.231 79.9833 182.891 79.3088 184.698 79.3088H224.181C224.947 79.3088 225.669 79.4242 226.397 79.6608L246.601 86.2547C249.56 87.2191 251.548 89.9643 251.53 93.0704L251.684 102.034C251.734 104.986 251.539 107.953 251.255 110.891C250.663 117.023 249.542 123.132 247.82 129.051C243.487 143.943 235.31 157.388 221.732 165.23V174.264C221.732 178.205 218.525 181.411 214.585 181.411H196.232C193.871 181.411 191.744 180.299 190.41 178.409C189.115 180.225 186.988 181.411 184.591 181.411H164.038C147.88 181.411 134.13 171.046 129.081 156.607C127.575 160.698 125.398 164.52 122.389 167.963C113.532 178.104 100.49 181.411 87.4794 181.411H78.1966C76.1909 181.411 74.3687 180.621 72.9932 179.16C71.6176 177.699 70.9431 175.829 71.0644 173.827C71.1798 171.984 71.0821 170.087 70.9815 168.244C70.9046 166.83 70.7981 165.422 70.662 164.014L68.1358 167.895L68.1328 167.904C65.787 171.566 62.6513 174.607 59.0038 176.962C52.3774 181.24 44.1654 183.151 36.3321 183.151C30.9215 183.151 25.511 182.083 20.4436 180.21C18.1569 179.364 15.8021 178.35 13.7195 177.078C11.56 175.761 10.2939 173.504 10.2939 170.978V147.309C10.2939 145.09 11.2613 143.088 13.0007 141.709L18.9319 137.009C13.5627 131.444 10.2939 124.815 10.2939 116.6C10.2939 107.651 13.7136 99.5222 20.6181 93.7242C23.3396 91.4404 26.4457 89.6773 29.7559 88.3964C34.563 86.5357 39.3317 84.5389 44.1535 82.7226C47.9105 81.3115 51.7088 80.0424 55.6728 79.3502C63.3701 78.0042 70.8928 79.084 78.4599 80.6844C81.782 81.3855 84.1278 84.2786 84.1278 87.6746V90.5618C96.8096 79.8087 102.037 79.3088 122.475 79.3088C124.487 79.3088 126.315 80.0986 127.69 81.5659C127.921 81.8115 128.131 82.0688 128.32 82.338Z" fill="#541138"/>
<path d="M130.601 92.9846L130.598 86.4558C130.595 84.4945 132.196 82.8912 134.157 82.8912H148.845C150.173 82.8912 151.312 83.5627 151.957 84.7223L155.625 91.3162L156.542 91.2629V86.4529C156.542 84.4916 158.142 82.8912 160.104 82.8912H175.152C175.915 82.8912 176.566 83.0983 177.19 83.5331L181.139 86.2931C181.225 84.4058 182.79 82.8912 184.698 82.8912H224.181C224.575 82.8912 224.912 82.9474 225.285 83.0687L245.489 89.6625C246.998 90.1536 247.968 91.5439 247.945 93.0852L248.098 102.096C248.146 104.874 247.953 107.787 247.687 110.547C247.119 116.446 246.034 122.357 244.377 128.048C240.099 142.753 231.941 155.947 218.147 163.109V174.264C218.147 176.226 216.546 177.826 214.585 177.826H196.235C194.895 177.826 193.747 177.143 193.105 175.965L188.153 166.86V174.264C188.153 176.226 186.553 177.826 184.592 177.826H164.038C145.576 177.826 130.601 162.849 130.601 144.389V93.0467C130.601 93.026 130.601 93.0053 130.601 92.9846ZM24.4165 137.236C18.2042 131.95 13.8794 125.439 13.8794 116.6C13.8794 108.699 16.8405 101.578 22.9226 96.4694C25.3424 94.4371 28.1083 92.8811 31.0488 91.7422C52.4485 83.4562 56.942 79.7969 77.7205 84.1898C79.383 84.5419 80.5426 85.9736 80.5426 87.6746V98.5135C97.3689 83.2196 99.8715 82.8912 122.475 82.8912C123.496 82.8912 124.377 83.2728 125.075 84.0183C125.759 84.7489 126.084 85.6334 126.034 86.6304L126.031 86.6392C126.031 86.6511 126.031 86.6599 126.031 86.6718L126.028 86.7398C125.744 97.8952 127.764 107.838 128.613 118.1C129.288 126.285 128.933 134.725 128.146 143.804C128.143 143.818 128.143 143.836 128.14 143.854C127.489 151.909 125.084 159.429 119.688 165.603C111.55 174.924 99.4159 177.826 87.4795 177.826H78.1967C77.179 177.826 76.3035 177.447 75.6053 176.705C74.9072 175.962 74.5818 175.063 74.6439 174.045C74.7622 172.117 74.6676 169.972 74.5611 168.049C74.3067 163.351 73.718 158.63 72.9134 153.98L65.1333 165.94C65.1273 165.946 65.1274 165.949 65.1214 165.955C63.0537 169.194 60.2848 171.868 57.0603 173.951C51.0196 177.85 43.4674 179.565 36.3322 179.565C31.3506 179.565 26.3541 178.571 21.689 176.847C19.6922 176.11 17.4144 175.134 15.5863 174.019C14.4947 173.353 13.8794 172.256 13.8794 170.978V147.309C13.8794 146.185 14.3468 145.218 15.2283 144.52L24.4165 137.236Z" fill="#541138"/>
<path fill-rule="evenodd" clip-rule="evenodd" d="M45.7302 125.244L61.2845 112.855L60.9324 112.633L60.5774 112.411L60.2225 112.192L59.8675 111.97L59.5125 111.751L59.1576 111.53L58.8055 111.311L58.4565 111.089L58.1133 110.87L57.7731 110.651L57.4388 110.429L57.1104 110.21L56.7909 109.988L56.4804 109.769L56.1786 109.551L55.8857 109.329L55.6047 109.11L55.3355 108.888L55.0782 108.669L54.8356 108.447L54.6049 108.225L54.3918 108.003L54.1966 107.782L54.0162 107.56L53.8535 107.338L53.7085 107.113L53.5872 106.891L53.4837 106.666L53.4008 106.441L53.3417 106.22L53.3062 105.992L53.2914 105.767L53.3091 105.391L53.3565 105.03L53.4334 104.69L53.5399 104.365L53.673 104.054L53.8297 103.761L54.0162 103.483L54.2203 103.22L54.451 102.974L54.7025 102.744L54.9717 102.531L55.2586 102.33L55.5633 102.143L38.7518 112.18L38.382 112.408L38.03 112.651L37.7016 112.914L37.3969 113.195L37.1159 113.497L36.8645 113.816L36.6397 114.154L36.4474 114.511L36.2846 114.89L36.1545 115.287L36.0598 115.704L36.0036 116.141L35.9829 116.6L36.0007 116.875L36.045 117.15L36.1161 117.425L36.2166 117.697L36.3409 117.97L36.4917 118.245L36.6663 118.514L36.8645 118.786L37.0864 119.055L37.326 119.327L37.5862 119.6L37.8644 119.869L38.1601 120.138L38.4738 120.407L38.8021 120.676L39.1452 120.946L39.5032 121.212L39.87 121.481L40.2516 121.75L40.6421 122.019L41.0414 122.286L41.4497 122.555L41.8609 122.824L42.2809 123.09L42.7069 123.359L43.1359 123.629L43.5677 123.898L44.0026 124.167L44.4345 124.436L44.8694 124.705L45.3012 124.975L45.7302 125.244Z" fill="#A83E3D"/>
<path fill-rule="evenodd" clip-rule="evenodd" d="M45.8456 154.832L61.3791 137.118L61.1483 137.34L60.8999 137.55L60.6307 137.742L60.3467 137.923L60.048 138.085L59.7314 138.236L59.403 138.369L59.0658 138.491L58.7167 138.594L58.3588 138.683L57.995 138.757L57.6252 138.816L57.2524 138.861L56.8768 138.89L56.4981 138.902H56.1194L55.7467 138.884L55.3739 138.852L55.0071 138.804L54.6462 138.742L54.2912 138.665L53.9481 138.571L53.6138 138.461L53.2914 138.337L35.9829 156.32L36.3763 156.471L36.7816 156.604L37.2017 156.719L37.6336 156.814L38.0744 156.891L38.5211 156.95L38.9766 156.988L39.4322 157.009H39.8936L40.3522 156.994L40.8107 156.959L41.2663 156.906L41.7189 156.832L42.1626 156.743L42.5974 156.633L43.0235 156.506L43.4376 156.361L43.8369 156.196L44.2215 156.015L44.5883 155.814L44.9344 155.595L45.2599 155.358L45.5646 155.104L45.8456 154.832Z" fill="#C15E47"/>
<path fill-rule="evenodd" clip-rule="evenodd" d="M64.8759 94.5377L76.9838 87.6746L71.7359 86.5653L71.523 86.5298L71.2331 86.4825L70.8662 86.4262L70.4255 86.3641L69.9167 86.299L69.3457 86.231L68.7126 86.1659L68.0205 86.1008L67.2779 86.0446L66.4851 85.9944L65.648 85.9529L64.7694 85.9234L63.8523 85.9115L62.9027 85.9145L61.9236 85.9352L60.9178 85.9796L59.8883 86.0476L58.8411 86.1423L57.7821 86.2635L56.7112 86.4174L55.6344 86.6038L54.5547 86.8256L53.4749 87.083L52.4011 87.3818L51.3361 87.7249L50.2859 88.1095L32.3179 95.0701L33.5987 94.5968L34.8974 94.1797L36.2078 93.8159L37.5213 93.4993L38.8377 93.2301L40.1541 93.0023L41.4587 92.816L42.7514 92.6651L44.0264 92.5527L45.2807 92.4699L46.5084 92.4166L47.7035 92.39L48.8601 92.387L49.9784 92.4018L51.0521 92.4373L52.0727 92.4876L53.04 92.5468L53.9452 92.6178L54.7884 92.6947L55.5605 92.7775L56.2586 92.8604L56.8769 92.9402L57.4152 93.0142L57.8619 93.0822L58.2169 93.1384L58.4743 93.1828L64.8759 94.5377Z" fill="#C15E47"/>
<path fill-rule="evenodd" clip-rule="evenodd" d="M62.148 163.999L74.747 144.635L75.0399 144.153L75.3209 143.665L75.5813 143.168L75.8297 142.662L76.0605 142.147L76.2734 141.623L76.4717 141.094L76.6521 140.556L76.8148 140.011L76.9627 139.458L77.0929 138.899L77.2053 138.334L77.3029 137.76L77.3799 137.18L77.442 136.594L77.4863 136.003L77.5129 135.405L77.5218 134.802L77.4951 133.719L77.4153 132.672L77.2852 131.654L77.1047 130.669L76.8799 129.717L76.6107 128.794L76.3001 127.9L75.951 127.034L75.5635 126.196L75.1375 125.389L74.6819 124.602L74.1938 123.845L73.6791 123.111L73.1347 122.401L72.5668 121.715L71.9781 121.052L71.3687 120.407L70.7416 119.789L70.0967 119.185L69.44 118.606L68.7715 118.041L68.094 117.496L67.4077 116.967L66.7185 116.455L66.0262 115.961L65.331 115.479L64.6418 115.011L63.9526 114.556L63.2721 114.115L62.5977 113.683L61.935 113.266L61.2842 112.855L45.73 125.244L46.5228 125.744C60.098 134.988 69.0554 148.312 62.5059 163.414L62.148 163.999Z" fill="#C15E47"/>
<path fill-rule="evenodd" clip-rule="evenodd" d="M35.9829 156.32L53.2914 138.337V130.947L35.9829 147.309V156.32Z" fill="#A83E3D"/>
<path fill-rule="evenodd" clip-rule="evenodd" d="M35.9829 147.309L53.2915 130.947H38.0862L17.438 147.309H35.9829Z" fill="#C15E47"/>
<path fill-rule="evenodd" clip-rule="evenodd" d="M64.8755 116.485L76.9835 105.672V87.6746L64.8755 94.5377V116.485Z" fill="#A83E3D"/>
<path fill-rule="evenodd" clip-rule="evenodd" d="M124.596 143.496L125.957 127.82L126.037 126.543L126.087 125.253L126.099 123.96L126.081 122.658L126.037 121.357L125.965 120.052L125.871 118.748L125.753 117.443L125.616 116.141L125.466 114.843L125.3 113.55L125.119 112.266L124.933 110.991L124.738 109.725L124.537 108.474L124.336 107.234L124.134 106.01L123.933 104.8L123.773 103.779L123.623 102.776L123.484 101.8L123.356 100.848L123.241 99.9186L123.134 99.0134L123.037 98.1348L122.951 97.2829L122.871 96.4575L122.803 95.6618L122.741 94.8926L122.685 94.1531L122.637 93.4402L122.596 92.7598L122.564 92.1119L122.534 91.4937L122.51 90.9079L122.49 90.3548L122.475 89.8371L122.466 89.3519L122.457 88.9023L122.454 88.4881L122.451 88.1095V87.7693L122.454 87.4676L122.457 87.2013L122.46 86.9765L122.466 86.7901L122.469 86.6422L122.472 86.5387L122.475 86.4736V86.4529L120.354 93.0467L120.351 93.0733V93.1503L120.345 93.2804L120.342 93.4579L120.336 93.6857L120.33 93.9608L120.327 94.2833L120.324 94.653V95.0701L120.327 95.5287L120.333 96.0345L120.342 96.5818L120.354 97.1734L120.372 97.8065L120.395 98.481L120.425 99.1939L120.46 99.9482L120.502 100.741L120.552 101.569L120.608 102.436L120.676 103.338L120.753 104.276L120.836 105.249L120.934 106.255L121.04 107.293L121.155 108.364L121.286 109.468L121.428 110.601L121.584 111.763L121.753 112.955L121.933 114.174L122.132 115.42L122.377 116.896L122.623 118.39L122.868 119.901L123.111 121.428L123.35 122.972L123.578 124.528L123.797 126.093L123.998 127.67L124.185 129.252L124.35 130.838L124.492 132.429L124.611 134.021L124.696 135.612L124.753 137.201L124.773 138.787L124.756 140.363L124.696 141.934L124.596 143.496Z" fill="#A83E3D"/>
<path fill-rule="evenodd" clip-rule="evenodd" d="M120.354 93.0467L122.475 86.4529H114.881L113.778 86.4618L112.692 86.4913L111.627 86.5357L110.583 86.6008L109.554 86.6836L108.545 86.7842L107.554 86.9055L106.584 87.0445L105.631 87.2013L104.696 87.3758L103.782 87.5681L102.889 87.7811L102.01 88.0119L101.155 88.2603L100.315 88.5266L99.4988 88.8106L98.7 89.1123L97.9191 89.4348L97.1588 89.775L96.4164 90.1329L95.6945 90.5086L94.9904 90.902L94.3101 91.3132L93.6445 91.7451L93.0025 92.1948L92.3783 92.6592L91.7749 93.1443L91.1892 93.6472L82.1992 101.821C94.316 93.1976 106.776 93.8661 120.354 93.0467Z" fill="#C15E47"/>
<path fill-rule="evenodd" clip-rule="evenodd" d="M105.243 147.229L110.086 130.882L109.846 131.577L109.574 132.24L109.267 132.873L108.923 133.468L108.545 134.027L108.125 134.547L108.003 134.684L107.879 134.817L107.752 134.947L107.619 135.074L107.48 135.201L107.341 135.325L107.196 135.444L107.048 135.565L106.894 135.68L106.737 135.793L106.578 135.905L106.412 136.015L106.243 136.121L106.072 136.225L105.894 136.325L105.717 136.423L105.53 136.521L105.344 136.615L105.152 136.707L104.956 136.796L104.755 136.881L104.551 136.967L104.347 137.047L104.134 137.127L103.918 137.204L103.699 137.278L103.477 137.349L103.25 137.42L103.022 137.485L102.785 137.55L102.548 137.612L102.306 137.671L95.7563 155.506L96.0522 155.435L96.3421 155.361L96.6291 155.282L96.9071 155.202L97.1852 155.116L97.4574 155.027L97.7236 154.938L97.9868 154.844L98.2442 154.749L98.4956 154.648L98.7442 154.545L98.9867 154.438L99.2263 154.332L99.4601 154.22L99.6908 154.104L99.9126 153.986L100.135 153.867L100.347 153.743L100.558 153.616L100.765 153.486L100.966 153.353L101.161 153.217L101.35 153.081L101.537 152.939L101.72 152.794L101.895 152.646L102.066 152.495L102.235 152.341L102.395 152.184L102.554 152.027L102.705 151.865L102.853 151.699L103.365 151.063L103.826 150.383L104.246 149.655L104.619 148.886L104.95 148.075L105.243 147.229Z" fill="#C15E47"/>
<path fill-rule="evenodd" clip-rule="evenodd" d="M95.7567 155.506L102.306 137.671L102.268 137.455L102.229 137.239L102.194 137.023L102.152 136.805L102.114 136.586L102.072 136.367L102.034 136.148L101.993 135.929L101.951 135.71L101.91 135.488L101.865 135.269L101.824 135.044L101.78 134.825L101.738 134.601L101.694 134.379L101.646 134.154L101.605 133.932L101.558 133.707L101.513 133.482L101.466 133.258L101.422 133.03L101.374 132.805L101.327 132.577L101.28 132.349L101.232 132.122L101.185 131.897L101.138 131.666L101.09 131.438L101.04 131.208L100.993 130.98L100.945 130.749L100.895 130.518L100.718 129.658L100.537 128.785L100.357 127.903L100.179 127.013L100.002 126.117L99.8302 125.211L99.6645 124.306L99.5018 123.398L99.348 122.49L99.203 121.582L99.067 120.679L98.9456 119.777L98.8332 118.884L98.7356 117.996L98.6528 117.121L98.5877 116.254L98.5404 115.399L98.5108 114.562L98.5019 113.736L98.5137 112.929L98.5492 112.142L98.6084 111.373L98.6942 110.627L98.8036 109.906L98.9426 109.207L99.1113 108.536L99.3095 107.894L99.5373 107.282L99.8005 106.702L100.099 106.155L93.0647 117.073L92.7009 117.739L92.3814 118.449L92.1003 119.194L91.8578 119.978L91.6536 120.795L91.485 121.647L91.349 122.528L91.2454 123.436L91.1745 124.374L91.133 125.336L91.1152 126.318L91.1271 127.323L91.1626 128.347L91.2218 129.391L91.3017 130.447L91.4022 131.515L91.5206 132.598L91.6566 133.687L91.8075 134.784L91.9731 135.887L92.1506 136.994L92.337 138.103L92.5352 139.21L92.7393 140.313L92.9493 141.416L93.1624 142.511L93.3813 143.597L93.6001 144.673L93.819 145.735L94.035 146.786L94.0942 147.067L94.1533 147.348L94.2125 147.626L94.2747 147.907L94.3308 148.185L94.39 148.463L94.4492 148.741L94.5053 149.019L94.5616 149.297L94.6207 149.572L94.6769 149.85L94.7332 150.125L94.7893 150.397L94.8456 150.673L94.8988 150.945L94.955 151.22L95.0083 151.492L95.0615 151.764L95.1148 152.036L95.168 152.306L95.2212 152.578L95.2715 152.847L95.3218 153.116L95.3721 153.385L95.4225 153.652L95.4727 153.918L95.523 154.184L95.5703 154.45L95.6176 154.716L95.665 154.98L95.7123 155.243L95.7567 155.506Z" fill="#A83E3D"/>
<path fill-rule="evenodd" clip-rule="evenodd" d="M166.242 93.0467L160.104 86.4529V137.846L166.242 155.719V93.0467Z" fill="#A83E3D"/>
<path fill-rule="evenodd" clip-rule="evenodd" d="M166.241 155.719L160.103 137.846L159.526 137.831L158.952 137.787L158.39 137.716L157.834 137.618L157.29 137.491L156.757 137.34L156.234 137.162L155.722 136.961L155.222 136.734L154.737 136.485L154.267 136.216L153.811 135.923L153.37 135.609L152.944 135.275L152.533 134.92L152.143 134.547L151.77 134.157L151.418 133.749L151.084 133.323L150.77 132.882L150.474 132.423L150.205 131.953L149.957 131.468L149.732 130.968L149.531 130.456L149.353 129.933L149.199 129.4L152.944 145.422L153.131 146.073L153.347 146.712L153.592 147.336L153.867 147.942L154.169 148.534L154.5 149.108L154.858 149.667L155.24 150.205L155.648 150.723L156.08 151.22L156.533 151.699L157.012 152.152L157.509 152.584L158.027 152.992L158.565 153.373L159.124 153.731L159.698 154.063L160.29 154.364L160.899 154.643L161.523 154.888L162.159 155.104L162.81 155.287L163.475 155.441L164.15 155.563L164.839 155.648L165.534 155.702L166.241 155.719Z" fill="#C15E47"/>
<path fill-rule="evenodd" clip-rule="evenodd" d="M152.513 93.0467L148.845 86.4529H134.157L134.16 93.0467H152.513Z" fill="#C15E47"/>
<path fill-rule="evenodd" clip-rule="evenodd" d="M184.594 93.0467L175.152 86.4529H160.104L166.242 93.0467H184.594Z" fill="#C15E47"/>
<path fill-rule="evenodd" clip-rule="evenodd" d="M244.386 93.0467L224.181 86.4529H184.698L196.235 93.0467H244.386Z" fill="#C15E47"/>
<path fill-rule="evenodd" clip-rule="evenodd" d="M196.235 93.0467L184.698 86.4529V153.051L196.235 174.264V93.0467Z" fill="#A83E3D"/>
<path fill-rule="evenodd" clip-rule="evenodd" d="M225.355 111.592L208.579 101.661L208.494 102.297L208.402 102.951L208.298 103.622L208.189 104.306L208.067 105.001L207.937 105.708L207.798 106.43L207.647 107.157L207.485 107.894L207.31 108.639L207.124 109.388L206.926 110.145L206.713 110.902L206.488 111.666L206.251 112.429L206 113.192L205.733 113.955L205.452 114.716L205.157 115.473L204.843 116.227L204.518 116.976L204.172 117.715L203.811 118.449L203.432 119.174L203.039 119.889L202.624 120.591L202.193 121.283L201.743 121.96L201.273 122.623L200.784 123.268L200.276 123.898L199.746 124.51L214.584 139.458L215.229 138.713L215.854 137.943L216.448 137.157L217.019 136.346L217.569 135.521L218.096 134.678L218.602 133.823L219.084 132.95L219.545 132.065L219.983 131.172L220.403 130.267L220.803 129.356L221.181 128.436L221.545 127.513L221.885 126.587L222.211 125.655L222.518 124.723L222.808 123.794L223.083 122.865L223.341 121.94L223.583 121.017L223.808 120.102L224.021 119.194L224.219 118.295L224.406 117.408L224.577 116.529L224.734 115.665L224.882 114.816L225.015 113.982L225.139 113.165L225.255 112.37L225.355 111.592Z" fill="#A83E3D"/>
<path d="M80.4746 103.847C80.4746 103.847 90.5236 94.5317 109.471 93.0674C109.471 93.0674 98.428 89.6122 82.9358 96.1528L80.8414 98.0905L80.4746 103.847Z" fill="#541138"/>
<path d="M27.981 97.0433C27.981 97.0433 38.8671 90.763 59.2788 93.4846C59.2788 93.4846 49.7533 88.148 34.418 90.973L32.0129 92.8042L27.981 97.0433Z" fill="#541138"/>
<path d="M69.541 117.825C69.541 117.825 67.5531 132.793 75.0374 145.564L75.8213 118.975L69.541 117.825Z" fill="#541138"/>
<path fill-rule="evenodd" clip-rule="evenodd" d="M45.7303 125.244C41.1658 122.363 35.9829 119.54 35.9829 116.6C35.9829 111.592 42.7513 110.181 47.588 110.917L48.4577 116.485H64.8728V94.5377L58.4742 93.1828C56.2703 92.7953 36.5835 89.6625 25.2121 99.1968C20.127 103.471 17.438 109.485 17.438 116.6C17.438 129.326 28.0757 136.035 35.8499 140.928C42.7898 145.298 46.9875 148.217 46.9875 152.007C46.9875 156.533 40.083 158.041 35.9829 156.32V147.309H17.438V170.978C17.438 170.978 25.6973 176.007 36.332 176.007C42.7721 176.007 49.6765 174.477 55.1285 170.957C61.8377 166.626 65.5325 159.896 65.5325 152.007C65.5325 137.719 54.102 130.504 45.7303 125.244ZM117.008 163.263C128.261 150.383 124.706 131.027 122.132 115.423C119.949 101.981 120.354 93.0467 120.354 93.0467H111.092C96.6262 93.0467 86.0299 96.8953 79.5899 104.495C68.9729 117.026 72.996 135.435 75.8566 150.306C78.7586 165.254 78.1965 174.264 78.1965 174.264H87.4794C100.688 174.264 110.627 170.572 117.008 163.263ZM103.859 118.419C105.948 130.329 108.557 145.182 102.853 151.699C101.306 153.477 98.9277 154.755 95.7565 155.509C95.2713 152.705 94.6738 149.785 94.0348 146.786C91.7333 135.669 88.8727 121.821 93.9194 115.866C95.6588 113.816 98.617 112.405 102.717 111.63C103.045 113.816 103.454 116.097 103.859 118.419ZM166.242 93.0467V155.719C158.66 155.719 152.513 149.572 152.513 141.99V93.0467H134.16V144.389C134.16 160.884 147.543 174.264 164.038 174.264H184.591V93.0467H166.242ZM244.54 102.155L244.383 93.0467H196.235V174.264H214.585V160.884C244.945 147.019 244.578 104.107 244.54 102.155ZM214.585 139.458V111.592H225.356C224.311 119.771 221.605 131.625 214.585 139.458Z" fill="#FAD862"/>
<path fill-rule="evenodd" clip-rule="evenodd" d="M134.16 108.58C135.784 99.5489 143.227 94.727 152.513 94.8009V93.0467H134.16V108.58ZM166.242 95.437C175.332 95.3068 182.086 101.945 184.592 115.582V93.0467H166.242V95.437Z" fill="#FFFF8A"/>
<path fill-rule="evenodd" clip-rule="evenodd" d="M196.235 114.582C197.167 108.465 200.35 95.3393 220.49 95.5435C240.626 95.7446 242.182 106.057 243.573 114.932C244.599 107.894 244.552 102.8 244.54 102.155L244.383 93.0467H196.235V114.582Z" fill="#FFFF8A"/>
<path fill-rule="evenodd" clip-rule="evenodd" d="M72.6797 125.315C75.2474 109.571 86.5833 96.9871 103.995 97.7207C119.307 98.3656 120.771 113.722 124.756 137.47C124.602 129.977 123.271 122.33 122.132 115.423C119.949 101.981 120.354 93.0467 120.354 93.0467H111.092C96.6264 93.0467 86.0301 96.8954 79.5901 104.495C74.5493 110.447 72.8098 117.721 72.6797 125.315Z" fill="#FFFF8A"/>
<path fill-rule="evenodd" clip-rule="evenodd" d="M64.6421 116.485H64.8728V94.5377L58.4742 93.1828C56.2703 92.7953 36.5835 89.6625 25.2121 99.1968C20.1299 103.468 17.4439 109.477 17.438 116.588C19.8548 96.6616 59.3055 84.6395 64.6421 116.485Z" fill="#FFFF8A"/>
<path fill-rule="evenodd" clip-rule="evenodd" d="M26.2061 134.086C29.3181 136.813 32.8029 139.011 35.8499 140.928C42.7898 145.298 46.9875 148.217 46.9875 152.007C46.9875 156.533 40.083 158.041 35.9829 156.32V147.309H17.438V170.978C17.438 170.978 25.6973 176.007 36.332 176.007C42.7721 176.007 49.6765 174.477 55.1285 170.957C61.8377 166.626 65.5325 159.896 65.5325 152.007C65.5325 145.948 63.4765 141.159 60.468 137.254C49.1854 142.224 39.5062 133.308 26.2061 134.086ZM72.8304 130.699C78.2616 128.134 83.8497 126.995 91.331 130.758C91.8013 135.991 92.9787 141.677 94.0348 146.785C94.6738 149.785 95.2713 152.705 95.7565 155.509C98.9277 154.755 101.306 153.477 102.853 151.699C105.297 148.907 106.214 144.585 106.299 139.618C113.423 142.268 118.082 139.825 124.688 135.47C125.164 145.593 123.72 155.58 117.008 163.263C110.627 170.572 100.688 174.264 87.4794 174.264H78.1965C78.1965 174.264 78.7586 165.254 75.8566 150.306C74.6733 144.153 73.2918 137.396 72.8304 130.699ZM134.16 129.666C141.656 126.318 147.253 128.232 152.513 131.489V141.99C152.513 149.572 158.66 155.719 166.242 155.719V140.298C171.274 142.597 177.057 143.378 184.591 140.132V174.264H164.038C147.543 174.264 134.16 160.884 134.16 144.389V129.666ZM196.235 133.545C203.968 129.495 209.763 128.974 214.585 129.95V139.458C216.667 137.133 218.371 134.456 219.765 131.625C225.758 134.222 230.535 138.266 236.866 137.902C232.452 147.149 225.506 155.897 214.585 160.884V174.264H196.235V133.545Z" fill="#F5A151"/>
<path fill-rule="evenodd" clip-rule="evenodd" d="M17.438 164.786V170.978C30.9363 180.187 58.3145 177.512 64.3817 159.299C45.2895 159.547 40.8049 177.453 17.438 164.786ZM77.176 158.26C92.2984 159.305 95.0288 166.043 113.411 166.706C107.119 171.729 98.4218 174.264 87.4794 174.264H78.1965C78.1965 174.264 78.5634 168.389 77.176 158.26ZM142.721 165.316C156.483 162.541 162.674 158.63 184.591 163.715V174.264H164.038C155.693 174.264 148.143 170.839 142.721 165.316ZM196.235 166.641C202.462 168.108 208.47 169.049 214.585 168.203V174.264H196.235V166.641Z" fill="#D25148"/>
<path d="M59.1785 135.568C59.1785 135.568 72.2094 153.311 58.1846 168.647L69.0175 161.056C69.0175 161.056 72.2094 145.827 59.1785 135.568Z" fill="#541138"/>
<path d="M23.6946 131.589C23.6946 131.589 28.9809 137.139 37.2491 141.691C37.2491 141.691 28.3507 139.494 24.3749 136.719L23.0645 134.574L23.6946 131.589Z" fill="#541138"/>
<path d="M152.521 126.513V142.632C152.521 142.632 152.155 150.93 159.612 153.992C159.612 153.992 155.829 150.17 155.849 144.017L155.897 130.492L152.521 126.513Z" fill="#541138"/>
<path d="M121.224 109.53C121.224 109.53 127.187 136.222 123.629 150.98L128.968 143.443C128.968 143.443 127.607 123.975 121.224 109.53Z" fill="#541138"/>
<path d="M245.525 93.0674H207.003L243.22 89.2484L245.525 93.0674Z" fill="#541138"/>
<path d="M196.404 150.22V177.646L192.218 173.773L196.404 150.22Z" fill="#541138"/>
<path d="M100.605 52.5725C101.96 49.6528 102.081 46.8188 102.09 46.2183C102.09 44.9196 102.09 43.6239 102.09 42.3223C98.0431 42.3223 94.0051 42.3223 89.9701 42.3223C89.9701 42.3282 89.9701 42.3342 89.9701 42.3371C88.065 42.3371 86.1599 42.3371 84.2578 42.3371C84.2578 47.2359 84.2578 52.1347 84.2578 57.0305C84.2578 61.9234 84.2578 66.8222 84.2578 71.7151C86.4706 71.7151 88.6833 71.7151 90.8961 71.7151C90.8961 69.5378 90.8961 67.3576 90.8961 65.1804C92.532 65.5058 93.6826 66.414 94.4547 67.97C95.3481 69.7686 95.3718 71.7151 95.3718 71.7358C96.487 71.7299 97.6053 71.7239 98.7323 71.7151C99.8476 71.7151 100.963 71.7151 102.09 71.7151C102.09 71.3808 102.043 68.3694 100.605 65.278C99.1139 62.0684 96.6291 59.9 93.4579 58.9208C96.6291 57.9476 99.111 55.7762 100.605 52.5725ZM90.8961 52.6613C90.8961 51.4514 90.8961 50.2414 90.8961 49.0286C92.1918 49.0286 93.4993 49.0286 94.8038 49.0286C94.724 49.2623 94.6352 49.4989 94.5258 49.7297C93.7478 51.3685 92.5823 52.327 90.8961 52.6613ZM121.129 67.754C123.164 65.423 123.862 62.5062 123.93 59.4681C124.001 56.43 123.451 53.2618 122.984 50.4367C122.581 48.005 122.425 45.9787 122.365 44.5646C122.306 43.1506 122.345 42.3371 122.345 42.3371C121.229 42.3371 120.114 42.3371 118.996 42.3371C113.754 42.3371 109.917 43.7334 107.592 46.4816C105.672 48.7535 105.072 51.549 105.081 54.4569C105.092 57.3618 105.72 60.3733 106.237 63.0653C106.758 65.7691 106.965 67.9375 107.045 69.4284C107.125 70.9193 107.083 71.7358 107.083 71.7358C108.202 71.7358 109.317 71.7358 110.444 71.7358C115.227 71.7358 118.827 70.4016 121.129 67.754ZM116.375 51.5224C116.754 53.6789 117.183 56.1016 117.254 58.2789C117.322 60.4561 117.041 62.3849 116.005 63.5682C115.446 64.2101 114.591 64.6746 113.443 64.9467C113.266 63.932 113.044 62.876 112.816 61.7903C112.396 59.7787 111.929 57.5186 111.799 55.4952C111.669 53.4718 111.861 51.6762 112.775 50.5964C113.405 49.8569 114.482 49.3451 115.958 49.0641C116.076 49.8569 116.224 50.6822 116.375 51.5224ZM139.68 42.3371C139.133 44.5617 138.574 46.7833 138.035 49.0019C137.497 51.2236 136.949 53.4452 136.411 55.6638C135.145 53.4274 134.299 50.8775 133.76 48.4961C133.222 46.1177 132.971 43.902 132.903 42.3371C130.631 42.3371 128.356 42.3371 126.084 42.3371C126.093 42.6684 126.253 46.2064 127.371 50.5876C128.486 54.9716 130.56 60.2076 134.388 63.9379C134.068 65.2396 133.74 66.5412 133.432 67.8398C133.122 69.1355 132.793 70.4371 132.483 71.7358C134.695 71.7358 136.908 71.7358 139.124 71.7358C140.319 66.837 141.514 61.9352 142.712 57.0394C143.907 52.1406 145.114 47.2389 146.318 42.3371C144.105 42.3371 141.893 42.3371 139.68 42.3371ZM165.36 71.7358C164.869 66.837 164.381 61.9352 163.902 57.0394C163.425 52.1406 162.946 47.2389 162.467 42.3371C160.245 42.3371 158.033 42.3371 155.82 42.3371C151.853 45.6917 149.051 50.6023 147.256 55.4745C145.463 60.3437 144.644 65.1804 144.644 68.3871C144.644 69.5023 144.644 70.6205 144.644 71.7358C145.762 71.7358 146.877 71.7358 147.995 71.7358C151.871 71.7358 155.539 70.1413 158.272 67.2097C158.411 68.7184 158.559 70.2271 158.71 71.7358C160.923 71.7358 163.136 71.7358 165.36 71.7358ZM151.522 64.3669C151.891 62.305 152.53 60.0094 153.406 57.7494C154.285 55.4923 155.4 53.2618 156.716 51.3419C156.796 52.1879 156.873 53.034 156.956 53.883C157.204 56.4655 156.666 58.7759 155.66 60.5981C154.654 62.4174 153.166 63.7457 151.522 64.3669ZM175.814 65.0236C175.814 61.243 175.814 57.4624 175.814 53.6818C175.814 49.9042 175.814 46.1207 175.814 42.3371C173.602 42.3371 171.389 42.3371 169.176 42.3371C169.176 47.2389 169.176 52.1406 169.176 57.0394C169.176 61.9352 169.176 66.837 169.176 71.7358C174.09 71.7358 179.015 71.7358 183.941 71.7358C183.941 69.4994 183.941 67.263 183.941 65.0236C181.228 65.0236 178.518 65.0236 175.814 65.0236Z" fill="#541138"/>
<path fill-rule="evenodd" clip-rule="evenodd" d="M96.44 158.462C96.44 158.462 74.7918 160.787 68.5293 184.044C63.0418 204.429 80.8739 187.801 80.8739 187.801C80.8739 187.801 96.7979 163.828 96.44 158.462Z" fill="white"/>
<path d="M152.332 147.114C151.714 149.185 150.977 151.226 150.128 153.22C147.785 152.524 145.401 151.956 142.996 151.513C141.97 150.063 140.541 149.001 138.659 148.759C137.689 148.631 136.695 148.759 135.787 149.117C135.018 149.421 134.34 149.862 133.746 150.403C132.279 150.318 130.808 150.276 129.338 150.276C119.644 150.276 109.746 152.101 100.868 156.065C93.3396 159.429 86.1749 164.535 81.5423 171.46C78.3445 176.24 76.3921 181.618 76.3921 187.405C76.3921 189.183 76.5755 190.955 76.9423 192.694C78.0487 205.837 83.0687 218.102 92.467 227.5C100.794 235.825 111.772 241.034 123.463 242.359C125.498 242.59 127.548 242.7 129.598 242.691C142.203 242.634 154.527 238.002 163.982 229.648C174.8 220.081 180.556 206.932 181.74 192.667C182.104 190.937 182.284 189.174 182.284 187.405C182.284 185.804 182.139 184.213 181.852 182.645C185.168 179.722 185.751 174.196 184.982 170.114C184.142 165.668 181.411 160.095 177.016 158.08C177.767 151.658 173.699 144.96 168.304 141.603C162.083 137.736 153.853 139.186 152.332 147.114Z" fill="#541138"/>
<path d="M129.338 153.933C102.285 153.933 80.356 168.694 80.356 186.908C80.356 220.33 104.853 239.15 129.581 239.034C153.829 238.925 178.323 220.534 178.323 186.908C178.323 168.694 156.391 153.933 129.338 153.933Z" fill="#541138"/>
<path d="M129.338 157.13C104.321 157.13 84.0391 170.786 84.0391 187.627C84.0391 218.537 106.693 235.94 129.563 235.836C151.989 235.733 174.64 218.726 174.64 187.627C174.64 170.786 154.359 157.13 129.338 157.13Z" fill="#B86F55"/>
<path d="M129.338 157.13C104.321 157.13 84.0391 170.457 84.0391 186.899C84.0391 217.07 106.693 234.059 129.563 233.955C151.989 233.855 174.64 217.256 174.64 186.899C174.64 170.457 154.359 157.13 129.338 157.13Z" fill="#A64F4B"/>
<path d="M152.161 216.129C152.161 216.129 155.882 219.2 163.065 219.655L164.632 217.371C164.632 217.371 152.421 216.162 152.161 216.129Z" fill="#B86F55"/>
<path d="M140.635 222.332C140.635 222.332 142.922 226.249 152.583 228.861L154.61 227.065C154.61 227.065 144.783 224.814 140.635 222.332Z" fill="#B86F55"/>
<path d="M111.417 223.607C111.417 223.607 117.458 226.021 118.372 234.053L121.963 233.955C121.963 233.955 119.644 226.382 111.417 223.607Z" fill="#B86F55"/>
<path d="M122.354 224.258C122.354 224.258 127.513 231.018 136.455 234.609L139.851 232.976C139.851 232.976 125.977 227.459 122.354 224.258Z" fill="#B86F55"/>
<path fill-rule="evenodd" clip-rule="evenodd" d="M146.129 232.606C137.677 232.139 130.601 228.53 123.62 224.311C114.343 218.706 105.015 212.405 90.8486 214.032C91.2569 214.721 91.6799 215.392 92.1178 216.049C105.143 214.916 114.505 220.031 123.194 225.282C129.193 228.905 134.686 232.769 141.564 234.15C143.108 233.716 144.632 233.204 146.129 232.606ZM98.8004 223.9C108.598 221.439 117.36 223.581 121.712 235.18C122.555 235.325 123.401 235.449 124.247 235.544C118.505 222.551 107.808 220.128 96.8716 221.998C97.4987 222.655 98.1407 223.291 98.8004 223.9ZM157.071 226.335C143.792 224.542 132.548 219.445 132.332 207.586C131.761 202.888 131.616 201.095 131.793 201.072C132.098 201.036 133.367 202.302 135.21 204.139C140.665 209.579 150.504 219.392 165.18 218.064C165.759 217.292 166.318 216.493 166.854 215.67C150.388 218.7 141.029 208.556 136.677 202.663C134.411 200.4 132.849 198.841 131.548 199.001C129.876 199.202 129.507 201.637 130.258 207.831C131.713 219.794 142.579 225.444 154.858 227.953C155.61 227.438 156.349 226.9 157.071 226.335Z" fill="#842C3F"/>
<path d="M129.338 154.223C102.117 154.223 80.0483 169.079 80.0483 187.405C80.0483 205.728 102.117 217.735 129.338 217.735C156.562 217.735 178.628 205.728 178.628 187.405C178.628 169.079 156.562 154.223 129.338 154.223Z" fill="#541138"/>
<path d="M129.338 218.389C154.665 218.389 175.196 204.567 175.196 187.517C175.196 170.467 154.665 156.645 129.338 156.645C104.011 156.645 83.48 170.467 83.48 187.517C83.48 204.567 104.011 218.389 129.338 218.389Z" fill="#DFA566"/>
<path fill-rule="evenodd" clip-rule="evenodd" d="M129.338 156.645C120.573 156.645 112.379 158.302 105.415 161.177C134.802 171.037 159.074 188.922 171.661 199.424C173.939 195.759 175.199 191.739 175.199 187.517C175.199 170.469 154.666 156.645 129.338 156.645Z" fill="#ECCA7D"/>
<path d="M175.184 186.822C174.927 178.941 170.28 171.791 162.825 166.428C157.252 169.386 144.606 179.45 143.901 180.743C143.118 182.178 159.047 205.163 164.991 194.975C168.298 189.304 172.291 187.399 175.184 186.822Z" fill="#A64F4B"/>
<path d="M129.338 211.757C150.77 211.757 168.144 200.192 168.144 185.926C168.144 171.66 150.77 160.095 129.338 160.095C107.906 160.095 90.5322 171.66 90.5322 185.926C90.5322 200.192 107.906 211.757 129.338 211.757Z" fill="#541138"/>
<path d="M129.338 211.757C151.03 211.757 168.614 200.665 168.614 186.982C168.614 173.299 151.03 162.207 129.338 162.207C107.647 162.207 90.062 173.299 90.062 186.982C90.062 200.665 107.647 211.757 129.338 211.757Z" fill="#8C3642"/>
<path fill-rule="evenodd" clip-rule="evenodd" d="M129.338 171.22C109.642 171.22 93.6738 181.293 93.6738 193.721C93.6738 195.303 93.9341 196.85 94.4281 198.341C100.957 206.308 114.139 211.757 129.338 211.757C144.54 211.757 157.722 206.308 164.251 198.341C164.745 196.85 165.005 195.303 165.005 193.721C165.005 181.293 149.037 171.22 129.338 171.22Z" fill="#FAD862"/>
<path d="M120.102 191.185C128.433 191.185 135.186 188.115 135.186 184.328C135.186 180.541 128.433 177.471 120.102 177.471C111.772 177.471 105.019 180.541 105.019 184.328C105.019 188.115 111.772 191.185 120.102 191.185Z" fill="#FFFF66"/>
<path fill-rule="evenodd" clip-rule="evenodd" d="M139.168 203.841C129.456 203.841 121.265 206.796 118.709 210.837C122.09 211.434 125.655 211.757 129.338 211.757C138.526 211.757 146.978 209.766 153.666 206.432C149.865 204.823 144.771 203.841 139.168 203.841Z" fill="#FFFF66"/>
<path fill-rule="evenodd" clip-rule="evenodd" d="M164.366 195.756C162.896 192.327 156.888 189.274 154.066 196.016L132.846 184.592C132.846 184.592 133.222 176.004 120.212 178.175L121.943 173.622L146.558 174.602L160.334 184.526C160.334 184.526 163.011 186.985 164.183 192.298C164.375 193.164 164.254 194.777 164.366 195.756Z" fill="#EB8350"/>
<path d="M103.776 193.206C107.103 193.206 109.799 192.431 109.799 191.475C109.799 190.52 107.103 189.745 103.776 189.745C100.45 189.745 97.7534 190.52 97.7534 191.475C97.7534 192.431 100.45 193.206 103.776 193.206Z" fill="#EB8350"/>
<path d="M138.36 207.683C142.59 207.683 146.019 206.96 146.019 206.068C146.019 205.176 142.59 204.453 138.36 204.453C134.131 204.453 130.702 205.176 130.702 206.068C130.702 206.96 134.131 207.683 138.36 207.683Z" fill="#F4B750"/>
<path fill-rule="evenodd" clip-rule="evenodd" d="M107.974 178.749C107.243 178.832 106.217 178.959 105.61 179.042C104.318 179.216 103.51 179.867 103.566 180.799L103.992 185.899C104.105 186.849 104.868 186.887 105.764 187.118L110.755 188.251C111.275 188.384 111.846 188.375 112.408 188.224L119.378 186.514C121.073 186.059 122.108 185.432 122.028 184.092L121.65 180.485C121.614 179.903 120.901 179.403 120.159 179.175C119.076 178.376 115.647 178.077 113.938 178.137L113.935 178.134C111.095 178.083 109.281 178.379 107.974 178.749Z" fill="#EB8350"/>
<path fill-rule="evenodd" clip-rule="evenodd" d="M122.206 199.128C122.859 199.155 123.776 199.202 124.315 199.238C125.471 199.312 126.193 199.841 126.143 200.675L126.643 205.092C126.542 205.947 125.862 206.027 125.063 206.29L119.593 207.328C119.132 207.479 118.62 207.509 118.117 207.408L111.245 206.068C109.734 205.766 108.645 204.784 108.716 203.583L108.533 200.504C108.565 199.983 109.397 199.326 110.059 199.078C111.027 198.294 115.36 199.019 116.887 198.962C119.422 198.738 121.04 198.883 122.206 199.128Z" fill="#EB8350"/>
<path fill-rule="evenodd" clip-rule="evenodd" d="M154.131 189.961L154.311 195.279C154.196 197.229 153.022 197.466 151.661 198.122C146.064 199.465 143.186 199.956 141.786 200.098C140.603 200.217 137.47 199.977 132.175 199.723C129.542 199.152 127.88 198.102 127.924 195.362L128.042 189.467C128.513 188.496 137.293 186.074 139.577 185.943L152.276 188.005C153.459 188.174 154.258 188.337 154.131 189.961Z" fill="#EB8350"/>
<path fill-rule="evenodd" clip-rule="evenodd" d="M129.338 171.22C109.642 171.22 93.6738 181.293 93.6738 193.721C93.6738 194.794 93.7921 195.853 94.0258 196.889C96.4634 185.961 111.343 177.554 129.338 177.554C147.336 177.554 162.215 185.961 164.653 196.889C164.884 195.853 165.005 194.794 165.005 193.721C165.005 181.293 149.037 171.22 129.338 171.22Z" fill="#EB8350"/>
<path d="M142.327 158.16C142.321 158.13 142.318 158.101 142.313 158.071C142.15 157.098 141.83 155.918 140.907 155.429C140.789 155.101 140.656 154.779 140.511 154.48C140.05 153.519 139.334 152.533 138.189 152.386C137.828 152.338 137.467 152.386 137.127 152.519C136.375 152.814 135.763 153.474 135.281 154.246C135.05 154.157 134.802 154.122 134.535 154.146C134.257 154.169 133.994 154.267 133.76 154.421C133.009 154.921 132.713 156.175 132.506 157.03C131.53 157.048 130.79 157.781 130.344 158.663C130.051 159.243 129.844 159.932 129.705 160.66C128.693 159.896 127.406 159.323 126.347 160.278C125.466 161.068 125.424 162.529 125.492 163.674C125.291 163.733 125.093 163.837 124.892 163.994C123.859 164.813 124.327 166.573 124.569 167.668C124.575 167.694 124.581 167.718 124.587 167.745C124.386 167.857 124.196 168.011 124.025 168.215C123.365 168.99 123.605 170.008 124.004 170.83C124.392 171.623 124.972 172.377 125.566 173.025C127.436 175.06 129.959 176.572 132.533 177.539C132.852 177.749 133.05 178.545 133.101 178.864C133.471 181.116 132.533 184.376 131.814 186.47C131.672 186.89 131.71 187.304 131.932 187.689C132.151 188.073 132.488 188.319 132.923 188.408L135.671 188.97C136.103 189.058 136.511 188.967 136.864 188.7C137.219 188.434 137.417 188.064 137.449 187.624C137.565 186.062 137.562 184.5 137.659 182.941C137.721 181.923 137.84 180.781 138.281 179.849C138.775 178.796 139.644 178.128 140.659 177.601C141.49 177.169 142.319 176.729 143.135 176.264C144.2 175.658 145.309 174.992 146.274 174.238C147.205 173.507 148.294 172.442 147.933 171.126C147.841 170.8 147.688 170.54 147.489 170.327C148.3 169.383 149.335 167.99 148.64 166.709C148.764 166.493 148.883 166.28 148.995 166.067C149.569 164.973 150.249 163.405 149.297 162.313C149.063 162.044 148.761 161.855 148.424 161.754C147.519 161.479 146.427 161.728 145.457 162.142C145.206 161.961 144.925 161.852 144.632 161.807C144.667 160.621 144.481 159.257 143.431 158.544C143.079 158.305 142.706 158.187 142.327 158.16Z" fill="#541138"/>
<path fill-rule="evenodd" clip-rule="evenodd" d="M144.537 170.928C144.537 170.928 148.652 167.174 146.229 167.307C146.229 167.307 148.679 163.778 147.587 163.446C146.492 163.118 144.549 164.39 144.549 164.39C144.549 164.39 144.688 162.426 142.585 164.47C142.585 164.47 144.031 158.479 140.86 160.432C140.86 160.432 140.745 156.589 139.665 157.287C139.665 157.287 138.828 154.039 137.639 154.507C136.446 154.977 135.698 157.554 135.698 157.554C135.698 157.554 135.074 155.924 134.66 156.199C134.245 156.474 133.642 159.746 133.642 159.746C133.642 159.746 132.74 157.985 131.852 159.743C130.962 161.5 131.237 164.304 131.237 164.304C131.237 164.304 128.498 160.979 127.678 161.719C126.859 162.455 127.672 166.496 127.672 166.496C127.672 166.496 126.587 165.059 126.208 165.357C125.832 165.656 126.924 169.514 126.924 169.514C126.924 169.514 126.028 168.694 125.575 169.23C125.122 169.765 127.341 173.762 133.207 175.959C133.207 175.959 136.541 177.019 133.346 186.364L135.994 186.908C136.375 181.716 135.523 178.326 139.854 176.081C143.244 174.324 148.983 171.099 144.537 170.928Z" fill="#83BA32"/>
<path fill-rule="evenodd" clip-rule="evenodd" d="M130.935 163.955C130.205 163.121 128.329 161.13 127.678 161.719C126.859 162.455 127.672 166.496 127.672 166.496C127.672 166.496 126.587 165.058 126.208 165.357C125.832 165.656 126.924 169.514 126.924 169.514C126.924 169.514 126.028 168.694 125.575 169.23C125.155 169.727 127.031 173.194 131.971 175.445L130.935 163.955Z" fill="#B2D74D"/>
<path fill-rule="evenodd" clip-rule="evenodd" d="M143.925 171.013C143.925 171.013 148.04 167.259 145.617 167.39C147.25 165.671 148.125 163.056 144.549 164.39C144.549 164.39 144.688 162.426 142.585 164.47C142.499 164.875 143.04 159.979 140.502 161.325C140.502 161.325 140.475 157.385 139.396 158.083C139.396 158.083 138.884 155.276 137.854 155.169C137.455 160.201 135.733 181.834 134.875 186.677L135.994 186.908C136.375 181.716 135.523 178.326 139.857 176.081C143.244 174.324 148.371 171.185 143.925 171.013Z" fill="#5F9137"/>
<path fill-rule="evenodd" clip-rule="evenodd" d="M136.266 174.241C136.266 174.241 143.676 167.422 143.301 167.526C142.925 167.629 135.266 172.904 135.266 172.904L136.266 174.241Z" fill="#83BA32"/>
<path fill-rule="evenodd" clip-rule="evenodd" d="M129.749 165.647L136.432 172.099L137.254 170.295L136.926 169.928C136.926 169.928 130.563 165.999 129.749 165.647Z" fill="#5F9137"/>
<path fill-rule="evenodd" clip-rule="evenodd" d="M141.549 162.23L136.887 165.369L136.443 164.381L141.549 162.23Z" fill="#83BA32"/>
<path fill-rule="evenodd" clip-rule="evenodd" d="M132.923 162.674L137.053 166.487L137.642 165.579L132.923 162.674Z" fill="#5F9137"/>
<path d="M172.51 160.606C175.471 154.625 170.983 147.575 166.371 144.709C162.233 142.135 156.828 142.555 155.894 147.966C152.589 159.183 145.256 171.741 134.671 177.175C133.914 177.563 133.405 178.184 133.175 179.003C132.941 179.823 133.05 180.616 133.491 181.346L136.887 186.041C137.6 187.218 138.195 187.872 139.508 187.464C152.317 183.506 167.519 173.3 172.51 160.606Z" fill="#541138"/>
<path fill-rule="evenodd" clip-rule="evenodd" d="M158.867 148.203C157.704 152.383 151.883 170.49 135.894 178.699L139.417 184.506C139.417 184.506 163.239 177.155 169.963 158.982L165.591 152.35C164.73 151.613 159.467 146.055 158.867 148.203Z" fill="#83BA32"/>
<path fill-rule="evenodd" clip-rule="evenodd" d="M135.266 178.575L137.491 184.864C137.491 184.864 156.917 179.432 165.694 165.05C169.105 159.464 166.026 160.435 163.103 164.242C158.849 169.78 151.226 178.589 135.266 178.575Z" fill="#5F9137"/>
<path fill-rule="evenodd" clip-rule="evenodd" d="M157.595 152.11C155.018 159.13 148.735 172.105 135.894 178.699L136.213 179.228C158.367 172.688 157.758 152.578 157.758 152.578C157.731 152.409 157.675 152.255 157.595 152.11Z" fill="#B2D74D"/>
<path d="M158.559 145.709C156.113 146.641 155.696 149.123 156.625 151.608C158.202 155.814 163.449 160.222 167.928 158.512C170.274 157.616 169.292 154.734 166.984 150.948C164.674 147.158 160.902 144.813 158.559 145.709Z" fill="#541138"/>
<path d="M168.873 159.883C166.528 160.778 162.756 158.433 160.448 154.645C158.14 150.857 158.171 147.06 160.516 146.165C162.861 145.271 166.633 147.616 168.94 151.404C171.248 155.192 171.218 158.989 168.873 159.883Z" fill="#D7EB57"/>
<path d="M170.916 162.295C163.624 170.135 151.853 178.459 141.109 181.249C140.047 181.524 139.479 182.672 139.692 183.748L141.121 190.993C141.342 192.12 142.387 192.883 143.529 192.756C144.685 192.626 145.863 192.425 147.007 192.221C149.877 191.703 152.734 191.043 155.545 190.268C163.834 187.979 171.714 185.225 178.814 180.332C179.568 179.808 180.338 178.243 180.136 177.347L178.495 170.067C178.438 169.824 178.358 169.626 178.231 169.413L174.249 162.816C173.9 162.239 173.729 161.31 173.063 161.207C172.398 161.103 171.421 161.852 170.916 162.295Z" fill="#541138"/>
<path fill-rule="evenodd" clip-rule="evenodd" d="M172.365 163.955C172.365 163.955 162.15 176.613 141.854 183.322L143.28 190.567C143.28 190.567 162.7 188.369 177.986 177.832L176.344 170.552L172.365 163.955Z" fill="#83BA32"/>
<path fill-rule="evenodd" clip-rule="evenodd" d="M170.833 165.644C168.105 168.475 161.727 174.347 151.731 179.279C169.087 180.595 170.824 166.011 170.824 166.011C170.833 165.887 170.836 165.765 170.833 165.644Z" fill="#B2D74D"/>
<path fill-rule="evenodd" clip-rule="evenodd" d="M146.244 181.814C145.046 182.284 143.806 182.737 142.52 183.163L143.83 189.813C143.83 189.813 157.296 188.289 170.034 181.539C174.116 179.373 173.297 178.64 169.348 179.613C161.257 181.607 152.983 182.766 146.244 181.814Z" fill="#5F9137"/>
<path d="M173.605 160.967C170.176 160.902 170.079 165.103 171.096 170.478C172.111 175.853 174.146 180.761 177.214 180.793C180.282 180.826 182.403 176.167 181.388 170.791C180.373 165.416 177.031 161.032 173.605 160.967Z" fill="#541138"/>
<path d="M176.744 178.241C174.408 178.216 171.887 174.878 171.114 170.785C170.341 166.692 171.608 163.394 173.944 163.419C176.28 163.444 178.801 166.782 179.574 170.875C180.347 174.968 179.08 178.266 176.744 178.241Z" fill="#D7EB57"/>
<path d="M112.012 183.532L109.145 183.491C108.929 183.402 106.622 183.059 105.344 182.805C104.048 182.541 103.341 181.583 103.572 180.202L104.957 172.655C105.249 171.247 106.039 171.194 107.004 170.851L112.145 169.126C112.704 168.928 113.29 168.943 113.837 169.167L120.676 171.697C122.333 172.371 123.28 173.297 122.948 175.285L121.889 180.619C121.736 181.539 120.813 182.317 119.961 182.618C118.088 183.287 115.952 183.42 113.837 183.861C113.198 183.994 112.618 183.787 112.012 183.532Z" fill="#541138"/>
<path fill-rule="evenodd" clip-rule="evenodd" d="M111.284 173.176L108.968 176.297L108.903 179.805C108.903 179.805 112.953 182.95 113.63 182.808C114.311 182.663 118.224 182.219 118.452 181.704C118.68 181.19 118.056 173.75 118.056 173.75L111.284 173.176Z" fill="#B1314A"/>
<path fill-rule="evenodd" clip-rule="evenodd" d="M107.35 173.199L114.174 175.971C114.553 176.122 114.766 176.516 114.698 176.927L113.529 184.1C108.648 184.222 106.882 182.923 105.504 182.071C105.161 181.858 104.915 181.524 104.983 181.116L106.205 173.859C106.249 173.593 106.394 173.383 106.625 173.25C106.856 173.117 107.104 173.099 107.35 173.199Z" fill="#B1314A"/>
<path fill-rule="evenodd" clip-rule="evenodd" d="M120.209 174.324L115.287 176.06C114.985 176.167 114.781 176.415 114.728 176.735L113.509 184.095C115.278 184.189 118.984 183.731 120.183 182.491L121.321 175.294C121.369 174.983 121.271 174.69 121.034 174.483C120.801 174.279 120.502 174.22 120.209 174.324Z" fill="#E95B5B"/>
<path fill-rule="evenodd" clip-rule="evenodd" d="M119.44 174.622L115.115 176.205C114.911 176.279 114.713 176.276 114.511 176.19L108.483 173.682C108.148 173.543 107.941 173.22 107.953 172.85C107.962 172.481 108.184 172.173 108.524 172.052L112.84 170.528C113.038 170.46 113.231 170.463 113.426 170.543L119.466 172.995C119.801 173.131 120.008 173.448 120.002 173.818C119.996 174.187 119.777 174.498 119.44 174.622Z" fill="#F39582"/>
<path d="M154.054 189.993L153.019 184.165C152.578 182.036 151.377 181.953 149.921 181.435L142.582 178.776C141.736 178.477 140.852 178.498 140.02 178.838L130.359 182.615C127.85 183.639 126.418 185.041 126.921 188.047L128.028 194.519C128.652 195.516 137.742 196.859 140.02 196.658L152.551 192.425C153.693 192.064 154.456 191.762 154.054 189.993Z" fill="#541138"/>
<path fill-rule="evenodd" clip-rule="evenodd" d="M143.736 184.461L147.244 189.186L147.339 194.283L139.71 197.001L132.847 194.774C132.992 191.218 133.486 185.328 133.486 185.328L143.736 184.461Z" fill="#B1314A"/>
<path fill-rule="evenodd" clip-rule="evenodd" d="M149.69 184.497L139.36 188.692C138.789 188.922 138.464 189.517 138.567 190.138C138.946 192.425 139.325 194.712 139.706 197.001C145.052 196.637 149.684 195.478 152.589 192.41L151.427 185.497C151.359 185.091 151.14 184.772 150.791 184.571C150.442 184.373 150.063 184.346 149.69 184.497Z" fill="#E95B5B"/>
<path fill-rule="evenodd" clip-rule="evenodd" d="M130.225 186.198L137.677 188.828C138.133 188.99 138.443 189.363 138.526 189.851C138.925 192.233 139.328 194.614 139.727 196.995C139.721 196.998 139.715 197.001 139.709 197.001C136.248 196.682 132.846 195.768 129.56 193.706L128.542 187.668C128.465 187.198 128.622 186.751 128.977 186.44C129.332 186.133 129.785 186.044 130.225 186.198Z" fill="#B1314A"/>
<path fill-rule="evenodd" clip-rule="evenodd" d="M137.65 192.937C137.65 192.937 143.153 194.096 142.857 194.439C142.564 194.783 138.124 195.632 138.124 195.632L137.65 192.937Z" fill="#B1314A"/>
<path fill-rule="evenodd" clip-rule="evenodd" d="M131.391 186.653L137.937 189.047C138.245 189.159 138.547 189.153 138.848 189.026L147.98 185.225C148.486 185.015 148.794 184.529 148.779 183.97C148.764 183.408 148.43 182.941 147.915 182.757L141.384 180.456C141.082 180.349 140.792 180.355 140.496 180.477L131.352 184.186C130.844 184.393 130.53 184.876 130.539 185.435C130.548 185.994 130.879 186.464 131.391 186.653Z" fill="#F39582"/>
<path fill-rule="evenodd" clip-rule="evenodd" d="M137.163 180.542H137.157H131.246V183.237C131.234 183.314 131.229 183.39 131.229 183.467C131.229 185.086 133.885 186.396 137.163 186.396C140.443 186.396 143.1 185.086 143.1 183.467C143.1 183.39 143.094 183.314 143.082 183.237V180.542H137.169H137.163Z" fill="#319109"/>
<path d="M137.163 183.583C140.442 183.583 143.1 182.272 143.1 180.654C143.1 179.037 140.442 177.725 137.163 177.725C133.884 177.725 131.226 179.037 131.226 180.654C131.226 182.272 133.884 183.583 137.163 183.583Z" fill="#4AC82D"/>
<path d="M137.162 182.246C139.252 182.246 140.946 181.533 140.946 180.654C140.946 179.775 139.252 179.063 137.162 179.063C135.073 179.063 133.379 179.775 133.379 180.654C133.379 181.533 135.073 182.246 137.162 182.246Z" fill="#319109"/>
<path fill-rule="evenodd" clip-rule="evenodd" d="M115.804 169.582H115.798H110.846V171.842C110.835 171.904 110.829 171.969 110.829 172.034C110.829 173.389 113.056 174.489 115.804 174.489C118.553 174.489 120.78 173.389 120.78 172.034C120.78 171.969 120.774 171.904 120.765 171.842V169.582H115.81H115.804Z" fill="#319109"/>
<path d="M115.804 172.129C118.552 172.129 120.78 171.031 120.78 169.676C120.78 168.322 118.552 167.224 115.804 167.224C113.056 167.224 110.829 168.322 110.829 169.676C110.829 171.031 113.056 172.129 115.804 172.129Z" fill="#4AC82D"/>
<path d="M115.804 171.01C117.556 171.01 118.976 170.413 118.976 169.676C118.976 168.939 117.556 168.342 115.804 168.342C114.053 168.342 112.633 168.939 112.633 169.676C112.633 170.413 114.053 171.01 115.804 171.01Z" fill="#319109"/>
<path fill-rule="evenodd" clip-rule="evenodd" d="M156.831 193.466H156.825H151.447V195.919C151.436 195.99 151.43 196.058 151.43 196.129C151.43 197.602 153.849 198.794 156.831 198.794C159.816 198.794 162.233 197.602 162.233 196.129C162.233 196.058 162.227 195.99 162.215 195.919V193.466H156.837H156.831Z" fill="#319109"/>
<path d="M156.831 196.232C159.815 196.232 162.233 195.04 162.233 193.57C162.233 192.099 159.815 190.907 156.831 190.907C153.848 190.907 151.43 192.099 151.43 193.57C151.43 195.04 153.848 196.232 156.831 196.232Z" fill="#4AC82D"/>
<path d="M156.831 195.019C158.733 195.019 160.275 194.37 160.275 193.57C160.275 192.769 158.733 192.12 156.831 192.12C154.93 192.12 153.388 192.769 153.388 193.57C153.388 194.37 154.93 195.019 156.831 195.019Z" fill="#319109"/>
<path fill-rule="evenodd" clip-rule="evenodd" d="M104.889 190.156L104.886 190.153L100.466 187.911L99.4455 189.925C99.407 189.978 99.3715 190.035 99.342 190.094C99.2355 190.307 99.1911 190.543 99.2089 190.795C103.108 193.058 106.737 192.446 108.421 191.949L104.895 190.159L104.889 190.156Z" fill="#319109"/>
<path fill-rule="evenodd" clip-rule="evenodd" d="M105.956 188.053C103.504 186.81 101.022 186.781 100.41 187.99C99.8179 189.159 101.188 191.052 103.489 192.301C106.761 192.768 109.207 191.682 109.394 191.597C109.193 190.443 107.867 189.023 105.956 188.053Z" fill="#4AC82D"/>
<path fill-rule="evenodd" clip-rule="evenodd" d="M105.451 189.053C103.889 188.26 102.35 188.15 102.019 188.807C101.685 189.464 102.682 190.638 104.244 191.431C105.806 192.224 107.341 192.333 107.675 191.676C108.01 191.02 107.013 189.842 105.451 189.053Z" fill="#319109"/>
<path fill-rule="evenodd" clip-rule="evenodd" d="M136.932 204.16L136.935 204.157L142.505 201.335L143.792 203.873C143.839 203.938 143.883 204.009 143.919 204.083C144.055 204.349 144.108 204.648 144.087 204.965C139.177 207.816 134.603 207.047 132.482 206.417L136.926 204.163L136.932 204.16Z" fill="#319109"/>
<path fill-rule="evenodd" clip-rule="evenodd" d="M135.586 201.512C138.674 199.945 141.804 199.909 142.576 201.433C143.321 202.903 141.597 205.29 138.695 206.861C134.574 207.453 131.492 206.086 131.255 205.976C131.506 204.524 133.178 202.731 135.586 201.512Z" fill="#4AC82D"/>
<path fill-rule="evenodd" clip-rule="evenodd" d="M136.225 202.77C138.192 201.77 140.129 201.634 140.549 202.462C140.97 203.287 139.712 204.769 137.745 205.766C135.778 206.766 133.84 206.905 133.42 206.077C133 205.249 134.257 203.767 136.225 202.77Z" fill="#319109"/>
<path fill-rule="evenodd" clip-rule="evenodd" d="M168.022 158.216C166.673 158.213 165.037 157.654 163.295 155.705C158.748 150.611 161.171 145.774 165.682 149.516C169.762 152.9 169.111 158.015 165.369 155.474C162.499 153.527 162.227 149.744 164.505 150.832C164.972 151.054 165.585 151.596 165.744 152.167C166.088 153.4 164.277 151.06 164.123 152.377C163.919 154.092 167.661 156.468 167.516 153.728C167.345 150.492 161.914 147.203 161.84 150.892C161.763 154.87 168.339 159.745 169.419 155.989C170.566 151.983 163.387 144.807 160.559 147.676C159.1 149.155 159.671 152.664 162.124 155.394C164.319 157.84 165.75 158.411 168.022 158.216Z" fill="#76AD32"/>
<path fill-rule="evenodd" clip-rule="evenodd" d="M176.524 177.069C175.353 176.604 174.102 175.519 173.193 173.087C170.818 166.745 174.424 163.032 177.184 168.097C179.684 172.676 177.533 177.255 175.066 173.584C173.176 170.771 174.113 167.126 175.755 168.928C176.092 169.298 176.456 170.016 176.418 170.605C176.332 171.883 175.486 169.067 174.945 170.247C174.238 171.788 176.752 175.303 177.474 172.682C178.329 169.585 174.625 164.63 173.421 168.07C172.12 171.779 176.326 178.613 178.427 175.457C180.666 172.093 176.649 162.884 173.3 164.609C171.575 165.496 170.987 168.987 172.27 172.395C173.421 175.445 174.489 176.474 176.524 177.069Z" fill="#76AD32"/>
<path fill-rule="evenodd" clip-rule="evenodd" d="M159.832 160.754C159.403 160.473 157.779 162.931 155.894 165.845C154.007 168.759 152.569 171.022 152.998 171.303C153.43 171.581 155.569 169.771 157.453 166.857C159.341 163.943 160.263 161.032 159.832 160.754Z" fill="#B2D74D"/>
<path fill-rule="evenodd" clip-rule="evenodd" d="M170.493 174.684C170.141 174.149 168.286 175.022 166.227 176.371C164.171 177.723 162.689 179.042 163.041 179.577C163.393 180.113 165.443 179.66 167.502 178.308C169.558 176.959 170.842 175.22 170.493 174.684Z" fill="#B2D74D"/>
<path d="M117.76 204.962L120.597 205.373C120.821 205.32 123.153 205.343 124.457 205.29C125.776 205.237 126.628 204.4 126.62 202.997L126.436 195.327C126.368 193.892 125.596 193.715 124.7 193.227L119.893 190.715C119.372 190.431 118.792 190.351 118.212 190.487L111.062 191.91C109.32 192.318 108.24 193.082 108.255 195.096L108.462 200.53C108.468 201.462 109.258 202.376 110.051 202.808C111.796 203.764 113.884 204.231 115.902 204.997C116.511 205.228 117.118 205.118 117.76 204.962Z" fill="#541138"/>
<path fill-rule="evenodd" clip-rule="evenodd" d="M120.105 194.848L121.901 198.297L121.413 201.77C121.413 201.77 116.919 204.237 116.271 203.988C115.626 203.743 111.831 202.687 111.683 202.143C111.538 201.601 113.328 194.351 113.328 194.351L120.105 194.848Z" fill="#B1314A"/>
<path fill-rule="evenodd" clip-rule="evenodd" d="M123.987 195.49L116.81 197.152C116.414 197.244 116.142 197.599 116.145 198.013L116.168 205.284C120.972 206.172 122.919 205.166 124.413 204.542C124.788 204.385 125.084 204.095 125.078 203.678L125.013 196.324C125.013 196.052 124.901 195.821 124.697 195.652C124.49 195.487 124.244 195.43 123.987 195.49Z" fill="#E95B5B"/>
<path fill-rule="evenodd" clip-rule="evenodd" d="M111.109 194.578L115.697 197.069C115.978 197.22 116.144 197.498 116.144 197.824L116.192 205.281C114.428 205.095 110.84 204.059 109.852 202.648L109.861 195.362C109.861 195.046 110.006 194.774 110.269 194.608C110.532 194.442 110.837 194.431 111.109 194.578Z" fill="#B1314A"/>
<path fill-rule="evenodd" clip-rule="evenodd" d="M111.826 194.996L115.846 197.238C116.035 197.341 116.23 197.371 116.443 197.318L122.795 195.788C123.147 195.703 123.398 195.419 123.445 195.052C123.496 194.685 123.324 194.345 123.008 194.173L118.987 191.99C118.801 191.889 118.609 191.863 118.405 191.91L112.053 193.383C111.701 193.463 111.447 193.747 111.394 194.111C111.343 194.478 111.509 194.818 111.826 194.996Z" fill="#F39582"/>
<path d="M100.851 198.498C102.978 198.498 104.702 197.767 104.702 196.865C104.702 195.963 102.978 195.232 100.851 195.232C98.7234 195.232 96.999 195.963 96.999 196.865C96.999 197.767 98.7234 198.498 100.851 198.498Z" fill="#EB8350"/>
<path d="M150.625 204.08C152.473 204.08 153.971 203.482 153.971 202.743C153.971 202.005 152.473 201.406 150.625 201.406C148.778 201.406 147.28 202.005 147.28 202.743C147.28 203.482 148.778 204.08 150.625 204.08Z" fill="white"/>
<path d="M103.232 201.143C104.712 201.143 105.912 200.662 105.912 200.069C105.912 199.476 104.712 198.995 103.232 198.995C101.752 198.995 100.552 199.476 100.552 200.069C100.552 200.662 101.752 201.143 103.232 201.143Z" fill="white"/>
<path d="M156.255 201.504C157.68 201.504 158.834 201.086 158.834 200.572C158.834 200.057 157.68 199.64 156.255 199.64C154.83 199.64 153.675 200.057 153.675 200.572C153.675 201.086 154.83 201.504 156.255 201.504Z" fill="white"/>
<path d="M121.07 190.041C122.484 190.041 123.631 189.654 123.631 189.177C123.631 188.7 122.484 188.313 121.07 188.313C119.655 188.313 118.508 188.7 118.508 189.177C118.508 189.654 119.655 190.041 121.07 190.041Z" fill="#FAD862"/>
<path fill-rule="evenodd" clip-rule="evenodd" d="M115.541 199.738C115.541 199.738 121.416 201.891 120.895 202.187C120.372 202.48 114.822 202.545 114.822 202.545L115.541 199.738Z" fill="#B1314A"/>
<path fill-rule="evenodd" clip-rule="evenodd" d="M141.112 193.762C141.112 193.762 135.896 192.676 135.953 192.082C136.012 191.487 141.088 189.828 141.088 189.828L141.112 193.762Z" fill="#E95B5B"/>
<path fill-rule="evenodd" clip-rule="evenodd" d="M125.036 199.013C123.969 199.057 119.265 199.279 119.295 199.655C119.324 200.045 124.282 201.986 125.066 202.293L125.036 199.013Z" fill="#F39582"/>
<path fill-rule="evenodd" clip-rule="evenodd" d="M146.096 188.002C143.499 188.952 140.541 190.123 140.875 190.413C141.292 190.774 144.381 190.265 146.132 189.94C146.984 189.783 154.19 185.038 146.096 188.002Z" fill="#F39582"/>
<path d="M98.2204 182.683C98.2204 182.683 92.2182 192.049 96.3242 200.406C94.8481 198.965 93.6056 197.421 92.6235 195.794C92.591 192.573 94.3126 185.727 98.2204 182.683Z" fill="#541138"/>
<path d="M161.529 201.146C161.529 201.146 142.073 216.75 111.059 208.784C111.059 208.784 122.256 214.889 138.449 212.668C154.642 210.449 161.529 201.146 161.529 201.146Z" fill="#541138"/>
</svg>
