<svg width="304" height="228" viewBox="0 0 304 228" fill="none" xmlns="http://www.w3.org/2000/svg">
<path fill-rule="evenodd" clip-rule="evenodd" d="M49.7187 69.3451C49.5284 69.9029 49.462 70.5022 49.5273 71.1284L59.9206 169.966C60.0928 171.603 61.1915 172.781 62.7337 173.476L165.398 219.852C166.973 220.412 168.631 220.096 169.889 219.003L248.442 150.738C249.551 149.775 250.002 148.465 249.869 147.057C250.081 146.389 250.119 145.65 250.021 144.915L245.038 107.751C244.825 106.153 243.697 104.805 242.07 104.467L157.832 86.9545C156.533 86.684 155.301 86.7244 154.165 87.409L139.118 96.4954C137.658 97.3776 136.886 98.8782 137.046 100.526L137.064 100.71C136.879 101.255 136.811 101.846 136.87 102.456L138.359 117.717C138.527 119.448 139.714 120.755 141.411 121.334L197.636 140.548C199.242 141.096 200.386 142.271 200.654 143.895L200.655 143.898C200.358 144.72 199.791 145.458 199.051 146.097L164.098 176.32C162.992 177.278 161.455 177.44 160.086 176.916L99.4621 153.73C97.9098 153.136 96.864 151.966 96.5657 150.38L95.5189 144.837L90.7618 84.4943C90.6346 82.8658 91.2672 81.4719 92.5617 80.3956L142.029 39.299C143.203 38.3226 144.759 38.2889 146.207 38.7738L276.779 82.5785C278.084 82.9433 280.449 84.5224 281.229 87.2732L303.872 167.14C303.927 167.334 303.97 167.529 304 167.724C303.8 168.499 303.388 169.198 302.685 169.747L235 223.05L69.3684 227.55L20.5469 208.745C19.0914 208.183 18.0468 207.034 17.8745 205.527L0.0258848 49.4629C0.0202565 49.4034 0.0078797 49.3462 0 49.2878C0.258904 48.5235 0.772198 47.877 1.47799 47.3574L64.9726 0.55043H128.584L51.2102 65.5403C50.0868 66.4842 49.5543 67.7771 49.7029 69.198L49.7187 69.3451ZM279.517 0.55043L287.463 43.2609C287.499 43.4584 287.526 43.6514 287.544 43.84C286.988 45.5459 285.327 46.3619 283.027 45.5942L148.021 0.55043H279.517Z" fill="#FE7454"/>
</svg>
