<svg width="191" height="86" viewBox="0 0 191 86" fill="none" xmlns="http://www.w3.org/2000/svg">
<path d="M100.823 41.0108C100.073 41.0108 99.4848 40.8072 99.0732 40.3999C98.6616 39.9782 98.4704 39.3964 98.4704 38.6401V25.0849C98.4704 24.2995 98.6616 23.7178 99.0732 23.3105C99.4848 22.9033 100.073 22.6997 100.823 22.6997C101.587 22.6997 102.175 22.9033 102.572 23.3105C102.969 23.7178 103.175 24.2995 103.175 25.0849V29.8263H110.628V25.0849C110.628 24.2995 110.819 23.7178 111.231 23.3105C111.628 22.9033 112.216 22.6997 112.981 22.6997C113.73 22.6997 114.304 22.9033 114.715 23.3105C115.112 23.7178 115.303 24.2995 115.303 25.0849V38.6401C115.303 39.3964 115.112 39.9782 114.715 40.3999C114.304 40.8072 113.73 41.0108 112.981 41.0108C112.216 41.0108 111.628 40.8072 111.231 40.3999C110.819 39.9782 110.628 39.3964 110.628 38.6401V33.6514H103.175V38.6401C103.175 39.3964 102.984 39.9782 102.587 40.3999C102.19 40.8072 101.602 41.0108 100.823 41.0108ZM125.197 41.0108C124.448 41.0108 123.859 40.8072 123.448 40.3999C123.036 39.9782 122.845 39.3818 122.845 38.611V32.837L117.92 25.8412C117.626 25.434 117.509 24.9831 117.553 24.4886C117.597 23.9941 117.803 23.5723 118.17 23.2233C118.538 22.8742 119.052 22.6997 119.743 22.6997C120.214 22.6997 120.655 22.816 121.052 23.0487C121.434 23.2669 121.801 23.6741 122.139 24.2123L125.256 28.7501L128.387 24.1686C128.755 23.6305 129.123 23.2524 129.49 23.0342C129.872 22.816 130.313 22.6997 130.828 22.6997C131.475 22.6997 131.975 22.8597 132.342 23.1796C132.695 23.4996 132.886 23.9069 132.915 24.4014C132.945 24.8959 132.783 25.3904 132.445 25.8994L127.549 32.8806V38.611C127.549 40.2109 126.77 41.0108 125.197 41.0108ZM138.767 41.0108C138.017 41.0108 137.429 40.8072 137.017 40.3999C136.605 39.9782 136.414 39.3964 136.414 38.6546V25.2885C136.414 24.5323 136.62 23.9505 137.032 23.5432C137.458 23.136 138.031 22.9324 138.781 22.9324H145.088C147.132 22.9324 148.719 23.456 149.837 24.4886C150.954 25.5213 151.512 26.9611 151.512 28.7791C151.512 30.6117 150.954 32.037 149.837 33.0697C148.719 34.1169 147.132 34.6259 145.088 34.6259H141.119V38.6546C141.119 39.3964 140.928 39.9782 140.531 40.3999C140.134 40.8072 139.546 41.0108 138.767 41.0108ZM141.119 31.0626H144.265C145.162 31.0626 145.838 30.8735 146.323 30.4954C146.793 30.1172 147.029 29.5354 147.029 28.7791C147.029 28.0083 146.793 27.4265 146.323 27.0629C145.838 26.6848 145.162 26.4957 144.265 26.4957H141.119V31.0626ZM155.923 41.0108C155.202 41.0108 154.659 40.8363 154.276 40.4581C153.909 40.08 153.718 39.5418 153.718 38.8146V25.0122C153.718 24.2705 153.909 23.6887 154.276 23.296C154.659 22.9033 155.144 22.6997 155.761 22.6997C156.305 22.6997 156.731 22.8015 157.04 23.0051C157.349 23.2087 157.687 23.5432 158.069 24.0087L165.464 33.1569V24.8813C165.464 24.1686 165.655 23.6305 166.023 23.2669C166.39 22.8888 166.919 22.6997 167.64 22.6997C168.36 22.6997 168.904 22.8888 169.272 23.2669C169.639 23.6305 169.816 24.1686 169.816 24.8813V38.9164C169.816 39.5564 169.654 40.0654 169.301 40.4436C168.963 40.8217 168.507 41.0108 167.919 41.0108C167.346 41.0108 166.89 40.909 166.552 40.7054C166.228 40.4872 165.861 40.1527 165.493 39.7018L158.099 30.5244V38.8146C158.099 39.5418 157.908 40.08 157.54 40.4581C157.172 40.8363 156.629 41.0108 155.923 41.0108ZM181.826 41.069C180.003 41.069 178.401 40.6763 177.019 39.92C175.637 39.1491 174.564 38.0729 173.8 36.6912C173.035 35.2949 172.668 33.6805 172.668 31.848C172.668 30.4663 172.873 29.2009 173.314 28.0665C173.755 26.9466 174.373 25.9721 175.181 25.1577C175.99 24.3432 176.96 23.7323 178.092 23.296C179.21 22.8742 180.459 22.6561 181.826 22.6561C183.649 22.6561 185.252 23.0342 186.634 23.7905C188.001 24.5468 189.074 25.6231 189.839 26.9902C190.603 28.3719 191 29.9863 191 31.848C191 33.2297 190.779 34.495 190.338 35.6149C189.912 36.7494 189.28 37.7238 188.471 38.5528C187.663 39.3673 186.693 39.9927 185.561 40.4145C184.443 40.8508 183.194 41.069 181.826 41.069ZM181.826 37.1711C182.738 37.1711 183.502 36.953 184.135 36.5312C184.767 36.1094 185.252 35.4986 185.59 34.7132C185.928 33.9132 186.104 32.9679 186.104 31.848C186.104 30.1754 185.722 28.881 184.972 27.9501C184.223 27.0193 183.179 26.5539 181.826 26.5539C180.944 26.5539 180.18 26.7575 179.533 27.1793C178.901 27.5865 178.401 28.1828 178.063 28.9682C177.725 29.7536 177.548 30.7135 177.548 31.848C177.548 33.5205 177.931 34.8295 178.68 35.7603C179.43 36.6912 180.474 37.1711 181.826 37.1711ZM107.688 63.6561C105.615 63.6561 103.866 63.2779 102.425 62.5216C100.984 61.7653 99.8818 60.689 99.132 59.3219C98.3822 57.9547 98 56.3694 98 54.5369C98 53.1261 98.2352 51.8462 98.6763 50.6972C99.132 49.5628 99.7936 48.5883 100.646 47.7593C101.499 46.9448 102.543 46.3194 103.778 45.8831C105.012 45.4613 106.424 45.2431 107.982 45.2431C108.835 45.2431 109.717 45.3304 110.599 45.4904C111.481 45.6504 112.363 45.9413 113.216 46.3776C113.657 46.5812 113.951 46.8721 114.127 47.2357C114.289 47.5993 114.333 47.9774 114.274 48.3701C114.215 48.7628 114.068 49.1264 113.833 49.461C113.613 49.7955 113.289 50.0136 112.907 50.1154C112.51 50.2318 112.069 50.1736 111.569 49.9555C111.055 49.7227 110.511 49.5337 109.908 49.4173C109.305 49.2864 108.673 49.2137 108.012 49.2137C106.865 49.2137 105.924 49.4173 105.16 49.8246C104.395 50.2318 103.836 50.8281 103.454 51.628C103.087 52.4134 102.896 53.3879 102.896 54.5369C102.896 56.2676 103.322 57.5621 104.175 58.4347C105.027 59.3219 106.292 59.7582 107.967 59.7582C108.467 59.7582 109.041 59.7 109.643 59.5982C109.952 59.5546 110.276 59.4819 110.599 59.4092V56.5876H108.805C108.232 56.5876 107.776 56.4422 107.468 56.1658C107.144 55.8749 106.982 55.4677 106.982 54.9441C106.982 54.4205 107.144 54.0133 107.468 53.7369C107.776 53.4606 108.232 53.3297 108.805 53.3297H112.598C113.201 53.3297 113.657 53.4751 113.966 53.7951C114.289 54.1005 114.436 54.5514 114.436 55.1477V60.7472C114.436 61.2563 114.333 61.6781 114.127 62.0417C113.907 62.3907 113.569 62.638 113.113 62.798C112.304 63.0597 111.437 63.2779 110.496 63.4234C109.555 63.5833 108.614 63.6561 107.688 63.6561ZM118.435 63.6124C117.905 63.6124 117.464 63.4815 117.097 63.2343C116.744 63.0016 116.524 62.6525 116.435 62.2307C116.347 61.7944 116.435 61.3144 116.671 60.7763L123.036 47.1921C123.345 46.5376 123.727 46.0576 124.183 45.7522C124.639 45.4468 125.153 45.3013 125.727 45.3013C126.315 45.3013 126.814 45.4468 127.255 45.7522C127.696 46.0576 128.064 46.5376 128.387 47.1921L134.768 60.7763C135.047 61.3144 135.135 61.7944 135.062 62.2453C134.988 62.6816 134.768 63.0161 134.43 63.2488C134.077 63.4961 133.636 63.6124 133.136 63.6124C132.445 63.6124 131.916 63.4524 131.563 63.147C131.195 62.8416 130.857 62.3616 130.563 61.6781L129.74 59.7582H121.698L120.86 61.6781C120.566 62.3616 120.243 62.8416 119.92 63.147C119.596 63.4524 119.096 63.6124 118.435 63.6124ZM125.682 50.3918L123.227 56.1804L128.211 56.1949L125.727 50.3918H125.682ZM139.296 63.6124C138.62 63.6124 138.09 63.4234 137.723 63.0452C137.355 62.6816 137.179 62.158 137.179 61.4744V47.4248C137.179 46.7267 137.37 46.2031 137.767 45.8395C138.164 45.4758 138.708 45.3013 139.428 45.3013C140.031 45.3013 140.501 45.4031 140.854 45.6358C141.192 45.8685 141.516 46.2467 141.81 46.7703L146.867 55.744L151.895 46.7703C152.203 46.2467 152.527 45.8685 152.88 45.6358C153.233 45.4031 153.703 45.3013 154.306 45.3013C154.982 45.3013 155.511 45.4758 155.879 45.8395C156.246 46.2031 156.423 46.7267 156.423 47.4248V61.4744C156.423 62.158 156.246 62.6816 155.893 63.0452C155.526 63.4234 154.997 63.6124 154.306 63.6124C153.615 63.6124 153.1 63.4234 152.733 63.0452C152.365 62.6816 152.174 62.158 152.174 61.4744V53.6933L148.602 59.86C148.352 60.2236 148.102 60.5145 147.837 60.689C147.573 60.8781 147.22 60.9799 146.779 60.9799C146.352 60.9799 146 60.8781 145.72 60.689C145.456 60.5145 145.206 60.2236 144.985 59.86L141.427 53.7515V61.4744C141.427 62.158 141.251 62.6816 140.883 63.0452C140.531 63.4234 140.001 63.6124 139.296 63.6124ZM162.215 63.3797C161.406 63.3797 160.804 63.1761 160.377 62.7543C159.966 62.3471 159.76 61.7508 159.76 60.9799V47.9338C159.76 47.1484 159.966 46.5521 160.377 46.1449C160.804 45.7231 161.406 45.5195 162.215 45.5195H170.889C171.506 45.5195 171.977 45.6795 172.271 45.9849C172.579 46.2758 172.741 46.7267 172.741 47.2939C172.741 47.8902 172.579 48.3411 172.271 48.6465C171.977 48.9664 171.506 49.1119 170.889 49.1119H164.258V52.5152H170.33C170.933 52.5152 171.389 52.6607 171.697 52.9661C172.021 53.2715 172.168 53.7224 172.168 54.3042C172.168 54.9005 172.021 55.3513 171.697 55.6568C171.389 55.9622 170.933 56.1076 170.33 56.1076H164.258V59.7873H170.889C171.506 59.7873 171.977 59.9328 172.271 60.2527C172.579 60.5582 172.741 61.009 172.741 61.5762C172.741 62.1726 172.579 62.6234 172.271 62.9289C171.977 63.2343 171.506 63.3797 170.889 63.3797H162.215ZM181.929 63.6561C181.253 63.6561 180.533 63.6124 179.798 63.5252C179.048 63.4234 178.342 63.2925 177.681 63.1034C177.019 62.9143 176.416 62.6961 175.887 62.4489C175.431 62.2162 175.108 61.9253 174.917 61.5617C174.726 61.1981 174.652 60.82 174.711 60.4127C174.755 60.0055 174.902 59.6564 175.137 59.3364C175.387 59.031 175.696 58.8128 176.093 58.711C176.49 58.5947 176.931 58.6529 177.416 58.871C178.078 59.1765 178.813 59.4092 179.621 59.5837C180.445 59.7437 181.209 59.8309 181.929 59.8309C183.061 59.8309 183.84 59.6855 184.296 59.3946C184.752 59.0892 184.972 58.7256 184.972 58.2893C184.972 57.8966 184.825 57.5911 184.502 57.3439C184.193 57.1112 183.635 56.9076 182.826 56.7476L179.827 56.1076C178.195 55.7731 176.975 55.1768 176.166 54.3332C175.373 53.4897 174.961 52.3989 174.961 51.0754C174.961 50.1882 175.152 49.3882 175.52 48.6756C175.887 47.9629 176.402 47.352 177.078 46.843C177.754 46.334 178.548 45.9413 179.489 45.6649C180.415 45.3886 181.459 45.2431 182.591 45.2431C183.488 45.2431 184.384 45.345 185.296 45.534C186.207 45.7231 187.001 46.014 187.663 46.4067C188.06 46.6103 188.339 46.8866 188.515 47.2502C188.677 47.5993 188.751 47.9629 188.721 48.3411C188.677 48.7192 188.545 49.0537 188.324 49.3446C188.089 49.6355 187.78 49.8246 187.398 49.9118C187.016 50.0136 186.56 49.9409 186.031 49.7227C185.531 49.5046 184.972 49.3446 184.355 49.2282C183.723 49.1264 183.12 49.0683 182.547 49.0683C181.915 49.0683 181.371 49.141 180.93 49.2864C180.489 49.4319 180.15 49.6355 179.915 49.8973C179.695 50.1736 179.577 50.4936 179.577 50.8426C179.577 51.1917 179.724 51.4971 180.018 51.7444C180.327 51.9916 180.871 52.1953 181.679 52.3552L184.649 52.9952C186.296 53.3442 187.531 53.926 188.354 54.7405C189.177 55.555 189.589 56.6021 189.589 57.9111C189.589 58.7838 189.412 59.5837 189.045 60.2818C188.692 60.9945 188.177 61.6053 187.516 62.0998C186.84 62.5943 186.046 62.987 185.105 63.2488C184.164 63.5252 183.105 63.6561 181.929 63.6561Z" fill="#3A012D"/>
<path fill-rule="evenodd" clip-rule="evenodd" d="M77.0267 58.8243C77.0267 62.7198 74.9683 66.2571 71.6122 68.1974L43.913 84.1973C40.5569 86.1376 36.4699 86.1376 33.0988 84.1973L5.41454 68.1974C2.04351 66.2571 0 62.7198 0 58.8243V26.8394C0 22.9439 2.04351 19.4066 5.41454 17.4514L33.0988 1.46641C36.4699 -0.488803 40.5569 -0.488803 43.913 1.46641L71.6122 17.4514C74.9683 19.4066 77.0267 22.9439 77.0267 26.8394V58.8243Z" fill="url(#paint0_linear_76_1043)"/>
<path d="M39.4828 9.15294L67.1671 25.1529C67.7936 25.5111 68.1516 26.123 68.1516 26.8394V32.123C68.1516 32.8394 67.7936 33.4513 67.1671 33.8095C66.5555 34.1677 65.8396 34.1677 65.228 33.8095L39.4828 18.9439C38.8713 18.5857 38.1553 18.5857 37.5288 18.9439L18.3169 30.0334C17.6904 30.3916 17.3473 31.0185 17.3473 31.7349V53.9288C17.3473 54.6452 17.6904 55.2572 18.3169 55.6154L37.5288 66.7198C38.1553 67.078 38.8713 67.078 39.4828 66.7198L58.7097 55.6154C59.3212 55.2572 59.6792 54.6452 59.6792 53.9288V51.302C59.6792 50.5856 59.3212 49.9736 58.7097 49.6154L39.4828 38.511C38.8713 38.1528 38.1553 38.1528 37.5288 38.511L35.2616 39.8244C34.6351 40.1826 34.2771 40.7946 34.2771 41.511V44.1528C34.2771 44.8692 34.6351 45.4811 35.2616 45.8393L44.0621 50.9139C44.6736 51.2721 45.0316 51.899 45.0316 52.6005C45.0316 53.3169 44.6736 53.9437 44.0621 54.287L39.4828 56.9437C38.8713 57.3019 38.1553 57.3019 37.5288 56.9437L26.7892 50.7348C26.1628 50.3766 25.8197 49.7497 25.8197 49.0333V36.6155C25.8197 35.8991 26.1628 35.2871 26.7892 34.9289L37.5288 28.72C38.1553 28.3618 38.8713 28.3618 39.4828 28.72L67.1671 44.7199C67.7936 45.0781 68.1516 45.6901 68.1516 46.4065V58.8243C68.1516 59.5407 67.7936 60.1527 67.1671 60.5109L39.4828 76.5108C38.8713 76.869 38.1553 76.869 37.5288 76.5108L9.84455 60.5109C9.23299 60.1527 8.875 59.5407 8.875 58.8243V26.8394C8.875 26.123 9.23299 25.5111 9.84455 25.1529L37.5288 9.15294C38.1553 8.79474 38.8713 8.79474 39.4828 9.15294Z" fill="white"/>
<defs>
<linearGradient id="paint0_linear_76_1043" x1="38.5134" y1="0" x2="38.5134" y2="85.6525" gradientUnits="userSpaceOnUse">
<stop stop-color="#FE6A4C"/>
<stop offset="1" stop-color="#DC0158"/>
</linearGradient>
</defs>
</svg>
