<svg width="65" height="75" viewBox="0 0 65 75" fill="none" xmlns="http://www.w3.org/2000/svg">
<g clip-path="url(#clip0_21_1800)">
<path fill-rule="evenodd" clip-rule="evenodd" d="M19.341 70.8736C19.1376 66.6775 19.2054 62.4589 19.2054 58.2628C19.228 52.826 21.668 49.9609 26.9774 48.2915C29.3497 47.547 32.1286 47.2086 34.8172 47.4117C39.268 47.7501 39.1776 48.4043 42.0921 49.239V41.5462C42.1147 36.741 44.6225 34.2369 48.3503 32.6352C49.3444 32.2065 51.7393 31.7328 52.3267 31.4169C51.9426 30.5371 50.7 28.8903 50.09 28.1458C47.8307 25.3484 44.5321 21.7614 41.4821 19.9792C37.8672 22.4382 33.1227 23.3632 27.8585 23.3406C27.7907 26.9276 28.1522 29.9957 29.0559 33.1991C29.44 34.643 29.9371 35.9063 30.5245 37.2599C31.2023 38.8165 31.8123 39.967 30.6826 41.5462C29.9597 42.5614 28.0167 43.0802 26.6837 42.1102C24.8085 40.734 22.8881 33.7857 22.4814 31.1011C22.4588 30.9206 22.4362 30.5822 22.391 30.4243L22.1425 29.8829C21.7358 30.6273 20.9677 31.3267 20.4028 32.184C19.8606 33.0187 19.2958 34.0564 18.5276 34.485C16.2231 35.7484 13.5798 33.8985 14.0994 31.2816C14.4383 29.4994 18.1209 25.5063 19.4765 24.1076C20.1317 23.4309 21.0128 22.7766 21.5551 22.0322C19.7476 21.3554 18.618 20.7237 17.1043 19.9116C15.7713 20.5432 12.2242 23.7467 11.1397 24.8747C9.49043 26.5892 7.77336 28.6421 6.32741 30.9432C3.4581 35.4777 1.40214 40.7115 0.521014 46.9605C-0.947529 57.383 0.18212 64.5344 10.5749 68.6402C12.9923 69.6103 16.4491 70.5578 19.341 70.8736ZM24.5373 67.8055V70.3547C24.5373 74.9569 34.546 76.13 39.6295 73.6259C42.7247 72.0918 42.0695 70.4224 42.0695 66.6098C38.5224 67.6701 38.1609 68.4372 33.3712 68.4597C31.6767 68.4597 30.1404 68.3244 28.5815 67.9634C26.9774 67.6025 25.9381 67.0159 24.5373 66.6098V67.8055ZM64.9336 50.3895C61.7706 51.2242 61.3865 52.2169 56.2353 52.2394C51.2874 52.262 50.7452 51.2919 47.424 50.367C47.4466 53.8863 46.7914 55.488 49.2541 57.022C52.7334 59.2329 59.692 59.2103 63.0132 57.1348C63.8265 56.616 64.798 55.8715 64.9336 54.6984C65.0466 53.7509 65.0014 51.3596 64.9336 50.3895ZM64.9336 62.1656C63.691 62.4814 62.5387 63.1357 61.025 63.4741C58.0879 64.1509 54.3601 64.196 51.4456 63.4966C49.8415 63.1131 48.757 62.5266 47.424 62.1205C47.4014 65.6398 46.814 67.2866 49.2541 68.8207C54.1341 71.8662 64.4591 70.445 64.9336 66.4745C65.0466 65.4593 64.9788 63.2485 64.9336 62.1656ZM54.2697 36.5605C52.3493 36.7861 50.3159 37.2824 49.0281 38.2299C48.4181 38.7037 47.7177 39.2 47.4918 40.1249C47.3337 40.8017 47.3563 42.9223 47.5822 43.4863C48.6666 46.2386 54.3375 47.2312 58.0879 46.8251C60.2343 46.577 64.2558 45.5843 64.8658 43.3058C65.0466 42.629 65.024 40.5084 64.798 39.8542C63.8491 37.1245 58.0653 36.1093 54.2697 36.5605ZM31.1797 52.8485C29.0108 53.1192 24.8988 54.157 24.5825 56.6385C24.447 57.5183 24.447 59.278 24.7859 59.9773C26.1189 62.6394 31.7445 63.5192 35.4949 63.0454C37.6865 62.7747 41.6854 61.737 42.0469 59.3005C42.1599 58.4884 42.1599 56.5934 41.8436 55.9392C40.5558 53.2771 35.0205 52.3522 31.1797 52.8485ZM27.6552 0.149389C24.0855 0.420103 21.1032 0.803616 17.9854 1.88647C13.6927 3.35285 14.4835 3.89428 17.0591 8.33851C17.6465 9.35369 20.8321 15.1064 21.284 15.4448C24.2436 17.6556 30.9989 17.994 35.4498 16.3246C37.5509 15.535 37.3476 15.3545 38.3643 13.5498C39.0646 12.2864 43.4025 5.36065 43.4251 4.25523C43.4703 2.22487 40.3072 1.72856 37.9802 1.16457C34.8397 0.397544 31.0441 -0.0987665 27.6552 0.149389Z" fill="#F0554D"/>
</g>
<defs>
<clipPath id="clip0_21_1800">
<rect width="65" height="75" fill="white"/>
</clipPath>
</defs>
</svg>
