<svg width="72" height="61" viewBox="0 0 72 61" fill="none" xmlns="http://www.w3.org/2000/svg">
<g clip-path="url(#clip0_21_1803)">
<path fill-rule="evenodd" clip-rule="evenodd" d="M53.7068 2.86713C53.7068 4.48196 56.9408 6.63151 57.7678 7.87204L32.8718 33.0463C32.331 32.672 24.05 24.2022 23.17 23.3145C21.7173 21.8494 21.0493 20.7265 18.7379 20.7265C17.3701 20.7265 16.543 21.7532 15.8962 22.4055L2.13343 36.2867C0.945889 37.4844 0.46875 37.7839 0.46875 39.7302C0.46875 41.9011 4.19043 45.8901 7.5092 42.5C7.68945 42.3182 7.74247 42.2327 7.94392 42.0402L12.1958 37.7945C12.4926 37.5486 12.3336 37.6876 12.5881 37.3882C12.8319 37.0994 12.8107 37.1957 13.044 36.939L15.1222 34.8215C15.2813 34.6718 15.207 34.7681 15.3555 34.6077C15.5251 34.4473 15.4191 34.5328 15.5675 34.3724C15.8008 34.1264 15.769 34.2227 15.9917 33.9981L18.5576 31.3566C18.8545 31.0037 18.7061 31.1748 19.0772 30.9716C19.5861 31.3138 27.8459 39.7623 28.6942 40.6071C30.3907 42.3182 30.7936 43.2593 33.1793 43.2593C34.8227 43.2593 36.5511 41.0456 37.4947 40.0938L63.6313 13.786C65.2748 14.8982 66.6638 17.7749 68.7102 17.7749C69.9084 17.7749 70.8414 16.5879 70.9581 15.4863C71.1701 13.3154 71.5306 4.09697 71.5306 2.1827C71.5306 0.503701 69.9614 -0.212814 68.0634 0.0545421C66.9501 0.204262 61.1608 0.268427 59.8778 0.450229C58.8493 0.589255 55.8275 0.396758 54.8096 1.01702C54.0992 1.45549 53.7068 2.42867 53.7068 2.86713ZM5.20833 48.0289L5.19773 58.9585C5.19773 60.2204 5.54763 61.0011 6.78819 61.0011H15.2495C17.2746 61.0011 16.8293 58.8194 16.8293 56.7982V39.2704C16.1401 39.4629 10.9552 45.4089 8.97242 46.7136C7.55161 47.6546 6.73517 47.676 5.20833 48.0289ZM22.6928 61.0011H31.1541C32.0978 61.0011 32.7233 60.4878 32.7233 59.5253V47.4622C31.716 47.4622 30.3588 47.1841 29.5 46.7349C29.341 46.6494 29.3197 46.6387 29.1395 46.5317C26.7856 45.2698 22.661 39.8692 21.113 39.0458V56.6806C21.113 58.7232 20.657 61.0011 22.6928 61.0011ZM37.1236 46.104C37.1236 47.0451 36.954 59.7392 37.2509 60.3059C37.4841 60.7444 37.9507 61.0011 38.5974 61.0011H46.9421C49.1793 61.0011 48.628 59.0226 48.628 55.7716V34.9499C48.0766 35.0996 43.4218 40.0403 42.9129 40.5537C42.0647 41.4092 37.8552 45.9008 37.1236 46.104ZM52.9222 30.854V58.9585C52.9222 60.199 53.2615 61.0011 54.5021 61.0011H62.8467C63.3238 61.0011 63.7268 60.9369 64.0236 60.7123C64.2781 60.5198 64.5326 60.1562 64.5326 59.7498V20.7265C64.5326 20.4057 63.8646 19.8603 63.6313 19.6999C63.08 20.0742 55.4457 27.9131 54.131 29.2285C53.7599 29.6134 52.9222 30.223 52.9222 30.854Z" fill="#F0554D"/>
</g>
<defs>
<clipPath id="clip0_21_1803">
<rect width="72" height="61" fill="white"/>
</clipPath>
</defs>
</svg>
