<svg xmlns="http://www.w3.org/2000/svg" width="1340" height="600" fill="none" viewBox="0 0 1340 600"><path fill="#f0554d" fill-rule="evenodd" d="m71.6 57.7 1222.8 15.7c11 0 20.5 9 20 20l12.4 443.1c-.3 11-9 19.8-20 20L37.6 590.4c-11 .3-19.8-9-20-20l34-492.5c-.4-11 9-20.2 20-20" clip-rule="evenodd"/><mask id="a" width="1310" height="534" x="17" y="57" maskUnits="userSpaceOnUse" style="mask-type:luminance"><path fill="#fff" d="m71.6 57.7 1222.8 15.7c11 0 20.5 9 20 20l12.4 443.1c-.3 11-9 19.8-20 20L37.6 590.4c-11 .3-19.8-9-20-20l34-492.5c-.4-11 9-20.2 20-20"/></mask><g mask="url(#a)"><path fill="#fe7454" fill-rule="evenodd" d="M583.3 203.6q-1 2.2-1 4.6l-1.4 262c0 4.3 2.5 7.7 6.3 10l254.8 151c4 2 8.4 1.6 12-1L1078.9 474a11 11 0 0 0 4.8-9.2 13 13 0 0 0 1-5.6l-2.3-98.7a10 10 0 0 0-6.8-9.5l-215-70.2c-3.3-1-6.5-1.3-9.7.2l-42 19.5a11 11 0 0 0-6.5 10v.4a11 11 0 0 0-1 4.5l-.5 40.4c-.1 4.6 2.6 8.4 6.9 10.4L949 432.7c4 2 6.7 5.3 7 9.7q-1.6 3-4.9 5.3l-100 69a10 10 0 0 1-10.7.5L689 439q-6-3.1-6.6-9.6l-1.2-14.9 5-159.4q.3-6.5 6-10.2l141-93.5c3.4-2.2 7.4-1.8 11-.1l328.5 152.3c3.3 1.4 9 6.2 10.3 13.6l36 215.8.2 1.6q-1 3-4 4.9l-209.6 130.1-416.6-45.9-122-63.3c-3.7-1.9-6.1-5.2-6.1-9.2l-1.6-414v-.5q1.5-3 4.4-4.6L643 27.7l166.2 18.4-221 148c-3.1 2-4.9 5.3-4.9 9zm620.1-114 8.4 114.1v1.5c-1.8 4.4-6.4 6-12.2 3.3L859.9 51.7z" clip-rule="evenodd"/></g><path fill="#541138" d="M633 412.8c-30 40.8-54 87.6-64 122.4-2.1 7.7 3.9 27.4 16.4 40.5l64.3-1.7a95 95 0 0 0 13.2-25.7c5-13.5 11.4-32.9 22.1-54.8 20.1-41 33.2-60.7 35-74.6 3.2-23.7-26.7-34.9-52.3-29.5a56 56 0 0 0-34.7 23.4"/><path fill="#ffcfa5" fill-rule="evenodd" d="M665.9 400.1c-9.6 2.3-18.7 9-29.8 24a437 437 0 0 0-57.5 107.7c-2.7 8 5.3 32.6 20 43.6l31.8-.9q7.4-5.2 15.3-16c9.2-12.5 15.5-38.1 26-64 15-37 29.8-56.3 31.5-68.5 3-23-22.3-29.5-37.3-25.9" clip-rule="evenodd"/><path fill="#ffe4b6" fill-rule="evenodd" d="M626.4 444.1s15.3 46-33.5 64c0 0 6.4-19 13-32.5a120 120 0 0 1 20.5-31.5" clip-rule="evenodd"/><path fill="#fff" fill-rule="evenodd" d="M650.5 408.2q-6.7 5.5-14.4 16a436 436 0 0 0-57.5 107.6c-1.6 4.5.5 15.6 5.4 24.5-4.9-28.5 35.7-103.8 51.2-125.4q10.1-13.4 15.3-22.7" clip-rule="evenodd"/><path fill="#d77d75" fill-rule="evenodd" d="M665.9 400.1c-9.6 2.3-18.7 9-29.8 24l-8.9 12.7c23 45.7 4 111.2-13.5 138.2l21-.6q3.3-2.1 6.4-4.8c11.4-10 27.3-59.9 33.3-73.8 10.9-25 24.1-50.5 30.7-63.6 14.1-28-16.6-37.6-39.2-32.1" clip-rule="evenodd"/><path fill="#541138" d="M695.3 472.8s-10.6-6.3-15.6-26.5c0 0-9.9 9.8-23.5 7.6 0 0 .8-11.8-2.4-20.2 0 0-8.3 4.8-19 4.5 0 0-2.6-9.2-2.2-17.2 0 0-15.3 0-21.5-6.9 0 0 15.7-25.2 41.5-36.6 28.8-12.7 66.8.1 70 33.4 2.3 25-16.6 51.5-27.3 62"/><path fill="#9c6" fill-rule="evenodd" d="M711 419.5s.4 26-16.5 39.3c0 0-11.4-7.7-14.3-24.2 0 0-4 9.5-18.6 10.6 0 0 .5-11.2-5-21 0 0-7.5 7.8-16 8 0 0-2.6-9.3-1-19.7l-3.8 2.6s-11.2.3-14.6-2.2c0 0 31.4-41 68.6-33a40 40 0 0 1 21.2 39.6" clip-rule="evenodd"/><path fill="#bfe975" fill-rule="evenodd" d="M641 432.2h-.3s-2.5-8.7-1.2-18.7c1 2.2 4.6 11 1.6 18.7m-5-17c-2.6 0-12-.2-14.8-2.3 0 0 17.8-23.3 42.5-31.3l-2.2 2.8c-7.2 2.6-38.3 22.8-25.4 30.7" clip-rule="evenodd"/><path fill="#71a35d" fill-rule="evenodd" d="M719.6 413.3s-5.7 36.7-25 46.3c0 0-11.5-8.5-14.4-25 0 0-4 9.5-18.6 10.6 0 0 .5-11.2-5-21 0 0-7.1 7.5-15.4 8 13-13.2 15.7-34.8 16-48.1 30-14.3 65.5-.2 62.4 29.2" clip-rule="evenodd"/><path fill="#541138" d="M661.1 447.8c-1 61.1-7.8 91.9-11.6 126.2l309-8.2c-2.2-15-4.9-29-6-40a452 452 0 0 1-1.5-76c3.1-43.4.2-80.9-26.5-100.2-61.4-44.5-195-40.3-241.8 22-12.6 16.7-21 44-21.6 76.2"/><path fill="#9c6" fill-rule="evenodd" d="M668.7 447.7q-.5 34.2-4.2 68.2c-1.8 16.5-4.2 32.8-6.3 49.2l-1 8.7 293.7-7.8-.7-4.7c-1.8-11.5-4.1-23.2-5.2-34.8-2.4-26-3.5-51.4-1.6-77.4 2-26 3.2-64-14.6-85.5a48 48 0 0 0-8.8-8.3c-57.4-41.6-186.6-38.9-231.2 20.4-14.5 19.3-19.7 48.7-20 72" clip-rule="evenodd"/><path fill="#bfe975" fill-rule="evenodd" d="M703.4 413c20.3 84.4 145.3 90 171.6-26.6-43.7-21.4-179.6-42.5-171.6 26.6" clip-rule="evenodd"/><path fill="#71a35d" fill-rule="evenodd" d="m951 566-.8-4.7c-1.8-11.5-4.1-23.2-5.2-34.8-2.4-26-3.5-51.4-1.6-77.4 2-26 3.2-64-14.6-85.5a48 48 0 0 0-8.8-8.3 134 134 0 0 0-38.2-18.4c-13.4 32.1-33 90.8-33 90.8s5.4 54.1-30.6 86.7c-11 9.9-5 30.7 9 54.9z" clip-rule="evenodd"/><path fill="#541138" d="M711.4 429.5c23.5 41.9 79.2 53 120.1 23.2 19.4-14 52.5-61.7 61.9-100.6-41.9-25-166.8-28-188.9 13.2-9 16.8-2.4 47.7 7 64.2"/><path fill="#ffcfa5" fill-rule="evenodd" d="M710.6 407.4C729 483 842.4 488 866.3 383.6c-39.6-19.1-163-38-155.7 23.8" clip-rule="evenodd"/><path fill="#d77d75" fill-rule="evenodd" d="M719.2 428.5a156 156 0 0 0 133.4-9.4 209 209 0 0 0 30.4-63.5C849.2 339.4 738 329 711 366c-10.5 14.4-2 49.5 8.2 62.5" clip-rule="evenodd"/><path fill="#541138" d="M768.6 463.3a14 14 0 0 1 2.5-2.3 16 16 0 0 0-5.4-5.6q-2.5-1.5-4.8-1.7-.8 2.2-2.6 4l-2.6 2.3-2.5-.9a17 17 0 0 0 3.2-4.7 7 7 0 0 0-3.6 4.6l-4.2-1.8c1.2-4 4.9-6.5 9-7.3.5-6.5-4.6-9.4-8.7-8.5-7.8 1.6-4.8 11.8 3.5 9.8 0 0-6.2 5.3-10.9-1.4a8 8 0 0 1 2.6-11.1c9.4-6.1 17.7 2.5 17.5 11 3.7.4 7.1 2.2 9.2 5.7q1.5 2.4 2.2 4.6c4.3-2 9.5-1.5 13.3 3.8l.2.3q-3 .2-6.1.1a7 7 0 0 0-6.3-.3h-.5zm34.8-21.2s5.1-2.9 14.4 0a12 12 0 0 1 7.9 8.9L822 453a11 11 0 0 0-3.2-6 20 20 0 0 0-15.5-5m3.4 18v-.2a11 11 0 0 0-6.2-1.7q-.7 2.5-1.5 4l-.8.2q.4-2 .6-4a7 7 0 0 0-4.8 4.8l-4.8.6c.5-5.1 4.7-8.4 9.5-9.3q-.4-4.1-2.5-7.3c-5.1-7.8-12.4-5.7-14.7-1.4-4 7.5 6.3 12 10.3 4 0 0 0 8.5-8.6 7.8a8.4 8.4 0 0 1-7.2-9.6c2-15.8 24-11.9 25 1.5q.3 2.6 0 4.7 3 0 5.8 1.2c1.8-6.3 8.7-4.7 8.7-4.7-4.4 1-6 4.5-5.2 7.2l.6.6-.3.1zm-43 2.2c-.2-1.6-.8-2.8-.8-2.8q0 1.5-.4 2.5zm10.5-13.5s-4.5.2-9.9-5c-7-6.8.8-21 10.7-14.8 3.2 2 3.8 6 2 8.5-3.5 5.2-8.3 1.2-8.3 1.2 6.4 1.5 8.6-6.4 2.6-7.6-3.6-.7-8.1 2.4-6 9 1.2 3.9 5 7.2 9 8.7m34.6-30.2s-4.5-.3-10 4.7c-7.3 6.6.2 21 10.2 15.2 3.2-1.9 4-5.9 2.3-8.5-3.4-5.2-8.3-1.4-8.3-1.4 6.4-1.3 8.4 6.7 2.3 7.7-3.6.6-8-2.7-5.8-9.2 1.4-3.8 5.4-7 9.3-8.5m26 6.3s-4.5-.3-10 4.7c-6.8 6-.9 19 8 16.1q2.6-2 5-4.3 1-2.7-.5-5.1c-3.4-5.3-8.3-1.5-8.3-1.5 6.4-1.2 8.4 6.7 2.3 7.7-3.5.6-8-2.6-5.8-9 1.4-4 5.4-7.2 9.3-8.6m-99.6.7s-4.6-.3-10.1 4.7a9 9 0 0 0-3 6.6q4.5 5.5 9.8 9.8 1.7-.2 3.5-1.2c3.2-2 4-6 2.3-8.5-3.4-5.3-8.3-1.5-8.3-1.5 6.4-1.2 8.3 6.7 2.3 7.7-3.6.6-8-2.6-5.8-9 1.3-4 5.4-7.2 9.3-8.6M913.8 455c17.3 19 45.5 56 56.1 105.9 0 0 .6 1.9 2.3 4.6l105.4-2.8c7-14 3.9-28.9 3.9-28.9s-25.3-130-124.6-164.6c-54.6-19.1-62.8 64-43 85.7"/><path fill="#d77d75" fill-rule="evenodd" d="M977.7 558.4c.5 2.1 2.2 4.6 4 6.8l87.7-2.3q1.9-3 3-6.7a46 46 0 0 0 1.3-22.2 309.1 309.1 0 0 0-25.8-67.7c-20.6-39.3-51.4-75.6-95.2-90.8a74 74 0 0 0-11.4-3c-15.2-2.7-30.2 0-38.2 14.1-9.6 17.2-7.7 32.7 3.4 48q4.6 4.1 8.7 8.6a248 248 0 0 1 62.5 115.2" clip-rule="evenodd"/><path fill="#ffcfa5" fill-rule="evenodd" d="M974.3 531s-34-60.6-10.2-71c24-10.6 92.6 25.2 106.9 68.8 14.2 43.7-95.1 20.3-96.7 2.3" clip-rule="evenodd"/><path fill="#541138" d="M921 473.9s12-7 15.5-30.5c0 0 13.2 7.5 28.9 3.6 0 0-2.4-13.2.9-22.7 0 0 12.3 6 24.5 3.7 0 0 2.4-12.7.7-21.6 0 0 18.5-2.3 25-10.8 0 0-42-51.2-93.3-42.7-23.5 3.9-15.4 46.6-20.7 66.1-7 26 4.7 44.2 18.4 54.9"/><path fill="#9c6" fill-rule="evenodd" d="M891.6 414.4s5.3 32.7 28.9 47.3c0 0 11-11 12.6-32 0 0 6.4 11.3 25.4 11 0 0-2.2-14 3.6-27 0 0 10.7 9 21.6 8.2 0 0 2.3-12-1.1-25l5.2 2.9s14.6-.9 18.6-4.4c0 0-45.7-47.7-92.5-33.2a50 50 0 0 0-22.3 52.2" clip-rule="evenodd"/><path fill="#bfe975" fill-rule="evenodd" d="M922.2 459.7c3.1-4 9.7-14.3 10.9-30 0 0 6.4 11.3 25.4 11 0 0-2.2-14 3.6-27 0 0 10.7 9 21.6 8.2 0 0 2.3-12-1.1-25l5.2 2.9s14.6-.9 18.6-4.4c0 0-18.3-19-43.5-29.4l-.4.2s25.7 15.4 31.5 26.9c-3.3 1-7.5 1.5-15.6-.1 0 0 2.9 15.3-1.3 19.4-4 4.2-22-9.1-22-9.1s-1 28.1-5 29.4-19.6-8.6-19.6-8.6 0 21-8.3 35.6" clip-rule="evenodd"/><path fill="#71a35d" fill-rule="evenodd" d="M889.7 414.1s7.2 32.8 30.5 47.4c-8.4-67 32.2-90.3 43.2-95.3-14.8-6.2-34.4-10.1-51.9-4.7a50.5 50.5 0 0 0-21.8 52.6" clip-rule="evenodd"/><path fill="#541138" d="M918.3 344.8c-6.3 6.8-17 22.6-18.3 52.5-1.2 28.5-.8 52.5-.8 92.6h-46s-1.7-62.2 1.8-103.5c3-34 20.7-55.4 26.9-61.9q2-2.2 5-1.5a91 91 0 0 1 30.5 13.8q2 1.4 2.3 3.8t-1.4 4.2"/><path fill="#f5e2d2" fill-rule="evenodd" d="M913.7 341.2c-7.5-5.1-15-8.8-24.4-10.9a110 110 0 0 0-10.4 14 108 108 0 0 0-16.5 43.3 391 391 0 0 0-2.9 37.7 978 978 0 0 0-.4 59h34c0-29-.3-58.2.9-87.2.6-16 4-32.9 12.8-46.9 1.7-2.7 4.2-6.1 7-9" clip-rule="evenodd"/><path fill="#b98e8e" fill-rule="evenodd" d="M859 476.8v7.6h34.2V474c-6 5-26 4.6-34.3 2.8" clip-rule="evenodd"/><path fill="#b98e8e" fill-rule="evenodd" d="M913.7 341.2c-7.5-5.1-15-8.8-24.4-10.9L888 332a70 70 0 0 1 21 10c-2.7 2.9-5.2 6.2-7 9a96 96 0 0 0-12.7 46.8c-1.2 28.8-1 57.7-.9 86.6h4.9c-.1-29.1-.4-58.3.8-87.3.6-16 4-32.9 12.8-46.9 1.7-2.7 4.2-6.1 7-9" clip-rule="evenodd"/><path fill="#b98e8e" fill-rule="evenodd" d="M913.7 341.2a84 84 0 0 0-26.6-12.4C861.5 357 861 389 859.6 424.2a52 52 0 0 1 34-15.4q0-6 .4-11.7c.6-16 4-32.9 12.8-46.9 1.7-2.7 4.2-6.1 7-9" clip-rule="evenodd"/><path fill="#541138" d="m888.3 440.2-1.6 46.5 4.4-.3zM742.4 334.3s-21.2 14.3-23 58c-1.1 29.3-.8 53.9-.7 95h-46c.1-38.7-3-90 7.6-128a95 95 0 0 1 56.3-32.4c1.1.8 4.7 6.6 5.8 7.4"/><path fill="#f5e2d2" fill-rule="evenodd" d="m733.2 334.8-1-.7c-12 4.4-30.5 12.8-45 26.5a105 105 0 0 0-5.3 21.8 411 411 0 0 0-3 38.7 1031 1031 0 0 0-.4 60.5h34.1c0-29.8-.4-59.7.8-89.5.7-16.4 4.1-33.7 12.9-48 1.7-2.9 4.1-6.3 6.9-9.3" clip-rule="evenodd"/><path fill="#b98e8e" fill-rule="evenodd" d="m678.4 474.5.1 7.1h34.1v-11.1c-6.5 5.8-27.2 5.3-34.2 4" clip-rule="evenodd"/><path fill="#b98e8e" fill-rule="evenodd" d="m733.2 334.8-1-.7-5.3 2a66 66 0 0 0-5.8 8.1 101 101 0 0 0-12.8 48c-1.2 29.8-1 59.6-.8 89.4h5.1c0-29.8-.4-59.7.8-89.5.7-16.4 4.1-33.7 12.9-48 1.7-2.9 4.1-6.3 6.9-9.3" clip-rule="evenodd"/><path fill="#b98e8e" fill-rule="evenodd" d="m733.2 334.8-1-.7c-12 4.4-30.5 12.8-45 26.5a105 105 0 0 0-5.3 21.8q-2 15.8-2.6 31.7c7.2 4 18.4 9 33.3 12.2q.2-17.1.8-34.2c.7-16.4 4.1-33.7 12.9-48 1.7-2.9 4.1-6.3 6.9-9.3" clip-rule="evenodd"/><path fill="#541138" d="m707.4 438.8-1.6 47.6 4.4-.2zM975.2 560.8l-49.4-7.6-1.9 13.5 50.8-1.3z"/><path fill="#dbbcaf" fill-rule="evenodd" d="m962.1 565.7-31.5-4.1-.6 5z" clip-rule="evenodd"/><path fill="#541138" d="m653.7 480 255.9 2.9s33.1 42 50.4 57.6l-3.1 25.4-309.2 8.2q1.4-39 .9-89.1s0-4.8 5-5"/><path fill="#f5e2d2" fill-rule="evenodd" d="M656.3 487.7q.4 43-.9 86.2l293.7-7.8 2.8-22.4c-7.2-6.9-14.1-14.7-20.5-22.1a921 921 0 0 1-25.7-31z" clip-rule="evenodd"/><path fill="#faeede" fill-rule="evenodd" d="M656.3 487.7q.4 43-.9 86.2l136.3-3.7c34.2-29 52.2-60.3 61-80.3z" clip-rule="evenodd"/><path fill="#e13043" fill-rule="evenodd" d="M823.3 569.4c-5.5-13.5-21-22.3-17-41.5 0 0-18.8 6.5-22.8 22.5 5.3-24-.8-41.7-24.4-44.4 14.2 19.3-27 23.1-23.4 58 0 0-5.2-5-4.3-15.5 0 0-10.4 10-12 23.7z" clip-rule="evenodd"/><path fill="#fb4950" fill-rule="evenodd" d="M811.6 551.4a29 29 0 0 1-5.3-23.5s-18.8 6.5-22.8 22.5c5.3-24-.8-41.7-24.4-44.4 14.2 19.3-27 23.1-23.4 58 0 0-5.2-5-4.3-15.5 0 0-10.4 10-12 23.7l72.3-2q11-9.3 19.9-18.8" clip-rule="evenodd"/><path fill="#fff" fill-rule="evenodd" d="M656.3 487.7q.4 43-.9 86.2l5.5-.2c.3-48.6-3-81.2-3.5-86z" clip-rule="evenodd"/><path fill="#dbbcaf" fill-rule="evenodd" d="m949.1 566 2.8-22.3c-7.2-6.9-14.1-14.7-20.5-22.1a922 922 0 0 1-25.7-31l-55.9-.8a596 596 0 0 1 1.3 78.9z" clip-rule="evenodd"/><path fill="#b98e8e" fill-rule="evenodd" d="M889.4 494.8s-6.4 1.9-13.4 6.5c-7-4.6-13.3-6.5-13.3-6.5a65 65 0 0 0 9.8 9.2 40 40 0 0 0-9.8 11.2q6.9-4.2 13.3-8.6 6.5 4.4 13.4 8.6a40 40 0 0 0-9.8-11.2q5.4-4.1 9.8-9.2M855.7 519.1h40.7a54 54 0 0 1-40.7 0" clip-rule="evenodd"/><path fill="#dbbcaf" fill-rule="evenodd" d="M704.7 493.8s-6.3 1.9-13.3 6.5c-7-4.6-13.4-6.5-13.4-6.5a65 65 0 0 0 9.8 9.1 40 40 0 0 0-9.8 11.2q7-4.1 13.4-8.6 6.4 4.5 13.3 8.6A40 40 0 0 0 695 503a65 65 0 0 0 9.8-9.1M671 518h40.7a54 54 0 0 1-40.7 0" clip-rule="evenodd"/><path fill="#541138" d="M668 534.1c10 9.3 12.8 24.2 10.5 39.2l-99.5 2.6c-8-12.8-12.2-26-10.2-37.5s10.5-13.2 29.4-22.3a42 42 0 0 1 21.4-4c17 1 35.6 9.9 48.5 22"/><path fill="#ffcfa5" fill-rule="evenodd" d="M663.4 540.2c11 10.3 12.3 22 9 33.2l-85.1 2.3c-8.8-14.2-14.9-37-5.7-51.8 5.6-9 25.7-13.7 35.4-11a130 130 0 0 1 46.4 27.3" clip-rule="evenodd"/><path fill="#fff" fill-rule="evenodd" d="M587.3 575.7c-8.8-14.2-14.9-37-5.7-51.8q4.2-6.5 10.8-9.6a42 42 0 0 1 21-2c-35.7 3.2-35.9 37.7-24 63.3z" clip-rule="evenodd"/><path fill="#5f1b3f" fill-rule="evenodd" d="M591.3 575.6c-5.8-6.2-2.5-19.2 8.3-17 4 .7 6.2 4.6 5.4 7.8-1.6 6.6-8 4.5-8 4.5 7-1 6.2-10-.4-8.8-3.9.7-7.3 5.6-2.7 11.4q.9 1 2 2zM615.8 561.8s3.5-3.9 2.8-12.5c-.9-11.2-19.3-14.5-21-1.2a7 7 0 0 0 6.1 8c7.2.6 7.2-6.5 7.2-6.5-3.4 6.7-12 2.9-8.7-3.3 2-3.7 8-5.5 12.4 1.1 2.6 4 2.7 9.9 1.2 14.4M584.6 555.6s4 .1 8.7-4.5c6.2-6.2-1-18.6-9.7-13a5.4 5.4 0 0 0-1.7 7.5c3.2 4.6 7.4 1 7.4 1-5.6 1.4-7.7-5.6-2.4-6.7 3.2-.7 7.3 2 5.5 7.8-1 3.5-4.4 6.5-7.8 7.9M647.1 527.2s-3.8-.2-8.4 4c-6 5.5.2 17.6 8.6 12.7 2.7-1.6 3.3-5 2-7.1-2.9-4.4-7-1.3-7-1.3 5.4-1 7 5.7 2 6.5-3 .5-6.8-2.2-5-7.6 1.2-3.3 4.6-6 7.8-7.2M629.6 529.7s.5-3.8-3.6-8.6c-5.2-6.3-17.6-.6-13 8a5 5 0 0 0 7 2.3c4.5-2.7 1.5-7 1.5-7 .9 5.5-5.9 6.9-6.5 1.8-.4-3 2.5-6.7 7.8-4.6 3.2 1.3 5.8 4.8 6.8 8" clip-rule="evenodd"/><path fill="#5f1b3f" fill-rule="evenodd" d="M603 539.2s-3.8.2-8.3-4.1c-6-5.7.7-17.6 9-12.5 2.6 1.7 3.2 5 1.7 7.2-3 4.3-7 1-7 1 5.4 1.2 7.2-5.4 2.1-6.4-3-.6-6.7 2-5 7.5 1 3.3 4.3 6 7.5 7.3M625.5 574.7c0-1.7-.5-4.4-2.5-7.8-4.4-7.4-18.2-3.5-14.9 6.2q.5 1.1 1.2 2l8.2-.2c1.7-2.3.3-5.2.3-5.2 0 5.8-7.3 6-7.1.6.1-3.2 3.7-6.4 8.9-3.3a13 13 0 0 1 5.3 7.7zM618.4 536.4s3.6-2 10.2 0c8.5 2.8 7.8 17.7-2.8 16.7a5.7 5.7 0 0 1-5.2-6.2c.8-5.7 6.4-4.4 6.4-4.4-5.9 1.4-4.5 8.8 1 7.3 3.2-.9 5.7-5.3 1.3-9.8-2.6-2.8-7.1-4-11-3.6" clip-rule="evenodd"/><path fill="#541138" d="M664.8 535a35 35 0 0 1 9.7 38.4l-62.7 1.6a64 64 0 0 1 47.5-44.9q3 2.5 5.5 4.9"/><path fill="#6a3b51" fill-rule="evenodd" d="M663.4 540.2c9.2 8.6 13.4 21 13.7 33l-60.6 1.7c8.4-27 30.2-36 42-39q2.7 2.1 5 4.3" clip-rule="evenodd"/><path fill="#541138" d="m747.2 520.4 13.9 12.2-34.4 39.4-25 .6z"/><path fill="#541138" d="m797.5 438.7 40.9 36c6.7 6 7.4 16.4 1.4 23.1l-49.5 56.3c-6 6.9-14.4 4.4-22 2.1l-31.8-9.7-11-28.2c-3-7.2-6.7-15-.7-21.8l49.6-56.3c6-6.8 16.3-7.4 23-1.5"/><path fill="#8199ad" fill-rule="evenodd" d="m795 442.6 39.9 35a13 13 0 0 1 1.1 18.1l-24.4 27.8-4.6 5.1-19.2 21.8c-4.7 5.3-11.3 3.3-18 1.2l-29.6-9-10.3-26c-2.6-6.6-5.8-12.8-1.1-18.1l48.2-54.8a13 13 0 0 1 18-1.1m7.7 70.3 15.5-17.8a5 5 0 0 0-7.5-6.6l-35.1 39.9a5 5 0 0 0 .4 7 5 5 0 0 0 7.1-.4l15-17zm-.4-38.5a5 5 0 0 1 .5 7.1l-35.1 40a5 5 0 0 1-7.1.4 5 5 0 0 1-.5-7.1l35.1-40a5 5 0 0 1 7.1-.4M787 460.8a5 5 0 0 1 .4 7.1l-35.1 39.9a5 5 0 0 1-7.5-6.6l35-40a5 5 0 0 1 7.2-.4" clip-rule="evenodd"/><path fill="#b7ced5" fill-rule="evenodd" d="m747.5 524.8 9.2 8-34.2 39.3-16.5.4z" clip-rule="evenodd"/><path fill="#541138" d="m801.4 434.5 41 36c6.7 6 7.3 16.3 1.4 23L794.2 550c-6 6.8-15.2 1-22.5-1.9l-26.5-10.7-11.5-23.2c-3.5-7-11-15-5-21.9l49.6-56.3c6-6.7 16.4-7.4 23.1-1.4m-16.8 95.3 36.2-41q1-1.4-.2-2.8a2 2 0 0 0-2.8.2l-36.1 41a2 2 0 0 0 .2 2.8c.8.7 2 .6 2.7-.2m20-57.8a2 2 0 0 0-2.7.2l-36.1 41a2 2 0 0 0 .2 2.8c.8.7 2 .6 2.7-.2l36.2-41q1-1.4-.2-2.8m-15.8-14a2 2 0 0 0-2.8.2l-36.1 41a2 2 0 0 0 .2 2.8c.8.7 2 .6 2.7-.2l36.2-41q1-1.4-.2-2.8"/><path fill="#b7ced5" fill-rule="evenodd" d="m799 438.4 39.7 35a13 13 0 0 1 1.2 18.2l-24.5 27.7-4.5 5.2-19.3 21.8c-4.6 5.3-11.3 3.2-18 1.1l-29.6-9-10.2-26c-2.6-6.5-5.8-12.8-1.2-18l48.2-54.8a13 13 0 0 1 18.1-1.2m7.5 70.3 15.6-17.7a5 5 0 0 0-.5-7 5 5 0 0 0-7 .4l-35.2 39.9a5 5 0 0 0 7.5 6.6l15-17zm-.3-38.4a5 5 0 0 1 .4 7l-35.1 40a5 5 0 0 1-7 .4 5 5 0 0 1-.5-7l35.1-40a5 5 0 0 1 7-.4m-15.5-13.6a5 5 0 0 1 .5 7l-35.2 40a5 5 0 0 1-7 .4 5 5 0 0 1-.5-7l35.1-40a5 5 0 0 1 7.1-.4" clip-rule="evenodd"/><path fill="#aac4cf" fill-rule="evenodd" d="M799 438.4 830 466l-56.8-17.7 7.5-8.6a13 13 0 0 1 18.1-1.2" clip-rule="evenodd"/><path fill="#d5e2e6" fill-rule="evenodd" d="M843 482.8q.1 4.8-3.1 8.8l-15 16.9-13.7-5.1 10.9-12.4a5 5 0 0 0-.5-7 5 5 0 0 0-7 .4L801 499.6l-10.6-3.9 16.1-18.3a5 5 0 0 0-.4-7.1 5 5 0 0 0-7.1.4L780.4 492l-10.6-4 21.4-24.2v-.1zm-23.5 31.9-4 4.6-4.3 4.8-13.8-5 4.6-5.2 3.7-4.3zm-87.4-19.8.5-.6 7.8-8.8 13.8 5-5.7 6.5a5 5 0 0 0-1.2 3.5zm13.8-15.7 21.5-24.4 13.8 5.1-21.5 24.4zm18.4 15 10.6 4-8.3 9.5-10.7-4h.1zM785 502l10.6 4-8.3 9.4-10.6-3.9z" clip-rule="evenodd"/><path fill="#fff" fill-rule="evenodd" d="m769.3 455.2 12 4.5-2 2.3zm22 8.3 50.7 19-34.1-8.8a5 5 0 0 0-8.8-3l-.6.7-8.7-2.2-2.1-1.5 3.5-4z" clip-rule="evenodd"/><path fill="#fff" fill-rule="evenodd" d="m799 438.4 39.7 35q3.9 3.7 4.3 8.5-1.1-3-3.6-5.2l-39.8-35a13 13 0 0 0-18 1l-48.3 54.8a9 9 0 0 0-2.2 7.8c-1.2-4-1.4-7.6 1.5-11l48.2-54.7a13 13 0 0 1 18.1-1.2m7.5 70.3 15.6-17.7a5 5 0 0 0 1.2-2.8 5 5 0 0 1-.5 6l-15.6 17.7-4.5 5.1-15 17a5 5 0 0 1-8.7-3.9q.3.8.9 1.2a5 5 0 0 0 7-.4l15-17zm1.3-34a5 5 0 0 1-1.2 2.7l-35.1 39.9a5 5 0 0 1-8-.7 5 5 0 0 0 1.6 4.3 5 5 0 0 0 7.1-.4l35.1-40a5 5 0 0 0 .5-5.9M792.4 461a5 5 0 0 1-1.2 2.8L756 503.6a5 5 0 0 1-8-.6 5 5 0 0 0 8.7 3.8L792 467a5 5 0 0 0 .5-5.9" clip-rule="evenodd"/><path fill="#fff" fill-rule="evenodd" d="M779.4 438.7c3.3-3 7-4 8.5-2.4s0 5.4-3.1 8.3c-3.3 3-7 4-8.6 2.3-1.4-1.6 0-5.3 3.2-8.2" clip-rule="evenodd"/><path fill="#8199ad" fill-rule="evenodd" d="m735 505.6 8.5 24.9 40.6 16z" clip-rule="evenodd"/><path fill="#541138" d="M685 531s48.1.2 62.5 28.2c0 0 1.6 5.2-.3 12.2l-113 3c8.6-21.9 26-41.7 50.8-43.4"/><path fill="#6a3b51" fill-rule="evenodd" d="M683.7 537.5s45.6-.8 57 24.5c0 0 .1 4.3-1.8 9.6l-104.2 2.8a83 83 0 0 1 49-36.9" clip-rule="evenodd"/><path fill="#835d63" fill-rule="evenodd" d="M683.7 537.5s5.7 0 13.7 1c-9 9.1-18.2 21.1-24.6 34.9l-38.1 1a83 83 0 0 1 49-36.9" clip-rule="evenodd"/><path fill="#9a7777" fill-rule="evenodd" d="M683.7 537.5s3.6 0 9.1.4a87 87 0 0 0-48 36.2l-10.1.3a83 83 0 0 1 49-36.9" clip-rule="evenodd"/><path fill="#541138" d="M704.7 563s3.2 3.5 6.2 9.4l3.8-.1a44 44 0 0 0-10-9.3M702.4 536.9s-19.3 16.5-28 33.3c0 0 3.5-15.8 18.3-35.6l4.4.4zM1014 517.3s-25.7-11.2-45-6.4c-13.5 3.4-56.3 37-80.6 56.8l191.5-5.1c3.6-5.3 7-12.3 5.7-18.6a59 59 0 0 0-13.4-23c-3.7-4-11.4-5.3-11-5.4-15.9.8-31.4.9-47.1 1.7"/><path fill="#ffcfa5" fill-rule="evenodd" d="M1014.5 517c-13.9-2.7-41.5-3.6-54 5.4-11.8 8.4-33.2 25.4-59 45l168.3-4.5c3-4.1 7.3-10.3 8.4-14.3 1.7-6.4-9.9-27.7-14.7-32.3s-34.5-3-49 .6" clip-rule="evenodd"/><path fill="#541138" d="M974.8 565.4q-.7-2.7-2.7-6c-6.1-10.4-24.6-5.9-22.7 6.7l4.5-.2-.1-1.5c.2-4.7 5.5-9.5 13.2-5q3.4 2.3 5.7 6zm-9.9.3q-.5-2-.6-2.2 0 1.2-.3 2.2z"/><path fill="#ffe4b6" fill-rule="evenodd" d="M993.6 516.7c21.6 0 44.4 6 45.1 12.4.7 6.3-28.2 24.4-49.8 24.4s-34.2-13-34.2-20.3 17.2-16.5 38.9-16.5" clip-rule="evenodd"/><path fill="#d77d75" fill-rule="evenodd" d="m1054.3 562.8-.3.5 9.8-.3c0-7.1-7.6-3.5-9.5-.2" clip-rule="evenodd"/><path fill="#541138" d="M935.6 539c-10.9 8.4-23.6 18.1-37.3 28.4l66-1.7a89 89 0 0 0-28.7-26.8"/><path fill="#6a3b51" fill-rule="evenodd" d="M932.4 543.7c-7.7 6-19.6 14.9-31.3 23.6l56.1-1.4a84 84 0 0 0-24.8-22.2" clip-rule="evenodd"/><path fill="#835d63" fill-rule="evenodd" d="m932.4 543.7-7 5.4q14.1 7.4 23.3 17l8.5-.2a84 84 0 0 0-24.8-22.2" clip-rule="evenodd"/><path fill="#541138" d="M1016.3 558.3s-5.6-2-9.5-11c-5.2-11.7 11.4-25 20.3-12.6a8 8 0 0 1-1.7 11.3c-6.8 4.5-10.7-2.7-10.7-2.7 7 5 13.6-3.5 6.9-8-4-2.5-11-1-11.8 7.9a20 20 0 0 0 6.5 15M1001.7 564.7q1.2-3.5.8-9.8c-1-13.4-23.1-17.4-25.2-1.5-.6 5.1 3.1 9.3 7.3 9.7 8.6.7 8.6-7.9 8.6-7.9-4 8.1-14.4 3.5-10.4-4 2.4-4.4 9.7-6.5 14.9 1.4 2.2 3.4 2.9 7.9 2.5 12.1z"/><path fill="#5f1b3f" fill-rule="evenodd" d="M1022.3 562.1s-2.9-.2-6.8 2.2h2.7q2-1.5 4-2.2" clip-rule="evenodd"/><path fill="#541138" d="M988.2 519.7s2 4.1-.8 11.1c-3.7 9.2-20 7.3-18-4.2a6 6 0 0 1 7.2-5.2c6.1 1.3 4.3 7.3 4.3 7.3-1-6.5-9.3-5.5-8 .5.7 3.6 5.3 6.6 10.6 2.2 3.2-2.6 4.8-7.6 4.7-11.7M964.8 550.3s1.6-5.7-3.4-14.1c-6.5-11-27-5.3-22.1 9.1a8 8 0 0 0 10.2 5.3c7.7-3 4-10.3 4-10.3 0 8.6-10.7 9-10.4 1 .2-4.8 5.5-9.7 13.2-5 4.6 2.7 7.7 8.7 8.5 14M1028.5 554.5s5.3-2.9 14.6.1a12 12 0 0 1 7.9 8.8h-4.2a13 13 0 0 0-2.6-3.8c-3.7-4-10.3-5.6-15.7-5.1m6.8 9.3c2.5-1.3 5.5-.6 5.5-.6q-.7.1-1.5.5zM884.1 567.8c1-6 1.7-11.6 2-15.6a51 51 0 0 1-21.2-10.1c-6.1-4.5-10.1-8.7-14.7-13.6-7.9-8.3-30.4 16.9-8.2 36.3 0 0 10.6 2 20.5 3.6z"/><path fill="#6a3b51" fill-rule="evenodd" d="M884.8 565.6v2.2h.3l1-9.4c-9.5-1-21.5-5.4-36.4-21.5-2-2.1-4.5-4.9-6.8-2.5-7.2 7.7-4.4 22.5 3.4 34.4l37-1q1-1.9 1.5-2.2" clip-rule="evenodd"/><path fill="#ab8d88" fill-rule="evenodd" d="M886 558.2a46 46 0 0 1-21.4-8.1c6 7.6 13.4 10.7 21.1 12.3z" clip-rule="evenodd"/><path fill="#541138" d="M818.5 569.5q4.2-3.6 9-6.9s6.7 1.7 16.7 6.3z"/><path fill="#541138" d="M867 568.2c-12.7-8.8-26.8-22-38-40.8 0 0-18.1 16.2-30.2 42.7z"/><path fill="#719a76" fill-rule="evenodd" d="M855.8 568.5a147 147 0 0 1-27.9-29.9 156 156 0 0 0-22 31.3z" clip-rule="evenodd"/><path fill="#a2c87b" fill-rule="evenodd" d="M844.7 568.8a116 116 0 0 1-17.2-17q-6.6 8.4-12 17.8z" clip-rule="evenodd"/><path fill="#719a76" fill-rule="evenodd" d="m835.2 569-7.6-6.4-2.3 2.7 4.8 4z" clip-rule="evenodd"/><path fill="#541138" d="M932.2 566.5a35 35 0 0 0-35-14.4q-6.3 1-11.8 0-.3 5.5-1.2 13c0-1.6-1-2.5-2.4 1.2l-.6 1.6z"/><path fill="#835d63" fill-rule="evenodd" d="M928 566.6c-7.4-4.9-15.8-8-25-8.2-6.2-.1-11.9.4-18-.3l-1.2 9.7z" clip-rule="evenodd"/><path fill="#9a7777" fill-rule="evenodd" d="M898.1 564.5q-1 1.2-1.3 3l25.3-.7c-10.4-5.4-20.3-6.6-24-2.3" clip-rule="evenodd"/><path fill="#ab8d88" fill-rule="evenodd" d="M928 566.6c-7.4-4.9-15.8-8-25-8.2-6.2-.1-11.9.4-18-.3-1.5.6-1.4 3.5-.5 4 10 2 20.8 1.5 30.8 4.9z" clip-rule="evenodd"/><path fill="#541138" d="M668 231.3c0-16.4-10.4-29-24.1-31.4a29 29 0 0 0-33.6 24c-4.2 22 13 41.6 33.8 41 4-.2 12.7-3.4 14.5-11.5l1.4-8z"/><path fill="#fa8888" fill-rule="evenodd" d="M662.5 219.5c-10.2-13.7-32.6-16.8-41.1-4.2a27 27 0 0 0-4.6 15.9c.2 7.3 3.2 14.6 8.2 19.6 8.4 8.1 26 10.7 35.2 3 9.3-7.8 9.3-24.8 2.3-34.3" clip-rule="evenodd"/><path fill="#fba39b" fill-rule="evenodd" d="M638.9 208.8c-10.1 0-17.8 7.2-17.8 11.6s8.2 4 18.4 4 18.3.4 18.3-4-8.8-11.6-19-11.6" clip-rule="evenodd"/><path fill="#fff" fill-rule="evenodd" d="M654.3 212.1c-11.1-6.9-26.2-6.6-33 3.2a27 27 0 0 0-4.5 15.9c.2 7.3 3.2 14.6 8.2 19.6q3 2.8 7 4.6-2-1.3-3.6-3a29 29 0 0 1-3.9-34.9c6.1-9 19.8-9.5 29.8-5.4" clip-rule="evenodd"/><path fill="#c64d60" fill-rule="evenodd" d="M640 219.6c-7.9 0-11.5 6.4-11.5 15 0 8.4 8.9 14 16.7 14 7.9 0 10.8-5.4 10.8-14s-8.2-15-16-15" clip-rule="evenodd"/><path fill="#fa8888" fill-rule="evenodd" d="M648.2 225.9c-5.3 0-9.7 5.1-9.7 11.4s4.4 11.5 9.7 11.5c5.4 0 10.7-5.1 10.7-11.5 0-6.3-5.3-11.4-10.7-11.4" clip-rule="evenodd"/><path fill="#c4485b" fill-rule="evenodd" d="M656.5 238.8s-3-11.1-13.3-9.7l8.8-3.4s3.3 3.3 4.5 13.1" clip-rule="evenodd"/><path fill="#541138" d="M656.6 240c-3-22.5-28.8-22.7-27.3-.8-10-27.4 30.7-27.9 27.3.9"/><path fill="#541138" d="M652.3 228.4c-8-1.6-12.1 3-12.7 8.3-.6 5 2.2 10.7 11.5 12.2-18.1 2.5-22.3-23.9-2.6-24.8.4.2 1.4 1 1.8 1z"/><path fill="#fba39b" fill-rule="evenodd" d="M644 230.6a7 7 0 0 0-2.9 7c.6 2.3 2.9 2.8 5.1 1.2 2.3-1.6 3.6-4.7 3-6.8-.5-2.2-3-3-5.3-1.4" clip-rule="evenodd"/><path fill="#c4485b" fill-rule="evenodd" d="M656 241c-1.1 8.8-13 7.6-14.3-.4 0 0 6.2 5.5 14.4.5" clip-rule="evenodd"/><path fill="#c64d60" fill-rule="evenodd" d="M664.4 246c-9.1 15.7-28.4 13.7-37.4 2.7a41 41 0 0 0 37.4-2.7" clip-rule="evenodd"/><path fill="#541138" d="M669.2 110.5c-31.9 1.6-33 46.4-3.8 49l35.9-20.1z"/><path fill="#79505f" fill-rule="evenodd" d="M670.2 117c-23.4 1.2-24.2 34-2.8 36l26.3-14.8z" clip-rule="evenodd"/><path fill="#a37a84" fill-rule="evenodd" d="M669.7 117c-17 1.2-21.8 19.5-14.3 29.5-3.2-19.2 14.3-26.2 14.3-26.2q.1-1.7 0-3.2" clip-rule="evenodd"/><path fill="#541138" d="M694.6 73.3c-39 2-40.2 59.5-4.6 62.9l43.8-25.9z"/><path fill="#79505f" fill-rule="evenodd" d="M695.6 80.3c-30.3 1.5-31.3 46.3-3.6 48.9l34-20.1z" clip-rule="evenodd"/><path fill="#a37a84" fill-rule="evenodd" d="M695.6 80.3c-22 1.1-28.6 25-19.8 39-2.2-4.1-7.8-32.3 22.7-35.5l.7-.1z" clip-rule="evenodd"/><path fill="#643451" fill-rule="evenodd" d="M672.4 110.3c1.6 9.5 8.1 17.8 19.6 18.9l29.8-17.6q.6-4 .6-6l-5.3-5-20.2-15s1 21.1-24.5 24.7" clip-rule="evenodd"/><path fill="#541138" d="M655 148.7c-3.5-.2-20.2 4-13.7 26.3 0 0-22.6 20.7 5.4 43.1s37.3-56.8 8.3-69.4"/><path fill="#79505f" fill-rule="evenodd" d="M654.4 155.8c-11.2.3-10 15.4-6.8 21.6-10.4 9.4-11.3 27.8 2.7 34 0 0 6 4.2 10-1 3.9-5.3 12.7-47.6-5.9-54.6" clip-rule="evenodd"/><path fill="#541138" d="M968.4 255.7c5.7 11.4 12.2 12.5 17 17.3 4.2 4.3 4.5 12.3-4.6 17.4 6.9 4.4 10.4 7.2 5.6 16a34 34 0 0 1-18.7 14.7 52 52 0 0 1-34.2-2.7c-13.8-7-12.1-21.6-12.1-21.6l13.5-50.5s13.4-2 23.6 3c3.3 1.5 7.8 3.4 9.9 6.4"/><path fill="#79505f" fill-rule="evenodd" d="M961.8 255.8s1.5 9 15.6 18.2c0 0 12.2 5.8-.9 13.9 0 0-11.7-4.7-16.9-13.5 0 0 1.3 11 17.7 19.6 0 0 4.7 2.3 3.7 6.4s-12.6 23.2-42.3 11.6c-29.8-11.6-13-53.8-12.8-54.7a196 196 0 0 1 14-10.4s19.8-6.6 21.9 9" clip-rule="evenodd"/><path fill="#643451" fill-rule="evenodd" d="M961.8 255.8s1.5 9 15.6 18.2c0 0 12.2 5.8-.9 13.9 0 0-11.7-4.7-16.9-13.5 0 0-2.6 6 3.6 13.5 7.7 9 9.2 11 8.4 15.7-1.6 9.5-16.3 14.9-33 8.4-29.7-11.6-13-53.8-12.7-54.7a196 196 0 0 1 14-10.4s19.8-6.6 21.9 9" clip-rule="evenodd"/><path fill="#541138" d="m641.3 343.5-15 14.4 3.5 4.8 17.7-10.3zM633.4 291.9l-17 1-.4 5.2 16.5 3.3zM628.7 280.3l-9.6-1.8-1 2.6 9 4zM921.3 348.4l13 3.9 1.7-3.6-11.6-6.7zM799.4 415.3l5.5 14.1 5.9-.7-.6-14.7zM790.5 417l1 11.2 3.3.2 1.6-11.1zM876.9 391.3l7.4 8.7 2.7-1.8-5-10zM683.2 393.5l-10 8.8-3-2.4 7.6-10.9zM699 401.2l-8.8 13.1-4.1-2 5.4-14.6zM911 353.5l13.2 11 3.7-3.2-10-13.7zM632.6 337.7l-9.3 6.5 1.4 3 10.5-4.1z"/><path fill="#541138" d="M646.4 210.7c-.5 13.3-4 32.6-14.6 54.6-13.8 28.7-14.2 94.4 49.7 131a197 197 0 0 0 187 2.8c38.9-20.6 68.5-54.7 77.7-94.4 10.2-43.5-13.7-72.5-20-114.7-8.9-58.9-46-91.6-91-102.8-49-12.1-116 .6-150 26.5-43 32.7-37 55.2-38.8 97"/><path fill="#ffcfa5" fill-rule="evenodd" d="M781.3 92c-53.8 2.5-125.4 28.2-126 91-.4 29.5-.5 47.2-6.5 63.9-6.4 17.6-15.5 31.2-15.7 51.2a102 102 0 0 0 54 91.6c47 26.5 105 27.2 155.1 9.9 36.7-12.8 75-38.7 93.1-90.3 0 0 10.9-22 1.2-55.3-18.2-61.8-25.6-125.2-69.6-152-19.7-12.1-47.7-14.3-85.6-10" clip-rule="evenodd"/><path fill="#ffe4b6" fill-rule="evenodd" d="M703.5 114.5c51.7 41.7 0 54.6-40.5 49.3 0 0 7.6-31.6 40.5-49.3" clip-rule="evenodd"/><path fill="#d77d75" fill-rule="evenodd" d="M768 166.7s2.8 29.8 37.3 30.8 40.7-22.2 40.7-22.2-38.5 4.5-78-8.6M756.7 169.7s16.4 12.7 20 34c24.8 14.8 16.3 52.5-14.2 50.1-15.6 21.6-52.5 29-71 8.3 0 0-15.3 1.8-15.7-12.8s27.8-16.2 27.8-16.2 18-57.8 53.1-63.4" clip-rule="evenodd"/><path fill="#d77d75" fill-rule="evenodd" d="M781.3 92a193 193 0 0 0-73.7 17.9c3.7 6.5 20.7 23.7 67 13.3 52-11.7 68.5-8.5 81.7 8.3 20.2 26 0 61.6 15 92.5 36.8 76.5 33.3 135.6-14.6 169.4l-1.8 1.2c32.5-14 64.4-39.6 80.4-85.3 0 0 10.9-22 1.2-55.3-18.2-61.8-25.6-125.2-69.6-152-19.7-12.1-47.7-14.3-85.6-10" clip-rule="evenodd"/><path fill="#c0b6a1" fill-rule="evenodd" d="M646.7 252.3c-6.1 15.1-13.4 27.9-13.6 45.8a102 102 0 0 0 54 91.6c47 26.5 105 27.2 155.1 9.9 36.7-12.8 75-38.7 93.1-90.3 0 0 10.9-22 1.2-55.3q-6-20.7-11.3-40.9L920 219c-14.4 16.4-25.7 21.6-35.7 21.6-21-.2-33.7-21.6-63.2-16C801.7 228 789 242 768.6 245c-9 1.3-22 .9-41.3 2.8-13.2 1.4-17.2 3.7-30.3 6.1-23.5 4.4-22-2.4-38.1-3.2q-6.1-.3-12.2 1.6" clip-rule="evenodd"/><path fill="#928885" fill-rule="evenodd" d="M714.8 375.5s-10.1.3-9.6 3c.8 4.5 53 12 48.3 6.6-5.6-6.4-15.7-12.3-38.7-9.6" clip-rule="evenodd"/><path fill="#d1cab6" fill-rule="evenodd" d="M732.6 360.8c18.9 3.1 33.6 12.4 32.2 20.5s-16 .3-34.8-2.9c-18.8-3-34.8-.4-33.4-8.5s17.2-12.2 36-9M852.1 348.4C837 364 816 367.7 809.3 361.2s12.5-13.1 27.7-28.7 20.7-34.1 27.3-27.6 3 28-12.2 43.5" clip-rule="evenodd"/><path fill="#928885" fill-rule="evenodd" d="M718.1 377.7s15 22.8 16.4 23.6S744 380 744 380s-10.3-5-26-2.2M659 274.8s32.2 33.7-3 52.2l27.2 4.3s13.7-33.7 14-34.9 1-14 1-14-31.7-7.6-39.3-7.6" clip-rule="evenodd"/><path fill="#fff" fill-rule="evenodd" d="M787.5 369a147 147 0 0 1-90.3-20.8c-13.2-8-27.5-20.3-47-20 0 0 7.7-2.4 21.3 0 13.6 2.5 62.3 43.9 118.7 30.7s66.6-56.8 65.4-76.8 3.7-22 5.4-15.1c14.3 55.8-28.8 95.8-73.5 102" clip-rule="evenodd"/><path fill="#928885" fill-rule="evenodd" d="M789.5 238c-6.4 3.2-13 6-20.9 7-9 1.3-22 .9-41.3 2.8-13.2 1.4-17.2 3.7-30.3 6.1a49 49 0 0 1-20.1.8c3.5 8.7 14.6 7.4 14.6 7.4 18.5 20.8 55.4 13.3 71-8.3 14 1.1 23.3-6.1 27-15.8" clip-rule="evenodd"/><path fill="#fff" fill-rule="evenodd" d="M707.6 109.9c-29.3 14.3-52 37.9-52.4 73.2-.3 29.4-.4 47.1-6.4 63.8-6.4 17.6-15.5 31.2-15.7 51.2a102 102 0 0 0 54 91.6 162 162 0 0 0 36 14.9q-15.3-5-29.4-13a102 102 0 0 1-54-91.5c.1-20 8.2-34 14.6-51.7 6-16.7 5.3-34.4 5.6-63.9.4-33.7 23.1-56.3 50.7-70.8a21 21 0 0 1-3-3.8" clip-rule="evenodd"/><path fill="#d77d75" fill-rule="evenodd" d="M674.1 193c6.9 0 12.5 7.6 12.5 17s-5.6 17-12.5 17-12.4-7.7-12.4-17 5.5-17 12.4-17M792.6 205.9s-2.5 27.4 21 24.4c0 0-15.2-3-13.3-18.5l-1.6-2.8z" clip-rule="evenodd"/><path fill="#d77d75" fill-rule="evenodd" d="M809.9 185c9.3 0 16.8 8.9 16.8 19.9s-7.5 19.9-16.8 19.9-17.3-8-17.3-19 8-20.8 17.3-20.8" clip-rule="evenodd"/><path fill="#541138" d="M675.5 200c5.3 0 9.6 5.4 9.6 12s-4.3 12-9.6 12c-5.4 0-9.7-5.4-9.7-12s4.4-12 9.7-12"/><path fill="#79364e" d="M676.5 215.5c3.4-2.3 3.3-10 5.3-6.2 1.9 3.9.7 8.8-2.7 11.1s-7.7 1-9.6-2.9c-1.9-3.8 3.6.2 7-2"/><path fill="#fff" fill-rule="evenodd" d="M676 202.8c1.5 1.4 1.2 4.7-.6 7.3-1.9 2.7-4.6 3.7-6.1 2.2-1.5-1.4-1.2-4.7.6-7.3 1.9-2.6 4.6-3.6 6.1-2.2M681.5 215.8c.7.9.4 2.7-.8 4-1.1 1.3-2.7 1.6-3.4.7-.8-.9-.5-2.7.7-4s2.7-1.6 3.5-.7" clip-rule="evenodd"/><path fill="#928885" fill-rule="evenodd" d="M867.2 381.7c26.6-13.6 55.6-36.8 68.1-72.4 0 0 10.9-22 1.2-55.3q-6-20.7-11.3-40.9L920 219c-14.4 16.4-25.7 21.6-35.7 21.6q-3 0-5.8-.6c20.9 49.5 19.9 100.5-20.1 138.8-13.8 13.1.7 7.1 8.9 3" clip-rule="evenodd"/><path fill="#541138" d="M673.4 284.2s31.3 26.3-8 43.1l12.2 4s17.4-12.1 19-13.7c1.5-1.6 8-16.2 6.8-19.6-1.1-3.5-17.5-16.8-17.5-16.8l-13.6-2z"/><path fill="#6f2947" d="M679.4 278.3c13 16 16 40.3-5.4 50.7 0 0 16.6 7.8 20.2 11.2s76.7 42.6 129.4 3.4 28.3-85.3 28.3-85.3-6.3-19.2-23.4-17.5c-12.8 1.7-35.7 25-60.7 33.9-28.3 10-55.4 8.4-88.4 3.6"/><path fill="#541138" d="M681 278.1c13 16.1 16.2 39.5-5.2 49.9 0 0 1.8-.6 7.1 2.3 25.2-21 14.4-48 14.4-48-6.3-1-8.2-3-16.3-4.2"/><path fill="#632143" d="M700.9 344c19.8 10.1 78.4 32.5 122.7-.4 52.7-39.2 28.3-85.3 28.3-85.3s-6.3-19.2-23.4-17.5c-12.8 1.7-35.7 25-60.7 33.9q-11 3.9-22 5.6l-.1 3s24.2 40.5-36.4 57.3q-5.6 1.5-8.4 3.5"/><path fill="#964456" d="M679.4 278.3c13 16 16 40.3-5.4 50.7 0 0 3.9 1.8 9.2 4.6 23.3-20.8 8.5-50.2 8.5-50.2l-4-4z"/><path fill="#541138" d="M806.8 256c11.8 16.6 38.7 16.2 46.7-1 0 0-5.6-12.5-19-13.7-13.2-1.1-28.3 7.8-27.7 14.7M738.3 354.5s8-34.6 50-32.8c21-23.7 53.6-18.4 58.2 5l-2.5 3.7c-37.3 39.8-89.9 30.5-105.5 26.6q-.3-1.2-.2-2.5"/><path fill="#a12d56" d="M744.9 354.4s9.2-28.6 41.6-25.8l3.3-.1c10.8-14.8 26.4-18 36.4-15.3 10.4 2.7 16.6 11.4 16 19.1-32.5 32.7-75.4 30-96.1 26.3q-2.3-2.1-1.2-4.2"/><path fill="#b0375d" d="M765.6 332.8c5.1-2.5 10.7-4.3 12-1.9 3.9 7.5-9.4 16.2-20 11-1.2-2.4 3-6.7 8-9.1M800.6 319.6c5.8-3.5 13.8-5 15.5-2.2 1.8 2.8-3 8.3-8.7 11.8-5.8 3.6-13.8 4.4-15.5 1.5-1.7-2.8 2.9-7.6 8.7-11.1"/><path fill="#cc4f68" d="m787.2 328.6 2.6-.1c10.8-14.8 26.4-18 36.4-15.3q7 2 11 6.4c-20-8.9-45 4.3-55 22.5a204 204 0 0 1 5-13.6M744.9 354.4s9-28.4 41.2-25.9v.1s-28.7.7-34 28.2q-.1 1.4-.6 2.7l-5.4-.9q-2.3-2.1-1.2-4.2"/><path fill="#541138" d="M801.2 317.3s-11.2 7.5-19.6 26c0 0 1-10 6.5-19.2l4-3.7zM654.5 270.7c0 14.8 13.5 28.9 29.3 19.3l-.2-9.7z"/><path fill="#fff" fill-rule="evenodd" d="M660.1 274.3c0 9.4 9.9 18.9 19.8 12 0-2-1.4-3.9-1.4-6 0 0-12-3.8-18.4-6" clip-rule="evenodd"/><path fill="#a2a5b7" fill-rule="evenodd" d="M667.6 287.2c3.5 2 7.9 2.2 12.3-.8 0-2-1.4-4-1.4-6l-10.8-3.6c.9 3 1.5 7.1-.1 10.4" clip-rule="evenodd"/><path fill="#541138" d="M669.4 278c0 .8 9.7 23 26.6 23.5s23.6-10.8 23.6-10.8l.4-6.5s-42.9-7.4-50.6-6.3"/><path fill="#fff" fill-rule="evenodd" d="M675.6 279.8c0 .6 7.6 16.7 20.5 17.1s18-7.4 18-7.4l.3-5s-32.9-5.7-38.8-4.7" clip-rule="evenodd"/><path fill="#a2a5b7" fill-rule="evenodd" d="M705 295.7c6.4-2 9-6.2 9-6.2l.4-5s-19.2-3.3-30.9-4.5l-.1.8c1 .7 14.2.7 21.7 15M811.5 253.4c8.5 13.4 33.2 11.8 38.3-.5 0 0-4.6-10.1-15.4-11-10.7-1-23.3 6-22.9 11.5" clip-rule="evenodd"/><path fill="#541138" d="M710.5 285c5.9 14.5 18.5 19.5 31.1 18.2 14.4-1.4 28.6-11 27.7-27.1l-32 5.9z"/><path fill="#a2a5b7" fill-rule="evenodd" d="M717 284.4c4.3 10.5 15.3 13.8 24.5 12.9 10.5-1 22.5-7.9 21.8-19.5l-24.8 4.7z" clip-rule="evenodd"/><path fill="#fff" fill-rule="evenodd" d="M720 289.6c5.4 6.4 14 8.4 21.5 7.7 5.6-.6 11.6-2.8 16-6.5-13.8-6.6-30.8-3-37.4-1.2" clip-rule="evenodd"/><path fill="#541138" d="M763.2 277.7c6.5 14.8 24 14.5 35.8 9.4 13.2-5.7 24.7-18.3 16.6-37.3L788 266.6z"/><path fill="#a2a5b7" fill-rule="evenodd" d="M767.2 275a26 26 0 0 0 30 6.4c10.3-4.5 19.2-15.2 14-28.4l-22.1 13.7z" clip-rule="evenodd"/><path fill="#fff" fill-rule="evenodd" d="M773.4 280.1a27 27 0 0 0 23.8 1.3q6.6-2.9 11.2-8.6c-15.5-3.4-31.2 5-35 7.3" clip-rule="evenodd"/><path fill="#541138" d="M729.4 354.4c5-9.3 15-12.3 23.1-11.5 9.8 1 17.9 7.7 22.3 18.7 0 0-17.7 1.3-25.2-.7s-20.2-6.5-20.2-6.5"/><path fill="#fff" fill-rule="evenodd" d="M734.7 355.5c3.5-6.6 11.5-8 17.2-7.4 6.9.6 14 4.9 17 12.6 0 0-13.5.6-18.7-.8z" clip-rule="evenodd"/><path fill="#a2a5b7" fill-rule="evenodd" d="M734.7 355.5q1-2 2.6-3.3a55 55 0 0 0 28.7 3.4q1.8 2.3 3 5s-13.6.7-18.8-.7z" clip-rule="evenodd"/><path fill="#541138" d="M690.9 336.8a25 25 0 0 1 26.7-5.3c9.8 3.6 16.2 12.7 17.7 25.2 0 0-18.5-3.6-25.6-7.7-7-4.1-18.8-12.2-18.8-12.2"/><path fill="#fff" fill-rule="evenodd" d="M696 339.4c5.4-5.7 14-5 19.6-2.9a22 22 0 0 1 14 17.7s-14.1-3.2-19-6z" clip-rule="evenodd"/><path fill="#541138" d="M767 361.2c1.1-11 9.5-18.7 17.7-21.3 10-3 22.1.3 29.6 9.8 0 0-16.8 8.5-25 9.6-8 1-22.3 2-22.3 2"/><path fill="#fff" fill-rule="evenodd" d="M772.6 360c.8-7.7 8-12.3 13.8-14.1 7-2.2 15.6-1 21.8 5.3 0 0-13 6.2-18.7 7z" clip-rule="evenodd"/><path fill="#a2a5b7" fill-rule="evenodd" d="M772.6 360q.3-2.7 1.6-5c13.8.1 21.2-6.2 24.1-9.4q5.5 1.3 9.9 5.6s-13 6.2-18.7 7z" clip-rule="evenodd"/><path fill="#541138" d="M667.4 326.9s11.4-8.7 19.4-6.1 8.8 13.3 8.7 18.9l-12.4-6z"/><path fill="#fff" fill-rule="evenodd" d="M673.4 328.8s7-5.4 12.1-3.8 5.5 8.3 5.4 11.8l-7.7-3.7z" clip-rule="evenodd"/><path fill="#541138" d="M842.6 327.2s-4.6-2.2-10.6-3c-5.8-1-13.1-.5-17.8 2.4-9.3 5.8-8.6 20.8-6.6 28z"/><path fill="#fff" fill-rule="evenodd" d="M837.7 330.9s-12.5-4.8-19.8.2-6.8 15.4-5.5 20.2z" clip-rule="evenodd"/><path fill="#a2a5b7" fill-rule="evenodd" d="M837.7 330.9c-16-2-25.3 5.4-25.3 20.4z" clip-rule="evenodd"/><path fill="#541138" d="M836.4 330.8c-5.4-17.8-3.2-31.3 18.3-32.7 0 0 .6 12.3-8.2 23.3s-10.1 9.4-10.1 9.4"/><path fill="#a2a5b7" fill-rule="evenodd" d="M838.9 326c-3.3-11-.7-21.8 12.7-22.6-.4 6.3-7.6 21.2-12.7 22.5" clip-rule="evenodd"/><path fill="#541138" d="M655 268.7c43.4 18 109.6 12.6 145.5-15.5 14.7-11.6 23.3-18 33.4-16.5 12.5 1.9 26.8 15.8 28.7 41 3.4 45.4-35.7 80.8-78 86.6-28 3.8-62.4-3.3-88.7-19.6-13.2-8.1-26.7-17-46.2-16.7 0 0 8.9-4 22.5-1.7 13.6 2.5 60.3 42.3 116.7 29.1s66.8-56.7 65.7-76.7c-.7-11.2-5.3-24-12-30-6.6-5.8-14.9-7.1-25.6 1-11.2 8.4-29.5 23.9-59.3 31.8-23.3 6.3-73.2 10-103.6-9.6-6.5-4.2-7.6-6.7.9-3.2M878.3 117.5s7.9 23.7-6 39.3c0 0 9.5 1.2 15.8-10.6s-9.8-28.7-9.8-28.7M856 52.1s10.5 12.8 28.6 11.3c0 0-5.5 8-19.3 5-14-2.8-9.2-16.3-9.2-16.3"/><path fill="#541138" d="M746.8 114.8c-32.8-1.8-55.7-21.2-55-47.3.5-21 12.8-34.2 28-42 13.6-7 28-9.2 40.1-8.6 21.5 1.1 38 9.5 49-4.6 2-2.7 3.7-3 5.2-2.6 4.4 1 7.2 13.2 4.6 21.2 45.8 8.5 38 44 84 41.8 15.4-.7 16.2 16.4 1.9 19.4 0 0 8.4 5.2 33 3.4 15-1 27.5 9.3 18.8 24.5 0 0 43.3 31.3 11.6 74.2L929.9 234s-33.4-5.4-20.8-35c-51.7-10.7-6.1-72.2-43.6-95.2-32.1-19.6-72.8 13.7-118.7 11"/><path fill="#79505f" fill-rule="evenodd" d="M746.5 107.5c-56-4.1-65.5-67.5-5.5-80.7 0 0 17-4 40.5.3 0 0 16 3.5 26.8-5.2 1.7-1.5 2.8-2.8 3.8-2.4s2 2.2 1.8 5.7a31 31 0 0 1-3.7 10.6c42.4 2.4 38.8 42.3 89.5 43.3 12.8.3 8 8-5.6 10.5l-3.5 1.3s15 13.6 45.9 11.4c9.8-.7 14.1 3.4 14.7 8 1 7.3-7.7 15.9-25.2 10.1 0 0 8.3 11.3 24.6 6.3 0 0 43.5 27 6.3 71.7l-31 28s-20-2-10.6-26.7c0 0 15.8-1.7 15.6-17.9-6 8.1-15.2 10.4-22.9 9.2-24-3.5-19-29.6-19.1-46.9 0-19.5-4.3-33-14.1-41.7a46 46 0 0 0-30-10.9c-17-.7-33.2 5-50 9.9-15.2 4.4-30.1 8.6-48.3 6.1" clip-rule="evenodd"/><path fill="#875d6b" fill-rule="evenodd" d="M709.2 52.4c-4.1.4-6.4 7-6.7 14.8-.4 7.9 1.4 14 5.6 13.6s9-7.2 9.4-15c.3-7.9-4.1-13.8-8.3-13.4M768.3 28.4S763 47.7 714 46.8c0 0 .8-11.7 17.3-15 16.5-3.2 24-4.4 37-3.4" clip-rule="evenodd"/><path fill="#a37a84" fill-rule="evenodd" d="M707.8 89c-16.2-21-7.5-53.2 33.2-62.2 0 0 17-4 40.5.3 0 0 16 3.5 26.8-5.2 1.5-1.3 2.5-2.5 3.5-2.4-5.8 14.5-27 12-38.8 10.9-10.8-1.1-23-1-35.5 2.6-29.9 8.6-39.2 34.6-28.9 56.1.4.8 2.9 1.7 2.5 1.5-.2-.2-1 1.4-3.3-1.7" clip-rule="evenodd"/><path fill="#643451" fill-rule="evenodd" d="M746.5 107.5C726.3 106 712 96.8 705 85c3.3 3 9.7 6.7 19 .7 0 0 11.7 16.1 27.8 1.3 5.7 6.5 15.1 5.4 15.6-4.7C787.2 101 843.8 92.8 851 57c11 10.7 22.7 21.5 48.7 22 12.8.3 8 8-5.6 10.5l-3.5 1.3s15 13.6 45.9 11.4c9.8-.7 14.1 3.4 14.7 8 1 7.3-7.7 15.9-25.2 10.1 0 0 8.3 11.3 24.6 6.3 0 0 43.5 27 6.3 71.7l-31 28s-20-2-10.6-26.7c0 0 16-1.7 15.6-17.9-10 7.3-21.2 3.9-27 .7-11.5-6.3-9.7-22-9.2-38.8.5-19.5-10-32.6-20-41.3a46 46 0 0 0-30-10.9q-10.6-.3-21.2 2.1c-9.7 2-19.4 5-28.7 7.8-15.2 4.4-30.1 8.6-48.3 6.1" clip-rule="evenodd"/><path fill="#875d6b" fill-rule="evenodd" d="M808.6 41.1c13.7-1.9 24.7.9 24.7 6.2s-11 11-24.7 12.9-24.7-.9-24.7-6.2 11-11 24.7-12.9" clip-rule="evenodd"/><path fill="#a37a84" fill-rule="evenodd" d="m810.8 34.6-.6 1.2a51 51 0 0 1 34.1 15C808.7 26.6 773 58 773 58c11.8-15 28.2-21 37.8-23.4" clip-rule="evenodd"/><path fill="#541138" d="M880.8 81.5s7.8 10 17.9 14.4l1.3-4.5s-5.6-1.4-19.2-10M828.3 39.8a43 43 0 0 0-25.8 0 57 57 0 0 0-29.7 18.5s11.5-24.7 42-27.3l11.3 4zM766.4 75.6s1.7 25.7 26.8 26.9l-11.8 5s-18-9.2-15-32M723.7 60.7s-11.8 36 16.8 50.8l7.3-3.7s-29-9.9-24-47.1M758 56.7s-12.6 24.9 3.3 45c-15.4-9.8-16.8-29.2-3.3-45M967.5 144.9s6 13.8-9.1 26.2c0 0 13.3-1.6 16.6-14.4l-.2-5zM748 261.6c13 13.8 37 6.4 34.2-13 0 0-7.3 11.6-34.1 13M698.8 265.4c-9.4 14.8-31.2 11.2-32-6.8 0 0 11.2 9.7 32 6.8M715.1 376s11.5 24.3 13 25c1.3.9 13-22.7 13-22.7s-10.3-5-26-2.2"/><path fill="#541138" d="M705.8 377.1s24.6.6 48 8.2c-9-13.6-36.8-18.3-48-8.2M808.8 195.7c6.7 0 12 5.9 12 13.1 0 7.3-5.3 13.1-12 13.1s-12.1-5.8-12.1-13 5.4-13.2 12-13.2"/><path fill="#79364e" d="M810 212.6c4.3-2.5 4.3-10.9 6.7-6.7s1 9.6-3.3 12a9 9 0 0 1-12-3c-2.5-4.3 4.4.2 8.7-2.3"/><path fill="#fff" fill-rule="evenodd" d="M809.5 198.8c1.9 1.5 1.5 5.1-.8 8s-5.8 4-7.7 2.4-1.5-5.1.8-8 5.8-4 7.7-2.4M816.4 213c.9 1 .5 2.9-1 4.3s-3.4 1.8-4.4.8c-.9-1-.5-3 1-4.3 1.5-1.5 3.4-1.8 4.4-.9" clip-rule="evenodd"/><path fill="#541138" d="M834.4 202.5s4.2 20.7-12.3 26.3c0 0 12 .4 15.9-7.4 3.8-7.9-3.6-19-3.6-19M979.4 209.9s-2 17.9 12.5 21.3c0 0-10.2 1.4-14-5-4-6.4 1.5-16.3 1.5-16.3M722.5 168.8s-31 5.3-24.4 45l64 4.2s1.3-29.3-3.9-46c0 0-14-5.7-35.7-3.2"/><path fill="#fba39b" fill-rule="evenodd" d="M721.7 169c-7.8 3.6-20.7 13.7-18.6 40.6l64 12.8s-1.3-33.4-10.4-52.7c-6-3.3-26-5-35-.8" clip-rule="evenodd"/><path fill="#fbbfb0" fill-rule="evenodd" d="M721.7 169a32 32 0 0 0-17.7 23.8c-.1.4 2.5 5.5 2.5 5.5l19.5-2.8c-9.8 0-14.5-2.9-15.8-6.8-2-5.6 3.4-14 11.5-19.8" clip-rule="evenodd"/><path fill="#e77378" fill-rule="evenodd" d="M704 192.3a59 59 0 0 0-.9 17.3l45.3 9c4.1-7 13.9-27.1-2.3-29.4-26.1 10.2-38.2 5.4-42 3.1" clip-rule="evenodd"/><path fill="#c64d60" fill-rule="evenodd" d="m745.3 217.9 21.2 4.4.6-.7c0-10.3.3-39.2-10.4-51.9-16.3 8.3-15.5 36.4-11.4 48.2" clip-rule="evenodd"/><path fill="#b03554" fill-rule="evenodd" d="m745.3 217.9 21.2 4.4.6-.7V211c-26.2-10.6-14.6-38.2-11-41-15.7 8.8-14.8 36.3-10.8 47.9" clip-rule="evenodd"/><path fill="#541138" d="M690.7 213.9s-15.2-5.4-21.3 10.3c-6.1 15.6 10.3 32.4 30.3 27.3s1.1-35-9-37.6"/><path fill="#fa8888" fill-rule="evenodd" d="M690 219.2s-11-3.9-15.3 7.4c-4.4 11.2 7.4 23.3 21.8 19.6s.8-25.2-6.5-27" clip-rule="evenodd"/><path fill="#ffccbf" fill-rule="evenodd" d="M690 219.2s-11-3.9-15.3 7.4q-1.1 2.8-1 5.5c1-3.7 5-12.4 20.6-10.3a11 11 0 0 0-4.3-2.6" clip-rule="evenodd"/><path fill="#c64d60" fill-rule="evenodd" d="M674 233.7c1.4 8.6 11.1 15.4 22.5 12.5q5.1-1.5 6-5.3a41 41 0 0 0-13.1-9c-10.6-4.6-14.2-1.2-15.5 1.8" clip-rule="evenodd"/><path fill="#541138" d="M693.3 247s-2.4-4-7-6.6c-4.9-2.7-8.7-2.4-9.2-3.5-.7-1.7 3.4-4 9.2-2.4 3.5.9 7.5 3.5 10.4 10 5.3 11.4-3.4 2.5-3.4 2.5"/><path fill="#541138" d="M727 199.9c-27.2-2.4-40.7 11.4-43.9 27.2-3 14.8 3.2 31.4 18.2 37.7 19 8 47.6 1.1 59.2-16.3 27-2.7 23.7-30.2 10-38.4-7.2-4.3-19.8-5-28.8.9 0 0-1.2-7.3-14.7-11.1"/><path fill="#fa8888" fill-rule="evenodd" d="M721 199.3c-23.8 3.1-31.9 19.3-31.7 33.8.3 17 12 30.4 33.8 27.5a54 54 0 0 0 34.8-18c1.6-1.6 4-7.6 6.2-9.5 2.2-1.8 4 .4.7 8.4-.3 1.5 6.4-1.6 9-7.5 3.6-8.1-2.5-18-10.2-21-6.2-2.4-18-2-26.8 4.3 0 0 1.4-3.7 6-7-2-8-13.1-12.2-21.9-11" clip-rule="evenodd"/><path fill="#fba39b" fill-rule="evenodd" d="M710.6 201.8c30.5 15.7.5 25.9-17.2 30 0 0-2.3-19.8 17.2-30" clip-rule="evenodd"/><path fill="#ffccbf" fill-rule="evenodd" d="M716.8 200c-20.6 4.4-27.7 19.5-27.5 33q0 2.6.4 5c2.1 13.4 20.5 16 33 14.2 17-2.4 28-19.8 40.4-27.6-14.9-1-22.2 16-45 18.6-15.3 1.8-22.2-5.4-23-13.6-1-10.8 6-24.7 21.7-29.6" clip-rule="evenodd"/><path fill="#c64d60" fill-rule="evenodd" d="M689.7 237.9c2.3 14.6 13.7 25.3 33.4 22.7a54 54 0 0 0 34.8-18c1.6-1.6 4-7.6 6.2-9.5 2.2-1.8 4 .4.7 8.4-.3 1.4 6.3-1.6 9-7.4-.2-5.7-2.3-10.3-10.7-9.9-14.5.7-19.2 22.3-46.6 23.6-14.5.7-23.4-4-26.8-10" clip-rule="evenodd"/><path fill="#fba39b" fill-rule="evenodd" d="M750.5 213.4c5.3-.9 9.5 0 9.5 2.1 0 2-4.2 4.5-9.5 5.4-5.2.8-9.5 0-9.5-2.1s4.3-4.5 9.5-5.4" clip-rule="evenodd"/><path fill="#541138" d="M703.2 109s10 18.7 43.1 17.5c0 0-27.5-2.6-37-21l-2-.7zM919.4 230.9c0-22.1 15-37.8 33.5-41a36.3 36.3 0 0 1 43.5 30.8 44.3 44.3 0 0 1-45.2 53.1c-5.4-.2-18.6-3-21-14v-10z"/><path fill="#eb6a73" fill-rule="evenodd" d="M926.8 215c13.7-18.4 43.6-22.5 55.2-5.6 4.4 6.5 6.3 14 6.1 21.3a39 39 0 0 1-11 26.3c-11.3 11-35 14.5-47.3 4.1-12.5-10.4-12.5-33.4-3-46.1" clip-rule="evenodd"/><path fill="#fa8888" fill-rule="evenodd" d="M958.4 200.6c13.6 0 24 9.7 24 15.6s-11.1 5.3-24.7 5.3-24.7.6-24.7-5.3 11.8-15.6 25.4-15.6" clip-rule="evenodd"/><path fill="#b03554" fill-rule="evenodd" d="M957 215.2c10.5 0 15.4 8.6 15.4 20s-12 18.9-22.5 18.9-14.4-7.3-14.4-18.7c0-11.5 11-20.2 21.5-20.2" clip-rule="evenodd"/><path fill="#eb6a73" fill-rule="evenodd" d="M945.9 223.6c7.2 0 13 6.9 13 15.4s-5.8 15.3-13 15.3-14.3-6.8-14.3-15.3 7.1-15.4 14.3-15.4" clip-rule="evenodd"/><path fill="#b03554" fill-rule="evenodd" d="M934.7 241s4.2-15 18-13l-11.8-4.6s-4.4 4.4-6.2 17.5" clip-rule="evenodd"/><path fill="#541138" d="M934.6 242.7c4-30.3 38.7-30.6 36.7-1.2 13.5-36.8-41.3-37.5-36.7 1.2"/><path fill="#541138" d="M940.4 227c10.6-2.2 16.3 4 17 11.1.8 6.8-2.8 14.4-15.3 16.4 24.2 3.3 30-32 3.5-33.3-.7.2-2 1.2-2.5 1.4z"/><path fill="#fa8888" fill-rule="evenodd" d="M951.7 230c3 2 4.5 6.5 3.7 9.4s-3.8 3.7-6.8 1.5c-3-2.1-4.8-6.2-4-9.2s4-3.9 7-1.8" clip-rule="evenodd"/><path fill="#b03554" fill-rule="evenodd" d="M935.4 244c1.5 11.7 17.4 10.1 19.3-.6 0 0-8.4 7.3-19.3.6" clip-rule="evenodd"/><path fill="#b03554" fill-rule="evenodd" d="M924.2 250.6c12.2 21 40.8 17.4 53 2.5-16.2 8.2-37.2 10.3-53-2.5" clip-rule="evenodd"/><path fill="#875d6b" fill-rule="evenodd" d="M737.7 56c4.6.5 6.2 7.9 5.3 16.7-1 8.9-4 15.8-8.5 15.4-4.7-.5-9.1-8.2-8.2-17 .8-9 6.8-15.6 11.4-15.1M760.1 62.8c2.2 0 3.5 4.5 3 10.1S760.1 83 758 83c-2.2 0-3.5-4.5-3-10 .6-5.7 2.8-10.2 5-10.2M830 57.8c5.5-2.4 10.6-2.7 11.5-.6.9 2-2.8 5.6-8.2 8-5.5 2.4-10.6 2.6-11.5.6s2.8-5.6 8.2-8" clip-rule="evenodd"/><path fill="#79505f" fill-rule="evenodd" d="M931.8 104.3c7 0 12.6-.7 12.6 2 0 2.6-5.6 7.5-12.6 7.5s-12.7-4.9-12.7-7.5c0-2.7 5.7-2 12.7-2M958.6 138.3c3.2 0 7.7 7 7.7 14.6s-4.5 12.7-7.7 12.7-3.8-5.2-3.8-12.7c0-7.6.6-14.6 3.8-14.6" clip-rule="evenodd"/><path fill="#541138" d="M818.2 151.2c-16.7-34.2-56.5-21.3-43.7 7.6 0 0-9-1-6.8 9.7 3.4 16.1 22.8 22 41.4 21.3s37.5-7.4 37.7-17.8c0-7.4-9.4-9.2-13.8-7.4 0 0-.2-15.5-14.8-13.4"/><path fill="#79505f" fill-rule="evenodd" d="M817 164c-2-10-7.8-17-12.9-21.1-16.8-13.6-35 2-20.7 23.7 0 0-3.6.1-6.5-3 0 0-4.5-1.7-3.3 4.5s11 15.8 32.2 16.2 31.8-6.7 33.8-9.8 1-7.5-8-5.4c0 0-2 2.7-4.5 4.3 2.4-7.7 1.8-18.2-8.4-16.9 0 0 .5 4.4-1.6 7.5" clip-rule="evenodd"/><path fill="#875d6b" fill-rule="evenodd" d="M793.7 141c7 0 12.9 4.3 12.9 9.4s-5.8 9.4-13 9.4c-7 0-12.9-4.2-12.9-9.4 0-5.1 5.8-9.3 13-9.3" clip-rule="evenodd"/><path fill="#a37a84" fill-rule="evenodd" d="M816.3 161a38 38 0 0 0-12.2-18.1c-16.8-13.5-34.9 1.9-21 23.4-.7-2.2-5.8-19.2 6-22 11.7-3 22.6 8.6 27.2 16.8m-34.2 5.5c-1.3-.3-3.4-1-5.2-3 0 0-4.5-1.6-3.3 4.6q.8 3.9 5.7 8.1c-2.8-4.4-4.4-9.5 2.8-9.7" clip-rule="evenodd"/><path fill="#643451" fill-rule="evenodd" d="M794.6 183q5 1.2 11.2 1.3c21.2.4 31.8-6.7 33.8-9.8s1-7.5-8-5.4c0 0-2 2.7-4.5 4.3 2.4-7.7 1.8-18.2-8.4-16.9 0 0 .4 4.3-1.5 7.3-1.1 7-5.6 17.6-22.6 19.3" clip-rule="evenodd"/><path fill="#541138" d="M812.6 174.8s-9.6 9.3-23.7 7.3l10 3.6s9.7-1.2 13.7-11"/><path fill="#d77d75" fill-rule="evenodd" d="M704.3 171.7c-.3 26.7-30.5 32-49.2 24l.1-12.6.2-4.4c8.7-2.2 18.4-4.6 19.5-5 2-1 22-14.2 29.4-2" clip-rule="evenodd"/><path fill="#541138" d="M665.2 157.3c8.6-31.5 45.8-22.2 35.3 6.7 0 0 7.4-.5 5 9.6-3.7 15-18.8 21-33.1 20.4s-28-6.2-29-16.1c-.7-7 6.2-10.8 10.2-8.6 0 0-.7-13.6 11.6-12"/><path fill="#79505f" fill-rule="evenodd" d="M665.9 169.2a38 38 0 0 1 10.1-20.5c13.2-13 27.5 2 16.2 23 0 0 2.8.2 5.1-2.9 0 0 3.6-1.6 2.6 4.4s-8.7 15.3-25.2 15.7c-16.6.4-24.8-6.5-26.4-9.5s-.8-7.3 6.2-5.2c0 0 1.5 2.6 3.5 4.1-1.8-7.5-1.3-17.7 6.6-16.3 0 0-.3 4.2 1.3 7.2" clip-rule="evenodd"/><path fill="#a37a84" fill-rule="evenodd" d="M657.8 177.3c-1.5-7.3-.8-16.6 6.8-15.3v2.5c-6.5 2.1-6.8 10.5-6.8 12.8" clip-rule="evenodd"/><path fill="#875d6b" fill-rule="evenodd" d="M691.3 147.5s.3 14.9-22.4 14.1c0 0 2.8-8.5 11.2-13s11.2-1 11.2-1" clip-rule="evenodd"/><path fill="#a37a84" fill-rule="evenodd" d="M666 168.3a38 38 0 0 1 10-19.6c7.3-7.2 15-5.8 18.4.5-18.3-7.2-27.2 16-28.4 19.1" clip-rule="evenodd"/><path fill="#643451" fill-rule="evenodd" d="M694 148.4c3.2 5 3.5 13.5-1.8 23.3 0 0 2.8.2 5.1-2.9 0 0 3.6-1.6 2.6 4.4s-8.7 15.3-25.2 15.7c-8 .2-14.1-1.3-18.4-3.3 11.2-.4 33.6-15.7 37.7-37.2" clip-rule="evenodd"/><path fill="#541138" d="M672.3 179s-10.4 7.5-20.5 5.5l5.4 4.1s9.5-1.2 15.1-9.5"/><path fill="#79505f" fill-rule="evenodd" d="M682.2 175.8c7.2-5.2 14.3-.5 5.5 6-3.8 2.7-8 3-9.4 1.4-1.3-1.5.4-4.8 4-7.4" clip-rule="evenodd"/><path fill="#766e75" fill-rule="evenodd" d="M879.2 280.6a3.4 3.4 0 1 1 0 6.7 3.4 3.4 0 0 1 0-6.7m-228.7 11a1.9 1.9 0 1 1 0 3.7 1.9 1.9 0 0 1 0-3.7m-5 7.3a3.4 3.4 0 1 1 0 6.7 3.4 3.4 0 0 1 0-6.7m28.8 66a2 2 0 1 1 0 4 2 2 0 0 1 0-4m-3.7-12.7a3.4 3.4 0 1 1 0 6.7 3.4 3.4 0 0 1 0-6.7M770 397a2.2 2.2 0 1 1 0 4.4 2.2 2.2 0 0 1 0-4.4m49-24a2.2 2.2 0 1 1 0 4.4 2.2 2.2 0 0 1 0-4.4m14.8-6.3a3.4 3.4 0 1 1 0 6.7 3.4 3.4 0 0 1 0-6.7m35-110a2 2 0 1 1 0 4 2 2 0 0 1 0-4m10 39a2 2 0 1 1 0 4 2 2 0 0 1 0-4m33-28.2a2.2 2.2 0 1 1 0 4.4 2.2 2.2 0 0 1 0-4.4m-7 58.1a3.4 3.4 0 1 1 0 6.8 3.4 3.4 0 0 1 0-6.8m19.4-52.2a3.4 3.4 0 1 1 0 6.7 3.4 3.4 0 0 1 0-6.7" clip-rule="evenodd"/><path fill="#fff" fill-rule="evenodd" d="M830.7 255.1c4.8 0 8.6 1.3 8.6 3s-3.8 3-8.6 3-8.6-1.4-8.6-3 3.9-3 8.6-3M842.3 308.5c1.1 0 1.5 2 .9 4.6s-2 4.6-3.2 4.6-1.6-2-1-4.6 2.2-4.6 3.3-4.6" clip-rule="evenodd"/><path fill="#fff" d="m1154.6 164.4.6-.7c2.4-2.7 7.3-4.8 10.7-5.8 4-1.2 9-2 12.8-.2s6 5.8 6.1 10q0 5.3-3 9.4 1.1 2 1.6 3.7l.3 1.3-.4 1.4-.5 1.6a35 35 0 0 1 17.7 11.4l.2.3.7.9.1.2.8 1.1 3 4.5q1.5 2.2 2.7 4.5a24 24 0 0 1 21.2 6.5q.7.6 1 1.1l1 1.1.2.2.7 1v.1l.2.1 3 4.5c3 4.5 4.5 9.9 4.6 15.3a17 17 0 0 1-6.3 13.5c-3 2.5-5.6 6.2-7.8 9.8l1.3 1.8 3 4.5a26 26 0 0 1 3.8 8.2c4.2 16.5-7.6 33.4-23.2 38.1a43 43 0 0 1 3.6 9q7.4 3.2 12.1 9.8l.4.5 3 4.5q4.2 6.1 5 13.3a28 28 0 0 1-7.4 22.1q.8 4.3.5 8.7a37 37 0 0 1-17 27.1q2.7 6.8 1.2 14.1a26 26 0 0 1-26.5 20.3 17 17 0 0 1-13.6-7l-.2-.3c-13 2.8-25.9 8.5-38 13.5-10.5 4.2-20.9 8.4-31.8 11.5-16.1 4.4-35.4 6.6-49.7-3.5a36 36 0 0 1-21 4c-9.6-1-18.2-5.7-23.6-13.7l-3-4.5-.1-.1q-4.3-6.5-5.4-14c-1.8-12 .8-24.8 4.7-36.4-5-2-9.5-5.1-12.6-9.8l-3-4.4-.5-.7a29 29 0 0 1-2.5-23.7 48 48 0 0 1 16.6-22.4 101 101 0 0 1 19.5-12.7l-1.5-2.2-.9-1.4a30 30 0 0 1-4.2-13.7q-6-3-9.9-8.7l-3-4.4a33 33 0 0 1-5.3-16.9c-.5-11.4 5.5-23 15.7-28.6q2.1-1.1 4.2-1.6l-.1-.3-.4-1.3v-.5q-.2-.6-.3-1.3v-.4l-.3-1.4v-.3l-.1-1.5v-3.7c1.1-13.1 10.8-24 24.2-24.9a17 17 0 0 1 14.5 6h.4c-.1-3 1.3-6.2 3.5-8.4q-1-2-1-4.4c-.3-6.4 4.8-12.4 10.2-15.2 3.8-2 10-3.5 14-1.7l.4-1.5 2.7-1q4.5-1.5 9.2-2.6 4.6-1.3 9.3-2.1l3-.6 1.3-.6c-.8-3.3.7-6.8 3.2-9.1q1.7-1.5 4-2.3 2-.6 4.3-.7l3-.1 1.1-.7h1.5q2.4 0 4.3 1.4a7 7 0 0 1 2 7.5q.8.4 1.3 1 4.6-5.2 11.7-7c4-1.1 8-1 11.2.6"/><path fill="#442333" d="m1026.3 318.6-1.5-2.2-.8-1.3q-3.6-6-4-12.9-5.7-2.9-9.4-8.2l-2.8-4.2a31 31 0 0 1-5-15.6v-.4a30 30 0 0 1 14.9-27q1.8-1.2 3.9-1.6l-.1-.3-.3-1.2-.1-.4-.3-1.3v-.4l-.2-1.3v-.3l-.2-1.5v-3.4h.1a25 25 0 0 1 23-23.6 16 16 0 0 1 13.6 5.7l2.6-.4c15.6-2.8 30.8-9.6 46-14.2a253 253 0 0 1 61-12.2c10.6-.5 21.1 3.3 28.2 11.3l.2.1 1.5 2 .1.1.8 1 2.9 4.3 2.4 4.3a22.8 22.8 0 0 1 21.1 7.2l1 1v.2l.8 1 .1.2 2.9 4.2a26 26 0 0 1 4.3 14.5q0 7.7-5.9 12.8a38 38 0 0 0-7.4 9.2l1.3 1.7 2.8 4.3q2.4 3.6 3.5 7.7c4 15.7-7 31.6-21.9 36.1a41 41 0 0 1 3.4 8.5q7 3 11.5 9.3l.4.5 2.8 4.3a28 28 0 0 1 4.8 12.6 26 26 0 0 1-7.1 20.9q.8 4.1.5 8.2a35 35 0 0 1-16.2 25.7q2.7 6.4 1.2 13.3a25 25 0 0 1-25 19.2q-8-.3-13-6.6l-.1-.3c-12.2 2.6-24.5 8-36 12.7-10 4-19.7 8-30 11-15.3 4.1-33.6 6.2-47.1-3.3-6 3.3-13.4 4.5-20 3.8-9-1-17-5.5-22.2-13l-3-4.3v-.1q-4-6.1-5-13.3a75 75 0 0 1 4.4-34.4q-7.4-2.7-12-9.2l-2.9-4.2-.4-.7a27 27 0 0 1-2.3-22.5 45 45 0 0 1 15.6-21.1q8.6-7.1 18.6-12"/><path fill="#4b6b56" fill-rule="evenodd" d="m1198.5 401.3.4.5c8.3 12.3-1 29.3-17.4 29a11 11 0 0 1-9.3-5.1l-1.5-2.2-2.7.4c-12.4 2.5-25.6 8.3-37.3 13-20.6 8.4-55.2 23.3-74.6 6.3l-.2-.1c-5.3 4.2-13 5.6-19.6 5-8-1-14.5-5-18.6-11l-2.9-4.2v-.1q-3.4-4.9-4.3-11.2a76 76 0 0 1 6-36.9 21 21 0 0 1-14.3-8.6l-2.9-4.2q0-.2-.3-.5a22 22 0 0 1-1.8-18.4c2.4-7.8 8-13.5 14.1-18.7a99 99 0 0 1 22.8-13.9l-2-2.5-2.9-4.2-.7-1v-.1q-3.5-6-3.3-13.6-6.4-2.1-10.1-7.7l-2.9-4.2a26 26 0 0 1-4.2-13v-.3c-.3-9 4.3-18.1 12.3-22.5q4.9-2.5 9.8-.5l-.8-1.2-.1-.3-.4-.5-.4-.7-.7-1.3-.2-.5-.3-.8-.2-.5-.3-.9-.2-.4-.2-1-.1-.3-.2-1v-.3l-.2-1.1v-.2l-.1-1.2v-2.8c.8-9.6 7.7-18.3 18.3-19q5-.3 8.7 3.2l1.7 2 .5.8 5.8-.8c15.4-2.7 31.4-9.7 46.5-14.3 19-5.7 39.7-11.1 59.6-12a30 30 0 0 1 24.8 10.5l.2.2.5.7.2.2.6.8 2.9 4.3a30 30 0 0 1 3.6 7.3c7.6-2.7 14.7-.9 19.5 3.8l.8.8.7.9v.1l.7.8v.1l2.9 4.2a21 21 0 0 1 3.5 11.7q0 5.4-4.2 9a49 49 0 0 0-10.3 13.7q2 1.6 3.3 3.7l2.9 4.2q1.9 2.9 2.8 6.2c3.9 15.4-10.2 31-25.4 31l2 3a36 36 0 0 1 5.5 13 21 21 0 0 1 11.6 8.4l.3.4 2.9 4.2a23 23 0 0 1 3.9 10.3q.5 4.5-1 9a23 23 0 0 1-6.7 9.9l.3 1c3.8 12.9-5.2 27.2-17.1 32.2" clip-rule="evenodd"/><path fill="#442333" d="M1198.2 397.8q3.8 6.4 2.2 14-1.6 7-7.3 11.7a22 22 0 0 1-14.5 4.8 13 13 0 0 1-11.5-7.1l-1.6.2q-10 2.3-19.5 6-8.9 3.3-17.5 7c-9.8 4-19.5 7.9-29.7 10.7a89 89 0 0 1-19.8 3.4c-6.3.2-12.7-.5-18.6-3a32 32 0 0 1-7.4-4.4 30 30 0 0 1-19.7 4.4 27 27 0 0 1-24.5-23.6c-2-13 1.9-27.2 6.6-39.3-15.8-1.8-24.5-14.3-19.8-30a42 42 0 0 1 14.6-19.6 98 98 0 0 1 21.8-13.5q-1.8-1.5-3.2-3.3c-4.3-5.5-6-12.4-5.2-19.2-10.7-2.7-16.6-11.8-17.3-22.8v-.4a27 27 0 0 1 13.2-24q3.3-1.9 7-1.6c-7-13.7 1-32 17.4-33.1a13 13 0 0 1 12 5.8l4.5-.6c8.5-1.5 17-4.3 25.1-7.1q10.5-3.8 21.2-7.2a249 249 0 0 1 60-12 33 33 0 0 1 20.2 5.4 30 30 0 0 1 12.3 18.5c14-4.8 27.2 4.7 27.4 20q0 6.1-4.8 10.3a48 48 0 0 0-9.7 13.4q6.8 4.6 8.9 12.7c3.9 15.3-8.7 31-23.8 33a37 37 0 0 1 6.4 16.6c9.7 2 17.2 11.3 18.3 21a23 23 0 0 1-7.5 19.5q1.3 4.3.9 8.9c-1 10.2-8 19.9-17 24.5"/><path fill="#9c6" fill-rule="evenodd" d="M1195.6 397c9 12.4-.4 29.9-17 29.6q-5.5-.2-9-4.6l-1.5-2.7q-1.7.1-3 .4c-12.3 2.5-25.6 8.3-37.3 13-20.6 8.4-55.1 23.2-74.6 6.3l-.2-.2c-5.2 4.3-13 5.7-19.5 5a25 25 0 0 1-23-22.2c-2-12.8 2-26.9 6.7-38.7l.7-2h-.9c-15.5-1-24.3-12.7-19.8-27.9 2.4-7.8 8-13.5 14.1-18.7 6.9-5.8 15.4-10.6 24-14.5a24 24 0 0 1-9.7-24.2c-10.1-1.8-16.8-9.8-17.5-21.5v-.3c-.4-9 4.2-18.1 12.2-22.5q4.9-2.6 10-.5l-.5-.5c-9.5-12.8-2-32.4 14.2-33.5q5-.3 8.7 3.2 1.4 1.3 2.2 2.8c2-.1 4.6-.6 5.8-.8 15.4-2.7 31.4-9.7 46.5-14.3 19-5.7 39.7-11.1 59.6-12a29 29 0 0 1 31.1 24.7c13.8-6.2 26.8 3 27 17.5q0 5.3-4.2 8.9a52 52 0 0 0-11.2 15.4l1.5.9q6.2 4.3 8.3 11.6c4 15.5-10.3 31.2-25.6 31a35 35 0 0 1 8.3 19.8c9.4 1 17 10.1 18.1 19.5q.5 4.5-1 9a23 23 0 0 1-6.7 9.9l.3.9c3.8 13-5.1 27.2-17 32.3" clip-rule="evenodd"/><path fill="#bfe975" fill-rule="evenodd" d="M1012.4 258.5q3-4.5 8-7.2 4.7-2.6 9.8-.5l-.4-.5c-9.5-12.8-2-32.4 14.2-33.5q5-.3 8.7 3.2 1.4 1.3 2.2 2.8c2-.1 4.6-.6 5.8-.8 15.4-2.7 31.4-9.7 46.5-14.3 19-5.7 39.7-11.1 59.6-12a29 29 0 0 1 31.1 24.7c13.8-6.2 26.8 3 27 17.5q0 5.3-4.2 8.9a52 52 0 0 0-11.2 15.4l1.5.9q6.2 4.3 8.3 11.6 1.4 5.9-.2 11.5z" clip-rule="evenodd"/><path fill="#e7ff93" fill-rule="evenodd" d="M996.6 365.6q-1.3-5.6.6-12.6c2.4-7.8 8-13.5 14.1-18.7A98 98 0 0 1 1033 321q1.3 1.2 2.9 2.3c-8.7 4-17.3 8.7-24.1 14.5a41 41 0 0 0-14 18.7q-1.5 4.9-1.2 9.1m29.1-60q-.6-3.3-.5-6.7l1 .2q-.7 3.3-.5 6.5m-17.1-27.3q-.4-2-.6-4.2v-.3c-.3-9 4.3-18.1 12.3-22.5q3.8-2 7.9-1.1a21 21 0 0 0 2.5 4.1 11 11 0 0 0-9.9.5 25 25 0 0 0-12.3 22.4v.4zm17.6-36c-2.7-11.6 4.7-24.6 17.8-25.5q5-.3 8.7 3.2 1.4 1.3 2.2 2.8c2-.1 4.6-.6 5.8-.8 15.4-2.7 31.4-9.7 46.5-14.3 19-5.7 39.7-11.1 59.6-12a29 29 0 0 1 31.1 24.7c13.3-6 26 2.4 26.9 16.1-2.6-11.6-14.2-18.1-26.4-12.7q-.5-3-1.5-5.6a29 29 0 0 0-29.6-19c-19.9.9-40.6 6.2-59.6 12-15.1 4.5-31.1 11.6-46.5 14.3l-5.8.8a12 12 0 0 0-11-6c-11.7.8-18.9 11.4-18.2 22m185 21a20 20 0 0 1 8.7 15.4l-.1-.5a20 20 0 0 0-9.8-12.6z" clip-rule="evenodd"/><path fill="#71a35d" fill-rule="evenodd" d="M1194.6 394.6q6.3-2.9 10.6-8.3a24 24 0 0 0 4.7-21.5l-.7-1.7 1.4-1.3q4.1-3.6 6-8.7a18 18 0 0 0-.8-13.7l-201.6 62.2c-1.4 6.5-2 13.3-1 19.6 1.6 11 9.5 18.6 20.6 19.9a25 25 0 0 0 17.5-4.4l1.8-1.4 1.8 1.5.1.1q3.2 2.8 7.1 4.5c10.9 4.6 24.6 2.4 35.5-.6 10-2.8 19.6-6.7 29.2-10.6 12.2-5 24.9-10.6 37.8-13.2l3.3-.5 2-.2.8 2 1.1 2q2.5 3.5 6.9 3.5a17 17 0 0 0 17.3-13q1.4-6.7-2.6-12.1l-2-2.8z" clip-rule="evenodd"/><path fill="#bfe975" fill-rule="evenodd" d="M1113.8 206.2c-31.2 40.7-31.6 72.7-27 120.3 7.8 50.4 13.2 89.4-27.2 116.7q-1.5-.7-3-1.7c41-25.3 35.2-64.3 27.3-114.6-4.7-46.7-4.5-78.2 25-119.3zm47.9 214.3-3 .7c-.1-42 7-118.9 58.3-151.9l1.4 2.7c-50 34-58.1 108.6-56.7 148.5m-18.6 6-2.8 1.2q-2.4-9-4.2-18.6c-9.8-65 7-147.8 61.5-190.2l.3 1.5.3-.2v.5q2-.9 3.8-1.3c-55.9 40.7-73 124-63 189.2a202 202 0 0 0 4.1 18m-32 12.8-3.6 1.3c14.7-33.4 10.3-57.8 1-93.7-24-111 11.7-97.3 56.2-122.7a76 76 0 0 0 24.6-20.5q1.2 1 2 2.2c-37.9 37.6-74.6 29.6-84.9 62.9-4.6 14.9-3.6 37 5.1 77.3 9 35.4 13.4 59.6-.4 93.2M1035.3 320l-2.9-2.5q.7-9.6-6.8-15-.1-2.7.2-5.5c17.1 28.3 23.6 62.7-11.4 95.3l2.1-6.4c22.8-20.6 25.4-43 17.1-64.7l2.2-1zm-10.3-24.4q-2.4-.5-4.4-1.4-5.4-8.1-11.6-15.6-.4-2-.6-4.1v-1.1q9.1 10.4 16.6 22.2m177 29.6v.4h.3v.3q1.3 0 2.5.4c-12.5 18.6-15.8 40.9-2.9 67.2l-2.5 1.7c-11.5-27.8-8.6-50.8 2.6-70m-187.3 107.3c89-40.4 16-143.5 24.7-214.3l3.2-.8c-7.3 52.3 31.4 122.8 16.1 173.2-5.5 18-18.6 33-42.3 44.4zm49.9-210.8c-4.8 17.5 4.5 78.5 10.7 32 1.4-10.4 1.6-24.6 5.5-36.5l3.5-1.2a191 191 0 0 0-7.6 37.3c-6.5 49-18.5-2.5-15.2-31z" clip-rule="evenodd"/><path fill="#71a35d" fill-rule="evenodd" d="M1113.4 205.9c-32.8 40.2-33.3 72.2-27 120.3 6.5 49.8 11.6 88.7-27.3 116.8l-2.9-1.7c41-25.4 35.3-64.3 27.3-114.7-4.6-46.7-4.4-78.2 25-119.3zm-6.5 234.9c15-33.6 10.6-58.1 1.3-94.2-24-111 11.6-97.3 56.2-122.7a76 76 0 0 0 24.6-20.5l2 2.1c-38 37.7-76 29.5-86.3 62.7-4.6 15-3 37.4 5.8 77.6 7.5 34.9 12 59 0 93.7zm94.8-221.7c-57.6 40.2-75 123.5-63 189.2q1.6 9.4 4.1 18.4l-2.7 1q-2.6-9-4.4-19c-9.8-65 7.1-148 61.8-190.3l.4 2q1.9-.9 3.8-1.3m-43.3 202.2c-.3-42 6.8-119.3 58.4-152.4l1.4 2.6c-52 33.5-59.3 108.9-56.9 149zm46-95.4c-13 18.5-16.7 40.8-2.6 67.6l-2.6 1.7c-11.8-28.2-8.8-51.6 2.7-71v1.3q1.5 0 2.5.4m-190.1 106.2c89-40.4 16-143.5 24.8-214.3q1.5-.5 3.1-.8c-11.8 70.8 62.6 174.6-26.2 217.6zm49.9-210.8c-4.8 17.5 4.5 78.5 10.7 32 1.4-10.4 1.7-24.6 5.5-36.5l3.6-1.2a191 191 0 0 0-7.7 37.3c-6.5 49-18.5-2.5-15.1-31zM1008 273a174 174 0 0 1 16.8 22.4q-2.3-.5-4.5-1.4-5.4-8.3-11.7-15.8-.4-2-.6-4.1V273m17.5 23.6c17 28.3 23.6 62.7-11.5 95.3l2.2-6.4c22.8-20.6 25.3-43 17-64.7l2.2-1a23 23 0 0 1-3.4-2.7q.8-9.6-6.7-15-.3-2.7.2-5.5" clip-rule="evenodd"/><path fill="#4e3541" d="M1054.6 339.8a176 176 0 0 0-26.7 47.3c-3.6 9-7.7 22-6 32.8 2.5 16.7 23.3 13.9 25.5 8-17.4-13.3 13.3-75.9 22.6-90.5 19.3-5.2 104.8-23 115.2 1 9.8-4.3 5.8-25.9-8.2-30.8-15.2-5.3-80 2.6-120.4 16.3a119 119 0 0 0-37.9 19.2c-5.2 4.5-9 8.5-10.4 13.2-2.6 8.6 1.9 12.7 9.5 13.2 0-14.3 22-26.3 36.8-29.7m60.4 46.4c0 1.5-.5 3.3-.6 5-.4 5.9 5.8 8.5 9.4 5.4 3.9-3.2 7-11.6 9.5-13.5 0 3.7.5 6.9 3 8.9 7.5 5.8 16.6-4.6 21.3-11-1 6.5.7 12 8.3 11.4.5-1.5 1.2-11.8 5.6-18 2.8 8.3 8.6 16.4 19.3 12.2 6-2.3 13.2-10.7 10.9-18.6-3.8.6-5.6 7.2-14 6.7a14 14 0 0 1-12.2-9.3c10.8-.9 34.6-6.3 33.2-19.1-.6-5-5.2-10.3-9.7-9.4-2.8 9-10.9 21.1-21.2 23.7.8-2.7 3.7-6.9 2.8-10-1.1-4.4-7-6.5-12.3-6a56 56 0 0 1-5.8 22.8c-3.1 5.3-11.5 16.2-17 18.5-.6-6.2 7-30.2 12.8-31.5 1.2 1.6 0 5.2-1 7-2 4 .8 2.5 3 .2 9.8-10.6-4.6-22.3-14.5-11-5.5 6.3-11.7 26.9-19.3 32 .2-2.8 6.3-16 7.7-19.3 2.9-7-3.4-13.1-10.3-11.9-.8 3.1.3 3.2-2.3 10-2 5.5-11.6 26.4-15.6 28.4 1.1-10.1 14.5-24.2 10.3-30.8-2-3.1-5.5-3.9-10-3.2v.6c-.3 8.4-10.3 24.4-11.7 34.7v2c-2.3 3.2-4.9 6-7.4 6.5-6.1 1.1-2.7-5.6-2.7-5.6s10.7-20.5 12.3-26.3c1.8-6.6-2-8.4-6.6-7.6-5.5.9-12.1 4.9-13.8 3.4-3.8-3.5 8-19 8-19 .5-.7 1.6-6.8-6.8-2.1s-13.1 13.4-11 20.7c2.2 7.3 7.2 5.5 12.2 5s2.4 3.6 2.4 3.6c-2 4.2-8.2 16.3-11 24.9-1.8 6.1 1.3 11.6 10.3 11.1 7-.3 12-5.3 15.1-9.7a7 7 0 0 0 2.7 3c7.4 4.1 14.4-10.1 16.7-14.8m-26.7-107.9c2 1 1.8 2 4.7 3.5 2.4 1 4.3 1 6.6 1.8-.7 4.3-6.9 12-11.9 11.7-7.5-.6-1.8-14.2.6-17m52.2-1.8c-1.2 4.7-7.3 12.6-13 11.5-6.4-1.3-1.7-14.1 1-17a16 16 0 0 0 12 5.5m-38.7 1.3c-4.8-1.8-4.4-8.4-1-11.3 5-4.3 2.4 9.4 1 11.3m41-7c-2.6-1.1-4.1-3.3-3.4-7.3.5-3 1.3-5.8 4.4-5.4 1.8 3.6.1 9-1 12.6m43-17.4c2.3 8.9-11.7 29.4-16.1 28.1-5.4-1.6 5.8-31.5 16-28m16.2-22.2c-5.6 2.7-9 10.9-11.2 16-5.9-11.6-26-2.4-34.2 18.5-1.4 3.6-.9 3.5-5.4 4.3 5.2-30.3-16.4-22.3-21.8-13.9-.8 1.2-1.3 3-2 3.7-1.7 2-7 2.3-13 15.6-1 2.2-.8 2-3.5 2.3.9-6.5 2.5-14-2-19-4-4.5-11.1-2.9-15.5-.4-4-2.9-10.3-3.1-18-1.7v-.2c2.4-4.7 3-7-.2-11.8 2.8-1.7 65.5-16.8 93-15.6 4.1.2 13.6 2 14.3 7 8.4-7 5-29.7-15.2-28.8-17.8.8-38 5.9-56.8 11.5-15 4.5-33 12-47.8 14.6-7.7 1.4-18.1 2.5-18-5-6.4.4-10.1 9.1-5.6 15.2 4.2 5.6 18.4 4.4 24.7 2.7l-3.9 7-5 8.9a100 100 0 0 1-22.7 3.5c-5.3.1-6.4-4.2-6.4-4.2-6.6 3.6-6.3 12-6.3 12 1.3 19.2 23.5 7.6 23.5 7.6l2-1-4 7.2c-1.7 3-3 6-4 9.9-2 9 4.3 15.4 12.4 15.4a39 39 0 0 1 2-10.6c1.7-5.6 11.3-23.7 17.2-33.7a114 114 0 0 1 21.6-7.4c-1.3 1.5-1.8 3-3.2 5.4-1.5 2.6-10 4.9-14.8 20-7.9 24.2 15 32.5 30 10.4 6.4-9.4 5-13 9.8-13.8-1 7.7-.7 13.6 4.7 17 12.6 7.7 26-8 30.8-19.5 2-4.8.8-4 6.2-5-2.6 21.7 9.8 24.1 21.5 15 3-2.2 5.2-4.6 7.5-8 .5 5.2 1.6 7.4 5.4 10 12.1 8.3 27.7-12 16.5-19.7-.3 4.9-4.9 8.9-9.6 6.9-4-1.7-.6-10.9.5-13.9a71 71 0 0 1 17.8-27.6c0-4-2.8-11.1-11.3-6.8m-139.2 179c-5.5 1.5-9.7 13.4-2 20.1 14.4 12.6 48-2.2 62.7-8.2 13.6-5.5 27.4-11.2 39.4-13.7 6.8-1.4 18.3-1.8 16 6.7 7.7.1 11.7-8 5.9-12.9-14-11.8-49.4 4-67.5 7.4-14.2 2.7-27.8 6-37.1 7-6 .6-17.5.4-17.4-6.4"/><path fill="#604954" d="M1024.8 427.1q1 1.2 2 2.1 9-5.4 15.5-11.9-.2-2-.1-4.1a75 75 0 0 1-17.4 14m34.5-69.5 2.5-5.4q-1.2-14-4.1-28.6l-1 .3-1.6.6c2.1 11.3 3.8 22.4 4.2 33m25.7-23.7 2.8-.6-1-6.8-1-10.7-2.9.7 1 10.4zm20.2-3.7 3-.5q-1.8-9.7-2.9-17.8l-2.9.5q1 8.2 2.8 17.8m32.6-3.7 2.8-.1q1.8-10 4.6-19.8l-2.8.3q-2.8 9.6-4.6 19.6m35 2.6 2.7 1a156 156 0 0 1 8.2-18.3l-2.5-2q-4.8 9.3-8.5 19.3m-133.8 1.8-2.2 1q1.5 7.1 1 14.2l1.7-.8q.6-7.3-.5-14.4m64.6-110q-5.9 9.6-9.7 18.8l-3.4.8q3.4-9 8.8-18.1zm-15.1 35.3-1.2 5.3-3.2.9 1.4-6.6zm-2.2 10.9q-1.4 9-1.6 18.7c-.8 2.9-1.2 6 0 7.8q0 7.6.6 15.7l-3 .2c-1-14.3-1-27.2.6-39.8zm5 92.8q1 9.6 1 18.6l-2.9 5.8q.5-11.3-.9-23.9zm-.7 37.9q-.7 3.6-1.7 7-1.5 1-3.3 1.8 1.2-3.5 2-7 1.5-.5 3-1.8m-6.1 18.2a66 66 0 0 1-14.2 18.7l-3.1-.8a62 62 0 0 0 14.2-17.5zm74.4-6.7.5-10.4 2.5-.4-.3 10.2zm1-18.3q1-11.7 3.1-24.4c3-5.3 4.9-14.8 5.3-22h2.3a239 239 0 0 0-8.3 47.6q-1.4-.5-2.4-1.2m31.3-97.2q7.1-9.7 16.5-17.6.7 1.7.7 3.6-7.5 6.7-13.4 14.4-1.9.2-3.8-.4m-53.7 122.7-2-11.7 2.8-.9 2 11.5zM1134 388a251 251 0 0 1-.5-14.3l2.9-5.5q-.2 12.3.8 24.2l-.7-.5q-1.8-1.5-2.5-4m-.3-23.5q0-4.2.4-8.5 1.7 3.2.2 7.2zm20-88.4a171 171 0 0 1 17.4-29.8q3.1-2.2 6.2-3.3-14.7 18.2-23.8 40.2-.3-3 .2-7m27.9-42.4 5-5.2q-1 4.7-4 7.4-.1-1.2-1-2.2m-68.7 192.6a99 99 0 0 0 3.5-16.6l1-.2 2-.4a105 105 0 0 1-3.3 16zm4.3-29.4q-.1-10.4-2-21.1l2.2-4.6q2.7 13.8 2.6 26.6-1.6 0-2.8-1m-3-26q-1.3-7.4-3.3-15.3 2 .2 3.4 1.1l2 9.4q-.7 2.3-2 4.8m-13-72.8q-.7-11.9.4-20.5l.3.1c1-1.2 2.4-7.6 1.8-10.6q1.7-5.4 4.3-9.5a9 9 0 0 1 2.2 2.6 41 41 0 0 0-3.7 8.5 77 77 0 0 0-2.6 25.3zm53.7-68.8q4.8-2.2 10-5.2 8.6-4.6 16.8-12l1.3 1.4c-8 6.7-15.9 11.5-23.4 15.5zm41.9 113.2q-3 9-3 18.9l-1.6.5q-.1-7 1-13.4 2.1-3 3.6-6m-1.8 30.3q.8 4.5 2.4 9.1l-1.9 1.8q-1.5-5-2.2-10zm-144.2-69q-4.7-19.7-8.5-39.2l2.8-.4q3.2 17.1 7.4 34.8a31 31 0 0 0-1.7 4.9m-11.4-60.1-.6-11.8a9 9 0 0 1 3-2.8q-.1 8.2.7 16.8a9 9 0 0 1-3-2.2m24-10.6q-.2 6.3.4 13l-2 .5q-.7-6.6-.7-13l1.7-.4zm.4 13.2c.8 9.6 2.4 18.8 4.4 22.6l-1 1.8c-2.2-4-4-12.1-5.1-21.3zm9.1 20q1.3-4 2.5-12.7l.8-7.7q.9 1.5 1.2 2.9l-.6 4.3-.1.8-1.1 2.4v.2l.8-.2q-.9 5.8-1.9 9.4zm3.5-22.2q.6-7.1 1.7-14.7l2.8-.8q-1.7 7.6-2.8 15z"/><path fill="#442333" d="m1024.5 426.8 1.9 2q9.4-6 15.8-13v-3.3a74 74 0 0 1-17.7 14.3m34.4-68.5 1.2-2.4q-1-15.5-4.1-31.7l-1.2.4q3.5 17.3 4.1 33.7m25.8-24.3 2.6-.6-.9-7.2-1.2-10.2-2.6.6.9 10zm20.2-3.8q1.2 0 2.3-.3a394 394 0 0 1-3-17.8l-2 .4q.9 8.1 2.7 17.7m32.4-3.7h1.5q1.8-10 4.5-19.7l-1.4.1q-2.7 9.7-4.6 19.6m35 2.4 1.7.6q3.6-9.6 8.6-18.7l-1.8-1.3q-4.8 9.5-8.5 19.4m-133.6 2.1-2.2 1a54 54 0 0 1 1 14.3l1.6-.8q.6-7.3-.4-14.5m63.3-109.5q-6 9.5-9.9 18.6l-2.2.5q3.5-8.8 8.7-18zm-15.2 34.4q-.8 3-1.3 6l-1.9.6 1.5-6.7zm-2.4 12.7a180 180 0 0 0 0 40.8h-2.4a202 202 0 0 1 .5-39.3zm5.8 91.4q1 11.3.6 21.6l-1.8 3.6q.5-11.7-.8-24.7zm-1.6 39q-.7 3.7-1.8 7l-1.7.8q1.2-3.4 2-7.2h.1q.8-.1 1.4-.5m-6 17.2a69 69 0 0 1-13.3 18.3q-1.5-.3-2.6-.8 9-8 14.1-17.2zm29.7 10.4q2.6-8.6 3.6-16.7l1.3-.3h.1q-.7 7.8-2.8 16.1zm4.4-30q0-9.9-1.9-20.3l1.2-2.2q1.8 11.9 1.9 23.3zm-2.7-25.1q-1.5-7.6-3.5-15.9l2.2.5 2.4 13zm-13.2-72.9q-.8-12.2.3-21l.7.2c1-1.4 2.7-8.9 1.6-11.4q1.7-5.1 4-9l1.5 1.3h.1a40 40 0 0 0-4.3 9.5c-2.2 7.2-3 16.1-2.2 28zm52.7-69.1q5.3-2.5 10.9-5.6c5.7-3.3 11.5-7 16.9-12l1.2 1.4c-8.3 6.9-16.6 11.9-24.4 15.9zm31.5 3.5-2.6 2.5q-.3-1.2-1.2-2.1 2.5-3 5.4-5.6a15 15 0 0 1-1.6 5.2m-10.1 11a160 160 0 0 0-21.6 35.2q0-1.8.4-3.9h-.2q6.8-14.7 16.2-28 2.6-2 5.2-3.2M1135 370.8q0 10.7 1.2 21.2c-2.5-2-3-5-3-8.8l-.2-8.7zm2.8 33.4 2.2 11.4-2.8 1-2.1-11.7zm-4.7-38.6q0-5 .5-10a8 8 0 0 1 .5 7.8zm25.3 44 .5-10.6q1 0 2-.3v10.2zm1-18.8q1-11.2 3-23.1v-.2q1.5-2.2 2.5-5.4-2.8 15.6-3.6 29.9-1-.4-1.8-1.2m31.2-97q7.2-9.9 16.8-18 .8 1.5.9 3.1a104 104 0 0 0-15 15.4q-1.3 0-2.7-.5m-21.6 51-1.2 4 .4-4zm25.6 1.5q-2 7.4-1.9 15.6l-1.1.3q0-6.6.9-12.7 1.2-1.5 2.1-3.2m-.5 27q1 4.5 2.7 9.2l-1.7 1.6q-1.5-5.2-2.3-10zm-143.7-68.6-5.5-24.7q-1.6-7.6-3-15.1l1.8-.3c2 12.2 4.8 24.8 7.5 37.3v.1zm-11.6-61.3q-.5-5.4-.5-10.7a9 9 0 0 1 2.6-3q-.2 7.8.4 15.9-1.5-.8-2.3-2zm24-10q-.1 6.3.4 13l-2 .4a142 142 0 0 1-.7-13l2.1-.4zm.5 13.6a66 66 0 0 0 4.6 22.3l-1 1.8a65 65 0 0 1-5.3-21zm8.9 19.8q1.4-4 2.6-13.3l.8-8 1.3 2.5-.7 5-.3 2.5-.5 1v.2l.3-.1q-.9 5.9-1.9 9.5zm3.5-22.3q.7-7.2 1.7-14.7l2.8-.9q-1.6 7.7-2.7 15z"/><path fill="#4e3541" d="M1153 329.2c3.8 0 6.9 2 6.9 4.6s-3.3 6.6-7.2 6.6c-3.8 0-6.7-4-6.7-6.6s3-4.6 7-4.6M1162 339c1.3-.5 2.5-1.7 2.5-2.6s-1.2-1.3-2.6-.7c-1.4.5-2.6 1.7-2.6 2.6s1.2 1.3 2.6.8"/><path fill="#442333" d="m1113.7 429.1-7.1 12.6 4.6-1.2zM1161 412.5l-.8 9.6 3.2-.8zM1208.6 218.2s-8.5.6-18.3 9.8c0 0 4.4-9.1 11-13.1l7.3 1.1zM1028.4 374.7s-6.4 9.2-16.2 15.5v5.6s9.7-7.6 16.2-21M1118.6 203.8s-11.6 11.6-23.2 29.4c0 0 12.1-23.7 18.3-29.5l1.8-.9zM1217 268.4l-5.8 8.1 8.7-5z"/><path fill="#4e3541" d="M1017.4 404.3c1.3 0 2.4 2.1 2.4 4.7 0 2.5-1 4.6-2.4 4.6s-3.7-1.6-3.7-4.2 2.3-5 3.7-5M1018.4 415q1.3.1 1.4 1.3-.1 1.3-1.4 1.4c-.7 0-2-.5-2-1.2 0-.8 1.3-1.5 2-1.5"/><path fill="#9c6" fill-rule="evenodd" d="M1155.2 234.4c4.4 0 12 12.1-.4 12.1-3.8 0-9.2-3.2-9.2-5.6s5.1-6.5 9.6-6.5m2.1 18.5c-6.3.3-4.2-8.3 1.9-3.8 2 1.4 2.6 3.6-1.9 3.8" clip-rule="evenodd"/><path fill="#71a35d" fill-rule="evenodd" d="M1105.3 243.5c0 3-3.8 4-6.6 3.4-2-.5-3.4-2.1-3.4-3 0-2.6 10-5.5 10-.4M1096.8 248.1c0 1.5-2.3 2.2-3.2 1.4-.7-.6-.8-3.2.2-3.6s3 .2 3 2.2" clip-rule="evenodd"/><path fill="#71a35d" fill-rule="evenodd" d="M1109.4 240.5c2 3.6-6.5.9-4-1 .7-.7 3-.8 4 1" clip-rule="evenodd"/><path fill="#442333" d="m1152.3 172.2.6-.6c2.3-2.6 6.9-4.6 10-5.6 3.8-1.1 8.5-1.9 12.2-.2 3.7 1.8 5.7 5.6 5.8 9.6q0 5-3 8.8a15 15 0 0 1 1.6 3.5l.4 1.3-.4 1.3c-1.8 6.4-9 9.9-14.2 7.4-3.6 3.8-9 4.2-12.5 1.4a23 23 0 0 1-7 5.2c-4 2-8.6 3-13 1.7q-1.3-.3-2.3-.9v.3l-1 1c-3.3 3.8-9 5.7-13.6 3.8h-.1a13 13 0 0 1-7.8 4q-2.4.3-4.7-.7a13 13 0 0 1-4.4 2.8c-2.6 1-8.7 2.7-11.4 2.8q-2.4 0-4.4-1.3a16 16 0 0 1-3.2 2.9c-5.2 3.3-14.1 5.6-19.6 2l-.6-.4-.5-.6c-3.1-3.8-1.7-9.2 1.6-12.5a10 10 0 0 1-1-4.1c-.3-6.1 4.5-11.8 9.7-14.4 3.6-1.9 9.4-3.3 13.3-1.7l.3-1.3 2.6-1q4.3-1.5 8.7-2.5l8.8-2 2.8-.5 1.3-.6c-.8-3 .7-6.4 3-8.6q1.6-1.5 3.8-2.2a15 15 0 0 1 4-.6l2.9-.1 1-.7h1.5a6 6 0 0 1 4 1.4 7 7 0 0 1 2 7l1.2 1q4.4-5 11-6.7 5.9-1.6 10.6.6"/><path fill="#fff" d="M1079.5 203.3c-.7-.3-2.8-.8-6.1-.4q-1.7.3-1.4-.6c.3-2 5.8-2.8 7.3-1 2.7-1.4 5.3-6 1.6-7.7-1.8-.8-6-.2-9.2 1.5-5.7 3-7 7.8-7 9.8.2 4.2 4.2 4.7 8 4q2.3-.3 1.8 1.3c-.6 1.5-3.6 2.3-6.7 1.4-3.5-.9-6.7 4.6-4.8 7 3.8 2.4 11 0 14.2-2.1 4.6-3 7.8-11 2.3-13.2m5.3 6.3q-.5 4.6 2.7 4.5a52 52 0 0 0 9.6-2.4c4.5-1.7 5.5-6 4-8l-7.3 1.9-.6.1.2-1.4 4-1c3.4-1.1 4.8-4.2 3.8-7-1.9-.1-5.7 1.1-7 1.5l.1-1.3 4.8-1.2c5.5-1.4 5.6-7.2 5-8.2-4.1.7-12.9 2.9-16.8 4.3-1 4.1-2.3 15-2.5 18.2M1119 193l-.3-.4-3.2-6.2c-1.7-3.3-6.6-1.4-9 1-.7 3-1.8 13.3-2.3 19.2-.3 2.8 4 4.2 8 0 .6-3.3.5-4.9.8-7.7h.2l.2.2c.4.8 1.7 3.5 2.8 5 2.3 3.3 7.4 1.5 9.6-1 1-5 2-15.8 2.4-18.7.5-4-4.9-4.5-8.1-.3zm-5.5-11.9c4.8-3 5.9-1 9.4-2.8 2.2-1.2 2.5-4.6.6-4.6-2.6 1.7-7-.3-9.9 2.3-2 2-2.2 4.7-.1 5.1m29.5-4.8a18 18 0 0 0-13.4 18.9q.5 4.7 4.5 6 4.4 1.1 9.5-1.5 6.4-3.1 9-9.8 1.8-5 .7-9.2c-.5-1.7-2.4-6.5-10.3-4.4m-.9 8.4c1.6-.4 3 .8 2.5 3.5s-2.1 4-3.4 4.5-2.8-.1-2.7-2.9c.2-2.7 1.9-4.6 3.6-5m29.5-1q.3 0 .5-.4c5.7-5.3 4.3-11.5 1-13-4.3-2-14.2 2-16.5 4.5-1.1 3-2.3 15.1-2.2 17.2.4 5 5.4 4.5 7.6 1.9l1.3-6.5q.2 0 .3.4l2.2 3.6c2.2 3.9 7.7 1.8 9-2.5a15 15 0 0 0-3.2-5.1m-4.1-4.8q-.1 1-1.2 1.5l-1.7.6-.3-.2.3-2.2c1.9-1.3 3-.8 2.9.3"/><path fill="#c4ced7" fill-rule="evenodd" d="M1075.7 209q.2.7 0 1.6c-.5 1.4-2 2-3.3 2.4q-2.5.6-4.9-.2h-.9q-1.3.4-2.1 1.6c-.5.7-1.2 2.3-.6 3.2 3.2 2 9.8-.3 12.6-2.1q1.7-1.2 2.8-2.8c1-1.4 2-3.4 1.9-5.2zm24.8-4-6.4 1.8h-.6l-1.7.5.2-1.7.1-1.1-5.7 1.6-.4 3.6c0 .6-.1 2.5.5 3q.5.3 1 .2l1.8-.3a56 56 0 0 0 7.3-2q2.5-.9 3.6-3.3.5-1 .3-2.2m24.2-2.4 1-7.4q-6.7-.6-11.4 3.2l.2.3.7 1.2.9 1.8 1 1.8c1.8 2.4 5.8.9 7.6-1m-18.7-2-.5 6.9q.8.8 1.9.6 2.2-.3 3.7-2l.7-7c-1.8 1.3-3.7 2.2-5.8 1.6m24.8-6.8v1.4c.3 2.3 1.2 4.2 3.6 4.9 3 .8 6 0 8.7-1.4a17 17 0 0 0 8.9-10.7q-3.3-2.6-6.6 1.8-1 3-3.8 4.1l-1.4.2a3 3 0 0 1-2.6-2.1c-3-2-5.2-1.1-6.8 1.8m25.2-6.9-.3 4v1c0 1 .3 2.3 1.4 2.7 1.2.4 2.9-.3 3.8-1.2l.8-4.6.3-1.4v-.8l1.6-.5.8.7.3.5 2.1 3.6q.6 1 1.7 1.3 1.5.4 2.9-.6 1.5-1 2-2.6a15 15 0 0 0-3.9-5.4z" clip-rule="evenodd"/></svg>