<svg width="518" height="567" viewBox="0 0 518 567" fill="none" xmlns="http://www.w3.org/2000/svg">
<path d="M64.9807 403.833C35.0897 444.634 11.0375 491.381 1.07664 526.241C-1.11253 533.901 4.90178 553.555 17.3841 566.723L81.6794 565.017C86.9685 558.279 91.1309 549.534 94.9173 539.305C99.923 525.779 106.291 506.407 117.023 484.485C137.097 443.479 150.171 423.827 152.011 409.915C155.158 386.153 125.335 375.021 99.7206 380.358C85.8857 383.24 74.7274 390.526 64.9807 403.833Z" fill="#541138"/>
<path fill-rule="evenodd" clip-rule="evenodd" d="M97.8805 391.096C88.3379 393.405 79.1781 400.038 68.1008 415.16C41.9219 450.898 20.6845 493.029 10.5837 522.768C7.87675 530.735 15.8964 555.417 30.6286 566.373L62.3968 565.529C67.2844 561.988 72.4032 556.781 77.7091 549.52C86.8773 536.969 93.239 511.369 103.669 485.52C118.635 448.438 133.548 429.157 135.162 416.971C138.213 393.919 112.933 387.456 97.8805 391.096Z" fill="#FFCFA5"/>
<path fill-rule="evenodd" clip-rule="evenodd" d="M58.4234 435.141C58.4234 435.141 73.7121 481.181 24.9231 499.046C24.9231 499.046 31.2798 480.149 37.8085 466.578C44.3355 453.007 53.6116 439.092 58.4234 435.141Z" fill="#FFE4B6"/>
<path fill-rule="evenodd" clip-rule="evenodd" d="M82.5396 399.155C77.9859 402.934 73.2517 408.129 68.101 415.16C41.9204 450.898 20.6831 493.029 10.5839 522.768C9.03395 527.33 11.1118 538.438 16.0349 547.298C11.1405 518.813 51.7143 443.461 67.1835 421.915C73.9888 412.91 78.9776 405.41 82.5396 399.155Z" fill="white"/>
<path fill-rule="evenodd" clip-rule="evenodd" d="M97.8825 391.096C88.3383 393.405 79.1785 400.038 68.1011 415.16C65.0687 419.299 62.1054 423.524 59.2163 427.804C82.2042 473.493 63.2725 538.952 45.749 565.971L66.7536 565.413C68.8736 564.025 70.9767 562.414 73.063 560.586C84.5401 550.526 100.362 500.701 106.398 486.792C117.268 461.746 130.526 436.288 137.127 423.159C151.212 395.142 120.461 385.637 97.8825 391.096Z" fill="#D77D75"/>
<path d="M127.311 463.839C127.311 463.839 116.718 457.547 111.749 437.347C111.749 437.347 101.836 447.05 88.2049 444.918C88.2049 444.918 89.028 433.122 85.7881 424.731C85.7881 424.731 77.5137 429.525 66.8327 429.184C66.8327 429.184 64.2101 420.002 64.6486 412.035C64.6486 412.035 49.2654 412.075 43.0942 405.133C43.0942 405.133 58.7591 379.872 84.604 368.504C113.427 355.828 151.414 368.621 154.57 401.915C156.938 426.883 138.04 453.373 127.311 463.839Z" fill="#541138"/>
<path fill-rule="evenodd" clip-rule="evenodd" d="M142.986 410.497C142.986 410.497 143.427 436.504 126.463 449.763C126.463 449.763 115.097 442.138 112.249 425.623C112.249 425.623 108.172 435.083 93.6003 436.249C93.6003 436.249 94.1231 424.999 88.6721 415.231C88.6721 415.231 81.1298 423.023 72.6834 423.235C72.6834 423.235 69.9832 413.866 71.6074 403.479L67.8042 406.071C67.8042 406.071 56.5565 406.444 53.2002 403.933C53.2002 403.933 84.5838 362.849 121.759 370.92C132.801 376.03 144.992 391.501 142.986 410.497Z" fill="#99CC66"/>
<path fill-rule="evenodd" clip-rule="evenodd" d="M73.0731 423.22C72.9432 423.227 72.8133 423.232 72.6834 423.235C72.6834 423.235 70.1519 414.452 71.4658 404.465C72.4608 406.66 76.087 415.582 73.0731 423.22ZM68.0572 406.145C65.4262 406.174 56.0134 406.037 53.2002 403.933C53.2002 403.933 71.0003 380.636 95.668 372.578C95.0979 373.488 94.3761 374.416 93.4721 375.357C86.2755 377.951 55.2427 398.247 68.0572 406.145Z" fill="#BFE975"/>
<path fill-rule="evenodd" clip-rule="evenodd" d="M151.568 404.266C151.568 404.266 145.896 441.03 126.581 450.645C126.581 450.645 115.097 442.138 112.249 425.623C112.249 425.623 108.172 435.083 93.6003 436.249C93.6003 436.249 94.1231 424.999 88.6721 415.231C88.6721 415.231 81.4603 422.682 73.2417 423.21C86.1878 409.991 88.8728 388.435 89.1815 375.096C119.125 360.829 154.671 374.875 151.568 404.266Z" fill="#71A35D"/>
<path d="M93.1432 438.772C92.0942 499.93 85.2535 530.693 81.5464 565.022L390.564 556.818C388.303 541.717 385.597 527.848 384.577 516.81C382.401 493.282 380.986 468.489 382.99 440.755C386.124 397.399 383.184 359.95 356.526 340.605C295.15 296.065 161.498 300.295 114.725 362.551C102.136 379.307 93.6947 406.614 93.1432 438.772Z" fill="#541138"/>
<path fill-rule="evenodd" clip-rule="evenodd" d="M100.726 438.747C100.335 461.569 99.0246 484.237 96.5335 506.936C94.7306 523.374 92.2563 539.693 90.2122 556.095C89.8496 559.004 89.5072 561.91 89.1885 564.818L382.935 557.021C382.695 555.437 382.449 553.855 382.198 552.275C380.373 540.782 378.101 529.074 377.033 517.504C374.635 491.563 373.549 466.105 375.431 440.077C377.308 414.111 378.624 376.145 360.839 354.604C358.274 351.497 355.334 348.735 352.045 346.348C294.611 304.668 165.404 307.417 120.849 366.724C106.346 386.026 101.126 415.427 100.726 438.747Z" fill="#99CC66"/>
<path fill-rule="evenodd" clip-rule="evenodd" d="M135.405 404.046C155.663 488.382 280.681 494.032 307.02 377.388C263.347 356.029 127.397 334.863 135.405 404.046Z" fill="#BFE975"/>
<path fill-rule="evenodd" clip-rule="evenodd" d="M382.935 557.021C382.695 555.437 382.449 553.855 382.198 552.275C380.373 540.782 378.101 529.074 377.033 517.504C374.635 491.563 373.549 466.105 375.431 440.078C377.308 414.111 378.624 376.145 360.839 354.604C358.274 351.497 355.334 348.735 352.045 346.348C341.418 338.636 328.33 332.451 313.778 327.857C300.428 360.009 280.734 418.677 280.734 418.677C280.734 418.677 286.232 472.832 250.156 505.392C239.214 515.268 245.285 536.09 259.237 560.305L382.935 557.021Z" fill="#71A35D"/>
<path d="M143.422 420.515C166.887 462.357 222.625 473.411 263.516 443.715C282.93 429.619 316.042 382.002 325.367 343.061C283.52 318.048 158.572 315.074 136.522 356.338C127.571 373.084 134.137 403.961 143.422 420.515Z" fill="#541138"/>
<path fill-rule="evenodd" clip-rule="evenodd" d="M142.622 398.44C160.994 473.856 274.377 478.909 298.264 374.602C258.656 355.503 135.36 336.575 142.622 398.44Z" fill="#FFCFA5"/>
<path fill-rule="evenodd" clip-rule="evenodd" d="M151.166 419.501C195.84 436.07 244.626 433.469 284.648 410.077C299.967 389.018 311.824 360.308 314.957 346.623C281.221 330.356 170.091 319.891 143.067 356.977C132.545 371.419 141.02 406.53 151.166 419.501Z" fill="#D77D75"/>
<path d="M200.61 454.25C201.362 453.411 202.21 452.669 203.126 452.042C201.725 449.731 199.9 447.731 197.732 446.441C195.99 445.405 194.369 444.855 192.904 444.68C192.354 446.154 191.49 447.547 190.261 448.768C189.392 449.63 188.539 450.381 187.711 451.035C186.871 450.748 186.038 450.445 185.21 450.129C186.544 448.713 187.655 447.127 188.407 445.441C186.556 446.41 185.299 448.124 184.817 449.978C183.383 449.421 181.963 448.832 180.567 448.19C181.838 444.275 185.478 441.724 189.558 440.943C190.084 434.446 184.994 431.5 180.948 432.353C173.136 433.999 176.133 444.248 184.419 442.223C184.419 442.223 178.221 447.458 173.525 440.806C171.242 437.568 171.972 432.334 176.055 429.692C185.54 423.556 193.835 432.233 193.643 440.757C197.259 441.121 200.731 442.919 202.797 446.416C203.76 448.045 204.475 449.571 205 450.973C209.307 448.976 214.526 449.541 218.32 454.825C218.379 454.907 218.437 454.99 218.492 455.074C216.442 455.211 214.392 455.27 212.352 455.25C210.539 454.251 208.208 454.059 206.132 454.939L206.103 454.936V454.938L205.784 454.907H205.782L205.757 454.906L205.734 454.904L205.685 454.899L205.659 454.897L205.634 454.894L205.61 454.892L205.585 454.889C203.917 454.729 202.259 454.513 200.61 454.25ZM235.377 433.051C235.377 433.051 240.549 430.221 249.809 433.181C254.086 434.549 256.72 438.055 257.683 441.955C256.506 442.714 255.317 443.435 254.119 444.127C253.858 442.255 252.885 440.201 250.91 438.126C247.216 434.245 240.733 432.587 235.377 433.051ZM238.816 451.045L238.775 450.919C236.461 449.564 234.363 449.072 232.562 449.171C232.159 450.873 231.629 452.209 231.143 453.197C230.877 453.258 230.61 453.314 230.344 453.373C230.627 452.108 230.813 450.787 230.889 449.451C228.433 450.158 226.73 452.059 226.063 454.196C224.473 454.455 222.879 454.666 221.287 454.828C221.78 449.704 225.982 446.368 230.777 445.473C230.469 442.821 229.676 440.282 228.307 438.195C223.161 430.361 215.917 432.474 213.564 436.849C209.581 444.262 219.874 448.816 223.874 440.764C223.874 440.764 223.878 449.315 215.328 448.573C211.168 448.213 207.449 444.068 208.096 438.981C210.108 423.178 232.036 427.118 233.118 440.508C233.258 442.241 233.255 443.813 233.154 445.23C235.103 445.196 237.068 445.566 238.851 446.378C240.718 440.067 247.582 441.668 247.582 441.668C243.152 442.715 241.656 446.191 242.393 448.89C242.587 449.092 242.772 449.305 242.953 449.524L242.664 449.639L242.666 449.64C241.388 450.14 240.106 450.613 238.816 451.045ZM195.798 453.339C195.616 451.696 195.02 450.473 195.02 450.473C195.012 451.436 194.869 452.295 194.621 453.049C195.014 453.145 195.403 453.251 195.798 453.339ZM206.326 439.806C206.326 439.806 201.795 440.01 196.4 434.827C189.328 428.034 197.223 413.818 207.088 419.974C210.264 421.955 210.891 425.973 209.174 428.492C205.646 433.668 200.812 429.719 200.812 429.719C207.213 431.174 209.388 423.251 203.359 422.083C199.799 421.394 195.26 424.514 197.314 431.039C198.552 434.97 202.47 438.312 206.326 439.806ZM240.888 409.643C240.888 409.643 236.365 409.311 230.826 414.339C223.564 420.928 231.052 435.364 241.087 429.489C244.319 427.599 245.059 423.6 243.415 421.034C240.035 415.759 235.092 419.569 235.092 419.569C241.529 418.299 243.481 426.28 237.421 427.275C233.842 427.863 229.393 424.617 231.632 418.15C232.98 414.256 236.991 411.028 240.888 409.643ZM266.904 415.899C266.904 415.899 262.379 415.567 256.84 420.594C250.119 426.693 256.034 439.509 264.908 436.728C266.598 435.375 268.26 433.952 269.887 432.444C270.531 430.7 270.371 428.761 269.43 427.288C266.05 422.014 261.105 425.824 261.105 425.824C267.545 424.553 269.496 432.533 263.436 433.53C259.857 434.119 255.408 430.872 257.646 424.406C258.995 420.512 263.006 417.283 266.904 415.899ZM167.251 416.611C167.251 416.611 162.728 416.278 157.187 421.304C155.19 423.116 154.312 425.522 154.292 427.934C157.25 431.542 160.498 434.815 163.993 437.735C165.096 437.563 166.254 437.155 167.45 436.455C170.68 434.564 171.422 430.567 169.776 428C166.398 422.726 161.454 426.536 161.454 426.536C167.892 425.263 169.843 433.245 163.782 434.24C160.205 434.829 155.755 431.582 157.994 425.118C159.343 421.222 163.353 417.994 167.251 416.611Z" fill="#541138"/>
<path d="M345.848 445.926C363.125 464.937 391.299 502.017 401.918 551.902C401.918 551.902 402.458 553.755 404.198 556.457L509.622 553.658C516.522 539.748 513.5 524.814 513.5 524.814C513.5 524.814 488.242 394.861 388.901 360.173C334.295 341.103 326.058 424.146 345.848 445.926Z" fill="#541138"/>
<path fill-rule="evenodd" clip-rule="evenodd" d="M409.715 549.406C410.224 551.548 411.871 554.03 413.741 556.204L501.412 553.877C502.63 551.882 503.659 549.671 504.465 547.223C506.603 540.733 507.151 531.69 505.664 524.962C504.153 518.127 501.996 511.09 499.812 504.445C494.495 488.271 487.834 472.35 479.895 457.238C459.297 418.032 428.517 381.677 384.656 366.469C380.951 365.185 377.127 364.163 373.255 363.484C358.096 360.824 343.094 363.408 335.12 377.6C325.479 394.761 327.378 410.279 338.452 425.686C341.482 428.336 344.435 431.307 347.204 434.176C354.693 441.931 361.658 450.258 368.048 458.891C388.031 485.89 402.832 516.693 409.715 549.406Z" fill="#D77D75"/>
<path fill-rule="evenodd" clip-rule="evenodd" d="M406.276 522.093C406.276 522.093 372.218 461.434 396.113 450.914C420.008 440.393 488.704 476.156 502.96 519.812C517.213 563.468 407.883 540.057 406.276 522.093Z" fill="#FFCFA5"/>
<path d="M352.916 464.89C352.916 464.89 365.018 457.901 368.485 434.407C368.485 434.407 381.699 441.904 397.376 437.996C397.376 437.996 395.001 424.768 398.283 415.258C398.283 415.258 410.649 421.375 422.838 419.026C422.838 419.026 425.247 406.289 423.459 397.431C423.459 397.431 442.045 395.147 448.454 386.588C448.454 386.588 406.541 335.35 355.175 343.899C331.725 347.802 339.776 390.457 334.533 410.008C327.569 435.96 339.171 454.167 352.916 464.89Z" fill="#541138"/>
<path fill-rule="evenodd" clip-rule="evenodd" d="M323.57 405.351C323.57 405.351 328.932 438.106 352.47 452.674C352.47 452.674 363.523 441.634 365.083 420.608C365.083 420.608 371.539 431.965 390.454 431.677C390.454 431.677 388.344 417.649 394.118 404.761C394.118 404.761 404.824 413.615 415.729 412.868C415.729 412.868 418.011 400.809 414.596 387.994L419.823 390.784C419.823 390.784 434.354 389.9 438.355 386.352C438.355 386.352 392.696 338.667 345.853 353.236C332.285 360.964 318.561 381.801 323.57 405.351Z" fill="#99CC66"/>
<path fill-rule="evenodd" clip-rule="evenodd" d="M354.182 450.672C357.349 446.616 363.908 436.444 365.084 420.608C365.084 420.608 371.54 431.965 390.455 431.677C390.455 431.677 388.345 417.649 394.118 404.761C394.118 404.761 404.824 413.615 415.73 412.868C415.73 412.868 418.011 400.809 414.596 387.994L419.823 390.784C419.823 390.784 434.354 389.9 438.355 386.352C438.355 386.352 420.118 367.312 394.872 356.972C394.74 357.036 394.609 357.096 394.479 357.164C394.479 357.164 420.153 372.584 426.029 384.08C422.663 385.161 418.458 385.611 410.383 383.977C410.383 383.977 413.259 399.272 409.135 403.413C405.013 407.555 387.053 394.25 387.053 394.25C387.053 394.25 386.056 422.434 382.099 423.667C378.144 424.898 362.458 415.072 362.458 415.072C362.458 415.072 362.501 436.06 354.182 450.672Z" fill="#BFE975"/>
<path fill-rule="evenodd" clip-rule="evenodd" d="M321.688 405.116C321.688 405.116 328.895 437.854 352.205 452.506C343.849 385.458 384.393 362.224 395.421 357.196C380.595 351.025 360.956 347.102 343.502 352.529C329.934 360.257 316.681 381.567 321.688 405.116Z" fill="#71A35D"/>
<path d="M350.32 335.819C343.992 342.58 333.231 358.358 331.997 388.263C330.818 416.847 331.152 440.759 331.209 480.938H285.169C285.169 480.938 283.515 418.668 287.023 377.354C289.908 343.353 307.676 321.997 313.876 315.501C315.205 314.109 317.025 313.56 318.904 313.983C330.735 316.648 341.156 322.195 349.407 327.755C350.748 328.659 351.542 329.97 351.724 331.577C351.907 333.183 351.424 334.638 350.32 335.819Z" fill="#541138"/>
<path fill-rule="evenodd" clip-rule="evenodd" d="M345.705 332.151C338.185 327.069 330.722 323.443 321.346 321.316C317.472 325.586 313.723 330.872 310.859 335.347C302.384 348.584 296.516 363.349 294.423 378.642C292.725 391.054 291.996 403.786 291.512 416.287C290.941 430.997 290.794 445.743 290.888 460.461C290.92 465.42 290.971 470.388 291.072 475.352H325.159C325.08 446.259 324.765 417.12 325.964 388.05C326.622 372.104 330.093 355.206 338.804 341.236C340.541 338.45 342.985 335.085 345.705 332.151Z" fill="#F5E2D2"/>
<path fill-rule="evenodd" clip-rule="evenodd" d="M290.915 467.767C290.947 471.566 290.994 471.552 291.072 475.352H325.159C325.149 471.901 325.137 468.449 325.124 464.996C319.121 469.967 299.14 469.636 290.915 467.767Z" fill="#B98E8E"/>
<path fill-rule="evenodd" clip-rule="evenodd" d="M345.705 332.151C338.185 327.069 330.721 323.443 321.346 321.316C320.862 321.849 320.379 322.399 319.9 322.96C327.743 325.15 334.297 328.487 340.895 332.945C338.174 335.881 335.731 339.244 333.993 342.03C325.282 356 321.811 372.9 321.154 388.845C319.965 417.649 320.263 446.522 320.346 475.352H325.159C325.08 446.259 324.765 417.12 325.964 388.05C326.621 372.104 330.092 355.206 338.803 341.236C340.541 338.45 342.985 335.085 345.705 332.151Z" fill="#B98E8E"/>
<path fill-rule="evenodd" clip-rule="evenodd" d="M345.705 332.151C338.185 327.069 328.489 321.917 319.113 319.788C293.471 348.058 292.963 379.966 291.555 415.179C299.696 406.01 316.938 399.09 325.558 399.785C325.669 395.873 325.802 391.96 325.964 388.05C326.622 372.104 330.093 355.206 338.804 341.236C340.541 338.45 342.985 335.085 345.705 332.151Z" fill="#B98E8E"/>
<path d="M320.319 431.247L318.688 477.658L323.068 477.42L320.319 431.247Z" fill="#541138"/>
<path d="M174.369 325.293C174.369 325.293 153.209 339.551 151.45 383.316C150.271 412.63 150.603 437.153 150.66 478.361H104.622C104.828 439.62 101.62 388.347 112.286 350.306C128.538 329.865 153.836 320.041 168.605 317.872C169.72 318.688 173.284 324.455 174.369 325.293Z" fill="#541138"/>
<path fill-rule="evenodd" clip-rule="evenodd" d="M165.158 325.767C164.85 325.554 164.541 325.344 164.234 325.134C152.239 329.519 133.687 337.898 119.295 351.553C116.72 358.655 114.872 365.99 113.877 373.448C112.178 386.178 111.451 399.234 110.964 412.055C110.394 427.141 110.247 442.265 110.341 457.36C110.373 462.446 110.422 467.541 110.524 472.631H144.611C144.533 442.794 144.216 412.91 145.415 383.097C146.073 366.744 149.546 349.413 158.257 335.083C159.994 332.228 162.438 328.777 165.158 325.767Z" fill="#F5E2D2"/>
<path fill-rule="evenodd" clip-rule="evenodd" d="M110.382 465.524C110.412 468.897 110.458 469.257 110.523 472.631H144.611C144.602 468.921 144.589 465.211 144.574 461.498C138.07 467.265 117.393 466.781 110.382 465.524Z" fill="#B98E8E"/>
<path fill-rule="evenodd" clip-rule="evenodd" d="M165.158 325.767C164.85 325.554 164.541 325.344 164.234 325.134C162.573 325.742 160.787 326.426 158.903 327.189C156.628 329.874 154.602 332.783 153.103 335.247C144.391 349.576 140.92 366.906 140.263 383.259C139.065 413.018 139.377 442.848 139.458 472.631H144.611C144.533 442.794 144.216 412.91 145.415 383.097C146.073 366.744 149.546 349.413 158.257 335.083C159.994 332.228 162.438 328.777 165.158 325.767Z" fill="#B98E8E"/>
<path fill-rule="evenodd" clip-rule="evenodd" d="M165.158 325.767C164.849 325.554 164.541 325.344 164.234 325.134C152.239 329.519 133.687 337.898 119.295 351.553C116.72 358.655 114.871 365.99 113.876 373.448C112.485 383.883 111.744 394.537 111.255 405.1C118.533 409.075 129.728 414.028 144.607 417.272C144.72 405.874 144.958 394.479 145.415 383.097C146.073 366.744 149.546 349.413 158.257 335.083C159.994 332.228 162.438 328.777 165.158 325.767Z" fill="#B98E8E"/>
<path d="M139.428 429.843L137.795 477.442L142.177 477.199L139.428 429.843Z" fill="#541138"/>
<path d="M407.177 551.754L357.781 544.177L355.926 557.738L406.67 556.392L407.177 551.754Z" fill="#541138"/>
<path fill-rule="evenodd" clip-rule="evenodd" d="M394.096 556.726L362.581 552.582L361.957 557.577L394.096 556.726Z" fill="#DBBCAF"/>
<path d="M85.6937 470.95L341.593 473.883C341.593 473.883 374.724 515.987 391.979 531.516L388.9 556.862L79.6963 565.071C80.5615 539.064 80.941 509.51 80.6037 475.952C80.6037 475.952 80.6037 471.208 85.6937 470.95Z" fill="#541138"/>
<path fill-rule="evenodd" clip-rule="evenodd" d="M88.2791 478.688C88.5439 507.383 88.355 536.148 87.4189 564.865L381.143 557.068L383.865 534.669C376.664 527.838 369.782 519.97 363.368 512.566C354.608 502.454 345.983 492.052 337.66 481.547L88.2791 478.688Z" fill="#F5E2D2"/>
<path fill-rule="evenodd" clip-rule="evenodd" d="M88.2791 478.688C88.5439 507.383 88.355 536.148 87.4189 564.865L223.739 561.247C257.917 532.24 275.859 500.866 284.618 480.938L88.2791 478.688Z" fill="#FAEEDE"/>
<path fill-rule="evenodd" clip-rule="evenodd" d="M255.315 560.409C249.817 546.895 234.27 538.13 238.272 518.921C238.272 518.921 219.499 525.441 215.547 541.449C220.801 517.376 214.662 499.703 191.136 497.028C205.278 516.347 164.134 520.139 167.727 555.085C167.727 555.085 162.49 550.048 163.38 539.472C163.38 539.472 153.026 549.522 151.433 563.167L255.315 560.409Z" fill="#E13043"/>
<path fill-rule="evenodd" clip-rule="evenodd" d="M243.598 542.354C239.335 535.929 236.211 528.81 238.272 518.921C238.272 518.921 219.499 525.441 215.547 541.449C220.801 517.376 214.662 499.703 191.136 497.028C205.278 516.347 164.134 520.139 167.727 555.085C167.727 555.085 162.49 550.048 163.38 539.472C163.38 539.472 153.026 549.522 151.433 563.167L223.743 561.247C231.088 555.014 237.684 548.671 243.598 542.354Z" fill="#FB4950"/>
<path fill-rule="evenodd" clip-rule="evenodd" d="M88.2791 478.688C88.5439 507.383 88.355 536.148 87.4189 564.865L92.9408 564.718C93.2292 516.083 89.9269 483.507 89.4057 478.7L88.2791 478.688Z" fill="white"/>
<path fill-rule="evenodd" clip-rule="evenodd" d="M381.143 557.068L383.865 534.669C376.664 527.838 369.783 519.97 363.369 512.566C354.609 502.453 345.983 492.052 337.66 481.547L281.843 480.784C283.284 502.133 285.029 531.211 283.115 559.67L381.143 557.068Z" fill="#DBBCAF"/>
<path fill-rule="evenodd" clip-rule="evenodd" d="M321.414 485.807C321.414 485.807 315.03 487.686 308.039 492.349C301.048 487.686 294.665 485.807 294.665 485.807C297.601 489.233 300.912 492.216 304.472 494.958C300.839 497.868 297.304 501.56 294.665 506.162C299.272 503.324 303.792 500.565 308.039 497.579C312.286 500.565 316.806 503.324 321.414 506.162C318.774 501.56 315.239 497.868 311.608 494.958C315.168 492.216 318.479 489.233 321.414 485.807Z" fill="#B98E8E"/>
<path fill-rule="evenodd" clip-rule="evenodd" d="M287.681 510.1H328.394C328.706 510.645 307.793 518.734 287.681 510.1Z" fill="#B98E8E"/>
<path fill-rule="evenodd" clip-rule="evenodd" d="M136.743 484.777C136.743 484.777 130.359 486.654 123.368 491.319C116.377 486.654 109.994 484.777 109.994 484.777C112.93 488.202 116.239 491.184 119.801 493.928C116.168 496.837 112.635 500.529 109.994 505.13C114.602 502.293 119.122 499.534 123.368 496.549C127.615 499.534 132.135 502.293 136.743 505.13C134.103 500.529 130.568 496.837 126.935 493.928C130.497 491.184 133.808 488.202 136.743 484.777ZM103.01 509.07H143.723C144.035 509.616 123.122 517.704 103.01 509.07Z" fill="#DBBCAF"/>
<path d="M100.092 525.119C110 534.448 112.82 549.289 110.547 564.251L10.9616 566.894C3.03645 554.11 -1.18169 540.809 0.786538 529.39C2.78006 517.815 11.3411 516.216 30.1547 507.07C36.9347 503.774 43.9272 502.695 51.6214 503.16C68.5107 504.181 87.1911 512.978 100.092 525.119Z" fill="#541138"/>
<path fill-rule="evenodd" clip-rule="evenodd" d="M95.4318 531.171C106.401 541.496 107.675 553.236 104.369 564.415L19.2546 566.675C10.4794 552.55 4.42459 529.641 13.6349 514.914C19.2461 505.946 39.2758 501.222 48.982 503.943C65.389 508.54 85.0796 521.426 95.4318 531.171Z" fill="#FFCFA5"/>
<path fill-rule="evenodd" clip-rule="evenodd" d="M19.2562 566.675C10.4793 552.55 4.42451 529.641 13.6349 514.914C16.3283 510.61 20.0573 507.419 24.4221 505.336C30.9542 502.791 41.2254 501.954 45.4519 503.255C9.66634 506.543 9.5196 540.997 21.3947 566.617L19.2562 566.675Z" fill="white"/>
<path fill-rule="evenodd" clip-rule="evenodd" d="M23.2905 566.567C17.4516 560.409 20.7994 547.355 31.6305 549.522C35.626 550.323 37.8068 554.174 37.0242 557.4C35.4186 564.027 28.9776 561.859 28.9776 561.859C36.0561 560.884 35.2314 551.978 28.6403 553.103C24.7494 553.766 21.3223 558.687 25.9216 564.548C26.468 565.244 27.1139 565.878 27.8307 566.447L23.2905 566.567Z" fill="#5F1B3F"/>
<path fill-rule="evenodd" clip-rule="evenodd" d="M47.8317 552.782C47.8317 552.782 51.301 548.903 50.6095 540.347C49.7038 529.132 31.337 525.833 29.6505 539.069C29.1074 543.329 32.2241 546.802 35.7086 547.104C42.8698 547.726 42.8664 540.563 42.8664 540.563C39.5152 547.306 30.8935 543.493 34.2312 537.284C36.2011 533.62 42.2694 531.849 46.5785 538.411C49.1759 542.364 49.3024 548.271 47.8317 552.782Z" fill="#5F1B3F"/>
<path fill-rule="evenodd" clip-rule="evenodd" d="M16.578 546.603C16.578 546.603 20.592 546.717 25.2907 542.052C31.4535 535.939 24.2586 523.47 15.6166 529.062C12.8355 530.862 12.3379 534.426 13.8946 536.63C17.0924 541.162 21.3122 537.595 21.3122 537.595C15.6689 538.976 13.6282 531.994 18.9476 530.874C22.0897 530.213 26.1526 532.908 24.4272 538.713C23.3883 542.211 19.9697 545.225 16.578 546.603Z" fill="#5F1B3F"/>
<path fill-rule="evenodd" clip-rule="evenodd" d="M79.1242 518.233C79.1242 518.233 75.3345 517.955 70.6948 522.164C64.6113 527.684 70.8854 539.775 79.2912 534.856C81.9965 533.272 82.6171 529.923 81.2392 527.772C78.4091 523.355 74.2686 526.546 74.2686 526.546C79.6606 525.482 81.2949 532.167 76.2183 533.002C73.2213 533.495 69.4956 530.774 71.3711 525.359C72.4994 522.097 75.859 519.392 79.1242 518.233Z" fill="#5F1B3F"/>
<path fill-rule="evenodd" clip-rule="evenodd" d="M61.6212 520.665C61.6212 520.665 62.0547 516.89 58.0373 512.082C52.7735 505.778 40.4346 511.549 45.0052 520.151C46.4776 522.918 49.7967 523.676 52.0027 522.389C56.5329 519.741 53.5139 515.472 53.5139 515.472C54.3572 520.904 47.6092 522.264 46.9835 517.157C46.6141 514.141 49.4864 510.53 54.8193 512.627C58.0339 513.888 60.5975 517.356 61.6212 520.665Z" fill="#5F1B3F"/>
<path fill-rule="evenodd" clip-rule="evenodd" d="M35.0273 530.238C35.0273 530.238 31.2325 530.408 26.7125 526.069C20.7893 520.378 27.4023 508.471 35.6665 513.627C38.3262 515.287 38.8507 518.651 37.4138 520.763C34.4589 525.097 30.4094 521.79 30.4094 521.79C35.771 523.008 37.5942 516.371 32.543 515.394C29.5594 514.816 25.7579 517.428 27.4799 522.896C28.5154 526.189 31.7975 528.987 35.0273 530.238Z" fill="#5F1B3F"/>
<path fill-rule="evenodd" clip-rule="evenodd" d="M57.4788 565.659C57.4552 563.995 57.02 561.284 55.0434 557.938C50.6397 550.487 36.8267 554.39 40.1172 564.113C40.3786 564.882 40.775 565.545 41.2641 566.091L49.5047 565.872C51.1845 563.617 49.761 560.696 49.761 560.696C49.7138 566.489 42.4666 566.754 42.6842 561.337C42.8124 558.137 46.4132 554.87 51.6044 557.957C54.2186 559.512 56.0974 562.593 56.9374 565.674L57.4788 565.659Z" fill="#5F1B3F"/>
<path fill-rule="evenodd" clip-rule="evenodd" d="M50.3682 527.401C50.3682 527.401 54.0229 525.401 60.5634 527.494C69.1396 530.236 68.3773 545.149 57.7553 544.059C54.3367 543.709 52.1964 540.651 52.5927 537.88C53.409 532.186 58.9899 533.488 58.9899 533.488C53.1274 534.876 54.534 542.288 59.9782 540.813C63.1911 539.942 65.6737 535.537 61.3409 530.985C58.7318 528.244 54.1511 527.074 50.3682 527.401Z" fill="#5F1B3F"/>
<path d="M96.8178 525.952C109.486 537.878 110.641 551.485 106.521 564.357L43.75 566.024C52.9418 534.82 77.8828 524.485 91.291 521.13C93.3166 522.785 95.1734 524.404 96.8178 525.952Z" fill="#541138"/>
<path fill-rule="evenodd" clip-rule="evenodd" d="M95.4316 531.171C104.644 539.841 108.82 552.239 109.067 564.29L48.459 565.899C56.8716 538.86 78.7059 529.828 90.5102 526.875C92.3131 528.349 93.966 529.791 95.4316 531.171Z" fill="#6A3B51"/>
<path d="M179.232 511.426L193.059 523.603L158.747 562.973L133.73 563.635L179.232 511.426Z" fill="#541138"/>
<path d="M229.465 429.732L270.373 465.755C277.127 471.704 277.787 482.083 271.838 488.838L222.27 545.124C216.219 551.995 207.905 549.549 200.361 547.244L168.526 537.51L157.425 509.341C154.564 502.087 150.754 494.366 156.816 487.482L206.384 431.196C212.333 424.441 222.71 423.784 229.465 429.732Z" fill="#541138"/>
<path fill-rule="evenodd" clip-rule="evenodd" d="M227.07 433.577L266.861 468.618C272.149 473.274 272.665 481.412 268.008 486.699L243.561 514.46L239.016 519.621L219.794 541.449C215.138 546.736 208.45 544.655 201.712 542.595L172.172 533.566L161.921 507.555C159.339 501 156.118 494.761 160.774 489.472L208.988 434.724C213.645 429.435 221.783 428.919 227.07 433.577ZM234.658 503.85L250.247 486.146C252.072 484.075 251.869 480.889 249.798 479.066C247.727 477.243 244.541 477.445 242.716 479.516L207.589 519.405C205.765 521.475 205.968 524.662 208.039 526.485C210.108 528.309 213.296 528.106 215.119 526.035L230.113 509.011L234.658 503.85ZM234.331 465.445C236.402 467.268 236.604 470.454 234.779 472.525L199.652 512.414C197.827 514.485 194.642 514.688 192.571 512.865C190.5 511.04 190.298 507.854 192.121 505.783L227.25 465.894C229.074 463.823 232.26 463.62 234.331 465.445ZM218.863 451.824C220.934 453.648 221.137 456.833 219.312 458.903L184.184 498.794C182.361 500.865 179.175 501.067 177.104 499.242C175.033 497.419 174.83 494.233 176.653 492.162L211.783 452.273C213.606 450.202 216.792 450 218.863 451.824Z" fill="#8199AD"/>
<path fill-rule="evenodd" clip-rule="evenodd" d="M179.524 515.826L188.682 523.891L154.524 563.084L137.954 563.524L179.524 515.826Z" fill="#B7CED5"/>
<path d="M233.425 425.468L274.333 461.492C281.087 467.44 281.745 477.819 275.797 484.574L226.23 540.86C220.179 547.731 210.963 541.993 203.652 539.033L177.225 528.337L165.691 505.117C162.221 498.134 154.713 490.103 160.776 483.218L210.343 426.932C216.291 420.178 226.67 419.52 233.425 425.468ZM216.645 520.808L252.761 479.799C253.475 478.988 253.394 477.727 252.583 477.012C251.773 476.298 250.51 476.377 249.796 477.189L213.682 518.198C212.967 519.009 213.048 520.272 213.857 520.985C214.669 521.699 215.932 521.62 216.645 520.808ZM236.682 463.008C235.87 462.295 234.607 462.374 233.894 463.185L197.779 504.194C197.066 505.005 197.145 506.268 197.956 506.982C198.768 507.697 200.031 507.616 200.744 506.805L236.859 465.796C237.572 464.985 237.493 463.721 236.682 463.008ZM220.779 449.004C219.97 448.291 218.706 448.37 217.993 449.182L181.878 490.19C181.163 491.002 181.244 492.265 182.055 492.978C182.865 493.693 184.128 493.612 184.842 492.801L220.958 451.792C221.671 450.981 221.59 449.718 220.779 449.004Z" fill="#541138"/>
<path fill-rule="evenodd" clip-rule="evenodd" d="M230.922 429.43L270.712 464.47C275.999 469.127 276.517 477.265 271.859 482.554L247.412 510.314L242.868 515.474L223.645 537.301C218.988 542.59 212.301 540.509 205.563 538.448L176.024 529.418L165.774 503.408C163.19 496.852 159.968 490.614 164.625 485.326L212.839 430.577C217.497 425.29 225.633 424.772 230.922 429.43ZM238.508 499.703L254.097 482C255.922 479.929 255.72 476.743 253.649 474.92V474.918C251.578 473.095 248.392 473.298 246.569 475.369L211.439 515.258C209.616 517.329 209.818 520.515 211.889 522.338C213.96 524.163 217.146 523.961 218.97 521.889L233.963 504.864L238.508 499.703ZM238.181 461.298C240.252 463.121 240.455 466.309 238.63 468.378L203.502 508.269C201.679 510.34 198.493 510.54 196.422 508.717C194.351 506.894 194.148 503.708 195.972 501.637L231.101 461.748C232.924 459.677 236.11 459.475 238.181 461.298ZM222.714 447.677C224.785 449.5 224.987 452.686 223.164 454.757L188.035 494.646C186.211 496.717 183.025 496.92 180.954 495.097C178.883 493.272 178.682 490.086 180.506 488.016L215.633 448.126C217.457 446.055 220.643 445.854 222.714 447.677Z" fill="#B7CED5"/>
<path fill-rule="evenodd" clip-rule="evenodd" d="M230.922 429.43L262.115 456.901L205.276 439.167L212.839 430.577C217.497 425.29 225.633 424.772 230.922 429.43Z" fill="#AAC4CF"/>
<path fill-rule="evenodd" clip-rule="evenodd" d="M275.036 473.783C275.112 476.897 274.068 480.046 271.859 482.554L256.975 499.456L243.206 494.37L254.097 482C255.922 479.929 255.72 476.743 253.649 474.92V474.918C251.578 473.095 248.392 473.298 246.569 475.369L233.117 490.642L222.483 486.716L238.63 468.378C240.455 466.309 240.252 463.121 238.181 461.298C236.11 459.475 232.924 459.677 231.101 461.748L212.395 482.989L201.76 479.061L223.164 454.757L223.252 454.654L275.036 473.783ZM251.497 505.675L247.412 510.314L243.16 515.141L229.391 510.056L233.963 504.863L237.729 500.588L251.497 505.675ZM164.119 485.947C164.278 485.738 164.445 485.53 164.625 485.326L172.427 476.467L186.196 481.552L180.506 488.016C179.619 489.022 179.211 490.292 179.263 491.54L164.119 485.947ZM177.903 470.248L199.395 445.842L213.165 450.929L191.673 475.335L177.903 470.248ZM196.285 485.279L206.917 489.207L198.581 498.675L187.945 494.747L188.035 494.646L196.285 485.279ZM217.007 492.934L227.64 496.861L219.302 506.329L208.668 502.401L217.007 492.934Z" fill="#D5E2E6"/>
<path fill-rule="evenodd" clip-rule="evenodd" d="M201.272 446.193L213.352 450.716L211.324 453.02L201.272 446.193ZM223.393 454.477L274.034 473.439L239.866 464.747C239.785 463.463 239.217 462.21 238.181 461.298C236.11 459.475 232.924 459.677 231.101 461.748L230.548 462.375L221.838 460.159L219.69 458.702L223.164 454.757C223.245 454.666 223.321 454.572 223.393 454.477Z" fill="white"/>
<path fill-rule="evenodd" clip-rule="evenodd" d="M230.922 429.43L270.712 464.47C273.255 466.71 274.694 469.756 274.986 472.903C274.279 470.94 273.087 469.125 271.419 467.658L231.629 432.616C226.342 427.959 218.204 428.476 213.547 433.763L165.333 488.512C163.212 490.922 162.726 493.528 163.068 496.272C161.884 492.353 161.697 488.652 164.625 485.326L212.839 430.577C217.497 425.29 225.633 424.772 230.922 429.43ZM238.509 499.703L254.098 482C254.802 481.201 255.206 480.233 255.314 479.243C256.432 481.071 256.292 483.5 254.806 485.186L239.215 502.89L234.672 508.049L219.678 525.075C217.853 527.146 214.667 527.349 212.598 525.526L212.596 525.524C211.326 524.406 210.759 522.773 210.933 521.201C211.186 521.616 211.505 522.001 211.889 522.338C213.961 524.163 217.146 523.961 218.97 521.889L233.963 504.864L238.509 499.703ZM239.846 465.622C239.736 466.612 239.335 467.579 238.63 468.378L203.502 508.269C201.679 510.34 198.493 510.54 196.422 508.717C196.039 508.38 195.719 507.995 195.466 507.581C195.292 509.152 195.859 510.785 197.129 511.903L197.13 511.905C199.201 513.728 202.387 513.526 204.211 511.455L239.338 471.566C240.824 469.877 240.966 467.45 239.846 465.622ZM224.378 452.001C224.271 452.991 223.867 453.958 223.164 454.757L188.035 494.646C186.212 496.717 183.026 496.92 180.954 495.097C180.572 494.758 180.251 494.373 179.997 493.958C179.824 495.532 180.391 497.163 181.661 498.283C183.732 500.107 186.92 499.905 188.743 497.834L223.871 457.943C225.357 456.257 225.497 453.83 224.378 452.001Z" fill="white"/>
<path fill-rule="evenodd" clip-rule="evenodd" d="M211.424 429.695C214.659 426.764 218.475 425.706 219.948 427.33C221.422 428.958 219.993 432.651 216.758 435.583C213.524 438.514 209.708 439.571 208.234 437.946C206.762 436.32 208.189 432.626 211.424 429.695Z" fill="white"/>
<path fill-rule="evenodd" clip-rule="evenodd" d="M167.023 496.556L175.451 521.464L216.141 537.521L167.023 496.556Z" fill="#8199AD"/>
<path d="M116.999 522.013C116.999 522.013 165.116 522.237 179.519 550.219C179.519 550.219 181.145 555.442 179.212 562.43L66.1899 565.428C74.751 543.498 92.239 523.655 116.999 522.013Z" fill="#541138"/>
<path fill-rule="evenodd" clip-rule="evenodd" d="M115.703 528.506C115.703 528.506 161.331 527.728 172.623 552.964C172.623 552.964 172.798 557.28 170.859 562.65L66.6895 565.415C76.7397 547.943 97.218 532.695 115.703 528.506Z" fill="#6A3B51"/>
<path fill-rule="evenodd" clip-rule="evenodd" d="M115.703 528.506C115.703 528.506 121.449 528.408 129.367 529.41C120.348 538.602 111.176 550.632 104.826 564.403L66.6895 565.415C76.7397 547.943 97.218 532.695 115.703 528.506Z" fill="#835D63"/>
<path fill-rule="evenodd" clip-rule="evenodd" d="M115.703 528.506C115.703 528.506 119.339 528.443 124.812 528.922C100.05 537.306 85.4255 551.21 76.7954 565.147L66.6895 565.415C76.7397 547.944 97.218 532.695 115.703 528.506Z" fill="#9A7777"/>
<path d="M136.651 554.041C136.651 554.041 139.871 557.476 142.939 563.391L146.705 563.291C144.204 560.119 140.934 556.943 136.651 554.041Z" fill="#541138"/>
<path d="M134.442 527.887C134.442 527.887 115.116 544.414 106.376 561.193C106.376 561.193 109.862 545.425 124.66 525.575L129.089 526.025L134.442 527.887Z" fill="#541138"/>
<path d="M446.056 508.254C446.056 508.254 420.271 497.088 401.012 501.899C387.474 505.278 344.676 538.966 320.447 558.68L511.914 553.597C515.535 548.284 518.893 541.327 517.601 534.967C516.025 527.195 508.992 517.393 504.151 512.035C500.474 507.963 492.765 506.665 493.107 506.579C477.325 507.38 461.84 507.452 446.056 508.254Z" fill="#541138"/>
<path fill-rule="evenodd" clip-rule="evenodd" d="M446.534 507.909C432.627 505.255 405.014 504.439 392.461 513.436C380.731 521.844 359.329 538.846 333.504 558.333L501.766 553.867C504.819 549.76 509.076 543.565 510.167 539.605C511.917 533.248 500.319 511.947 495.544 507.309C490.77 502.671 461.032 504.388 446.534 507.909Z" fill="#FFCFA5"/>
<path d="M406.797 556.388C406.251 554.612 405.403 552.6 404.104 550.403C397.966 540.017 379.5 544.51 381.366 557.063L385.86 556.943C385.789 556.479 385.759 555.978 385.781 555.439C385.972 550.698 391.31 545.852 399.004 550.43C401.303 551.797 403.217 553.958 404.655 556.444L406.797 556.388ZM396.946 556.65C396.703 555.373 396.273 554.489 396.273 554.489C396.266 555.289 396.167 556.017 395.993 556.675L396.946 556.65Z" fill="#541138"/>
<path fill-rule="evenodd" clip-rule="evenodd" d="M425.56 507.68C447.19 507.68 470.052 513.792 470.74 520.09C471.426 526.389 442.552 544.528 420.92 544.528C399.29 544.528 386.735 531.543 386.735 524.213C386.735 516.885 403.928 507.68 425.56 507.68Z" fill="#FFE4B6"/>
<path fill-rule="evenodd" clip-rule="evenodd" d="M486.263 553.771C486.162 553.944 486.054 554.113 485.951 554.287L495.782 554.025C495.861 546.876 488.161 550.516 486.263 553.771Z" fill="#D77D75"/>
<path d="M367.618 529.943C356.703 538.354 344.03 548.112 330.291 558.419L396.221 556.668C386.899 542.953 375.51 534.545 367.618 529.943Z" fill="#541138"/>
<path fill-rule="evenodd" clip-rule="evenodd" d="M364.439 534.68C356.716 540.631 344.826 549.574 333.094 558.345L389.228 556.854C380.937 545.748 371.423 538.753 364.439 534.68Z" fill="#6A3B51"/>
<path fill-rule="evenodd" clip-rule="evenodd" d="M364.439 534.68C362.179 536.423 359.84 538.224 357.43 540.079C366.851 544.943 374.496 550.789 380.708 557.08L389.225 556.854C380.935 545.748 371.423 538.753 364.439 534.68Z" fill="#835D63"/>
<path d="M448.328 549.294C448.328 549.294 442.742 547.286 438.792 538.332C433.612 526.59 450.242 513.312 459.118 525.672C461.975 529.651 460.736 534.824 457.405 537.02C450.559 541.529 446.673 534.343 446.673 534.343C453.696 539.288 460.272 530.783 453.556 526.369C449.589 523.763 442.543 525.279 441.784 534.201C441.325 539.576 444.403 545.569 448.328 549.294Z" fill="#541138"/>
<path d="M433.689 555.675C434.376 553.295 434.85 550.07 434.516 545.936C433.428 532.456 411.351 528.489 409.325 544.4C408.673 549.52 412.417 553.695 416.606 554.057C425.213 554.804 425.211 546.195 425.211 546.195C421.182 554.302 410.818 549.716 414.83 542.255C417.198 537.849 424.491 535.721 429.672 543.609C431.866 546.95 432.593 551.45 432.217 555.714L433.689 555.675Z" fill="#541138"/>
<path fill-rule="evenodd" clip-rule="evenodd" d="M454.251 553.147C454.251 553.147 451.439 552.941 447.53 555.307L450.217 555.235C451.497 554.346 452.881 553.632 454.251 553.147Z" fill="#5F1B3F"/>
<path d="M420.198 510.672C420.198 510.672 422.123 514.813 419.365 521.82C415.748 531.007 399.487 529.101 401.441 517.557C402.07 513.841 405.569 511.719 408.573 512.354C414.744 513.656 412.919 519.668 412.919 519.668C411.821 513.153 403.611 514.16 404.832 520.221C405.554 523.802 410.197 526.833 415.488 522.421C418.674 519.761 420.284 514.834 420.198 510.672Z" fill="#541138"/>
<path d="M396.769 541.335C396.769 541.335 398.39 535.625 393.41 527.197C386.881 516.15 366.403 521.937 371.282 536.35C372.852 540.99 377.78 542.995 381.504 541.565C389.158 538.627 385.579 531.284 385.579 531.284C385.51 539.872 374.765 540.265 375.088 532.233C375.277 527.492 380.615 522.647 388.311 527.224C392.947 529.981 396.025 535.974 396.769 541.335Z" fill="#541138"/>
<path d="M460.538 545.483C460.538 545.483 465.746 542.633 475.069 545.614C479.345 546.981 481.99 550.472 482.976 554.366L478.809 554.476C478.284 553.217 477.431 551.909 476.178 550.591C472.457 546.685 465.93 545.016 460.538 545.483ZM467.271 554.783C469.85 553.464 472.826 554.157 472.826 554.157C472.256 554.292 471.737 554.469 471.261 554.676L467.271 554.783Z" fill="#541138"/>
<path d="M316.116 558.795C317.096 552.863 317.796 547.207 318.063 543.216C309.674 541.724 303.003 537.537 296.867 533.063C290.801 528.637 286.804 524.424 282.203 519.54C274.348 511.2 251.802 536.364 274.036 555.838C274.036 555.838 284.561 557.771 294.521 559.368L316.116 558.795Z" fill="#541138"/>
<path fill-rule="evenodd" clip-rule="evenodd" d="M316.781 556.565C316.781 556.565 316.82 557.348 316.774 558.778L317.064 558.77C317.503 555.509 317.843 552.33 318.105 549.443C308.608 548.336 296.613 543.953 281.673 527.85C279.744 525.77 277.192 523.021 274.944 525.406C267.65 533.147 270.502 547.874 278.314 559.798L315.226 558.818C315.907 557.579 316.457 556.741 316.781 556.565Z" fill="#6A3B51"/>
<path fill-rule="evenodd" clip-rule="evenodd" d="M317.997 549.247C311.622 548.503 304.886 546.616 296.63 541.059C302.693 548.741 309.957 551.838 317.714 553.403C317.86 552.037 317.882 550.516 317.997 549.247Z" fill="#AB8D88"/>
<path d="M250.521 560.535C253.339 558.142 256.327 555.832 259.503 553.647C259.503 553.647 266.209 555.314 276.153 559.856L250.521 560.535Z" fill="#541138"/>
<path d="M299.016 559.249C286.262 550.372 272.186 537.291 260.974 518.415C260.974 518.415 242.885 534.615 230.759 561.06L299.016 559.249Z" fill="#541138"/>
<path fill-rule="evenodd" clip-rule="evenodd" d="M287.792 559.547C276.918 550.674 267.312 540.325 259.923 529.602C251.75 538.723 243.912 549.426 237.935 560.869L287.792 559.547Z" fill="#719A76"/>
<path fill-rule="evenodd" clip-rule="evenodd" d="M276.667 559.842C270.327 554.686 264.522 549.013 259.542 542.842C255.184 548.358 251.045 554.346 247.458 560.616L276.667 559.842Z" fill="#A2C87B"/>
<path fill-rule="evenodd" clip-rule="evenodd" d="M267.227 560.092L259.599 553.551L257.327 556.314L262.055 560.23L267.227 560.092Z" fill="#719A76"/>
<path d="M364.212 557.518C357.096 548.124 345.596 540.42 329.177 543.118C325.016 543.803 321.1 543.7 317.413 543.042C317.177 546.593 316.794 551.231 316.187 556.176C316.199 554.464 315.16 553.636 313.767 557.334C313.573 557.849 313.377 558.361 313.183 558.873L364.212 557.518Z" fill="#541138"/>
<path fill-rule="evenodd" clip-rule="evenodd" d="M359.945 557.631C352.629 552.732 344.192 549.657 334.955 549.433C328.821 549.284 323.098 549.814 316.937 549.097C316.666 552.096 316.31 555.41 315.846 558.802L359.945 557.631Z" fill="#835D63"/>
<path fill-rule="evenodd" clip-rule="evenodd" d="M330.108 555.476C329.388 556.321 328.958 557.328 328.792 558.458L354.057 557.788C343.688 552.367 333.759 551.189 330.108 555.476Z" fill="#9A7777"/>
<path fill-rule="evenodd" clip-rule="evenodd" d="M359.945 557.631C352.629 552.732 344.192 549.657 334.955 549.433C328.821 549.284 323.099 549.814 316.938 549.095C315.499 549.743 315.582 552.619 316.546 553.18C326.494 555.187 337.254 554.592 347.341 557.965L359.945 557.631Z" fill="#AB8D88"/>
<path d="M99.9552 222.318C99.9552 205.876 89.6047 193.354 75.8794 190.943C62.6972 188.625 45.8467 195.773 42.2746 214.857C38.1458 236.905 55.3387 256.471 76.0532 255.811C80.0638 255.683 88.8272 252.519 90.6285 244.382L91.9608 236.387L99.9552 222.318Z" fill="#541138"/>
<path fill-rule="evenodd" clip-rule="evenodd" d="M94.4706 210.497C84.2534 196.829 61.9486 193.717 53.3521 206.338C50.0549 211.178 48.6483 216.749 48.8001 222.191C49.0042 229.503 51.9708 236.785 57.0424 241.754C65.3774 249.917 82.9919 252.536 92.2107 244.832C101.529 237.042 101.542 219.96 94.4706 210.497Z" fill="#FA8888"/>
<path fill-rule="evenodd" clip-rule="evenodd" d="M70.8872 199.758C60.7509 199.758 53.1074 207.017 53.1074 211.397C53.1074 215.777 61.3261 215.363 71.4623 215.363C81.5986 215.363 89.8172 215.777 89.8172 211.397C89.8172 207.017 81.0235 199.758 70.8872 199.758Z" fill="#FBA39B"/>
<path fill-rule="evenodd" clip-rule="evenodd" d="M86.3043 203.099C75.1544 196.22 60.068 196.478 53.3521 206.338C50.0549 211.178 48.6483 216.749 48.8001 222.191C49.0042 229.501 51.9708 236.785 57.0424 241.752C58.9465 243.619 61.3364 245.193 63.9995 246.422C62.6047 245.544 61.4999 244.557 60.3919 243.471C51.5172 234.778 49.4983 218.852 56.5296 208.529C62.6266 199.578 76.3063 199.015 86.3043 203.099Z" fill="white"/>
<path fill-rule="evenodd" clip-rule="evenodd" d="M71.9748 210.63C64.1323 210.63 60.5264 217.019 60.5264 225.531C60.5264 234.043 69.3775 239.6 77.2183 239.6C85.0592 239.6 87.9618 234.171 87.9618 225.659C87.9618 217.147 79.8157 210.63 71.9748 210.63Z" fill="#C64D60"/>
<path fill-rule="evenodd" clip-rule="evenodd" d="M80.2208 216.899C74.8777 216.899 70.5483 222.024 70.5483 228.346C70.5483 234.667 74.8777 239.792 80.2208 239.792C85.5621 239.792 90.8529 234.667 90.8529 228.346C90.8529 222.024 85.5621 216.899 80.2208 216.899Z" fill="#FA8888"/>
<path fill-rule="evenodd" clip-rule="evenodd" d="M88.5337 229.801C88.5337 229.801 85.4642 218.675 75.1997 220.146L83.9597 216.724C83.9597 216.724 87.2536 220.017 88.5337 229.801Z" fill="#C4485B"/>
<path d="M88.6213 231.095C85.6394 208.544 59.7978 208.321 61.282 230.189C51.225 202.803 92.0349 202.305 88.6213 231.095Z" fill="#541138"/>
<path d="M84.3038 219.37C76.3938 217.817 72.1825 222.461 71.6023 227.728C71.0457 232.781 73.7543 238.404 83.0794 239.889C65.001 242.373 60.7593 216.035 80.4669 215.106C80.929 215.266 81.8701 216.012 82.3322 216.172C82.99 217.238 83.6478 218.304 84.3038 219.37Z" fill="#541138"/>
<path fill-rule="evenodd" clip-rule="evenodd" d="M75.9184 221.621C73.682 223.205 72.552 226.489 73.1356 228.686C73.7175 230.884 76.0028 231.383 78.2408 229.799C80.4772 228.216 81.818 225.15 81.2345 222.952C80.6509 220.754 78.1548 220.039 75.9184 221.621Z" fill="#FBA39B"/>
<path fill-rule="evenodd" clip-rule="evenodd" d="M88.0529 232.088C86.8875 240.793 75.0916 239.644 73.6631 231.608C73.6631 231.608 79.9489 237.075 88.0529 232.088Z" fill="#C4485B"/>
<path fill-rule="evenodd" clip-rule="evenodd" d="M96.3662 237.028C87.2756 252.696 68.0302 250.745 58.9683 239.7C69.4149 244.216 83.0895 244.962 96.3662 237.028Z" fill="#C64D60"/>
<path d="M101.232 101.528C69.3002 103.064 68.2832 147.898 97.4422 150.494L133.257 130.373L101.232 101.528Z" fill="#541138"/>
<path fill-rule="evenodd" clip-rule="evenodd" d="M102.188 108.05C78.765 109.178 78.0195 142.068 99.4086 143.972L125.682 129.211L102.188 108.05Z" fill="#79505F"/>
<path fill-rule="evenodd" clip-rule="evenodd" d="M101.711 108.083C84.6493 109.237 79.9455 127.46 87.3816 137.516C84.2041 118.255 101.749 111.318 101.749 111.318C101.814 110.202 101.8 109.124 101.711 108.083Z" fill="#A37A84"/>
<path d="M126.633 64.3016C87.6282 66.2766 86.3869 123.831 122.004 127.163L165.753 101.332L126.633 64.3016Z" fill="#541138"/>
<path fill-rule="evenodd" clip-rule="evenodd" d="M127.608 71.2858C97.2703 72.8205 96.3056 117.587 124.007 120.179L158.036 100.087L127.608 71.2858Z" fill="#79505F"/>
<path fill-rule="evenodd" clip-rule="evenodd" d="M127.608 71.2858C105.549 72.4023 99.0257 96.3701 107.752 110.365C105.629 106.167 100.048 78.0202 130.517 74.8174C130.747 74.7668 130.958 74.7162 131.178 74.6656L127.608 71.2858Z" fill="#A37A84"/>
<path fill-rule="evenodd" clip-rule="evenodd" d="M104.394 101.313C105.979 110.792 112.53 119.105 124.007 120.179L153.824 102.573C154.171 100.022 154.36 97.8745 154.375 96.6231L149.115 91.6443L128.903 76.6406C128.903 76.6406 129.912 97.721 104.394 101.313Z" fill="#643451"/>
<path d="M87.0291 139.678C83.516 139.497 66.8493 143.641 73.3359 165.981C73.3359 165.981 50.7241 186.703 78.7413 209.134C106.759 231.565 116.036 152.288 87.0291 139.678Z" fill="#541138"/>
<path fill-rule="evenodd" clip-rule="evenodd" d="M86.4253 146.822C75.1624 147.148 76.3531 162.168 79.566 168.444C69.2088 177.831 68.298 196.24 82.2578 202.48C82.2578 202.48 88.3345 206.648 92.2423 201.35C96.15 196.055 105.006 153.769 86.4253 146.822Z" fill="#79505F"/>
<path d="M400.353 246.687C406.148 258.127 412.633 259.153 417.411 264.025C421.622 268.319 421.949 276.273 412.829 281.414C419.678 285.778 423.238 288.639 418.372 297.372C414.766 303.843 407.209 309.756 399.667 312.067C389.406 315.209 374.397 314.015 365.473 309.419C351.746 302.347 353.364 287.785 353.364 287.785L366.915 237.261C366.915 237.261 380.325 235.348 390.519 240.243C393.838 241.837 398.29 243.719 400.353 246.687Z" fill="#541138"/>
<path fill-rule="evenodd" clip-rule="evenodd" d="M393.78 246.81C393.78 246.81 395.283 255.828 409.385 264.99C409.385 264.99 421.624 270.788 408.524 278.875C408.524 278.875 396.786 274.224 391.632 265.42C391.632 265.42 392.92 276.443 409.312 285.033C409.312 285.033 413.965 287.251 413.034 291.403C412.103 295.554 400.437 314.595 370.661 302.998C340.885 291.403 357.634 249.173 357.921 248.313C358.207 247.455 371.806 237.863 371.806 237.863C371.806 237.863 391.704 231.279 393.78 246.81Z" fill="#79505F"/>
<path fill-rule="evenodd" clip-rule="evenodd" d="M393.78 246.81C393.78 246.81 395.283 255.828 409.385 264.99C409.385 264.99 421.624 270.788 408.524 278.875C408.524 278.875 396.786 274.224 391.632 265.42C391.632 265.42 388.965 271.493 395.202 278.852C402.942 287.979 404.409 289.953 403.625 294.599C402.024 304.061 387.296 309.476 370.661 302.998C340.885 291.403 357.634 249.173 357.921 248.313C358.207 247.455 371.806 237.863 371.806 237.863C371.806 237.863 391.704 231.279 393.78 246.81Z" fill="#643451"/>
<path d="M73.3377 334.547L58.3931 348.891L61.8286 353.701L79.5224 343.393L73.3377 334.547Z" fill="#541138"/>
<path d="M65.3518 282.862L48.4018 283.891L47.9717 289.096L64.4798 292.363L65.3518 282.862Z" fill="#541138"/>
<path d="M60.7238 271.294L51.0969 269.493L50.1929 272.137L59.022 276.106L60.7238 271.294Z" fill="#541138"/>
<path d="M353.315 339.403L366.362 343.273L367.991 339.749L356.356 332.997L353.315 339.403Z" fill="#541138"/>
<path d="M231.374 406.319L236.869 420.42L242.784 419.675L242.185 405.037L231.374 406.319Z" fill="#541138"/>
<path d="M222.451 407.928L223.569 419.231L226.807 419.382L228.36 408.26L222.451 407.928Z" fill="#541138"/>
<path d="M308.882 382.323L316.256 390.961L318.998 389.234L313.922 379.219L308.882 382.323Z" fill="#541138"/>
<path d="M115.172 384.48L105.123 393.328L102.212 390.853L109.81 380.019L115.172 384.48Z" fill="#541138"/>
<path d="M130.973 392.189L122.166 405.341L118.091 403.395L123.493 388.711L130.973 392.189Z" fill="#541138"/>
<path d="M343.089 344.476L356.207 355.574L359.88 352.327L349.857 338.614L343.089 344.476Z" fill="#541138"/>
<path d="M64.632 328.707L55.2715 335.247L56.7337 338.16L67.2478 334.051L64.632 328.707Z" fill="#541138"/>
<path d="M78.4125 201.686C77.8509 214.988 74.4153 234.328 63.8203 256.348C50.0343 284.997 49.6144 350.696 113.451 387.332C170.231 419.918 242.865 420.653 300.422 390.143C339.404 369.479 368.974 335.362 378.23 295.668C388.377 252.167 364.453 223.213 358.126 180.963C349.316 122.134 312.259 89.3505 267.187 78.2107C218.162 66.0928 151.249 78.7943 117.229 104.717C74.2771 137.448 80.175 159.942 78.4125 201.686Z" fill="#541138"/>
<path fill-rule="evenodd" clip-rule="evenodd" d="M213.281 82.9922C159.478 85.453 87.9215 111.168 87.2452 174.058C86.9281 203.53 86.7747 221.21 80.7536 237.9C74.3868 255.542 65.2659 269.065 65.1394 289.136C64.9488 319.289 77.3147 356.938 119.14 380.661C166.008 407.243 224.13 407.931 274.2 390.55C310.859 377.823 349.171 351.905 367.317 300.303C367.317 300.303 378.195 278.256 368.462 245.044C350.345 183.232 342.917 119.766 298.906 92.9143C279.199 80.8908 251.239 78.7252 213.281 82.9922Z" fill="#FFCFA5"/>
<path fill-rule="evenodd" clip-rule="evenodd" d="M135.545 105.471C187.19 147.176 135.54 160.067 95.0034 154.774C95.0034 154.774 102.563 123.166 135.545 105.471Z" fill="#FFE4B6"/>
<path fill-rule="evenodd" clip-rule="evenodd" d="M200.004 157.738C200.004 157.738 202.753 187.457 237.282 188.487C271.811 189.518 277.996 166.327 277.996 166.327C277.996 166.327 239.515 170.793 200.004 157.738Z" fill="#D77D75"/>
<path fill-rule="evenodd" clip-rule="evenodd" d="M188.741 160.708C188.741 160.708 205.071 173.411 208.648 194.742C233.54 209.527 225.021 247.237 194.476 244.847C178.903 266.408 141.973 273.873 123.471 253.077C123.471 253.077 108.224 254.867 107.794 240.265C107.366 225.664 135.64 224.089 135.64 224.089C135.64 224.089 153.524 166.29 188.741 160.708Z" fill="#D77D75"/>
<path fill-rule="evenodd" clip-rule="evenodd" d="M213.281 82.9922C189.645 84.0733 162.586 89.6441 139.613 100.88C143.342 107.358 160.318 124.597 206.626 114.194C258.596 102.518 275.068 105.68 288.256 122.515C308.533 148.406 288.387 184.08 303.278 215.039C340.067 291.535 336.606 350.632 288.686 384.363C288.089 384.785 287.48 385.203 286.861 385.622C319.393 371.529 351.254 345.979 367.317 300.303C367.317 300.303 378.195 278.256 368.462 245.044C350.345 183.232 342.917 119.766 298.906 92.9143C279.199 80.8908 251.239 78.7252 213.281 82.9922Z" fill="#D77D75"/>
<path fill-rule="evenodd" clip-rule="evenodd" d="M78.6758 243.316C72.5754 258.444 65.2524 271.166 65.1394 289.136C64.9488 319.289 77.3147 356.938 119.14 380.661C166.008 407.243 224.13 407.931 274.2 390.55C310.859 377.823 349.171 351.905 367.317 300.303C367.317 300.303 378.195 278.256 368.462 245.044C364.407 231.211 360.83 217.455 357.229 204.13C355.453 205.911 353.667 207.818 351.869 209.871C337.451 226.349 326.166 231.53 316.224 231.467C295.27 231.333 282.541 209.856 252.966 215.405C233.749 219.01 221.137 233.119 200.648 236.021C191.58 237.306 178.571 236.898 159.316 238.839C146.106 240.17 142.103 242.493 128.976 244.945C105.462 249.337 106.931 242.511 90.8966 241.653C86.9265 241.44 82.7336 242.14 78.6758 243.316Z" fill="#C0B6A1"/>
<path fill-rule="evenodd" clip-rule="evenodd" d="M146.818 366.501C146.818 366.501 136.684 366.761 137.198 369.506C138.038 373.991 190.128 381.447 185.513 376.121C179.931 369.68 169.751 363.752 146.818 366.501Z" fill="#928885"/>
<path fill-rule="evenodd" clip-rule="evenodd" d="M164.613 351.811C183.462 354.945 198.167 364.197 196.827 372.262C195.486 380.327 180.87 372.581 162.023 369.446C143.175 366.31 127.232 368.977 128.575 360.91C129.915 352.845 145.768 348.676 164.613 351.811Z" fill="#D1CAB6"/>
<path fill-rule="evenodd" clip-rule="evenodd" d="M284.138 339.406C268.954 354.946 247.99 358.669 241.34 352.17C234.69 345.672 253.822 339.079 269.007 323.539C284.191 307.999 289.675 289.398 296.326 295.896C302.976 302.395 299.323 323.866 284.138 339.406Z" fill="#D1CAB6"/>
<path fill-rule="evenodd" clip-rule="evenodd" d="M150.147 368.715C150.147 368.715 165.089 391.523 166.477 392.321C167.865 393.118 176.117 370.935 176.117 370.935C176.117 370.935 165.797 365.892 150.147 368.715Z" fill="#928885"/>
<path fill-rule="evenodd" clip-rule="evenodd" d="M90.9387 265.792C90.9387 265.792 123.235 299.461 88.0176 318.015L115.159 322.309C115.159 322.309 128.903 288.64 129.247 287.438C129.59 286.235 130.106 273.352 130.106 273.352C130.106 273.352 98.4979 265.792 90.9387 265.792Z" fill="#928885"/>
<path fill-rule="evenodd" clip-rule="evenodd" d="M219.452 360.001C191.494 363.855 155.494 355.488 129.175 339.246C116.006 331.12 101.719 318.892 82.167 319.161C82.167 319.161 89.9134 316.798 103.514 319.231C117.113 321.665 165.757 363.094 222.161 349.924C278.564 336.753 288.755 293.147 287.611 273.106C286.464 253.013 291.281 251.168 293.02 257.953C307.332 313.806 264.175 353.836 219.452 360.001Z" fill="white"/>
<path fill-rule="evenodd" clip-rule="evenodd" d="M221.462 229.01C215.136 232.176 208.466 234.913 200.648 236.021C191.58 237.306 178.571 236.898 159.316 238.84C146.106 240.17 142.102 242.493 128.976 244.945C118.647 246.874 113.139 246.638 108.85 245.695C112.378 254.378 123.471 253.078 123.471 253.078C141.973 273.873 178.903 266.408 194.475 244.847C208.435 245.938 217.792 238.654 221.462 229.01Z" fill="#928885"/>
<path fill-rule="evenodd" clip-rule="evenodd" d="M139.613 100.88C110.289 115.221 87.6247 138.796 87.2452 174.058C86.9281 203.53 86.7747 221.21 80.7536 237.9C74.3868 255.542 65.2659 269.065 65.1394 289.136C64.9488 319.289 77.3147 356.938 119.14 380.661C130.524 387.119 142.575 392.044 155.011 395.557C144.902 392.25 135.088 387.976 125.726 382.665C83.8991 358.943 71.5348 321.292 71.7237 291.142C71.8502 271.07 79.9424 257.029 86.3075 239.388C92.3285 222.699 91.6252 205.019 91.9423 175.548C92.3049 141.759 115.023 119.22 142.56 104.734C141.182 103.275 140.222 101.934 139.613 100.88Z" fill="white"/>
<path fill-rule="evenodd" clip-rule="evenodd" d="M106.123 184.055C113.001 184.055 118.578 191.634 118.578 200.983C118.578 210.331 113.001 217.911 106.123 217.911C99.2432 217.911 93.6675 210.331 93.6675 200.983C93.6675 191.634 99.2432 184.055 106.123 184.055Z" fill="#D77D75"/>
<path fill-rule="evenodd" clip-rule="evenodd" d="M224.574 196.903C224.574 196.903 222.083 224.347 245.531 221.341C245.531 221.341 230.415 218.206 232.347 202.787L230.673 200.038L224.574 196.903Z" fill="#D77D75"/>
<path fill-rule="evenodd" clip-rule="evenodd" d="M241.855 175.984C251.183 175.984 258.747 184.89 258.747 195.874C258.747 206.859 251.183 215.764 241.855 215.764C232.524 215.764 224.576 207.761 224.576 196.777C224.576 185.79 232.524 175.984 241.855 175.984Z" fill="#D77D75"/>
<path d="M107.462 190.971C112.775 190.971 117.081 196.355 117.081 202.997C117.081 209.638 112.775 215.022 107.462 215.022C102.15 215.022 97.8438 209.638 97.8438 202.997C97.8438 196.355 102.15 190.971 107.462 190.971Z" fill="#541138"/>
<path d="M108.49 206.466C111.869 204.214 111.837 196.495 113.763 200.345C115.688 204.197 114.509 209.146 111.129 211.397C107.749 213.649 103.448 212.354 101.522 208.502C99.598 204.651 105.11 208.719 108.49 206.466Z" fill="#79364E"/>
<path fill-rule="evenodd" clip-rule="evenodd" d="M108.004 193.795C109.518 195.211 109.245 198.497 107.393 201.133C105.543 203.769 102.816 204.757 101.301 203.339C99.7885 201.922 100.062 198.637 101.912 196.001C103.764 193.366 106.491 192.378 108.004 193.795Z" fill="white"/>
<path fill-rule="evenodd" clip-rule="evenodd" d="M113.478 206.781C114.229 207.673 113.893 209.454 112.728 210.761C111.562 212.067 110.009 212.404 109.26 211.512C108.51 210.62 108.845 208.839 110.011 207.532C111.176 206.225 112.728 205.889 113.478 206.781Z" fill="white"/>
<path fill-rule="evenodd" clip-rule="evenodd" d="M299.188 372.657C325.817 359.114 354.802 335.886 367.316 300.303C367.316 300.303 378.195 278.256 368.462 245.044C364.407 231.211 360.83 217.455 357.229 204.13C355.453 205.911 353.667 207.818 351.869 209.871C337.451 226.349 326.166 231.53 316.224 231.467C314.222 231.454 312.296 231.245 310.42 230.884C331.261 280.45 330.295 331.439 290.296 369.653C276.529 382.805 291.001 376.821 299.188 372.657Z" fill="#928885"/>
<path d="M105.406 275.232C105.406 275.232 136.685 301.501 97.3174 318.322L109.629 322.33C109.629 322.33 126.95 310.161 128.526 308.587C130.099 307.012 136.542 292.412 135.397 288.976C134.252 285.539 117.932 272.225 117.932 272.225L104.332 270.221L105.406 275.232Z" fill="#541138"/>
<path d="M111.36 269.316C124.398 285.39 127.466 309.637 105.991 319.992C105.991 319.992 122.599 327.792 126.178 331.159C129.755 334.522 202.91 373.819 255.59 334.593C308.271 295.37 283.934 249.273 283.934 249.273C283.934 249.273 277.637 230.09 260.457 231.808C247.666 233.459 224.834 256.847 199.793 265.696C171.46 275.708 144.391 274.149 111.36 269.316Z" fill="#6F2947"/>
<path d="M112.95 269.142C125.987 285.218 129.227 308.606 107.754 318.962C107.754 318.962 109.552 318.449 114.9 321.282C140.089 300.29 129.29 273.392 129.29 273.392C122.989 272.235 121.128 270.34 112.95 269.142Z" fill="#541138"/>
<path d="M132.887 335.07C152.667 345.095 211.346 367.536 255.59 334.593C308.272 295.37 283.935 249.273 283.935 249.273C283.935 249.273 277.637 230.09 260.458 231.808C247.667 233.459 224.834 256.847 199.793 265.696C192.42 268.302 185.132 270.122 177.802 271.306C177.741 272.323 177.701 273.347 177.696 274.382C177.696 274.382 201.918 314.752 141.278 331.587C137.515 332.631 134.756 333.802 132.887 335.07Z" fill="#632143"/>
<path d="M111.36 269.316C124.398 285.39 127.466 309.637 105.991 319.992C105.991 319.992 109.852 321.798 115.202 324.632C138.5 303.811 123.749 274.423 123.749 274.423L119.684 270.474C116.951 270.115 114.178 269.727 111.36 269.316Z" fill="#964456"/>
<path d="M238.819 246.991C250.609 263.598 277.522 263.222 285.488 245.916C285.488 245.916 279.905 233.463 266.591 232.318C253.278 231.172 238.245 240.12 238.819 246.991Z" fill="#541138"/>
<path d="M170.349 345.498C170.349 345.498 178.278 310.864 220.347 312.715C241.217 288.978 273.869 294.319 278.502 317.651C278.502 317.651 277.645 319.08 276.038 321.378C238.657 361.178 186.1 351.88 170.467 347.962C170.271 347.19 170.226 346.37 170.349 345.498Z" fill="#541138"/>
<path d="M176.903 345.382C176.903 345.382 186.056 316.781 218.504 319.567C219.604 319.54 220.701 319.513 221.799 319.488C232.637 304.712 248.167 301.576 258.207 304.199C268.565 306.876 274.79 315.577 274.164 323.315C241.735 356.016 198.806 353.374 178.104 349.603C176.572 348.212 176.098 346.76 176.903 345.382Z" fill="#A12D56"/>
<path d="M197.636 323.762C202.704 321.276 208.288 319.493 209.565 321.928C213.456 329.364 200.198 338.077 189.579 332.992C188.368 330.521 192.57 326.246 197.636 323.762Z" fill="#B0375D"/>
<path d="M232.579 310.588C238.363 307.06 246.424 305.585 248.142 308.405C249.861 311.225 245.149 316.713 239.362 320.242C233.577 323.768 225.603 324.556 223.883 321.738C222.164 318.918 226.792 314.114 232.579 310.588Z" fill="#B0375D"/>
<path d="M219.18 319.55L221.8 319.488C232.637 304.712 248.167 301.576 258.207 304.199C262.77 305.378 266.532 307.727 269.258 310.647C249.139 301.715 224.115 314.904 214.173 333.051C215.773 328.224 217.465 323.713 219.18 319.55Z" fill="#CC4F68"/>
<path d="M176.903 345.382C176.903 345.382 185.975 317.049 218.058 319.533L218.045 319.64C218.045 319.64 189.426 320.28 184.16 347.755C183.975 348.721 183.767 349.628 183.539 350.477C181.593 350.205 179.773 349.908 178.1 349.603C176.569 348.212 176.098 346.76 176.903 345.382Z" fill="#CC4F68"/>
<path d="M233.187 308.257C233.187 308.257 222.015 315.771 213.631 334.362C213.631 334.362 214.545 324.284 220.096 315.086L224.107 311.372L233.187 308.257Z" fill="#541138"/>
<path d="M86.5029 261.666C86.5029 276.496 99.9702 290.567 115.778 280.99C115.729 277.747 115.611 274.5 115.563 271.255C115.563 271.255 96.5954 265.101 86.5029 261.666Z" fill="#541138"/>
<path fill-rule="evenodd" clip-rule="evenodd" d="M92.1074 265.3C92.1074 274.669 101.976 284.201 111.891 277.364C111.861 275.315 110.496 273.409 110.466 271.358C110.466 271.358 98.4843 267.469 92.1074 265.3Z" fill="white"/>
<path fill-rule="evenodd" clip-rule="evenodd" d="M99.5942 278.248C103.114 280.208 107.498 280.395 111.891 277.364C111.861 275.315 110.496 273.409 110.466 271.358C110.466 271.358 105.15 269.633 99.714 267.838C100.593 270.866 101.171 274.898 99.5942 278.248Z" fill="#A2A5B7"/>
<path d="M101.434 268.945C101.434 269.833 111.123 291.948 127.987 292.54C144.85 293.13 151.581 281.666 151.581 281.666L152.024 275.158C152.024 275.158 109.127 267.762 101.434 268.945Z" fill="#541138"/>
<path fill-rule="evenodd" clip-rule="evenodd" d="M107.619 270.753C107.619 271.434 115.192 287.462 128.123 287.915C141.055 288.369 146.073 280.508 146.073 280.508L146.414 275.517C146.414 275.517 113.517 269.845 107.619 270.753Z" fill="white"/>
<path fill-rule="evenodd" clip-rule="evenodd" d="M137.051 286.74C143.433 284.64 146.072 280.508 146.072 280.508L146.413 275.517C146.413 275.517 127.2 272.205 115.508 271.048C115.409 271.502 115.355 271.761 115.355 271.761C116.365 272.483 129.632 272.478 137.051 286.74Z" fill="#A2A5B7"/>
<path fill-rule="evenodd" clip-rule="evenodd" d="M243.539 244.38C252.004 257.775 276.669 256.208 281.765 243.897C281.765 243.897 277.239 233.802 266.448 232.874C255.656 231.945 243.076 238.811 243.539 244.38Z" fill="#A2A5B7"/>
<path d="M142.474 275.979C148.395 290.523 160.962 295.471 173.623 294.213C188.006 292.783 202.202 283.151 201.311 267.103L169.386 272.972L142.474 275.979Z" fill="#541138"/>
<path fill-rule="evenodd" clip-rule="evenodd" d="M148.957 275.372C153.256 285.935 164.336 289.212 173.532 288.298C183.978 287.259 195.988 280.437 195.341 268.783L170.508 273.547L148.957 275.372Z" fill="#A2A5B7"/>
<path fill-rule="evenodd" clip-rule="evenodd" d="M152.075 280.618C157.391 287.026 166.08 289.039 173.532 288.298C179.111 287.743 185.137 285.539 189.441 281.828C175.706 275.204 158.673 278.796 152.075 280.618Z" fill="white"/>
<path d="M195.238 268.693C201.731 283.461 219.295 283.193 230.969 278.136C244.233 272.39 255.669 259.825 247.639 240.806L219.954 257.628L195.238 268.693Z" fill="#541138"/>
<path fill-rule="evenodd" clip-rule="evenodd" d="M199.237 265.922C207.105 275.333 220.031 276.345 229.151 272.395C239.512 267.907 248.434 257.198 243.234 244.039L221.074 257.702L199.237 265.922Z" fill="#A2A5B7"/>
<path fill-rule="evenodd" clip-rule="evenodd" d="M205.388 271.141C212.871 275.536 222.137 275.433 229.151 272.395C233.466 270.527 237.53 267.577 240.43 263.823C224.947 260.374 209.204 268.881 205.388 271.141Z" fill="white"/>
<path d="M161.446 345.414C166.425 336.111 176.375 333.147 184.498 333.925C194.33 334.866 202.354 341.562 206.826 352.57C206.826 352.57 189.073 353.858 181.631 351.855C174.186 349.851 161.446 345.414 161.446 345.414Z" fill="#541138"/>
<path fill-rule="evenodd" clip-rule="evenodd" d="M166.742 346.454C170.23 339.939 178.2 338.509 183.887 339.052C190.774 339.711 197.823 343.972 200.957 351.681C200.957 351.681 187.379 352.297 182.167 350.893C176.954 349.49 166.742 346.454 166.742 346.454Z" fill="white"/>
<path fill-rule="evenodd" clip-rule="evenodd" d="M166.742 346.454C167.432 345.166 168.297 344.078 169.282 343.164C178.141 347.822 190.774 347.402 198.012 346.643C199.19 348.116 200.19 349.794 200.957 351.681C200.957 351.681 187.379 352.297 182.167 350.893C176.954 349.49 166.742 346.454 166.742 346.454Z" fill="#A2A5B7"/>
<path d="M122.879 327.83C130.543 319.69 141.539 319.41 149.631 322.451C159.429 326.133 165.784 335.197 167.315 347.692C167.315 347.692 148.803 344.105 141.743 339.997C134.683 335.89 122.879 327.83 122.879 327.83Z" fill="#541138"/>
<path fill-rule="evenodd" clip-rule="evenodd" d="M128.01 330.358C133.376 324.657 141.924 325.398 147.591 327.526C154.452 330.105 160.486 336.409 161.559 345.161C161.559 345.161 147.501 342.039 142.558 339.162C137.613 336.286 128.01 330.358 128.01 330.358Z" fill="white"/>
<path d="M199.046 352.238C200.113 341.125 208.474 333.459 216.721 330.906C226.704 327.816 238.84 331.221 246.265 340.718C246.265 340.718 229.461 349.215 221.378 350.295C213.292 351.374 199.046 352.238 199.046 352.238Z" fill="#541138"/>
<path fill-rule="evenodd" clip-rule="evenodd" d="M204.642 351.092C205.389 343.311 212.588 338.664 218.361 336.876C225.351 334.711 233.97 335.994 240.173 342.243C240.173 342.243 227.17 348.382 221.509 349.138C215.848 349.893 204.642 351.092 204.642 351.092Z" fill="white"/>
<path fill-rule="evenodd" clip-rule="evenodd" d="M204.642 351.094C204.824 349.19 205.394 347.475 206.233 345.943C220.037 346.115 227.418 339.84 230.312 336.583C233.852 337.49 237.276 339.324 240.173 342.243C240.173 342.243 227.17 348.382 221.509 349.138C215.848 349.893 204.642 351.094 204.642 351.094Z" fill="#A2A5B7"/>
<path d="M99.417 317.879C99.417 317.879 110.754 309.2 118.807 311.78C126.861 314.359 127.643 325.072 127.487 330.7L115.132 324.758L99.417 317.879Z" fill="#541138"/>
<path fill-rule="evenodd" clip-rule="evenodd" d="M105.416 319.84C105.416 319.84 112.488 314.426 117.512 316.035C122.536 317.644 123.024 324.327 122.926 327.84L115.22 324.133L105.416 319.84Z" fill="white"/>
<path d="M274.566 318.203C274.566 318.203 270.019 315.993 264.03 315.12C258.154 314.265 250.876 314.715 246.243 317.594C236.888 323.407 237.567 338.45 239.551 345.513L274.566 318.203Z" fill="#541138"/>
<path fill-rule="evenodd" clip-rule="evenodd" d="M269.695 321.898C269.695 321.898 257.194 317.113 249.873 322.099C242.551 327.086 243.093 337.5 244.444 342.312L269.695 321.898Z" fill="white"/>
<path fill-rule="evenodd" clip-rule="evenodd" d="M269.695 321.898C253.632 319.925 244.386 327.317 244.444 342.312L269.695 321.898Z" fill="#A2A5B7"/>
<path d="M268.386 321.758C263.009 303.99 265.242 290.46 286.71 289.118C286.71 289.118 287.282 301.43 278.549 312.382C269.818 323.333 268.386 321.758 268.386 321.758Z" fill="#541138"/>
<path fill-rule="evenodd" clip-rule="evenodd" d="M270.892 316.944C267.553 305.914 270.227 295.225 283.556 294.392C283.239 300.667 275.958 315.55 270.892 316.944Z" fill="#A2A5B7"/>
<path d="M86.984 259.694C130.449 277.652 196.633 272.341 232.459 244.199C247.176 232.64 255.767 226.143 265.914 227.673C278.448 229.562 292.69 243.478 294.607 268.763C298.041 314.092 258.882 349.45 216.619 355.277C188.659 359.132 154.207 351.966 127.887 335.724C114.718 327.598 101.205 318.72 81.6528 318.989C81.6528 318.989 90.6 314.909 104.201 317.342C117.801 319.774 164.468 359.572 220.872 346.402C277.274 333.232 287.726 289.711 286.581 269.67C285.943 258.522 281.278 245.736 274.525 239.733C268.008 233.943 259.731 232.579 248.97 240.686C237.788 249.111 219.474 264.565 189.688 272.549C166.384 278.796 116.546 282.42 86.1003 262.903C79.5952 258.734 78.4534 256.169 86.984 259.694Z" fill="#541138"/>
<path d="M310.319 108.453C310.319 108.453 318.194 132.216 304.308 147.821C304.308 147.821 313.827 148.966 320.126 137.227C326.424 125.489 310.319 108.453 310.319 108.453Z" fill="#541138"/>
<path d="M288.08 43.1217C288.08 43.1217 298.547 55.916 316.585 54.4133C316.585 54.4133 311.145 62.357 297.26 59.4949C283.373 56.6311 288.08 43.1217 288.08 43.1217Z" fill="#541138"/>
<path d="M178.782 105.845C146.02 103.961 123.123 84.6417 123.8 58.515C124.341 37.5696 136.648 24.2592 151.89 16.4706C165.394 9.56917 179.833 7.31423 191.944 7.92814C213.372 9.01598 229.826 17.4269 240.834 3.25803C242.87 0.637107 244.617 0.384122 246.052 0.721436C250.498 1.76373 253.293 13.9256 250.7 21.9199C296.484 30.3646 288.773 65.8651 334.707 63.7063C350.144 62.9811 350.886 80.1183 336.586 83.0968C336.586 83.0968 344.953 88.3184 369.676 86.5171C384.621 85.4293 397.103 95.7798 388.444 111.048C388.444 111.048 431.735 142.257 399.953 185.203L361.874 225C361.874 225 328.519 219.56 341.117 190.071C289.424 179.268 334.951 117.773 297.526 94.8471C265.397 75.1648 224.675 108.485 178.782 105.845Z" fill="#541138"/>
<path fill-rule="evenodd" clip-rule="evenodd" d="M178.468 98.5306C122.523 94.3614 113.034 30.9819 173.029 17.7912C173.029 17.7912 189.922 13.7823 213.544 18.078C213.542 18.0915 229.465 21.6332 240.254 12.8682C242.001 11.4497 243.05 10.1157 244.125 10.5323C245.078 10.905 246.177 12.7214 245.857 16.1772C245.632 18.5907 244.622 22.0009 242.173 26.811C284.606 29.1553 281.035 69.0966 331.717 70.1339C344.45 70.3936 339.655 78.0742 326.063 80.6361L322.628 81.9247C322.606 81.9331 337.633 95.5336 368.467 93.2787C378.328 92.5568 382.626 96.6821 383.238 101.372C384.182 108.608 375.473 117.189 357.987 111.416C357.987 111.416 366.289 122.724 382.61 117.715C382.61 117.715 426.129 144.771 388.908 189.435L357.845 217.351C357.845 217.351 337.945 215.491 347.25 190.723C347.25 190.723 363.141 189.007 362.854 172.831C356.917 180.918 347.661 183.179 340.038 182.046C315.994 178.479 320.929 152.379 320.887 135.107C320.836 115.614 316.649 102.123 306.752 93.3613C299.935 87.3268 290.859 83.0833 276.736 82.4964C259.857 81.7931 243.595 87.4347 226.81 92.3628C211.603 96.8272 196.698 100.983 178.468 98.5306Z" fill="#79505F"/>
<path fill-rule="evenodd" clip-rule="evenodd" d="M141.237 43.4202C137.09 43.8318 134.776 50.3925 134.454 58.2334C134.133 66.0742 135.926 72.2285 140.073 71.8153C144.222 71.4038 149.154 64.5833 149.474 56.7424C149.797 48.8999 145.384 43.007 141.237 43.4202Z" fill="#875D6B"/>
<path fill-rule="evenodd" clip-rule="evenodd" d="M200.262 19.417C200.262 19.417 195.109 38.6574 145.978 37.7972C145.978 37.7972 146.836 26.1161 163.328 22.8526C179.819 19.5891 187.378 18.3865 200.262 19.417Z" fill="#875D6B"/>
<path fill-rule="evenodd" clip-rule="evenodd" d="M139.765 79.921C123.582 58.9587 132.258 26.7789 173.029 17.7912C173.029 17.7912 189.922 13.7823 213.544 18.0779C213.542 18.0914 229.465 21.6332 240.254 12.8681C241.807 11.6066 242.811 10.4108 243.769 10.4563C237.959 24.9777 216.792 22.5541 204.959 21.3634C194.179 20.2789 182.059 20.4358 169.459 24.0332C139.62 32.5521 130.339 58.6433 140.642 80.0981C141.01 80.8672 143.465 81.7796 143.114 81.557C142.934 81.4423 142.111 82.9585 139.765 79.921Z" fill="#A37A84"/>
<path fill-rule="evenodd" clip-rule="evenodd" d="M178.468 98.5305C158.26 97.0244 144.116 87.7904 137.117 75.9878C140.364 79.0523 146.815 82.7139 156.086 76.7265C156.086 76.7265 167.811 92.8299 183.872 77.9712C189.576 84.5421 199.021 83.3885 199.463 73.291C219.186 92.0119 275.782 83.8084 282.992 48.1257C293.978 58.8152 305.698 69.6008 331.717 70.1338C344.45 70.3935 339.655 78.0741 326.063 80.636L322.628 81.9245C322.606 81.933 337.633 95.5335 368.467 93.2785C378.328 92.5567 382.626 96.682 383.238 101.372C384.183 108.608 375.473 117.189 357.987 111.416C357.987 111.416 366.29 122.724 382.611 117.715C382.611 117.715 426.129 144.771 388.908 189.435L357.845 217.351C357.845 217.351 337.945 215.491 347.25 190.723C347.25 190.723 363.227 189.006 362.94 172.831C352.885 180.125 341.661 176.664 335.83 173.473C324.424 167.229 326.193 151.42 326.671 134.65C327.224 115.165 316.647 102.123 306.752 93.3612C299.937 87.3266 290.86 83.0832 276.736 82.4963C269.552 82.1978 262.591 83.1456 255.546 84.5978C245.837 86.598 236.117 89.6305 226.811 92.3627C211.603 96.8271 196.699 100.983 178.468 98.5305Z" fill="#643451"/>
<path fill-rule="evenodd" clip-rule="evenodd" d="M240.605 32.1118C254.268 30.2431 265.342 32.9973 265.342 38.2627C265.342 43.5265 254.268 49.3114 240.605 51.1801C226.942 53.0505 215.868 50.2964 215.868 45.0309C215.868 39.7654 226.942 33.9822 240.605 32.1118Z" fill="#875D6B"/>
<path fill-rule="evenodd" clip-rule="evenodd" d="M242.779 25.5898C242.588 25.9862 242.386 26.3926 242.173 26.8109C258.432 27.7082 267.934 34.1272 276.324 41.7607C240.719 17.6343 204.959 48.9825 204.959 48.9825C216.821 33.967 233.194 27.9392 242.779 25.5898Z" fill="#A37A84"/>
<path d="M312.75 72.4781C312.75 72.4781 320.57 82.498 330.663 86.8646L332.005 82.3547C332.005 82.3547 326.35 80.9953 312.75 72.4781Z" fill="#541138"/>
<path d="M260.321 30.7693C251.515 28.0977 244.108 28.2377 234.513 30.7963C224.946 33.3463 213.633 38.5983 204.848 49.3215C204.848 49.3215 216.299 24.6268 246.863 21.9789L258.103 25.971L260.321 30.7693Z" fill="#541138"/>
<path d="M198.405 66.5718C198.405 66.5718 200.122 92.3408 225.176 93.486L213.436 98.4951C213.436 98.4951 195.398 89.3337 198.405 66.5718Z" fill="#541138"/>
<path d="M155.745 51.6844C155.745 51.6844 143.862 87.6151 172.494 102.504L179.796 98.7819C179.796 98.7819 150.734 88.9053 155.745 51.6844Z" fill="#541138"/>
<path d="M189.959 47.6755C189.959 47.6755 177.362 72.5845 193.251 92.6259C177.878 82.9079 176.5 63.5445 189.959 47.6755Z" fill="#541138"/>
<path d="M399.538 135.859C399.538 135.859 405.408 149.747 390.377 162.057C390.377 162.057 403.691 160.483 406.983 147.743L406.84 142.732L399.538 135.859Z" fill="#541138"/>
<path d="M180.086 252.563C192.981 266.449 216.998 259.013 214.237 239.678C214.237 239.678 206.941 251.165 180.086 252.563Z" fill="#541138"/>
<path d="M130.759 256.388C121.423 271.163 99.6076 267.563 98.8335 249.568C98.8335 249.568 110.042 259.316 130.759 256.388Z" fill="#541138"/>
<path d="M147.142 367.083C147.142 367.083 158.648 391.265 160.036 392.063C161.424 392.86 173.112 369.302 173.112 369.302C173.112 369.302 162.792 364.261 147.142 367.083Z" fill="#541138"/>
<path d="M137.807 368.105C137.807 368.105 162.353 368.731 185.791 376.258C176.81 362.689 149.017 358.033 137.807 368.105Z" fill="#541138"/>
<path d="M240.785 186.719C247.466 186.719 252.881 192.584 252.881 199.819C252.881 207.053 247.466 212.917 240.785 212.917C234.103 212.917 228.688 207.053 228.688 199.819C228.688 192.584 234.103 186.719 240.785 186.719Z" fill="#541138"/>
<path d="M242.077 203.597C246.327 201.145 246.287 192.737 248.709 196.932C251.129 201.126 249.646 206.516 245.395 208.97C241.144 211.423 235.736 210.011 233.315 205.816C230.893 201.62 237.825 206.051 242.077 203.597Z" fill="#79364E"/>
<path fill-rule="evenodd" clip-rule="evenodd" d="M241.467 189.796C243.371 191.339 243.027 194.918 240.699 197.788C238.37 200.659 234.941 201.735 233.037 200.192C231.133 198.649 231.477 195.07 233.804 192.199C236.132 189.329 239.562 188.251 241.467 189.796Z" fill="white"/>
<path fill-rule="evenodd" clip-rule="evenodd" d="M248.351 203.941C249.294 204.913 248.871 206.854 247.407 208.276C245.941 209.701 243.99 210.067 243.045 209.095C242.102 208.124 242.524 206.182 243.99 204.759C245.454 203.336 247.407 202.97 248.351 203.941Z" fill="white"/>
<path d="M266.364 193.479C266.364 193.479 270.589 214.18 254.099 219.832C254.099 219.832 266.143 220.25 269.96 212.381C273.776 204.513 266.364 193.479 266.364 193.479Z" fill="#541138"/>
<path d="M411.365 200.893C411.365 200.893 409.472 218.785 423.909 222.232C423.909 222.232 413.734 223.568 409.857 217.209C405.979 210.849 411.365 200.893 411.365 200.893Z" fill="#541138"/>
<path d="M154.522 159.837C154.522 159.837 123.53 165.062 130.116 204.859L194.106 209.011C194.106 209.011 195.394 179.663 190.24 163.057C190.24 163.057 176.139 157.26 154.522 159.837Z" fill="#541138"/>
<path fill-rule="evenodd" clip-rule="evenodd" d="M153.662 159.944C145.92 163.58 132.998 173.723 135.125 200.564L199.116 213.448C199.116 213.448 197.759 180.032 188.741 160.706C182.635 157.365 162.771 155.663 153.662 159.944Z" fill="#FBA39B"/>
<path fill-rule="evenodd" clip-rule="evenodd" d="M153.662 159.943C147.806 162.694 138.989 169.167 135.958 183.77C135.864 184.235 138.463 189.251 138.468 189.251L158.01 186.532C148.191 186.539 143.544 183.63 142.197 179.668C140.286 174.05 145.6 165.776 153.662 159.943Z" fill="#FBBFB0"/>
<path fill-rule="evenodd" clip-rule="evenodd" d="M136.057 183.309C135.008 188.113 134.59 193.808 135.125 200.564L180.431 209.685C184.513 202.661 194.298 182.471 178.051 180.159C151.987 190.413 139.861 185.628 136.057 183.309Z" fill="#E77378"/>
<path fill-rule="evenodd" clip-rule="evenodd" d="M177.306 208.878L198.535 213.332C198.735 213.091 198.931 212.851 199.123 212.613C199.154 202.307 199.442 173.367 188.741 160.704C172.403 169.024 173.214 197.144 177.306 208.878Z" fill="#C64D60"/>
<path fill-rule="evenodd" clip-rule="evenodd" d="M177.306 208.878L198.535 213.332C198.735 213.091 198.931 212.851 199.123 212.613C199.13 210.05 199.154 206.331 199.02 201.996C172.892 191.45 184.474 163.809 188.078 161.062C172.426 169.797 173.271 197.304 177.306 208.878Z" fill="#B03554"/>
<path d="M122.713 204.902C122.713 204.902 107.484 199.548 101.377 215.194C95.2697 230.84 111.668 247.573 131.666 242.469C151.662 237.365 132.836 207.496 122.713 204.902Z" fill="#541138"/>
<path fill-rule="evenodd" clip-rule="evenodd" d="M122.034 210.165C122.034 210.165 111.066 206.307 106.667 217.577C102.267 228.845 114.08 240.899 128.483 237.222C142.886 233.547 129.326 212.032 122.034 210.165Z" fill="#FA8888"/>
<path fill-rule="evenodd" clip-rule="evenodd" d="M122.034 210.165C122.034 210.165 111.066 206.307 106.667 217.577C105.944 219.429 105.661 221.303 105.753 223.124C106.73 219.441 110.712 210.691 126.286 212.777C124.798 211.435 123.319 210.493 122.034 210.165Z" fill="#FFCCBF"/>
<path fill-rule="evenodd" clip-rule="evenodd" d="M105.932 224.723C107.418 233.265 117.148 240.115 128.483 237.222C131.969 236.332 133.814 234.395 134.509 231.945C131.286 228.599 126.93 225.32 121.378 222.912C110.756 218.307 107.153 221.738 105.932 224.723Z" fill="#C64D60"/>
<path d="M125.312 237.981C125.312 237.981 122.943 234.024 118.208 231.375C113.403 228.688 109.553 229.02 109.086 227.921C108.362 226.214 112.484 223.957 118.264 225.473C121.801 226.401 125.761 229.047 128.704 235.476C133.953 246.943 125.312 237.981 125.312 237.981Z" fill="#541138"/>
<path d="M158.959 190.867C131.839 188.485 118.266 202.317 115.102 218.071C112.116 232.943 118.345 249.529 133.256 255.801C152.356 263.834 180.901 256.896 192.529 239.467C219.561 236.77 216.205 209.254 202.592 201.124C195.347 196.797 182.704 196.157 173.74 201.961C173.74 201.961 172.489 194.731 158.959 190.867Z" fill="#541138"/>
<path fill-rule="evenodd" clip-rule="evenodd" d="M152.938 190.265C129.166 193.439 121.109 209.623 121.344 224.082C121.62 241.081 133.339 254.519 155.094 251.563C174.3 248.954 184.398 239.868 189.935 233.682C191.476 231.96 193.956 225.989 196.118 224.124C198.266 222.272 200.117 224.492 196.752 232.452C196.538 233.957 203.178 230.904 205.809 224.959C209.371 216.904 203.309 207.054 195.646 204.059C189.424 201.63 177.518 201.998 168.767 208.294C168.767 208.294 170.234 204.607 174.815 201.315C172.847 193.219 161.692 189.096 152.938 190.265Z" fill="#FA8888"/>
<path fill-rule="evenodd" clip-rule="evenodd" d="M142.583 192.827C173.113 208.498 143.081 218.687 125.405 222.89C125.405 222.89 123.115 202.991 142.583 192.827Z" fill="#FBA39B"/>
<path fill-rule="evenodd" clip-rule="evenodd" d="M148.806 190.98C128.227 195.387 121.125 210.495 121.344 224.082C121.371 225.733 121.507 227.351 121.747 228.921C123.81 242.41 142.234 244.935 154.751 243.184C171.715 240.809 182.73 223.441 195.119 215.551C180.225 214.585 172.917 231.582 150.177 234.244C134.799 236.043 127.905 228.82 127.092 220.643C126.012 209.788 133.086 195.905 148.806 190.98Z" fill="#FFCCBF"/>
<path fill-rule="evenodd" clip-rule="evenodd" d="M121.74 228.863C123.961 243.508 135.425 254.236 155.094 251.563C174.3 248.954 184.398 239.868 189.935 233.682C191.476 231.96 193.956 225.989 196.118 224.124C198.267 222.272 200.117 224.492 196.752 232.452C196.54 233.947 203.087 230.945 205.752 225.08C205.601 219.37 203.493 214.786 195.074 215.202C180.615 215.919 175.891 237.534 148.548 238.823C133.983 239.509 125.105 234.793 121.74 228.863Z" fill="#C64D60"/>
<path fill-rule="evenodd" clip-rule="evenodd" d="M182.523 204.407C187.759 203.509 192.006 204.449 192.006 206.503C192.006 208.559 187.759 210.954 182.523 211.851C177.284 212.748 173.039 211.811 173.039 209.755C173.039 207.699 177.284 205.304 182.523 204.407Z" fill="#FBA39B"/>
<path d="M135.24 99.9355C135.24 99.9355 145.189 118.688 178.33 117.471C178.33 117.471 150.844 114.895 141.252 96.5708L139.392 95.7832L135.24 99.9355Z" fill="#541138"/>
<path d="M351.394 221.878C351.394 199.795 366.449 184.132 384.885 180.892C402.591 177.779 423.606 186.112 428.404 211.743C433.949 241.356 411.046 265.698 383.226 264.813C377.839 264.641 364.579 261.713 362.159 250.782L362.132 240.776L351.394 221.878Z" fill="#541138"/>
<path fill-rule="evenodd" clip-rule="evenodd" d="M358.762 206.004C372.483 187.645 402.441 183.466 413.987 200.416C418.415 206.916 420.305 214.399 420.101 221.709C419.825 231.528 415.843 241.309 409.031 247.982C397.837 258.948 374.178 262.465 361.798 252.116C349.282 241.656 349.264 218.714 358.762 206.004Z" fill="#EB6A73"/>
<path fill-rule="evenodd" clip-rule="evenodd" d="M390.436 191.578C404.05 191.578 414.314 201.33 414.314 207.211C414.314 213.094 403.277 212.536 389.663 212.536C376.048 212.536 365.011 213.094 365.011 207.211C365.011 201.33 376.82 191.578 390.436 191.578Z" fill="#FA8888"/>
<path fill-rule="evenodd" clip-rule="evenodd" d="M388.975 206.181C399.506 206.181 404.35 214.762 404.35 226.194C404.35 237.627 392.463 245.09 381.932 245.09C371.401 245.09 367.502 237.799 367.502 226.366C367.502 214.934 378.444 206.181 388.975 206.181Z" fill="#B03554"/>
<path fill-rule="evenodd" clip-rule="evenodd" d="M377.9 214.602C385.075 214.602 390.892 221.485 390.892 229.975C390.892 238.465 385.075 245.35 377.9 245.35C370.725 245.35 363.62 238.465 363.62 229.975C363.62 221.485 370.725 214.602 377.9 214.602Z" fill="#EB6A73"/>
<path fill-rule="evenodd" clip-rule="evenodd" d="M366.736 231.931C366.736 231.931 370.858 216.985 384.644 218.962L372.877 214.366C372.877 214.366 368.453 218.79 366.736 231.931Z" fill="#B03554"/>
<path d="M366.616 233.667C370.62 203.379 405.328 203.079 403.336 232.451C416.842 195.668 362.032 195 366.616 233.667Z" fill="#541138"/>
<path d="M372.415 217.919C383.039 215.833 388.695 222.072 389.475 229.147C390.222 235.933 386.584 243.486 374.061 245.478C398.339 248.815 404.038 213.441 377.567 212.193C376.947 212.408 375.684 213.409 375.063 213.625C374.181 215.057 373.297 216.489 372.415 217.919Z" fill="#541138"/>
<path fill-rule="evenodd" clip-rule="evenodd" d="M383.678 220.945C386.681 223.072 388.199 227.482 387.417 230.432C386.634 233.385 383.563 234.053 380.559 231.926C377.555 229.799 375.756 225.682 376.538 222.731C377.321 219.779 380.672 218.818 383.678 220.945Z" fill="#FA8888"/>
<path fill-rule="evenodd" clip-rule="evenodd" d="M367.379 235.001C368.946 246.692 384.788 245.149 386.705 234.357C386.705 234.357 378.264 241.702 367.379 235.001Z" fill="#B03554"/>
<path fill-rule="evenodd" clip-rule="evenodd" d="M356.214 241.637C368.425 262.679 397.041 258.962 409.211 244.127C392.99 252.33 372.029 254.425 356.214 241.637Z" fill="#B03554"/>
<path fill-rule="evenodd" clip-rule="evenodd" d="M169.685 47.0042C174.299 47.4697 175.863 54.8737 174.97 63.7248C174.08 72.5759 171.073 79.5212 166.457 79.0557C161.84 78.5902 157.364 70.8927 158.256 62.0416C159.147 53.1905 165.069 46.5404 169.685 47.0042Z" fill="#875D6B"/>
<path fill-rule="evenodd" clip-rule="evenodd" d="M192.118 53.7742C194.3 53.7742 195.606 58.311 195.032 63.9088C194.457 69.5065 192.224 74.045 190.042 74.045C187.859 74.045 186.555 69.5065 187.129 63.9088C187.702 58.311 189.935 53.7742 192.118 53.7742Z" fill="#875D6B"/>
<path fill-rule="evenodd" clip-rule="evenodd" d="M262.028 48.7903C267.455 46.4038 272.584 46.1239 273.481 48.1646C274.378 50.2054 270.705 53.7944 265.276 56.1809C259.849 58.5674 254.72 58.8473 253.822 56.8066C252.925 54.7659 256.599 51.1768 262.028 48.7903Z" fill="#875D6B"/>
<path fill-rule="evenodd" clip-rule="evenodd" d="M363.761 95.262C370.759 95.262 376.431 94.6464 376.431 97.2791C376.431 99.9118 370.759 104.796 363.761 104.796C356.764 104.796 351.092 99.9118 351.092 97.2791C351.092 94.6464 356.764 95.262 363.761 95.262Z" fill="#79505F"/>
<path fill-rule="evenodd" clip-rule="evenodd" d="M390.61 129.275C393.787 129.275 398.339 136.335 398.339 143.877C398.339 151.42 393.787 156.589 390.61 156.589C387.432 156.589 386.83 151.42 386.83 143.877C386.83 136.335 387.432 129.275 390.61 129.275Z" fill="#79505F"/>
<path d="M250.197 142.15C233.456 107.957 193.723 120.856 206.484 149.785C206.484 149.785 197.417 148.858 199.655 159.453C203.075 175.645 222.51 181.42 241.07 180.786C259.694 180.149 278.644 173.372 278.775 162.979C278.868 155.644 269.439 153.809 264.961 155.601C264.961 155.601 264.822 140.101 250.197 142.15Z" fill="#541138"/>
<path fill-rule="evenodd" clip-rule="evenodd" d="M249.087 154.973C246.909 145.058 241.165 137.939 236.095 133.867C219.253 120.341 201.014 135.945 215.374 157.621C215.374 157.621 211.795 157.729 208.859 154.579C208.859 154.579 204.35 152.897 205.637 159.124C206.928 165.352 216.661 174.871 237.849 175.301C259.036 175.73 269.558 168.644 271.562 165.496C273.566 162.345 272.636 157.98 263.616 160.126C263.616 160.126 261.684 162.846 259.107 164.421C261.451 156.688 260.874 146.157 250.733 147.529C250.733 147.529 251.163 151.895 249.087 154.973Z" fill="#79505F"/>
<path fill-rule="evenodd" clip-rule="evenodd" d="M225.654 132.061C232.793 132.061 238.579 136.254 238.579 141.425C238.579 146.594 232.793 150.787 225.654 150.787C218.514 150.787 212.726 146.594 212.726 141.425C212.726 136.254 218.514 132.061 225.654 132.061Z" fill="#875D6B"/>
<path fill-rule="evenodd" clip-rule="evenodd" d="M248.333 152.094C245.771 143.67 240.661 137.534 236.095 133.867C219.349 120.417 201.225 135.772 215.141 157.259C214.436 155.096 209.326 138.135 221.144 135.24C232.766 132.393 243.659 143.886 248.333 152.094ZM214.06 157.484C212.751 157.233 210.682 156.535 208.859 154.579C208.859 154.579 204.35 152.897 205.637 159.124C206.145 161.573 207.956 164.528 211.257 167.241C208.535 162.787 206.911 157.707 214.06 157.484Z" fill="#A37A84"/>
<path fill-rule="evenodd" clip-rule="evenodd" d="M226.64 174.082C229.947 174.779 233.675 175.217 237.849 175.301C259.036 175.73 269.558 168.645 271.562 165.496C273.566 162.345 272.636 157.98 263.616 160.126C263.616 160.126 261.684 162.846 259.107 164.421C261.451 156.688 260.874 146.157 250.733 147.529C250.733 147.529 251.149 151.772 249.174 154.84C248.083 161.809 243.599 172.375 226.64 174.082Z" fill="#643451"/>
<path d="M244.596 165.776C244.596 165.776 235.018 175.138 220.889 173.077L230.81 176.727C230.81 176.727 240.56 175.482 244.596 165.776Z" fill="#541138"/>
<path fill-rule="evenodd" clip-rule="evenodd" d="M136.272 162.72C136.027 189.361 105.757 194.635 87.0933 186.618C87.154 182.675 87.1978 178.501 87.245 174.058C87.2619 172.588 87.3294 171.146 87.4205 169.715C96.0945 167.543 105.782 165.074 106.897 164.61C108.958 163.75 128.885 150.522 136.272 162.72Z" fill="#D77D75"/>
<path d="M97.1827 148.316C105.838 116.842 143.035 126.146 132.525 154.973C132.525 154.973 139.853 154.543 137.431 164.565C133.783 179.665 118.737 185.633 104.372 185.026C89.9574 184.416 76.3131 178.757 75.3551 168.859C74.6737 161.826 81.6393 158.122 85.569 160.342C85.569 160.342 84.8606 146.741 97.1827 148.316Z" fill="#541138"/>
<path fill-rule="evenodd" clip-rule="evenodd" d="M97.8807 160.18C99.5842 150.57 104.075 143.673 108.042 139.725C121.213 126.617 135.476 141.74 124.247 162.747C124.247 162.747 127.047 162.851 129.342 159.798C129.342 159.798 132.869 158.168 131.86 164.204C130.853 170.238 123.24 179.464 106.669 179.88C90.1006 180.297 81.8718 173.429 80.3033 170.377C78.7365 167.326 79.4651 163.094 86.5166 165.174C86.5166 165.174 88.0295 167.81 90.0449 169.336C88.21 161.843 88.662 151.637 96.5939 152.966C96.5939 152.966 96.2583 157.198 97.8807 160.18Z" fill="#79505F"/>
<path fill-rule="evenodd" clip-rule="evenodd" d="M89.8211 168.349C88.2644 160.981 89.0065 151.695 96.5943 152.966C96.5943 152.966 96.5066 154.071 96.6365 155.547C90.1466 157.611 89.789 165.985 89.8211 168.349Z" fill="#A37A84"/>
<path fill-rule="evenodd" clip-rule="evenodd" d="M123.298 138.528C123.298 138.528 123.556 153.386 100.88 152.614C100.88 152.614 103.715 144.11 112.131 139.644C120.549 135.176 123.298 138.528 123.298 138.528Z" fill="#875D6B"/>
<path fill-rule="evenodd" clip-rule="evenodd" d="M98.0376 159.345C99.8456 150.17 104.192 143.557 108.042 139.725C115.347 132.454 122.987 133.873 126.428 140.16C108.083 132.965 99.1558 156.186 98.0376 159.345Z" fill="#A37A84"/>
<path fill-rule="evenodd" clip-rule="evenodd" d="M125.979 139.398C129.173 144.358 129.507 152.907 124.247 162.747C124.247 162.747 127.047 162.851 129.342 159.799C129.342 159.799 132.869 158.168 131.86 164.204C130.853 170.238 123.238 179.464 106.67 179.881C98.6448 180.081 92.5749 178.575 88.2725 176.62C99.5286 176.168 121.854 160.871 125.979 139.398Z" fill="#643451"/>
<path d="M104.313 170.093C104.313 170.093 93.9208 177.481 83.8267 175.548L89.1529 179.628C89.1529 179.628 98.7292 178.383 104.313 170.093Z" fill="#541138"/>
<path fill-rule="evenodd" clip-rule="evenodd" d="M114.232 166.769C121.375 161.59 128.521 166.336 119.722 172.716C115.873 175.507 111.63 175.76 110.331 174.219C109.036 172.679 110.675 169.35 114.232 166.769Z" fill="#79505F"/>
<path fill-rule="evenodd" clip-rule="evenodd" d="M311.189 271.631C313.043 271.631 314.546 273.134 314.546 274.988C314.546 276.841 313.043 278.344 311.189 278.344C309.336 278.344 307.833 276.841 307.833 274.988C307.833 273.134 309.336 271.631 311.189 271.631ZM82.5413 282.564C83.5751 282.564 84.4134 283.402 84.4134 284.436C84.4134 285.47 83.5751 286.308 82.5413 286.308C81.5074 286.308 80.6692 285.47 80.6692 284.436C80.6692 283.402 81.5074 282.564 82.5413 282.564ZM77.5592 289.927C79.4127 289.927 80.9154 291.428 80.9154 293.284C80.9154 295.135 79.4127 296.638 77.5592 296.638C75.7057 296.638 74.2046 295.135 74.2046 293.284C74.2046 291.428 75.7057 289.927 77.5592 289.927ZM106.34 355.941C107.418 355.941 108.29 356.813 108.29 357.891C108.29 358.967 107.418 359.841 106.34 359.841C105.264 359.841 104.391 358.967 104.391 357.891C104.391 356.813 105.264 355.941 106.34 355.941ZM102.554 343.181C104.408 343.181 105.91 344.683 105.91 346.537C105.91 348.391 104.408 349.893 102.554 349.893C100.701 349.893 99.1978 348.391 99.1978 346.537C99.1978 344.683 100.701 343.181 102.554 343.181ZM201.96 388.049C203.165 388.049 204.141 389.023 204.141 390.229C204.141 391.433 203.165 392.41 201.96 392.41C200.756 392.41 199.78 391.433 199.78 390.229C199.78 389.023 200.756 388.049 201.96 388.049ZM251.092 363.998C252.296 363.998 253.271 364.975 253.271 366.179C253.271 367.383 252.296 368.36 251.092 368.36C249.886 368.36 248.911 367.383 248.911 366.179C248.911 364.975 249.886 363.998 251.092 363.998ZM265.837 357.697C267.691 357.697 269.194 359.2 269.194 361.052C269.194 362.907 267.691 364.408 265.837 364.408C263.984 364.408 262.481 362.907 262.481 361.052C262.481 359.2 263.984 357.697 265.837 357.697ZM300.803 247.716C301.879 247.716 302.753 248.588 302.753 249.666C302.753 250.742 301.879 251.615 300.803 251.615C299.726 251.615 298.854 250.742 298.854 249.666C298.854 248.588 299.726 247.716 300.803 247.716ZM310.852 286.711C311.93 286.711 312.802 287.583 312.802 288.661C312.802 289.737 311.93 290.61 310.852 290.61C309.776 290.61 308.902 289.737 308.902 288.661C308.902 287.583 309.776 286.711 310.852 286.711ZM343.856 258.52C345.061 258.52 346.037 259.497 346.037 260.703C346.037 261.907 345.061 262.883 343.856 262.883C342.651 262.883 341.676 261.907 341.676 260.703C341.676 259.497 342.651 258.52 343.856 258.52ZM336.785 316.639C338.638 316.639 340.141 318.142 340.141 319.995C340.141 321.849 338.638 323.352 336.785 323.352C334.933 323.352 333.43 321.849 333.43 319.995C333.43 318.142 334.933 316.639 336.785 316.639ZM356.197 264.416C358.051 264.416 359.553 265.919 359.553 267.773C359.553 269.626 358.051 271.129 356.197 271.129C354.343 271.129 352.841 269.626 352.841 267.773C352.841 265.919 354.343 264.416 356.197 264.416Z" fill="#766E75"/>
<path fill-rule="evenodd" clip-rule="evenodd" d="M262.707 246.12C267.45 246.12 271.295 247.448 271.295 249.084C271.295 250.721 267.45 252.047 262.707 252.047C257.963 252.047 254.118 250.721 254.118 249.084C254.118 247.448 257.963 246.12 262.707 246.12Z" fill="white"/>
<path fill-rule="evenodd" clip-rule="evenodd" d="M274.299 299.547C275.438 299.547 275.842 301.585 275.201 304.1C274.564 306.613 273.122 308.652 271.983 308.652C270.845 308.652 270.44 306.613 271.079 304.1C271.719 301.585 273.161 299.547 274.299 299.547Z" fill="white"/>
</svg>
